<?xml version="1.0" encoding="UTF-8"?>
<svg width="113px" height="114px" viewBox="0 0 113 114" version="1.1" xmlns="http://www.w3.org/2000/svg" xmlns:xlink="http://www.w3.org/1999/xlink">
    <!-- Generator: Sketch 43.2 (39069) - http://www.bohemiancoding.com/sketch -->
    <title>electircal_work_icon</title>
    <desc>Created with Sketch.</desc>
    <defs>
        <path d="M0.203729939,75.6118309 C8.14680876,97.0833931 28.8979036,112.398912 53.2460733,112.398912 C59.4116757,112.398912 65.3466205,111.416824 70.9013421,109.60138 L70.901342,2.82780134 C65.3466205,1.01237418 59.4116757,0.0302983434 53.2460733,0.0302983434 C28.8979036,0.0302983434 8.14680876,15.3456379 0.203729939,36.8172611 L0.203729939,75.6118309 L0.203729939,75.6118309 Z" id="path-1"></path>
        <path d="M0.0664386112,36.1687487 C6.46018141,38.6650804 13.4225179,40.035878 20.7068063,40.035878 C20.9558497,40.035878 21.2045169,40.0342757 21.4527978,40.0310808 L21.4527978,0.116545667 L0.066439267,0.116545667 L0.066439267,36.1687534 L0.0664386112,36.1687487 Z" id="path-3"></path>
        <path d="M0.0664386112,36.1687487 C6.46018141,38.6650804 13.4225179,40.035878 20.7068063,40.035878 C20.9558497,40.035878 21.2045169,40.0342757 21.4527978,40.0310808 L21.4527978,0.116545667 L0.066439267,0.116545667 L0.066439267,36.1687534 L0.0664386112,36.1687487 Z" id="path-5"></path>
        <path d="M0.251723477,21.3786898 C6.08324305,27.8358244 13.3970477,32.9423443 21.6606499,36.1687372 L21.6606505,0.116545667 L0.251723477,0.116545667 L0.251723477,21.3786898 L0.251723477,21.3786898 Z" id="path-7"></path>
    </defs>
    <g id="Page-1" stroke="none" stroke-width="1" fill="none" fill-rule="evenodd">
        <g id="electircal_work_icon">
            <g transform="translate(0.000000, -1.000000)">
                <g id="Group-26" transform="translate(0.000000, 0.042828)" fill-rule="nonzero">
                    <path d="M0,58.0332791 C0,26.5111313 25.2960262,0.957172 56.5,0.957172 C87.7039738,0.957172 113,26.5111313 113,58.0332791 C113,89.5554269 87.7039738,115.109386 56.5,115.109386 C25.2960262,115.109386 0,89.5554269 0,58.0332791 Z" id="Fill-1" fill="#F7A624"></path>
                    <path d="M0,58.0332791 C0,89.5554269 25.2960262,115.109386 56.5,115.109386 C87.7039738,115.109386 113,89.5554269 113,58.0332791 C113,26.5111313 87.7039738,0.957172 56.5,0.957172 C25.2960262,0.957172 0,26.5111313 0,58.0332791" id="Fill-3" fill-opacity="0.2" fill="#FFDF43"></path>
                    <polygon id="Fill-5" fill="#E4E4E4" points="60.2701361 83.9287138 99.026178 83.9287138 99.026178 33.9217393 60.2701361 33.9217393"></polygon>
                    <polygon id="Fill-7" fill="#C8C8C8" points="63.8621754 80.3561567 95.4341387 80.3561567 95.4341387 37.4931197 63.8621754 37.4931197"></polygon>
                    <path d="M88.8900188,42.6682239 L70.4062361,42.6682239 L70.4062361,42.6564575 C70.4062361,42.0496082 71.1490188,41.5574807 72.0651471,41.5574807 L87.2314037,41.5574807 C88.1472361,41.5574807 88.8900188,42.0496082 88.8900188,42.6564575 L88.8900188,42.6682239 Z" id="Fill-8" fill="#E4E4E4"></path>
                    <path d="M88.8900188,42.6682239 L70.4062361,42.6682239 L70.4062361,42.6738129 C70.4062361,42.9773846 71.1490188,43.2235955 72.0651471,43.2235955 L87.2314037,43.2235955 C88.1472361,43.2235955 88.8900188,42.9773846 88.8900188,42.6738129 L88.8900188,42.6682239 Z" id="Fill-9" fill="#959595"></path>
                    <path d="M88.8900188,45.7230029 L70.4062361,45.7230029 L70.4062361,45.712119 C70.4062361,45.1043872 71.1490188,44.6122597 72.0651471,44.6122597 L87.2314037,44.6122597 C88.1472361,44.6122597 88.8900188,45.1043872 88.8900188,45.712119 L88.8900188,45.7230029 Z" id="Fill-10" fill="#E4E4E4"></path>
                    <path d="M88.8900188,45.7230029 L70.4062361,45.7230029 L70.4062361,45.728886 C70.4062361,46.032752 71.1490188,46.2789628 72.0651471,46.2789628 L87.2314037,46.2789628 C88.1472361,46.2789628 88.8900188,46.032752 88.8900188,45.728886 L88.8900188,45.7230029 Z" id="Fill-11" fill="#959595"></path>
                    <path d="M88.8900188,48.7786349 L70.4062361,48.7786349 L70.4062361,48.7674569 C70.4062361,48.1600192 71.1490188,47.6675976 72.0651471,47.6675976 L87.2314037,47.6675976 C88.1472361,47.6675976 88.8900188,48.1600192 88.8900188,48.7674569 L88.8900188,48.7786349 Z" id="Fill-12" fill="#E4E4E4"></path>
                    <path d="M88.8900188,48.7786349 L70.4062361,48.7786349 L70.4062361,48.7842239 C70.4062361,49.0875015 71.1490188,49.3337123 72.0651471,49.3337123 L87.2314037,49.3337123 C88.1472361,49.3337123 88.8900188,49.0875015 88.8900188,48.7842239 L88.8900188,48.7786349 Z" id="Fill-13" fill="#959595"></path>
                    <path d="M88.8900188,51.8333845 L70.4062361,51.8333845 L70.4062361,51.8222065 C70.4062361,51.2147688 71.1490188,50.7226414 72.0651471,50.7226414 L87.2314037,50.7226414 C88.1472361,50.7226414 88.8900188,51.2147688 88.8900188,51.8222065 L88.8900188,51.8333845 Z" id="Fill-14" fill="#E4E4E4"></path>
                    <path d="M88.8900188,51.8333845 L70.4062361,51.8333845 L70.4062361,51.8389735 C70.4062361,52.1428394 71.1490188,52.3884619 72.0651471,52.3884619 L87.2314037,52.3884619 C88.1472361,52.3884619 88.8900188,52.1428394 88.8900188,51.8389735 L88.8900188,51.8333845 Z" id="Fill-15" fill="#959595"></path>
                    <path d="M88.8900188,54.8887518 L70.4062361,54.8887518 L70.4062361,54.877868 C70.4062361,54.2701361 71.1490188,53.7780087 72.0651471,53.7780087 L87.2314037,53.7780087 C88.1472361,53.7780087 88.8900188,54.2701361 88.8900188,54.877868 L88.8900188,54.8887518 Z" id="Fill-16" fill="#E4E4E4"></path>
                    <path d="M88.8900188,54.8887518 L70.4062361,54.8887518 L70.4062361,54.894635 C70.4062361,55.1979126 71.1490188,55.4441234 72.0651471,55.4441234 L87.2314037,55.4441234 C88.1472361,55.4441234 88.8900188,55.1979126 88.8900188,54.894635 L88.8900188,54.8887518 Z" id="Fill-17" fill="#959595"></path>
                    <path d="M79.6482162,76.1089467 L70.9954335,76.1089467 C70.1423131,76.1089467 69.6095565,75.1908775 70.0358209,74.4566575 L74.3623602,67.0050299 L78.6886037,59.5531083 C79.1148681,58.818594 80.1812686,58.818594 80.6078288,59.5531083 L84.9340723,67.0050299 L89.2606115,74.4566575 C89.6868759,75.1908775 89.1541194,76.1089467 88.300999,76.1089467 L79.6482162,76.1089467 Z" id="Fill-18" fill="#FFDF43"></path>
                    <path d="M79.6479204,61.931587 C79.6056194,61.931587 79.5275251,61.9442359 79.4787162,62.0289536 L72.5871953,73.8976677 C72.5377948,73.9832679 72.5664885,74.0565134 72.5871953,74.0932832 C72.6084937,74.1300531 72.6587817,74.1906498 72.7575827,74.1906498 L86.5397372,74.1906498 C86.6379466,74.1906498 86.6876429,74.1300531 86.7089414,74.0932832 C86.729944,74.0571017 86.7586377,73.9832679 86.7089414,73.8976677 L79.8177162,62.0289536 C79.7683157,61.9442359 79.6902215,61.931587 79.6479204,61.931587 M86.5397372,75.1140138 L72.7575827,75.1140138 C72.3511377,75.1140138 71.9869937,74.9045729 71.7834754,74.554524 C71.5802529,74.2050635 71.5802529,73.7864758 71.7834754,73.4361328 L78.6744047,61.5683011 C78.8770356,61.2173698 79.2411796,61.0085171 79.6479204,61.0085171 C80.0543654,61.0085171 80.4185094,61.2173698 80.6220277,61.5683011 L87.5129571,73.4361328 C87.7158838,73.7864758 87.7158838,74.2050635 87.5129571,74.5551124 C87.3094387,74.9045729 86.9458864,75.1140138 86.5397372,75.1140138" id="Fill-19" fill="#072238"></path>
                    <polygon id="Fill-20" fill="#072238" points="78.8331372 69.4561953 81.6457131 65.8489275 79.2623597 66.1054339 77.091399 70.4342729 79.3185639 70.1948278 77.9927366 73.4279257 81.5738309 69.1032049"></polygon>
                    <path d="M69.1581777,60.6188566 C69.1581777,61.7322889 68.264827,62.6350477 67.1626332,62.6350477 C66.0607353,62.6350477 65.1670887,61.7322889 65.1670887,60.6188566 C65.1670887,59.5054243 66.0607353,58.6029644 67.1626332,58.6029644 C68.264827,58.6029644 69.1581777,59.5054243 69.1581777,60.6188566" id="Fill-21" fill="#E4E4E4"></path>
                    <path d="M67.6117935,60.8595258 C67.6117935,60.6133149 67.4106416,60.413287 67.1627516,60.413287 C66.9148615,60.413287 66.7137097,60.6133149 66.7137097,60.8595258 C66.7137097,61.0439632 66.8264139,61.2025148 66.9870395,61.2701713 L66.7137097,62.3882684 L67.6117935,62.3882684 L67.3381678,61.2701713 C67.4990893,61.2025148 67.6117935,61.0439632 67.6117935,60.8595258" id="Fill-22" fill="#959595"></path>
                    <polygon id="Fill-23" fill="#959595" points="95.4341387 49.5727457 96.4407853 49.5727457 96.4407853 42.6588402 95.4341387 42.6588402"></polygon>
                    <polygon id="Fill-24" fill="#7898A9" points="95.4341387 72.2985623 96.4407853 72.2985623 96.4407853 65.3846569 95.4341387 65.3846569"></polygon>
                    <path d="M56.5,0.957172 C25.2960262,0.957172 0,26.5111313 0,58.0332791 C0,89.5554269 25.2960262,115.109386 56.5,115.109386 C87.7039738,115.109386 113,89.5554269 113,58.0332791 C113,26.5111313 87.7039738,0.957172 56.5,0.957172 M56.5,3.94544986 C70.8015995,3.94544986 84.2471204,9.57148058 94.359733,19.7875061 C104.472641,30.0032328 110.041885,43.5858521 110.041885,58.0332791 C110.041885,72.4807061 104.472641,86.0633254 94.359733,96.2790521 C84.2471204,106.495078 70.8015995,112.121108 56.5,112.121108 C42.1984005,112.121108 28.7528796,106.495078 18.640267,96.2790521 C8.52735864,86.0633254 2.95811518,72.4807061 2.95811518,58.0332791 C2.95811518,43.5858521 8.52735864,30.0032328 18.640267,19.7875061 C28.7528796,9.57148058 42.1984005,3.94544986 56.5,3.94544986" id="Fill-25" fill="#E4E4E4"></path>
                </g>
                <g id="Group-39" transform="translate(3.253927, 2.753450)">
                    <g id="Group-29">
                        <g id="Fill-27-Clipped">
                            <mask id="mask-2" fill="white">
                                <use xlink:href="#path-1"></use>
                            </mask>
                            <g id="path-1"></g>
                            <path d="M44.1736242,5.05004071 C44.1736242,4.14393142 42.4327026,4.40929314 41.5182192,4.40929314 C40.8032899,4.40929314 40.2199993,4.81871825 39.9662245,5.40183046 C38.7306098,4.93894186 37.4248438,4.61649881 36.0601057,4.48491767 C36.0237724,3.61094188 35.3091226,2.9106532 34.4195135,2.9106532 C33.4958071,2.9106532 32.7811572,3.61094188 32.7448238,4.48491767 C31.376732,4.61677582 30.070407,4.9397729 28.8331154,5.40376955 C28.5796202,4.81954929 27.995491,4.40929314 27.3129823,4.40929314 C26.3652398,4.40929314 25.6245977,5.14393142 25.6245977,6.05004071 L25.6245977,7.04701023 C21.5854429,9.77974276 18.9314286,14.3764953 18.9314286,19.5901555 L17.4987752,22.7400696 L16.8785921,22.7400696 C16.3159836,22.7400696 15.8615368,23.1916007 15.8615368,23.7478426 C15.8615368,24.3245835 16.3159836,24.7761146 16.8785921,24.7761146 L19.4177371,24.7827629 C19.5722936,24.9021555 19.6961066,25.0179469 19.8213171,25.1317992 C19.9786687,25.9553586 20.1695587,26.6512151 20.3797333,27.2340503 C19.8772146,27.163135 19.3886703,27.6850273 19.5091294,28.3468112 L20.6033234,35.048585 C20.7696186,36.0740868 21.3685605,36.8937681 22.1539206,37.276046 C22.9113321,40.2475636 24.7634964,42.9160292 27.2819592,44.9867008 L26.9926896,47.1257945 L18.4973843,49.8745939 C16.8003356,49.6673882 15.4593541,49.7992463 14.4095987,50.1970369 C10.5099082,51.0618712 7.30334692,53.692109 5.78992155,57.3013104 C3.76279798,62.134355 1.92349007,87.7586048 1.21331207,98.8022792 C1.03835283,101.50648 3.28291776,103.753332 6.01267317,103.615656 C7.41625991,103.545294 8.59038732,102.92811 9.3866475,101.979895 C9.61610683,102.023663 9.8511559,102.049147 10.0909563,102.049147 L10.5920775,102.049147 C10.784924,103.876602 10.9003524,105.704333 10.9003524,107.532065 C12.7801859,108.428478 14.5901477,109.224614 16.3500811,109.931828 C16.6141969,110.229616 16.8576306,110.231002 17.1027413,110.231832 C17.2612107,110.293607 17.4191212,110.353995 17.5764727,110.414107 C15.4998798,115.81392 14.1711958,120.620925 14.413232,123.684134 L15.9263779,219.456645 L16.2206783,219.456645 L15.9263779,220.586027 L15.1340305,223.637047 C14.5591245,225.845948 16.2419194,228 18.5423819,228 L25.3238691,228 C27.2688232,228 28.8459718,226.436816 28.8459718,224.508807 L28.8459718,219.456645 L29.484601,219.456645 L34.6126395,118.946105 L39.2473824,219.456645 L39.8860116,219.456645 L39.8860116,224.509084 C39.8860116,226.437093 41.4628806,228 43.4081144,228 L50.1896016,228 C52.490064,228 54.1728588,225.845948 53.5976733,223.637047 L52.805326,220.586027 L52.511305,219.456645 L52.805326,219.456645 L56.790247,118.719525 C56.9819755,116.30231 56.1943794,112.974554 54.8355106,109.229616 C56.6136108,108.224614 56.423293,108.428478 58.3028471,107.532065 C58.3028471,105.704333 58.4182755,104.876602 58.6114014,103.049147 L59.1125227,103.049147 C59.3526026,103.049147 59.5876516,103.023663 59.8168314,102.980172 C60.6133711,103.928387 61.7874985,103.545294 63.1008108,103.6115 C65.9208407,103.753332 68.1651262,101.50648 67.9904464,98.8022792 C67.2802684,87.7588818 65.4409605,62.134355 63.4138369,57.3015875 C61.9004115,53.692386 58.6938502,51.0618712 54.8458649,50.2081174 C53.7444044,49.7992463 52.4034228,49.6673882 50.7063741,49.8745939 L42.2110689,47.1260716 L41.880994,44.6855877 C44.216672,42.6600692 45.9296515,40.105456 46.6507295,37.2763229 C47.4358102,36.8940451 48.0353111,36.0743638 48.2032831,35.048585 L49.2952412,28.3468112 C49.4173772,27.6844733 48.9274355,27.1620269 48.4249168,27.2343273 C48.635371,26.6514921 48.8259815,25.9559127 48.983333,25.1329072 C49.1091024,25.0187779 49.2331949,24.9027095 49.354213,24.7827629 L51.9266169,24.7761146 C52.488946,24.7761146 52.9433928,24.3245835 52.9433928,23.7683415 C52.9433928,23.1916007 52.488946,22.7400696 51.9266169,22.7400696 L51.3061545,22.7400696 L49.873501,19.5901555 C49.873501,14.3767723 47.2194867,9.77974276 43.1803319,7.04701023 L44.1736242,5.05004071 Z" id="Fill-27" fill-opacity="0.0599999987" fill="#000000" fill-rule="nonzero" style="mix-blend-mode: multiply;" mask="url(#mask-2)"></path>
                        </g>
                    </g>
                    <g id="Group-32" transform="translate(32.539267, 72.363034)">
                        <g id="Fill-30-Clipped">
                            <mask id="mask-4" fill="white">
                                <use xlink:href="#path-3"></use>
                            </mask>
                            <g id="path-3"></g>
                            <path d="M4.97217749,152.126864 L19.3219942,152.126864 L21.4225518,46.2165047 C22.3848267,34.0359823 0.066439267,0.116545667 0.066439267,0.116545667 L0.066439267,45.3952137 L4.97217749,152.126864 Z" id="Fill-30" fill="#E48C02" fill-rule="nonzero" mask="url(#mask-4)"></path>
                        </g>
                    </g>
                    <g id="Group-35" transform="translate(32.539267, 72.363034)">
                        <g id="Fill-33-Clipped">
                            <mask id="mask-6" fill="white">
                                <use xlink:href="#path-5"></use>
                            </mask>
                            <g id="path-5"></g>
                            <path d="M4.97217749,152.126864 L19.3219942,152.126864 L21.4225518,46.2165047 C22.3848267,34.0359823 0.066439267,0.116545667 0.066439267,0.116545667 L0.066439267,45.3952137 L4.97217749,152.126864 Z" id="Fill-33" fill="#E48C02" fill-rule="nonzero" mask="url(#mask-6)"></path>
                        </g>
                    </g>
                    <g id="Group-38" transform="translate(10.945026, 72.363034)">
                        <g id="Fill-36-Clipped">
                            <mask id="mask-8" fill="white">
                                <use xlink:href="#path-7"></use>
                            </mask>
                            <g id="path-7"></g>
                            <path d="M16.2331008,152.126864 L1.88328403,152.126864 L0.281760471,50.427092 C-0.677556283,38.2462754 21.6606505,0.116545667 21.6606505,0.116545667 L21.6606505,45.3952137 L16.2331008,152.126864 Z" id="Fill-36" fill="#001CAC" fill-rule="nonzero" mask="url(#mask-8)"></path>
                        </g>
                    </g>
                </g>
                <g id="Group-107" transform="translate(0.295812, 1.000000)" fill-rule="nonzero">
                    <polygon id="Fill-40" fill="#F9C166" points="43.471724 55.1549103 34.3972212 59.5198606 34.3972212 35.6850473 40.8483953 35.6850473"></polygon>
                    <path d="M34.3863776,56.4496578 C38.8842891,56.455348 42.1722479,50.0103462 42.175109,45.5375667 L50.8725209,48.3604735 C65.0635019,46.6218338 55.052852,67.98511 55.052852,73.8633682 L53.0535259,110.348912 C45.8238505,110.348912 39.6573543,110.73613 34.3972498,110.348912 C34.3972498,110.348912 34.3889527,74.5595638 34.3863776,56.4496578" id="Fill-42" fill="#E48C02"></path>
                    <path d="M63.5605167,103.551858 L63.6526436,103.556125 C66.4470652,103.697527 68.7448025,101.389583 68.5659847,98.6124821 C67.838983,87.2699278 65.956103,60.952197 63.8809582,55.988069 C62.3316807,52.2814746 59.0491581,49.5800535 55.1097304,48.7031941 L55.0530809,48.6909602 L55.0530809,73.8632543 L59.1710403,99.6296056 C59.518376,101.803829 61.3494703,103.440046 63.5605167,103.551858" id="Fill-44" fill="#E48C02"></path>
                    <polygon id="Fill-46" fill="#FACA7C" points="25.3009168 55.1549103 34.3754197 59.5198606 34.3754197 35.6850473 27.9245317 35.6850473"></polygon>
                    <path d="M34.3863776,56.4496578 C29.8884662,56.455348 26.6005074,50.0103462 26.5976463,45.5375667 L17.9002344,48.3604735 C3.70925348,46.6218338 13.7199033,67.98511 13.7199033,73.8633682 L15.7189433,110.348912 C22.9486187,110.348912 29.115401,110.73613 34.3755055,110.348912 C34.3755055,110.348912 34.3838026,74.5595638 34.3863776,56.4496578" id="Fill-48" fill="#EC950C"></path>
                    <path d="M5.21212413,103.551858 L5.1199972,103.556125 C2.32557561,103.697527 0.0278383557,101.389583 0.20665616,98.6124821 C0.933657825,87.2699278 2.81653778,60.952197 4.89168263,55.988069 C6.44096008,52.2814746 9.72376886,49.5800535 13.6629105,48.7031941 L13.7198461,48.6909602 L13.7198461,73.8632543 L9.60160054,99.6296056 C9.25426483,101.803829 7.42317053,103.440046 5.21212413,103.551858" id="Fill-50" fill="#EC950C"></path>
                    <path d="M58.6491785,107.578355 C40.4295039,116.297444 28.3434231,116.297444 10.1237485,107.578355 C10.1237485,94.7185098 4.6951261,81.8569571 4.6951261,68.9968271 C22.9150868,77.7159162 45.8578402,77.7159162 64.0778008,68.9968271 C64.0778008,81.8569571 58.6491785,94.7185098 58.6491785,107.578355" id="Fill-52" fill="#E4E4E4"></path>
                    <path d="M9.29489224,101.947052 L12.7836991,101.947052 C14.9838734,101.947052 16.7689042,100.17171 16.7689042,97.981269 L16.7689042,93.6322512 C16.7689042,91.4432322 14.9838734,89.6667528 12.7836991,89.6667528 L6.7179131,89.6667528 C4.7863947,89.6667528 3.39161583,91.5089541 3.92892757,93.3545695 L5.62154539,99.1992554 C6.09648547,100.826082 7.59397729,101.947052 9.29489224,101.947052" id="Fill-54" fill="#FACA7C"></path>
                    <path d="M46.0856684,35.6626563 L46.1076987,35.6626563 C47.384887,35.6626563 48.4789659,34.6008655 48.7164359,33.1330791 L49.8365506,26.2502167 C49.9899048,25.4035154 49.1770706,24.7778782 48.5733817,25.2763394 L46.5520252,26.9558011 L46.0856684,35.6626563 Z" id="Fill-56" fill="#FACA7C"></path>
                    <path d="M34.5904875,47.1136091 L34.5904875,47.1656743 L34.5904875,7.65294532 C28.5576039,7.65294532 19.6599161,13.979022 19.6599161,19.3408948 L21.7897076,34.1160607 C22.6666301,40.2020111 28.0016951,45.2768134 34.5904875,47.1136091" id="Fill-58" fill="#FBD392"></path>
                    <path d="M34.5906305,47.1136091 L34.5906305,47.1656743 L34.5906305,7.65294532 C40.623228,7.65294532 49.5209158,13.979022 49.5209158,19.3408948 L47.3911242,34.1160607 C46.5144878,40.2020111 41.1794228,45.2768134 34.5906305,47.1136091" id="Fill-60" fill="#FACA7C"></path>
                    <path d="M23.0936185,35.6626563 L23.0715881,35.6626563 C21.7966886,35.6626563 20.7026098,34.6008655 20.4628509,33.1330791 L19.345025,26.2502167 C19.189096,25.4035154 20.0033606,24.7778782 20.6056191,25.2763394 L22.6292644,26.9558011 L23.0936185,35.6626563 Z" id="Fill-62" fill="#FBD392"></path>
                    <path d="M34.5904875,6.43009349 C28.4028192,6.57832313 24.1635497,8.43560348 22.7830763,9.84677234 C21.4037473,11.2576568 18.6448031,15.5671275 19.4799539,21.8135415 C20.3171073,28.061378 22.9098223,28.2685012 22.9098223,28.2685012 C22.9098223,28.2685012 23.4107983,23.5149105 24.1635497,19.057779 C24.6244706,16.3236392 30.2831242,15.6914584 34.5904875,15.6112266 L34.5904875,6.43009349 Z" id="Fill-64" fill="#333333"></path>
                    <path d="M34.5906305,6.43009349 C40.7780126,6.57832313 45.0172821,8.43560348 46.3980416,9.84677234 C47.7773707,11.2576568 50.5360287,15.5671275 49.700878,21.8135415 C48.8637246,28.061378 46.2712955,28.2685012 46.2712955,28.2685012 C46.2712955,28.2685012 45.7700336,23.5149105 45.0172821,19.057779 C44.5566474,16.3236392 38.8979938,15.6914584 34.5906305,15.6112266 L34.5906305,6.43009349 Z" id="Fill-66" fill="#333333"></path>
                    <path d="M59.4777486,101.947052 L55.9889417,101.947052 C53.7887675,101.947052 52.0037366,100.17171 52.0037366,97.981269 L52.0037366,93.6322512 C52.0037366,91.4432322 53.7887675,89.6667528 55.9889417,89.6667528 L62.0547278,89.6667528 C63.9865322,89.6667528 65.381025,91.5089541 64.8437133,93.3545695 L63.1510955,99.1992554 C62.6764415,100.826082 61.1786636,101.947052 59.4777486,101.947052" id="Fill-68" fill="#FACA7C"></path>
                    <path d="M34.5904875,14.8070026 L34.5727487,14.8070026 C33.6380323,14.8070026 32.8795587,14.0530515 32.8795587,13.1218507 L32.8795587,1.81059228 C32.8795587,1.78640895 32.8924336,1.76677777 32.893578,1.74230992 C31.4945075,1.87802112 30.1555198,2.20975961 28.8892037,2.68602911 C28.9761806,2.89087622 29.027394,3.11393194 29.027394,3.34979062 L29.027394,13.1218507 C29.027394,14.0530515 28.2680621,14.8070026 27.3330596,14.8070026 L27.2992988,14.8070026 C26.3631518,14.8070026 25.6046782,14.0530515 25.6046782,13.1218507 L25.6046782,4.3737416 C21.4701245,7.18043134 18.7529522,11.9015879 18.7529522,17.2563479 L17.28636,20.4915095 L34.5904875,20.4915095 L34.5904875,14.8070026 Z" id="Fill-70" fill="#FFDF43"></path>
                    <path d="M34.5904875,20.4916518 L17.28636,20.4916518 L16.6511992,20.4916518 C16.0755489,20.4916518 15.6103366,20.9554029 15.6103366,21.5269832 L15.6103366,21.5477524 C15.6103366,22.1190482 16.0755489,22.5827992 16.6511992,22.5827992 L19.2507809,22.5896275 L34.5904875,22.5896275 L34.5904875,20.4916518 Z" id="Fill-72" fill="#FFDF43"></path>
                    <path d="M19.2507237,22.5896275 L19.2844845,22.5896275 C21.456048,24.7487728 24.4006765,25.9886668 27.4711927,25.9886668 L34.5904302,25.9886668 L34.5904302,22.5896275 L19.2507237,22.5896275 Z" id="Fill-74" fill="#FFDF43"></path>
                    <path d="M34.5904875,1.66483789 L34.5904875,0.125639553 L34.5727487,0.125639553 C33.6623515,0.125639553 32.9307721,0.844880474 32.893578,1.74222456 C33.3994178,1.69385789 33.9124103,1.66483789 34.4322694,1.66483789 L34.5904875,1.66483789 Z" id="Fill-76" fill="#FAF0D3"></path>
                    <path d="M32.8795587,13.1219076 C32.8795587,14.0528239 33.6380323,14.8070595 34.5727487,14.8070595 L34.5904875,14.8070595 L34.5904875,1.66469563 L34.4322694,1.66469563 C33.9124103,1.66469563 33.3994178,1.69371563 32.893578,1.74236682 C32.8924336,1.76683467 32.8795587,1.78646585 32.8795587,1.81064919 L32.8795587,13.1219076 Z" id="Fill-78" fill="#FAF0D3"></path>
                    <path d="M27.3063084,1.66483789 C26.3698753,1.66483789 25.6114017,2.41907352 25.6114017,3.34998977 L25.6114017,4.37365624 L25.6114017,13.1220499 C25.6114017,14.0529661 26.3698753,14.8069173 27.3063084,14.8069173 L27.3226166,14.8069173 L27.3226166,1.66483789 L27.3063084,1.66483789 Z" id="Fill-80" fill="#FFF1A1"></path>
                    <path d="M28.8959844,2.68617137 C28.6367702,2.08614008 28.0388034,1.66478098 27.3398403,1.66478098 L27.3223877,1.66478098 L27.3223877,14.8071449 L27.3398403,14.8071449 C28.2762734,14.8071449 29.0344609,14.0529092 29.0344609,13.121993 L29.0344609,3.34993287 C29.0344609,3.1140742 28.9846781,2.89101847 28.8959844,2.68617137" id="Fill-82" fill="#FFDF43"></path>
                    <path d="M41.8479725,1.66483789 C41.1490095,1.66483789 40.5510428,2.08591247 40.2918285,2.68622827 C40.2045654,2.89107537 40.1547826,3.1141311 40.1547826,3.34998977 L40.1547826,13.1220499 C40.1547826,14.0529661 40.91297,14.8069173 41.8479725,14.8069173 L41.8657112,14.8069173 L41.8657112,1.66483789 L41.8479725,1.66483789 Z" id="Fill-84" fill="#FAF0D3"></path>
                    <path d="M41.8829064,1.66483789 L41.8654538,1.66483789 L41.8654538,14.8069173 L41.8829064,14.8069173 C42.8181951,14.8069173 43.5760964,14.0529661 43.5760964,13.1220499 L43.5760964,4.37365624 L43.5760964,3.34998977 C43.5760964,2.41907352 42.8181951,1.66483789 41.8829064,1.66483789" id="Fill-86" fill="#FFDF43"></path>
                    <path d="M36.3012732,13.1219076 C36.3012732,14.0528239 35.5430856,14.8070595 34.6080831,14.8070595 L34.5906305,14.8070595 L34.5906305,20.4915664 L50.4278797,20.4915664 L51.8944718,20.4915664 L50.4278797,17.2564049 C50.4278797,11.9016449 47.7109935,7.18048824 43.5761536,4.3737985 L43.5761536,13.1219076 C43.5761536,14.0528239 42.8179661,14.8070595 41.8829636,14.8070595 L41.8480584,14.8070595 C40.9130558,14.8070595 40.1545823,14.0528239 40.1545823,13.1219076 L40.1545823,3.34984752 C40.1545823,3.11398885 40.2046512,2.89093312 40.2919143,2.68608602 C39.025312,2.20981652 37.6877549,1.87779351 36.2875399,1.74236682 C36.2886844,1.76683467 36.3012732,1.78646585 36.3012732,1.81064919 L36.3012732,13.1219076 Z" id="Fill-88" fill="#FFDF43"></path>
                    <path d="M52.5295467,20.4916518 L51.8946721,20.4916518 L50.4280799,20.4916518 L34.5905446,20.4916518 L34.5905446,22.5896275 L49.9302512,22.5896275 L52.5295467,22.5827992 C53.105197,22.5827992 53.5704094,22.1190482 53.5704094,21.5477524 L53.5704094,21.5269832 C53.5704094,20.9554029 53.105197,20.4916518 52.5295467,20.4916518" id="Fill-90" fill="#FFDF43"></path>
                    <path d="M34.5904875,25.9887522 L41.7094388,25.9887522 C44.7802412,25.9887522 47.7248698,24.7488582 49.8952887,22.5897129 L49.9301939,22.5897129 L34.5904875,22.5897129 L34.5904875,25.9887522 Z" id="Fill-92" fill="#FFDF43"></path>
                    <path d="M34.7487626,1.66483789 C35.2683356,1.66483789 35.7816143,1.69385789 36.2874541,1.74222456 C36.25026,0.844880474 35.5183945,0.125639553 34.6079972,0.125639553 L34.5905446,0.125639553 L34.5905446,1.66483789 L34.7487626,1.66483789 Z" id="Fill-94" fill="#FFDF43"></path>
                    <path d="M34.5904875,1.66483789 L34.5904875,14.8069173 L34.6079401,14.8069173 C35.5432287,14.8069173 36.3011301,14.0529661 36.3011301,13.1220499 L36.3011301,1.81079145 C36.3011301,1.78660811 36.2888275,1.76669241 36.2873969,1.74222456 C35.781557,1.69385789 35.2685646,1.66483789 34.7487055,1.66483789 L34.5904875,1.66483789 Z" id="Fill-96" fill="#FFDF43"></path>
                    <path d="M41.8829064,1.66483789 L41.8654538,1.66483789 L41.8654538,14.8069173 L41.8829064,14.8069173 C42.8181951,14.8069173 43.5760964,14.0529661 43.5760964,13.1220499 L43.5760964,4.37365624 L43.5760964,3.34998977 C43.5760964,2.41907352 42.8181951,1.66483789 41.8829064,1.66483789" id="Fill-98" fill="#FFDF43"></path>
                    <g id="Group-106" transform="translate(34.333018, 1.707059)" fill="#E48C02">
                        <path d="M1.96825472,11.4148485 C1.96825472,12.3457647 1.21006724,13.1000004 0.275064699,13.1000004 L0.257612081,13.1000004 L0.257612081,18.7845073 L16.0948613,18.7845073 L17.5614533,18.7845073 L16.0948613,15.5493457 C16.0948613,10.1945857 13.3779751,5.47342909 9.24313522,2.66673935 L9.24313522,11.4148485 C9.24313522,12.3457647 8.48494773,13.1000004 7.54994519,13.1000004 L7.51503995,13.1000004 C6.58003742,13.1000004 5.82156383,12.3457647 5.82156383,11.4148485 L5.82156383,1.64278837 C5.82156383,1.4069297 5.87163281,1.18387397 5.9588959,0.97902687 C4.69229363,0.502757369 3.35473645,0.170734366 1.95452152,0.0353076733 C1.95566595,0.0597755212 1.96825472,0.0794067014 1.96825472,0.103590039 L1.96825472,11.4148485 Z" id="Fill-100"></path>
                        <path d="M18.1965283,18.7845926 L17.5616537,18.7845926 L16.0950615,18.7845926 L0.257526249,18.7845926 L0.257526249,20.8825684 L15.5972328,20.8825684 L18.1965283,20.8757401 C18.7721786,20.8757401 19.2373911,20.4119891 19.2373911,19.8406932 L19.2373911,19.8199241 C19.2373911,19.2483437 18.7721786,18.7845926 18.1965283,18.7845926" id="Fill-102"></path>
                        <path d="M0.257469027,24.281693 L7.37642039,24.281693 C10.4472228,24.281693 13.3918514,23.041799 15.5622703,20.8826537 L15.5971755,20.8826537 L0.257469027,20.8826537 L0.257469027,24.281693 Z" id="Fill-104"></path>
                    </g>
                </g>
            </g>
        </g>
    </g>
</svg>