<?xml version="1.0" encoding="UTF-8"?>
<svg width="113px" height="114px" viewBox="0 0 113 114" version="1.1" xmlns="http://www.w3.org/2000/svg" xmlns:xlink="http://www.w3.org/1999/xlink">
    <!-- Generator: Sketch 43.2 (39069) - http://www.bohemiancoding.com/sketch -->
    <title>mail_switch_icon</title>
    <desc>Created with Sketch.</desc>
    <defs>
        <polygon id="path-1" points="0 107.687507 116.867781 107.687507 116.867781 0 0 0"></polygon>
        <polygon id="path-3" points="0 107.687507 116.867781 107.687507 116.867781 0 0 0"></polygon>
        <polygon id="path-5" points="0 107.687507 116.867781 107.687507 116.867781 0 0 0"></polygon>
        <polygon id="path-7" points="0 107.687507 116.867781 107.687507 116.867781 0 0 0"></polygon>
        <polygon id="path-9" points="0 107.687507 116.867781 107.687507 116.867781 0 0 0"></polygon>
        <polygon id="path-11" points="0 107.687507 116.867781 107.687507 116.867781 0 0 0"></polygon>
        <polygon id="path-13" points="0 107.687507 116.867781 107.687507 116.867781 0 0 0"></polygon>
        <polygon id="path-15" points="0 107.687507 116.867781 107.687507 116.867781 0 0 0"></polygon>
        <polygon id="path-17" points="0 107.687507 116.867781 107.687507 116.867781 0 0 0"></polygon>
        <polygon id="path-19" points="0 107.687507 116.867781 107.687507 116.867781 0 0 0"></polygon>
        <polygon id="path-21" points="0 107.687507 116.867781 107.687507 116.867781 0 0 0"></polygon>
        <polygon id="path-23" points="0 107.687507 116.867781 107.687507 116.867781 0 0 0"></polygon>
        <polygon id="path-25" points="0 107.687507 116.867781 107.687507 116.867781 0 0 0"></polygon>
        <polygon id="path-27" points="0 107.687507 116.867781 107.687507 116.867781 0 0 0"></polygon>
        <polygon id="path-29" points="0 107.687507 116.867781 107.687507 116.867781 0 0 0"></polygon>
        <polygon id="path-31" points="0 107.687507 116.867781 107.687507 116.867781 0 0 0"></polygon>
        <polygon id="path-33" points="0 107.687507 116.867781 107.687507 116.867781 0 0 0"></polygon>
    </defs>
    <g id="Page-1" stroke="none" stroke-width="1" fill="none" fill-rule="evenodd">
        <g id="mail_switch_icon">
            <g transform="translate(-4.000000, 0.000000)">
                <g id="Group" transform="translate(4.000000, 0.000000)" fill-rule="nonzero">
                    <path d="M113.078653,56.9281211 C113.078653,88.3685387 87.7650193,113.856242 56.5393263,113.856242 C25.3136333,113.856242 0,88.3685387 0,56.9281211 C0,25.4877034 25.3136333,0 56.5393263,0 C87.7650193,0 113.078653,25.4877034 113.078653,56.9281211 Z" id="Fill-1" fill="#F7A624"></path>
                    <path d="M113.078653,56.9281211 C113.078653,88.3685387 87.7650193,113.856242 56.5393263,113.856242 C25.3136333,113.856242 0,88.3685387 0,56.9281211 C0,25.4877034 25.3136333,0 56.5393263,0 C87.7650193,0 113.078653,25.4877034 113.078653,56.9281211" id="Fill-3" fill-opacity="0.02" fill="#FFDF43"></path>
                    <path d="M56.5393263,0 C25.3136333,0 0,25.4877034 0,56.9281211 C0,88.3685387 25.3136333,113.856242 56.5393263,113.856242 C87.7650193,113.856242 113.078653,88.3685387 113.078653,56.9281211 C113.078653,25.4877034 87.7650193,0 56.5393263,0 M56.5393263,2.9805299 C70.8508803,2.9805299 84.3057598,8.59197353 94.4254112,18.7815111 C104.545358,28.9707506 110.118478,42.5181531 110.118478,56.9281211 C110.118478,71.338089 104.545358,84.8854915 94.4254112,95.074731 C84.3057598,105.264269 70.8508803,110.875712 56.5393263,110.875712 C42.2277723,110.875712 28.7728927,105.264269 18.6532414,95.074731 C8.53329402,84.8854915 2.96017415,71.338089 2.96017415,56.9281211 C2.96017415,42.5181531 8.53329402,28.9707506 18.6532414,18.7815111 C28.7728927,8.59197353 42.2277723,2.9805299 56.5393263,2.9805299" id="Fill-5" fill="#E4E4E4"></path>
                    <path d="M113.078653,56.9281211 C113.078653,88.3685387 87.7650193,113.856242 56.5393263,113.856242 C25.3136333,113.856242 0,88.3685387 0,56.9281211 C0,25.4877034 25.3136333,0 56.5393263,0 C87.7650193,0 113.078653,25.4877034 113.078653,56.9281211" id="Fill-7" fill="#F7A624"></path>
                    <path d="M113.078653,56.9281211 C113.078653,88.3685387 87.7650193,113.856242 56.5393263,113.856242 C25.3136333,113.856242 0,88.3685387 0,56.9281211 C0,25.4877034 25.3136333,0 56.5393263,0 C87.7650193,0 113.078653,25.4877034 113.078653,56.9281211" id="Fill-9" fill-opacity="0.2" fill="#FFDF43"></path>
                    <path d="M56.5393263,0 C25.3136333,0 0,25.4877034 0,56.9281211 C0,88.3685387 25.3136333,113.856242 56.5393263,113.856242 C87.7650193,113.856242 113.078653,88.3685387 113.078653,56.9281211 C113.078653,25.4877034 87.7650193,0 56.5393263,0 M56.5393263,2.9805299 C70.8508803,2.9805299 84.3057598,8.59197353 94.4254112,18.7815111 C104.545358,28.9707506 110.118478,42.5181531 110.118478,56.9281211 C110.118478,71.338089 104.545358,84.8854915 94.4254112,95.074731 C84.3057598,105.264269 70.8508803,110.875712 56.5393263,110.875712 C42.2277723,110.875712 28.7728927,105.264269 18.6532414,95.074731 C8.53329402,84.8854915 2.96017415,71.338089 2.96017415,56.9281211 C2.96017415,42.5181531 8.53329402,28.9707506 18.6532414,18.7815111 C28.7728927,8.59197353 42.2277723,2.9805299 56.5393263,2.9805299" id="Fill-11" fill="#E4E4E4"></path>
                </g>
                <path d="M79.1307158,24.4225239 L30.1216466,24.4225239 L30.1216466,83 L79.1307158,83 L79.1307158,80.5587837 L91.9455102,80.5587837 C99.0862929,72.5544156 103.36597,62.3663281 103.36597,51.2705337 C103.36597,42.3213598 100.581609,33.9623539 95.7585234,26.8627639 L79.1307158,26.8627639 L79.1307158,24.4225239 Z" id="Fill-13" fill="#E4E4E4" fill-rule="nonzero"></path>
                <g id="Fill-15-Clipped" transform="translate(0.500781, 1.588262)">
                    <mask id="mask-2" fill="white">
                        <use xlink:href="#path-1"></use>
                    </mask>
                    <g id="path-1"></g>
                    <polygon id="Fill-15" fill="#E4E4E4" fill-rule="nonzero" mask="url(#mask-2)" points="26.92806 87.67229 75.9371294 87.67229 75.9371294 20.0152174 26.92806 20.0152174"></polygon>
                </g>
                <g id="Fill-17-Clipped" transform="translate(0.500781, 1.588262)">
                    <mask id="mask-4" fill="white">
                        <use xlink:href="#path-3"></use>
                    </mask>
                    <g id="path-1"></g>
                    <polygon id="Fill-17" fill="#F6F6F6" fill-rule="nonzero" mask="url(#mask-4)" points="29.6208661 84.8526815 73.2443233 84.8526815 73.2443233 22.8336982 29.6208661 22.8336982"></polygon>
                </g>
                <g id="Fill-18-Clipped" transform="translate(0.500781, 1.588262)">
                    <mask id="mask-6" fill="white">
                        <use xlink:href="#path-5"></use>
                    </mask>
                    <g id="path-1"></g>
                    <path d="M41.548354,47.7555474 L36.226023,47.7555474 C35.8080995,47.7555474 35.4658439,47.3972468 35.4658439,46.9597311 L35.4658439,32.6322183 C35.4658439,32.1944207 35.8080995,31.8361201 36.226023,31.8361201 L41.548354,31.8361201 C41.9665468,31.8361201 42.3088025,32.1944207 42.3088025,32.6322183 L42.3088025,46.9597311 C42.3088025,47.3972468 41.9665468,47.7555474 41.548354,47.7555474" id="Fill-18" fill="#CCCCCC" fill-rule="nonzero" mask="url(#mask-6)"></path>
                </g>
                <g id="Fill-19-Clipped" transform="translate(0.500781, 1.588262)">
                    <mask id="mask-8" fill="white">
                        <use xlink:href="#path-7"></use>
                    </mask>
                    <g id="path-1"></g>
                    <path d="M49.9119671,47.7555474 L44.5896361,47.7555474 C44.1714433,47.7555474 43.8294569,47.3972468 43.8294569,46.9597311 L43.8294569,32.6322183 C43.8294569,32.1944207 44.1714433,31.8361201 44.5896361,31.8361201 L49.9119671,31.8361201 C50.3301599,31.8361201 50.6721462,32.1944207 50.6721462,32.6322183 L50.6721462,46.9597311 C50.6721462,47.3972468 50.3301599,47.7555474 49.9119671,47.7555474" id="Fill-19" fill="#CCCCCC" fill-rule="nonzero" mask="url(#mask-8)"></path>
                </g>
                <g id="Fill-20-Clipped" transform="translate(0.500781, 1.588262)">
                    <mask id="mask-10" fill="white">
                        <use xlink:href="#path-9"></use>
                    </mask>
                    <g id="path-1"></g>
                    <polygon id="Fill-20" fill="#FFFFFF" fill-rule="nonzero" mask="url(#mask-10)" points="45.3498152 46.1635482 49.1515188 46.1635482 49.1515188 33.4282319 45.3498152 33.4282319"></polygon>
                </g>
                <g id="Fill-21-Clipped" transform="translate(0.500781, 1.588262)">
                    <mask id="mask-12" fill="white">
                        <use xlink:href="#path-11"></use>
                    </mask>
                    <g id="path-1"></g>
                    <polygon id="Fill-21" fill="#E4E4E4" fill-rule="nonzero" mask="url(#mask-12)" points="45.3498152 46.1635482 49.1515188 46.1635482 49.1515188 39.7958901 45.3498152 39.7958901"></polygon>
                </g>
                <g id="Fill-22-Clipped" transform="translate(0.500781, 1.588262)">
                    <mask id="mask-14" fill="white">
                        <use xlink:href="#path-13"></use>
                    </mask>
                    <g id="path-1"></g>
                    <polygon id="Fill-22" fill="#E4E4E4" fill-rule="nonzero" mask="url(#mask-14)" points="51.0524782 46.1635201 49.1516265 46.1635201 49.1516265 39.795862"></polygon>
                </g>
                <g id="Fill-23-Clipped" transform="translate(0.500781, 1.588262)">
                    <mask id="mask-16" fill="white">
                        <use xlink:href="#path-15"></use>
                    </mask>
                    <g id="path-1"></g>
                    <path d="M58.2754456,47.7555474 L52.9531146,47.7555474 C52.5351911,47.7555474 52.1929354,47.3972468 52.1929354,46.9597311 L52.1929354,32.6322183 C52.1929354,32.1944207 52.5351911,31.8361201 52.9531146,31.8361201 L58.2754456,31.8361201 C58.6936384,31.8361201 59.035894,32.1944207 59.035894,32.6322183 L59.035894,46.9597311 C59.035894,47.3972468 58.6936384,47.7555474 58.2754456,47.7555474" id="Fill-23" fill="#CCCCCC" fill-rule="nonzero" mask="url(#mask-16)"></path>
                </g>
                <g id="Fill-24-Clipped" transform="translate(0.500781, 1.588262)">
                    <mask id="mask-18" fill="white">
                        <use xlink:href="#path-17"></use>
                    </mask>
                    <g id="path-1"></g>
                    <polygon id="Fill-24" fill="#FFFFFF" fill-rule="nonzero" mask="url(#mask-18)" points="53.7134014 46.1635482 57.5151048 46.1635482 57.5151048 33.4282319 53.7134014 33.4282319"></polygon>
                </g>
                <g id="Fill-25-Clipped" transform="translate(0.500781, 1.588262)">
                    <mask id="mask-20" fill="white">
                        <use xlink:href="#path-19"></use>
                    </mask>
                    <g id="path-1"></g>
                    <polygon id="Fill-25" fill="#E4E4E4" fill-rule="nonzero" mask="url(#mask-20)" points="53.7134014 46.1635482 57.5151048 46.1635482 57.5151048 39.7958901 53.7134014 39.7958901"></polygon>
                </g>
                <g id="Fill-26-Clipped" transform="translate(0.500781, 1.588262)">
                    <mask id="mask-22" fill="white">
                        <use xlink:href="#path-21"></use>
                    </mask>
                    <g id="path-1"></g>
                    <polygon id="Fill-26" fill="#E4E4E4" fill-rule="nonzero" mask="url(#mask-22)" points="59.4159566 46.1635201 57.5151048 46.1635201 57.5151048 39.795862"></polygon>
                </g>
                <g id="Fill-27-Clipped" transform="translate(0.500781, 1.588262)">
                    <mask id="mask-24" fill="white">
                        <use xlink:href="#path-23"></use>
                    </mask>
                    <g id="path-1"></g>
                    <path d="M66.6390587,47.7555474 L61.3167276,47.7555474 C60.8985348,47.7555474 60.5565485,47.3972468 60.5565485,46.9597311 L60.5565485,32.6322183 C60.5565485,32.1944207 60.8985348,31.8361201 61.3167276,31.8361201 L66.6390587,31.8361201 C67.0572515,31.8361201 67.3992378,32.1944207 67.3992378,32.6322183 L67.3992378,46.9597311 C67.3992378,47.3972468 67.0572515,47.7555474 66.6390587,47.7555474" id="Fill-27" fill="#CCCCCC" fill-rule="nonzero" mask="url(#mask-24)"></path>
                </g>
                <g id="Fill-28-Clipped" transform="translate(0.500781, 1.588262)">
                    <mask id="mask-26" fill="white">
                        <use xlink:href="#path-25"></use>
                    </mask>
                    <g id="path-1"></g>
                    <polygon id="Fill-28" fill="#FFFFFF" fill-rule="nonzero" mask="url(#mask-26)" points="62.0769875 46.1635482 65.878691 46.1635482 65.878691 33.4282319 62.0769875 33.4282319"></polygon>
                </g>
                <g id="Fill-29-Clipped" transform="translate(0.500781, 1.588262)">
                    <mask id="mask-28" fill="white">
                        <use xlink:href="#path-27"></use>
                    </mask>
                    <g id="path-1"></g>
                    <polygon id="Fill-29" fill="#E4E4E4" fill-rule="nonzero" mask="url(#mask-28)" points="62.0769875 46.1635482 65.878691 46.1635482 65.878691 39.7958901 62.0769875 39.7958901"></polygon>
                </g>
                <g id="Fill-30-Clipped" transform="translate(0.500781, 1.588262)">
                    <mask id="mask-30" fill="white">
                        <use xlink:href="#path-29"></use>
                    </mask>
                    <g id="path-1"></g>
                    <polygon id="Fill-30" fill="#E4E4E4" fill-rule="nonzero" mask="url(#mask-30)" points="67.7794351 46.1635201 65.8785833 46.1635201 65.8785833 39.795862"></polygon>
                </g>
                <g id="Fill-31-Clipped" transform="translate(0.500781, 1.588262)">
                    <mask id="mask-32" fill="white">
                        <use xlink:href="#path-31"></use>
                    </mask>
                    <g id="path-1"></g>
                    <polygon id="Fill-31" fill="#FFFFFF" fill-rule="nonzero" mask="url(#mask-32)" points="36.9864983 46.1635482 40.7882019 46.1635482 40.7882019 33.4282319 36.9864983 33.4282319"></polygon>
                </g>
                <g id="Fill-32-Clipped" transform="translate(0.500781, 1.588262)">
                    <mask id="mask-34" fill="white">
                        <use xlink:href="#path-33"></use>
                    </mask>
                    <g id="path-1"></g>
                    <polygon id="Fill-32" fill="#E4E4E4" fill-rule="nonzero" points="36.9864983 46.1635482 40.7882019 46.1635482 40.7882019 39.7958901 36.9864983 39.7958901"></polygon>
                </g>
                <polygon id="Fill-33" fill="#E4E4E4" fill-rule="nonzero" points="43.1896456 47.751782 41.2887938 47.751782 41.2887938 41.3841238"></polygon>
                <text id="OFF" fill="#5C5E4E" font-family="OpenSans-Semibold, Open Sans" font-size="5" font-weight="500">
                    <tspan x="62.0096928" y="58.6507365">OFF</tspan>
                </text>
                <text id="ON" fill="#5C5E4E" font-family="OpenSans-Semibold, Open Sans" font-size="5" font-weight="500">
                    <tspan x="34.985232" y="58.6507365">ON</tspan>
                </text>
                <g id="Group-54" transform="translate(43.047116, 24.140619)" fill-rule="nonzero">
                    <polygon id="Fill-35" fill="#C8C8C8" points="30.6979885 62.3003239 74.3214457 62.3003239 74.3214457 0.281340661 30.6979885 0.281340661"></polygon>
                    <path d="M40.4127439,8.88935001 L64.6070673,8.88935001 L64.6070673,8.87328146 C64.6070673,8.0371528 63.6344258,7.35832684 62.4355886,7.35832684 L42.5839534,7.35832684 C41.3848469,7.35832684 40.4127439,8.0371528 40.4127439,8.87328146 L40.4127439,8.88935001 Z" id="Fill-37" fill="#E4E4E4"></path>
                    <path d="M40.4127439,13.0989167 L64.6070673,13.0989167 L64.6070673,13.0836939 C64.6070673,12.2467195 63.6344258,11.5681754 62.4355886,11.5681754 L42.5839534,11.5681754 C41.3848469,11.5681754 40.4127439,12.2467195 40.4127439,13.0836939 L40.4127439,13.0989167 Z" id="Fill-38" fill="#E4E4E4"></path>
                    <path d="M40.4127439,17.3093291 L64.6070673,17.3093291 L64.6070673,17.2941062 C64.6070673,16.4571318 63.6344258,15.7783059 62.4355886,15.7783059 L42.5839534,15.7783059 C41.3848469,15.7783059 40.4127439,16.4571318 40.4127439,17.2941062 L40.4127439,17.3093291 Z" id="Fill-39" fill="#E4E4E4"></path>
                    <path d="M40.4127439,21.5188957 L64.6070673,21.5188957 L64.6070673,21.5036729 C64.6070673,20.6666985 63.6344258,19.9881545 62.4355886,19.9881545 L42.5839534,19.9881545 C41.3848469,19.9881545 40.4127439,20.6666985 40.4127439,21.5036729 L40.4127439,21.5188957 Z" id="Fill-40" fill="#E4E4E4"></path>
                    <path d="M40.4127439,25.72928 L64.6070673,25.72928 L64.6070673,25.7140571 C64.6070673,24.8770828 63.6344258,24.1982568 62.4355886,24.1982568 L42.5839534,24.1982568 C41.3848469,24.1982568 40.4127439,24.8770828 40.4127439,25.7140571 L40.4127439,25.72928 Z" id="Fill-41" fill="#E4E4E4"></path>
                    <path d="M52.5097171,51.7977474 L44.23257,51.7977474 C43.4163805,51.7977474 42.9069016,50.8733826 43.3148617,50.1339472 L47.4534352,42.6296502 L51.5917395,35.1250714 C51.9996997,34.385354 53.0197346,34.385354 53.4276946,35.1250714 L57.5659989,42.6296502 L61.7045724,50.1339472 C62.1125326,50.8733826 61.6027844,51.7977474 60.7868642,51.7977474 L52.5097171,51.7977474 Z" id="Fill-42" fill="#FFDF43"></path>
                    <path d="M52.5094478,37.5205546 C52.4690557,37.5205546 52.3941957,37.5335221 52.3473408,37.6186573 L45.7553518,49.570843 C45.7082277,49.6571058 45.735425,49.7309648 45.7553518,49.7678942 C45.7758171,49.8048237 45.8237491,49.865997 45.9182665,49.865997 L59.1019754,49.865997 C59.1962237,49.865997 59.2436171,49.8048237 59.2638131,49.7678942 C59.2840091,49.7315285 59.3112065,49.6571058 59.2638131,49.570843 L52.6720933,37.6186573 C52.6246999,37.5335221 52.5498399,37.5205546 52.5094478,37.5205546 M59.1019754,50.7959998 L45.9182665,50.7959998 C45.5296946,50.7959998 45.1809762,50.5851353 44.9865557,50.2324728 C44.7921351,49.8803741 44.7921351,49.4592088 44.9865557,49.1065463 L51.5782755,37.1543607 C51.7718882,36.8014163 52.1206067,36.5908336 52.5094478,36.5908336 C52.898289,36.5908336 53.2467381,36.8014163 53.4411587,37.1543607 L60.0328785,49.1065463 C60.2272991,49.4592088 60.2272991,49.8803741 60.0328785,50.2330366 C59.8384579,50.5851353 59.4905473,50.7959998 59.1019754,50.7959998" id="Fill-43" fill="#072238"></path>
                    <polygon id="Fill-44" fill="#072238" points="51.7300151 45.0981186 54.4206669 41.4654975 52.140668 41.7240039 50.063976 46.0830927 52.1942549 45.8420644 50.9262125 49.098061 54.3514617 44.7429189"></polygon>
                    <path d="M66.4644572,34.7986823 C66.4644572,36.3088446 67.6336736,37.5334376 69.0762097,37.5334376 C70.5187459,37.5334376 71.6885008,36.3088446 71.6885008,34.7986823 C71.6885008,33.288802 70.5187459,32.064209 69.0762097,32.064209 C67.6336736,32.064209 66.4644572,33.288802 66.4644572,34.7986823" id="Fill-45" fill="#E4E4E4"></path>
                    <path d="M68.4885317,33.9571129 C68.4885317,33.6179819 68.7518881,33.3419974 69.0763713,33.3419974 C69.4011237,33.3419974 69.6639415,33.6179819 69.6639415,33.9571129 C69.6639415,34.2113908 69.516645,34.4295849 69.3063369,34.5231771 L69.6639415,36.0640669 L68.4885317,36.0640669 L68.8466749,34.5231771 C68.6363668,34.4295849 68.4885317,34.2113908 68.4885317,33.9571129" id="Fill-46" fill="#959595"></path>
                    <polygon id="Fill-47" fill="#959595" points="30.6979885 18.4035694 32.0158477 18.4035694 32.0158477 8.87632603 30.6979885 8.87632603"></polygon>
                    <polygon id="Fill-48" fill="#959595" points="30.6979885 49.720337 32.0158477 49.720337 32.0158477 40.1930935 30.6979885 40.1930935"></polygon>
                    <path d="M14.8368495,36.5184688 L2.61878077,51.762171 C2.08102741,52.4328218 2.16531224,53.4420397 2.80620006,54.0047211 L5.71846976,56.5630041 C6.35908831,57.1259673 7.32311285,57.0377312 7.86059694,56.3667986 L20.0789349,41.1233783 C20.616419,40.4524457 20.5321342,39.4432276 19.8915156,38.8805463 L16.9792459,36.3225452 C16.3386274,35.7595819 15.3746028,35.847818 14.8368495,36.5184688" id="Fill-49" fill="#E4E4E4"></path>
                    <path d="M3.87104327,38.8593189 C-0.0846887489,41.7589882 -1.04602049,47.4664262 1.72379976,51.6078847 C4.49362002,55.7487794 9.94574437,56.7551784 13.9014764,53.855509 C17.8569391,50.9558397 18.8185401,45.2484018 16.0487199,41.1072251 C13.2788996,36.9660485 7.8267753,35.9596495 3.87104327,38.8593189" id="Fill-50" fill="#F2A224"></path>
                    <path d="M14.5065768,39.3454913 C10.8074692,36.0962605 5.29233321,36.6011513 2.18806645,40.473955 C-0.915661751,44.3464766 -0.433380198,50.120162 3.26599669,53.3696749 C6.9651043,56.6191877 12.4802403,56.1140149 15.5842378,52.2414932 C18.6882353,48.3689715 18.2056844,42.5950042 14.5065768,39.3454913" id="Fill-51" fill="#EC950C"></path>
                    <path d="M8.55348285,55.5024232 L17.4311257,44.4266785 C17.0366296,42.5071909 16.054294,40.7052575 14.5064691,39.3456323 C14.1192436,39.0050917 13.7110142,38.7088101 13.2885129,38.4503037 L2.61880769,51.7621146 C2.4661256,51.9524002 2.36918458,52.17144 2.31532846,52.3980911 C2.60399726,52.7417327 2.92094052,53.0664866 3.26588898,53.3698158 C4.81371387,54.7294411 6.67955915,55.429128 8.55348285,55.5024232" id="Fill-52" fill="#E48C02"></path>
                    <path d="M13.3516054,35.2138431 L1.13353669,50.4575454 C0.595783328,51.1281961 0.680337437,52.137414 1.32095598,52.7000953 L4.23322568,55.2583785 C4.87384423,55.8213417 5.83786878,55.7328237 6.37535286,55.0621729 L18.5936908,39.8187525 C19.1311749,39.1478199 19.0468901,38.138602 18.4062715,37.5759206 L15.4940018,35.0176375 C14.8533833,34.4549562 13.8893588,34.5431923 13.3516054,35.2138431" id="Fill-53" fill="#F2A224"></path>
                </g>
            </g>
        </g>
    </g>
</svg>