<?xml version="1.0" encoding="UTF-8"?>
<svg width="22px" height="22px" viewBox="0 0 22 22" version="1.1" xmlns="http://www.w3.org/2000/svg" xmlns:xlink="http://www.w3.org/1999/xlink">
    <!-- Generator: Sketch 49.3 (51167) - http://www.bohemiancoding.com/sketch -->
    <title>anything else</title>
    <desc>Created with Sketch.</desc>
    <defs></defs>
    <g id="Energy-Insights-2-Iterations" stroke="none" stroke-width="1" fill="none" fill-rule="evenodd">
        <g id="sandbox" transform="translate(-434.000000, -1270.000000)">
            <g id="anything-else" transform="translate(434.000000, 1270.000000)">
                <path d="M21.0489656,10.9496894 C21.0489656,16.9966554 16.3366284,21.8993788 10.5244828,21.8993788 C4.71233716,21.8993788 0,16.9966554 0,10.9496894 C0,4.90272344 4.71233716,0 10.5244828,0 C16.3366284,0 21.0489656,4.90272344 21.0489656,10.9496894" id="Fill-36" fill="#001CB0"></path>
                <path d="M5.92002156,10.9496894 C5.92002156,12.0836666 5.03662279,13.0027562 3.94668104,13.0027562 C2.85673929,13.0027562 1.97334052,12.0836666 1.97334052,10.9496894 C1.97334052,9.81571221 2.85673929,8.89662266 3.94668104,8.89662266 C5.03662279,8.89662266 5.92002156,9.81571221 5.92002156,10.9496894" id="Fill-37" fill="#FFFFFF"></path>
                <path d="M12.4978233,10.9496894 C12.4978233,12.0836666 11.6144245,13.0027562 10.5244828,13.0027562 C9.43454103,13.0027562 8.55114225,12.0836666 8.55114225,10.9496894 C8.55114225,9.81571221 9.43454103,8.89662266 10.5244828,8.89662266 C11.6144245,8.89662266 12.4978233,9.81571221 12.4978233,10.9496894" id="Fill-38" fill="#FFFFFF"></path>
                <path d="M19.075625,10.9496894 C19.075625,12.0836666 18.1922263,13.0027562 17.1022845,13.0027562 C16.0123428,13.0027562 15.128944,12.0836666 15.128944,10.9496894 C15.128944,9.81571221 16.0123428,8.89662266 17.1022845,8.89662266 C18.1922263,8.89662266 19.075625,9.81571221 19.075625,10.9496894" id="Fill-39" fill="#FFFFFF"></path>
            </g>
        </g>
    </g>
</svg>