<?xml version="1.0" encoding="UTF-8"?>
<svg width="20px" height="22px" viewBox="0 0 20 22" version="1.1" xmlns="http://www.w3.org/2000/svg" xmlns:xlink="http://www.w3.org/1999/xlink">
    <!-- Generator: Sketch 49.3 (51167) - http://www.bohemiancoding.com/sketch -->
    <title>cooking</title>
    <desc>Created with Sketch.</desc>
    <defs></defs>
    <g id="Energy-Insights-2-Iterations" stroke="none" stroke-width="1" fill="none" fill-rule="evenodd">
        <g id="sandbox" transform="translate(-432.000000, -1532.000000)">
            <g id="cooking" transform="translate(432.000000, 1532.000000)">
                <g id="Group-17">
                    <g id="Group">
                        <path d="M0.218323587,20.2679365 C0.218323587,21.1339683 0.873294347,21.7834921 1.74658869,21.7834921 L18.2300195,21.7834921 C19.1033138,21.7834921 19.7582846,21.1339683 19.7582846,20.2679365 L19.7582846,6.51968254 L0.218323587,6.51968254 L0.218323587,20.2679365 Z M18.2300195,0.240952381 L1.74658869,0.240952381 C0.873294347,0.240952381 0.218323587,0.89047619 0.218323587,1.75650794 L0.218323587,5.87015873 L19.7582846,5.87015873 L19.7582846,1.75650794 C19.6491228,0.89047619 18.994152,0.240952381 18.2300195,0.240952381 Z" id="Shape" fill="#001CB0"></path>
                        <path d="M4.25730994,2.83904762 C4.25730994,3.48857143 3.71150097,3.9215873 3.16569201,3.9215873 C2.51072125,3.9215873 2.07407407,3.38031746 2.07407407,2.83904762 C2.07407407,2.18952381 2.61988304,1.75650794 3.16569201,1.75650794 C3.82066277,1.75650794 4.25730994,2.18952381 4.25730994,2.83904762" id="Shape" fill="#FFFFFF"></path>
                        <path d="M17.7933723,2.83904762 C17.7933723,3.48857143 17.2475634,3.9215873 16.7017544,3.9215873 C16.0467836,3.9215873 15.6101365,3.38031746 15.6101365,2.83904762 C15.6101365,2.18952381 16.1559454,1.75650794 16.7017544,1.75650794 C17.3567251,1.75650794 17.7933723,2.18952381 17.7933723,2.83904762" id="Shape" fill="#FFFFFF"></path>
                        <path d="M13.3177388,2.83904762 C13.3177388,3.48857143 12.7719298,3.9215873 12.2261209,3.9215873 C11.6803119,3.9215873 11.1345029,3.38031746 11.1345029,2.83904762 C11.1345029,2.18952381 11.6803119,1.75650794 12.2261209,1.75650794 C12.7719298,1.75650794 13.3177388,2.18952381 13.3177388,2.83904762" id="Shape" fill="#FFFFFF"></path>
                        <path d="M8.84210526,2.83904762 C8.84210526,3.48857143 8.2962963,3.9215873 7.75048733,3.9215873 C7.09551657,3.9215873 6.6588694,3.38031746 6.6588694,2.83904762 C6.6588694,2.18952381 7.20467836,1.75650794 7.75048733,1.75650794 C8.2962963,1.75650794 8.84210526,2.18952381 8.84210526,2.83904762" id="Shape" fill="#FFFFFF"></path>
                        <path d="M15.9376218,9.11777778 L3.92982456,9.11777778 C3.49317739,9.11777778 3.16569201,9.44253968 3.16569201,9.87555556 L3.16569201,18.1028571 C3.16569201,18.535873 3.49317739,18.8606349 3.92982456,18.8606349 L15.9376218,18.8606349 C16.374269,18.8606349 16.7017544,18.535873 16.7017544,18.1028571 L16.7017544,9.87555556 C16.7017544,9.44253968 16.374269,9.11777778 15.9376218,9.11777778 Z" id="Shape" fill="#FFFFFF"></path>
                        <g transform="translate(7.290448, 10.825397)" fill="#001CB0" id="Shape">
                            <path d="M4.71734893,6.08666667 C4.93567251,6.08666667 5.1539961,5.9784127 5.1539961,5.76190476 C5.26315789,5.54539683 5.1539961,5.32888889 4.93567251,5.22063492 C4.82651072,5.11238095 4.49902534,4.78761905 4.38986355,4.35460317 C4.28070175,4.02984127 4.38986355,3.70507937 4.60818713,3.48857143 C5.59064327,2.40603175 5.48148148,1.10698413 4.49902534,0.240952381 C4.28070175,0.0244444444 4.06237817,0.0244444444 3.84405458,0.240952381 C3.62573099,0.349206349 3.62573099,0.673968254 3.84405458,0.782222222 C4.71734893,1.64825397 4.28070175,2.51428571 3.84405458,2.94730159 C3.40740741,3.48857143 3.29824561,4.13809524 3.5165692,4.78761905 C3.73489279,5.43714286 4.28070175,5.87015873 4.60818713,5.9784127 C4.60818713,6.08666667 4.60818713,6.08666667 4.71734893,6.08666667"></path>
                            <path d="M1.33333333,6.08666667 C1.55165692,6.08666667 1.76998051,5.9784127 1.76998051,5.76190476 C1.8791423,5.54539683 1.76998051,5.32888889 1.55165692,5.22063492 C1.44249513,5.11238095 1.11500975,4.78761905 1.00584795,4.35460317 C0.89668616,4.02984127 1.00584795,3.70507937 1.22417154,3.48857143 C2.09746589,2.40603175 2.09746589,1.10698413 1.11500975,0.240952381 C0.89668616,0.0244444444 0.678362573,0.0244444444 0.460038986,0.240952381 C0.2417154,0.349206349 0.2417154,0.673968254 0.460038986,0.782222222 C1.33333333,1.64825397 0.89668616,2.51428571 0.460038986,2.94730159 C0.0233918129,3.48857143 -0.0857699805,4.13809524 0.132553606,4.78761905 C0.350877193,5.43714286 0.89668616,5.87015873 1.22417154,5.9784127 C1.22417154,6.08666667 1.33333333,6.08666667 1.33333333,6.08666667"></path>
                        </g>
                    </g>
                </g>
            </g>
        </g>
    </g>
</svg>