<?xml version="1.0" encoding="UTF-8"?>
<svg width="25px" height="23px" viewBox="0 0 25 23" version="1.1" xmlns="http://www.w3.org/2000/svg" xmlns:xlink="http://www.w3.org/1999/xlink">
    <!-- Generator: Sketch 49.3 (51167) - http://www.bohemiancoding.com/sketch -->
    <title>cooling</title>
    <desc>Created with Sketch.</desc>
    <defs></defs>
    <g id="Energy-Insights-2-Iterations" stroke="none" stroke-width="1" fill="none" fill-rule="evenodd">
        <g id="sandbox" transform="translate(-432.000000, -920.000000)">
            <g id="cooling" transform="translate(432.000000, 920.000000)">
                <path d="M24.4194373,8.24867647 L12.6170077,0.0936764706 C12.5263747,0.0319117647 12.4178389,0 12.3115409,0 C12.2030051,0 12.0944693,0.0319117647 12.0038363,0.0936764706 L0.20140665,8.24867647 C0.072730179,8.33617647 0,8.47411765 0,8.62029412 L0,22.0623529 C0,22.3197059 0.227141944,22.5286765 0.509111253,22.5286765 L24.1139706,22.5286765 C24.394821,22.5286765 24.6230818,22.3197059 24.6230818,22.0623529 L24.6230818,8.62029412 C24.6230818,8.47411765 24.5469949,8.33617647 24.4194373,8.24867647" id="Fill-1" fill="#001CB0"></path>
                <g id="Group-8" transform="translate(5.000000, 7.441176)" fill="#FFFFFF">
                    <path d="M7.09985319,4.71597479 L2.22172031,4.71597479 C1.89099944,4.71597479 1.62337662,4.46252025 1.62337662,4.14930813 C1.62337662,3.83609601 1.89099944,3.58264146 2.22172031,3.58264146 L7.09985319,3.58264146 C7.28697158,3.58264146 7.46647468,3.54864146 7.63292302,3.48167176 C7.79610766,3.41676267 7.94188594,3.32197479 8.07025786,3.20245964 C8.19645398,3.08294449 8.29545266,2.94385358 8.36399021,2.78930813 C8.43579145,2.63167176 8.47169208,2.46167176 8.47169208,2.28445964 C8.47169208,2.15876267 8.44558253,2.03615661 8.39445135,1.92488388 C8.34658385,1.81464146 8.27587051,1.71470207 8.185575,1.62918691 C8.0952795,1.54367176 7.98975343,1.47670207 7.87443629,1.43136873 C7.67426313,1.34894449 7.43818935,1.32730813 7.23584039,1.40767176 C7.15859966,1.43858085 7.08571052,1.48494449 7.02587615,1.54161116 C6.96386599,1.60136873 6.91599849,1.66730813 6.88336157,1.74045964 C6.84963674,1.81773237 6.83114248,1.90015661 6.83114248,1.98567176 C6.83114248,2.03718691 6.84310935,2.08870207 6.86377941,2.13712631 C6.99215133,2.42561116 6.84963674,2.75839904 6.54502541,2.87997479 C6.23823828,3.00155055 5.89011105,2.86555055 5.76173913,2.57809601 C5.67688312,2.38852025 5.63445511,2.18967176 5.63445511,1.98567176 C5.63445511,1.74767176 5.6834105,1.51791419 5.78023339,1.30052025 C5.87379258,1.09033843 6.00760399,0.902823278 6.17949181,0.741065703 C6.35029174,0.578277824 6.5482891,0.451550551 6.77022021,0.36294449 C7.26956522,0.164096006 7.84615095,0.188823278 8.34114436,0.38664146 C8.5989761,0.489671763 8.83178618,0.6380354 9.03087145,0.82864146 C9.23213251,1.01718691 9.38878976,1.23767176 9.49757952,1.48288388 C9.61072087,1.73530813 9.66729155,2.00524752 9.66729155,2.28445964 C9.66729155,2.61415661 9.5998419,2.93355055 9.46711839,3.23233843 C9.33657068,3.52288388 9.15054018,3.78252025 8.9144664,4.0050657 C8.67948052,4.22761116 8.40424242,4.40276267 8.10071899,4.52536873 C7.78522868,4.65209601 7.44798043,4.71597479 7.09985319,4.71597479" id="Fill-4"></path>
                    <path d="M11.2316243,6.80842368 L3.69358178,6.80842368 C3.3639488,6.80842368 3.0952381,6.55496914 3.0952381,6.24175702 C3.0952381,5.9285449 3.3639488,5.67509035 3.69358178,5.67509035 L11.2316243,5.67509035 C11.4165669,5.67509035 11.5971579,5.64109035 11.7668699,5.57412065 C11.9289667,5.50818126 12.0758329,5.41442368 12.2031169,5.29490853 C12.3282251,5.17539338 12.4283117,5.03527217 12.4957613,4.88175702 C12.5686505,4.72206005 12.6045511,4.55206005 12.6045511,4.37690853 C12.6045511,4.25224187 12.5773537,4.13066611 12.5262225,4.01733277 C12.478355,3.90502974 12.4076416,3.80715096 12.318434,3.72369641 C12.2281385,3.63818126 12.1204367,3.56812065 12.0062074,3.52381762 C11.8049464,3.44242368 11.5721363,3.41666611 11.3676115,3.50012065 C11.2903708,3.53102974 11.2174816,3.57739338 11.1576473,3.63406005 C11.0978129,3.69175702 11.0488575,3.75975702 11.0162206,3.83290853 C10.9814079,3.91121156 10.9629136,3.99466611 10.9629136,4.07812065 C10.9629136,4.1296358 10.9748805,4.18115096 10.9955505,4.2295752 C11.1239225,4.51806005 10.9814079,4.85084793 10.6767965,4.97242368 C10.3700094,5.09399944 10.0218822,4.95799944 9.89351026,4.6705449 C9.80865424,4.48096914 9.76622624,4.28212065 9.76622624,4.07812065 C9.76622624,3.84115096 9.81518163,3.61036308 9.91309241,3.39296914 C10.0066516,3.18175702 10.140463,2.99424187 10.3112629,2.83351459 C10.4820629,2.67072671 10.6800602,2.54399944 10.9019913,2.45539338 C11.4024242,2.25448429 11.9724826,2.27921156 12.4729155,2.47909035 C12.7318351,2.58212065 12.9635573,2.73151459 13.1626426,2.92109035 C13.3617278,3.1065449 13.519473,3.32806005 13.6293506,3.57533277 C13.7435799,3.82878732 13.8001506,4.09872671 13.8001506,4.37690853 C13.8001506,4.7045449 13.7327009,5.02393884 13.5988895,5.32478732 C13.4705176,5.61121156 13.285575,5.87084793 13.0495012,6.09545399 C12.8123395,6.31902974 12.5381893,6.49521156 12.2324901,6.61781762 C11.9126482,6.7445449 11.5764879,6.80842368 11.2316243,6.80842368" id="Fill-6"></path>
                    <path d="M8.68172031,12.3832478 C8.43150386,12.3832478 8.18781479,12.3368841 7.9582684,12.2451872 C7.73960098,12.1576114 7.54051572,12.0308841 7.36971579,11.8701569 C7.19565217,11.7042781 7.06292867,11.5157326 6.96936947,11.3076114 C6.87254658,11.0902175 6.82359119,10.8594296 6.82359119,10.6224599 C6.82359119,10.4163993 6.8660192,10.2154902 6.94978731,10.0300357 C7.07815923,9.7405205 7.42955016,9.60658111 7.73416149,9.73021747 C8.03768492,9.85179323 8.18019951,10.1845811 8.0507397,10.473066 C8.03006964,10.5183993 8.02027856,10.5688841 8.02027856,10.6224599 C8.02027856,10.707975 8.03768492,10.789369 8.07140975,10.8666417 C8.10513458,10.9418538 8.15408997,11.0098538 8.21501223,11.0696114 C8.2748466,11.1242175 8.34555995,11.1695508 8.42388858,11.2014902 C8.62623753,11.2808235 8.86122341,11.2591872 9.06357237,11.1777932 C9.17671372,11.1324599 9.28441558,11.0634296 9.37362319,10.979975 C9.46391869,10.8944599 9.53354414,10.7965811 9.58249953,10.6853084 C9.63363072,10.5699144 9.65974026,10.449369 9.65974026,10.3247023 C9.65974026,10.1495508 9.62383964,9.9795508 9.5520384,9.81985383 C9.48241295,9.66324777 9.38450216,9.52415686 9.25830604,9.40464171 C9.13210992,9.28615686 8.98415584,9.19239929 8.8209712,9.1274902 C8.65234707,9.05845989 8.47393187,9.02445989 8.28898927,9.02445989 L0.749858837,9.02445989 C0.419137963,9.02445989 0.151515152,8.77100535 0.151515152,8.45779323 C0.151515152,8.14561141 0.419137963,7.89215686 0.749858837,7.89215686 L8.28898927,7.89215686 C8.63385281,7.89215686 8.97110107,7.95603565 9.28876717,8.08276292 C9.59229061,8.20536898 9.8675287,8.3805205 10.1036025,8.60306595 C10.3385884,8.82664171 10.523531,9.08627807 10.6540787,9.37682353 C10.788978,9.67767201 10.8564276,9.99706595 10.8564276,10.3247023 C10.8564276,10.6018538 10.7987691,10.8717932 10.6856277,11.1262781 C10.5746621,11.3735508 10.4180049,11.5940357 10.2178317,11.7825811 C10.0187465,11.9700963 9.78811218,12.1184599 9.52919255,12.2225205 C9.25939394,12.3286417 8.97545266,12.3832478 8.68172031,12.3832478" id="Fill-8"></path>
                </g>
            </g>
        </g>
    </g>
</svg>