<?xml version="1.0" encoding="UTF-8"?>
<svg width="36px" height="17px" viewBox="0 0 36 17" version="1.1" xmlns="http://www.w3.org/2000/svg" xmlns:xlink="http://www.w3.org/1999/xlink">
    <!-- Generator: Sketch 49.3 (51167) - http://www.bohemiancoding.com/sketch -->
    <title>lectrical vehicle</title>
    <desc>Created with Sketch.</desc>
    <defs></defs>
    <g id="Energy-Insights-2-Iterations" stroke="none" stroke-width="1" fill="none" fill-rule="evenodd">
        <g id="lectrical-vehicle" fill="#001CB0">
            <g id="Group-3">
                <path d="M19.9982625,8.8999172 C20.001968,8.07796366 19.3806869,7.44886975 18.5736037,7.45772289 C17.7836363,7.46622885 17.1321822,8.14045643 17.1537091,8.92717099 C17.1743538,9.67968813 17.8099274,10.3178088 18.5571939,10.3362094 C19.3538664,10.3559988 19.994557,9.71735738 19.9982625,8.8999172 L19.9982625,8.8999172 Z M34.1820338,8.87735037 C34.1721526,8.09480199 33.5111702,7.44869616 32.729143,7.45720212 C31.9442926,7.46570808 31.3009552,8.12309732 31.3099542,8.90738162 C31.3191296,9.68888845 31.985229,10.3462777 32.7598453,10.3381189 C33.5316384,10.3297865 34.191915,9.65173997 34.1820338,8.87735037 L34.1820338,8.87735037 Z M32.3492458,5.74108116 C31.8846524,4.50598095 31.5220473,3.37746564 31.0228698,2.31109592 C30.8667114,1.97762754 30.3460069,1.60753146 29.9849898,1.60041423 C27.1099106,1.54260841 24.2328904,1.55267669 21.3571053,1.58947799 C21.0352602,1.59364418 20.5415526,1.81722943 20.4279187,2.06980438 C19.9003327,3.24258541 19.4786167,4.46136806 18.9893204,5.74108116 L32.3492458,5.74108116 Z M0.709963944,7.1148806 C1.43041003,6.96038458 2.15085612,6.80588856 2.94717578,6.63524857 C2.9665853,6.47311455 2.99622893,6.22487937 3.02499031,5.98410861 C4.59645561,5.67997711 5.49246963,6.08340268 6.31808002,7.35599855 C6.46400432,7.58097253 6.84460736,7.75994488 7.12939795,7.7790399 C8.52670693,7.87260546 9.28756011,8.59613289 9.31543924,9.97201543 C9.33308425,10.8391026 9.28914816,11.7086201 9.33908356,12.5732771 C9.35355248,12.8235953 9.59740662,13.0612415 9.73627292,13.3046161 C9.90866474,13.0636717 10.2280396,12.8244633 10.2312157,12.5814358 C10.2670351,9.83487851 10.2419791,7.08745322 10.2596242,4.3405487 C10.2693289,2.82926516 11.4563093,1.90246263 12.8213279,2.32515679 C13.6668771,2.58693207 14.1362346,3.17002436 14.1475274,4.0617615 C14.1588202,4.958012 14.1799943,5.85530406 14.148939,6.75068661 C14.1219421,7.53045754 14.4051447,7.9125314 15.0869482,7.57333452 C15.7352261,7.00517107 16.3937382,6.44794385 17.0252534,5.8622477 C17.2057619,5.69490594 17.3462163,5.46073164 17.439382,5.23124429 C17.9290312,4.02513379 18.4010355,2.81207964 18.8725104,1.59885191 C19.2892857,0.526753684 20.0882521,0.00441826316 21.2415305,0.00268235282 C24.1808376,-0.00183101406 27.1201447,0.000599260412 30.0594518,0.00112003351 C31.2540195,0.00129362455 32.0603968,0.543765605 32.4798189,1.65370668 C32.796547,2.49215137 33.152447,3.31653519 33.4667048,4.15602143 C33.7867854,5.01147804 34.0161706,5.86867057 35.0300534,6.29379501 C35.4464758,6.468254 35.6820368,7.06002583 36,7.46206267 L36,13.7113399 L34.358484,13.7113399 C34.358484,14.1776054 34.3694239,14.6546336 34.3563666,15.131141 C34.322841,16.3447159 33.7319094,17.0274494 32.7534931,16.9991541 C31.8110727,16.9719003 31.2517256,16.2888196 31.2369038,15.1398205 C31.231081,14.6832761 31.2360216,14.2267317 31.2360216,13.7155061 L20.0970746,13.7155061 C20.0970746,14.285579 20.1205425,14.8278774 20.0919575,15.3673983 C20.0384931,16.3738792 19.4119186,17.0074864 18.5185513,16.9982861 C17.6532396,16.9892594 17.0605434,16.3947101 16.9943746,15.4146151 C16.957673,14.8728375 16.987846,14.3267201 16.987846,13.7042227 C16.4314986,13.6757537 15.9482015,13.6511038 15.3683862,13.6215933 L15.3683862,9.376251 C14.7054629,9.18981423 14.0211891,9.18165545 13.6421741,8.84280575 C13.192579,8.44094251 12.8414432,7.78042862 12.7438662,7.18501138 C12.5961774,6.28337955 12.7343379,5.3395651 12.6838732,4.41727593 C12.6702865,4.16886716 12.4142573,3.93330413 12.2695682,3.691839 C12.091177,3.93556082 11.7615681,4.17702594 11.7578626,4.42317803 C11.7195729,6.99527638 11.7351006,9.56806909 11.7310422,12.1406882 C11.7305129,12.4868287 11.7333361,12.8371354 11.6830478,13.1782418 C11.5410054,14.14254 10.7956798,14.749935 9.78638477,14.7553164 C8.77391363,14.7606977 7.98571068,14.184549 7.88178152,13.1980312 C7.77926397,12.225227 7.83378707,11.2366261 7.8159656,10.2549688 C7.8082018,9.82862923 7.89766204,9.34483102 7.28008641,9.23008735 C6.75708807,9.13287637 6.45165281,9.31046 6.17956663,9.81265886 C5.52493646,11.0217204 4.389656,11.2753369 3.04510563,11.0951494 C3.00875689,10.8403178 2.97364331,10.5936449 2.93217751,10.3030535 C2.19408641,10.2242432 1.4521134,10.1450857 0.709963944,10.0659282 L0.709963944,9.37156404 C1.44876085,9.29049703 2.1877342,9.20943001 2.92300211,9.12871018 L2.92300211,7.88284733 C2.14203361,7.79570463 1.42599878,7.71567917 0.709963944,7.6356537 L0.709963944,7.1148806 Z" id="Fill-1"></path>
            </g>
        </g>
    </g>
</svg>