<?xml version="1.0" encoding="UTF-8"?>
<svg width="24px" height="23px" viewBox="0 0 24 23" version="1.1" xmlns="http://www.w3.org/2000/svg" xmlns:xlink="http://www.w3.org/1999/xlink">
    <!-- Generator: Sketch 49.3 (51167) - http://www.bohemiancoding.com/sketch -->
    <title>Group 18 Copy</title>
    <desc>Created with Sketch.</desc>
    <defs>
        <polygon id="path-1" points="0.000417391304 0.115 22.9627826 0.115 22.9627826 21.9997 0.000417391304 21.9997"></polygon>
        <polygon id="path-3" points="0 0 24 0 24 23 0 23"></polygon>
    </defs>
    <g id="Energy-Insights-2-Iterations" stroke="none" stroke-width="1" fill="none" fill-rule="evenodd">
        <g id="sandbox" transform="translate(-432.000000, -662.000000)">
            <g id="Group-18-Copy" transform="translate(432.000000, 662.000000)">
                <g id="Group-3">
                    <mask id="mask-2" fill="white">
                        <use xlink:href="#path-1"></use>
                    </mask>
                    <g id="Clip-2"></g>
                </g>
                <mask id="mask-4" fill="white">
                    <use xlink:href="#path-3"></use>
                </mask>
                <g id="Clip-2"></g>
                <path d="M23.8015087,8.42124743 L12.297737,0.0956362806 C12.2093974,0.0325793923 12.1036081,0 12,0 C11.8942107,0 11.7884213,0.0325793923 11.7000818,0.0956362806 L0.196310097,8.42124743 C0.0708897573,8.51057802 0,8.65140507 0,8.80063971 L0,22.5239205 C0,22.7866575 0.221394165,23 0.496228301,23 L23.5037717,23 C23.7775152,23 24,22.7866575 24,22.5239205 L24,8.80063971 C24,8.65140507 23.9258384,8.51057802 23.8015087,8.42124743" id="Fill-1" fill="#001CB0" mask="url(#mask-4)"></path>
                <path d="M17.0011841,20 C16.7300178,20 16.4647721,19.8914768 16.2895204,19.6869523 C15.7152161,19.0138996 15,18.1738881 15,16.6086494 C15,15.0434107 15.7152161,14.2033992 16.2895204,13.5303466 C16.8117229,12.9178165 17.2238011,12.4346794 17.2238011,11.3911869 C17.2238011,10.3476945 16.8117229,9.86455743 16.2895204,9.25202734 C15.9946714,8.90663133 16.0751924,8.41618986 16.4671403,8.15636023 C16.8614565,7.8965306 17.4168147,7.96853158 17.7104796,8.3128841 C18.2847839,8.98593676 19,9.82594821 19,11.3911869 C19,12.9564257 18.2847839,13.7964371 17.7104796,14.4694898 C17.1882771,15.0820199 16.7761989,15.5651569 16.7761989,16.6086494 C16.7761989,17.6521419 17.1882771,18.1352789 17.7104796,18.747809 C18.0053286,19.093205 17.9248076,19.5836465 17.5328597,19.8434761 C17.3730018,19.9488689 17.1859088,20 17.0011841,20" id="Fill-4" fill="#FFFFFF" mask="url(#mask-4)"></path>
                <path d="M12.0011841,20 C11.7300178,20 11.4647721,19.8914768 11.2895204,19.6869523 C10.7152161,19.0138996 10,18.1738881 10,16.6086494 C10,15.0434107 10.7152161,14.2033992 11.2895204,13.5303466 C11.8117229,12.9178165 12.2238011,12.4346794 12.2238011,11.3911869 C12.2238011,10.3476945 11.8117229,9.86455743 11.2895204,9.25202734 C10.9946714,8.90663133 11.0751924,8.41618986 11.4671403,8.15636023 C11.8602724,7.8965306 12.4168147,7.96853158 12.7104796,8.3128841 C13.2847839,8.98593676 14,9.82594821 14,11.3911869 C14,12.9564257 13.2847839,13.7964371 12.7104796,14.4694898 C12.1882771,15.0820199 11.7761989,15.5651569 11.7761989,16.6086494 C11.7761989,17.6521419 12.1882771,18.1352789 12.7104796,18.747809 C13.0053286,19.093205 12.9248076,19.5836465 12.5328597,19.8434761 C12.3730018,19.9488689 12.1859088,20 12.0011841,20" id="Fill-6" fill="#FFFFFF" mask="url(#mask-4)"></path>
                <path d="M7.00118413,20 C6.73001776,20 6.46477205,19.8914768 6.28952043,19.6869523 C5.7152161,19.0138996 5,18.1738881 5,16.6086494 C5,15.0434107 5.7152161,14.2033992 6.28952043,13.5303466 C6.81172291,12.9178165 7.22380107,12.4346794 7.22380107,11.3911869 C7.22380107,10.3476945 6.81172291,9.86455743 6.28952043,9.25202734 C5.9946714,8.90663133 6.07519242,8.41618986 6.46714032,8.15636023 C6.86145648,7.8965306 7.41681468,7.96853158 7.71047957,8.3128841 C8.2847839,8.98593676 9,9.82594821 9,11.3911869 C9,12.9564257 8.2847839,13.7964371 7.71047957,14.4694898 C7.18827709,15.0820199 6.77619893,15.5651569 6.77619893,16.6086494 C6.77619893,17.6521419 7.18827709,18.1352789 7.71047957,18.747809 C8.0053286,19.093205 7.92480758,19.5836465 7.53285968,19.8434761 C7.37300178,19.9488689 7.18590882,20 7.00118413,20" id="Fill-8" fill="#FFFFFF" mask="url(#mask-4)"></path>
            </g>
        </g>
    </g>
</svg>