<?xml version="1.0" encoding="UTF-8"?>
<svg width="25px" height="23px" viewBox="0 0 25 23" version="1.1" xmlns="http://www.w3.org/2000/svg" xmlns:xlink="http://www.w3.org/1999/xlink">
    <!-- Generator: Sketch 49.3 (51167) - http://www.bohemiancoding.com/sketch -->
    <title>home entertainment</title>
    <desc>Created with Sketch.</desc>
    <defs></defs>
    <g id="Energy-Insights-2-Iterations" stroke="none" stroke-width="1" fill="none" fill-rule="evenodd">
        <g id="sandbox" transform="translate(-433.000000, -1182.000000)">
            <g id="home-entertainment" transform="translate(433.000000, 1182.000000)">
                <path d="M15.0511399,5.98434434 L18.4842151,1.15139406 C18.716231,0.794378193 18.5960391,0.328612 18.2156851,0.111111351 C17.8353312,-0.10710476 17.3393495,0.00665380275 17.1080943,0.363669671 L13.1630627,5.98434434 L11.179897,5.98434434 L7.23562612,0.363669671 C7.00361019,0.00665380275 6.50762858,-0.10710476 6.12727459,0.111111351 C5.7469206,0.328612 5.62672874,0.794378193 5.85874467,1.15139406 L9.2918198,5.98434434 L1.76613572,5.98434434 C0.792429506,5.98434434 -0.000228212395,6.7284255 -0.000228212395,7.64278679 L-0.000228212395,21.3331648 C-0.000228212395,22.2475261 0.792429506,22.9916073 1.76613572,22.9916073 L22.576824,22.9916073 C23.5505302,22.9916073 24.3431879,22.2475261 24.3431879,21.3331648 L24.3431879,7.64278679 C24.3431879,6.7284255 23.5505302,5.98434434 22.576824,5.98434434 L15.0511399,5.98434434 Z M20.6240866,19.0558472 C19.7051514,19.0558472 18.9581361,18.3539783 18.9581361,17.4911303 C18.9581361,16.6282823 19.7051514,15.9264135 20.6240866,15.9264135 C21.5422612,15.9264135 22.2900371,16.6282823 22.2900371,17.4911303 C22.2900371,18.3539783 21.5422612,19.0558472 20.6240866,19.0558472 Z M20.6240866,13.0495381 C19.7051514,13.0495381 18.9581361,12.3483847 18.9581361,11.4855367 C18.9581361,10.6226888 19.7051514,9.9208199 20.6240866,9.9208199 C21.5422612,9.9208199 22.2900371,10.6226888 22.2900371,11.4855367 C22.2900371,12.3483847 21.5422612,13.0495381 20.6240866,13.0495381 Z" id="Fill-28" fill="#001CB0"></path>
                <path d="M17.0708196,19.3434631 C17.0708196,19.8414252 16.6410196,20.2449461 16.1108062,20.2449461 L3.82537223,20.2449461 C3.29515877,20.2449461 2.86535876,19.8414252 2.86535876,19.3434631 L2.86535876,9.63320391 C2.86535876,9.13452643 3.29515877,8.73100549 3.82537223,8.73100549 L16.1108062,8.73100549 C16.6410196,8.73100549 17.0708196,9.13452643 17.0708196,9.63320391 L17.0708196,19.3434631 Z" id="Path" fill="#FFFFFF"></path>
            </g>
        </g>
    </g>
</svg>