<?xml version="1.0" encoding="UTF-8"?>
<svg width="19px" height="23px" viewBox="0 0 19 23" version="1.1" xmlns="http://www.w3.org/2000/svg" xmlns:xlink="http://www.w3.org/1999/xlink">
    <!-- Generator: Sketch 49.3 (51167) - http://www.bohemiancoding.com/sketch -->
    <title>hot water</title>
    <desc>Created with Sketch.</desc>
    <defs>
        <polygon id="path-1" points="2.03456875 2.08577061 0.413064982 2.08577061 0.413064982 0.500447998 2.03456875 0.500447998"></polygon>
        <polygon id="path-3" points="1.97350227 0.500447998 1.97350227 2.08577061 0.352124439 2.08577061 0.352124439 0.500447998"></polygon>
        <polygon id="path-5" points="0 5.74163981 0 0.000208577061 2.20228629 0.000208577061 2.20228629 5.74163981"></polygon>
    </defs>
    <g id="Energy-Insights-2-Iterations" stroke="none" stroke-width="1" fill="none" fill-rule="evenodd">
        <g id="sandbox" transform="translate(-434.000000, -1006.000000)">
            <g id="hot-water" transform="translate(434.000000, 1006.000000)">
                <g id="Group-3" transform="translate(2.133516, 20.162449)">
                    <mask id="mask-2" fill="white">
                        <use xlink:href="#path-1"></use>
                    </mask>
                    <g id="Clip-2"></g>
                    <path d="M1.53591814,0.561837077 C1.94982024,0.731479753 2.14397019,1.19452083 1.97186657,1.59846507 C1.80047412,2.00240931 1.32541123,2.19290969 0.912220309,2.02465753 C0.499029384,1.85571011 0.303457087,1.39266904 0.475560708,0.988724795 C0.647664329,0.584780554 1.12201605,0.392889657 1.53591814,0.561837077" id="Fill-1" fill="#001CB0" mask="url(#mask-2)"></path>
                </g>
                <path d="M3.7884843,18.0640945 C3.98761245,17.5954914 4.53663723,17.3750949 5.0145448,17.5704621 C5.49245238,17.7644388 5.71860507,18.3018723 5.51876574,18.7690849 C5.32034876,19.2362976 4.77061281,19.456694 4.29412758,19.2627173 C3.81550883,19.0666549 3.58935614,18.5299166 3.7884843,18.0640945" id="Fill-4" fill="#001CB0"></path>
                <path d="M5.19973399,14.3063701 C5.43655426,13.7515552 6.08869897,13.4887481 6.65692539,13.7202686 C7.22515181,13.9510939 7.49255248,14.5893397 7.2557322,15.1455452 C7.0196231,15.7010554 6.36747839,15.9617768 5.79996315,15.729561 C5.23102556,15.4987357 4.96291372,14.8625756 5.19973399,14.3063701" id="Fill-6" fill="#001CB0"></path>
                <g id="Group-10" transform="translate(16.356956, 20.162449)">
                    <mask id="mask-4" fill="white">
                        <use xlink:href="#path-3"></use>
                    </mask>
                    <g id="Clip-9"></g>
                    <path d="M0.850775049,0.561837077 C0.436872952,0.731479753 0.242722999,1.19452083 0.41482662,1.59846507 C0.586219069,2.00240931 1.06128196,2.19290969 1.47447288,2.02465753 C1.88766381,1.85571011 2.0832361,1.39266904 1.91113248,0.988724795 C1.73902886,0.584780554 1.26467715,0.392889657 0.850775049,0.561837077" id="Fill-8" fill="#001CB0" mask="url(#mask-4)"></path>
                </g>
                <path d="M17.0886095,18.0640945 C16.8894813,17.5954914 16.3404565,17.3750949 15.862549,17.5704621 C15.3846414,17.7644388 15.1584887,18.3018723 15.358328,18.7690849 C15.556745,19.2362976 16.1057698,19.456694 16.5829662,19.2627173 C17.0615849,19.0666549 17.2877376,18.5299166 17.0886095,18.0640945" id="Fill-11" fill="#001CB0"></path>
                <path d="M15.6773598,14.3063701 C15.4405395,13.7515552 14.7883948,13.4887481 14.2201684,13.7202686 C13.6519419,13.9510939 13.3845413,14.5893397 13.6213615,15.1455452 C13.8574706,15.7010554 14.5089042,15.9617768 15.0771306,15.729561 C15.6460682,15.4987357 15.91418,14.8625756 15.6773598,14.3063701" id="Fill-13" fill="#001CB0"></path>
                <path d="M10.4383691,20.8173117 C10.8444483,20.8173117 11.1708762,21.1378251 11.1708762,21.5334263 C11.1708762,21.9283322 10.8444483,22.2481503 10.4383691,22.2481503 C10.0337122,22.2481503 9.70586194,21.9283322 9.70586194,21.5334263 C9.70586194,21.1378251 10.0337122,20.8173117 10.4383691,20.8173117" id="Fill-15" fill="#001CB0"></path>
                <path d="M10.4383691,17.7287026 C10.9063203,17.7287026 11.2853749,18.0999697 11.2853749,18.5574488 C11.2853749,19.0149278 10.9063203,19.3854997 10.4383691,19.3854997 C9.97041792,19.3854997 9.59136325,19.0149278 9.59136325,18.5574488 C9.59136325,18.0999697 9.97041792,17.7287026 10.4383691,17.7287026" id="Fill-17" fill="#001CB0"></path>
                <path d="M10.437729,13.9590893 C10.9945767,13.9590893 11.4454597,14.4005775 11.4454597,14.9442683 C11.4454597,15.4872639 10.9945767,15.9287521 10.437729,15.9287521 C9.88159254,15.9287521 9.43213184,15.4872639 9.43213184,14.9442683 C9.43213184,14.4005775 9.88159254,13.9590893 10.437729,13.9590893" id="Fill-19" fill="#001CB0"></path>
                <path d="M17.2796303,11.9888009 C17.0805021,9.88634412 15.3836457,8.11135333 13.0161542,7.32710358 L12.5119332,6.17506295 C12.3874782,5.89000763 12.0510938,5.65918235 11.7602245,5.65918235 L11.3278319,5.65918235 C11.1948427,3.56993545 9.43753675,1.9103573 7.26490632,1.9103573 L1.79670491,1.9103573 L1.79670491,3.96345084 L7.26490632,3.96345084 C8.27690406,3.9641461 9.10186357,4.70459466 9.22774101,5.65918235 L8.85437572,5.65918235 C8.56421755,5.65918235 8.22712202,5.89000763 8.10195575,6.17506295 L7.60484653,7.31250319 C5.20037404,8.09258139 3.47578197,9.88912515 3.28945491,12.0193922" id="Fill-21" fill="#001CB0"></path>
                <g id="Group-25">
                    <mask id="mask-6" fill="white">
                        <use xlink:href="#path-5"></use>
                    </mask>
                    <g id="Clip-24"></g>
                    <path d="M1.13552831,5.74163981 L1.06654463,5.74163981 C0.47982774,5.74163981 -0.000213351596,5.27234143 -0.000213351596,4.69875451 L-0.000213351596,1.04309388 C-0.000213351596,0.469506965 0.47982774,0.000208577061 1.06654463,0.000208577061 L1.13552831,0.000208577061 C1.7222452,0.000208577061 2.20228629,0.469506965 2.20228629,1.04309388 L2.20228629,4.69875451 C2.20228629,5.27234143 1.7222452,5.74163981 1.13552831,5.74163981" id="Fill-23" fill="#001CB0" mask="url(#mask-6)"></path>
                </g>
                <path d="M16.9076873,12.9182898 L3.64717442,12.9182898 C3.256741,12.9182898 2.93600243,12.6054242 2.93600243,12.2230329 L2.93600243,12.1785365 C2.93600243,11.7961452 3.256741,11.4832796 3.64717442,11.4832796 L16.9076873,11.4832796 C17.2988319,11.4832796 17.6188593,11.7961452 17.6188593,12.1785365 L17.6188593,12.2230329 C17.6188593,12.6054242 17.2988319,12.9182898 16.9076873,12.9182898" id="Fill-26" fill="#001CB0"></path>
            </g>
        </g>
    </g>
</svg>