<?xml version="1.0" encoding="UTF-8"?>
<svg width="18px" height="23px" viewBox="0 0 18 23" version="1.1" xmlns="http://www.w3.org/2000/svg" xmlns:xlink="http://www.w3.org/1999/xlink">
    <!-- Generator: Sketch 49.3 (51167) - http://www.bohemiancoding.com/sketch -->
    <title>laundry dishwasher</title>
    <desc>Created with Sketch.</desc>
    <defs></defs>
    <g id="Energy-Insights-2-Iterations" stroke="none" stroke-width="1" fill="none" fill-rule="evenodd">
        <g id="sandbox" transform="translate(-432.000000, -1095.000000)">
            <g id="laundry-dishwasher" transform="translate(432.000000, 1095.000000)">
                <path d="M16.0431643,22.6443123 L1.45846948,22.6443123 C0.653394328,22.6443123 0,22.0102715 0,21.2290428 L0,1.41526952 C0,0.634040744 0.653394328,0 1.45846948,0 L16.0431643,0 C16.8482395,0 17.5016338,0.634040744 17.5016338,1.41526952 L17.5016338,21.2290428 C17.5016338,22.0102715 16.8482395,22.6443123 16.0431643,22.6443123" id="Fill-40" fill="#001CB0"></path>
                <path d="M14.5846948,14.151617 C14.5846948,17.2773519 11.972576,19.8116168 8.75081689,19.8116168 C5.52905781,19.8116168 2.91693896,17.2773519 2.91693896,14.151617 C2.91693896,11.025882 5.52905781,8.49161711 8.75081689,8.49161711 C11.972576,8.49161711 14.5846948,11.025882 14.5846948,14.151617" id="Fill-41" fill="#FFFFFF"></path>
                <path d="M3.6461737,2.47672166 C3.6461737,3.06335087 3.15685719,3.5381738 2.55232159,3.5381738 C1.94778599,3.5381738 1.45846948,3.06335087 1.45846948,2.47672166 C1.45846948,1.89009244 1.94778599,1.41526952 2.55232159,1.41526952 C3.15685719,1.41526952 3.6461737,1.89009244 3.6461737,2.47672166" id="Fill-42" fill="#FFFFFF"></path>
                <path d="M16.0431643,2.47672166 C16.0431643,3.06335087 15.5538478,3.5381738 14.9493122,3.5381738 C14.3447766,3.5381738 13.8554601,3.06335087 13.8554601,2.47672166 C13.8554601,1.89009244 14.3447766,1.41526952 14.9493122,1.41526952 C15.5538478,1.41526952 16.0431643,1.89009244 16.0431643,2.47672166" id="Fill-43" fill="#FFFFFF"></path>
                <path d="M12.3969906,2.47672166 C12.3969906,3.06335087 11.9076741,3.5381738 11.3031385,3.5381738 C10.6986029,3.5381738 10.2092864,3.06335087 10.2092864,2.47672166 C10.2092864,1.89009244 10.6986029,1.41526952 11.3031385,1.41526952 C11.9076741,1.41526952 12.3969906,1.89009244 12.3969906,2.47672166" id="Fill-44" fill="#FFFFFF"></path>
                <polygon id="Fill-45" fill="#FFFFFF" points="0 5.66107807 17.5016338 5.66107807 17.5016338 4.95344331 0 4.95344331"></polygon>
            </g>
        </g>
    </g>
</svg>