<?xml version="1.0" encoding="UTF-8"?>
<svg width="25px" height="23px" viewBox="0 0 25 23" version="1.1" xmlns="http://www.w3.org/2000/svg" xmlns:xlink="http://www.w3.org/1999/xlink">
    <!-- Generator: Sketch 49.3 (51167) - http://www.bohemiancoding.com/sketch -->
    <title>lighting</title>
    <desc>Created with Sketch.</desc>
    <defs></defs>
    <g id="Energy-Insights-2-Iterations" stroke="none" stroke-width="1" fill="none" fill-rule="evenodd">
        <g id="sandbox" transform="translate(-433.000000, -1357.000000)" fill="#001CB0">
            <g id="lighting" transform="translate(433.000000, 1357.000000)">
                <path d="M19.3158696,5.7573761 C19.098317,5.96487126 18.7428041,5.96487126 18.5260095,5.7573761 L18.2000596,5.44721784 C17.983265,5.24044566 17.983265,4.90064523 18.2000596,4.69315007 L19.7373305,3.22694735 C19.9548831,3.02017517 20.310396,3.02017517 20.5279486,3.22694735 L20.8531405,3.53710561 C21.0699352,3.74460077 21.0699352,4.08367823 20.8531405,4.29117338 L19.3158696,5.7573761 Z" id="Fill-29"></path>
                <path d="M5.73073067,5.7573761 C5.51317804,5.96487126 5.15766519,5.96487126 4.94087057,5.7573761 L3.40359966,4.29117338 C3.18604702,4.08440121 3.18604702,3.74460077 3.40359966,3.53782859 L3.72803356,3.22694735 C3.9455862,3.02017517 4.30109905,3.02017517 4.51865169,3.22694735 L6.0559226,4.69315007 C6.27271721,4.90064523 6.27271721,5.24044566 6.0559226,5.44721784 L5.73073067,5.7573761 Z" id="Fill-30"></path>
                <path d="M24.2371074,11.3918457 C24.2371074,11.6853754 23.9854437,11.9246817 23.6784443,11.9246817 L21.504434,11.9246817 C21.1974346,11.9246817 20.945771,11.6853754 20.945771,11.3918457 L20.945771,10.95372 C20.945771,10.6601903 21.1974346,10.420161 21.504434,10.420161 L23.6784443,10.420161 C23.9854437,10.420161 24.2371074,10.6601903 24.2371074,10.95372 L24.2371074,11.3918457 Z" id="Fill-31"></path>
                <path d="M3.25790762,11.3918457 C3.25790762,11.6853754 3.00624394,11.9246817 2.69924457,11.9246817 L0.578295847,11.9246817 C0.271296479,11.9246817 0.0196327991,11.6853754 0.0196327991,11.3918457 L0.0196327991,10.95372 C0.0196327991,10.6601903 0.271296479,10.420161 0.578295847,10.420161 L2.69924457,10.420161 C3.00624394,10.420161 3.25790762,10.6601903 3.25790762,10.95372 L3.25790762,11.3918457 Z" id="Fill-32"></path>
                <path d="M12.9167142,2.60634162 C12.9167142,2.89987136 12.6650505,3.13917762 12.3580511,3.13917762 L11.8979311,3.13917762 C11.5909317,3.13917762 11.339268,2.89987136 11.339268,2.60634162 L11.339268,0.532835998 C11.339268,0.240029242 11.5909317,0 11.8979311,0 L12.3580511,0 C12.6650505,0 12.9167142,0.240029242 12.9167142,0.532835998 L12.9167142,2.60634162 Z" id="Fill-33"></path>
                <path d="M11.1108756,22.412369 C9.97384095,22.412369 9.0513268,21.5325028 9.0513268,20.4480333 C9.0513268,20.3121131 9.16730434,20.2014972 9.30981269,20.2014972 L14.9464727,20.2014972 C15.088981,20.2014972 15.2049586,20.3121131 15.2049586,20.4480333 C15.2049586,21.5325028 14.2832025,22.412369 13.1454097,22.412369 L11.1108756,22.412369 Z" id="Fill-34"></path>
                <path d="M5.48126526,11.0985328 C5.45928259,7.76270475 8.27837062,4.90404323 11.766035,4.72691322 C15.5879877,4.53026275 18.7754749,7.44748562 18.7754749,11.057323 C18.7754749,13.2197551 17.6354081,15.210841 15.7259479,16.38496 C15.3226796,16.632942 15.0831443,17.0667298 15.0831443,17.5467883 L15.0831443,18.9992544 L9.17435396,18.9992544 L9.17435396,17.5460653 C9.17435396,17.0674528 8.92951248,16.6307731 8.51866395,16.3777302 C6.63194437,15.212287 5.4956677,13.2385526 5.48126526,11.0985328" id="Fill-35"></path>
            </g>
        </g>
    </g>
</svg>