<?xml version="1.0" encoding="UTF-8"?>
<svg width="22px" height="22px" viewBox="0 0 22 22" version="1.1" xmlns="http://www.w3.org/2000/svg" xmlns:xlink="http://www.w3.org/1999/xlink">
    <!-- Generator: Sketch 49.3 (51167) - http://www.bohemiancoding.com/sketch -->
    <title>pool pump</title>
    <desc>Created with Sketch.</desc>
    <defs></defs>
    <g id="Energy-Insights-2-Iterations" stroke="none" stroke-width="1" fill="none" fill-rule="evenodd">
        <g id="sandbox" transform="translate(-432.000000, -748.000000)" fill="#001CB0" fill-rule="nonzero">
            <g id="pool-pump" transform="translate(432.000000, 748.000000)">
                <g id="Group-16">
                    <path d="M1.14782609,3.19333333 C1.46086957,3.19333333 1.77391304,2.88333333 1.77391304,2.57333333 C1.77391304,1.95333333 2.29565217,1.43666667 2.92173913,1.43666667 C3.54782609,1.43666667 4.06956522,1.95333333 4.06956522,2.57333333 L4.06956522,12.1833333 C4.69565217,12.39 5.32173913,12.4933333 6.15652174,12.4933333 C8.13913043,12.4933333 9.1826087,11.9766667 10.3304348,11.2533333 L5.42608696,11.2533333 L5.42608696,9.39333333 L11.4782609,9.39333333 L11.4782609,10.4266667 C11.8956522,10.1166667 12.3130435,9.80666667 12.7304348,9.49666667 L12.7304348,2.57333333 C12.7304348,1.23 11.5826087,0.0933333333 10.226087,0.0933333333 C8.86956522,0.0933333333 7.72173913,1.23 7.72173913,2.57333333 C7.72173913,2.88333333 8.03478261,3.19333333 8.34782609,3.19333333 C8.66086957,3.19333333 8.97391304,2.88333333 8.97391304,2.57333333 C8.97391304,1.95333333 9.49565217,1.43666667 10.1217391,1.43666667 C10.7478261,1.43666667 11.2695652,1.95333333 11.2695652,2.57333333 L11.2695652,4.95 L5.2173913,4.95 L5.2173913,2.57333333 C5.2173913,1.23 4.06956522,0.0933333333 2.71304348,0.0933333333 C1.35652174,0.0933333333 0.208695652,1.23 0.208695652,2.57333333 C0.52173913,2.88333333 0.834782609,3.19333333 1.14782609,3.19333333 Z M5.53043478,6.19 L11.5826087,6.19 L11.5826087,8.05 L5.53043478,8.05 L5.53043478,6.19 Z" id="Shape"></path>
                    <path d="M1.79193676,21.7933333 C1.11185771,21.7933333 0.626086957,21.1733333 0.626086957,20.5533333 L0.626086957,14.0433333 C0.626086957,13.63 0.820395257,13.2166667 1.20901186,12.9066667 C1.40332016,12.8033333 1.59762846,12.7 1.79193676,12.7 C1.98624506,12.7 2.18055336,12.7 2.37486166,12.8033333 C3.44355731,13.4233333 4.60940711,13.63 5.96956522,13.63 C8.59272727,13.63 9.95288538,12.5966667 11.3130435,11.46 C12.6732016,10.4266667 14.0333597,9.29 16.6565217,9.29 C19.0853755,9.29 20.3483794,10.1166667 21.5142292,11.0466667 C21.8056917,11.2533333 22,11.6666667 22,12.08 L22,20.45 C22,21.1733333 21.4170751,21.69 20.8341502,21.69 L1.79193676,21.69 L1.79193676,21.7933333 Z" id="Shape"></path>
                </g>
            </g>
        </g>
    </g>
</svg>