<?xml version="1.0" encoding="UTF-8" standalone="no"?>
<svg width="18px" height="18px" viewBox="0 0 18 18" version="1.1" xmlns="http://www.w3.org/2000/svg" xmlns:xlink="http://www.w3.org/1999/xlink">
    <defs></defs>
    <g id="HiFi" stroke="none" stroke-width="1" fill="none" fill-rule="evenodd">
        <g id="05-Bank-details" transform="translate(-26.000000, -884.000000)" fill="#666666">
            <g id="Group-6" transform="translate(25.000000, 327.000000)">
                <g id="Group-4" transform="translate(0.000000, 113.000000)">
                    <g id="Group-7" transform="translate(0.000000, 364.000000)">
                        <g id="mb/creditCard-Notes" transform="translate(0.000000, 79.000000)">
                            <g id="clock">
                                <g transform="translate(1.000000, 1.000000)">
                                    <path d="M9.4296875,4.8203125 L9.4296875,9.1953125 L13.1796875,11.421875 L12.5546875,12.4765625 L8.1796875,9.8203125 L8.1796875,4.8203125 L9.4296875,4.8203125 Z M9,15.6796875 C10.8229258,15.6796875 12.3919205,15.022142 13.7070312,13.7070312 C15.022142,12.3919205 15.6796875,10.8229258 15.6796875,9 C15.6796875,7.17707422 15.022142,5.60807949 13.7070312,4.29296875 C12.3919205,2.97785801 10.8229258,2.3203125 9,2.3203125 C7.17707422,2.3203125 5.60807949,2.97785801 4.29296875,4.29296875 C2.97785801,5.60807949 2.3203125,7.17707422 2.3203125,9 C2.3203125,10.8229258 2.97785801,12.3919205 4.29296875,13.7070312 C5.60807949,15.022142 7.17707422,15.6796875 9,15.6796875 Z M9,0.6796875 C11.2916781,0.6796875 13.2512939,1.49348145 14.8789062,3.12109375 C16.5065186,4.74870605 17.3203125,6.70832187 17.3203125,9 C17.3203125,11.2916781 16.5065186,13.2512939 14.8789062,14.8789062 C13.2512939,16.5065186 11.2916781,17.3203125 9,17.3203125 C6.70832188,17.3203125 4.74870605,16.5065186 3.12109375,14.8789062 C1.49348145,13.2512939 0.6796875,11.2916781 0.6796875,9 C0.6796875,6.70832187 1.49348145,4.74870605 3.12109375,3.12109375 C4.74870605,1.49348145 6.70832188,0.6796875 9,0.6796875 Z"></path>
                                </g>
                            </g>
                        </g>
                    </g>
                </g>
            </g>
        </g>
    </g>
</svg>