<?xml version="1.0" encoding="UTF-8"?>
<svg width="20px" height="20px" viewBox="0 0 20 20" version="1.1" xmlns="http://www.w3.org/2000/svg" xmlns:xlink="http://www.w3.org/1999/xlink">
    <!-- Generator: Sketch 47.1 (45422) - http://www.bohemiancoding.com/sketch -->
    <title>today - material</title>
    <desc>Created with Sketch.</desc>
    <defs></defs>
    <g id="Symbols" stroke="none" stroke-width="1" fill="none" fill-rule="evenodd">
        <g id="What-happens-now" transform="translate(0.000000, -60.000000)" fill="#333333">
            <g id="Group-4" transform="translate(0.000000, 58.000000)">
                <g id="Group-2">
                    <g id="Group">
                        <path d="M4.36032513,10.9928058 L9.85013206,10.9928058 L9.85013206,16.0047962 L4.36032513,16.0047962 L4.36032513,10.9928058 Z M17.4938345,19.9856115 L17.4938345,9.0263789 L2.20642958,9.0263789 L2.20642958,19.9856115 L17.4938345,19.9856115 Z M17.4938345,4.01438849 C18.0892233,4.01438849 18.6058028,4.21422662 19.0435887,4.61390887 C19.4813745,5.01359113 19.7002641,5.48520911 19.7002641,6.02877698 L19.7002641,19.9856115 C19.7002641,20.5291794 19.4813745,21.0007974 19.0435887,21.4004796 C18.6058028,21.8001619 18.0892233,22 17.4938345,22 L2.20642958,22 C1.59352941,22 1.07257208,21.8001619 0.643541962,21.4004796 C0.214511842,21.0007974 0,20.5291794 0,19.9856115 L0,6.02877698 C0,5.48520911 0.214511842,5.01359113 0.643541962,4.61390887 C1.07257208,4.21422662 1.59352941,4.01438849 2.20642958,4.01438849 L3.28337735,4.01438849 L3.28337735,2 L5.48980694,2 L5.48980694,4.01438849 L14.2104572,4.01438849 L14.2104572,2 L16.4168868,2 L16.4168868,4.01438849 L17.4938345,4.01438849 Z" id="today---material"></path>
                    </g>
                </g>
            </g>
        </g>
    </g>
</svg>