<?xml version="1.0" encoding="UTF-8"?>
<svg width="17px" height="23px" viewBox="0 0 17 23" version="1.1" xmlns="http://www.w3.org/2000/svg" xmlns:xlink="http://www.w3.org/1999/xlink">
    <!-- Generator: Sketch 47.1 (45422) - http://www.bohemiancoding.com/sketch -->
    <title>elec meter copy 4</title>
    <desc>Created with Sketch.</desc>
    <defs></defs>
    <g id="Monthly-Billing---Desktop" stroke="none" stroke-width="1" fill="none" fill-rule="evenodd">
        <g id="monBill-|-setup-|-success-|-duel-fuel" transform="translate(-431.000000, -892.000000)">
            <g id="light-blue-elec-meter" transform="translate(431.000000, 892.000000)">
                <path d="M4.27372653,20.4032258 C2.4841836,20.4032258 0.950249957,19.0773238 0.847601229,17.4419223 L0.00855405039,4.07420671 C0.000629644281,3.94795492 0.00146060195,3.82354845 0.0105653874,3.70145474 C0.00354949034,3.64273437 0,3.58363582 0,3.52419355 C0,3.05194499 0.224035316,2.60139148 0.630443858,2.18980656 C0.939937646,1.82152346 1.34965679,1.52802844 1.82693036,1.34103681 C3.3836247,0.524205 5.79416234,0 8.5,0 C11.2060601,0 13.6167716,0.524291176 15.1734535,1.34123823 C15.6501814,1.52812092 16.0595148,1.82128314 16.3688563,2.18909806 C16.7757075,2.6008744 17,3.051674 17,3.52419355 C17,3.58361928 16.9964525,3.64270149 16.9894405,3.70140574 C16.998553,3.82351585 16.9993877,3.94793878 16.9914623,4.07420671 L16.1524151,17.4419223 C16.0497612,19.0774051 14.5143258,20.4032258 12.7262898,20.4032258 L9.71428571,20.4032258 L9.71428571,22.2575491 C9.71428571,22.6675934 9.35070403,23 8.90560659,23 L8.09439341,23 C7.64777226,23 7.28571429,22.6680067 7.28571429,22.2575491 L7.28571429,20.4032258 L4.27372653,20.4032258 Z" id="Combined-Shape" fill="#333333"></path>
                <path d="M2.85861603,6.9 C2.74944346,4.99461761 4.21149029,3.45 6.10741135,3.45 L11.074937,3.45 C12.9783697,3.45 14.4326827,4.99849468 14.3237323,6.9 L14.3237323,6.9 C14.2145597,8.80538239 12.5868542,10.35 10.6841943,10.35 L6.498154,10.35 C4.59726525,10.35 2.96756645,8.80150532 2.85861603,6.9 L2.85861603,6.9 Z" id="Rectangle-3" fill="#FFFFFF"></path>
                <g id="Group-2" stroke-width="1" transform="translate(4.744186, 5.366667)" fill="#333333">
                    <rect id="Rectangle-17" x="0" y="0" width="1.58139535" height="3.06666667"></rect>
                    <rect id="Rectangle-17-Copy" x="1.97674419" y="0" width="1.58139535" height="3.06666667"></rect>
                    <rect id="Rectangle-17-Copy-2" x="3.95348837" y="0" width="1.58139535" height="3.06666667"></rect>
                    <rect id="Rectangle-17-Copy-3" x="5.93023256" y="0" width="1.58139535" height="3.06666667"></rect>
                </g>
                <path d="M8.87824052,14.472466 L10.5178536,12.7979263 C10.5429316,12.7722928 10.549669,12.7349108 10.5348842,12.7026909 C10.5202866,12.6706492 10.486974,12.65 10.4501057,12.65 L7.7815469,12.6556963 C7.74336849,12.6558743 7.70930736,12.6779476 7.69545833,12.7117695 L6.46177158,15.7174677 C6.45054264,15.7447032 6.45447277,15.775321 6.47187763,15.7995303 C6.48946965,15.8235617 6.52465368,15.8365564 6.54917021,15.8374464 L7.63950075,15.8258758 L6.33338731,18.6597944 C6.31523385,18.6991346 6.32964433,18.7452392 6.3672613,18.7687365 C6.38279467,18.7785271 6.40057383,18.7833333 6.41816585,18.7833333 C6.44305668,18.7833333 6.46776035,18.7735428 6.48591382,18.7550297 L10.5178536,14.6202143 C10.5429316,14.5947589 10.549669,14.5573768 10.5348842,14.525157 C10.5202866,14.4931152 10.486974,14.472466 10.4501057,14.472466 L8.87824052,14.472466 Z" id="Fill-3" fill="#FFFFFF"></path>
            </g>
        </g>
    </g>
</svg>