<?xml version="1.0" encoding="UTF-8"?>
<svg width="43px" height="60px" viewBox="0 0 43 60" version="1.1" xmlns="http://www.w3.org/2000/svg" xmlns:xlink="http://www.w3.org/1999/xlink">
    <!-- Generator: Sketch 47.1 (45422) - http://www.bohemiancoding.com/sketch -->
    <title>light blue elec meter</title>
    <desc>Created with Sketch.</desc>
    <defs></defs>
    <g id="Symbols" stroke="none" stroke-width="1" fill="none" fill-rule="evenodd">
        <g id="light-blue-elec-meter">
            <path d="M10.8100142,53.2258065 C6.28352323,53.2258065 2.40357342,49.7669317 2.14393252,45.5006669 L0.0216367157,10.6283653 C0.00159262965,10.2990128 0.00369446375,9.97447421 0.0267242152,9.65596889 C0.00897812262,9.5027853 0,9.34861518 0,9.19354839 C0,7.96159563 0.566677564,6.78623863 1.59465211,5.71253886 C2.37748934,4.75180034 3.41383777,3.98616114 4.62105915,3.4983569 C8.55858013,1.36749131 14.6558224,0 21.5,0 C28.3447402,0 34.4424222,1.36771611 38.3799117,3.49888234 C39.5857529,3.9864024 40.6211257,4.7511734 41.4035778,5.71069059 C42.4326719,6.78488974 43,7.9608887 43,9.19354839 C43,9.34857205 42.9910269,9.50269953 42.9732906,9.65584106 C42.99634,9.97438917 42.9984512,10.2989707 42.9784045,10.6283653 L40.8561087,45.5006669 C40.5964549,49.7671437 36.7127064,53.2258065 32.1900271,53.2258065 L24.5714286,53.2258065 L24.5714286,58.0631717 C24.5714286,59.1328524 23.6517808,60 22.5259461,60 L20.4740539,60 C19.3443651,60 18.4285714,59.1339305 18.4285714,58.0631717 L18.4285714,53.2258065 L10.8100142,53.2258065 Z" id="Combined-Shape" fill="#333333"></path>
            <path d="M6.95254942,12.9947834 C6.82997953,10.7885255 8.51741167,9 10.7298918,9 L32.7313422,9 C34.9400807,9 36.6310773,10.7917156 36.5086846,12.9947834 L35.9525494,23.0052166 C35.8299795,25.2114745 33.9364968,27 31.7337781,27 L11.7274559,27 C9.52006272,27 7.63107725,25.2082844 7.5086846,23.0052166 L6.95254942,12.9947834 Z" id="Rectangle-3" fill="#FFFFFF"></path>
            <g id="Group-2" transform="translate(12.000000, 14.000000)" fill="#333333">
                <rect id="Rectangle-17" x="0" y="0" width="4" height="8"></rect>
                <rect id="Rectangle-17-Copy" x="5" y="0" width="4" height="8"></rect>
                <rect id="Rectangle-17-Copy-2" x="10" y="0" width="4" height="8"></rect>
                <rect id="Rectangle-17-Copy-3" x="15" y="0" width="4" height="8"></rect>
            </g>
            <path d="M22.456726,37.7542592 L26.6039827,33.3858946 C26.6674152,33.3190248 26.6844568,33.2215063 26.64706,33.1374547 C26.6101366,33.0538674 26.5258755,33 26.4326202,33 L19.6827363,33.01486 C19.5861674,33.0153243 19.5000127,33.0729067 19.4649828,33.1611377 L16.3444811,41.0020897 C16.3160784,41.0731389 16.3260194,41.1530112 16.3700434,41.216166 C16.4145409,41.2788565 16.5035358,41.3127558 16.5655482,41.3150776 L19.3234431,41.2848933 L16.0197444,48.6777246 C15.9738268,48.7803512 16.0102768,48.900624 16.1054256,48.9619213 C16.1447159,48.9874619 16.1896868,49 16.2341842,49 C16.2971434,49 16.3596291,48.9744594 16.4055467,48.9261646 L26.6039827,38.1396895 C26.6674152,38.073284 26.6844568,37.9757655 26.64706,37.8917138 C26.6101366,37.8081265 26.5258755,37.7542592 26.4326202,37.7542592 L22.456726,37.7542592 Z" id="Fill-3" fill="#FFFFFF"></path>
        </g>
    </g>
</svg>