<?xml version="1.0" encoding="UTF-8"?>
<svg width="20px" height="20px" viewBox="0 0 20 20" version="1.1" xmlns="http://www.w3.org/2000/svg" xmlns:xlink="http://www.w3.org/1999/xlink">
    <!-- Generator: Sketch 47.1 (45422) - http://www.bohemiancoding.com/sketch -->
    <title>Safety icon</title>
    <desc>Created with Sketch.</desc>
    <defs></defs>
    <g id="Symbols" stroke="none" stroke-width="1" fill="none" fill-rule="evenodd">
        <g id="What-happens-now" transform="translate(0.000000, -124.000000)">
            <g id="Group-4" transform="translate(0.000000, 58.000000)">
                <g id="Group-4-Copy-2" transform="translate(0.000000, 65.000000)">
                    <g id="Group-18-Copy-2" transform="translate(0.000000, 1.000000)">
                        <g id="Safety-icon">
                            <g>
                                <circle id="Oval" fill="#333333" cx="10" cy="10" r="10"></circle>
                                <g id="Group" transform="translate(8.648649, 4.594595)" fill="#FFFFFF">
                                    <path d="M2.39105236,6.4944553 L0.338813087,6.4944553 C0.151659191,6.4944553 0,6.3427961 0,6.15564221 L0,0.338813087 C0,0.151659191 0.151659191,0 0.338813087,0 L2.39105236,0 C2.57820625,0 2.72986544,0.151659191 2.72986544,0.338813087 L2.72986544,6.15564221 C2.72986544,6.3427961 2.57820625,6.4944553 2.39105236,6.4944553" id="Fill-4-Copy"></path>
                                    <path d="M7.10542736e-15,9.29419631 C7.10542736e-15,10.0987429 0.651811843,10.7505548 1.45635847,10.7505548 C2.26090511,10.7505548 2.91271695,10.0987429 2.91271695,9.29419631 C2.91271695,8.48964968 2.26090511,7.83783784 1.45635847,7.83783784 C0.651811843,7.83783784 7.10542736e-15,8.48964968 7.10542736e-15,9.29419631" id="Fill-6-Copy"></path>
                                </g>
                            </g>
                        </g>
                    </g>
                </g>
            </g>
        </g>
    </g>
</svg>