<?xml version="1.0" encoding="UTF-8"?>
<svg width="255px" height="150px" viewBox="0 0 255 150" version="1.1" xmlns="http://www.w3.org/2000/svg" xmlns:xlink="http://www.w3.org/1999/xlink">
    <!-- Generator: Sketch 49.1 (51147) - http://www.bohemiancoding.com/sketch -->
    <title>Centrelink Pensioner Concession Card</title>
    <desc>Created with Sketch.</desc>
    <defs>
        <path d="M11,0 L232,-1.77635684e-15 C238.075132,-2.89234053e-15 243,4.92486775 243,11 L243,127 C243,133.075132 238.075132,138 232,138 L11,138 C4.92486775,138 7.43989126e-16,133.075132 0,127 L0,11 C-7.43989126e-16,4.92486775 4.92486775,1.11598369e-15 11,0 Z" id="path-1"></path>
        <filter x="-2.9%" y="-3.6%" width="105.8%" height="110.1%" filterUnits="objectBoundingBox" id="filter-2">
            <feOffset dx="0" dy="2" in="SourceAlpha" result="shadowOffsetOuter1"></feOffset>
            <feGaussianBlur stdDeviation="2" in="shadowOffsetOuter1" result="shadowBlurOuter1"></feGaussianBlur>
            <feColorMatrix values="0 0 0 0 0   0 0 0 0 0   0 0 0 0 0  0 0 0 0.25 0" type="matrix" in="shadowBlurOuter1"></feColorMatrix>
        </filter>
        <path d="M11,0 L232,0 C238.075132,-1.11598369e-15 243,4.92486775 243,11 L243,50 L0,50 L0,11 C-7.43989126e-16,4.92486775 4.92486775,1.11598369e-15 11,0 Z" id="path-3"></path>
        <filter x="-3.7%" y="-18.0%" width="107.4%" height="136.0%" filterUnits="objectBoundingBox" id="filter-4">
            <feOffset dx="0" dy="0" in="SourceAlpha" result="shadowOffsetOuter1"></feOffset>
            <feGaussianBlur stdDeviation="3" in="shadowOffsetOuter1" result="shadowBlurOuter1"></feGaussianBlur>
            <feColorMatrix values="0 0 0 0 0   0 0 0 0 0   0 0 0 0 0  0 0 0 0.1 0" type="matrix" in="shadowBlurOuter1"></feColorMatrix>
        </filter>
    </defs>
    <g id="Cards" stroke="none" stroke-width="1" fill="none" fill-rule="evenodd">
        <g id="Centrelink-Pensioner-Centrelink-Pensioner-Pensioner-Concession-Card" transform="translate(6.000000, 6.000000)">
            <g id="Rectangle-2-Copy-25">
                <use fill="black" fill-opacity="1" filter="url(#filter-2)" xlink:href="#path-1"></use>
                <use fill="#DAF1F3" fill-rule="evenodd" xlink:href="#path-1"></use>
            </g>
            <g id="Rectangle-2-Copy-5">
                <use fill="black" fill-opacity="1" filter="url(#filter-4)" xlink:href="#path-3"></use>
                <use fill="#C32B67" fill-rule="evenodd" xlink:href="#path-3"></use>
            </g>
        </g>
    </g>
</svg>
