<?xml version="1.0" encoding="UTF-8"?>
<svg width="255px" height="148px" viewBox="0 0 255 148" version="1.1" xmlns="http://www.w3.org/2000/svg" xmlns:xlink="http://www.w3.org/1999/xlink">
    <!-- Generator: Sketch 49 (51002) - http://www.bohemiancoding.com/sketch -->
    <title>Queensland Dept. of Communities Seniors Card</title>
    <desc>Created with Sketch.</desc>
    <defs>
        <path d="M11,0 L232,-1.77635684e-15 C238.075132,-2.89234053e-15 243,4.92486775 243,11 L243,127 C243,133.075132 238.075132,138 232,138 L11,138 C4.92486775,138 7.43989126e-16,133.075132 0,127 L0,11 C-7.43989126e-16,4.92486775 4.92486775,1.11598369e-15 11,0 Z" id="path-1"></path>
        <filter x="-3.1%" y="-4.0%" width="106.2%" height="110.9%" filterUnits="objectBoundingBox" id="filter-2">
            <feMorphology radius="0.5" operator="dilate" in="SourceAlpha" result="shadowSpreadOuter1"></feMorphology>
            <feOffset dx="0" dy="2" in="shadowSpreadOuter1" result="shadowOffsetOuter1"></feOffset>
            <feGaussianBlur stdDeviation="2" in="shadowOffsetOuter1" result="shadowBlurOuter1"></feGaussianBlur>
            <feComposite in="shadowBlurOuter1" in2="SourceAlpha" operator="out" result="shadowBlurOuter1"></feComposite>
            <feColorMatrix values="0 0 0 0 0   0 0 0 0 0   0 0 0 0 0  0 0 0 0.25 0" type="matrix" in="shadowBlurOuter1"></feColorMatrix>
        </filter>
        <path d="M11,88 L232,88 C238.075132,88 243,92.9248678 243,99 L243,138 L0,138 L0,99 C-7.43989126e-16,92.9248678 4.92486775,88 11,88 Z" id="path-3"></path>
        <filter x="-3.7%" y="-18.0%" width="107.4%" height="136.0%" filterUnits="objectBoundingBox" id="filter-4">
            <feOffset dx="0" dy="0" in="SourceAlpha" result="shadowOffsetOuter1"></feOffset>
            <feGaussianBlur stdDeviation="3" in="shadowOffsetOuter1" result="shadowBlurOuter1"></feGaussianBlur>
            <feColorMatrix values="0 0 0 0 0   0 0 0 0 0   0 0 0 0 0  0 0 0 0.100628397 0" type="matrix" in="shadowBlurOuter1"></feColorMatrix>
        </filter>
    </defs>
    <g id="Cards" stroke="none" stroke-width="1" fill="none" fill-rule="evenodd">
        <g id="Group" transform="translate(6.000000, 3.000000)">
            <g id="Group-15">
                <g id="Group-6">
                    <g id="Rectangle-2-Copy-23">
                        <use fill="black" fill-opacity="1" filter="url(#filter-2)" xlink:href="#path-1"></use>
                        <use fill="#FFFFFF" fill-rule="evenodd" xlink:href="#path-1"></use>
                        <path stroke-opacity="0.25" stroke="#000000" stroke-width="0.5" d="M11,-0.25 L232,-0.25 C238.213203,-0.25 243.25,4.78679656 243.25,11 L243.25,127 C243.25,133.213203 238.213203,138.25 232,138.25 L11,138.25 C4.78679656,138.25 -0.25,133.213203 -0.25,127 L-0.25,11 C-0.25,4.78679656 4.78679656,-0.25 11,-0.25 Z"></path>
                    </g>
                    <g id="Rectangle-2-Copy-24" transform="translate(121.500000, 113.000000) rotate(-180.000000) translate(-121.500000, -113.000000) ">
                        <use fill="black" fill-opacity="1" filter="url(#filter-4)" xlink:href="#path-3"></use>
                        <use fill="#2F5A8C" fill-rule="evenodd" xlink:href="#path-3"></use>
                    </g>
                </g>
            </g>
        </g>
    </g>
</svg>
