<?xml version="1.0" encoding="UTF-8"?>
<svg width="251px" height="146px" viewBox="0 0 251 146" version="1.1" xmlns="http://www.w3.org/2000/svg" xmlns:xlink="http://www.w3.org/1999/xlink">
    <!-- Generator: Sketch 49 (51002) - http://www.bohemiancoding.com/sketch -->
    <title>Unknown Card</title>
    <desc>Created with Sketch.</desc>
    <defs>
        <path d="M11,0 L232,-1.77635684e-15 C238.075132,-2.89234053e-15 243,4.92486775 243,11 L243,127 C243,133.075132 238.075132,138 232,138 L11,138 C4.92486775,138 7.43989126e-16,133.075132 0,127 L0,11 C-7.43989126e-16,4.92486775 4.92486775,1.11598369e-15 11,0 Z" id="path-1"></path>
        <filter x="-2.9%" y="-3.6%" width="105.8%" height="110.1%" filterUnits="objectBoundingBox" id="filter-2">
            <feOffset dx="0" dy="2" in="SourceAlpha" result="shadowOffsetOuter1"></feOffset>
            <feGaussianBlur stdDeviation="2" in="shadowOffsetOuter1" result="shadowBlurOuter1"></feGaussianBlur>
            <feComposite in="shadowBlurOuter1" in2="SourceAlpha" operator="out" result="shadowBlurOuter1"></feComposite>
            <feColorMatrix values="0 0 0 0 0   0 0 0 0 0   0 0 0 0 0  0 0 0 0.25 0" type="matrix" in="shadowBlurOuter1"></feColorMatrix>
        </filter>
    </defs>
    <g id="Cards" stroke="none" stroke-width="1" fill="none" fill-rule="evenodd">
        <g id="Group-4-Copy" transform="translate(4.000000, 2.000000)">
            <g id="Rectangle-2-Copy-16">
                <use fill="black" fill-opacity="1" filter="url(#filter-2)" xlink:href="#path-1"></use>
                <use fill="#FFFFFF" fill-rule="evenodd" xlink:href="#path-1"></use>
                <path stroke-opacity="0.25" stroke="#000000" stroke-width="0.5" d="M11,0.25 C5.06293894,0.25 0.25,5.06293894 0.25,11 L0.25,127 C0.25,132.937061 5.06293894,137.75 11,137.75 L232,137.75 C237.937061,137.75 242.75,132.937061 242.75,127 L242.75,11 C242.75,5.06293894 237.937061,0.25 232,0.25 L11,0.25 Z"></path>
            </g>
        </g>
    </g>
</svg>
