<?xml version="1.0" encoding="UTF-8"?>
<svg width="20px" height="15px" viewBox="0 0 20 15" version="1.1" xmlns="http://www.w3.org/2000/svg" xmlns:xlink="http://www.w3.org/1999/xlink">
    <!-- Generator: Sketch 48.2 (47327) - http://www.bohemiancoding.com/sketch -->
    <title>card icon</title>
    <desc>Created with Sketch.</desc>
    <defs></defs>
    <g id="concessions-1.10-concessions-summary" stroke="none" stroke-width="1" fill="none" fill-rule="evenodd" transform="translate(-430.000000, -709.000000)">
        <path d="M430,723.347448 L430,714.769231 L450,714.769231 L450,723.347448 C450,723.70777 449.741855,724 449.423559,724 L430.576441,724 C430.258145,724 430,723.70777 430,723.347448 Z M449.423559,709 C449.741855,709 450,709.319765 450,709.714039 L450,712.461538 L430,712.461538 L430,709.714039 C430,709.319765 430.258145,709 430.576441,709 L449.423559,709 Z M432,719.300385 L445,719.300385 L445,718.230769 L432,718.230769 L432,719.300385 Z M432,721.608077 L439,721.608077 L439,720.538462 L432,720.538462 L432,721.608077 Z" id="Combined-Shape" fill="#333333"></path>
    </g>
</svg>
