<?xml version="1.0" encoding="UTF-8"?>
<svg width="157px" height="156px" viewBox="0 0 157 156" version="1.1" xmlns="http://www.w3.org/2000/svg" xmlns:xlink="http://www.w3.org/1999/xlink">
    <!-- Generator: Sketch 49.1 (51147) - http://www.bohemiancoding.com/sketch -->
    <title>Bouy</title>
    <desc>Created with Sketch.</desc>
    <defs></defs>
    <g id="Ask-jane" stroke="none" stroke-width="1" fill="none" fill-rule="evenodd">
        <g id="concessions-1.10-concessions-summary" transform="translate(-798.000000, -1177.000000)">
            <g id="Group-11" transform="translate(400.000000, 1143.000000)">
                <g id="Bouy" transform="translate(394.000000, 30.000000)">
                    <path d="M82.7925725,116.43713 C64.1116926,116.43713 48.9678009,101.323619 48.9678009,82.6802161 C48.9678009,64.036813 64.1116926,48.9233022 82.7925725,48.9233022 C101.473452,48.9233022 116.617344,64.036813 116.617344,82.6802161 C116.617344,101.323619 101.473452,116.43713 82.7925725,116.43713 M82.7925725,17.0077323 C46.4497402,17.0077323 16.9880747,46.4102931 16.9880747,82.6802161 C16.9880747,118.950139 46.4497402,148.3527 82.7925725,148.3527 C119.135405,148.3527 148.59707,118.950139 148.59707,82.6802161 C148.59707,46.4102931 119.135405,17.0077323 82.7925725,17.0077323" id="Fill-4" fill="#80EFF6" transform="translate(82.792572, 82.680216) rotate(8.000000) translate(-82.792572, -82.680216) "></path>
                    <path d="M82.8951851,11.717231 C43.6378607,11.717231 11.6997494,43.5911789 11.6997494,82.7698377 C11.6997494,121.948497 43.6378607,153.822444 82.8951851,153.822444 C122.152509,153.822444 154.090621,121.948497 154.090621,82.7698377 C154.090621,43.5911789 122.152509,11.717231 82.8951851,11.717231 M82.8951851,156.035576 C63.2858765,156.035576 44.8502335,148.414574 30.9844077,134.576655 C17.1184911,120.738465 9.48216951,102.339807 9.48216951,82.7698377 C9.48216951,63.1997778 17.1184911,44.8012101 30.9844077,30.96302 C44.8502335,17.1251926 63.2858765,9.50409991 82.8951851,9.50409991 C102.504312,9.50409991 120.940046,17.1251926 134.805962,30.96302 C148.671879,44.8012101 156.308201,63.1997778 156.308201,82.7698377 C156.308201,102.339807 148.671879,120.738465 134.805962,134.576655 C120.940046,148.414574 102.504312,156.035576 82.8951851,156.035576" id="Fill-6" fill="#00DFED" transform="translate(82.895185, 82.769838) rotate(8.000000) translate(-82.895185, -82.769838) "></path>
                    <path d="M82.7925788,136.223007 C53.1622734,136.223007 29.1422469,112.251169 29.1422469,82.6803064 C29.1422469,53.1094438 53.1622734,29.1376053 82.7925788,29.1376053 C112.422884,29.1376053 136.442911,53.1094438 136.442911,82.6803064 C136.442911,112.251169 112.422884,136.223007 82.7925788,136.223007 M82.7925788,17.0077318 C46.4497465,17.0077318 16.988081,46.4103833 16.988081,82.6803064 C16.988081,118.950229 46.4497465,148.35279 82.7925788,148.35279 C119.135411,148.35279 148.597077,118.950229 148.597077,82.6803064 C148.597077,46.4103833 119.135411,17.0077318 82.7925788,17.0077318" id="Fill-8" fill="#00DEEC" transform="translate(82.792579, 82.680261) rotate(8.000000) translate(-82.792579, -82.680261) "></path>
                    <path d="M57.0210219,25.0429993 L72.5011941,52.9877917 C77.5528531,49.992094 83.4514375,48.2699034 89.7539038,48.2699034 C92.7547148,48.2699034 95.6634825,48.6618214 98.4335947,49.3937887 L104.847004,18.0924837 C100.000148,16.9571727 94.9477619,16.3543334 89.7539038,16.3543334 C77.8377966,16.3543334 66.6616701,19.5154311 57.0210219,25.0429993" id="Fill-10" fill="#F5F5F5" transform="translate(80.934013, 34.671063) rotate(8.000000) translate(-80.934013, -34.671063) "></path>
                    <path d="M106.23793,141.437937 L90.7509433,113.480812 C86.308242,115.621943 81.3251839,116.822271 76.0611802,116.822271 C72.2789554,116.822271 68.6418372,116.202294 65.2459579,115.059456 L58.8135588,146.453708 C64.311078,147.940041 70.0923594,148.737841 76.0611802,148.737841 C86.9388248,148.737841 97.1986072,146.10178 106.23793,141.437937" id="Fill-12" fill="#F5F5F5" transform="translate(82.525745, 131.109327) rotate(8.000000) translate(-82.525745, -131.109327) "></path>
                    <path d="M113.446602,74.2822764 C115.670088,78.780085 116.921349,83.8423752 116.921349,89.1969264 C116.921349,92.7399674 116.373178,96.1546964 115.358976,99.3633103 L146.784262,105.776185 C148.164729,100.479941 148.901076,94.9245343 148.901076,89.1969264 C148.901076,78.2399054 146.208741,67.9119302 141.453747,58.8296233 L113.446602,74.2822764 Z" id="Fill-14" fill="#F5F5F5" transform="translate(131.173839, 82.302904) rotate(8.000000) translate(-131.173839, -82.302904) "></path>
                    <path d="M52.2612646,91.9313724 C49.7049509,87.1814741 48.2534292,81.7511145 48.2534292,75.9819753 C48.2534292,72.9279705 48.6622177,69.9697235 49.4239145,67.1560202 L18.0555084,60.7546614 C16.8927464,65.642121 16.273703,70.739595 16.273703,75.9819753 C16.273703,87.353675 19.1707495,98.0497195 24.2671126,107.376771 L52.2612646,91.9313724 Z" id="Fill-16" fill="#F5F5F5" transform="translate(34.267484, 84.065716) rotate(8.000000) translate(-34.267484, -84.065716) "></path>
                    <path d="M106.281623,17.6460549 C105.075519,17.3635874 103.856514,17.1143086 102.625878,16.8987628 C102.595439,16.8935033 102.564728,16.8888787 102.534198,16.8836192 C101.982302,16.7878614 101.427861,16.6994486 100.871422,16.617474 C100.733584,16.5971618 100.595201,16.5790258 100.457091,16.5595296 C100.006142,16.4959631 99.5538309,16.4364772 99.0999748,16.3820693 C98.9174329,16.3602154 98.7346184,16.3399032 98.5517131,16.3195002 C98.1385632,16.2735256 97.7241412,16.2315408 97.3087198,16.1932739 C97.104371,16.1744125 96.9000222,16.1557325 96.6951282,16.1387754 C96.2926092,16.1054052 95.8887273,16.0770224 95.4842093,16.0509973 C95.2748631,16.0374861 95.0658803,16.0227959 94.8559889,16.0112796 C94.4331168,15.9879749 94.0085183,15.9711084 93.5834655,15.9558742 C93.3962896,15.9491639 93.2096589,15.9397332 93.0220287,15.9346552 C92.4129802,15.9178794 91.8022962,15.908086 91.189068,15.908086 C90.683784,15.908086 90.1803172,15.9157938 89.677759,15.9271287 C89.5567308,15.9299398 89.4358842,15.9327509 89.3150376,15.9361967 C88.8168409,15.9500707 88.3196436,15.967844 87.8243544,15.9926902 C87.7892816,15.9945038 87.7542088,15.9969522 87.7191361,15.9987658 C87.2518324,16.023068 86.786346,16.053355 86.321859,16.0871786 C86.2029206,16.0958838 86.0839821,16.1044984 85.9653163,16.1138384 C85.6818266,16.136055 85.3998815,16.163531 85.1173005,16.1889213 C85.1737258,15.8293759 85.1768151,15.4555938 85.1138477,15.0768243 L83.7599119,7.99264669 C83.443621,6.08791759 81.6400087,4.79962975 79.7313599,5.11528611 C77.822802,5.43103316 76.5319244,7.23102709 76.8482153,9.13575618 L78.202242,16.2200245 C78.2562141,16.5451116 78.356435,16.8504304 78.4901839,17.1346209 C78.3309027,17.1656334 78.170622,17.1939255 78.0117951,17.2261168 C77.9184797,17.2450689 77.8257096,17.2652905 77.7326668,17.2846053 C77.331965,17.367668 76.9326262,17.4545392 76.5346503,17.5448563 C76.4283417,17.5689771 76.3217604,17.5924632 76.2157244,17.6170374 C75.7576887,17.7234955 75.301561,17.8344876 74.8472506,17.9502857 C74.744213,17.9766735 74.6416298,18.0041495 74.5387739,18.0309907 C74.1497933,18.1321893 73.7622666,18.2367431 73.3761936,18.3449241 C73.2774265,18.3725815 73.1782051,18.3994227 73.0795289,18.4275334 C72.6319423,18.5551199 72.1864455,18.6876031 71.7426751,18.8243482 C71.6324594,18.8584438 71.5226981,18.8934462 71.4126641,18.9279952 C71.0321337,19.0475112 70.6530571,19.1702916 70.275616,19.2964272 C70.186026,19.3263515 70.0960726,19.3553691 70.006846,19.3856561 C69.5693451,19.5340083 69.1342066,19.6874385 68.7008854,19.8446773 C68.5865809,19.8862086 68.472549,19.9286467 68.3584262,19.9707222 C67.9826206,20.1095529 67.6082689,20.2513761 67.2356435,20.3968265 C67.1574112,20.4272949 67.0787247,20.4568565 67.0006741,20.487597 C66.573895,20.6559894 66.1499325,20.8297319 65.7276964,21.0067388 C65.6104843,21.0557966 65.4938174,21.1056705 65.3769688,21.1554537 C65.0009815,21.3155942 64.6266298,21.4787272 64.254277,21.645578 C64.1919456,21.673598 64.129069,21.7004393 64.0668285,21.72855 C63.6499533,21.9170733 63.2360765,22.1109467 62.8239261,22.3078125 C62.7072592,22.3633992 62.5908649,22.4197114 62.4746523,22.4761142 C62.0903966,22.6623705 61.7077764,22.8514379 61.3277003,23.0448579 C61.288357,23.0648981 61.2485594,23.0842129 61.209307,23.1042532 C60.8018814,23.312726 60.3979086,23.526821 59.9954805,23.7433644 C59.8806308,23.805208 59.7659629,23.8674143 59.6515675,23.9298927 C59.2508658,24.1486124 58.8517995,24.3699617 58.456186,24.5967519 L64.3394147,35.2171695 C72.2364197,30.6523486 81.4064932,28.0378688 91.189068,28.0378688 C95.5493574,28.0378688 99.7867104,28.5607285 103.845247,29.5403423 L106.282259,17.6462363 C106.282077,17.6462363 106.281804,17.6461456 106.281623,17.6460549" id="Fill-18" fill="#E6E6E6" transform="translate(82.369222, 20.142439) rotate(8.000000) translate(-82.369222, -20.142439) "></path>
                    <path d="M98.9390091,130.491062 C91.6452375,134.194243 83.3905086,136.283325 74.6463965,136.283325 C69.5099632,136.283325 64.542806,135.561695 59.8395122,134.216641 L57.3987751,146.128974 C57.3994111,146.129155 57.4000471,146.129246 57.400774,146.129518 C58.4126141,146.403099 59.4343582,146.652831 60.464825,146.879077 C60.5088023,146.888689 60.5527795,146.898211 60.5968476,146.907732 C61.568981,147.119016 62.5492011,147.308446 63.5368719,147.476476 C63.6822512,147.501141 63.8279031,147.524989 63.973555,147.548566 C64.4006977,147.618299 64.8292032,147.683498 65.2590717,147.744888 C65.4899523,147.777895 65.7206511,147.811266 65.9523494,147.841825 C66.1869553,147.872837 66.422288,147.901673 66.6577117,147.930147 C66.9349319,147.963698 67.212879,147.995164 67.4912804,148.02527 C67.7044428,148.048393 67.9174235,148.071879 68.131222,148.092917 C68.5347405,148.132453 68.9393493,148.168181 69.3450485,148.200463 C69.5141428,148.213884 69.6834189,148.226307 69.8529675,148.238639 C70.2625738,148.26811 70.6731795,148.294589 71.0847847,148.316533 C71.1569292,148.320342 71.2288011,148.325511 71.3009456,148.329229 C71.7854222,148.353349 72.2717161,148.37076 72.7588277,148.384453 C72.8872158,148.38808 73.0156039,148.391163 73.1442646,148.394155 C73.6437334,148.405309 74.1441109,148.413107 74.6463965,148.413107 C75.1575865,148.413107 75.6669593,148.405309 76.1753327,148.393702 C76.2693749,148.391616 76.363508,148.389984 76.4574594,148.387264 C76.9447527,148.374206 77.4305923,148.355798 77.9151597,148.33204 C78.0123822,148.327324 78.1095137,148.321793 78.2065544,148.316624 C78.5786346,148.296765 78.9490793,148.271647 79.3194332,148.246257 C79.3049861,148.485288 79.3140723,148.729217 79.3533247,148.975594 L80.4761983,156.157978 C80.7669569,157.978375 82.4813426,159.218965 84.3054897,158.92879 C86.1296368,158.638705 87.37263,156.927668 87.0819622,155.107271 L85.9591795,147.924887 C85.9336473,147.76511 85.8934862,147.611679 85.846874,147.461423 C85.9192002,147.44909 85.9920716,147.438209 86.0642161,147.425514 C86.1898783,147.403569 86.3154497,147.382078 86.4406577,147.359408 C86.8733429,147.281242 87.3043926,147.198724 87.7340794,147.112124 C87.8743704,147.083832 88.0143889,147.054543 88.1543165,147.025344 C88.547931,146.94346 88.9402734,146.858584 89.331253,146.769717 C89.4709988,146.737889 89.6101995,146.705153 89.749582,146.672418 C90.102672,146.589627 90.4545808,146.503754 90.8054902,146.41525 C90.959774,146.376439 91.1142395,146.337991 91.2679782,146.298001 C91.6627739,146.195442 92.056025,146.088984 92.448004,145.979352 C92.616644,145.932108 92.7849206,145.883594 92.9531063,145.835081 C93.2781199,145.741318 93.6021341,145.645107 93.9250579,145.546447 C94.1370391,145.481702 94.3484752,145.415596 94.5594569,145.348856 C94.8439461,145.25872 95.1276175,145.166952 95.4102894,145.073189 C95.5921045,145.012887 95.7739195,144.952857 95.9549167,144.891104 C96.3122773,144.76914 96.6680023,144.64373 97.0224553,144.515871 C97.2164458,144.445866 97.4098003,144.374411 97.6029731,144.302683 C97.8623844,144.2062 98.1207961,144.107812 98.3786627,144.008246 C98.6523393,143.902604 98.9251072,143.795057 99.1969666,143.685879 C99.4243035,143.594655 99.6510044,143.502252 99.8769784,143.40858 C100.07842,143.324973 100.280043,143.241639 100.480484,143.156218 C100.805861,143.017388 101.129694,142.875655 101.452527,142.731746 C101.6616,142.638527 101.869856,142.543767 102.077749,142.448462 C102.290184,142.351163 102.501529,142.252141 102.712693,142.152756 C103.018989,142.008303 103.324104,141.861674 103.627856,141.712687 C103.820302,141.618289 104.012475,141.523166 104.203831,141.427045 C104.410723,141.322945 104.617616,141.219207 104.823146,141.113112 L98.9390091,130.491062 Z" id="Fill-20" fill="#E6E6E6" transform="translate(81.110961, 144.730977) rotate(8.000000) translate(-81.110961, -144.730977) "></path>
                    <path d="M160.222078,81.6334841 L160.125855,80.9519348 C159.882435,79.2282932 158.284898,78.0279648 156.557792,78.2709866 L148.500416,79.4043934 C148.453076,79.4111037 148.407554,79.42262 148.360851,79.4313253 C148.302972,79.1209283 148.245002,78.8105314 148.182489,78.501676 C148.148325,78.3333743 148.112434,78.1657981 148.076907,77.9979498 C148.013849,77.6981624 147.948519,77.3992817 147.881281,77.1009452 C147.831398,76.8794145 147.780879,76.6581558 147.728724,76.4375318 C147.653036,76.1172508 147.574894,75.7980579 147.494572,75.4796812 C147.442327,75.2726592 147.389263,75.0659093 147.335109,74.8596127 C147.250971,74.5396037 147.16438,74.2205015 147.075516,73.9023968 C147.003554,73.6452289 146.929592,73.3890585 146.854722,73.1332508 C146.795934,72.9323044 146.736147,72.731902 146.675451,72.5318624 C146.563781,72.1634304 146.448659,71.7965399 146.33072,71.4308283 C146.272296,71.2494687 146.213962,71.0680185 146.153902,70.8873843 C146.069401,70.6332088 145.983627,70.3797588 145.896127,70.1269436 C145.850423,69.9949138 145.803266,69.8636094 145.756744,69.7319424 C145.600552,69.2898784 145.44009,68.8498093 145.274812,68.4120979 C145.231561,68.297388 145.187766,68.1827687 145.143879,68.0682402 C144.944528,67.5497331 144.739362,67.0340371 144.52738,66.5218776 C144.513388,66.4884168 144.500031,66.4548653 144.486129,66.4214044 C144.367009,66.1346749 144.245708,65.8489429 144.122499,65.5642083 C144.109415,65.5338306 144.095876,65.5037249 144.082701,65.4734378 C143.850367,64.9386991 143.611036,64.4077689 143.365073,63.8804659 C143.338087,63.8227935 143.3111,63.7651212 143.284114,63.7075395 C142.886411,62.8619504 142.471807,62.0258827 142.039667,61.2003339 C142.039577,61.2002432 142.039577,61.2001525 142.039395,61.1998805 L131.399173,67.0705811 C135.190666,74.4114732 137.332648,82.7395056 137.332648,91.5671836 C137.332648,96.4637112 136.670355,101.205176 135.43672,105.711146 L147.36991,108.146443 L147.36991,108.146352 C147.41952,107.956015 147.466405,107.764681 147.51438,107.573618 C147.580164,107.311282 147.644586,107.04822 147.707371,106.784432 C147.75362,106.589833 147.800414,106.395234 147.844936,106.19991 C147.933618,105.811438 148.018392,105.421515 148.100077,105.030503 C148.139693,104.840801 148.177492,104.650464 148.215563,104.460218 C148.276168,104.15635 148.334592,103.851847 148.391018,103.546438 C148.425545,103.359638 148.460345,103.172837 148.493328,102.985493 C148.560839,102.60092 148.624533,102.214986 148.685411,101.828146 C148.712306,101.657487 148.738474,101.486556 148.764006,101.315443 C148.828518,100.882447 148.890577,100.448635 148.946639,100.013009 C148.960905,99.9018356 148.973262,99.7901181 148.987073,99.6786726 C149.033958,99.298815 149.077481,98.9179598 149.117914,98.5361072 C149.132452,98.3977298 149.147535,98.2595338 149.161346,98.1207937 C149.206959,97.6615913 149.248301,97.2010286 149.284283,96.739015 C149.293278,96.6251212 149.300729,96.5108647 149.309088,96.3968802 C149.339527,95.9775768 149.366513,95.5571853 149.389047,95.1357056 C149.393862,95.0475648 149.399587,94.9596054 149.403948,94.8711926 C149.428026,94.3872345 149.446017,93.9013722 149.459465,93.4146031 C149.462554,93.3017974 149.465007,93.188901 149.467642,93.0760047 C149.479,92.5741827 149.486814,92.0716353 149.486814,91.5671836 C149.486814,91.0585606 149.479,90.5516606 149.467461,90.045758 C149.465189,89.9480052 149.463372,89.850071 149.460646,89.7524995 C149.447562,89.2674533 149.429208,88.7837673 149.405402,88.3012601 C149.400586,88.2021471 149.394771,88.1033968 149.38941,88.0042838 C149.364423,87.5364667 149.335438,87.0695564 149.300638,86.6043691 C149.29773,86.5659209 149.29555,86.5272006 149.292551,86.488571 C149.288917,86.4407827 149.283647,86.3934479 149.27983,86.3456596 C149.345978,86.3404909 149.411762,86.3372264 149.478455,86.3278864 L157.535831,85.194389 C159.262847,84.9513671 160.465588,83.3571256 160.222078,81.6334841" id="Fill-22" fill="#E6E6E6" transform="translate(145.826287, 84.673162) rotate(8.000000) translate(-145.826287, -84.673162) "></path>
                    <path d="M28.4152203,73.6725204 C28.4152203,69.2621272 28.9533964,64.9776883 29.960966,60.8773293 L18.0429506,58.4452065 C18.0429506,58.4453879 18.0428597,58.4454786 18.0428597,58.4454786 C17.6102654,60.2636085 17.2536317,62.1110279 16.975412,63.9840191 C16.9664167,64.0448652 16.9586026,64.1061648 16.9496981,64.1671923 C16.8727379,64.6958555 16.8024107,65.226695 16.7380803,65.7593481 C16.7205439,65.9055239 16.7044613,66.0519718 16.6878336,66.198329 C16.6365874,66.6485542 16.5899751,67.1000489 16.547906,67.5529038 C16.530733,67.7380719 16.5140144,67.9233307 16.4983861,68.1089523 C16.4627682,68.5310667 16.4323294,68.9545414 16.4047073,69.3788321 C16.3918958,69.5780556 16.377903,69.7769164 16.3668178,69.9765933 C16.3425577,70.40968 16.3248396,70.844399 16.3091204,71.279662 C16.3025784,71.4625631 16.2933104,71.6449202 16.2882222,71.8283654 C16.2712309,72.4410888 16.2610544,73.0556258 16.2610544,73.6725204 C16.2610544,74.1783323 16.2688685,74.6822399 16.2802263,75.1853314 C16.2827704,75.2939658 16.285042,75.4026909 16.2880404,75.511144 C16.3015789,76.0011776 16.3196604,76.490123 16.3438297,76.9773456 C16.3479185,77.0592294 16.3531885,77.1407505 16.3575499,77.222453 C16.3811741,77.664517 16.4091596,78.1054022 16.4415065,78.5451085 C16.4479577,78.6337027 16.453682,78.7226596 16.4605875,78.8113444 C16.4690377,78.9207042 16.480668,79.029248 16.4896634,79.1383357 C16.1011371,79.036321 15.6860792,79.0096611 15.2637522,79.0767642 L7.49668005,80.3025736 C5.87133919,80.5610111 4.7636396,82.0856104 5.02268738,83.7077813 L5.18723861,84.7382665 C5.44628639,86.360256 6.97395051,87.465824 8.59938223,87.2072053 L16.3664544,85.9815772 C16.7243601,85.9246302 17.055189,85.8033914 17.3538526,85.6360871 C17.4190007,85.9891036 17.4858752,86.3413946 17.5566568,86.6924161 C17.5785545,86.8010505 17.5997254,86.9101383 17.6221683,87.0185913 C17.7144842,87.4648266 17.8117066,87.9092482 17.9130178,88.351947 C17.9414577,88.4766317 17.9710787,88.600863 18.0002454,88.7253664 C18.0939242,89.1239948 18.1908741,89.521535 18.291731,89.9173523 C18.3099943,89.9889893 18.3271672,90.0610798 18.3457031,90.1326261 C18.4586446,90.5697027 18.5777648,91.0042403 18.69952,91.4379618 C18.7375912,91.5733467 18.775935,91.7087316 18.814824,91.8437539 C18.9371243,92.2685887 19.062514,92.6919727 19.1931737,93.1131803 C19.2269743,93.2221774 19.2624106,93.3303584 19.2967564,93.4390835 C19.4068813,93.7875659 19.5199137,94.1346882 19.635672,94.4806316 C19.6797401,94.6125707 19.723263,94.7447819 19.7681489,94.8762676 C19.9068953,95.2823317 20.0497305,95.6864915 20.1962001,96.0889285 C20.2471738,96.2291194 20.2994195,96.3687663 20.3513926,96.5084132 C20.4755102,96.8422055 20.6021719,97.174819 20.7314686,97.506163 C20.7754459,97.6186966 20.8182419,97.731865 20.8627643,97.8441266 C21.0175025,98.233959 21.1771471,98.6213431 21.3391542,99.0075483 C21.4016673,99.1566259 21.4645439,99.3053408 21.5281473,99.4538743 C21.6933346,99.8395355 21.8607934,100.223927 22.0330679,100.60578 C22.0881303,100.727744 22.14501,100.84853 22.2007084,100.97004 C22.3391823,101.271823 22.4798367,101.572426 22.6226719,101.87176 C22.6914545,102.016032 22.7598737,102.160485 22.8296557,102.304031 C23.0093809,102.673642 23.192468,103.041348 23.378917,103.40706 C23.4526062,103.551604 23.5276582,103.69524 23.6023469,103.83924 C23.7525419,104.128508 23.9048267,104.416598 24.0592014,104.703328 C24.1243495,104.824476 24.1884073,104.946349 24.2543731,105.067044 L24.254464,105.067316 L34.8925961,99.1978852 C30.7617335,91.6103441 28.4152203,82.9148772 28.4152203,73.6725204" id="Fill-24" fill="#E6E6E6" transform="translate(19.938851, 81.756261) rotate(8.000000) translate(-19.938851, -81.756261) "></path>
                </g>
            </g>
        </g>
    </g>
</svg>