<?xml version="1.0" encoding="UTF-8"?>
<svg width="119px" height="89px" viewBox="0 0 119 89" version="1.1" xmlns="http://www.w3.org/2000/svg" xmlns:xlink="http://www.w3.org/1999/xlink">
    <!-- Generator: Sketch 48.2 (47327) - http://www.bohemiancoding.com/sketch -->
    <title>Extension_icon</title>
    <desc>Created with Sketch.</desc>
    <defs></defs>
    <g id="Desktop-|-Flow-2-|-Multi-CA-|-Filtering" stroke="none" stroke-width="1" fill="none" fill-rule="evenodd" transform="translate(-490.000000, -450.000000)">
        <g id="Extension_icon" transform="translate(490.000000, 450.000000)">
            <path d="M81.0268889,89 C83.3938889,89 85.4828889,88.133 87.2948889,86.389 C89.1018889,84.649 90.0098889,82.596 90.0098889,80.226 L109.457444,80.226 L109.457444,50.6640625 L118.440444,50.6640625 C118.440444,56.5859375 118.440444,59.6222331 118.440444,59.7729492 C118.440444,66.1915525 118.440444,73.0092361 118.440444,80.226 C118.440444,82.596 117.532444,84.649 115.725444,86.389 C113.913444,88.133 111.824444,89 109.457444,89 L81.0268889,89 Z M60.5694444,8.776 L67.6558889,8.776 L60.5694444,8.776 Z M81.0268889,8.776 L96.0864444,8.776 L96.0864444,0 L105.069444,0 L105.069444,8.776 L109.457444,8.776 C111.824444,8.776 113.913444,9.683 115.725444,11.491 C117.532444,13.304 118.440444,15.393 118.440444,17.759 L118.440444,50.6640625 L109.457444,50.6640625 L109.457444,31.13 L90.0098889,31.13 L90.0098889,17.759 C90.0098889,15.393 89.1018889,13.304 87.2948889,11.491 C85.4828889,9.683 83.3938889,8.776 81.0268889,8.776 Z" id="Combined-Shape-Copy-2" fill="#00DFED"></path>
            <g id="Group-Copy-2" fill="#001CB0">
                <path d="M71.242,50.6640625 L71.242,80.226 L8.983,80.226 L8.983,31.13 L71.242,31.13 L71.242,50.6640625 L80.225,50.6640625 L80.225,17.759 C80.225,15.393 79.317,13.304 77.51,11.491 C75.698,9.683 73.609,8.776 71.242,8.776 L66.854,8.776 L66.854,0 L57.871,0 L57.871,8.776 L22.354,8.776 L22.354,0 L13.371,0 L13.371,8.776 L8.983,8.776 C6.476,8.776 4.352,9.683 2.611,11.491 C0.868,13.304 0,15.393 0,17.759 C0,23.971405 0,28.6307088 0,31.7369113 C0,42.5122644 0,58.6752939 0,80.226 C0,82.596 0.868,84.649 2.611,86.389 C4.352,88.133 6.476,89 8.983,89 L71.242,89 C73.609,89 75.698,88.133 77.51,86.389 C79.317,84.649 80.225,82.596 80.225,80.226 C80.225,73.0092361 80.225,66.1915525 80.225,59.7729492 C80.225,59.6222331 80.225,56.5859375 80.225,50.6640625 L71.242,50.6640625 Z" id="Fill-2-Copy"></path>
            </g>
        </g>
    </g>
</svg>