<?xml version="1.0" encoding="UTF-8"?>
<svg width="41px" height="36px" viewBox="0 0 41 36" version="1.1" xmlns="http://www.w3.org/2000/svg" xmlns:xlink="http://www.w3.org/1999/xlink">
    <!-- Generator: Sketch 48.2 (47327) - http://www.bohemiancoding.com/sketch -->
    <title>icon/livechat_large</title>
    <desc>Created with Sketch.</desc>
    <defs></defs>
    <g id="Intro-Copy-3" stroke="none" stroke-width="1" fill="none" fill-rule="evenodd" transform="translate(-679.000000, -857.000000)">
        <g id="icon/livechat_large" transform="translate(679.000000, 857.000000)">
            <path d="M3.38127056,7.87774851 L26.129028,7.87774851 L26.129028,5.29923513 L3.38127056,5.29923513 L3.38127056,7.87774851 Z M12.7333824,12.7120624 L9.52930178,12.7120624 L9.52930178,10.133549 L26.129028,10.133549 L26.129028,10.1500302 L29.8181818,10.1500302 L29.8181818,1.72546875 C29.8181818,0.898217858 29.2895441,0.227272727 28.6377531,0.227272727 L1.1804287,0.227272727 C0.528637692,0.227272727 0,0.898217858 0,1.72546875 L0,17.8467597 C0,18.6740106 0.528637692,19.3444241 1.1804287,19.3444241 L4.00499602,19.3444241 L8.29986309,24.7954545 L8.54533194,19.3444241 L12.7333824,19.3444241 L12.7333824,12.7120624 Z" id="Fill-3" fill="#00E3F2"></path>
            <g id="Group-2" transform="translate(11.181818, 11.204545)">
                <path d="M1.1804287,0.269727273 C0.528637692,0.269727273 0,0.925370483 0,1.73555816 L0,17.5141844 C0,18.3238517 0.528637692,18.9805356 1.1804287,18.9805356 L21.5183187,18.9805356 L21.5183187,24.3151818 L25.8127669,18.9805356 L28.6377531,18.9805356 C29.2895441,18.9805356 29.8181818,18.3238517 29.8181818,17.5141844 L29.8181818,1.73555816 C29.8181818,0.925370483 29.2895441,0.269727273 28.6377531,0.269727273 L1.1804287,0.269727273 Z" id="Fill-5" fill="#0110B8"></path>
                <rect id="Rectangle-5" fill="#FFFFFF" x="3.72727273" y="5.22727273" width="22.3636364" height="3.13636364"></rect>
                <rect id="Rectangle-5-Copy" fill="#FFFFFF" x="3.72727273" y="10.4545455" width="16.3068182" height="3.13636364"></rect>
            </g>
        </g>
    </g>
</svg>