<?xml version="1.0" encoding="UTF-8"?>
<svg width="188px" height="111px" viewBox="0 0 188 111" version="1.1" xmlns="http://www.w3.org/2000/svg" xmlns:xlink="http://www.w3.org/1999/xlink">
    <!-- Generator: Sketch 48.2 (47327) - http://www.bohemiancoding.com/sketch -->
    <title>Group 31</title>
    <desc>Created with Sketch.</desc>
    <defs>
        <filter x="-2.2%" y="-1.8%" width="104.3%" height="107.2%" filterUnits="objectBoundingBox" id="filter-1">
            <feOffset dx="0" dy="2" in="SourceAlpha" result="shadowOffsetOuter1"></feOffset>
            <feGaussianBlur stdDeviation="1" in="shadowOffsetOuter1" result="shadowBlurOuter1"></feGaussianBlur>
            <feColorMatrix values="0 0 0 0 0   0 0 0 0 0   0 0 0 0 0  0 0 0 0.24 0" type="matrix" in="shadowBlurOuter1" result="shadowMatrixOuter1"></feColorMatrix>
            <feMerge>
                <feMergeNode in="shadowMatrixOuter1"></feMergeNode>
                <feMergeNode in="SourceGraphic"></feMergeNode>
            </feMerge>
        </filter>
    </defs>
    <g id="Billing-Copy-3" stroke="none" stroke-width="1" fill="none" fill-rule="evenodd" transform="translate(-946.000000, -1113.000000)">
        <g id="Chat-CTA-/-Default" filter="url(#filter-1)" transform="translate(948.000000, 1113.000000)">
            <g id="Group">
                <g id="Group-32">
                    <g id="Group-31">
                        <path d="M37,-32.0075956 C37,-34.2125397 38.7948686,-36 40.996266,-36 L147,-36 L147,147 L40.996266,147 C38.7891892,147 37,145.218242 37,143.007596 L37,-32.0075956 Z" id="Rectangle" fill="#FFFFFF" transform="translate(92.000000, 55.500000) rotate(-270.000000) translate(-92.000000, -55.500000) "></path>
                        <path d="M29.855,89.605 C28.3549925,89.605 27.3375027,89.1900041 26.8025,88.36 C26.2674973,87.5299959 26,86.1650095 26,84.265 C26,82.3649905 26.2699973,81.012504 26.81,80.2075 C27.3500027,79.402496 28.3649926,79 29.855,79 C30.7450044,79 31.7249946,79.1249988 32.795,79.375 L32.735,80.725 C31.8349955,80.5649992 30.9350045,80.485 30.035,80.485 C29.1349955,80.485 28.5250016,80.7524973 28.205,81.2875 C27.8849984,81.8225027 27.725,82.8274926 27.725,84.3025 C27.725,85.7775074 27.8799984,86.7824973 28.19,87.3175 C28.5000016,87.8525027 29.1049955,88.12 30.005,88.12 C30.9050045,88.12 31.8149954,88.0450007 32.735,87.895 L32.78,89.275 C31.7499949,89.4950011 30.7750046,89.605 29.855,89.605 Z M41.32,89.44 L41.32,85 L36.88,85 L36.88,89.44 L35.215,89.44 L35.215,79.165 L36.88,79.165 L36.88,83.545 L41.32,83.545 L41.32,79.165 L43,79.165 L43,89.44 L41.32,89.44 Z M45.12,89.44 L47.655,79.165 L50.97,79.165 L53.52,89.44 L51.84,89.44 L51.285,87.235 L47.34,87.235 L46.785,89.44 L45.12,89.44 Z M48.945,80.56 L47.67,85.765 L50.955,85.765 L49.695,80.56 L48.945,80.56 Z M54.0349999,80.65 L54.0349999,79.165 L61.5349999,79.165 L61.5349999,80.65 L58.6399999,80.65 L58.6399999,89.44 L56.9599999,89.44 L56.9599999,80.65 L54.0349999,80.65 Z M71.2499999,88.15 C72.2100047,88.15 72.8574982,87.8600029 73.1924999,87.28 C73.5275016,86.6999971 73.6949999,85.7275068 73.6949999,84.3625 C73.6949999,82.9974932 73.5225016,82.0050031 73.1774999,81.385 C72.8324982,80.7649969 72.1900046,80.455 71.2499999,80.455 C70.3099952,80.455 69.6650016,80.7649969 69.3149999,81.385 C68.9649981,82.0050031 68.7899999,82.9924932 68.7899999,84.3475 C68.7899999,85.7025068 68.9599982,86.6749971 69.2999999,87.265 C69.6400016,87.8550029 70.2899951,88.15 71.2499999,88.15 Z M71.2499999,89.605 C69.6999921,89.605 68.615003,89.1825042 67.9949999,88.3375 C67.3749968,87.4924958 67.0649999,86.165009 67.0649999,84.355 C67.0649999,82.5449909 67.3774968,81.2000044 68.0024999,80.32 C68.627503,79.4399956 69.7099922,79 71.2499999,79 C72.7900076,79 73.8699968,79.4374956 74.4899999,80.3125 C75.110003,81.1875044 75.4199999,82.5349909 75.4199999,84.355 C75.4199999,86.1750091 75.112503,87.5049958 74.4974999,88.345 C73.8824968,89.1850042 72.8000076,89.605 71.2499999,89.605 Z M78.0049999,89.44 L78.0049999,79.165 L80.9149999,79.165 L84.0349999,87.97 L84.2599999,87.97 L84.2599999,79.165 L85.9249999,79.165 L85.9249999,89.44 L83.0749999,89.44 L79.8799999,80.62 L79.6699999,80.62 L79.6699999,89.44 L78.0049999,89.44 Z M94.7049998,89.44 L88.9449998,89.44 L88.9449998,79.165 L90.6099998,79.165 L90.6099998,87.955 L94.7049998,87.955 L94.7049998,89.44 Z M96.7199998,89.44 L96.7199998,79.165 L98.3849998,79.165 L98.3849998,89.44 L96.7199998,89.44 Z M101.405,89.44 L101.405,79.165 L104.315,79.165 L107.435,87.97 L107.66,87.97 L107.66,79.165 L109.325,79.165 L109.325,89.44 L106.475,89.44 L103.28,80.62 L103.07,80.62 L103.07,89.44 L101.405,89.44 Z M112.345,89.44 L112.345,79.165 L118.825,79.165 L118.825,80.62 L114.01,80.62 L114.01,83.53 L117.925,83.53 L117.925,84.97 L114.01,84.97 L114.01,87.97 L118.825,87.97 L118.825,89.44 L112.345,89.44 Z M125.24,89.44 L125.24,79.165 L128.15,79.165 L131.27,87.97 L131.495,87.97 L131.495,79.165 L133.16,79.165 L133.16,89.44 L130.31,89.44 L127.115,80.62 L126.905,80.62 L126.905,89.44 L125.24,89.44 Z M139.915,88.15 C140.875004,88.15 141.522498,87.8600029 141.8575,87.28 C142.192501,86.6999971 142.36,85.7275068 142.36,84.3625 C142.36,82.9974932 142.187501,82.0050031 141.8425,81.385 C141.497498,80.7649969 140.855004,80.455 139.915,80.455 C138.974995,80.455 138.330001,80.7649969 137.98,81.385 C137.629998,82.0050031 137.455,82.9924932 137.455,84.3475 C137.455,85.7025068 137.624998,86.6749971 137.965,87.265 C138.305001,87.8550029 138.954995,88.15 139.915,88.15 Z M139.915,89.605 C138.364992,89.605 137.280003,89.1825042 136.66,88.3375 C136.039997,87.4924958 135.73,86.165009 135.73,84.355 C135.73,82.5449909 136.042497,81.2000044 136.6675,80.32 C137.292503,79.4399956 138.374992,79 139.915,79 C141.455007,79 142.534997,79.4374956 143.155,80.3125 C143.775003,81.1875044 144.085,82.5349909 144.085,84.355 C144.085,86.1750091 143.777503,87.5049958 143.1625,88.345 C142.547497,89.1850042 141.465007,89.605 139.915,89.605 Z M145.845,79.165 L147.6,79.165 L149.07,88 L149.385,88 L151.335,79.195 L153.285,79.195 L155.235,88 L155.565,88 L157.035,79.165 L158.79,79.165 L156.765,89.44 L154.08,89.44 L152.31,81.205 L150.555,89.44 L147.855,89.44 L145.845,79.165 Z" id="CHAT-ONLINE-NOW" fill="#001CB0" transform="translate(92.395000, 84.302500) rotate(-360.000000) translate(-92.395000, -84.302500) "></path>
                        <g id="Group-5" transform="translate(72.000000, 25.000000)">
                            <path d="M3.09128205,7.8723301 L23.8892308,7.8723301 L23.8892308,5.32471413 L3.09128205,5.32471413 L3.09128205,7.8723301 Z M11.6420513,12.6455951 L8.71282051,12.6455951 L8.71282051,10.0993851 L23.8892308,10.0993851 L23.8892308,10.1148508 L27.2615385,10.1148508 L27.2615385,1.79573175 C27.2615385,0.978863718 26.7784615,0.316652283 26.1825641,0.316652283 L1.07897436,0.316652283 C0.483076923,0.316652283 0,0.978863718 0,1.79573175 L0,17.7155196 C0,18.5323876 0.483076923,19.1945991 1.07897436,19.1945991 L3.66153846,19.1945991 L7.58871795,24.5766487 L7.81333333,19.1945991 L11.6420513,19.1945991 L11.6420513,12.6455951 Z" id="Fill-2" fill="#00DFED"></path>
                            <path d="M38.7117949,11.2466559 L13.6082051,11.2466559 C13.0123077,11.2466559 12.5292308,11.9074613 12.5292308,12.7243294 L12.5292308,28.6455232 C12.5292308,29.4623912 13.0123077,30.1231967 13.6082051,30.1231967 L31.9784615,30.1231967 L32.2020513,35.5066523 L36.1292308,30.1231967 L38.7117949,30.1231967 C39.3076923,30.1231967 39.7907692,29.4623912 39.7907692,28.6455232 L39.7907692,12.7243294 C39.7907692,11.9074613 39.3076923,11.2466559 38.7117949,11.2466559 L38.7117949,11.2466559 Z" id="Path" fill="#001CB0"></path>
                            <polygon id="Path" fill="#FFFFFF" points="15.9015385 23.5741927 31.0779487 23.5741927 31.0779487 21.0279827 15.9015385 21.0279827"></polygon>
                            <polygon id="Path" fill="#FFFFFF" points="15.9015385 18.8009277 36.6994872 18.8009277 36.6994872 16.2547177 15.9015385 16.2547177"></polygon>
                        </g>
                    </g>
                </g>
            </g>
        </g>
    </g>
</svg>