<?xml version="1.0" encoding="UTF-8"?>
<svg width="290px" height="50px" viewBox="0 0 290 50" version="1.1" xmlns="http://www.w3.org/2000/svg" xmlns:xlink="http://www.w3.org/1999/xlink">
    <!-- Generator: Sketch 48.2 (47327) - http://www.bohemiancoding.com/sketch -->
    <title>mob-online</title>
    <desc>Created with Sketch.</desc>
    <defs></defs>
    <g id="Page-1" stroke="none" stroke-width="1" fill="none" fill-rule="evenodd">
        <g id="mob-online" fill-rule="nonzero">
            <rect id="Rectangle-3" fill="#FFFFFF" x="0" y="0" width="290" height="50"></rect>
            <g id="Group" transform="translate(52.000000, 16.000000)">
                <g id="Group-4">
                    <g id="Icon">
                        <g id="Group-5" transform="translate(0.000000, 0.020457)">
                            <path d="M1.54564103,3.93616505 L11.9446154,3.93616505 L11.9446154,2.66235707 L1.54564103,2.66235707 L1.54564103,3.93616505 Z M5.82102564,6.32279755 L4.35641026,6.32279755 L4.35641026,5.04969256 L11.9446154,5.04969256 L11.9446154,5.05742539 L13.6307692,5.05742539 L13.6307692,0.897865876 C13.6307692,0.489431859 13.3892308,0.158326142 13.0912821,0.158326142 L0.539487179,0.158326142 C0.241538462,0.158326142 0,0.489431859 0,0.897865876 L0,8.8577598 C0,9.26619382 0.241538462,9.59729953 0.539487179,9.59729953 L1.83076923,9.59729953 L3.79435897,12.2883243 L3.90666667,9.59729953 L5.82102564,9.59729953 L5.82102564,6.32279755 Z" id="Fill-2" fill="#00DFED"></path>
                            <path d="M19.3558974,5.62332794 L6.80410256,5.62332794 C6.50615385,5.62332794 6.26461538,5.95373067 6.26461538,6.36216469 L6.26461538,14.3227616 C6.26461538,14.7311956 6.50615385,15.0615983 6.80410256,15.0615983 L15.9892308,15.0615983 L16.1010256,17.7533261 L18.0646154,15.0615983 L19.3558974,15.0615983 C19.6538462,15.0615983 19.8953846,14.7311956 19.8953846,14.3227616 L19.8953846,6.36216469 C19.8953846,5.95373067 19.6538462,5.62332794 19.3558974,5.62332794 Z" id="Path" fill="#001CB0"></path>
                            <polygon id="Path" fill="#FFFFFF" points="7.95076923 11.7870964 15.5389744 11.7870964 15.5389744 10.5139914 7.95076923 10.5139914"></polygon>
                            <polygon id="Path" fill="#FFFFFF" points="7.95076923 9.40046386 18.3497436 9.40046386 18.3497436 8.12735886 7.95076923 8.12735886"></polygon>
                        </g>
                    </g>
                    <path d="M44.5822857,14.176 C42.9822777,14.176 41.8969552,13.7333378 41.3262857,12.848 C40.7556162,11.9626622 40.4702857,10.5066768 40.4702857,8.48 C40.4702857,6.4533232 40.7582828,5.01067096 41.3342857,4.152 C41.9102886,3.29332904 42.9929444,2.864 44.5822857,2.864 C45.5316238,2.864 46.5769467,2.997332 47.7182857,3.264 L47.6542857,4.704 C46.6942809,4.53333248 45.7342905,4.448 44.7742857,4.448 C43.8142809,4.448 43.1636207,4.73333048 42.8222857,5.304 C42.4809507,5.87466952 42.3102857,6.9466588 42.3102857,8.52 C42.3102857,10.0933412 42.4756174,11.1653305 42.8062857,11.736 C43.136954,12.3066695 43.7822809,12.592 44.7422857,12.592 C45.7022905,12.592 46.6729475,12.5120008 47.6542857,12.352 L47.7022857,13.824 C46.6036135,14.0586678 45.5636239,14.176 44.5822857,14.176 Z M57.0897143,14 L57.0897143,9.264 L52.3537143,9.264 L52.3537143,14 L50.5777143,14 L50.5777143,3.04 L52.3537143,3.04 L52.3537143,7.712 L57.0897143,7.712 L57.0897143,3.04 L58.8817143,3.04 L58.8817143,14 L57.0897143,14 Z M61.4211428,14 L64.1251428,3.04 L67.6611428,3.04 L70.3811428,14 L68.5891428,14 L67.9971428,11.648 L63.7891428,11.648 L63.1971428,14 L61.4211428,14 Z M65.5011428,4.528 L64.1411428,10.08 L67.6451428,10.08 L66.3011428,4.528 L65.5011428,4.528 Z M71.2085714,4.624 L71.2085714,3.04 L79.2085714,3.04 L79.2085714,4.624 L76.1205714,4.624 L76.1205714,14 L74.3285714,14 L74.3285714,4.624 L71.2085714,4.624 Z M90.1274286,12.624 C91.1514337,12.624 91.8420934,12.3146698 92.1994286,11.696 C92.5567637,11.0773302 92.7354286,10.0400073 92.7354286,8.584 C92.7354286,7.12799272 92.5514304,6.06933664 92.1834286,5.408 C91.8154267,4.74666336 91.1301002,4.416 90.1274286,4.416 C89.1247569,4.416 88.4367638,4.74666336 88.0634286,5.408 C87.6900934,6.06933664 87.5034286,7.12265944 87.5034286,8.568 C87.5034286,10.0133406 87.6847601,11.0506635 88.0474286,11.68 C88.410097,12.3093365 89.1034234,12.624 90.1274286,12.624 Z M90.1274286,14.176 C88.474087,14.176 87.3167652,13.7253378 86.6554286,12.824 C85.9940919,11.9226622 85.6634286,10.5066763 85.6634286,8.576 C85.6634286,6.64532368 85.9967586,5.21067136 86.6634286,4.272 C87.3300986,3.33332864 88.4847537,2.864 90.1274286,2.864 C91.7701034,2.864 92.9220919,3.330662 93.5834286,4.264 C94.2447652,5.197338 94.5754286,6.63465696 94.5754286,8.576 C94.5754286,10.517343 94.2474318,11.9359955 93.5914286,12.832 C92.9354253,13.7280045 91.7807702,14.176 90.1274286,14.176 Z M97.6108571,14 L97.6108571,3.04 L100.714857,3.04 L104.042857,12.432 L104.282857,12.432 L104.282857,3.04 L106.058857,3.04 L106.058857,14 L103.018857,14 L99.6108571,4.592 L99.3868571,4.592 L99.3868571,14 L97.6108571,14 Z M115.702286,14 L109.558286,14 L109.558286,3.04 L111.334286,3.04 L111.334286,12.416 L115.702286,12.416 L115.702286,14 Z M118.129714,14 L118.129714,3.04 L119.905714,3.04 L119.905714,14 L118.129714,14 Z M123.405143,14 L123.405143,3.04 L126.509143,3.04 L129.837143,12.432 L130.077143,12.432 L130.077143,3.04 L131.853143,3.04 L131.853143,14 L128.813143,14 L125.405143,4.592 L125.181143,4.592 L125.181143,14 L123.405143,14 Z M135.352571,14 L135.352571,3.04 L142.264571,3.04 L142.264571,4.592 L137.128571,4.592 L137.128571,7.696 L141.304571,7.696 L141.304571,9.232 L137.128571,9.232 L137.128571,12.432 L142.264571,12.432 L142.264571,14 L135.352571,14 Z M149.663429,14 L149.663429,3.04 L152.767429,3.04 L156.095429,12.432 L156.335429,12.432 L156.335429,3.04 L158.111429,3.04 L158.111429,14 L155.071429,14 L151.663429,4.592 L151.439429,4.592 L151.439429,14 L149.663429,14 Z M165.594857,12.624 C166.618862,12.624 167.309522,12.3146698 167.666857,11.696 C168.024192,11.0773302 168.202857,10.0400073 168.202857,8.584 C168.202857,7.12799272 168.018859,6.06933664 167.650857,5.408 C167.282855,4.74666336 166.597529,4.416 165.594857,4.416 C164.592185,4.416 163.904192,4.74666336 163.530857,5.408 C163.157522,6.06933664 162.970857,7.12265944 162.970857,8.568 C162.970857,10.0133406 163.152189,11.0506635 163.514857,11.68 C163.877526,12.3093365 164.570852,12.624 165.594857,12.624 Z M165.594857,14.176 C163.941516,14.176 162.784194,13.7253378 162.122857,12.824 C161.461521,11.9226622 161.130857,10.5066763 161.130857,8.576 C161.130857,6.64532368 161.464187,5.21067136 162.130857,4.272 C162.797527,3.33332864 163.952182,2.864 165.594857,2.864 C167.237532,2.864 168.389521,3.330662 169.050857,4.264 C169.712194,5.197338 170.042857,6.63465696 170.042857,8.576 C170.042857,10.517343 169.71486,11.9359955 169.058857,12.832 C168.402854,13.7280045 167.248199,14.176 165.594857,14.176 Z M172.198286,3.04 L174.070286,3.04 L175.638286,12.464 L175.974286,12.464 L178.054286,3.072 L180.134286,3.072 L182.214286,12.464 L182.566286,12.464 L184.134286,3.04 L186.006286,3.04 L183.846286,14 L180.982286,14 L179.094286,5.216 L177.222286,14 L174.342286,14 L172.198286,3.04 Z" id="CHAT-ONLINE-NOW" fill="#001CB0" transform="translate(113.238286, 8.520000) rotate(0.000000) translate(-113.238286, -8.520000) "></path>
                </g>
            </g>
        </g>
    </g>
</svg>