<?xml version="1.0" encoding="UTF-8"?>
<svg width="290px" height="50px" viewBox="0 0 290 50" version="1.1" xmlns="http://www.w3.org/2000/svg" xmlns:xlink="http://www.w3.org/1999/xlink">
    <!-- Generator: Sketch 48.2 (47327) - http://www.bohemiancoding.com/sketch -->
    <title>mob-offline</title>
    <desc>Created with Sketch.</desc>
    <defs></defs>
    <g id="Page-1" stroke="none" stroke-width="1" fill="none" fill-rule="evenodd">
        <g id="mob-offline" fill-rule="nonzero">
            <rect id="Rectangle-3" fill="#FFFFFF" x="0" y="0" width="290" height="50"></rect>
            <g id="Group" transform="translate(25.000000, 16.000000)">
                <path d="M44.112,15.6 C42.511992,15.6 41.4266695,15.1573378 40.856,14.272 C40.2853305,13.3866622 40,11.9306768 40,9.904 C40,7.8773232 40.2879971,6.43467096 40.864,5.576 C41.4400029,4.71732904 42.5226587,4.288 44.112,4.288 C45.0613381,4.288 46.106661,4.421332 47.248,4.688 L47.184,6.128 C46.2239952,5.95733248 45.2640048,5.872 44.304,5.872 C43.3439952,5.872 42.693335,6.15733048 42.352,6.728 C42.010665,7.29866952 41.84,8.3706588 41.84,9.944 C41.84,11.5173412 42.0053317,12.5893305 42.336,13.16 C42.6666683,13.7306695 43.3119952,14.016 44.272,14.016 C45.2320048,14.016 46.2026618,13.9360008 47.184,13.776 L47.232,15.248 C46.1333278,15.4826678 45.0933382,15.6 44.112,15.6 Z M49.1634286,15.424 L51.8674286,4.464 L55.4034286,4.464 L58.1234286,15.424 L56.3314286,15.424 L55.7394286,13.072 L51.5314286,13.072 L50.9394286,15.424 L49.1634286,15.424 Z M53.2434286,5.952 L51.8834286,11.504 L55.3874286,11.504 L54.0434286,5.952 L53.2434286,5.952 Z M66.8068571,15.424 L60.6628571,15.424 L60.6628571,4.464 L62.4388571,4.464 L62.4388571,13.84 L66.8068571,13.84 L66.8068571,15.424 Z M75.3782857,15.424 L69.2342857,15.424 L69.2342857,4.464 L71.0102857,4.464 L71.0102857,13.84 L75.3782857,13.84 L75.3782857,15.424 Z M83.9931429,11.92 C83.9931429,13.3386738 84.7398021,14.048 86.2331429,14.048 C87.7264837,14.048 88.4731429,13.3386738 88.4731429,11.92 L88.4731429,4.464 L90.2651429,4.464 L90.2651429,11.888 C90.2651429,13.1786731 89.9264796,14.119997 89.2491429,14.712 C88.5718061,15.304003 87.5638162,15.6 86.2251429,15.6 C84.8864695,15.6 83.8811462,15.304003 83.2091429,14.712 C82.5371395,14.119997 82.2011429,13.1786731 82.2011429,11.888 L82.2011429,4.464 L83.9931429,4.464 L83.9931429,11.92 Z M96.8845714,5.84 C95.529898,5.84 94.8525714,6.31466192 94.8525714,7.264 C94.8525714,7.75466912 95.0125698,8.10399896 95.3325714,8.312 C95.652573,8.52000104 96.3592326,8.77599848 97.4525714,9.08 C98.5459102,9.38400152 99.3165692,9.74666456 99.7645714,10.168 C100.212574,10.5893354 100.436571,11.2533288 100.436571,12.16 C100.436571,13.3120058 100.108575,14.1733305 99.4525714,14.744 C98.7965682,15.3146695 97.9032438,15.6 96.7725714,15.6 C95.8659002,15.6 94.8632436,15.4933344 93.7645714,15.28 L93.1885714,15.168 L93.3645714,13.744 C94.8045786,13.936001 95.9032343,14.032 96.6605714,14.032 C97.9832447,14.032 98.6445714,13.4453392 98.6445714,12.272 C98.6445714,11.813331 98.4952396,11.4746678 98.1965714,11.256 C97.8979033,11.0373322 97.22591,10.7973346 96.1805714,10.536 C95.1352329,10.2746654 94.356574,9.91466896 93.8445714,9.456 C93.3325689,8.99733104 93.0765714,8.27200496 93.0765714,7.28 C93.0765714,6.28799504 93.3992349,5.5386692 94.0445714,5.032 C94.689908,4.5253308 95.5832324,4.272 96.7245714,4.272 C97.5459089,4.272 98.5165658,4.36799904 99.6365714,4.56 L100.196571,4.656 L100.052571,6.096 C98.5592306,5.92533248 97.5032412,5.84 96.8845714,5.84 Z M114.427429,15.424 L107.627429,15.424 L107.627429,13.904 L110.235429,11.216 C111.024766,10.4053293 111.579427,9.77066896 111.899429,9.312 C112.21943,8.85333104 112.379429,8.34933608 112.379429,7.8 C112.379429,7.25066392 112.224763,6.85866784 111.915429,6.624 C111.606094,6.38933216 111.099432,6.272 110.395429,6.272 C109.734092,6.272 109.003433,6.34666592 108.203429,6.496 L107.803429,6.56 L107.691429,5.152 C108.7261,4.84266512 109.79809,4.688 110.907429,4.688 C113.11544,4.688 114.219429,5.66932352 114.219429,7.632 C114.219429,8.40000384 114.05143,9.06666384 113.715429,9.632 C113.379427,10.1973362 112.779433,10.879996 111.915429,11.68 L109.659429,13.872 L114.427429,13.872 L114.427429,15.424 Z M121.878857,15.424 L121.878857,13.536 L117.126857,13.536 L117.126857,12.176 L119.910857,4.864 L121.878857,4.864 L118.934857,11.984 L121.878857,11.984 L121.878857,8.88 L123.670857,8.88 L123.670857,11.984 L124.822857,11.984 L124.822857,13.536 L123.670857,13.536 L123.670857,15.424 L121.878857,15.424 Z M126.930286,15.28 L131.490286,4 L133.026286,4.56 L128.450286,15.824 L126.930286,15.28 Z M135.645714,6.464 L135.645714,4.864 L142.301714,4.864 L142.301714,6.976 L138.413714,15.6 L136.749714,15.12 L140.509714,6.944 L140.509714,6.464 L135.645714,6.464 Z M154.148571,14.048 C155.172577,14.048 155.863236,13.7386698 156.220571,13.12 C156.577907,12.5013302 156.756571,11.4640073 156.756571,10.008 C156.756571,8.55199272 156.572573,7.49333664 156.204571,6.832 C155.83657,6.17066336 155.151243,5.84 154.148571,5.84 C153.1459,5.84 152.457907,6.17066336 152.084571,6.832 C151.711236,7.49333664 151.524571,8.54665944 151.524571,9.992 C151.524571,11.4373406 151.705903,12.4746635 152.068571,13.104 C152.43124,13.7333365 153.124566,14.048 154.148571,14.048 Z M154.148571,15.6 C152.49523,15.6 151.337908,15.1493378 150.676571,14.248 C150.015235,13.3466622 149.684571,11.9306763 149.684571,10 C149.684571,8.06932368 150.017901,6.63467136 150.684571,5.696 C151.351241,4.75732864 152.505897,4.288 154.148571,4.288 C155.791246,4.288 156.943235,4.754662 157.604571,5.688 C158.265908,6.621338 158.596571,8.05865696 158.596571,10 C158.596571,11.941343 158.268575,13.3599955 157.612571,14.256 C156.956568,15.1520045 155.801913,15.6 154.148571,15.6 Z M161.632,15.424 L161.632,4.464 L164.736,4.464 L168.064,13.856 L168.304,13.856 L168.304,4.464 L170.08,4.464 L170.08,15.424 L167.04,15.424 L163.632,6.016 L163.408,6.016 L163.408,15.424 L161.632,15.424 Z M183.286857,4.864 L183.286857,15.424 L181.510857,15.424 L181.510857,6.88 L179.030857,8.48 L178.214857,7.152 L181.654857,4.864 L183.286857,4.864 Z M187.794286,5.2 C188.786291,4.85866496 189.87428,4.688 191.058286,4.688 C192.242292,4.688 193.103616,4.9146644 193.642286,5.368 C194.180955,5.8213356 194.450286,6.53866176 194.450286,7.52 C194.450286,7.9466688 194.36762,8.33066496 194.202286,8.672 C194.036952,9.01333504 193.868953,9.26133256 193.698286,9.416 C193.527618,9.57066744 193.314287,9.73333248 193.058286,9.904 C193.623622,10.170668 194.031618,10.4613318 194.282286,10.776 C194.532954,11.0906682 194.658286,11.5999965 194.658286,12.304 C194.658286,13.4240056 194.378289,14.2533306 193.818286,14.792 C193.258283,15.3306694 192.364959,15.6 191.138286,15.6 C190.658283,15.6 190.130289,15.5600004 189.554286,15.48 C188.978283,15.3999996 188.519621,15.3173338 188.178286,15.232 L187.682286,15.104 L187.794286,13.728 C188.967625,13.9413344 190.002281,14.048 190.898286,14.048 C192.178292,14.0373333 192.818286,13.4720056 192.818286,12.352 C192.818286,11.8399974 192.652954,11.450668 192.322286,11.184 C191.991617,10.917332 191.554288,10.7786667 191.010286,10.768 L188.882286,10.768 L188.882286,9.28 L191.010286,9.28 C191.404954,9.28 191.770284,9.11733496 192.106286,8.792 C192.442287,8.46666504 192.610286,8.07200232 192.610286,7.608 C192.610286,7.14399768 192.463621,6.80000112 192.170286,6.576 C191.876951,6.35199888 191.474288,6.24 190.962286,6.24 C190.119615,6.24 189.25029,6.31466592 188.354286,6.464 L187.938286,6.544 L187.794286,5.2 Z M203.149714,4.864 L203.149714,15.424 L201.373714,15.424 L201.373714,6.88 L198.893714,8.48 L198.077714,7.152 L201.517714,4.864 L203.149714,4.864 Z M218.964571,15.424 L212.164571,15.424 L212.164571,13.904 L214.772571,11.216 C215.561909,10.4053293 216.11657,9.77066896 216.436571,9.312 C216.756573,8.85333104 216.916571,8.34933608 216.916571,7.8 C216.916571,7.25066392 216.761906,6.85866784 216.452571,6.624 C216.143237,6.38933216 215.636575,6.272 214.932571,6.272 C214.271235,6.272 213.540575,6.34666592 212.740571,6.496 L212.340571,6.56 L212.228571,5.152 C213.263243,4.84266512 214.335233,4.688 215.444571,4.688 C217.652583,4.688 218.756571,5.66932352 218.756571,7.632 C218.756571,8.40000384 218.588573,9.06666384 218.252571,9.632 C217.91657,10.1973362 217.316576,10.879996 216.452571,11.68 L214.196571,13.872 L218.964571,13.872 L218.964571,15.424 Z M226.416,15.424 L226.416,13.536 L221.664,13.536 L221.664,12.176 L224.448,4.864 L226.416,4.864 L223.472,11.984 L226.416,11.984 L226.416,8.88 L228.208,8.88 L228.208,11.984 L229.36,11.984 L229.36,13.536 L228.208,13.536 L228.208,15.424 L226.416,15.424 Z M238.699429,4.864 L238.699429,6.432 L233.803429,6.432 L233.531429,9.216 C234.256766,8.88533168 234.971425,8.72 235.675429,8.72 C237.936773,8.72 239.067429,9.77598944 239.067429,11.888 C239.067429,13.0826726 238.755432,13.9999968 238.131429,14.64 C237.507425,15.2800032 236.624768,15.6 235.483429,15.6 C235.003426,15.6 234.459432,15.5546671 233.851429,15.464 C233.243426,15.3733329 232.758097,15.2853338 232.395429,15.2 L231.851429,15.056 L232.043429,13.712 C233.302102,13.9253344 234.379424,14.032 235.275429,14.032 C235.894098,14.032 236.374094,13.861335 236.715429,13.52 C237.056764,13.178665 237.227429,12.6933365 237.227429,12.064 C237.227429,11.4346635 237.078097,10.9813347 236.779429,10.704 C236.48076,10.4266653 236.091431,10.288 235.611429,10.288 C234.747424,10.288 234.043431,10.3946656 233.499429,10.608 L233.211429,10.72 L232.091429,10.48 L232.379429,4.864 L238.699429,4.864 Z" id="call-us-24/7-on-131" fill="#001CB0" transform="translate(139.533715, 9.912000) rotate(0.000000) translate(-139.533715, -9.912000) "></path>
                <g id="Icon">
                    <g id="Group-5" transform="translate(0.000000, 0.020457)">
                        <path d="M1.54564103,3.93616505 L11.9446154,3.93616505 L11.9446154,2.66235707 L1.54564103,2.66235707 L1.54564103,3.93616505 Z M5.82102564,6.32279755 L4.35641026,6.32279755 L4.35641026,5.04969256 L11.9446154,5.04969256 L11.9446154,5.05742539 L13.6307692,5.05742539 L13.6307692,0.897865876 C13.6307692,0.489431859 13.3892308,0.158326142 13.0912821,0.158326142 L0.539487179,0.158326142 C0.241538462,0.158326142 0,0.489431859 0,0.897865876 L0,8.8577598 C0,9.26619382 0.241538462,9.59729953 0.539487179,9.59729953 L1.83076923,9.59729953 L3.79435897,12.2883243 L3.90666667,9.59729953 L5.82102564,9.59729953 L5.82102564,6.32279755 Z" id="Fill-2" fill="#00DFED"></path>
                        <path d="M19.3558974,5.62332794 L6.80410256,5.62332794 C6.50615385,5.62332794 6.26461538,5.95373067 6.26461538,6.36216469 L6.26461538,14.3227616 C6.26461538,14.7311956 6.50615385,15.0615983 6.80410256,15.0615983 L15.9892308,15.0615983 L16.1010256,17.7533261 L18.0646154,15.0615983 L19.3558974,15.0615983 C19.6538462,15.0615983 19.8953846,14.7311956 19.8953846,14.3227616 L19.8953846,6.36216469 C19.8953846,5.95373067 19.6538462,5.62332794 19.3558974,5.62332794 Z" id="Path" fill="#001CB0"></path>
                        <polygon id="Path" fill="#FFFFFF" points="7.95076923 11.7870964 15.5389744 11.7870964 15.5389744 10.5139914 7.95076923 10.5139914"></polygon>
                        <polygon id="Path" fill="#FFFFFF" points="7.95076923 9.40046386 18.3497436 9.40046386 18.3497436 8.12735886 7.95076923 8.12735886"></polygon>
                    </g>
                </g>
            </g>
        </g>
    </g>
</svg>