<?xml version="1.0" encoding="UTF-8"?>
<svg width="188px" height="115px" viewBox="0 0 188 115" version="1.1" xmlns="http://www.w3.org/2000/svg" xmlns:xlink="http://www.w3.org/1999/xlink">
    <!-- Generator: Sketch 48.2 (47327) - http://www.bohemiancoding.com/sketch -->
    <title>Group 2</title>
    <desc>Created with Sketch.</desc>
    <defs>
        <filter x="-2.2%" y="-1.8%" width="104.3%" height="107.2%" filterUnits="objectBoundingBox" id="filter-1">
            <feOffset dx="0" dy="2" in="SourceAlpha" result="shadowOffsetOuter1"></feOffset>
            <feGaussianBlur stdDeviation="1" in="shadowOffsetOuter1" result="shadowBlurOuter1"></feGaussianBlur>
            <feColorMatrix values="0 0 0 0 0   0 0 0 0 0   0 0 0 0 0  0 0 0 0.24 0" type="matrix" in="shadowBlurOuter1" result="shadowMatrixOuter1"></feColorMatrix>
            <feMerge>
                <feMergeNode in="shadowMatrixOuter1"></feMergeNode>
                <feMergeNode in="SourceGraphic"></feMergeNode>
            </feMerge>
        </filter>
    </defs>
    <g id="Page-1" stroke="none" stroke-width="1" fill="none" fill-rule="evenodd">
        <g id="Chat-CTA-/-Default" filter="url(#filter-1)" transform="translate(2.000000, 0.000000)">
            <g id="Group">
                <g id="Group-32">
                    <g id="Group-31">
                        <g id="Group-2">
                            <path d="M37,-32.0075956 C37,-34.2125397 38.7948686,-36 40.996266,-36 L147,-36 L147,147 L40.996266,147 C38.7891892,147 37,145.218242 37,143.007596 L37,-32.0075956 Z" id="Rectangle" fill="#FFFFFF" transform="translate(92.000000, 55.500000) rotate(-270.000000) translate(-92.000000, -55.500000) "></path>
                            <path d="M13.598,89.15 C12.197993,89.15 11.2483358,88.7626705 10.749,87.988 C10.2496642,87.2133295 10,85.9393422 10,84.166 C10,82.3926578 10.2519975,81.1303371 10.756,80.379 C11.2600025,79.6276629 12.2073264,79.252 13.598,79.252 C14.4286708,79.252 15.3433283,79.3686655 16.342,79.602 L16.286,80.862 C15.4459958,80.7126659 14.6060042,80.638 13.766,80.638 C12.9259958,80.638 12.3566682,80.8876642 12.058,81.387 C11.7593318,81.8863358 11.61,82.8243265 11.61,84.201 C11.61,85.5776736 11.7546652,86.5156642 12.044,87.015 C12.3333348,87.5143358 12.8979958,87.764 13.738,87.764 C14.5780042,87.764 15.427329,87.6940007 16.286,87.554 L16.328,88.842 C15.3666619,89.0473344 14.456671,89.15 13.598,89.15 Z M17.568,88.996 L19.934,79.406 L23.028,79.406 L25.408,88.996 L23.84,88.996 L23.322,86.938 L19.64,86.938 L19.122,88.996 L17.568,88.996 Z M21.138,80.708 L19.948,85.566 L23.014,85.566 L21.838,80.708 L21.138,80.708 Z M32.556,88.996 L27.18,88.996 L27.18,79.406 L28.734,79.406 L28.734,87.61 L32.556,87.61 L32.556,88.996 Z M39.606,88.996 L34.23,88.996 L34.23,79.406 L35.784,79.406 L35.784,87.61 L39.606,87.61 L39.606,88.996 Z M46.244,85.93 C46.244,87.1713395 46.8973268,87.792 48.204,87.792 C49.5106732,87.792 50.164,87.1713395 50.164,85.93 L50.164,79.406 L51.732,79.406 L51.732,85.902 C51.732,87.031339 51.4356697,87.8549974 50.843,88.373 C50.2503304,88.8910026 49.3683392,89.15 48.197,89.15 C47.0256608,89.15 46.146003,88.8910026 45.558,88.373 C44.9699971,87.8549974 44.676,87.031339 44.676,85.902 L44.676,79.406 L46.244,79.406 L46.244,85.93 Z M57.074,80.61 C55.8886608,80.61 55.296,81.0253292 55.296,81.856 C55.296,82.2853355 55.4359986,82.5909991 55.716,82.773 C55.9960014,82.9550009 56.6143286,83.1789987 57.571,83.445 C58.5276715,83.7110013 59.2019981,84.0283315 59.594,84.397 C59.986002,84.7656685 60.182,85.3466627 60.182,86.14 C60.182,87.148005 59.8950029,87.9016642 59.321,88.401 C58.7469972,88.9003358 57.9653383,89.15 56.976,89.15 C56.1826627,89.15 55.3053382,89.0566676 54.344,88.87 L53.84,88.772 L53.994,87.526 C55.2540063,87.6940008 56.2153301,87.778 56.878,87.778 C58.0353392,87.778 58.614,87.2646718 58.614,86.238 C58.614,85.8366647 58.4833347,85.5403343 58.222,85.349 C57.9606654,85.1576657 57.3726713,84.9476678 56.458,84.719 C55.5433288,84.4903322 54.8620023,84.1753353 54.414,83.774 C53.9659978,83.3726647 53.742,82.7380043 53.742,81.87 C53.742,81.0019957 54.0243305,80.3463356 54.589,79.903 C55.1536695,79.4596645 55.9353284,79.238 56.934,79.238 C57.6526703,79.238 58.5019951,79.3219992 59.482,79.49 L59.972,79.574 L59.846,80.834 C58.5393268,80.6846659 57.6153361,80.61 57.074,80.61 Z M71.524,88.996 L65.574,88.996 L65.574,87.666 L67.856,85.314 C68.5466702,84.6046631 69.0319986,84.0493353 69.312,83.648 C69.5920014,83.2466647 69.732,82.8056691 69.732,82.325 C69.732,81.8443309 69.5966681,81.5013344 69.326,81.296 C69.055332,81.0906656 68.6120031,80.988 67.996,80.988 C67.4173305,80.988 66.7780035,81.0533327 66.078,81.184 L65.728,81.24 L65.63,80.008 C66.5353379,79.737332 67.4733285,79.602 68.444,79.602 C70.3760097,79.602 71.342,80.4606581 71.342,82.178 C71.342,82.8500034 71.1950015,83.4333309 70.901,83.928 C70.6069986,84.4226691 70.0820038,85.0199965 69.326,85.72 L67.352,87.638 L71.524,87.638 L71.524,88.996 Z M77.5940001,88.996 L77.5940001,87.344 L73.4360001,87.344 L73.4360001,86.154 L75.8720001,79.756 L77.5940001,79.756 L75.0180001,85.986 L77.5940001,85.986 L77.5940001,83.27 L79.1620001,83.27 L79.1620001,85.986 L80.1700001,85.986 L80.1700001,87.344 L79.1620001,87.344 L79.1620001,88.996 L77.5940001,88.996 Z M81.5640001,88.87 L85.5540001,79 L86.8980001,79.49 L82.8940001,89.346 L81.5640001,88.87 Z M88.7400001,81.156 L88.7400001,79.756 L94.5640001,79.756 L94.5640001,81.604 L91.1620001,89.15 L89.7060001,88.73 L92.9960001,81.576 L92.9960001,81.156 L88.7400001,81.156 Z M104.03,87.792 C104.926005,87.792 105.530332,87.521336 105.843,86.98 C106.155668,86.438664 106.312,85.5310064 106.312,84.257 C106.312,82.9829936 106.151002,82.0566696 105.829,81.478 C105.506998,80.8993304 104.907338,80.61 104.03,80.61 C103.152662,80.61 102.550668,80.8993304 102.224,81.478 C101.897332,82.0566696 101.734,82.978327 101.734,84.243 C101.734,85.507673 101.892665,86.4153306 102.21,86.966 C102.527335,87.5166694 103.133996,87.792 104.03,87.792 Z M104.03,89.15 C102.583326,89.15 101.57067,88.7556706 100.992,87.967 C100.413331,87.1783294 100.124,85.9393418 100.124,84.25 C100.124,82.5606582 100.415664,81.3053374 100.999,80.484 C101.582336,79.6626626 102.59266,79.252 104.03,79.252 C105.467341,79.252 106.475331,79.6603292 107.054,80.477 C107.63267,81.2936708 107.922,82.5513248 107.922,84.25 C107.922,85.9486752 107.635003,87.1899961 107.061,87.974 C106.486997,88.7580039 105.476674,89.15 104.03,89.15 Z M110.128,88.996 L110.128,79.406 L112.844,79.406 L115.756,87.624 L115.966,87.624 L115.966,79.406 L117.52,79.406 L117.52,88.996 L114.86,88.996 L111.878,80.764 L111.682,80.764 L111.682,88.996 L110.128,88.996 Z M128.176,79.756 L128.176,88.996 L126.622,88.996 L126.622,81.52 L124.452,82.92 L123.738,81.758 L126.748,79.756 L128.176,79.756 Z M131.67,80.05 C132.538004,79.7513318 133.489995,79.602 134.526,79.602 C135.562005,79.602 136.315664,79.8003313 136.787,80.197 C137.258336,80.5936687 137.494,81.221329 137.494,82.08 C137.494,82.4533352 137.421667,82.7893318 137.277,83.088 C137.132333,83.3866682 136.985334,83.603666 136.836,83.739 C136.686666,83.874334 136.500001,84.0166659 136.276,84.166 C136.770669,84.3993345 137.127666,84.6536653 137.347,84.929 C137.566335,85.2043347 137.676,85.6499969 137.676,86.266 C137.676,87.2460049 137.431003,87.9716643 136.941,88.443 C136.450998,88.9143357 135.669339,89.15 134.596,89.15 C134.175998,89.15 133.714003,89.1150004 133.21,89.045 C132.705998,88.9749997 132.304668,88.902667 132.006,88.828 L131.572,88.716 L131.67,87.512 C132.696672,87.6986676 133.601996,87.792 134.386,87.792 C135.506006,87.7826666 136.066,87.2880049 136.066,86.308 C136.066,85.8599978 135.921335,85.5193345 135.632,85.286 C135.342665,85.0526655 134.960002,84.9313334 134.484,84.922 L132.622,84.922 L132.622,83.62 L134.484,83.62 C134.829335,83.62 135.148999,83.4776681 135.443,83.193 C135.737002,82.9083319 135.884,82.563002 135.884,82.157 C135.884,81.750998 135.755668,81.450001 135.499,81.254 C135.242332,81.057999 134.890002,80.96 134.442,80.96 C133.704663,80.96 132.944004,81.0253327 132.16,81.156 L131.796,81.226 L131.67,80.05 Z M144.656,79.756 L144.656,88.996 L143.102,88.996 L143.102,81.52 L140.932,82.92 L140.218,81.758 L143.228,79.756 L144.656,79.756 Z M157.594,88.996 L151.644,88.996 L151.644,87.666 L153.926,85.314 C154.61667,84.6046631 155.101999,84.0493353 155.382,83.648 C155.662002,83.2466647 155.802,82.8056691 155.802,82.325 C155.802,81.8443309 155.666668,81.5013344 155.396,81.296 C155.125332,81.0906656 154.682003,80.988 154.066,80.988 C153.487331,80.988 152.848004,81.0533327 152.148,81.184 L151.798,81.24 L151.7,80.008 C152.605338,79.737332 153.543329,79.602 154.514,79.602 C156.44601,79.602 157.412,80.4606581 157.412,82.178 C157.412,82.8500034 157.265002,83.4333309 156.971,83.928 C156.676999,84.4226691 156.152004,85.0199965 155.396,85.72 L153.422,87.638 L157.594,87.638 L157.594,88.996 Z M163.664,88.996 L163.664,87.344 L159.506,87.344 L159.506,86.154 L161.942,79.756 L163.664,79.756 L161.088,85.986 L163.664,85.986 L163.664,83.27 L165.232,83.27 L165.232,85.986 L166.24,85.986 L166.24,87.344 L165.232,87.344 L165.232,88.996 L163.664,88.996 Z M173.962,79.756 L173.962,81.128 L169.678,81.128 L169.44,83.564 C170.07467,83.2746652 170.699997,83.13 171.316,83.13 C173.294677,83.13 174.284,84.0539908 174.284,85.902 C174.284,86.9473386 174.011003,87.7499972 173.465,88.31 C172.918997,88.8700028 172.146672,89.15 171.148,89.15 C170.727998,89.15 170.252003,89.1103337 169.72,89.031 C169.187997,88.9516663 168.763335,88.874667 168.446,88.8 L167.97,88.674 L168.138,87.498 C169.239339,87.6846676 170.181996,87.778 170.966,87.778 C171.507336,87.778 171.927332,87.6286682 172.226,87.33 C172.524668,87.0313318 172.674,86.6066694 172.674,86.056 C172.674,85.5053306 172.543335,85.1086679 172.282,84.866 C172.020665,84.6233321 171.680002,84.502 171.26,84.502 C170.503996,84.502 169.888003,84.5953324 169.412,84.782 L169.16,84.88 L168.18,84.67 L168.432,79.756 L173.962,79.756 Z" id="Call-us-24/7-on-131" fill="#333333" transform="translate(92.142000, 84.173000) rotate(-360.000000) translate(-92.142000, -84.173000) "></path>
                            <g id="Group-5" transform="translate(72.000000, 25.000000)">
                                <path d="M3.09128205,7.8723301 L23.8892308,7.8723301 L23.8892308,5.32471413 L3.09128205,5.32471413 L3.09128205,7.8723301 Z M11.6420513,12.6455951 L8.71282051,12.6455951 L8.71282051,10.0993851 L23.8892308,10.0993851 L23.8892308,10.1148508 L27.2615385,10.1148508 L27.2615385,1.79573175 C27.2615385,0.978863718 26.7784615,0.316652283 26.1825641,0.316652283 L1.07897436,0.316652283 C0.483076923,0.316652283 0,0.978863718 0,1.79573175 L0,17.7155196 C0,18.5323876 0.483076923,19.1945991 1.07897436,19.1945991 L3.66153846,19.1945991 L7.58871795,24.5766487 L7.81333333,19.1945991 L11.6420513,19.1945991 L11.6420513,12.6455951 Z" id="Fill-2" fill="#00DFED"></path>
                                <path d="M38.7117949,11.2466559 L13.6082051,11.2466559 C13.0123077,11.2466559 12.5292308,11.9074613 12.5292308,12.7243294 L12.5292308,28.6455232 C12.5292308,29.4623912 13.0123077,30.1231967 13.6082051,30.1231967 L31.9784615,30.1231967 L32.2020513,35.5066523 L36.1292308,30.1231967 L38.7117949,30.1231967 C39.3076923,30.1231967 39.7907692,29.4623912 39.7907692,28.6455232 L39.7907692,12.7243294 C39.7907692,11.9074613 39.3076923,11.2466559 38.7117949,11.2466559 L38.7117949,11.2466559 Z" id="Path" fill="#001CB0"></path>
                                <polygon id="Path" fill="#FFFFFF" points="15.9015385 23.5741927 31.0779487 23.5741927 31.0779487 21.0279827 15.9015385 21.0279827"></polygon>
                                <polygon id="Path" fill="#FFFFFF" points="15.9015385 18.8009277 36.6994872 18.8009277 36.6994872 16.2547177 15.9015385 16.2547177"></polygon>
                            </g>
                        </g>
                    </g>
                </g>
            </g>
        </g>
    </g>
</svg>