<svg xmlns="http://www.w3.org/2000/svg" width="151" height="60" viewBox="0 0 151 60" xmlns:xlink="http://www.w3.org/1999/xlink">
  <defs>
    <polygon id="a" points="0 .343 150.57 .343 150.57 60 0 60"/>
    <polyline id="c" points="0 0 150.57 0 150.57 59.657 0 59.657"/>
  </defs>
  <g fill="none" fill-rule="evenodd">
    <path fill="#0057BF" d="M56.0216761,17.117157 L46.6315162,17.117157 L46.6315162,3.58244628 L49.8263258,3.58244628 L49.8263258,14.4141818 L56.0216761,14.4141818 L56.0216761,17.117157 Z M38.9502309,14.3978182 C38.9502309,14.3978182 41.7930826,14.3933554 41.9918004,14.3933554 L41.9918004,12.0498843 L38.9660493,12.0498843 L38.9660493,9.63947107 L44.9043516,9.63947107 L44.9043516,17.117157 L38.5053402,17.117157 C33.6110481,17.117157 32.1364826,12.2055868 32.1364826,10.3688926 C32.1364826,6.06773554 34.861191,3.18773554 39.0332772,3.18773554 C41.469301,3.18773554 44.2142767,4.48343802 44.9043516,7.30790083 L41.5706372,7.30790083 C41.0842234,6.4252562 40.1860385,5.90955372 39.0332772,5.90955372 C35.6209655,5.90955372 35.2690075,9.09798347 35.2690075,10.3688926 C35.2690075,11.9636033 36.4034788,14.3978182 38.9502309,14.3978182 L38.9502309,14.3978182 Z M29.6248274,17.1221157 L28.5778512,14.0933554 L23.4013007,14.0933554 L22.3177447,17.1221157 L19.2366293,17.1221157 L24.4893056,3.52244628 L27.6079895,3.52244628 L32.7820684,17.1221157 L29.6248274,17.1221157 Z M18.3265807,13.8409587 C18.3127396,15.2735207 17.8846559,17.124595 15.3957396,17.124595 L3.06534641,17.124595 L3.06534641,13.8032727 C3.06534641,13.8032727 14.4837136,16.2231074 15.6453727,16.4601322 C16.8010999,16.6991405 18.0349301,16.123438 17.6162385,14.0844298 C17.1970526,12.0335207 15.4649448,3.52244628 15.4649448,3.52244628 L18.3265807,3.52244628 L18.3265807,13.8409587 Z M3.06534641,7.4606281 L16.525762,16.0049256 C16.2963961,16.0862479 15.5974233,15.861124 15.3398811,15.7515372 L3.06534641,10.8280661 L3.06534641,7.4606281 Z M6.41092454,3.52244628 L17.081381,15.6498843 C17.0299714,15.7237686 16.923692,15.8328595 16.8495435,15.8819504 L3.06534641,3.52244628 L6.41092454,3.52244628 Z M12.6314853,3.52244628 L17.1832116,14.818314 C17.2385757,14.9596364 17.2667521,15.1807934 17.2153426,15.3543471 L9.68680312,3.52244628 L12.6314853,3.52244628 Z M4.94323012e-05,0.342942149 L4.94323012e-05,59.9769917 L46.4649293,59.9769917 C54.3711315,59.9769917 58.8744141,57.0945124 58.8744141,47.8470744 L58.8744141,0.342942149 L4.94323012e-05,0.342942149 Z"/>
    <polygon fill="#0057BF" points="26.004 6.876 24.193 11.864 27.782 11.864 26.043 6.876"/>
    <path fill="#0057BF" d="M68.8617657 18.9131901L68.8617657 24.4227769 74.1307546 24.4227769C74.3793991 24.4227769 74.5781169 24.6226116 74.5781169 24.8720331L74.5781169 25.7690579C74.5781169 26.0184793 74.3793991 26.218314 74.1307546 26.218314L68.8617657 26.218314 68.8617657 32.9998017 75.2751124 32.9998017C75.5237569 32.9998017 75.7214861 33.1991405 75.7214861 33.4480661L75.7214861 34.3460826C75.7214861 34.5950083 75.5237569 34.7943471 75.2751124 34.7943471L67.3214552 34.7943471C67.073305 34.7943471 66.8740928 34.5950083 66.8740928 34.3460826L66.8740928 17.5669091C66.8740928 17.3174876 67.073305 17.1181488 67.3214552 17.1181488L75.1747648 17.1181488C75.4234093 17.1181488 75.6226215 17.3174876 75.6226215 17.5669091L75.6226215 18.4639339C75.6226215 18.7133554 75.4234093 18.9131901 75.1747648 18.9131901L68.8617657 18.9131901zM79.8467104 34.3461322C79.8467104 34.5950579 79.6474983 34.7943967 79.3988538 34.7943967L78.4542025 34.7943967C78.205558 34.7943967 78.0078288 34.5950579 78.0078288 34.3461322L78.0078288 21.9048099C78.0078288 21.6553884 78.205558 21.4560496 78.4542025 21.4560496L79.3988538 21.4560496C79.6474983 21.4560496 79.8467104 21.6553884 79.8467104 21.9048099L79.8467104 23.0770413C80.3929374 21.9801818 81.4868742 21.0573719 83.1270379 21.0573719 84.816634 21.0573719 86.556651 22.5286116 86.556651 25.2459669L86.556651 34.3461322C86.556651 34.5950579 86.3579331 34.7943967 86.1087943 34.7943967L85.1394269 34.7943967C84.8922654 34.7943967 84.6925589 34.5950579 84.6925589 34.3461322L84.6925589 25.8191901C84.6925589 24.4481157 84.319345 22.7527438 82.3316722 22.7527438 80.268368 22.7527438 79.8467104 24.7476198 79.8467104 25.8191901L79.8467104 34.3461322zM96.0975794 26.9664793L96.0975794 25.370281C96.0975794 23.9496198 94.9042836 22.752595 93.4638264 22.752595 91.9709709 22.752595 90.8285904 23.9496198 90.8285904 25.370281L90.8285904 26.9664793 96.0975794 26.9664793zM90.8285904 28.5120992L90.8285904 30.8803636C90.8285904 32.3015207 91.9709709 33.4980496 93.4638264 33.4980496 94.8301352 33.4980496 96.0481471 32.4006942 96.0481471 31.0797025L96.0481471 30.8803636C96.0481471 30.631438 96.2473592 30.4316033 96.4955094 30.4316033L97.4648768 30.4316033C97.7140156 30.4316033 97.9127335 30.631438 97.9127335 30.8803636L97.9127335 31.0797025C97.9127335 33.2734215 95.9487881 35.1681322 93.4638264 35.1681322 90.9027389 35.1681322 89.0149193 33.1494545 89.0149193 30.8803636L89.0149193 25.370281C89.0149193 23.101686 90.9027389 21.0825124 93.4638264 21.0825124 96.0244196 21.0825124 97.9127335 23.101686 97.9127335 25.370281L97.9127335 28.0633388C97.9127335 28.3122645 97.7140156 28.5120992 97.4648768 28.5120992L90.8285904 28.5120992zM108.051101 25.1711405C108.051101 25.420562 107.852383 25.6199008 107.603244 25.6199008L106.659087 25.6199008C106.410937 25.6199008 106.212713 25.420562 106.212713 25.1711405L106.212713 24.921719C106.212713 23.650314 105.763868 22.7522975 104.27299 22.7522975 102.781617 22.7522975 102.110327 23.7747769 102.110327 24.921719L102.110327 34.3461818C102.110327 34.5951074 101.912598 34.7944463 101.664447 34.7944463L100.718313 34.7944463C100.470163 34.7944463 100.271445 34.5951074 100.271445 34.3461818L100.271445 21.9048595C100.271445 21.655438 100.470163 21.4560992 100.718313 21.4560992L101.664447 21.4560992C101.912598 21.4560992 102.110327 21.655438 102.110327 21.9048595L102.110327 22.9020496C102.880976 21.7803967 103.900765 21.0574215 105.366927 21.0574215 106.932942 21.0574215 108.051101 22.4284959 108.051101 23.999405L108.051101 25.1711405zM116.301105 25.8192893C116.301105 24.7472231 115.878458 22.7523471 113.815154 22.7523471 111.827976 22.7523471 111.453279 24.4482149 111.453279 25.8192893L111.453279 30.0078843C111.453279 31.3789587 111.827976 33.0743306 113.815154 33.0743306 115.878458 33.0743306 116.301105 31.0799504 116.301105 30.0078843L116.301105 25.8192893zM116.301105 32.7505289C115.754878 33.8473884 114.661929 34.7701983 113.019294 34.7701983 111.330687 34.7701983 109.590175 33.2989587 109.590175 30.5816033L109.590175 25.2455702C109.590175 22.5287107 111.330687 21.0574711 113.019294 21.0574711 114.661929 21.0574711 115.754878 21.9797851 116.301105 23.0771405L116.301105 21.9049091C116.301105 21.6554876 116.499822 21.4561488 116.747973 21.4561488L117.693118 21.4561488C117.941268 21.4561488 118.14048 21.6554876 118.14048 21.9049091L118.14048 36.3901983C118.14048 37.6120165 117.766772 38.7336694 117.021333 39.5320165 116.276883 40.3298678 115.182946 40.7781322 113.965428 40.7781322 111.628269 40.7781322 109.739955 38.9592893 109.739955 36.5895372L109.739955 36.4159835C109.739955 36.166562 109.938673 35.9667273 110.186823 35.9667273L111.081548 35.9667273C111.330687 35.9667273 111.529899 36.166562 111.529899 36.4159835L111.529899 36.5895372C111.529899 38.0855702 112.374697 39.1075537 113.866069 39.1075537 114.634742 39.1075537 115.331737 38.8586281 115.730656 38.4098678 116.176535 37.8862314 116.301105 37.1389587 116.301105 36.3901983L116.301105 32.7505289zM122.139306 39.3822645C121.891156 39.3822645 121.69145 39.1829256 121.69145 38.9335041L121.69145 38.1113554C121.69145 37.8609421 121.891156 37.6616033 122.139306 37.6616033L123.257465 37.6616033C124.227821 37.6616033 124.57533 37.3373058 124.57533 36.7645785 124.57533 36.4903636 124.500687 36.166562 124.402317 35.8164793L120.226771 22.0050744C120.20156 21.9297025 120.20156 21.8806116 120.20156 21.8548264 120.20156 21.6311901 120.350351 21.4561488 120.573291 21.4561488L121.617796 21.4561488C121.865946 21.4561488 122.015726 21.5811074 122.089874 21.8548264L125.444844 33.5731736 128.501738 21.8548264C128.575886 21.5811074 128.725666 21.4561488 128.974805 21.4561488L129.993605 21.4561488C130.216544 21.4561488 130.366324 21.6311901 130.366324 21.8548264 130.366324 21.8806116 130.366324 21.9297025 130.341114 22.0050744L126.215494 37.1389587C125.668278 39.1581322 124.524909 39.3822645 123.183811 39.3822645L122.139306 39.3822645zM137.09935 21.9048595C137.09935 21.655438 137.298068 21.4560992 137.546218 21.4560992L138.491363 21.4560992C138.740502 21.4560992 138.936748 21.655438 138.936748 21.9048595L138.936748 34.3461818C138.936748 34.5951074 138.740502 34.7944463 138.491363 34.7944463L137.546218 34.7944463C137.298068 34.7944463 137.09935 34.5951074 137.09935 34.3461818L137.09935 21.9048595zM136.950558 17.5670083C136.950558 17.3175868 137.149771 17.1182479 137.397921 17.1182479L138.640154 17.1182479C138.888305 17.1182479 139.087517 17.3175868 139.087517 17.5670083L139.087517 18.7635372C139.087517 19.0129587 138.888305 19.2122975 138.640154 19.2122975L137.397921 19.2122975C137.149771 19.2122975 136.950558 19.0129587 136.950558 18.7635372L136.950558 17.5670083zM143.857684 34.3461322C143.857684 34.5950579 143.659955 34.7943967 143.410816 34.7943967L142.466165 34.7943967C142.218509 34.7943967 142.019297 34.5950579 142.019297 34.3461322L142.019297 21.9048099C142.019297 21.6553884 142.218509 21.4560496 142.466165 21.4560496L143.410816 21.4560496C143.659955 21.4560496 143.857684 21.6553884 143.857684 21.9048099L143.857684 23.0770413C144.4049 21.9801818 145.498837 21.0573719 147.138506 21.0573719 148.829091 21.0573719 150.569602 22.5286116 150.569602 25.2459669L150.569602 34.3461322C150.569602 34.5950579 150.370884 34.7943967 150.121746 34.7943967L149.152378 34.7943967C148.903239 34.7943967 148.70551 34.5950579 148.70551 34.3461322L148.70551 25.8191901C148.70551 24.4481157 148.332791 22.7527438 146.342646 22.7527438 144.281319 22.7527438 143.857684 24.7476198 143.857684 25.8191901L143.857684 34.3461322zM69.4840195 54.3154711C68.3658608 54.9139835 68.1172163 55.5625785 68.1172163 56.3599339 68.1172163 57.6814215 69.060879 58.3300165 70.2047424 58.3300165 71.6461883 58.3300165 73.3110682 57.432 73.3110682 55.7113388L73.3110682 52.3959669 69.4840195 54.3154711zM71.9684869 51.3491901C72.9383487 50.8999339 73.2863521 50.4516694 73.2863521 49.778281 73.2863521 48.5311736 72.5913339 47.5840661 70.924971 47.5840661 69.4840195 47.5840661 68.6392214 48.4815868 68.6392214 49.8779504L68.6392214 49.9776198C68.6392214 50.2265455 68.4400093 50.426876 68.1913648 50.426876L67.2467135 50.426876C66.9980691 50.426876 66.7998455 50.2265455 66.7998455 49.9776198L66.7998455 49.703405C66.7998455 47.5592727 68.56359 45.9134876 71.0994671 45.9134876 73.8577894 45.9134876 75.1499498 47.7080331 75.1499498 49.9528264L75.1499498 59.1769587C75.1499498 59.426876 74.9512319 59.6262149 74.7025875 59.6262149L73.7589248 59.6262149C73.5102804 59.6262149 73.3110682 59.426876 73.3110682 59.1769587L73.3110682 57.9804298C72.664988 59.0777851 71.2739631 59.9009256 69.7321696 59.9009256 67.9921526 59.9009256 66.202209 58.7529917 66.202209 56.5344793 66.202209 55.0632397 66.8744883 53.7665455 68.5141577 52.9939835L71.9684869 51.3491901z"/>
    <mask id="b" fill="white">
      <use xlink:href="#a"/>
    </mask>
    <path fill="#0057BF" d="M77.6092068,50.2018017 C77.6092068,47.9337025 79.4480884,45.9135372 82.0076929,45.9135372 C84.5925079,45.9135372 86.4323782,47.9337025 86.4323782,50.2018017 L86.4323782,50.3267603 C86.4323782,50.575686 86.2326717,50.7750248 85.9840272,50.7750248 L85.0156484,50.7750248 C84.7670039,50.7750248 84.5677918,50.575686 84.5677918,50.3267603 L84.5677918,50.2018017 C84.5677918,48.7811405 83.4748436,47.5841157 82.0076929,47.5841157 C80.5667413,47.5841157 79.4732988,48.7811405 79.4732988,50.2018017 L79.4732988,55.7113884 C79.4732988,57.1335372 80.5667413,58.3300661 82.0076929,58.3300661 C83.4748436,58.3300661 84.5677918,57.1335372 84.5677918,55.7113884 L84.5677918,55.4619669 C84.5677918,55.2125455 84.7670039,55.0141983 85.0156484,55.0141983 L85.9840272,55.0141983 C86.2326717,55.0141983 86.4323782,55.2125455 86.4323782,55.4619669 L86.4323782,55.7113884 C86.4323782,57.9804793 84.5925079,60.0001488 82.0076929,60.0001488 C79.4480884,60.0001488 77.6092068,57.9804793 77.6092068,55.7113884 L77.6092068,50.2018017 Z" mask="url(#b)"/>
    <path fill="#0057BF" d="M93.3894308 57.905157C93.6375809 57.905157 93.8353101 58.1049917 93.8353101 58.3549091L93.8353101 59.176562C93.8353101 59.4264793 93.6375809 59.626314 93.3894308 59.626314L91.9964285 59.626314C90.058188 59.626314 88.7655333 58.3797025 88.7655333 56.4349091L88.7655333 42.398876C88.7655333 42.1489587 88.9652398 41.949124 89.2138843 41.949124L90.1585356 41.949124C90.4061914 41.949124 90.6044149 42.1489587 90.6044149 42.398876L90.6044149 46.7357355 93.3894308 46.7357355C93.6375809 46.7357355 93.8353101 46.9360661 93.8353101 47.1849917L93.8353101 48.0076364C93.8353101 48.2570579 93.6375809 48.4559008 93.3894308 48.4559008L90.6044149 48.4559008 90.6044149 55.6122645C90.6044149 57.2327603 90.6800463 57.905157 92.594065 57.905157L93.3894308 57.905157zM95.9237754 46.7355372C95.9237754 46.4871074 96.1205159 46.2872727 96.3706434 46.2872727L97.3148003 46.2872727C97.5629505 46.2872727 97.7621627 46.4871074 97.7621627 46.7355372L97.7621627 59.1768595C97.7621627 59.4267769 97.5629505 59.6261157 97.3148003 59.6261157L96.3706434 59.6261157C96.1205159 59.6261157 95.9237754 59.4267769 95.9237754 59.1768595L95.9237754 46.7355372zM95.7730069 42.3986777C95.7730069 42.1487603 95.9732077 41.9494215 96.2213578 41.9494215L97.4635916 41.9494215C97.7117417 41.9494215 97.9114482 42.1487603 97.9114482 42.3986777L97.9114482 43.5952066C97.9114482 43.8446281 97.7117417 44.0434711 97.4635916 44.0434711L96.2213578 44.0434711C95.9732077 44.0434711 95.7730069 43.8446281 95.7730069 43.5952066L95.7730069 42.3986777z"/>
    <mask id="d" fill="white">
      <use xlink:href="#c"/>
    </mask>
    <path fill="#0057BF" d="M102.482255,50.2018017 L102.482255,55.7113884 C102.482255,57.1335372 103.626119,58.3300661 105.067565,58.3300661 C106.509011,58.3300661 107.65238,57.1335372 107.65238,55.7113884 L107.65238,50.2018017 C107.65238,48.7811405 106.509011,47.5841157 105.067565,47.5841157 C103.626119,47.5841157 102.482255,48.7811405 102.482255,50.2018017 M100.618163,55.7113884 L100.618163,50.2018017 C100.618163,47.9337025 102.507466,45.9135372 105.067565,45.9135372 C107.627169,45.9135372 109.516472,47.9337025 109.516472,50.2018017 L109.516472,55.7113884 C109.516472,57.9804793 107.627169,60.0001488 105.067565,60.0001488 C102.507466,60.0001488 100.618163,57.9804793 100.618163,55.7113884" mask="url(#d)"/>
    <path fill="#0057BF" d="M113.963698 59.1768099C113.963698 59.4267273 113.76498 59.6260661 113.51683 59.6260661L112.571685 59.6260661C112.323534 59.6260661 112.123334 59.4267273 112.123334 59.1768099L112.123334 46.7354876C112.123334 46.4870579 112.323534 46.2872231 112.571685 46.2872231L113.51683 46.2872231C113.76498 46.2872231 113.963698 46.4870579 113.963698 46.7354876L113.963698 47.9082149C114.510914 46.8113554 115.602873 45.8880496 117.24452 45.8880496 118.934116 45.8880496 120.673639 47.3597851 120.673639 50.0766446L120.673639 59.1768099C120.673639 59.4267273 120.475909 59.6260661 120.227759 59.6260661L119.257403 59.6260661C119.009253 59.6260661 118.810535 59.4267273 118.810535 59.1768099L118.810535 50.6503636C118.810535 49.2792893 118.436827 47.5839174 116.44866 47.5839174 114.386344 47.5839174 113.963698 49.5782975 113.963698 50.6503636L113.963698 59.1768099zM122.889491 57.9807273C122.889491 57.7313058 123.089197 57.5319669 123.336359 57.5319669L124.579087 57.5319669C124.828226 57.5319669 125.026944 57.7313058 125.026944 57.9807273L125.026944 59.1772562C125.026944 59.4266777 124.828226 59.6260165 124.579087 59.6260165L123.336359 59.6260165C123.089197 59.6260165 122.889491 59.4266777 122.889491 59.1772562L122.889491 57.9807273zM126.826675 44.2552562C126.826675 44.1015372 126.774277 43.978562 126.66948 43.8858347 126.564189 43.7931074 126.438137 43.7469917 126.291323 43.7469917L125.708022 43.7469917 125.708022 45.1180661 126.291323 45.1180661C126.438137 45.1180661 126.564189 45.073438 126.66948 44.9841818 126.774277 44.8944298 126.826675 44.7729421 126.826675 44.619719L126.826675 44.2552562zM126.826675 46.3269917C126.826675 46.1732727 126.793555 46.0438512 126.726327 45.9387273 126.659594 45.8331074 126.536507 45.7800496 126.358551 45.7800496L125.755971 45.7800496 125.755971 47.6792231C125.755971 47.7431901 125.73521 47.7962479 125.693687 47.837405 125.652163 47.8790579 125.599765 47.8998843 125.536492 47.8998843L125.096544 47.8998843C125.039203 47.8998843 124.987793 47.8790579 124.943304 47.837405 124.898815 47.7962479 124.876571 47.7431901 124.876571 47.6792231L124.876571 43.2868264C124.876571 43.2228595 124.898815 43.1702975 124.943304 43.1286446 124.987793 43.0869917 125.039203 43.0661653 125.096544 43.0661653L126.616588 43.0661653C126.737202 43.0661653 126.860289 43.0914545 126.984364 43.1430248 127.108933 43.1936033 127.22065 43.2640165 127.319021 43.3537686 127.417885 43.4430248 127.497471 43.5521157 127.558273 43.6800496 127.619075 43.8079835 127.649228 43.9517851 127.649228 44.1114545L127.649228 44.5621983C127.649228 44.8051736 127.586944 45.0084793 127.462374 45.171124 127.338299 45.3342645 127.193463 45.4250083 127.02737 45.4443471 127.225099 45.4830248 127.387732 45.5772397 127.515267 45.7274876 127.642308 45.8772397 127.70657 46.0810413 127.70657 46.3364132L127.70657 47.6792231C127.70657 47.7431901 127.685314 47.7962479 127.644285 47.837405 127.602762 47.8790579 127.550364 47.8998843 127.486596 47.8998843L127.046649 47.8998843C126.989307 47.8998843 126.938392 47.8790579 126.893903 47.837405 126.849414 47.7962479 126.826675 47.7431901 126.826675 47.6792231L126.826675 46.3269917zM129.379359 45.5023636C129.379359 45.0610413 129.296807 44.6484793 129.131209 44.2651736 128.965116 43.8813719 128.740694 43.547157 128.456952 43.2625289 128.173705 42.9783967 127.840531 42.7542645 127.457925 42.5916198 127.075319 42.4279835 126.667503 42.3466612 126.233982 42.3466612 125.794034 42.3466612 125.381274 42.4279835 124.996197 42.5916198 124.610625 42.7542645 124.275474 42.9783967 123.992227 43.2625289 123.707991 43.547157 123.483568 43.8813719 123.31797 44.2651736 123.151878 44.6484793 123.069326 45.0610413 123.069326 45.5023636 123.069326 45.9431901 123.151878 46.3552562 123.31797 46.7395537 123.483568 47.1228595 123.707991 47.458562 123.992227 47.7461653 124.275474 48.0337686 124.610625 48.2593884 124.996197 48.4220331 125.381274 48.5851736 125.794034 48.6664959 126.233982 48.6664959 126.667503 48.6664959 127.075319 48.5851736 127.457925 48.4220331 127.840531 48.2593884 128.173705 48.0337686 128.456952 47.7461653 128.740694 47.458562 128.965116 47.1228595 129.131209 46.7395537 129.296807 46.3552562 129.379359 45.9431901 129.379359 45.5023636L129.379359 45.5023636zM129.752573 45.5023636C129.752573 45.9947603 129.65964 46.4549256 129.475258 46.8833554 129.289886 47.3112893 129.03877 47.687157 128.719932 48.0099669 128.401588 48.3332727 128.028374 48.587157 127.601279 48.7721157 127.174184 48.9575702 126.718418 49.0507934 126.233982 49.0507934 125.743613 49.0507934 125.282904 48.9575702 124.852843 48.7721157 124.422288 48.587157 124.046108 48.3332727 123.724798 48.0099669 123.402499 47.687157 123.149406 47.3112893 122.964529 46.8833554 122.779158 46.4549256 122.687214 45.9947603 122.687214 45.5023636 122.687214 45.0159174 122.779158 44.5587273 122.964529 44.1302975 123.149406 43.7023636 123.402499 43.3264959 123.724798 43.003686 124.046108 42.680876 124.422288 42.4264959 124.852843 42.2415372 125.282904 42.0555868 125.743613 41.9628595 126.233982 41.9628595 126.718418 41.9628595 127.174184 42.0555868 127.601279 42.2415372 128.028374 42.4264959 128.401588 42.680876 128.719932 43.003686 129.03877 43.3264959 129.289886 43.7023636 129.475258 44.1302975 129.65964 44.5587273 129.752573 45.0159174 129.752573 45.5023636L129.752573 45.5023636z"/>
  </g>
</svg>
