<svg xmlns="http://www.w3.org/2000/svg" width="60" height="60" viewBox="0 0 60 60" xmlns:xlink="http://www.w3.org/1999/xlink">
  <defs>
    <polygon id="a" points="0 .343 150.57 .343 150.57 60 0 60"/>
    <polyline id="c" points="0 0 150.57 0 150.57 59.657 0 59.657"/>
  </defs>
  <g fill="none" fill-rule="evenodd">
    <path fill="#0057BF" d="M56.0216761,17.117157 L46.6315162,17.117157 L46.6315162,3.58244628 L49.8263258,3.58244628 L49.8263258,14.4141818 L56.0216761,14.4141818 L56.0216761,17.117157 Z M38.9502309,14.3978182 C38.9502309,14.3978182 41.7930826,14.3933554 41.9918004,14.3933554 L41.9918004,12.0498843 L38.9660493,12.0498843 L38.9660493,9.63947107 L44.9043516,9.63947107 L44.9043516,17.117157 L38.5053402,17.117157 C33.6110481,17.117157 32.1364826,12.2055868 32.1364826,10.3688926 C32.1364826,6.06773554 34.861191,3.18773554 39.0332772,3.18773554 C41.469301,3.18773554 44.2142767,4.48343802 44.9043516,7.30790083 L41.5706372,7.30790083 C41.0842234,6.4252562 40.1860385,5.90955372 39.0332772,5.90955372 C35.6209655,5.90955372 35.2690075,9.09798347 35.2690075,10.3688926 C35.2690075,11.9636033 36.4034788,14.3978182 38.9502309,14.3978182 L38.9502309,14.3978182 Z M29.6248274,17.1221157 L28.5778512,14.0933554 L23.4013007,14.0933554 L22.3177447,17.1221157 L19.2366293,17.1221157 L24.4893056,3.52244628 L27.6079895,3.52244628 L32.7820684,17.1221157 L29.6248274,17.1221157 Z M18.3265807,13.8409587 C18.3127396,15.2735207 17.8846559,17.124595 15.3957396,17.124595 L3.06534641,17.124595 L3.06534641,13.8032727 C3.06534641,13.8032727 14.4837136,16.2231074 15.6453727,16.4601322 C16.8010999,16.6991405 18.0349301,16.123438 17.6162385,14.0844298 C17.1970526,12.0335207 15.4649448,3.52244628 15.4649448,3.52244628 L18.3265807,3.52244628 L18.3265807,13.8409587 Z M3.06534641,7.4606281 L16.525762,16.0049256 C16.2963961,16.0862479 15.5974233,15.861124 15.3398811,15.7515372 L3.06534641,10.8280661 L3.06534641,7.4606281 Z M6.41092454,3.52244628 L17.081381,15.6498843 C17.0299714,15.7237686 16.923692,15.8328595 16.8495435,15.8819504 L3.06534641,3.52244628 L6.41092454,3.52244628 Z M12.6314853,3.52244628 L17.1832116,14.818314 C17.2385757,14.9596364 17.2667521,15.1807934 17.2153426,15.3543471 L9.68680312,3.52244628 L12.6314853,3.52244628 Z M4.94323012e-05,0.342942149 L4.94323012e-05,59.9769917 L46.4649293,59.9769917 C54.3711315,59.9769917 58.8744141,57.0945124 58.8744141,47.8470744 L58.8744141,0.342942149 L4.94323012e-05,0.342942149 Z"/>
    <polygon fill="#0057BF" points="26.004 6.876 24.193 11.864 27.782 11.864 26.043 6.876"/>
  </g>
</svg>
