<?xml version="1.0" encoding="UTF-8" standalone="no"?>
<svg width="345px" height="167px" viewBox="0 0 345 167" version="1.1" xmlns="http://www.w3.org/2000/svg" xmlns:xlink="http://www.w3.org/1999/xlink">
    <!-- Generator: sketchtool 40.3 (33839) - http://www.bohemiancoding.com/sketch -->
    <title>CC353619-D858-4393-B060-76B50B3B72E4</title>
    <desc>Created with sketchtool.</desc>
    <defs>
        <rect id="path-1" x="0" y="0" width="158.336842" height="139.452632" rx="4"></rect>
        <mask id="mask-2" maskContentUnits="userSpaceOnUse" maskUnits="objectBoundingBox" x="0" y="0" width="158.336842" height="139.452632" fill="white">
            <use xlink:href="#path-1"></use>
        </mask>
        <rect id="path-3" x="7.26315789" y="43.5789474" width="45.0315789" height="48.6631579"></rect>
        <mask id="mask-4" maskContentUnits="userSpaceOnUse" maskUnits="objectBoundingBox" x="0" y="0" width="45.0315789" height="48.6631579" fill="white">
            <use xlink:href="#path-3"></use>
        </mask>
        <rect id="path-5" x="7.26315789" y="96.6" width="45.0315789" height="12.7899671"></rect>
        <mask id="mask-6" maskContentUnits="userSpaceOnUse" maskUnits="objectBoundingBox" x="0" y="0" width="45.0315789" height="12.7899671" fill="white">
            <use xlink:href="#path-5"></use>
        </mask>
        <rect id="path-7" x="55.9263158" y="43.5789474" width="45.0315789" height="48.6631579"></rect>
        <mask id="mask-8" maskContentUnits="userSpaceOnUse" maskUnits="objectBoundingBox" x="0" y="0" width="45.0315789" height="48.6631579" fill="white">
            <use xlink:href="#path-7"></use>
        </mask>
        <rect id="path-9" x="55.9263158" y="96.6" width="45.0315789" height="12.7899671"></rect>
        <mask id="mask-10" maskContentUnits="userSpaceOnUse" maskUnits="objectBoundingBox" x="0" y="0" width="45.0315789" height="12.7899671" fill="white">
            <use xlink:href="#path-9"></use>
        </mask>
        <rect id="path-11" x="104.589474" y="84.9789474" width="45.0315789" height="37.0421053"></rect>
        <mask id="mask-12" maskContentUnits="userSpaceOnUse" maskUnits="objectBoundingBox" x="0" y="0" width="45.0315789" height="37.0421053" fill="white">
            <use xlink:href="#path-11"></use>
        </mask>
    </defs>
    <g id="Mobile" stroke="none" stroke-width="1" fill="none" fill-rule="evenodd">
        <g id="sm--01-error--sapMaintenance" transform="translate(-15.000000, -281.000000)">
            <g id="in-maintiance" transform="translate(15.000000, 281.000000)">
                <g id="Group-3" transform="translate(0.000000, 59.557895)">
                    <g id="Group-2" transform="translate(156.884211, 0.000000)">
                        <path d="M161.904623,26.8736842 C161.904623,26.8736842 161.867325,32.8521489 161.821294,40.2305817 L161.821294,40.2305817 C161.775273,47.6073924 155.757034,53.5874791 148.374027,53.5874791 L44.7868725,53.5874791" id="Rectangle-4" stroke="#48515F" stroke-width="2"></path>
                        <path d="M123.646999,15.5270175 C123.646999,15.5270175 123.619105,19.9983062 123.584587,25.5312415 L123.542754,32.2365885 C123.508285,37.7617688 118.994603,42.2408124 113.471121,42.2408124 L3.17453167,42.2408124" id="Rectangle-4" stroke="#48515F" stroke-width="2"></path>
                        <g id="Page-1" transform="translate(106.365328, 0.000000)">
                            <polygon id="Fill-1" fill="#FFFFFF" points="15.0734858 34.2856502 19.1802661 34.2856502 16.9916918 14.5723792"></polygon>
                            <polygon id="Fill-2" fill="#CDD2D9" points="15.0734858 34.2856502 16.9916918 34.2856502 16.9916918 15.1488728"></polygon>
                            <path d="M0,19.9948709 L22.2176179,24.1594304 L34.2778416,10.3031305 L12.0371591,6.13857095 L0,19.9948709 Z M6.76177227,12.9388953 L12.2690865,6.59874327 L22.4251993,8.50334538 L16.9166037,14.8409409 L6.76177227,12.9388953 Z M17.581633,14.96621 L23.0902286,8.62989277 L33.269406,10.5319384 L27.745434,16.8708121 L17.581633,14.96621 Z M0.925146785,19.6497416 L6.42989829,13.3108679 L16.5936993,15.2141917 L11.0876664,21.5530655 L0.925146785,19.6497416 Z M11.7514144,21.6796129 L17.2587286,15.3407391 L27.4225296,17.244063 L21.9164967,23.584215 L11.7514144,21.6796129 Z" id="Fill-3" fill="#FFFFFF"></path>
                            <polygon id="Fill-4" fill="#00408C" points="12.2693428 6.59963805 6.76074718 12.93979 16.9168599 14.8405574 22.4254555 8.50296191"></polygon>
                            <polygon id="Fill-5" fill="#00408C" points="23.0895879 8.62938147 17.5822737 14.9656987 27.7460747 16.8703008 33.2687653 10.5314271"></polygon>
                            <polygon id="Fill-6" fill="#00408C" points="0.924890511 19.6497416 11.0874101 21.5530655 16.593443 15.2141917 6.43092338 13.3108679"></polygon>
                            <polygon id="Fill-7" fill="#00408C" points="17.2583442 15.3402278 11.7510299 21.6791016 21.9161123 23.5837037 27.4234265 17.2435517"></polygon>
                            <polygon id="Fill-8" fill="#CDD2D9" points="0 20.8013229 22.3406291 25.0911515 22.2176179 24.1593026 0 19.994743"></polygon>
                            <polygon id="Fill-9" fill="#CDD2D9" points="22.3399884 25.090768 34.2772009 11.4057545 34.2772009 10.3038974 22.2169772 24.1589191"></polygon>
                            <polygon id="Fill-10" fill="#FFFFFF" points="52.2586203 42.3247328 58.4335267 42.3247328 55.1416955 12.683244"></polygon>
                            <polygon id="Fill-11" fill="#CDD2D9" points="52.2586203 42.3247328 55.1416955 42.3247328 55.1416955 13.5486236"></polygon>
                            <path d="M47.6918293,0.000383476935 L29.5912428,20.8385201 L63.0015991,27.098142 L81.1329384,6.26128357 L47.6918293,0.000383476935 Z M39.7576065,10.2264351 L48.040361,0.694476729 L63.3129712,3.55777118 L55.0302166,13.087173 L39.7576065,10.2264351 Z M56.0296827,13.2725202 L64.3111559,3.74567488 L79.6183629,6.60769107 L71.3125437,16.1370929 L56.0296827,13.2725202 Z M30.9815257,20.3157132 L39.2617175,10.7824766 L54.5432972,13.6483276 L46.261824,23.1790077 L30.9815257,20.3157132 Z M47.2625714,23.3681896 L55.5427633,13.8362313 L70.8281871,16.6982475 L62.5467139,26.2314841 L47.2625714,23.3681896 Z" id="Fill-12" fill="#FFFFFF"></path>
                            <polygon id="Fill-13" fill="#00408C" points="48.0399766 0.693965427 39.757222 10.2259238 55.0298322 13.0866617 63.3138681 3.55725987"></polygon>
                            <polygon id="Fill-14" fill="#00408C" points="64.3110277 3.74605835 56.0295545 13.2729037 71.3124156 16.1374764 79.6169534 6.60679629"></polygon>
                            <polygon id="Fill-15" fill="#00408C" points="39.2618457 10.7827323 30.9816538 20.3159689 46.2619521 23.1792633 54.5434254 13.647305"></polygon>
                            <polygon id="Fill-16" fill="#00408C" points="55.5430196 13.8361035 47.2628277 23.3680618 62.5469702 26.2313563 70.8284434 16.6968414"></polygon>
                            <polygon id="Fill-17" fill="#CDD2D9" points="29.5902177 20.8377532 29.5902177 22.048262 63.1850908 28.4983441 63.000574 27.0986533"></polygon>
                            <polygon id="Fill-18" fill="#CDD2D9" points="63.0009584 27.0976307 63.1841938 28.4985997 81.1335791 7.91994914 81.1335791 6.26077227"></polygon>
                        </g>
                    </g>
                    <g id="Group-2" transform="translate(94.057895, 26.873684) scale(-1, 1) translate(-94.057895, -26.873684) ">
                        <path d="M161.904623,26.8736842 C161.904623,26.8736842 161.867325,32.8521489 161.821294,40.2305817 L161.821294,40.2305817 C161.775273,47.6073924 155.757034,53.5874791 148.374027,53.5874791 L44.7868725,53.5874791" id="Rectangle-4" stroke="#48515F" stroke-width="2"></path>
                        <path d="M123.646999,15.5270175 C123.646999,15.5270175 123.619105,19.9983062 123.584587,25.5312415 L123.542754,32.2365885 C123.508285,37.7617688 118.994603,42.2408124 113.471121,42.2408124 L3.17453167,42.2408124" id="Rectangle-4" stroke="#48515F" stroke-width="2"></path>
                        <g id="Page-1" transform="translate(106.365328, 0.000000)">
                            <polygon id="Fill-1" fill="#FFFFFF" points="15.0734858 34.2856502 19.1802661 34.2856502 16.9916918 14.5723792"></polygon>
                            <polygon id="Fill-2" fill="#CDD2D9" points="15.0734858 34.2856502 16.9916918 34.2856502 16.9916918 15.1488728"></polygon>
                            <path d="M0,19.9948709 L22.2176179,24.1594304 L34.2778416,10.3031305 L12.0371591,6.13857095 L0,19.9948709 Z M6.76177227,12.9388953 L12.2690865,6.59874327 L22.4251993,8.50334538 L16.9166037,14.8409409 L6.76177227,12.9388953 Z M17.581633,14.96621 L23.0902286,8.62989277 L33.269406,10.5319384 L27.745434,16.8708121 L17.581633,14.96621 Z M0.925146785,19.6497416 L6.42989829,13.3108679 L16.5936993,15.2141917 L11.0876664,21.5530655 L0.925146785,19.6497416 Z M11.7514144,21.6796129 L17.2587286,15.3407391 L27.4225296,17.244063 L21.9164967,23.584215 L11.7514144,21.6796129 Z" id="Fill-3" fill="#FFFFFF"></path>
                            <polygon id="Fill-4" fill="#00408C" points="12.2693428 6.59963805 6.76074718 12.93979 16.9168599 14.8405574 22.4254555 8.50296191"></polygon>
                            <polygon id="Fill-5" fill="#00408C" points="23.0895879 8.62938147 17.5822737 14.9656987 27.7460747 16.8703008 33.2687653 10.5314271"></polygon>
                            <polygon id="Fill-6" fill="#00408C" points="0.924890511 19.6497416 11.0874101 21.5530655 16.593443 15.2141917 6.43092338 13.3108679"></polygon>
                            <polygon id="Fill-7" fill="#00408C" points="17.2583442 15.3402278 11.7510299 21.6791016 21.9161123 23.5837037 27.4234265 17.2435517"></polygon>
                            <polygon id="Fill-8" fill="#CDD2D9" points="0 20.8013229 22.3406291 25.0911515 22.2176179 24.1593026 0 19.994743"></polygon>
                            <polygon id="Fill-9" fill="#CDD2D9" points="22.3399884 25.090768 34.2772009 11.4057545 34.2772009 10.3038974 22.2169772 24.1589191"></polygon>
                            <polygon id="Fill-10" fill="#FFFFFF" points="52.2586203 42.3247328 58.4335267 42.3247328 55.1416955 12.683244"></polygon>
                            <polygon id="Fill-11" fill="#CDD2D9" points="52.2586203 42.3247328 55.1416955 42.3247328 55.1416955 13.5486236"></polygon>
                            <path d="M47.6918293,0.000383476935 L29.5912428,20.8385201 L63.0015991,27.098142 L81.1329384,6.26128357 L47.6918293,0.000383476935 Z M39.7576065,10.2264351 L48.040361,0.694476729 L63.3129712,3.55777118 L55.0302166,13.087173 L39.7576065,10.2264351 Z M56.0296827,13.2725202 L64.3111559,3.74567488 L79.6183629,6.60769107 L71.3125437,16.1370929 L56.0296827,13.2725202 Z M30.9815257,20.3157132 L39.2617175,10.7824766 L54.5432972,13.6483276 L46.261824,23.1790077 L30.9815257,20.3157132 Z M47.2625714,23.3681896 L55.5427633,13.8362313 L70.8281871,16.6982475 L62.5467139,26.2314841 L47.2625714,23.3681896 Z" id="Fill-12" fill="#FFFFFF"></path>
                            <polygon id="Fill-13" fill="#00408C" points="48.0399766 0.693965427 39.757222 10.2259238 55.0298322 13.0866617 63.3138681 3.55725987"></polygon>
                            <polygon id="Fill-14" fill="#00408C" points="64.3110277 3.74605835 56.0295545 13.2729037 71.3124156 16.1374764 79.6169534 6.60679629"></polygon>
                            <polygon id="Fill-15" fill="#00408C" points="39.2618457 10.7827323 30.9816538 20.3159689 46.2619521 23.1792633 54.5434254 13.647305"></polygon>
                            <polygon id="Fill-16" fill="#00408C" points="55.5430196 13.8361035 47.2628277 23.3680618 62.5469702 26.2313563 70.8284434 16.6968414"></polygon>
                            <polygon id="Fill-17" fill="#CDD2D9" points="29.5902177 20.8377532 29.5902177 22.048262 63.1850908 28.4983441 63.000574 27.0986533"></polygon>
                            <polygon id="Fill-18" fill="#CDD2D9" points="63.0009584 27.0976307 63.1841938 28.4985997 81.1335791 7.91994914 81.1335791 6.26077227"></polygon>
                        </g>
                    </g>
                </g>
                <path d="M246.039557,85.1195568 L246.079787,85.2356028 C246.595677,84.2575007 247.028741,83.3220277 247.265388,83.1159868 L247.255922,88.6648811 C247.622725,89.7329782 246.053756,90.5310906 244.080121,90.2800522 L238.26334,89.5458835 C236.59498,89.3327378 235.222428,89.3280012 235.333652,88.4517354 L235.336018,88.4375257 C235.433044,87.670201 236.015195,87.0568149 236.777198,86.9265591 C239.581464,86.4386922 246.039557,85.1195568 246.039557,85.1195568" id="Fill-3" fill="#05101C"></path>
                <g id="Group-24" transform="translate(92.968421, 0.000000)">
                    <use id="Rectangle-4" stroke="#48515F" mask="url(#mask-2)" stroke-width="4" fill="#FFFFFF" xlink:href="#path-1"></use>
                    <rect id="Rectangle-4" fill="#CDD2D9" x="1.45263158" y="21.0631579" width="155.431579" height="10.1684211"></rect>
                    <rect id="Rectangle-4" fill="#CDD2D9" x="7.26315789" y="6.53684211" width="10.1684211" height="10.1684211"></rect>
                    <use id="Rectangle-4" stroke="#CDD2D9" mask="url(#mask-4)" stroke-width="4" stroke-dasharray="5" fill="#EAECEF" xlink:href="#path-3"></use>
                    <use id="Rectangle-4" stroke="#CDD2D9" mask="url(#mask-6)" stroke-width="4" stroke-dasharray="5" fill="#EAECEF" xlink:href="#path-5"></use>
                    <g id="Group-23" transform="translate(7.263158, 35.589474)" fill="#CDD2D9">
                        <rect id="Rectangle-4" x="0" y="0" width="5.81052632" height="5.81052632" rx="2.90526316"></rect>
                        <rect id="Rectangle-4" x="7.26315789" y="1.45263158" width="20.3368421" height="2.90526316"></rect>
                    </g>
                    <g id="Group-23" transform="translate(55.926316, 35.589474)" fill="#CDD2D9">
                        <rect id="Rectangle-4" x="0" y="0" width="5.81052632" height="5.81052632" rx="2.90526316"></rect>
                        <rect id="Rectangle-4" x="7.26315789" y="1.45263158" width="20.3368421" height="2.90526316"></rect>
                    </g>
                    <use id="Rectangle-4" stroke="#CDD2D9" mask="url(#mask-8)" stroke-width="4" stroke-dasharray="5" fill="#EAECEF" xlink:href="#path-7"></use>
                    <use id="Rectangle-4" stroke="#CDD2D9" mask="url(#mask-10)" stroke-width="4" stroke-dasharray="5" fill="#EAECEF" xlink:href="#path-9"></use>
                    <rect id="Rectangle-4" fill="#CDD2D9" x="104.589474" y="43.5789474" width="45.0315789" height="7.26315789"></rect>
                    <rect id="Rectangle-4" fill="#CDD2D9" x="104.589474" y="53.9289474" width="45.0315789" height="7.26315789"></rect>
                    <rect id="Rectangle-4" fill="#CDD2D9" x="104.589474" y="64.2789474" width="45.0315789" height="7.26315789"></rect>
                    <rect id="Rectangle-4" fill="#CDD2D9" x="104.589474" y="74.6289474" width="45.0315789" height="7.26315789"></rect>
                    <use id="Rectangle-4" stroke="#CDD2D9" mask="url(#mask-12)" stroke-width="4" stroke-dasharray="5" fill="#EAECEF" xlink:href="#path-11"></use>
                </g>
                <g id="Group" transform="translate(138.726316, 71.905263)">
                    <polygon id="Fill-51" fill="#FFFFFF" points="39.3412704 25.9050476 40.4589201 25.9050476 40.4589201 25.0657046 39.3412704 25.0657046"></polygon>
                    <polygon id="Fill-55" fill="#FFFFFF" points="46.4942287 25.9050476 47.6118784 25.9050476 47.6118784 25.0657046 46.4942287 25.0657046"></polygon>
                    <polygon id="Fill-78" fill="#1C2025" points="73.0895706 12.6299783 73.3846302 10.9555892 70.1296765 10.1080103 69.4823338 10.5624157 59.0257818 8.71578947 58.8315789 9.81796431 69.288131 11.6635163 69.7416285 12.3116438"></polygon>
                    <path d="M57.9340441,6.10905133 C57.9873336,5.80575631 57.7834743,5.51427797 57.4809042,5.46056575 L49.7760952,4.10093031 C49.4731674,4.04721809 49.182042,4.25168262 49.1287525,4.55426148 L48.5465017,7.860786 C48.4928545,8.16372294 48.6967138,8.45555936 48.9996416,8.50855542 L56.7044506,9.8692651 C57.0073784,9.92226116 57.2988614,9.71779663 57.3517933,9.41485968 C57.3789745,9.26303313 57.523822,9.16133799 57.6754647,9.1881941 C57.8271074,9.21505021 57.9293947,9.36007322 57.9025711,9.51261593 C57.8492816,9.81555288 58.0527832,10.1070312 58.355711,10.1603854 C58.6582811,10.2140976 58.9497642,10.009633 59.0026961,9.7066961 L59.5853045,6.40052967 C59.6389517,6.09795081 59.4347348,5.80611439 59.131807,5.75240216 C58.8292368,5.69904802 58.5381114,5.90351255 58.4848219,6.20609142 C58.4579983,6.35863413 58.3127932,6.4599712 58.1607929,6.43311508 C58.0095078,6.40625897 57.9075782,6.26087789 57.9340441,6.10905133 L57.9340441,6.10905133 Z" id="Fill-79" fill="#0057BF"></path>
                    <polygon id="Fill-85" fill="#48515F" points="11.240363 72.3836163 15.7109619 72.3836163 15.7109619 63.4315789 11.240363 63.4315789"></polygon>
                    <path d="M25.6101452,2.04617997 C21.9063434,2.04617997 18.9042468,5.05227411 18.9042468,8.76020798 L18.9042468,13.2362267 C18.9042468,16.9441605 21.9063434,19.9502547 25.6101452,19.9502547 C29.3135893,19.9502547 32.3160436,16.9441605 32.3160436,13.2362267 L32.3160436,8.76020798 C32.3160436,5.05227411 29.3135893,2.04617997 25.6101452,2.04617997" id="Fill-87" fill="#FFD561"></path>
                    <path d="M24.7718185,2.04617997 C21.5311707,2.04617997 18.9042468,4.67664662 18.9042468,7.92086496 L18.9042468,11.8375603 C18.9042468,15.0817787 21.5311707,17.7122453 24.7718185,17.7122453 C28.0124662,17.7122453 30.6393901,15.0817787 30.6393901,11.8375603 L30.6393901,7.92086496 C30.6393901,4.67664662 28.0124662,2.04617997 24.7718185,2.04617997" id="Fill-88" fill="#B0B8C3"></path>
                    <path id="Fill-89" fill="#FFC40F"></path>
                    <path id="Fill-90" fill="#FFC40F"></path>
                    <path d="M7.72795392,48.5967742 C8.08202535,49.4536632 8.05663235,50.3725003 7.72795392,51.1667251 C7.39963313,51.9598756 6.76838457,52.6284137 5.91324841,52.9829144 C5.05811225,53.3374151 4.14003005,53.3119913 3.34712463,52.9832725 C2.55421921,52.6541956 1.8868482,52.0225398 1.53277677,51.166367 L7.72795392,48.5967742 Z" id="Fill-91" fill="#BDC3C7"></path>
                    <path id="Fill-94" fill="#FFC40F"></path>
                    <path id="Fill-95" fill="#FFC40F"></path>
                    <path d="M7.72795392,48.5967742 C8.08202535,49.4536632 8.05663235,50.3725003 7.72795392,51.1667251 C7.39963313,51.9598756 6.76838457,52.6284137 5.91324841,52.9829144 C5.05811225,53.3374151 4.14003005,53.3119913 3.34712463,52.9832725 C2.55421921,52.6541956 1.8868482,52.0225398 1.53277677,51.166367 L7.72795392,48.5967742 Z" id="Fill-96" fill="#FFD561"></path>
                    <path d="M4.85776158,36.066275 L7.96071488,37.353578 C7.9131477,37.4606443 7.86379229,37.5662784 7.81872865,37.674419 C6.39493231,41.1159402 6.27905439,45.100313 7.81193334,48.8053822 L1.6167562,51.374975 C-0.62355033,45.9589924 -0.455455811,40.1365874 1.62569739,35.1059004 C1.67040338,34.9981179 1.72083174,34.8924839 1.76768362,34.7850594 L4.85776158,36.066275 Z" id="Fill-98" fill="#FFD561"></path>
                    <path d="M35.5412613,30.2450976 C33.6893605,30.2450976 32.1883122,28.7422296 32.1883122,26.8880836 C32.1883122,25.0339376 33.6893605,23.5310696 35.5412613,23.5310696 C38.6313145,23.5310696 41.4992226,22.560171 43.8566365,20.9070725 C47.6110854,18.2743256 53.2598229,22.4230748 47.8734303,26.2832919 C44.394643,28.7764029 40.1360065,30.2450976 35.5412613,30.2450976 Z" id="Fill-99" fill="#0057BF"></path>
                    <path d="M47.6071779,22.4056195 L45.4723775,19.8585858 C48.4712552,17.1912368 50.3657162,13.3060525 50.3657162,8.98400891 C50.3657162,7.12986294 51.8667645,5.62699491 53.7186654,5.62699491 C55.5705663,5.62699491 57.0716146,7.12986294 57.0716146,8.98400891 C57.0716146,15.3671696 54.2433349,21.0979059 49.7802466,24.9984876 L47.6071779,22.4056195 Z" id="Fill-108" fill="#FFD561"></path>
                    <polygon id="Fill-100" fill="#00408C" points="47.1470443 28.619014 44.273701 25.1900256 41.4 21.7613953 43.1120606 20.322982 44.8244788 18.8842105 47.6978221 22.3131989 50.5715231 25.7418292 48.8594625 27.1802426"></polygon>
                    <path d="M13.2840653,54.7992572 L13.2840653,59.2113328 L13.2840653,63.6873514 L13.2840653,90.5434635 L22.2252632,90.5434635 L22.2252632,63.6873514 C22.2252632,62.4512541 23.2263197,61.4493421 24.4605626,61.4493421 C25.6948056,61.4493421 26.6958621,62.4512541 26.6958621,63.6873514 L26.6958621,90.5434635 L35.6370599,90.5434635 L35.6370599,63.6873514 L35.6370599,59.2113328 L35.6370599,54.7992572 L35.6370599,50.3871817 L31.166461,45.911163 L31.166461,32.483107 L31.166461,23.5310696 L28.9311615,23.5310696 L28.9311615,32.483107 L19.9899637,32.483107 L19.9899637,23.5310696 L17.7546642,23.5310696 L17.7546642,32.483107 L17.7546642,45.911163 L13.2840653,50.3871817 L13.2840653,54.7992572 L13.2840653,54.7992572 Z" id="Combined-Shape" fill="#1C2025"></path>
                    <path d="M9.50142773,33.7192058 L5.6509903,32.1225204 L3.06555354,31.0504244 C5.29584592,27.9236568 8.3927192,25.3630161 12.192013,23.7878156 C13.0471491,23.4325987 13.9648737,23.4587387 14.7577791,23.7874575 C15.5506845,24.1161763 16.2180555,24.7478321 16.5724846,25.6040049 C16.9269137,26.4605358 16.9008054,27.379731 16.5724846,28.1735977 C16.2445215,28.9671063 15.6129153,29.6356444 14.7577791,29.9901451 C12.68056,30.8516892 10.9084146,32.1436472 9.50142773,33.7192058" id="Fill-97" fill="#0057BF"></path>
                    <path d="M35.5093285,90.5434635 L26.5681307,90.5434635 L26.5681307,95.0194822 L35.5093285,95.0194822 L39.9799274,95.0194822 C39.9799274,92.5472875 37.978172,90.5434635 35.5093285,90.5434635" id="Fill-102" fill="#0057BF"></path>
                    <polygon id="Fill-103" fill="#0057BF" points="13.2840653 95.0194822 22.2252632 95.0194822 22.2252632 90.5434635 13.2840653 90.5434635"></polygon>
                    <polygon id="Fill-104" fill="#0057BF" points="19.926098 32.483107 28.8672958 32.483107 28.8672958 23.5310696 19.926098 23.5310696"></polygon>
                    <path d="M17.7546642,23.5310696 L17.7546642,32.483107 L17.7546642,45.911163 L13.2840653,50.3871817 L13.2840653,28.0070883 C13.2840653,25.5348937 15.2858207,23.5310696 17.7546642,23.5310696" id="Fill-106" fill="#0057BF"></path>
                    <path d="M31.166461,32.483107 L31.166461,23.5310696 C33.6353045,23.5310696 35.6370599,25.5348937 35.6370599,28.0070883 L35.6370599,50.3871817 L31.166461,45.911163 L31.166461,32.483107 Z" id="Fill-107" fill="#0057BF"></path>
                    <path d="M53.423657,12.3410229 C55.2755579,12.3410229 56.7766062,10.8381549 56.7766062,8.98400891 C56.7766062,7.12986294 55.2755579,5.62699491 53.423657,5.62699491 C51.5717561,5.62699491 50.0707078,7.12986294 50.0707078,8.98400891 C50.0707078,10.8381549 51.5717561,12.3410229 53.423657,12.3410229" id="Fill-109" fill="#FFD561"></path>
                    <polygon id="Fill-110" fill="#48515F" points="25.5462795 90.4155772 36.7227768 90.4155772 36.7227768 85.9395586 25.5462795 85.9395586"></polygon>
                    <polygon id="Fill-111" fill="#48515F" points="12.2622142 90.4155772 23.4387114 90.4155772 23.4387114 85.9395586 12.2622142 85.9395586"></polygon>
                    <polygon id="Fill-114" fill="#00408C" points="18.9042468 23.211354 29.9909745 23.211354 27.7560327 20.9733447 21.1395463 20.9733447"></polygon>
                    <path d="M15.3277677,52.1775891 L15.3277677,56.6536078 C15.3277677,57.884692 16.3338313,58.8916171 17.5630672,58.8916171 L19.7983666,58.8916171 C21.0279601,58.8916171 22.0336661,57.884692 22.0336661,56.6536078 L22.0336661,52.1775891 L15.3277677,52.1775891 L15.3277677,52.1775891 Z" id="Stroke-115" stroke="#CDD2D9"></path>
                    <path id="Stroke-116" stroke="#CDD2D9"></path>
                    <path d="M26.5681307,52.1775891 L26.5681307,56.6536078 C26.5681307,57.884692 27.5741943,58.8916171 28.8034301,58.8916171 L31.0387296,58.8916171 C32.2679655,58.8916171 33.274029,57.884692 33.274029,56.6536078 L33.274029,52.1775891 L26.5681307,52.1775891 L26.5681307,52.1775891 Z" id="Stroke-117" stroke="#CDD2D9"></path>
                    <path id="Stroke-118" stroke="#CDD2D9"></path>
                    <path id="Stroke-120" stroke="#CDD2D9"></path>
                    <polygon id="Fill-121" fill="#48515F" points="33.2101633 72.3836163 37.6807623 72.3836163 37.6807623 63.4315789 33.2101633 63.4315789"></polygon>
                    <polygon id="Fill-134" fill="#FFC40F" points="26.7989669 37.9914746 24.8508587 38.5719247 25.6419759 34.2735144 22.480726 40.3608998 24.4288341 39.7804497 23.637717 44.07886"></polygon>
                    <path d="M22.8384954,6.65008489 L18.9042468,6.65008489 L18.9042468,8.88809423 L34.551343,8.88809423 L36.7866425,8.88809423 C36.7866425,7.65199691 35.785586,6.65008489 34.551343,6.65008489 L26.5935554,6.65008489 C26.8198915,6.99996144 26.9513249,7.4171092 26.9513249,7.86500424 L22.480726,7.86500424 C22.480726,7.4171092 22.6121594,6.99996144 22.8384954,6.65008489 Z" id="Combined-Shape" fill="#00408C"></path>
                    <path d="M23.3748457,0 L27.8454446,0 C30.304274,0 32.3160436,2.0142084 32.3160436,4.47601868 L32.3160436,8.95203735 L27.8454446,8.95203735 L23.3748457,8.95203735 L18.9042468,8.95203735 L18.9042468,4.47601868 C18.9042468,2.0142084 20.9160163,0 23.3748457,0" id="Fill-113" fill="#0057BF"></path>
                    <path d="M26.9513249,7.86500424 C26.9513249,6.62890693 25.9502684,5.62699491 24.7160254,5.62699491 C23.4817825,5.62699491 22.480726,6.62890693 22.480726,7.86500424 L26.9513249,7.86500424 L26.9513249,7.86500424 Z" id="Stroke-119" fill="#B0B8C3"></path>
                </g>
                <polygon id="Fill-93" fill="#00408C" points="140.948229 103.539049 145.078347 105.251753 149.208465 106.964457 148.352971 109.032377 147.497835 111.09994 143.367717 109.386878 139.237241 107.674174 140.092735 105.606254"></polygon>
            </g>
        </g>
    </g>
</svg>