<?xml version="1.0" encoding="UTF-8" standalone="no"?>
<svg width="113px" height="113px" viewBox="0 0 113 113" version="1.1" xmlns="http://www.w3.org/2000/svg" xmlns:xlink="http://www.w3.org/1999/xlink">
    <!-- Generator: Sketch 41.2 (35397) - http://www.bohemiancoding.com/sketch -->
    <title>meter elec icon</title>
    <desc>Created with Sketch.</desc>
    <defs></defs>
    <g id="Version-02" stroke="none" stroke-width="1" fill="none" fill-rule="evenodd">
        <g id="T&amp;C-approved" transform="translate(-172.000000, -939.000000)">
            <g id="Group-26" transform="translate(129.000000, 172.000000)">
                <g id="Group-22" transform="translate(1.000000, 644.000000)">
                    <g id="Group-14">
                        <g id="meter-elec-icon" transform="translate(43.000000, 124.000000)">
                            <g>
                                <circle id="Oval-10" stroke="#50E3C2" stroke-width="2" fill="#FFFFFF" cx="55.5" cy="55.5" r="55.5"></circle>
                                <g id="Meter-Elec" transform="translate(24.440367, 23.422018)">
                                    <g id="Group-17" fill="#50E3C2">
                                        <rect id="Rectangle-11" x="0" y="0" width="63.1376147" height="25.6530569"></rect>
                                        <rect id="Rectangle-11-Copy" transform="translate(31.568807, 36.940402) scale(1, -1) translate(-31.568807, -36.940402) " x="0" y="26.6791792" width="63.1376147" height="20.5224455"></rect>
                                        <rect id="Rectangle-11-Copy-2" transform="translate(31.568807, 52.075706) scale(1, -1) translate(-31.568807, -52.075706) " x="10.8679501" y="48.227747" width="41.4017145" height="7.69591708"></rect>
                                        <rect id="Rectangle-11-Copy-3" transform="translate(19.148293, 62.080398) scale(1, -1) translate(-19.148293, -62.080398) " x="16.5606858" y="56.9497864" width="5.17521432" height="10.2612228"></rect>
                                        <rect id="Rectangle-11-Copy-4" transform="translate(31.568807, 62.080398) scale(1, -1) translate(-31.568807, -62.080398) " x="28.9812002" y="56.9497864" width="5.17521432" height="10.2612228"></rect>
                                        <rect id="Rectangle-11-Copy-5" transform="translate(43.989322, 62.080398) scale(1, -1) translate(-43.989322, -62.080398) " x="41.4017145" y="56.9497864" width="5.17521432" height="10.2612228"></rect>
                                    </g>
                                    <g id="Group-18" transform="translate(11.902993, 9.235100)" fill="#FFFFFF">
                                        <rect id="Rectangle-12" x="0" y="0" width="4.65769289" height="11.8004062"></rect>
                                        <rect id="Rectangle-12-Copy" x="7.5558129" y="0" width="4.65769289" height="11.8004062"></rect>
                                        <rect id="Rectangle-12-Copy-2" x="15.1116258" y="0" width="4.65769289" height="11.8004062"></rect>
                                        <rect id="Rectangle-12-Copy-3" x="22.6674387" y="0" width="4.65769289" height="11.8004062"></rect>
                                        <rect id="Rectangle-12-Copy-4" x="30.2232516" y="0" width="4.65769289" height="11.8004062"></rect>
                                        <rect id="Rectangle-12-Copy-5" x="37.7790645" y="0" width="4.65769289" height="11.8004062"></rect>
                                        <path d="M21.8597312,24.7542592 L25.9200034,20.3858946 C25.9821055,20.3190248 25.9987897,20.2215063 25.9621773,20.1374547 C25.9260283,20.0538674 25.8435344,20 25.7522351,20 L19.143923,20.01486 C19.0493795,20.0153243 18.9650319,20.0729067 18.9307367,20.1611377 L15.8756842,28.0020897 C15.8478773,28.0731389 15.8576097,28.1530112 15.9007105,28.216166 C15.9442746,28.2788565 16.0314029,28.3127558 16.0921147,28.3150776 L18.7921656,28.2848933 L15.5577586,35.6777246 C15.5128041,35.7803512 15.5484896,35.900624 15.6416427,35.9619213 C15.680109,35.9874619 15.7241366,36 15.7677007,36 C15.8293394,36 15.8905146,35.9744594 15.9354691,35.9261646 L25.9200034,25.1396895 C25.9821055,25.073284 25.9987897,24.9757655 25.9621773,24.8917138 C25.9260283,24.8081265 25.8435344,24.7542592 25.7522351,24.7542592 L21.8597312,24.7542592 Z" id="Fill-3-Copy-20"></path>
                                    </g>
                                </g>
                            </g>
                        </g>
                    </g>
                </g>
            </g>
        </g>
    </g>
</svg>