<?xml version="1.0" encoding="UTF-8" standalone="no"?>
<svg width="12px" height="17px" viewBox="0 0 12 17" version="1.1" xmlns="http://www.w3.org/2000/svg" xmlns:xlink="http://www.w3.org/1999/xlink">
    <!-- Generator: Sketch 41.2 (35397) - http://www.bohemiancoding.com/sketch -->
    <title>Gas disabled icon Copy</title>
    <desc>Created with Sketch.</desc>
    <defs></defs>
    <g id="Version-02" stroke="none" stroke-width="1" fill="none" fill-rule="evenodd">
        <g id="Components" transform="translate(-589.000000, -149.000000)" fill="#F7A700">
            <g id="Group-19-Copy" transform="translate(0.000000, 139.000000)">
                <g id="Group-10" transform="translate(448.000000, 6.000000)">
                    <g id="Group-12" transform="translate(141.000000, 4.000000)">
                        <path d="M11.7259176,11.0068685 L11.9969936,10.9819522 C11.9974947,10.9753418 12,10.9183903 12,10.9117798 C12,10.6895672 11.9854691,10.4749819 11.9564074,10.2700581 C11.7439559,7.87453443 10.8059627,5.85631461 10.7658775,5.77139581 C10.7142678,5.66206921 10.6000251,5.59698175 10.4792684,5.61986406 C10.3610172,5.6396954 10.2693223,5.7363096 10.2557936,5.8573316 C10.2182137,6.17514147 10.011274,7.06450062 9.50620068,7.36146217 C9.26118001,7.50485798 8.96855819,7.49875603 8.60979582,7.34366481 C7.2008017,6.73296136 6.21320306,2.07107189 6.68270074,0.544567511 C6.74132532,0.3523561 6.80846799,0.134211403 6.58699737,0.0284442772 C6.44068646,-0.0402026554 6.31141175,0.0157318823 6.19767005,0.19268842 L6.14405612,0.274047747 C5.50469748,1.18578071 4.68044595,2.2281971 3.80759113,3.33163297 C2.90968308,4.46710409 1.98121007,5.64071239 1.21257673,6.72991039 C0.00851810096,8.43743927 1.13686838e-13,10.6814312 1.13686838e-13,10.7755029 C0.00200425905,10.8502518 1.13686838e-13,10.8792361 1.13686838e-13,10.9117798 C1.13686838e-13,14.2688691 2.69121884,17 5.99974947,17 C9.17750219,17 11.7890517,14.4971837 11.9814606,11.2855242 C11.9929851,11.254506 12,11.2204368 12,11.1853506 L11.9954904,11.0022921 L11.7259176,11.0068685 Z" id="Gas-disabled-icon-Copy"></path>
                    </g>
                </g>
            </g>
        </g>
    </g>
</svg>