<?xml version="1.0" encoding="UTF-8"?>
<svg width="12px" height="22px" viewBox="0 0 12 22" version="1.1" xmlns="http://www.w3.org/2000/svg" xmlns:xlink="http://www.w3.org/1999/xlink">
    <!-- Generator: Sketch 47.1 (45422) - http://www.bohemiancoding.com/sketch -->
    <title>Chevron regular</title>
    <desc>Created with Sketch.</desc>
    <defs></defs>
    <g id="Symbols" stroke="none" stroke-width="1" fill="none" fill-rule="evenodd">
        <g id="icon/chevron/regular" transform="translate(0.000000, -2.000000)" fill-rule="nonzero" fill="#666666">
            <g id="Chevron-regular" transform="translate(6.000000, 13.000000) scale(-1, 1) translate(-6.000000, -13.000000) translate(0.000000, 2.000000)">
                <path d="M0.874085881,11.0278208 C0.833035709,10.9977768 0.793758372,10.9642104 0.756669568,10.9271216 C0.596705275,10.7671573 0.502264627,10.5664819 0.473347624,10.358447 C0.420603162,10.0425362 0.520245321,9.7068991 0.769485905,9.46919743 C0.815694577,9.42512805 0.865022181,9.3863544 0.91671891,9.35285871 L9.9766844,0.292893219 C10.3672087,-0.0976310729 11.0003737,-0.0976310729 11.390898,0.292893219 C11.7814223,0.683417511 11.7814223,1.31658249 11.390898,1.70710678 L2.87257368,10.2254311 L11.6519461,19.4309866 C12.0331092,19.8306528 12.0181095,20.4636401 11.6184433,20.8448032 C11.2187771,21.2259664 10.5857898,21.2109667 10.2046266,20.8113005 L0.874085881,11.0278208 Z" id="Combined-Shape"></path>
            </g>
        </g>
    </g>
</svg>