<?xml version="1.0" encoding="UTF-8"?>
<svg width="31px" height="31px" viewBox="0 0 31 31" version="1.1" xmlns="http://www.w3.org/2000/svg" xmlns:xlink="http://www.w3.org/1999/xlink">
    <!-- Generator: Sketch 44.1 (41455) - http://www.bohemiancoding.com/sketch -->
    <title>scc-spannercircleblue</title>
    <desc>Created with Sketch.</desc>
    <defs>
        <polygon id="path-1" points="0.0005 0.0219354839 30.01 0.0219354839 30.01 31 0.0005 31 0.0005 0.0219354839"></polygon>
    </defs>
    <g id="Symbols" stroke="none" stroke-width="1" fill="none" fill-rule="evenodd">
        <g id="scc-spannercircleblue">
            <g id="Group-3">
                <mask id="mask-2" fill="white">
                    <use xlink:href="#path-1"></use>
                </mask>
                <g id="Clip-2"></g>
                <g id="Group-76" mask="url(#mask-2)">
                    <path d="M4.3985,4.56242581 C10.2635,-1.49176774 19.7475,-1.49176774 25.6115,4.56242581 C31.4765,10.6155871 31.4765,20.4055226 25.6115,26.4597161 C19.7475,32.5139097 10.2635,32.5139097 4.3985,26.4597161 C-1.4655,20.4055226 -1.4655,10.6155871 4.3985,4.56242581 Z" id="Fill-1" fill="#001CB0"></path>
                    <path d="M14.9551,13.0776258 C14.6541,12.3550452 14.4551,11.4260129 14.4551,10.6002065 C14.5551,8.2260129 16.7551,5.95504516 18.9551,5.85181935 C19.4551,5.85181935 20.0551,5.85181935 20.4551,5.95504516 C20.8541,6.05827097 20.9551,6.47117419 20.6541,6.78085161 L18.5551,8.94859355 C18.0551,9.46472258 18.0551,10.1873032 18.5551,10.7034323 L19.5551,11.7356903 C20.0551,12.2518194 20.7551,12.2518194 21.2551,11.7356903 L23.3541,9.56794839 C23.6541,9.25827097 24.0551,9.46472258 24.1541,9.7744 C24.2551,10.290529 24.3541,10.8066581 24.2551,11.4260129 C24.2551,13.6969806 22.1541,15.8647226 19.7551,15.9679484 C18.9551,16.0711742 18.1541,15.8647226 17.4551,15.5550452" id="Fill-4" fill="#FFFFFF"></path>
                    <path d="M6.5098,24.2595613 L6.5098,24.2595613 C5.7328,23.4564645 5.7328,22.1424 6.5098,21.3403355 L14.9948,12.5816258 C15.7738,11.778529 17.0458,11.778529 17.8238,12.5816258 C18.6018,13.3836903 18.6018,14.6977548 17.8238,15.5008516 L9.3388,24.2595613 C8.5608,25.0626581 7.2878,25.0626581 6.5098,24.2595613" id="Fill-6" fill="#FFFFFF"></path>
                    <path d="M8.4551,23.3472516 C8.1621,23.6497032 7.6861,23.6497032 7.3931,23.3472516 C7.1011,23.0448 7.1011,22.5544774 7.3931,22.2520258 C7.6861,21.9495742 8.1621,21.9495742 8.4551,22.2520258 C8.7481,22.5544774 8.7481,23.0448 8.4551,23.3472516" id="Fill-8" fill="#001CB0"></path>
                </g>
            </g>
        </g>
    </g>
</svg>