<?xml version="1.0" encoding="UTF-8"?>
<svg width="580px" height="170px" viewBox="0 0 580 170" version="1.1" xmlns="http://www.w3.org/2000/svg" xmlns:xlink="http://www.w3.org/1999/xlink">
    <!-- Generator: Sketch 44.1 (41455) - http://www.bohemiancoding.com/sketch -->
    <title>scc-houseonhill-systeminfo-mb</title>
    <desc>Created with Sketch.</desc>
    <defs>
        <polygon id="path-1" points="0 170 768 170 768 0 0 0"></polygon>
        <linearGradient x1="50%" y1="100%" x2="50%" y2="28.8730469%" id="linearGradient-3">
            <stop stop-color="#001CB0" offset="0%"></stop>
            <stop stop-color="#001CB0" stop-opacity="0.8" offset="100%"></stop>
        </linearGradient>
    </defs>
    <g id="Page-1" stroke="none" stroke-width="1" fill="none" fill-rule="evenodd">
        <g id="scc-houseonhill-systeminfo-mb">
            <rect id="Rectangle-Copy" fill="#FFFFFF" x="0" y="0" width="580" height="170"></rect>
            <g id="Group-102-Copy-2" transform="translate(-94.000000, 0.000000)">
                <mask id="mask-2" fill="white">
                    <use xlink:href="#path-1"></use>
                </mask>
                <g id="Mask"></g>
                <g id="Group-102" mask="url(#mask-2)">
                    <g transform="translate(-109.000000, 0.000000)">
                        <g id="Group-41">
                            <circle id="Oval-9" fill="#FFE344" cx="724" cy="65" r="65"></circle>
                            <g id="Group-74" transform="translate(0.000000, 39.000000)">
                                <g id="Group-49-Copy">
                                    <g id="Group-49">
                                        <g id="Group-32">
                                            <path d="M985.27452,48.1591816 C985.27452,48.1591816 932.413692,10.8041966 833.035335,10.8041966 C733.656979,10.8041966 718.151136,35.472583 582.122606,35.472583 C446.094076,35.472583 427.064178,0.936842105 334.733932,0.936842105 C242.403686,0.936842105 218.44011,33.3581498 111.308833,33.3581498 L0,33.3581498 L0,60.2943616 L983.864898,59.4361583" id="Path-3" fill="#FFFFFF"></path>
                                            <path d="M985.27452,48.1591816 C985.27452,48.1591816 932.413692,10.8041966 833.035335,10.8041966 C733.656979,10.8041966 718.151136,35.472583 582.122606,35.472583 C446.094076,35.472583 427.064178,0.936842105 334.733932,0.936842105 C242.403686,0.936842105 218.44011,33.3581498 111.308833,33.3581498 L0,33.3581498 L0,60.2943616 L983.864898,59.4361583" id="Path-3" fill="#B3BBE7"></path>
                                            <path d="M57.8616027,50.92015 C57.8616027,50.92015 101.890254,19.8065694 184.66412,19.8065694 C267.437985,19.8065694 280.353056,40.3532736 393.653453,40.3532736 C506.95385,40.3532736 522.804165,11.5878878 599.707543,11.5878878 C676.610922,11.5878878 696.570577,38.5921275 785.801978,38.5921275 L878.512933,38.5921275 L878.90625,155.5 L59.0357001,160.5 L57.8616027,50.92015 Z" id="Path-3" fill="#001CB0"></path>
                                        </g>
                                    </g>
                                </g>
                            </g>
                        </g>
                        <g id="House-Copy-10" transform="translate(555.000000, 4.000000)">
                            <g id="Group-37">
                                <g id="Group-36">
                                    <polygon id="Fill-2" fill="#B3BBE7" points="6.4890803 53.6005015 84.3072289 53.6005015 84.3072289 25.3822617 6.4890803 25.3822617"></polygon>
                                    <polygon id="Fill-3" fill="#808ED7" points="40.8057456 53.6005015 84.3072289 53.6005015 84.3072289 25.3822617 40.8057456 25.3822617"></polygon>
                                    <polygon id="Fill-1" fill="#B3BBE7" points="0 27.8981413 23.6480481 27.8981413 47.2948259 27.8981413 23.6480481 2.85370339"></polygon>
                                    <polygon id="Fill-4" fill="#001CB0" points="18.4788884 58.3363754 28.5974328 58.3363754 28.5974328 36.4648335 18.4788884 36.4648335"></polygon>
                                    <polygon id="Fill-5" fill="#001CB0" points="49.2397714 44.0336049 59.3583158 44.0336049 59.3583158 33.9275317 49.2397714 33.9275317"></polygon>
                                    <polygon id="Fill-6" fill="#001CB0" points="65.7546586 44.0336049 75.873203 44.0336049 75.873203 33.9275317 65.7546586 33.9275317"></polygon>
                                    <polygon id="Fill-9" fill="#001CB0" points="64.9486051 2.85446458 88.5966532 27.8976338 47.2954611 27.8976338 23.6474129 2.85446458"></polygon>
                                    <polygon id="Fill-10" fill-opacity="0.5" fill="#F6A623" style="mix-blend-mode: multiply;" points="26.3690663 2.85446458 47.021568 24.7260065 85.6016149 24.7260065 64.9491133 2.85446458"></polygon>
                                    <g id="Group-33" transform="translate(26.066232, 0.000000)">
                                        <polygon id="Fill-12" fill="#FFFFFF" points="28.8821005 0.317162731 19.4305035 0.317162731 9.97763614 0.317162731 0.524768775 0.317162731 5.83875133 5.94362958 11.1514635 11.5700964 16.4641757 17.1978319 21.7768879 22.8230301 31.2297552 22.8230301 40.6813522 22.8230301 50.1342196 22.8230301 59.5858166 22.8230301 54.2731044 17.1978319 48.9603922 11.5700964 43.6476801 5.94362958 38.3336975 0.317162731"></polygon>
                                        <polygon id="Fill-12" fill="url(#linearGradient-3)" points="28.8821005 0.317162731 19.4305035 0.317162731 9.97763614 0.317162731 0.524768775 0.317162731 5.83875133 5.94362958 11.1514635 11.5700964 16.4641757 17.1978319 21.7768879 22.8230301 31.2297552 22.8230301 40.6813522 22.8230301 50.1342196 22.8230301 59.5858166 22.8230301 54.2731044 17.1978319 48.9603922 11.5700964 43.6476801 5.94362958 38.3336975 0.317162731"></polygon>
                                    </g>
                                    <path d="M46.5318381,11.887386 L51.2449328,16.8795274 L42.6673545,16.8795274 L37.9542597,11.887386 L46.5318381,11.887386 Z M41.2178555,6.25965052 L45.9322206,11.2530606 L37.3546423,11.2530606 L32.6402772,6.25965052 L41.2178555,6.25965052 Z M65.7094333,11.2530606 L60.9950682,6.25965052 L69.5726465,6.25965052 L74.288282,11.2530606 L65.7094333,11.2530606 Z M66.3090507,11.887386 L74.8866291,11.887386 L79.5997238,16.8795274 L71.0221454,16.8795274 L66.3090507,11.887386 Z M56.8574537,11.887386 L65.4350321,11.887386 L70.1481268,16.8795274 L61.5705485,16.8795274 L56.8574537,11.887386 Z M55.9834351,11.887386 L60.6965298,16.8795274 L52.1189515,16.8795274 L47.4058567,11.887386 L55.9834351,11.887386 Z M51.5434712,6.25965052 L60.1210495,6.25965052 L64.836685,11.2530606 L56.2578363,11.2530606 L51.5434712,6.25965052 Z M55.3838176,11.2530606 L46.8062393,11.2530606 L42.0918742,6.25965052 L50.6694525,6.25965052 L55.3838176,11.2530606 Z M64.2612047,0.634452327 L68.9742994,5.62532506 L60.3967211,5.62532506 L55.6836263,0.634452327 L64.2612047,0.634452327 Z M54.8096077,0.634452327 L59.5227024,5.62532506 L50.9451241,5.62532506 L46.2320294,0.634452327 L54.8096077,0.634452327 Z M45.3567403,0.634452327 L50.0711054,5.62532506 L41.4935271,5.62532506 L36.7804324,0.634452327 L45.3567403,0.634452327 Z M35.9051433,0.634452327 L40.6195085,5.62532506 L32.0419301,5.62532506 L27.3288354,0.634452327 L35.9051433,0.634452327 Z M47.981337,22.5059943 L43.2669719,17.5138529 L51.8445503,17.5138529 L56.5589154,22.5059943 L47.981337,22.5059943 Z M57.432934,22.5059943 L52.7185689,17.5138529 L61.2961472,17.5138529 L66.0105124,22.5059943 L57.432934,22.5059943 Z M66.884531,22.5059943 L62.1701659,17.5138529 L70.7477442,17.5138529 L75.4621094,22.5059943 L66.884531,22.5059943 Z M76.3348576,22.5059943 L71.6217629,17.5138529 L80.1993412,17.5138529 L84.9137063,22.5059943 L76.3348576,22.5059943 Z M85.9655776,22.8282316 C85.9655776,22.8256943 85.966848,22.8244256 85.966848,22.823157 C85.966848,22.7812915 85.9376294,22.7521125 85.9223848,22.7153217 C85.9084107,22.6785308 85.9109515,22.6366653 85.8804624,22.604949 L80.5639391,16.9746762 C80.5626688,16.9734076 80.5626688,16.9721389 80.560128,16.9708703 L75.2499566,11.3469407 L75.2486862,11.3456721 L69.9397851,5.72301118 C69.9372444,5.72174253 69.935974,5.71920523 69.9347036,5.71793658 L64.6296137,0.0990816372 C64.6283433,0.0990816372 64.6283433,0.0990816372 64.627073,0.0978129862 C64.5940432,0.0648280622 64.5432282,0.0572161567 64.498765,0.0407236947 C64.4657352,0.0280371854 64.4377869,0.00266416694 64.4034868,0.00139551602 C64.4022164,0.00139551602 64.400946,0.000126865092 64.3996757,0.000126865092 L26.5920173,0.000126865092 C26.5488245,0.000126865092 26.5196059,0.0293058363 26.4814946,0.0457982984 C26.4446537,0.0597534585 26.4040017,0.0584848076 26.3735127,0.0863951279 C26.3722423,0.0876637788 26.3735127,0.0889324298 26.3722423,0.0902010807 C26.3417533,0.120648703 26.3379421,0.166320136 26.3201569,0.204379664 C26.3061827,0.241170541 26.2769641,0.274155465 26.2756937,0.313483643 C26.2756937,0.314752294 26.2744233,0.316020945 26.2744233,0.317289596 C26.2744233,0.355349124 26.3023716,0.380722142 26.313805,0.413707066 C26.3290495,0.455572547 26.3277791,0.50124398 26.3608089,0.535497555 L36.9925851,11.7947745 L47.612928,23.0413649 L47.6141984,23.0413649 C47.6713653,23.1022602 47.751399,23.1403197 47.8415957,23.1403197 L85.649254,23.1403197 C85.7280173,23.1403197 85.8067806,23.1124094 85.8677587,23.0540515 C85.8690291,23.0527828 85.8677587,23.0515142 85.8690291,23.0502455 C85.9007885,23.0197979 85.9045996,22.9741264 85.9211145,22.9347983 C85.936359,22.8980074 85.9655776,22.8662911 85.9655776,22.8282316 L85.9655776,22.8282316 Z" id="Fill-13" fill="#99A4DF"></path>
                                </g>
                            </g>
                        </g>
                    </g>
                </g>
            </g>
        </g>
        <g id="Group-100" transform="translate(160.000000, 98.000000)">
            <circle id="Oval-2-Copy-4" fill="#FFFFFF" cx="27" cy="8" r="4"></circle>
            <circle id="Oval-2-Copy-4" fill="#FFE344" cx="125" cy="8" r="8"></circle>
            <circle id="Oval-2-Copy-4" fill="#FFFFFF" opacity="0.6" cx="223" cy="8" r="5"></circle>
            <path d="M0.996679604,30.4335938 L3.53964835,30.4335938 C4.71934175,30.4335938 5.57187229,30.605467 6.09726554,30.9492188 C6.62265879,31.2929705 6.88535148,31.8359338 6.88535148,32.578125 C6.88535148,33.0781275 6.75644652,33.494139 6.49863273,33.8261719 C6.24081894,34.1582048 5.8697289,34.3671871 5.38535148,34.453125 L5.38535148,34.5117188 C5.98691699,34.6250006 6.42929538,34.8486311 6.71249992,35.1826172 C6.99570446,35.5166032 7.1373046,35.9687471 7.1373046,36.5390625 C7.1373046,37.3085976 6.8687526,37.9111306 6.33164054,38.3466797 C5.79452848,38.7822287 5.04746564,39 4.0904296,39 L0.996679604,39 L0.996679604,30.4335938 Z M2.39707023,33.9726562 L3.74472648,33.9726562 C4.33066691,33.9726562 4.75839701,33.8798837 5.0279296,33.6943359 C5.2974622,33.5087881 5.43222648,33.1933616 5.43222648,32.7480469 C5.43222648,32.3457011 5.28672012,32.0546884 4.99570304,31.875 C4.70468596,31.6953116 4.24277652,31.6054688 3.60996085,31.6054688 L2.39707023,31.6054688 L2.39707023,33.9726562 Z M2.39707023,35.109375 L2.39707023,37.8222656 L3.88535148,37.8222656 C4.47129191,37.8222656 4.9136703,37.7099621 5.21249992,37.4853516 C5.51132954,37.2607411 5.6607421,36.9062524 5.6607421,36.421875 C5.6607421,35.9765603 5.50839988,35.6464854 5.20371085,35.4316406 C4.89902183,35.2167958 4.43613583,35.109375 3.81503898,35.109375 L2.39707023,35.109375 Z M14.5927734,39 L13.7373046,36.6210938 L10.461914,36.6210938 L9.62402338,39 L8.14746088,39 L11.352539,30.3984375 L12.8759765,30.3984375 L16.0810546,39 L14.5927734,39 Z M13.368164,35.4140625 L12.5654296,33.0820312 C12.5068356,32.9257805 12.4257817,32.6796892 12.3222656,32.34375 C12.2187494,32.0078108 12.1474611,31.7617195 12.1083984,31.6054688 C12.0029291,32.0859399 11.8486338,32.6113253 11.6455078,33.1816406 L10.8720703,35.4140625 L13.368164,35.4140625 Z M19.9330078,39 L18.5326172,39 L18.5326172,31.6347656 L16.0130859,31.6347656 L16.0130859,30.4335938 L22.452539,30.4335938 L22.452539,31.6347656 L19.9330078,31.6347656 L19.9330078,39 Z M27.5642578,39 L26.1638672,39 L26.1638672,31.6347656 L23.6443359,31.6347656 L23.6443359,30.4335938 L30.0837891,30.4335938 L30.0837891,31.6347656 L27.5642578,31.6347656 L27.5642578,39 Z M36.8419922,39 L31.9962891,39 L31.9962891,30.4335938 L36.8419922,30.4335938 L36.8419922,31.6171875 L33.3966797,31.6171875 L33.3966797,33.9492188 L36.6251953,33.9492188 L36.6251953,35.1210938 L33.3966797,35.1210938 L33.3966797,37.8105469 L36.8419922,37.8105469 L36.8419922,39 Z M40.6939453,34.4179688 L41.6666016,34.4179688 C42.3189486,34.4179688 42.7916001,34.2968762 43.0845703,34.0546875 C43.3775406,33.8124988 43.5240235,33.4531274 43.5240235,32.9765625 C43.5240235,32.4921851 43.3658219,32.1445323 43.0494141,31.9335938 C42.7330063,31.7226552 42.2564485,31.6171875 41.6197266,31.6171875 L40.6939453,31.6171875 L40.6939453,34.4179688 Z M40.6939453,35.578125 L40.6939453,39 L39.2935547,39 L39.2935547,30.4335938 L41.7134766,30.4335938 C42.8189509,30.4335938 43.6373021,30.6406229 44.1685547,31.0546875 C44.6998074,31.4687521 44.9654297,32.0937458 44.9654297,32.9296875 C44.9654297,33.9960991 44.4107478,34.7558571 43.3013672,35.2089844 L45.7212891,39 L44.1275391,39 L42.0767578,35.578125 L40.6939453,35.578125 Z M49.9833985,34.3417969 L52.0107422,30.4335938 L53.5341797,30.4335938 L50.6806641,35.6777344 L50.6806641,39 L49.2744141,39 L49.2744141,35.7246094 L46.4326172,30.4335938 L47.9560547,30.4335938 L49.9833985,34.3417969 Z M9.92050773,49.6347656 C9.92050773,51.0488352 9.52793353,52.1298791 8.74277335,52.8779297 C7.95761318,53.6259803 6.82676511,54 5.35019523,54 L2.95371085,54 L2.95371085,45.4335938 L5.60214835,45.4335938 C6.96543642,45.4335938 8.02597269,45.8007776 8.78378898,46.5351562 C9.54160527,47.2695349 9.92050773,48.3027277 9.92050773,49.6347656 Z M8.44394523,49.6816406 C8.44394523,47.6308491 7.48497044,46.6054688 5.5669921,46.6054688 L4.35410148,46.6054688 L4.35410148,52.8222656 L5.35019523,52.8222656 C7.41270554,52.8222656 8.44394523,51.7754011 8.44394523,49.6816406 Z M17.2060546,54 L12.3603515,54 L12.3603515,45.4335938 L17.2060546,45.4335938 L17.2060546,46.6171875 L13.7607421,46.6171875 L13.7607421,48.9492188 L16.9892578,48.9492188 L16.9892578,50.1210938 L13.7607421,50.1210938 L13.7607421,52.8105469 L17.2060546,52.8105469 L17.2060546,54 Z M22.6166015,54 L21.2162109,54 L21.2162109,46.6347656 L18.6966797,46.6347656 L18.6966797,45.4335938 L25.1361328,45.4335938 L25.1361328,46.6347656 L22.6166015,46.6347656 L22.6166015,54 Z M31.5251953,54 L30.6697266,51.6210938 L27.3943359,51.6210938 L26.5564453,54 L25.0798828,54 L28.2849609,45.3984375 L29.8083984,45.3984375 L33.0134766,54 L31.5251953,54 Z M30.3005859,50.4140625 L29.4978516,48.0820312 C29.4392575,47.9257805 29.3582036,47.6796892 29.2546875,47.34375 C29.1511713,47.0078108 29.079883,46.7617195 29.0408203,46.6054688 C28.935351,47.0859399 28.7810557,47.6113253 28.5779297,48.1816406 L27.8044922,50.4140625 L30.3005859,50.4140625 Z M34.7443359,54 L34.7443359,45.4335938 L36.1447266,45.4335938 L36.1447266,54 L34.7443359,54 Z M39.0064453,54 L39.0064453,45.4335938 L40.406836,45.4335938 L40.406836,52.7988281 L44.0337891,52.7988281 L44.0337891,54 L39.0064453,54 Z M51.0498047,51.6738281 C51.0498047,52.4355507 50.7744169,53.033201 50.2236329,53.4667969 C49.6728489,53.9003928 48.9130908,54.1171875 47.944336,54.1171875 C46.9755812,54.1171875 46.1826203,53.9667984 45.5654297,53.6660156 L45.5654297,52.3417969 C45.9560567,52.5253915 46.3710916,52.6699213 46.8105469,52.7753906 C47.2500023,52.8808599 47.6591779,52.9335938 48.038086,52.9335938 C48.5927763,52.9335938 49.0019519,52.8281261 49.2656251,52.6171875 C49.5292983,52.4062489 49.6611329,52.1230487 49.6611329,51.7675781 C49.6611329,51.447264 49.5400403,51.1757824 49.2978516,50.953125 C49.0556629,50.7304676 48.5556679,50.4667984 47.7978516,50.1621094 C47.0165977,49.8457015 46.465822,49.484377 46.1455079,49.078125 C45.8251938,48.671873 45.6650391,48.1835966 45.6650391,47.6132812 C45.6650391,46.8984339 45.9189428,46.3359396 46.4267579,45.9257812 C46.9345729,45.5156229 47.6162067,45.3105469 48.4716797,45.3105469 C49.2919963,45.3105469 50.1083944,45.4902326 50.9208985,45.8496094 L50.475586,46.9921875 C49.7138634,46.6718734 49.0341827,46.5117188 48.4365235,46.5117188 C47.9833962,46.5117188 47.6396497,46.6103506 47.4052735,46.8076172 C47.1708973,47.0048838 47.053711,47.2656234 47.053711,47.5898438 C47.053711,47.8125011 47.1005855,48.0029289 47.194336,48.1611328 C47.2880865,48.3193367 47.4423818,48.4687493 47.6572266,48.609375 C47.8720714,48.7500007 48.2587863,48.9355457 48.8173829,49.1660156 C49.4462923,49.4277357 49.9072252,49.6718739 50.2001954,49.8984375 C50.4931656,50.1250011 50.7080072,50.3808579 50.8447266,50.6660156 C50.9814461,50.9511733 51.0498047,51.2871074 51.0498047,51.6738281 Z" id="BATTERY-DETAILS" fill="#FFFFFF"></path>
            <path d="M107.340625,36.6738281 C107.340625,37.4355507 107.065237,38.033201 106.514453,38.4667969 C105.963669,38.9003928 105.203911,39.1171875 104.235156,39.1171875 C103.266401,39.1171875 102.473441,38.9667984 101.85625,38.6660156 L101.85625,37.3417969 C102.246877,37.5253915 102.661912,37.6699213 103.101367,37.7753906 C103.540822,37.8808599 103.949998,37.9335938 104.328906,37.9335938 C104.883596,37.9335938 105.292772,37.8281261 105.556445,37.6171875 C105.820118,37.4062489 105.951953,37.1230487 105.951953,36.7675781 C105.951953,36.447264 105.830861,36.1757824 105.588672,35.953125 C105.346483,35.7304676 104.846488,35.4667984 104.088672,35.1621094 C103.307418,34.8457015 102.756642,34.484377 102.436328,34.078125 C102.116014,33.671873 101.955859,33.1835966 101.955859,32.6132812 C101.955859,31.8984339 102.209763,31.3359396 102.717578,30.9257812 C103.225393,30.5156229 103.907027,30.3105469 104.7625,30.3105469 C105.582817,30.3105469 106.399215,30.4902326 107.211719,30.8496094 L106.766406,31.9921875 C106.004684,31.6718734 105.325003,31.5117188 104.727344,31.5117188 C104.274216,31.5117188 103.93047,31.6103506 103.696094,31.8076172 C103.461718,32.0048838 103.344531,32.2656234 103.344531,32.5898438 C103.344531,32.8125011 103.391406,33.0029289 103.485156,33.1611328 C103.578907,33.3193367 103.733202,33.4687493 103.948047,33.609375 C104.162892,33.7500007 104.549607,33.9355457 105.108203,34.1660156 C105.737112,34.4277357 106.198045,34.6718739 106.491016,34.8984375 C106.783986,35.1250011 106.998827,35.3808579 107.135547,35.6660156 C107.272266,35.9511733 107.340625,36.2871074 107.340625,36.6738281 Z M112.01875,34.3417969 L114.046094,30.4335938 L115.569531,30.4335938 L112.716016,35.6777344 L112.716016,39 L111.309766,39 L111.309766,35.7246094 L108.467969,30.4335938 L109.991406,30.4335938 L112.01875,34.3417969 Z M122.239844,36.6738281 C122.239844,37.4355507 121.964456,38.033201 121.413672,38.4667969 C120.862888,38.9003928 120.10313,39.1171875 119.134375,39.1171875 C118.16562,39.1171875 117.372659,38.9667984 116.755469,38.6660156 L116.755469,37.3417969 C117.146096,37.5253915 117.561131,37.6699213 118.000586,37.7753906 C118.440041,37.8808599 118.849217,37.9335938 119.228125,37.9335938 C119.782815,37.9335938 120.191991,37.8281261 120.455664,37.6171875 C120.719337,37.4062489 120.851172,37.1230487 120.851172,36.7675781 C120.851172,36.447264 120.730079,36.1757824 120.487891,35.953125 C120.245702,35.7304676 119.745707,35.4667984 118.987891,35.1621094 C118.206637,34.8457015 117.655861,34.484377 117.335547,34.078125 C117.015233,33.671873 116.855078,33.1835966 116.855078,32.6132812 C116.855078,31.8984339 117.108982,31.3359396 117.616797,30.9257812 C118.124612,30.5156229 118.806246,30.3105469 119.661719,30.3105469 C120.482035,30.3105469 121.298433,30.4902326 122.110937,30.8496094 L121.665625,31.9921875 C120.903902,31.6718734 120.224222,31.5117188 119.626562,31.5117188 C119.173435,31.5117188 118.829689,31.6103506 118.595312,31.8076172 C118.360936,32.0048838 118.24375,32.2656234 118.24375,32.5898438 C118.24375,32.8125011 118.290625,33.0029289 118.384375,33.1611328 C118.478125,33.3193367 118.632421,33.4687493 118.847266,33.609375 C119.06211,33.7500007 119.448825,33.9355457 120.007422,34.1660156 C120.636331,34.4277357 121.097264,34.6718739 121.390234,34.8984375 C121.683205,35.1250011 121.898046,35.3808579 122.034766,35.6660156 C122.171485,35.9511733 122.239844,36.2871074 122.239844,36.6738281 Z M127.457031,39 L126.056641,39 L126.056641,31.6347656 L123.537109,31.6347656 L123.537109,30.4335938 L129.976562,30.4335938 L129.976562,31.6347656 L127.457031,31.6347656 L127.457031,39 Z M136.734766,39 L131.889063,39 L131.889063,30.4335938 L136.734766,30.4335938 L136.734766,31.6171875 L133.289453,31.6171875 L133.289453,33.9492188 L136.517969,33.9492188 L136.517969,35.1210938 L133.289453,35.1210938 L133.289453,37.8105469 L136.734766,37.8105469 L136.734766,39 Z M142.889453,39 L140.405078,31.8457031 L140.358203,31.8457031 C140.42461,32.9082084 140.457813,33.9042922 140.457813,34.8339844 L140.457813,39 L139.186328,39 L139.186328,30.4335938 L141.160938,30.4335938 L143.539844,37.2480469 L143.575,37.2480469 L146.024219,30.4335938 L148.004688,30.4335938 L148.004688,39 L146.657031,39 L146.657031,34.7636719 C146.657031,34.3378885 146.667773,33.7832065 146.689258,33.0996094 C146.710742,32.4160122 146.729297,32.0019538 146.744922,31.8574219 L146.698047,31.8574219 L144.125781,39 L142.889453,39 Z M108.420508,49.6347656 C108.420508,51.0488352 108.027934,52.1298791 107.242773,52.8779297 C106.457613,53.6259803 105.326765,54 103.850195,54 L101.453711,54 L101.453711,45.4335938 L104.102148,45.4335938 C105.465436,45.4335938 106.525973,45.8007776 107.283789,46.5351562 C108.041605,47.2695349 108.420508,48.3027277 108.420508,49.6347656 Z M106.943945,49.6816406 C106.943945,47.6308491 105.98497,46.6054688 104.066992,46.6054688 L102.854101,46.6054688 L102.854101,52.8222656 L103.850195,52.8222656 C105.912706,52.8222656 106.943945,51.7754011 106.943945,49.6816406 Z M115.706055,54 L110.860352,54 L110.860352,45.4335938 L115.706055,45.4335938 L115.706055,46.6171875 L112.260742,46.6171875 L112.260742,48.9492188 L115.489258,48.9492188 L115.489258,50.1210938 L112.260742,50.1210938 L112.260742,52.8105469 L115.706055,52.8105469 L115.706055,54 Z M121.116602,54 L119.716211,54 L119.716211,46.6347656 L117.19668,46.6347656 L117.19668,45.4335938 L123.636133,45.4335938 L123.636133,46.6347656 L121.116602,46.6347656 L121.116602,54 Z M130.025195,54 L129.169727,51.6210938 L125.894336,51.6210938 L125.056445,54 L123.579883,54 L126.784961,45.3984375 L128.308398,45.3984375 L131.513477,54 L130.025195,54 Z M128.800586,50.4140625 L127.997852,48.0820312 C127.939258,47.9257805 127.858204,47.6796892 127.754687,47.34375 C127.651171,47.0078108 127.579883,46.7617195 127.54082,46.6054688 C127.435351,47.0859399 127.281056,47.6113253 127.07793,48.1816406 L126.304492,50.4140625 L128.800586,50.4140625 Z M133.244336,54 L133.244336,45.4335938 L134.644727,45.4335938 L134.644727,54 L133.244336,54 Z M137.506445,54 L137.506445,45.4335938 L138.906836,45.4335938 L138.906836,52.7988281 L142.533789,52.7988281 L142.533789,54 L137.506445,54 Z M149.549805,51.6738281 C149.549805,52.4355507 149.274417,53.033201 148.723633,53.4667969 C148.172849,53.9003928 147.413091,54.1171875 146.444336,54.1171875 C145.475581,54.1171875 144.68262,53.9667984 144.06543,53.6660156 L144.06543,52.3417969 C144.456057,52.5253915 144.871092,52.6699213 145.310547,52.7753906 C145.750002,52.8808599 146.159178,52.9335938 146.538086,52.9335938 C147.092776,52.9335938 147.501952,52.8281261 147.765625,52.6171875 C148.029298,52.4062489 148.161133,52.1230487 148.161133,51.7675781 C148.161133,51.447264 148.04004,51.1757824 147.797852,50.953125 C147.555663,50.7304676 147.055668,50.4667984 146.297852,50.1621094 C145.516598,49.8457015 144.965822,49.484377 144.645508,49.078125 C144.325194,48.671873 144.165039,48.1835966 144.165039,47.6132812 C144.165039,46.8984339 144.418943,46.3359396 144.926758,45.9257812 C145.434573,45.5156229 146.116207,45.3105469 146.97168,45.3105469 C147.791996,45.3105469 148.608394,45.4902326 149.420898,45.8496094 L148.975586,46.9921875 C148.213863,46.6718734 147.534183,46.5117188 146.936523,46.5117188 C146.483396,46.5117188 146.13965,46.6103506 145.905273,46.8076172 C145.670897,47.0048838 145.553711,47.2656234 145.553711,47.5898438 C145.553711,47.8125011 145.600586,48.0029289 145.694336,48.1611328 C145.788086,48.3193367 145.942382,48.4687493 146.157227,48.609375 C146.372071,48.7500007 146.758786,48.9355457 147.317383,49.1660156 C147.946292,49.4277357 148.407225,49.6718739 148.700195,49.8984375 C148.993166,50.1250011 149.208007,50.3808579 149.344727,50.6660156 C149.481446,50.9511733 149.549805,51.2871074 149.549805,51.6738281 Z" id="System-details" fill="#FFE344"></path>
            <path d="M186.775586,39 L186.775586,30.4335938 L188.175976,30.4335938 L188.175976,39 L186.775586,39 Z M194.74082,39 L192.256445,31.8457031 L192.20957,31.8457031 C192.275977,32.9082084 192.30918,33.9042922 192.30918,34.8339844 L192.30918,39 L191.037695,39 L191.037695,30.4335938 L193.012305,30.4335938 L195.391211,37.2480469 L195.426367,37.2480469 L197.875586,30.4335938 L199.856055,30.4335938 L199.856055,39 L198.508398,39 L198.508398,34.7636719 C198.508398,34.3378885 198.51914,33.7832065 198.540625,33.0996094 C198.562109,32.4160122 198.580664,32.0019538 198.596289,31.8574219 L198.549414,31.8574219 L195.977148,39 L194.74082,39 Z M208.383789,33.0234375 C208.383789,33.9179732 208.090823,34.6035132 207.504883,35.0800781 C206.918942,35.556643 206.084966,35.7949219 205.00293,35.7949219 L204.112305,35.7949219 L204.112305,39 L202.711914,39 L202.711914,30.4335938 L205.178711,30.4335938 C206.249029,30.4335938 207.050779,30.6523416 207.583984,31.0898438 C208.11719,31.5273459 208.383789,32.1718707 208.383789,33.0234375 Z M204.112305,34.6171875 L204.856445,34.6171875 C205.575199,34.6171875 206.102537,34.4921887 206.438477,34.2421875 C206.774416,33.9921863 206.942383,33.6015652 206.942383,33.0703125 C206.942383,32.5781225 206.791994,32.2109387 206.491211,31.96875 C206.190428,31.7265613 205.721683,31.6054688 205.084961,31.6054688 L204.112305,31.6054688 L204.112305,34.6171875 Z M218.300195,34.7050781 C218.300195,36.0996163 217.951566,37.1835899 217.254297,37.9570312 C216.557028,38.7304726 215.569733,39.1171875 214.292383,39.1171875 C212.999408,39.1171875 212.006253,38.7334023 211.312891,37.9658203 C210.619528,37.1982383 210.272852,36.1074289 210.272852,34.6933594 C210.272852,33.2792898 210.621481,32.1933632 211.31875,31.4355469 C212.016019,30.6777306 213.011126,30.2988281 214.304102,30.2988281 C215.577545,30.2988281 216.561911,30.6835899 217.257227,31.453125 C217.952543,32.2226601 218.300195,33.3066336 218.300195,34.7050781 Z M211.761133,34.7050781 C211.761133,35.7597709 211.974021,36.5595676 212.399805,37.1044922 C212.825588,37.6494168 213.456441,37.921875 214.292383,37.921875 C215.124418,37.921875 215.752342,37.6523464 216.176172,37.1132812 C216.600002,36.5742161 216.811914,35.7714897 216.811914,34.7050781 C216.811914,33.6542916 216.601955,32.8574246 216.182031,32.3144531 C215.762107,31.7714817 215.136137,31.5 214.304102,31.5 C213.464254,31.5 212.830471,31.7714817 212.402734,32.3144531 C211.974998,32.8574246 211.761133,33.6542916 211.761133,34.7050781 Z M222.14043,34.4179688 L223.113086,34.4179688 C223.765433,34.4179688 224.238084,34.2968762 224.531055,34.0546875 C224.824025,33.8124988 224.970508,33.4531274 224.970508,32.9765625 C224.970508,32.4921851 224.812306,32.1445323 224.495898,31.9335938 C224.179491,31.7226552 223.702933,31.6171875 223.066211,31.6171875 L222.14043,31.6171875 L222.14043,34.4179688 Z M222.14043,35.578125 L222.14043,39 L220.740039,39 L220.740039,30.4335938 L223.159961,30.4335938 C224.265435,30.4335938 225.083786,30.6406229 225.615039,31.0546875 C226.146292,31.4687521 226.411914,32.0937458 226.411914,32.9296875 C226.411914,33.9960991 225.857232,34.7558571 224.747852,35.2089844 L227.167773,39 L225.574023,39 L223.523242,35.578125 L222.14043,35.578125 Z M231.968945,39 L230.568555,39 L230.568555,31.6347656 L228.049023,31.6347656 L228.049023,30.4335938 L234.488477,30.4335938 L234.488477,31.6347656 L231.968945,31.6347656 L231.968945,39 Z M240.877539,39 L240.02207,36.6210938 L236.74668,36.6210938 L235.908789,39 L234.432227,39 L237.637305,30.3984375 L239.160742,30.3984375 L242.36582,39 L240.877539,39 Z M239.65293,35.4140625 L238.850195,33.0820312 C238.791601,32.9257805 238.710547,32.6796892 238.607031,32.34375 C238.503515,32.0078108 238.432227,31.7617195 238.393164,31.6054688 C238.287695,32.0859399 238.133399,32.6113253 237.930273,33.1816406 L237.156836,35.4140625 L239.65293,35.4140625 Z M251.233398,39 L249.516602,39 L245.303711,32.1738281 L245.256836,32.1738281 L245.286133,32.5546875 C245.340821,33.2812536 245.368164,33.9453095 245.368164,34.546875 L245.368164,39 L244.09668,39 L244.09668,30.4335938 L245.795898,30.4335938 L249.99707,37.2246094 L250.032227,37.2246094 C250.024414,37.1347652 250.008789,36.80762 249.985352,36.2431641 C249.961914,35.6787081 249.950195,35.2382828 249.950195,34.921875 L249.950195,30.4335938 L251.233398,30.4335938 L251.233398,39 Z M257.054102,39 L255.653711,39 L255.653711,31.6347656 L253.13418,31.6347656 L253.13418,30.4335938 L259.573633,30.4335938 L259.573633,31.6347656 L257.054102,31.6347656 L257.054102,39 Z M208.48457,54 L208.48457,45.4335938 L209.884961,45.4335938 L209.884961,54 L208.48457,54 Z M219.883398,54 L218.166602,54 L213.953711,47.1738281 L213.906836,47.1738281 L213.936133,47.5546875 C213.990821,48.2812536 214.018164,48.9453095 214.018164,49.546875 L214.018164,54 L212.74668,54 L212.74668,45.4335938 L214.445898,45.4335938 L218.64707,52.2246094 L218.682227,52.2246094 C218.674414,52.1347652 218.658789,51.80762 218.635352,51.2431641 C218.611914,50.6787081 218.600195,50.2382828 218.600195,49.921875 L218.600195,45.4335938 L219.883398,45.4335938 L219.883398,54 Z M224.133789,54 L222.745117,54 L222.745117,45.4335938 L227.579102,45.4335938 L227.579102,46.6171875 L224.133789,46.6171875 L224.133789,49.2949219 L227.362305,49.2949219 L227.362305,50.484375 L224.133789,50.484375 L224.133789,54 Z M237.337305,49.7050781 C237.337305,51.0996163 236.988675,52.1835899 236.291406,52.9570312 C235.594137,53.7304726 234.606842,54.1171875 233.329492,54.1171875 C232.036517,54.1171875 231.043363,53.7334023 230.35,52.9658203 C229.656637,52.1982383 229.309961,51.1074289 229.309961,49.6933594 C229.309961,48.2792898 229.65859,47.1933632 230.355859,46.4355469 C231.053129,45.6777306 232.048236,45.2988281 233.341211,45.2988281 C234.614655,45.2988281 235.59902,45.6835899 236.294336,46.453125 C236.989652,47.2226601 237.337305,48.3066336 237.337305,49.7050781 Z M230.798242,49.7050781 C230.798242,50.7597709 231.011131,51.5595676 231.436914,52.1044922 C231.862697,52.6494168 232.493551,52.921875 233.329492,52.921875 C234.161528,52.921875 234.789451,52.6523464 235.213281,52.1132812 C235.637112,51.5742161 235.849023,50.7714897 235.849023,49.7050781 C235.849023,48.6542916 235.639065,47.8574246 235.219141,47.3144531 C234.799217,46.7714817 234.173246,46.5 233.341211,46.5 C232.501363,46.5 231.86758,46.7714817 231.439844,47.3144531 C231.012107,47.8574246 230.798242,48.6542916 230.798242,49.7050781 Z" id="IMPORTANT-INFO" fill="#FFFFFF" opacity="0.6"></path>
            <path d="M38,8 L110,8" id="Line-Copy-2" stroke="#FFFFFF" stroke-linecap="square"></path>
            <path d="M140,8 L211,8" id="Line-Copy-4" stroke="#FFFFFF" opacity="0.6" stroke-linecap="square"></path>
        </g>
    </g>
</svg>