<?xml version="1.0" encoding="UTF-8"?>
<svg width="768px" height="170px" viewBox="0 0 768 170" version="1.1" xmlns="http://www.w3.org/2000/svg" xmlns:xlink="http://www.w3.org/1999/xlink">
    <!-- Generator: Sketch 44.1 (41455) - http://www.bohemiancoding.com/sketch -->
    <title>scc-houseonhill-importantinfo-wd+tb</title>
    <desc>Created with Sketch.</desc>
    <defs>
        <polygon id="path-1" points="0 170 768 170 768 0 0 0"></polygon>
        <linearGradient x1="50%" y1="100%" x2="50%" y2="28.8730469%" id="linearGradient-3">
            <stop stop-color="#001CB0" offset="0%"></stop>
            <stop stop-color="#001CB0" stop-opacity="0.8" offset="100%"></stop>
        </linearGradient>
    </defs>
    <g id="Page-1" stroke="none" stroke-width="1" fill="none" fill-rule="evenodd">
        <g id="scc-houseonhill-importantinfo-wd+tb">
            <rect id="Rectangle" fill="#FFFFFF" x="0" y="0" width="768" height="170"></rect>
            <g id="Group-102-Copy-2">
                <mask id="mask-2" fill="white">
                    <use xlink:href="#path-1"></use>
                </mask>
                <g id="Mask"></g>
                <g id="Group-102" mask="url(#mask-2)">
                    <g transform="translate(-109.000000, 0.000000)">
                        <g id="Group-41">
                            <circle id="Oval-9" fill="#FFE344" cx="724" cy="65" r="65"></circle>
                            <g id="Group-74" transform="translate(0.000000, 39.000000)">
                                <g id="Group-49-Copy">
                                    <g id="Group-49">
                                        <g id="Group-32">
                                            <path d="M985.27452,48.1591816 C985.27452,48.1591816 932.413692,10.8041966 833.035335,10.8041966 C733.656979,10.8041966 718.151136,35.472583 582.122606,35.472583 C446.094076,35.472583 427.064178,0.936842105 334.733932,0.936842105 C242.403686,0.936842105 218.44011,33.3581498 111.308833,33.3581498 L0,33.3581498 L0,60.2943616 L983.864898,59.4361583" id="Path-3" fill="#FFFFFF"></path>
                                            <path d="M985.27452,48.1591816 C985.27452,48.1591816 932.413692,10.8041966 833.035335,10.8041966 C733.656979,10.8041966 718.151136,35.472583 582.122606,35.472583 C446.094076,35.472583 427.064178,0.936842105 334.733932,0.936842105 C242.403686,0.936842105 218.44011,33.3581498 111.308833,33.3581498 L0,33.3581498 L0,60.2943616 L983.864898,59.4361583" id="Path-3" fill="#B3BBE7"></path>
                                            <path d="M57.8616027,50.92015 C57.8616027,50.92015 101.890254,19.8065694 184.66412,19.8065694 C267.437985,19.8065694 280.353056,40.3532736 393.653453,40.3532736 C506.95385,40.3532736 522.804165,11.5878878 599.707543,11.5878878 C676.610922,11.5878878 696.570577,38.5921275 785.801978,38.5921275 L878.512933,38.5921275 L878.90625,155.5 L59.0357001,160.5 L57.8616027,50.92015 Z" id="Path-3" fill="#001CB0"></path>
                                        </g>
                                    </g>
                                </g>
                            </g>
                        </g>
                        <g id="House-Copy-10" transform="translate(555.000000, 4.000000)">
                            <g id="Group-37">
                                <g id="Group-36">
                                    <polygon id="Fill-2" fill="#B3BBE7" points="6.4890803 53.6005015 84.3072289 53.6005015 84.3072289 25.3822617 6.4890803 25.3822617"></polygon>
                                    <polygon id="Fill-3" fill="#808ED7" points="40.8057456 53.6005015 84.3072289 53.6005015 84.3072289 25.3822617 40.8057456 25.3822617"></polygon>
                                    <polygon id="Fill-1" fill="#B3BBE7" points="0 27.8981413 23.6480481 27.8981413 47.2948259 27.8981413 23.6480481 2.85370339"></polygon>
                                    <polygon id="Fill-4" fill="#001CB0" points="18.4788884 58.3363754 28.5974328 58.3363754 28.5974328 36.4648335 18.4788884 36.4648335"></polygon>
                                    <polygon id="Fill-5" fill="#001CB0" points="49.2397714 44.0336049 59.3583158 44.0336049 59.3583158 33.9275317 49.2397714 33.9275317"></polygon>
                                    <polygon id="Fill-6" fill="#001CB0" points="65.7546586 44.0336049 75.873203 44.0336049 75.873203 33.9275317 65.7546586 33.9275317"></polygon>
                                    <polygon id="Fill-9" fill="#001CB0" points="64.9486051 2.85446458 88.5966532 27.8976338 47.2954611 27.8976338 23.6474129 2.85446458"></polygon>
                                    <polygon id="Fill-10" fill-opacity="0.5" fill="#F6A623" style="mix-blend-mode: multiply;" points="26.3690663 2.85446458 47.021568 24.7260065 85.6016149 24.7260065 64.9491133 2.85446458"></polygon>
                                    <g id="Group-33" transform="translate(26.066232, 0.000000)">
                                        <polygon id="Fill-12" fill="#FFFFFF" points="28.8821005 0.317162731 19.4305035 0.317162731 9.97763614 0.317162731 0.524768775 0.317162731 5.83875133 5.94362958 11.1514635 11.5700964 16.4641757 17.1978319 21.7768879 22.8230301 31.2297552 22.8230301 40.6813522 22.8230301 50.1342196 22.8230301 59.5858166 22.8230301 54.2731044 17.1978319 48.9603922 11.5700964 43.6476801 5.94362958 38.3336975 0.317162731"></polygon>
                                        <polygon id="Fill-12" fill="url(#linearGradient-3)" points="28.8821005 0.317162731 19.4305035 0.317162731 9.97763614 0.317162731 0.524768775 0.317162731 5.83875133 5.94362958 11.1514635 11.5700964 16.4641757 17.1978319 21.7768879 22.8230301 31.2297552 22.8230301 40.6813522 22.8230301 50.1342196 22.8230301 59.5858166 22.8230301 54.2731044 17.1978319 48.9603922 11.5700964 43.6476801 5.94362958 38.3336975 0.317162731"></polygon>
                                    </g>
                                    <path d="M46.5318381,11.887386 L51.2449328,16.8795274 L42.6673545,16.8795274 L37.9542597,11.887386 L46.5318381,11.887386 Z M41.2178555,6.25965052 L45.9322206,11.2530606 L37.3546423,11.2530606 L32.6402772,6.25965052 L41.2178555,6.25965052 Z M65.7094333,11.2530606 L60.9950682,6.25965052 L69.5726465,6.25965052 L74.288282,11.2530606 L65.7094333,11.2530606 Z M66.3090507,11.887386 L74.8866291,11.887386 L79.5997238,16.8795274 L71.0221454,16.8795274 L66.3090507,11.887386 Z M56.8574537,11.887386 L65.4350321,11.887386 L70.1481268,16.8795274 L61.5705485,16.8795274 L56.8574537,11.887386 Z M55.9834351,11.887386 L60.6965298,16.8795274 L52.1189515,16.8795274 L47.4058567,11.887386 L55.9834351,11.887386 Z M51.5434712,6.25965052 L60.1210495,6.25965052 L64.836685,11.2530606 L56.2578363,11.2530606 L51.5434712,6.25965052 Z M55.3838176,11.2530606 L46.8062393,11.2530606 L42.0918742,6.25965052 L50.6694525,6.25965052 L55.3838176,11.2530606 Z M64.2612047,0.634452327 L68.9742994,5.62532506 L60.3967211,5.62532506 L55.6836263,0.634452327 L64.2612047,0.634452327 Z M54.8096077,0.634452327 L59.5227024,5.62532506 L50.9451241,5.62532506 L46.2320294,0.634452327 L54.8096077,0.634452327 Z M45.3567403,0.634452327 L50.0711054,5.62532506 L41.4935271,5.62532506 L36.7804324,0.634452327 L45.3567403,0.634452327 Z M35.9051433,0.634452327 L40.6195085,5.62532506 L32.0419301,5.62532506 L27.3288354,0.634452327 L35.9051433,0.634452327 Z M47.981337,22.5059943 L43.2669719,17.5138529 L51.8445503,17.5138529 L56.5589154,22.5059943 L47.981337,22.5059943 Z M57.432934,22.5059943 L52.7185689,17.5138529 L61.2961472,17.5138529 L66.0105124,22.5059943 L57.432934,22.5059943 Z M66.884531,22.5059943 L62.1701659,17.5138529 L70.7477442,17.5138529 L75.4621094,22.5059943 L66.884531,22.5059943 Z M76.3348576,22.5059943 L71.6217629,17.5138529 L80.1993412,17.5138529 L84.9137063,22.5059943 L76.3348576,22.5059943 Z M85.9655776,22.8282316 C85.9655776,22.8256943 85.966848,22.8244256 85.966848,22.823157 C85.966848,22.7812915 85.9376294,22.7521125 85.9223848,22.7153217 C85.9084107,22.6785308 85.9109515,22.6366653 85.8804624,22.604949 L80.5639391,16.9746762 C80.5626688,16.9734076 80.5626688,16.9721389 80.560128,16.9708703 L75.2499566,11.3469407 L75.2486862,11.3456721 L69.9397851,5.72301118 C69.9372444,5.72174253 69.935974,5.71920523 69.9347036,5.71793658 L64.6296137,0.0990816372 C64.6283433,0.0990816372 64.6283433,0.0990816372 64.627073,0.0978129862 C64.5940432,0.0648280622 64.5432282,0.0572161567 64.498765,0.0407236947 C64.4657352,0.0280371854 64.4377869,0.00266416694 64.4034868,0.00139551602 C64.4022164,0.00139551602 64.400946,0.000126865092 64.3996757,0.000126865092 L26.5920173,0.000126865092 C26.5488245,0.000126865092 26.5196059,0.0293058363 26.4814946,0.0457982984 C26.4446537,0.0597534585 26.4040017,0.0584848076 26.3735127,0.0863951279 C26.3722423,0.0876637788 26.3735127,0.0889324298 26.3722423,0.0902010807 C26.3417533,0.120648703 26.3379421,0.166320136 26.3201569,0.204379664 C26.3061827,0.241170541 26.2769641,0.274155465 26.2756937,0.313483643 C26.2756937,0.314752294 26.2744233,0.316020945 26.2744233,0.317289596 C26.2744233,0.355349124 26.3023716,0.380722142 26.313805,0.413707066 C26.3290495,0.455572547 26.3277791,0.50124398 26.3608089,0.535497555 L36.9925851,11.7947745 L47.612928,23.0413649 L47.6141984,23.0413649 C47.6713653,23.1022602 47.751399,23.1403197 47.8415957,23.1403197 L85.649254,23.1403197 C85.7280173,23.1403197 85.8067806,23.1124094 85.8677587,23.0540515 C85.8690291,23.0527828 85.8677587,23.0515142 85.8690291,23.0502455 C85.9007885,23.0197979 85.9045996,22.9741264 85.9211145,22.9347983 C85.936359,22.8980074 85.9655776,22.8662911 85.9655776,22.8282316 L85.9655776,22.8282316 Z" id="Fill-13" fill="#99A4DF"></path>
                                </g>
                            </g>
                        </g>
                    </g>
                </g>
            </g>
        </g>
        <g id="Group-75" transform="translate(181.000000, 104.000000)">
            <g id="Group-34">
                <circle id="Oval-2-Copy-4" fill="#FFFFFF" cx="55" cy="8" r="4"></circle>
                <circle id="Oval-2-Copy-4" fill="#FFFFFF" cx="203" cy="8" r="4"></circle>
                <circle id="Oval-2-Copy-4" fill="#FFE344" cx="351" cy="8" r="8"></circle>
                <path d="M1.96093732,32.4335938 L4.50390607,32.4335938 C5.68359947,32.4335938 6.53613001,32.605467 7.06152326,32.9492188 C7.58691651,33.2929705 7.8496092,33.8359338 7.8496092,34.578125 C7.8496092,35.0781275 7.72070424,35.494139 7.46289045,35.8261719 C7.20507666,36.1582048 6.83398662,36.3671871 6.3496092,36.453125 L6.3496092,36.5117188 C6.9511747,36.6250006 7.39355309,36.8486311 7.67675763,37.1826172 C7.95996217,37.5166032 8.10156232,37.9687471 8.10156232,38.5390625 C8.10156232,39.3085976 7.83301032,39.9111306 7.29589826,40.3466797 C6.7587862,40.7822287 6.01172336,41 5.05468732,41 L1.96093732,41 L1.96093732,32.4335938 Z M3.36132795,35.9726562 L4.7089842,35.9726562 C5.29492463,35.9726562 5.72265472,35.8798837 5.99218732,35.6943359 C6.26171992,35.5087881 6.3964842,35.1933616 6.3964842,34.7480469 C6.3964842,34.3457011 6.25097784,34.0546884 5.95996076,33.875 C5.66894368,33.6953116 5.20703424,33.6054688 4.57421857,33.6054688 L3.36132795,33.6054688 L3.36132795,35.9726562 Z M3.36132795,37.109375 L3.36132795,39.8222656 L4.8496092,39.8222656 C5.43554963,39.8222656 5.87792801,39.7099621 6.17675763,39.4853516 C6.47558725,39.2607411 6.62499982,38.9062524 6.62499982,38.421875 C6.62499982,37.9765603 6.47265759,37.6464854 6.16796857,37.4316406 C5.86327955,37.2167958 5.40039355,37.109375 4.7792967,37.109375 L3.36132795,37.109375 Z M15.5570311,41 L14.7015623,38.6210938 L11.4261717,38.6210938 L10.5882811,41 L9.1117186,41 L12.3167967,32.3984375 L13.8402342,32.3984375 L17.0453123,41 L15.5570311,41 Z M14.3324217,37.4140625 L13.5296873,35.0820312 C13.4710933,34.9257805 13.3900394,34.6796892 13.2865233,34.34375 C13.1830071,34.0078108 13.1117188,33.7617195 13.0726561,33.6054688 C12.9671868,34.0859399 12.8128915,34.6113253 12.6097655,35.1816406 L11.836328,37.4140625 L14.3324217,37.4140625 Z M20.8972655,41 L19.4968749,41 L19.4968749,33.6347656 L16.9773436,33.6347656 L16.9773436,32.4335938 L23.4167967,32.4335938 L23.4167967,33.6347656 L20.8972655,33.6347656 L20.8972655,41 Z M28.5285155,41 L27.1281249,41 L27.1281249,33.6347656 L24.6085936,33.6347656 L24.6085936,32.4335938 L31.0480468,32.4335938 L31.0480468,33.6347656 L28.5285155,33.6347656 L28.5285155,41 Z M37.8062499,41 L32.9605468,41 L32.9605468,32.4335938 L37.8062499,32.4335938 L37.8062499,33.6171875 L34.3609374,33.6171875 L34.3609374,35.9492188 L37.589453,35.9492188 L37.589453,37.1210938 L34.3609374,37.1210938 L34.3609374,39.8105469 L37.8062499,39.8105469 L37.8062499,41 Z M41.6582031,36.4179688 L42.6308593,36.4179688 C43.2832063,36.4179688 43.7558579,36.2968762 44.0488281,36.0546875 C44.3417983,35.8124988 44.4882812,35.4531274 44.4882812,34.9765625 C44.4882812,34.4921851 44.3300796,34.1445323 44.0136718,33.9335938 C43.697264,33.7226552 43.2207062,33.6171875 42.5839843,33.6171875 L41.6582031,33.6171875 L41.6582031,36.4179688 Z M41.6582031,37.578125 L41.6582031,41 L40.2578124,41 L40.2578124,32.4335938 L42.6777343,32.4335938 C43.7832086,32.4335938 44.6015598,32.6406229 45.1328124,33.0546875 C45.6640651,33.4687521 45.9296874,34.0937458 45.9296874,34.9296875 C45.9296874,35.9960991 45.3750055,36.7558571 44.2656249,37.2089844 L46.6855468,41 L45.0917968,41 L43.0410156,37.578125 L41.6582031,37.578125 Z M50.9476562,36.3417969 L52.975,32.4335938 L54.4984375,32.4335938 L51.6449218,37.6777344 L51.6449218,41 L50.2386718,41 L50.2386718,37.7246094 L47.396875,32.4335938 L48.9203125,32.4335938 L50.9476562,36.3417969 Z M66.9132813,36.6347656 C66.9132813,38.0488352 66.5207071,39.1298791 65.7355469,39.8779297 C64.9503867,40.6259803 63.8195386,41 62.3429688,41 L59.9464844,41 L59.9464844,32.4335938 L62.5949219,32.4335938 C63.95821,32.4335938 65.0187462,32.8007776 65.7765625,33.5351562 C66.5343788,34.2695349 66.9132813,35.3027277 66.9132813,36.6347656 Z M65.4367188,36.6816406 C65.4367188,34.6308491 64.477744,33.6054688 62.5597656,33.6054688 L61.346875,33.6054688 L61.346875,39.8222656 L62.3429688,39.8222656 C64.4054791,39.8222656 65.4367188,38.7754011 65.4367188,36.6816406 Z M74.1988282,41 L69.353125,41 L69.353125,32.4335938 L74.1988282,32.4335938 L74.1988282,33.6171875 L70.7535157,33.6171875 L70.7535157,35.9492188 L73.9820313,35.9492188 L73.9820313,37.1210938 L70.7535157,37.1210938 L70.7535157,39.8105469 L74.1988282,39.8105469 L74.1988282,41 Z M79.6093751,41 L78.2089844,41 L78.2089844,33.6347656 L75.6894532,33.6347656 L75.6894532,32.4335938 L82.1289063,32.4335938 L82.1289063,33.6347656 L79.6093751,33.6347656 L79.6093751,41 Z M88.5179688,41 L87.6625001,38.6210938 L84.3871095,38.6210938 L83.5492188,41 L82.0726563,41 L85.2777345,32.3984375 L86.801172,32.3984375 L90.0062501,41 L88.5179688,41 Z M87.2933595,37.4140625 L86.4906251,35.0820312 C86.432031,34.9257805 86.3509772,34.6796892 86.247461,34.34375 C86.1439449,34.0078108 86.0726565,33.7617195 86.0335938,33.6054688 C85.9281246,34.0859399 85.7738292,34.6113253 85.5707032,35.1816406 L84.7972657,37.4140625 L87.2933595,37.4140625 Z M91.7371095,41 L91.7371095,32.4335938 L93.1375001,32.4335938 L93.1375001,41 L91.7371095,41 Z M95.9992189,41 L95.9992189,32.4335938 L97.3996095,32.4335938 L97.3996095,39.7988281 L101.026563,39.7988281 L101.026563,41 L95.9992189,41 Z M108.042578,38.6738281 C108.042578,39.4355507 107.76719,40.033201 107.216406,40.4667969 C106.665622,40.9003928 105.905864,41.1171875 104.93711,41.1171875 C103.968355,41.1171875 103.175394,40.9667984 102.558203,40.6660156 L102.558203,39.3417969 C102.94883,39.5253915 103.363865,39.6699213 103.80332,39.7753906 C104.242776,39.8808599 104.651951,39.9335938 105.03086,39.9335938 C105.58555,39.9335938 105.994725,39.8281261 106.258399,39.6171875 C106.522072,39.4062489 106.653906,39.1230487 106.653906,38.7675781 C106.653906,38.447264 106.532814,38.1757824 106.290625,37.953125 C106.048436,37.7304676 105.548441,37.4667984 104.790625,37.1621094 C104.009371,36.8457015 103.458596,36.484377 103.138281,36.078125 C102.817967,35.671873 102.657813,35.1835966 102.657813,34.6132812 C102.657813,33.8984339 102.911716,33.3359396 103.419531,32.9257812 C103.927346,32.5156229 104.60898,32.3105469 105.464453,32.3105469 C106.28477,32.3105469 107.101168,32.4902326 107.913672,32.8496094 L107.46836,33.9921875 C106.706637,33.6718734 106.026956,33.5117188 105.429297,33.5117188 C104.97617,33.5117188 104.632423,33.6103506 104.398047,33.8076172 C104.163671,34.0048838 104.046485,34.2656234 104.046485,34.5898438 C104.046485,34.8125011 104.093359,35.0029289 104.18711,35.1611328 C104.28086,35.3193367 104.435155,35.4687493 104.65,35.609375 C104.864845,35.7500007 105.25156,35.9355457 105.810156,36.1660156 C106.439066,36.4277357 106.899999,36.6718739 107.192969,36.8984375 C107.485939,37.1250011 107.700781,37.3808579 107.8375,37.6660156 C107.97422,37.9511733 108.042578,38.2871074 108.042578,38.6738281 Z" id="BATTERY-DETAILS" fill="#FFFFFF"></path>
                <path d="M158.304883,38.6738281 C158.304883,39.4355507 158.029495,40.033201 157.478711,40.4667969 C156.927927,40.9003928 156.168169,41.1171875 155.199414,41.1171875 C154.230659,41.1171875 153.437698,40.9667984 152.820508,40.6660156 L152.820508,39.3417969 C153.211135,39.5253915 153.62617,39.6699213 154.065625,39.7753906 C154.50508,39.8808599 154.914256,39.9335938 155.293164,39.9335938 C155.847854,39.9335938 156.25703,39.8281261 156.520703,39.6171875 C156.784376,39.4062489 156.916211,39.1230487 156.916211,38.7675781 C156.916211,38.447264 156.795118,38.1757824 156.55293,37.953125 C156.310741,37.7304676 155.810746,37.4667984 155.05293,37.1621094 C154.271676,36.8457015 153.7209,36.484377 153.400586,36.078125 C153.080272,35.671873 152.920117,35.1835966 152.920117,34.6132812 C152.920117,33.8984339 153.174021,33.3359396 153.681836,32.9257812 C154.189651,32.5156229 154.871285,32.3105469 155.726758,32.3105469 C156.547074,32.3105469 157.363472,32.4902326 158.175976,32.8496094 L157.730664,33.9921875 C156.968941,33.6718734 156.289261,33.5117188 155.691601,33.5117188 C155.238474,33.5117188 154.894728,33.6103506 154.660351,33.8076172 C154.425975,34.0048838 154.308789,34.2656234 154.308789,34.5898438 C154.308789,34.8125011 154.355663,35.0029289 154.449414,35.1611328 C154.543164,35.3193367 154.69746,35.4687493 154.912305,35.609375 C155.127149,35.7500007 155.513864,35.9355457 156.072461,36.1660156 C156.70137,36.4277357 157.162303,36.6718739 157.455273,36.8984375 C157.748243,37.1250011 157.963085,37.3808579 158.099805,37.6660156 C158.236524,37.9511733 158.304883,38.2871074 158.304883,38.6738281 Z M162.983008,36.3417969 L165.010351,32.4335938 L166.533789,32.4335938 L163.680273,37.6777344 L163.680273,41 L162.274023,41 L162.274023,37.7246094 L159.432226,32.4335938 L160.955664,32.4335938 L162.983008,36.3417969 Z M173.204101,38.6738281 C173.204101,39.4355507 172.928714,40.033201 172.37793,40.4667969 C171.827146,40.9003928 171.067388,41.1171875 170.098633,41.1171875 C169.129878,41.1171875 168.336917,40.9667984 167.719726,40.6660156 L167.719726,39.3417969 C168.110353,39.5253915 168.525388,39.6699213 168.964844,39.7753906 C169.404299,39.8808599 169.813475,39.9335938 170.192383,39.9335938 C170.747073,39.9335938 171.156249,39.8281261 171.419922,39.6171875 C171.683595,39.4062489 171.81543,39.1230487 171.81543,38.7675781 C171.81543,38.447264 171.694337,38.1757824 171.452148,37.953125 C171.20996,37.7304676 170.709965,37.4667984 169.952148,37.1621094 C169.170894,36.8457015 168.620119,36.484377 168.299805,36.078125 C167.97949,35.671873 167.819336,35.1835966 167.819336,34.6132812 C167.819336,33.8984339 168.07324,33.3359396 168.581055,32.9257812 C169.08887,32.5156229 169.770503,32.3105469 170.625976,32.3105469 C171.446293,32.3105469 172.262691,32.4902326 173.075195,32.8496094 L172.629883,33.9921875 C171.86816,33.6718734 171.188479,33.5117188 170.59082,33.5117188 C170.137693,33.5117188 169.793946,33.6103506 169.55957,33.8076172 C169.325194,34.0048838 169.208008,34.2656234 169.208008,34.5898438 C169.208008,34.8125011 169.254882,35.0029289 169.348633,35.1611328 C169.442383,35.3193367 169.596678,35.4687493 169.811523,35.609375 C170.026368,35.7500007 170.413083,35.9355457 170.97168,36.1660156 C171.600589,36.4277357 172.061522,36.6718739 172.354492,36.8984375 C172.647462,37.1250011 172.862304,37.3808579 172.999023,37.6660156 C173.135743,37.9511733 173.204101,38.2871074 173.204101,38.6738281 Z M178.421289,41 L177.020898,41 L177.020898,33.6347656 L174.501367,33.6347656 L174.501367,32.4335938 L180.94082,32.4335938 L180.94082,33.6347656 L178.421289,33.6347656 L178.421289,41 Z M187.699023,41 L182.85332,41 L182.85332,32.4335938 L187.699023,32.4335938 L187.699023,33.6171875 L184.253711,33.6171875 L184.253711,35.9492188 L187.482226,35.9492188 L187.482226,37.1210938 L184.253711,37.1210938 L184.253711,39.8105469 L187.699023,39.8105469 L187.699023,41 Z M193.853711,41 L191.369336,33.8457031 L191.322461,33.8457031 C191.388867,34.9082084 191.42207,35.9042922 191.42207,36.8339844 L191.42207,41 L190.150586,41 L190.150586,32.4335938 L192.125195,32.4335938 L194.504102,39.2480469 L194.539258,39.2480469 L196.988477,32.4335938 L198.968945,32.4335938 L198.968945,41 L197.621289,41 L197.621289,36.7636719 C197.621289,36.3378885 197.632031,35.7832065 197.653516,35.0996094 C197.675,34.4160122 197.693555,34.0019538 197.70918,33.8574219 L197.662305,33.8574219 L195.090039,41 L193.853711,41 Z M212.508789,36.6347656 C212.508789,38.0488352 212.116215,39.1298791 211.331055,39.8779297 C210.545895,40.6259803 209.415046,41 207.938477,41 L205.541992,41 L205.541992,32.4335938 L208.19043,32.4335938 C209.553718,32.4335938 210.614254,32.8007776 211.37207,33.5351562 C212.129887,34.2695349 212.508789,35.3027277 212.508789,36.6347656 Z M211.032227,36.6816406 C211.032227,34.6308491 210.073252,33.6054688 208.155273,33.6054688 L206.942383,33.6054688 L206.942383,39.8222656 L207.938477,39.8222656 C210.000987,39.8222656 211.032227,38.7754011 211.032227,36.6816406 Z M219.794336,41 L214.948633,41 L214.948633,32.4335938 L219.794336,32.4335938 L219.794336,33.6171875 L216.349023,33.6171875 L216.349023,35.9492188 L219.577539,35.9492188 L219.577539,37.1210938 L216.349023,37.1210938 L216.349023,39.8105469 L219.794336,39.8105469 L219.794336,41 Z M225.204883,41 L223.804492,41 L223.804492,33.6347656 L221.284961,33.6347656 L221.284961,32.4335938 L227.724414,32.4335938 L227.724414,33.6347656 L225.204883,33.6347656 L225.204883,41 Z M234.113477,41 L233.258008,38.6210938 L229.982617,38.6210938 L229.144727,41 L227.668164,41 L230.873242,32.3984375 L232.39668,32.3984375 L235.601758,41 L234.113477,41 Z M232.888867,37.4140625 L232.086133,35.0820312 C232.027539,34.9257805 231.946485,34.6796892 231.842969,34.34375 C231.739453,34.0078108 231.668164,33.7617195 231.629102,33.6054688 C231.523632,34.0859399 231.369337,34.6113253 231.166211,35.1816406 L230.392774,37.4140625 L232.888867,37.4140625 Z M237.332617,41 L237.332617,32.4335938 L238.733008,32.4335938 L238.733008,41 L237.332617,41 Z M241.594727,41 L241.594727,32.4335938 L242.995117,32.4335938 L242.995117,39.7988281 L246.62207,39.7988281 L246.62207,41 L241.594727,41 Z M253.638086,38.6738281 C253.638086,39.4355507 253.362698,40.033201 252.811914,40.4667969 C252.26113,40.9003928 251.501372,41.1171875 250.532617,41.1171875 C249.563862,41.1171875 248.770902,40.9667984 248.153711,40.6660156 L248.153711,39.3417969 C248.544338,39.5253915 248.959373,39.6699213 249.398828,39.7753906 C249.838284,39.8808599 250.247459,39.9335938 250.626367,39.9335938 C251.181058,39.9335938 251.590233,39.8281261 251.853906,39.6171875 C252.11758,39.4062489 252.249414,39.1230487 252.249414,38.7675781 C252.249414,38.447264 252.128322,38.1757824 251.886133,37.953125 C251.643944,37.7304676 251.143949,37.4667984 250.386133,37.1621094 C249.604879,36.8457015 249.054103,36.484377 248.733789,36.078125 C248.413475,35.671873 248.25332,35.1835966 248.25332,34.6132812 C248.25332,33.8984339 248.507224,33.3359396 249.015039,32.9257812 C249.522854,32.5156229 250.204488,32.3105469 251.059961,32.3105469 C251.880278,32.3105469 252.696676,32.4902326 253.50918,32.8496094 L253.063867,33.9921875 C252.302145,33.6718734 251.622464,33.5117188 251.024805,33.5117188 C250.571678,33.5117188 250.227931,33.6103506 249.993555,33.8076172 C249.759179,34.0048838 249.641992,34.2656234 249.641992,34.5898438 C249.641992,34.8125011 249.688867,35.0029289 249.782617,35.1611328 C249.876368,35.3193367 250.030663,35.4687493 250.245508,35.609375 C250.460353,35.7500007 250.847068,35.9355457 251.405664,36.1660156 C252.034574,36.4277357 252.495506,36.6718739 252.788477,36.8984375 C253.081447,37.1250011 253.296289,37.3808579 253.433008,37.6660156 C253.569727,37.9511733 253.638086,38.2871074 253.638086,38.6738281 Z" id="System-details" fill="#FFFFFF"></path>
                <path d="M297.270703,41 L297.270703,32.4335938 L298.671094,32.4335938 L298.671094,41 L297.270703,41 Z M305.235937,41 L302.751562,33.8457031 L302.704687,33.8457031 C302.771094,34.9082084 302.804297,35.9042922 302.804297,36.8339844 L302.804297,41 L301.532812,41 L301.532812,32.4335938 L303.507422,32.4335938 L305.886328,39.2480469 L305.921484,39.2480469 L308.370703,32.4335938 L310.351172,32.4335938 L310.351172,41 L309.003515,41 L309.003515,36.7636719 C309.003515,36.3378885 309.014258,35.7832065 309.035742,35.0996094 C309.057227,34.4160122 309.075781,34.0019538 309.091406,33.8574219 L309.044531,33.8574219 L306.472265,41 L305.235937,41 Z M318.878906,35.0234375 C318.878906,35.9179732 318.58594,36.6035132 318,37.0800781 C317.414059,37.556643 316.580083,37.7949219 315.498047,37.7949219 L314.607422,37.7949219 L314.607422,41 L313.207031,41 L313.207031,32.4335938 L315.673828,32.4335938 C316.744146,32.4335938 317.545896,32.6523416 318.079101,33.0898438 C318.612307,33.5273459 318.878906,34.1718707 318.878906,35.0234375 Z M314.607422,36.6171875 L315.351562,36.6171875 C316.070316,36.6171875 316.597654,36.4921887 316.933594,36.2421875 C317.269533,35.9921863 317.4375,35.6015652 317.4375,35.0703125 C317.4375,34.5781225 317.287111,34.2109387 316.986328,33.96875 C316.685545,33.7265613 316.2168,33.6054688 315.580078,33.6054688 L314.607422,33.6054688 L314.607422,36.6171875 Z M328.795312,36.7050781 C328.795312,38.0996163 328.446683,39.1835899 327.749414,39.9570312 C327.052145,40.7304726 326.06485,41.1171875 324.7875,41.1171875 C323.494525,41.1171875 322.501371,40.7334023 321.808008,39.9658203 C321.114645,39.1982383 320.767969,38.1074289 320.767969,36.6933594 C320.767969,35.2792898 321.116598,34.1933632 321.813867,33.4355469 C322.511136,32.6777306 323.506243,32.2988281 324.799219,32.2988281 C326.072663,32.2988281 327.057028,32.6835899 327.752344,33.453125 C328.44766,34.2226601 328.795312,35.3066336 328.795312,36.7050781 Z M322.25625,36.7050781 C322.25625,37.7597709 322.469138,38.5595676 322.894922,39.1044922 C323.320705,39.6494168 323.951558,39.921875 324.7875,39.921875 C325.619535,39.921875 326.247459,39.6523464 326.671289,39.1132812 C327.095119,38.5742161 327.307031,37.7714897 327.307031,36.7050781 C327.307031,35.6542916 327.097072,34.8574246 326.677148,34.3144531 C326.257224,33.7714817 325.631254,33.5 324.799219,33.5 C323.959371,33.5 323.325588,33.7714817 322.897851,34.3144531 C322.470115,34.8574246 322.25625,35.6542916 322.25625,36.7050781 Z M332.635547,36.4179688 L333.608203,36.4179688 C334.26055,36.4179688 334.733202,36.2968762 335.026172,36.0546875 C335.319142,35.8124988 335.465625,35.4531274 335.465625,34.9765625 C335.465625,34.4921851 335.307423,34.1445323 334.991016,33.9335938 C334.674608,33.7226552 334.19805,33.6171875 333.561328,33.6171875 L332.635547,33.6171875 L332.635547,36.4179688 Z M332.635547,37.578125 L332.635547,41 L331.235156,41 L331.235156,32.4335938 L333.655078,32.4335938 C334.760552,32.4335938 335.578904,32.6406229 336.110156,33.0546875 C336.641409,33.4687521 336.907031,34.0937458 336.907031,34.9296875 C336.907031,35.9960991 336.352349,36.7558571 335.242969,37.2089844 L337.662891,41 L336.069141,41 L334.018359,37.578125 L332.635547,37.578125 Z M342.464062,41 L341.063672,41 L341.063672,33.6347656 L338.544141,33.6347656 L338.544141,32.4335938 L344.983594,32.4335938 L344.983594,33.6347656 L342.464062,33.6347656 L342.464062,41 Z M351.372656,41 L350.517187,38.6210938 L347.241797,38.6210938 L346.403906,41 L344.927344,41 L348.132422,32.3984375 L349.655859,32.3984375 L352.860937,41 L351.372656,41 Z M350.148047,37.4140625 L349.345312,35.0820312 C349.286718,34.9257805 349.205665,34.6796892 349.102148,34.34375 C348.998632,34.0078108 348.927344,33.7617195 348.888281,33.6054688 C348.782812,34.0859399 348.628517,34.6113253 348.425391,35.1816406 L347.651953,37.4140625 L350.148047,37.4140625 Z M361.728516,41 L360.011719,41 L355.798828,34.1738281 L355.751953,34.1738281 L355.78125,34.5546875 C355.835938,35.2812536 355.863281,35.9453095 355.863281,36.546875 L355.863281,41 L354.591797,41 L354.591797,32.4335938 L356.291016,32.4335938 L360.492188,39.2246094 L360.527344,39.2246094 C360.519531,39.1347652 360.503906,38.80762 360.480469,38.2431641 C360.457031,37.6787081 360.445312,37.2382828 360.445312,36.921875 L360.445312,32.4335938 L361.728516,32.4335938 L361.728516,41 Z M367.549219,41 L366.148828,41 L366.148828,33.6347656 L363.629297,33.6347656 L363.629297,32.4335938 L370.06875,32.4335938 L370.06875,33.6347656 L367.549219,33.6347656 L367.549219,41 Z M375.698438,41 L375.698438,32.4335938 L377.098828,32.4335938 L377.098828,41 L375.698438,41 Z M387.097266,41 L385.380469,41 L381.167578,34.1738281 L381.120703,34.1738281 L381.15,34.5546875 C381.204688,35.2812536 381.232031,35.9453095 381.232031,36.546875 L381.232031,41 L379.960547,41 L379.960547,32.4335938 L381.659766,32.4335938 L385.860938,39.2246094 L385.896094,39.2246094 C385.888281,39.1347652 385.872656,38.80762 385.849219,38.2431641 C385.825781,37.6787081 385.814063,37.2382828 385.814063,36.921875 L385.814063,32.4335938 L387.097266,32.4335938 L387.097266,41 Z M391.347656,41 L389.958984,41 L389.958984,32.4335938 L394.792969,32.4335938 L394.792969,33.6171875 L391.347656,33.6171875 L391.347656,36.2949219 L394.576172,36.2949219 L394.576172,37.484375 L391.347656,37.484375 L391.347656,41 Z M404.551172,36.7050781 C404.551172,38.0996163 404.202543,39.1835899 403.505274,39.9570312 C402.808004,40.7304726 401.82071,41.1171875 400.54336,41.1171875 C399.250384,41.1171875 398.25723,40.7334023 397.563867,39.9658203 C396.870504,39.1982383 396.523828,38.1074289 396.523828,36.6933594 C396.523828,35.2792898 396.872458,34.1933632 397.569727,33.4355469 C398.266996,32.6777306 399.262103,32.2988281 400.555078,32.2988281 C401.828522,32.2988281 402.812887,32.6835899 403.508203,33.453125 C404.203519,34.2226601 404.551172,35.3066336 404.551172,36.7050781 Z M398.01211,36.7050781 C398.01211,37.7597709 398.224998,38.5595676 398.650781,39.1044922 C399.076565,39.6494168 399.707418,39.921875 400.54336,39.921875 C401.375395,39.921875 402.003318,39.6523464 402.427149,39.1132812 C402.850979,38.5742161 403.062891,37.7714897 403.062891,36.7050781 C403.062891,35.6542916 402.852932,34.8574246 402.433008,34.3144531 C402.013084,33.7714817 401.387114,33.5 400.555078,33.5 C399.71523,33.5 399.081448,33.7714817 398.653711,34.3144531 C398.225975,34.8574246 398.01211,35.6542916 398.01211,36.7050781 Z" id="IMPORTANT-INFO" fill="#FFE344"></path>
                <path d="M66,8 L192,8" id="Line-Copy-2" stroke="#FFFFFF" stroke-linecap="square"></path>
                <path d="M215,8 L337,8" id="Line-Copy-4" stroke="#FFFFFF" stroke-linecap="square"></path>
            </g>
        </g>
    </g>
</svg>