<?xml version="1.0" encoding="UTF-8"?>
<svg width="526px" height="388px" viewBox="0 0 526 388" version="1.1" xmlns="http://www.w3.org/2000/svg" xmlns:xlink="http://www.w3.org/1999/xlink">
    <!-- Generator: Sketch 48.2 (47327) - http://www.bohemiancoding.com/sketch -->
    <title>bath_graphic</title>
    <desc>Created with Sketch.</desc>
    <defs>
        <radialGradient cx="50%" cy="0%" fx="50%" fy="0%" r="82.3936819%" gradientTransform="translate(0.500000,0.000000),scale(0.363118,1.000000),rotate(90.000000),scale(1.000000,2.008246),translate(-0.500000,-0.000000)" id="radialGradient-1">
            <stop stop-color="#E2E2E2" offset="0%"></stop>
            <stop stop-color="#F5F5F5" stop-opacity="0" offset="100%"></stop>
        </radialGradient>
    </defs>
    <g id="hot-water" stroke="none" stroke-width="1" fill="none" fill-rule="evenodd" transform="translate(-597.000000, -418.000000)">
        <g id="bath_graphic" transform="translate(597.000000, 400.000000)">
            <g>
                <g id="Group-6" transform="translate(0.000000, 249.000000)" fill="url(#radialGradient-1)">
                    <g id="animation/shading">
                        <rect id="Rectangle-2" x="0" y="0" width="526" height="191"></rect>
                    </g>
                </g>
                <g id="animation/hotwater-360px" transform="translate(103.000000, 0.000000)">
                    <g id="Group-13">
                        <g id="Group-7">
                            <rect id="Rectangle-path" x="0" y="0" width="401" height="357.88162"></rect>
                            <path d="M93.1211111,337.750779 C69.9522222,337.750779 52.4641667,318.06729 48.12,294.916822 L39.3202778,247.721184 C38.095,241.458255 34.5305556,228.485047 25.5080556,228.485047 L25.5080556,222.11028 L375.491944,222.445794 L374.266667,228.485047 C365.244167,228.485047 361.568333,241.458255 360.454444,247.721184 L351.654722,294.916822 C347.310556,318.06729 329.8225,337.750779 306.653611,337.750779 L93.1211111,337.750779 Z" id="Shape" fill="#F5F5F5"></path>
                            <path d="M374.378056,228.596885 L26.6219444,228.596885 C23.0575,228.596885 20.05,225.577259 20.05,221.998442 C20.05,218.419626 23.0575,215.4 26.6219444,215.4 L374.378056,215.4 C377.9425,215.4 380.95,218.419626 380.95,221.998442 C380.95,225.577259 377.9425,228.596885 374.378056,228.596885 Z" id="Shape" fill="#001CB0"></path>
                            <g id="Group" transform="translate(50.125000, 21.249221)">
                                <path d="M54.8033333,18.341433 C53.3552778,14.8744548 51.2388889,11.8548287 48.6769444,9.28255452 C46.115,6.71028037 42.9961111,4.58535826 39.6544444,3.13146417 C36.2013889,1.67757009 32.5255556,0.89470405 28.6269444,0.89470405 C24.7283333,0.89470405 20.9411111,1.67757009 17.5994444,3.13146417 C14.1463889,4.58535826 11.1388889,6.71028037 8.57694444,9.28255452 C6.015,11.8548287 3.89861111,14.9862928 2.45055556,18.341433 C1.0025,21.8084112 0.222777778,25.4990654 0.222777778,29.4133956 L0.222777778,194.150779" id="Shape" stroke="#CCCCCC" stroke-width="6.8727" stroke-linejoin="round"></path>
                                <g transform="translate(16.708333, 12.302181)" fill-rule="nonzero">
                                    <path d="M92.1186111,14.4271028 C86.1036111,-0.111838006 62.0436111,-3.91433022 38.2063889,5.92741433 C14.3691667,15.7691589 0.111388889,35.564486 6.015,50.1034268" id="Shape" fill="#CCCCCC"></path>
                                    <g transform="translate(0.000000, 1.118380)" id="Oval">
                                        <ellipse fill="#FFFFFF" transform="translate(48.976848, 31.149994) rotate(-22.500428) translate(-48.976848, -31.149994) " cx="48.9768479" cy="31.1499938" rx="46.5617312" ry="13.9801038"></ellipse>
                                        <ellipse fill="#CCCCCC" transform="translate(48.976848, 31.149994) rotate(-22.500428) translate(-48.976848, -31.149994) " cx="48.9768479" cy="31.1499938" rx="2.89618424" ry="1"></ellipse>
                                        <ellipse fill="#CCCCCC" transform="translate(50.963279, 35.962506) rotate(-22.500428) translate(-50.963279, -35.962506) " cx="50.9632794" cy="35.9625063" rx="2.89618424" ry="1"></ellipse>
                                        <ellipse fill="#CCCCCC" transform="translate(52.992228, 40.878346) rotate(-22.500428) translate(-52.992228, -40.878346) " cx="52.992228" cy="40.8783458" rx="2.89618424" ry="1"></ellipse>
                                        <ellipse fill="#CCCCCC" transform="translate(46.947788, 26.234042) rotate(-22.500428) translate(-46.947788, -26.234042) " cx="46.9477879" cy="26.2340424" rx="2.89618424" ry="1"></ellipse>
                                        <ellipse fill="#CCCCCC" transform="translate(61.774663, 29.814950) rotate(-22.500428) translate(-61.774663, -29.814950) " cx="61.7746626" cy="29.81495" rx="2.89618424" ry="1"></ellipse>
                                        <ellipse fill="#CCCCCC" transform="translate(36.136405, 32.381711) rotate(-22.500428) translate(-36.136405, -32.381711) " cx="36.1364046" cy="32.3817105" rx="2.89618424" ry="1"></ellipse>
                                        <ellipse fill="#CCCCCC" transform="translate(65.125619, 24.430599) rotate(-22.500428) translate(-65.125619, -24.430599) " cx="65.1256191" cy="24.4305987" rx="2.89618424" ry="1"></ellipse>
                                        <ellipse fill="#CCCCCC" transform="translate(32.828077, 37.869389) rotate(-22.500428) translate(-32.828077, -37.869389) " cx="32.8280766" cy="37.869389" rx="2.89618424" ry="1"></ellipse>
                                        <ellipse fill="#CCCCCC" transform="translate(59.004399, 22.969860) rotate(-22.500428) translate(-59.004399, -22.969860) " cx="59.0043987" cy="22.9698601" rx="2.89618424" ry="1"></ellipse>
                                        <ellipse fill="#CCCCCC" transform="translate(38.949408, 39.330016) rotate(-22.500428) translate(-38.949408, -39.330016) " cx="38.9494085" cy="39.3300157" rx="2.89618424" ry="1"></ellipse>
                                        <ellipse fill="#CCCCCC" transform="translate(44.961468, 21.421642) rotate(-22.500428) translate(-44.961468, -21.421642) " cx="44.9614678" cy="21.4216418" rx="2.89618424" ry="1"></ellipse>
                                        <ellipse fill="#CCCCCC" transform="translate(68.570254, 32.827709) rotate(-22.500428) translate(-68.570254, -32.827709) " cx="68.5702537" cy="32.8277093" rx="2.89618424" ry="1"></ellipse>
                                        <ellipse fill="#CCCCCC" transform="translate(29.340925, 29.368951) rotate(-22.500428) translate(-29.340925, -29.368951) " cx="29.3409249" cy="29.3689512" rx="2.89618424" ry="1"></ellipse>
                                        <ellipse fill="#CCCCCC" transform="translate(78.915330, 24.322597) rotate(-22.500428) translate(-78.915330, -24.322597) " cx="78.9153297" cy="24.3225967" rx="2.89618424" ry="1"></ellipse>
                                        <ellipse fill="#CCCCCC" transform="translate(18.995738, 37.873952) rotate(-22.500428) translate(-18.995738, -37.873952) " cx="18.9957376" cy="37.873952" rx="2.89618424" ry="1"></ellipse>
                                        <ellipse fill="#CCCCCC" transform="translate(81.171478, 17.754116) rotate(-22.500428) translate(-81.171478, -17.754116) " cx="81.1714782" cy="17.7541157" rx="2.89618424" ry="1"></ellipse>
                                        <ellipse fill="#CCCCCC" transform="translate(16.679305, 44.588672) rotate(-22.500428) translate(-16.679305, -44.588672) " cx="16.6793054" cy="44.5886723" rx="2.89618424" ry="1"></ellipse>
                                        <ellipse fill="#CCCCCC" transform="translate(74.899950, 14.594245) rotate(-22.500428) translate(-74.899950, -14.594245) " cx="74.8999496" cy="14.5942447" rx="2.89618424" ry="1"></ellipse>
                                        <ellipse fill="#CCCCCC" transform="translate(23.011229, 47.602416) rotate(-22.500428) translate(-23.011229, -47.602416) " cx="23.0112291" cy="47.6024158" rx="2.89618424" ry="1"></ellipse>
                                        <ellipse fill="#CCCCCC" transform="translate(61.578184, 16.076400) rotate(-22.500428) translate(-61.578184, -16.076400) " cx="61.5781838" cy="16.0764002" rx="2.89618424" ry="1"></ellipse>
                                        <ellipse fill="#CCCCCC" transform="translate(36.272600, 46.266276) rotate(-22.500428) translate(-36.272600, -46.266276) " cx="36.2725998" cy="46.266276" rx="2.89618424" ry="1"></ellipse>
                                    </g>
                                </g>
                            </g>
                            <path d="M121.970833,196.275701 C124.978333,196.275701 127.3175,193.815265 127.3175,190.907477 C127.3175,187.88785 124.866944,185.539252 121.970833,185.539252 C118.963333,185.539252 116.624167,187.999688 116.624167,190.907477 C116.624167,193.815265 119.074722,196.275701 121.970833,196.275701 Z M79.5316667,231.392835 C81.3138889,231.392835 82.6505556,229.938941 82.6505556,228.261371 C82.6505556,226.471963 81.2025,225.129907 79.5316667,225.129907 C77.7494444,225.129907 76.4127778,226.583801 76.4127778,228.261371 C76.3013889,229.938941 77.7494444,231.392835 79.5316667,231.392835 Z M136.451389,224.906231 C134.446389,224.906231 132.552778,224.235202 130.993333,223.116822 C129.879444,224.682555 127.985833,225.800935 125.869444,226.024611 C124.087222,228.485047 121.191111,229.938941 117.960833,229.938941 C112.948333,229.938941 108.826944,226.248287 108.158611,221.439252 C105.151111,221.215576 102.811944,218.75514 102.811944,215.735514 C102.811944,215.623676 102.811944,215.511838 102.811944,215.4 L73.0711111,215.4 C73.5166667,215.95919 73.7394444,216.630218 73.7394444,217.413084 C73.7394444,219.202492 72.2913889,220.544548 70.6205556,220.544548 C68.8383333,220.544548 67.5016667,219.090654 67.5016667,217.413084 C67.5016667,216.630218 67.7244444,215.95919 68.17,215.4 L42.5505556,215.4 C42.9961111,211.48567 46.3377778,208.466044 50.3477778,208.466044 C51.3502778,208.466044 52.3527778,208.68972 53.2438889,209.025234 C54.6919444,207.347664 56.8083333,206.229283 59.2588889,206.229283 C60.3727778,206.229283 61.3752778,206.45296 62.2663889,206.900312 C63.2688889,200.078193 69.1725,194.821807 76.3013889,194.821807 C78.3063889,194.821807 80.3113889,195.269159 82.0936111,196.052025 C83.5416667,192.696885 86.7719444,190.460125 90.5591667,190.460125 C95.4602778,190.460125 99.4702778,194.262617 99.8044444,199.183489 C101.475278,197.617757 103.703056,196.723053 106.153611,196.723053 C110.943333,196.723053 114.953333,200.413707 115.2875,205.110903 C117.2925,202.985981 120.188611,201.532087 123.418889,201.532087 C123.975833,201.532087 124.532778,201.532087 125.089722,201.643925 C126.649167,199.966355 128.765556,198.959813 131.216111,198.959813 C135.671667,198.959813 139.3475,202.538629 139.570278,206.900312 C141.241111,207.459502 142.800556,208.577882 143.914444,209.919938 C145.3625,203.545171 151.154722,198.736137 157.949444,198.736137 C162.739167,198.736137 167.083333,201.084735 169.645278,204.775389 C170.536389,204.439875 171.538889,204.216199 172.541389,204.216199 C176.217222,204.216199 179.224722,206.676636 180.115833,210.143614 C180.561389,209.472586 181.006944,208.801558 181.563889,208.354206 C180.338611,207.01215 179.670278,205.110903 179.670278,203.209657 C179.670278,198.847975 183.123333,195.380997 187.4675,195.380997 C190.252222,195.380997 192.591389,196.834891 194.039444,198.959813 C196.601389,196.499377 200.054444,194.933645 203.953056,194.933645 C205.958056,194.933645 207.963056,195.380997 209.745278,196.163863 C211.193333,192.808723 214.423611,190.571963 218.210833,190.571963 C223.111944,190.571963 227.121944,194.374455 227.456111,199.295327 C228.792778,198.065109 230.575,197.170405 232.468611,196.834891 C232.691389,189.900935 238.372222,184.309034 245.389722,184.309034 C249.956667,184.309034 253.966667,186.76947 256.305833,190.348287 C258.533611,190.571963 260.538611,191.578505 262.098056,193.032399 C261.541111,192.025857 261.318333,190.907477 261.318333,189.677259 C261.318333,185.65109 264.548611,182.519626 268.447222,182.519626 C269.783889,182.519626 271.120556,182.966978 272.234444,183.638006 C272.902778,182.743302 273.6825,181.960436 274.685,181.401246 C273.459722,179.835514 272.68,177.82243 272.68,175.697508 C272.68,170.55296 276.801389,166.414953 281.925278,166.414953 C287.049167,166.414953 291.170556,170.55296 291.170556,175.697508 C291.170556,175.809346 291.170556,175.921184 291.170556,175.921184 C292.284444,175.58567 293.398333,175.361994 294.623611,175.361994 C295.291944,175.361994 295.960278,175.473832 296.628611,175.58567 C298.076667,171.223988 302.198056,167.980685 307.099167,167.980685 C313.114167,167.980685 318.015278,172.901558 318.015278,178.94081 C318.015278,179.835514 317.903889,180.730218 317.681111,181.513084 C319.7975,182.184112 321.8025,183.41433 323.361944,184.868224 C325.589722,182.519626 328.708611,180.953894 332.161667,180.953894 C338.845,180.953894 344.191667,186.322118 344.191667,193.032399 C344.191667,194.598131 343.8575,196.052025 343.411944,197.394081 C344.525833,198.624299 345.305556,200.190031 345.639722,201.867601 C346.308056,201.755763 347.087778,201.643925 347.8675,201.643925 C355.553333,201.643925 361.791111,207.795016 362.013889,215.511838 L350.875,215.511838 C350.318056,219.538006 346.865,222.557632 342.632222,222.557632 C341.184167,222.557632 339.958889,222.222118 338.733611,221.55109 C337.619722,224.34704 334.946389,226.360125 331.716111,226.360125 C327.594722,226.360125 324.253056,223.116822 324.141667,218.978816 C322.136667,218.643302 320.354444,217.301246 319.463333,215.4 L314.228056,215.4 C314.005278,219.31433 310.775,222.557632 306.765,222.557632 C304.648611,222.557632 302.755,221.662928 301.418333,220.320872 C299.970278,221.215576 298.299444,221.774766 296.517222,221.774766 C292.507222,221.774766 289.165556,219.090654 288.051667,215.4 L239.374722,215.4 C238.149444,218.19595 235.364722,220.209034 232.134444,220.209034 C228.904167,220.209034 226.119444,218.19595 224.894167,215.4 L220.438611,215.4 C220.438611,215.623676 220.438611,215.847352 220.438611,216.071028 C220.438611,218.531464 218.433611,220.656386 215.871667,220.656386 C215.5375,220.656386 215.091944,220.656386 214.757778,220.544548 C213.5325,222.222118 211.416111,223.452336 209.188333,223.452336 C205.289722,223.452336 202.170833,220.320872 202.170833,216.406542 C202.170833,216.071028 202.170833,215.735514 202.282222,215.511838 L145.808056,215.511838 C145.808056,215.623676 145.808056,215.623676 145.808056,215.735514 C145.696667,220.768224 141.575278,224.906231 136.451389,224.906231 Z M263.880278,195.940187 C263.991667,195.828349 264.103056,195.716511 264.325833,195.492835 C263.991667,195.269159 263.6575,195.045483 263.323333,194.709969 C263.546111,195.157321 263.6575,195.492835 263.880278,195.940187 Z M329.711111,171.11215 C333.721111,171.11215 336.84,167.868847 336.84,163.954517 C336.84,159.928349 333.609722,156.796885 329.711111,156.796885 C325.701111,156.796885 322.582222,160.040187 322.582222,163.954517 C322.582222,167.868847 325.8125,171.11215 329.711111,171.11215 Z M274.573611,154.112773 C276.578611,154.112773 278.138056,152.54704 278.138056,150.533956 C278.138056,148.520872 276.578611,146.95514 274.573611,146.95514 C272.568611,146.95514 271.009167,148.520872 271.009167,150.533956 C271.009167,152.54704 272.568611,154.112773 274.573611,154.112773 Z M177.776667,183.638006 C177.776667,180.61838 175.326111,178.269782 172.43,178.269782 C169.4225,178.269782 167.083333,180.730218 167.083333,183.638006 C167.083333,186.657632 169.533889,189.006231 172.43,189.006231 C175.326111,189.118069 177.776667,186.657632 177.776667,183.638006 Z" id="Shape" fill="#FFFFFF"></path>
                            <g id="Group" transform="translate(155.944444, 171.112150)">
                                <path d="M27.8472222,0.335514019 C22.055,0.335514019 17.3766667,5.03271028 17.3766667,10.8482866 C17.3766667,13.0850467 18.1563889,15.6573209 19.7158333,17.446729 C21.9436111,20.0190031 19.1588889,23.0386293 15.9286111,23.0386293 C13.2552778,23.0386293 10.2477778,21.2492212 8.79972222,19.7953271 C7.46305556,18.453271 7.24027778,16.5520249 6.23777778,16.5520249 C5.23527778,16.5520249 4.23277778,17.334891 3.56444444,18.117757 C-4.34416667,26.9529595 2.56194444,44.2878505 12.2527778,44.2878505 L30.5205556,44.2878505 C35.5330556,44.2878505 39.8772222,38.2485981 39.8772222,33.2158879 C39.8772222,25.3872274 32.4141667,22.2557632 32.4141667,21.5847352 C32.4141667,20.3545171 32.8597222,20.1308411 33.9736111,19.3479751 C36.6469444,17.446729 38.3177778,15.5454829 38.3177778,10.8482866 C38.2063889,6.15109034 33.6394444,0.335514019 27.8472222,0.335514019 Z" id="Shape" fill="#FFE344"></path>
                                <path d="M34.5305556,14.5389408 C36.4241667,13.0850467 37.9836111,9.95358255 37.7608333,7.94049844 C38.5405556,9.28255452 40.9911111,9.84174455 43.1075,9.72990654 C43.7758333,9.72990654 45.2238889,9.28255452 45.2238889,10.2890966 C45.2238889,11.4074766 44.4441667,12.8613707 42.9961111,13.6442368 C40.5455556,15.0981308 38.095,16.2165109 35.1988889,16.4401869 C34.085,16.6638629 33.6394444,15.2099688 34.5305556,14.5389408 Z" id="Shape" fill="#001CB0"></path>
                                <path d="M31.6344444,10.7364486 C30.4091667,10.7364486 29.5180556,9.72990654 29.5180556,8.61152648 C29.5180556,7.49314642 30.5205556,6.48660436 31.6344444,6.48660436 C32.8597222,6.48660436 33.7508333,7.49314642 33.7508333,8.61152648 C33.7508333,9.72990654 32.8597222,10.7364486 31.6344444,10.7364486 Z" id="Shape" fill="#FFFFFF"></path>
                                <path d="M32.3027778,9.72990654 C31.6344444,9.72990654 31.1888889,9.28255452 31.1888889,8.61152648 C31.1888889,8.38785047 31.1888889,8.27601246 31.3002778,8.05233645 C31.3002778,8.38785047 31.6344444,8.72336449 31.9686111,8.72336449 C32.3027778,8.72336449 32.6369444,8.38785047 32.6369444,8.05233645 C32.6369444,7.71682243 32.4141667,7.49314642 32.1913889,7.38130841 C32.1913889,7.38130841 32.3027778,7.38130841 32.3027778,7.38130841 C32.9711111,7.38130841 33.4166667,7.94049844 33.4166667,8.49968847 C33.4166667,9.17071651 32.9711111,9.72990654 32.3027778,9.72990654 Z" id="Shape" fill="#001CB0"></path>
                                <path d="M9.69083333,25.8345794 C12.4755556,27.6239875 14.5919444,26.6174455 16.1513889,26.0582555 C20.7183333,24.3806854 25.9536111,24.6043614 25.8422222,30.6436137 C25.7308333,33.4395639 21.8322222,37.5775701 15.4830556,36.794704 C11.0275,36.235514 5.56944444,31.7619938 7.12888889,26.5056075 C7.68583333,24.7161994 8.35416667,25.0517134 9.69083333,25.8345794 Z" id="Shape" fill="#001CB0"></path>
                            </g>
                            <g id="Group" transform="translate(309.661111, 328.803738)" fill="#CCCCCC">
                                <path d="M1.33666667,5.59190031 C1.44805556,5.48006231 1.44805556,5.3682243 1.55944444,5.3682243 C1.67083333,5.14454829 1.89361111,4.92087227 2.005,4.80903427 C2.11638889,4.69719626 2.22777778,4.58535826 2.33916667,4.47352025 C2.56194444,4.24984424 2.67333333,4.13800623 2.89611111,3.91433022 C3.0075,3.80249221 3.11888889,3.69065421 3.23027778,3.69065421 C3.45305556,3.46697819 3.67583333,3.35514019 4.01,3.13146417 C4.12138889,3.13146417 4.12138889,3.01962617 4.23277778,3.01962617 C6.34916667,1.67757009 9.0225,0.671028037 11.6958333,0.559190031 C11.6958333,0.559190031 11.8072222,0.559190031 11.8072222,0.559190031 C12.1413889,0.559190031 12.4755556,0.559190031 12.8097222,0.559190031 C12.9211111,0.559190031 13.0325,0.559190031 13.1438889,0.559190031 C13.1438889,0.559190031 13.1438889,0.559190031 13.2552778,0.559190031 C13.3666667,0.559190031 13.4780556,0.559190031 13.7008333,0.559190031 C13.9236111,0.559190031 14.1463889,0.559190031 14.4805556,0.559190031 C14.5919444,0.559190031 14.7033333,0.559190031 14.9261111,0.559190031 C15.0375,0.559190031 15.2602778,0.559190031 15.3716667,0.671028037 C15.9286111,0.782866044 16.3741667,0.89470405 16.9311111,1.00654206 L23.3916667,28.0713396 L20.05,28.0713396 L1.22527778,6.59844237 C0.891111111,6.15109034 1.11388889,5.92741433 1.33666667,5.59190031 Z" id="Shape"></path>
                                <path d="M25.7308333,24.8280374 L14.5919444,24.8280374 C13.8122222,24.8280374 13.1438889,25.4990654 13.1438889,26.2819315 L13.1438889,27.7358255 C13.1438889,28.5186916 13.8122222,29.1897196 14.5919444,29.1897196 L25.7308333,29.1897196 C26.5105556,29.1897196 27.1788889,28.5186916 27.1788889,27.7358255 L27.1788889,26.2819315 C27.1788889,25.3872274 26.5105556,24.8280374 25.7308333,24.8280374 Z" id="Shape"></path>
                            </g>
                            <g id="Group" transform="translate(63.491667, 328.803738)" fill="#CCCCCC">
                                <path d="M26.5105556,5.59190031 C26.3991667,5.48006231 26.3991667,5.3682243 26.2877778,5.3682243 C26.1763889,5.14454829 25.9536111,4.92087227 25.8422222,4.80903427 C25.7308333,4.69719626 25.6194444,4.58535826 25.5080556,4.47352025 C25.2852778,4.24984424 25.1738889,4.13800623 24.9511111,3.91433022 C24.8397222,3.80249221 24.7283333,3.69065421 24.6169444,3.69065421 C24.3941667,3.46697819 24.1713889,3.35514019 23.8372222,3.13146417 C23.7258333,3.13146417 23.7258333,3.01962617 23.6144444,3.01962617 C21.4980556,1.67757009 18.8247222,0.671028037 16.1513889,0.559190031 C16.1513889,0.559190031 16.04,0.559190031 16.04,0.559190031 C15.7058333,0.559190031 15.3716667,0.559190031 15.0375,0.559190031 C14.9261111,0.559190031 14.8147222,0.559190031 14.7033333,0.559190031 C14.7033333,0.559190031 14.7033333,0.559190031 14.5919444,0.559190031 C14.4805556,0.559190031 14.3691667,0.559190031 14.1463889,0.559190031 C13.9236111,0.559190031 13.7008333,0.559190031 13.3666667,0.559190031 C13.2552778,0.559190031 13.1438889,0.559190031 12.9211111,0.559190031 C12.8097222,0.559190031 12.5869444,0.559190031 12.4755556,0.671028037 C11.9186111,0.782866044 11.4730556,0.89470405 10.9161111,1.00654206 L4.45555556,28.0713396 L7.79722222,28.0713396 L26.6219444,6.59844237 C26.9561111,6.15109034 26.7333333,5.92741433 26.5105556,5.59190031 Z" id="Shape"></path>
                                <path d="M2.11638889,24.8280374 L13.2552778,24.8280374 C14.035,24.8280374 14.7033333,25.4990654 14.7033333,26.2819315 L14.7033333,27.7358255 C14.7033333,28.5186916 14.035,29.1897196 13.2552778,29.1897196 L2.11638889,29.1897196 C1.33666667,29.1897196 0.668333333,28.5186916 0.668333333,27.7358255 L0.668333333,26.2819315 C0.668333333,25.3872274 1.33666667,24.8280374 2.11638889,24.8280374 Z" id="Shape"></path>
                            </g>
                        </g>
                    </g>
                </g>
            </g>
        </g>
    </g>
</svg>