<?xml version="1.0" encoding="UTF-8"?>
<svg width="526px" height="387px" viewBox="0 0 526 387" version="1.1" xmlns="http://www.w3.org/2000/svg" xmlns:xlink="http://www.w3.org/1999/xlink">
    <!-- Generator: Sketch 48.2 (47327) - http://www.bohemiancoding.com/sketch -->
    <title>tv_graphic</title>
    <desc>Created with Sketch.</desc>
    <defs>
        <radialGradient cx="50%" cy="0%" fx="50%" fy="0%" r="82.3936819%" gradientTransform="translate(0.500000,0.000000),scale(0.363118,1.000000),rotate(90.000000),scale(1.000000,2.008246),translate(-0.500000,-0.000000)" id="radialGradient-1">
            <stop stop-color="#E2E2E2" offset="0%"></stop>
            <stop stop-color="#F5F5F5" stop-opacity="0" offset="100%"></stop>
        </radialGradient>
    </defs>
    <g id="electrical-items" stroke="none" stroke-width="1" fill="none" fill-rule="evenodd" transform="translate(-597.000000, -419.000000)">
        <g id="tv_graphic" transform="translate(597.000000, 368.000000)">
            <g id="Group-6" stroke-width="1" fill-rule="evenodd" transform="translate(0.000000, 281.000000)" fill="url(#radialGradient-1)">
                <g id="animation/shading">
                    <rect id="Rectangle-2" x="0" y="0" width="526" height="191"></rect>
                </g>
            </g>
            <g id="animation/entertainment-360px" transform="translate(103.000000, 0.000000)">
                <rect id="Rectangle-path" x="0" y="0" width="395" height="351"></rect>
                <g id="Group" stroke-width="1" fill-rule="evenodd" transform="translate(31.819444, 51.553125)">
                    <rect id="Rectangle-path" fill="#CCCCCC" fill-rule="nonzero" x="20.0791667" y="222.117187" width="335.201389" height="50.7853125"></rect>
                    <polygon id="Shape" fill="#CCCCCC" points="0.219444444 272.9025 0.219444444 231.001875 19.9694444 222.117187 19.9694444 272.9025"></polygon>
                    <polygon id="Shape" fill="#CCCCCC" points="74.7208333 127.347187 74.7208333 2.6325 79.6583333 0.43875 79.6583333 127.347187"></polygon>
                    <polygon id="Shape" fill="#CCCCCC" points="26.2236111 189.97875 26.2236111 99.1575 31.1611111 96.96375 31.1611111 189.97875"></polygon>
                    <polygon id="Shape" fill="#CCCCCC" points="313.915278 189.97875 313.915278 99.1575 318.852778 96.96375 318.852778 189.97875"></polygon>
                    <g transform="translate(79.000000, 0.000000)" fill-rule="nonzero" id="Rectangle-path">
                        <rect fill="#FFFFFF" x="0.658333333" y="0.43875" width="215.823611" height="126.908437"></rect>
                        <rect fill="#00DEEC" x="6.9125" y="6.800625" width="203.095833" height="114.184687"></rect>
                    </g>
                    <rect id="Rectangle-path" fill="#FFFFFF" fill-rule="nonzero" x="20.0791667" y="272.9025" width="335.201389" height="6.800625"></rect>
                    <rect id="Rectangle-path" fill="#E0E0E0" fill-rule="nonzero" x="0.219444444" y="272.9025" width="19.75" height="6.800625"></rect>
                    <rect id="Rectangle-path" fill="#FFFFFF" fill-rule="nonzero" x="19.75" y="215.42625" width="335.201389" height="6.800625"></rect>
                    <rect id="Rectangle-path" fill="#E0E0E0" fill-rule="nonzero" x="131.886111" y="222.117187" width="111.697222" height="50.7853125"></rect>
                    <rect id="Rectangle-path" fill="#E0E0E0" fill-rule="nonzero" x="19.75" y="222.117187" width="108.295833" height="50.7853125"></rect>
                    <rect id="Rectangle-path" fill="#001CB0" fill-rule="nonzero" x="45.2055556" y="234.840937" width="57.6041667" height="5.045625"></rect>
                    <rect id="Rectangle-path" fill="#001CB0" fill-rule="nonzero" x="158.548611" y="234.840937" width="57.6041667" height="5.045625"></rect>
                    <rect id="Rectangle-path" fill="#E0E0E0" fill-rule="nonzero" x="246.984722" y="222.117187" width="108.295833" height="50.7853125"></rect>
                    <rect id="Rectangle-path" fill="#FFFFFF" fill-rule="nonzero" x="31.1611111" y="279.703125" width="16.8972222" height="19.74375"></rect>
                    <rect id="Rectangle-path" fill="#E0E0E0" fill-rule="nonzero" x="26.2236111" y="279.703125" width="4.9375" height="19.74375"></rect>
                    <rect id="Rectangle-path" fill="#FFFFFF" fill-rule="nonzero" x="327.411111" y="279.703125" width="16.8972222" height="19.74375"></rect>
                    <rect id="Rectangle-path" fill="#E0E0E0" fill-rule="nonzero" x="322.473611" y="279.703125" width="4.9375" height="19.74375"></rect>
                    <rect id="Rectangle-path" fill="#001CB0" fill-rule="nonzero" x="272.001389" y="234.840937" width="57.6041667" height="5.045625"></rect>
                    <g transform="translate(30.722222, 96.525000)" fill-rule="nonzero">
                        <rect id="Rectangle-path" fill="#E0E0E0" x="0.438888889" y="115.500937" width="25.3458333" height="3.4003125"></rect>
                        <rect id="Rectangle-path" fill="#001CB0" x="0.438888889" y="0.43875" width="25.3458333" height="93.1246875"></rect>
                        <rect id="Rectangle-path" fill="#E0E0E0" transform="translate(13.140882, 106.151833) rotate(-90.000000) translate(-13.140882, -106.151833) " x="0.46796543" y="104.451677" width="25.3458333" height="3.4003125"></rect>
                        <ellipse id="Oval" fill="#FFFFFF" cx="13.0569444" cy="13.0528125" rx="8.44861111" ry="8.4459375"></ellipse>
                        <ellipse id="Oval" fill="#FFFFFF" cx="13.0569444" cy="34.2225" rx="8.44861111" ry="8.4459375"></ellipse>
                        <path d="M9.54583333,9.5428125 C11.5208333,7.5684375 14.7027778,7.5684375 16.6777778,9.5428125 C18.6527778,11.5171875 18.6527778,14.698125 16.6777778,16.6725" id="Shape" fill="#CCCCCC"></path>
                        <path d="M9.54583333,30.7125 C11.5208333,28.738125 14.7027778,28.738125 16.6777778,30.7125 C18.6527778,32.686875 18.6527778,35.8678125 16.6777778,37.8421875" id="Shape" fill="#CCCCCC"></path>
                    </g>
                    <g transform="translate(318.194444, 96.525000)" fill-rule="nonzero">
                        <rect id="Rectangle-path" fill="#E0E0E0" x="0.658333333" y="115.500937" width="25.3458333" height="3.4003125"></rect>
                        <rect id="Rectangle-path" fill="#001CB0" x="0.658333333" y="0.43875" width="25.3458333" height="93.1246875"></rect>
                        <rect id="Rectangle-path" fill="#E0E0E0" transform="translate(13.454249, 106.245726) rotate(-90.000000) translate(-13.454249, -106.245726) " x="0.781332108" y="104.545569" width="25.3458333" height="3.4003125"></rect>
                        <ellipse id="Oval" fill="#FFFFFF" cx="13.3861111" cy="13.0528125" rx="8.44861111" ry="8.4459375"></ellipse>
                        <ellipse id="Oval" fill="#FFFFFF" cx="13.3861111" cy="34.2225" rx="8.44861111" ry="8.4459375"></ellipse>
                        <path d="M9.76527778,9.5428125 C11.7402778,7.5684375 14.9222222,7.5684375 16.8972222,9.5428125 C18.8722222,11.5171875 18.8722222,14.698125 16.8972222,16.6725" id="Shape" fill="#CCCCCC"></path>
                        <path d="M9.76527778,30.7125 C11.7402778,28.738125 14.9222222,28.738125 16.8972222,30.7125 C18.8722222,32.686875 18.8722222,35.8678125 16.8972222,37.8421875" id="Shape" fill="#CCCCCC"></path>
                    </g>
                    <polygon id="Shape" fill="#E0E0E0" points="19.9694444 215.42625 0.219444444 224.310937 0.219444444 231.001875 19.9694444 222.117188"></polygon>
                </g>
            </g>
        </g>
    </g>
</svg>