<?xml version="1.0" encoding="UTF-8"?>
<svg width="526px" height="378px" viewBox="0 0 526 378" version="1.1" xmlns="http://www.w3.org/2000/svg" xmlns:xlink="http://www.w3.org/1999/xlink">
    <!-- Generator: Sketch 48.2 (47327) - http://www.bohemiancoding.com/sketch -->
    <title>fridge_graphic</title>
    <desc>Created with Sketch.</desc>
    <defs>
        <radialGradient cx="50%" cy="0%" fx="50%" fy="0%" r="82.3936819%" gradientTransform="translate(0.500000,0.000000),scale(0.363118,1.000000),rotate(90.000000),scale(1.000000,2.008246),translate(-0.500000,-0.000000)" id="radialGradient-1">
            <stop stop-color="#E2E2E2" offset="0%"></stop>
            <stop stop-color="#F5F5F5" stop-opacity="0" offset="100%"></stop>
        </radialGradient>
    </defs>
    <g id="fridge" stroke="none" stroke-width="1" fill="none" fill-rule="evenodd" transform="translate(-597.000000, -428.000000)">
        <g id="fridge_graphic" transform="translate(597.000000, 428.000000)">
            <g id="Group-6" stroke-width="1" fill-rule="evenodd" transform="translate(0.000000, 221.000000)" fill="url(#radialGradient-1)">
                <g id="animation/shading">
                    <rect id="Rectangle-2" x="0" y="0" width="526" height="191"></rect>
                </g>
            </g>
            <g id="animation/fridge-360px" transform="translate(110.000000, 0.000000)">
                <rect id="Rectangle-path" x="0" y="0" width="351" height="294"></rect>
                <g id="Group-2" stroke-width="1" fill-rule="evenodd" transform="translate(42.900000, 0.000000)">
                    <rect id="Rectangle-path" fill="#FFFFFF" x="52" y="93.7869159" width="126.160748" height="199.297196"></rect>
                    <rect id="Rectangle-path" fill="#80EFF6" x="59.9700935" y="101.205607" width="110.414953" height="163.485981"></rect>
                    <polygon id="Shape" fill="#00DEEC" points="119.065421 122.91215 119.065421 264.691589 170.385047 264.691589 170.385047 101.205607"></polygon>
                    <rect id="Rectangle-path" fill="#F5F5F5" x="178.257944" y="93.7869159" width="126.160748" height="178.414953"></rect>
                    <rect id="Rectangle-path" fill="#F5F5F5" x="52" y="0.091588785" width="126.160748" height="89.2074766"></rect>
                    <rect id="Rectangle-path" fill="#80EFF6" x="186.130841" y="101.205607" width="110.414953" height="163.485981"></rect>
                    <rect id="Rectangle-path" fill="#E0E0E0" x="52" y="89.2990654" width="126.160748" height="4.48785047"></rect>
                    <rect id="Rectangle-path" fill="#E0E0E0" x="52" y="272.11028" width="126.160748" height="4.48785047"></rect>
                    <polygon id="Shape" fill="#CCCCCC" points="0.777570093 276.598131 0.777570093 21.7981308 52 0.091588785 52 293.084112"></polygon>
                    <polygon id="Shape" fill="#B2F5FA" opacity="0.8" points="59.9700935 101.205607 59.9700935 122.91215 119.065421 122.91215 170.385047 101.205607"></polygon>
                    <polygon id="Shape" fill="#B2F5FA" opacity="0.8" points="59.9700935 155.700935 59.9700935 177.407477 119.065421 177.407477 170.385047 155.700935"></polygon>
                    <polygon id="Shape" fill="#B2F5FA" opacity="0.8" points="59.9700935 210.196262 59.9700935 231.902804 119.065421 231.902804 170.385047 210.196262"></polygon>
                    <rect id="Rectangle-path" fill="#CCCCCC" transform="translate(61.924516, 44.740938) rotate(-90.000000) translate(-61.924516, -44.740938) " x="50.1151702" y="42.8633682" width="23.6186916" height="3.75514019"></rect>
                    <g id="Group" transform="translate(215.775701, 218.897196)" fill="#001CB0" fill-rule="nonzero">
                        <path d="M31.8803738,0.457943925 L31.8803738,38.3757009 C31.8803738,40.2074766 30.3252336,41.6728972 28.3813084,41.6728972 L4.76261682,41.6728972 C2.81869159,41.6728972 1.2635514,40.2074766 1.2635514,38.3757009 L1.2635514,0.457943925 L31.8803738,0.457943925 Z" id="Shape"></path>
                        <rect id="Rectangle-path" x="0.388785047" y="0.457943925" width="32.3663551" height="8.24299065"></rect>
                    </g>
                    <path d="M254.848598,151.762617 L241.629907,151.762617 C239.491589,151.762617 237.742056,150.114019 237.742056,148.099065 L237.742056,122.454206 C237.742056,120.439252 239.491589,118.790654 241.629907,118.790654 L254.848598,118.790654 C256.986916,118.790654 258.736449,120.439252 258.736449,122.454206 L258.736449,148.099065 C258.736449,150.114019 256.986916,151.762617 254.848598,151.762617 Z" id="Shape" fill="#001CB0"></path>
                    <path d="M281.091589,151.762617 L267.872897,151.762617 C265.734579,151.762617 263.985047,150.114019 263.985047,148.099065 L263.985047,122.454206 C263.985047,120.439252 265.734579,118.790654 267.872897,118.790654 L281.091589,118.790654 C283.229907,118.790654 284.979439,120.439252 284.979439,122.454206 L284.979439,148.099065 C284.979439,150.114019 283.229907,151.762617 281.091589,151.762617 Z" id="Shape" fill="#001CB0"></path>
                    <g id="Group" transform="translate(254.654206, 181.345794)" fill="#001CB0" fill-rule="nonzero">
                        <path d="M11.3719626,6.68598131 L11.3719626,14.928972 C11.3719626,31.4149533 0.58317757,36.3607477 0.58317757,52.846729 L0.58317757,75.9271028 C0.58317757,77.7588785 2.13831776,79.2242991 4.08224299,79.2242991 L26.8261682,79.2242991 C28.7700935,79.2242991 30.3252336,77.7588785 30.3252336,75.9271028 L30.3252336,52.846729 C30.3252336,36.3607477 19.5364486,31.4149533 19.5364486,14.928972 L19.5364486,6.68598131 L11.3719626,6.68598131 Z" id="Shape"></path>
                        <rect id="Rectangle-path" x="10.5943925" y="0.091588785" width="9.62242991" height="6.59439252"></rect>
                    </g>
                    <polygon id="Shape" fill="#FFFFFF" opacity="0.5" points="296.545794 264.691589 186.130841 264.691589 186.130841 243.626168 194.003738 247.381308 288.672897 247.381308 296.545794 243.626168"></polygon>
                    <rect id="Rectangle-path" fill="#001CB0" x="194.878505" y="125.201869" width="22.7439252" height="26.3775701"></rect>
                    <polygon id="Shape" fill="#FFFFFF" opacity="0.5" points="296.545794 155.700935 186.130841 155.700935 186.130841 134.635514 194.003738 138.390654 288.672897 138.390654 296.545794 134.635514"></polygon>
                </g>
            </g>
        </g>
    </g>
</svg>