<?xml version="1.0" encoding="UTF-8"?>
<svg width="526px" height="415px" viewBox="0 0 526 415" version="1.1" xmlns="http://www.w3.org/2000/svg" xmlns:xlink="http://www.w3.org/1999/xlink">
    <!-- Generator: Sketch 49.3 (51167) - http://www.bohemiancoding.com/sketch -->
    <title>Group 2</title>
    <desc>Created with Sketch.</desc>
    <defs>
        <radialGradient cx="50%" cy="0%" fx="50%" fy="0%" r="82.3936819%" gradientTransform="translate(0.500000,0.000000),scale(0.363118,1.000000),rotate(90.000000),scale(1.000000,2.008246),translate(-0.500000,-0.000000)" id="radialGradient-1">
            <stop stop-color="#E2E2E2" offset="0%"></stop>
            <stop stop-color="#F5F5F5" stop-opacity="0" offset="100%"></stop>
        </radialGradient>
        <path d="M56.5646701,43.5967905 C56.6516927,42.7902287 56.7387153,41.8940489 56.7387153,41.087487 C56.7387153,32.1256887 49.6898872,24.95625 41.0746528,24.95625 C32.3723958,24.95625 25.4105903,32.2153067 25.4105903,41.087487 C25.4105903,41.177105 25.4105903,41.177105 25.4105903,41.266723 C22.5388455,41.5355769 20.015191,43.1487006 18.4487847,45.5683862 C16.5342882,44.3137344 14.2717014,43.5071726 11.922092,43.5071726 C5.30837674,43.5071726 0,48.9738695 0,55.7848363 C0,62.595803 5.30837674,68.0625 11.922092,68.0625 L54.9112413,68.0625 C61.5249566,68.0625 66.8333333,62.595803 66.8333333,55.7848363 C66.8333333,49.6011954 62.3081597,44.4929704 56.5646701,43.5967905 Z M34.4609375,55.7848363 L34.1998698,55.7848363 C34.1998698,55.7848363 34.1998698,55.6952183 34.2868924,55.6952183 C34.3739149,55.6952183 34.4609375,55.7848363 34.4609375,55.7848363 Z" id="path-2"></path>
        <filter x="-26.9%" y="-41.8%" width="153.9%" height="183.5%" filterUnits="objectBoundingBox" id="filter-3">
            <feOffset dx="0" dy="0" in="SourceAlpha" result="shadowOffsetOuter1"></feOffset>
            <feGaussianBlur stdDeviation="6" in="shadowOffsetOuter1" result="shadowBlurOuter1"></feGaussianBlur>
            <feColorMatrix values="0 0 0 0 0.2   0 0 0 0 0.2   0 0 0 0 0.2  0 0 0 0.15 0" type="matrix" in="shadowBlurOuter1"></feColorMatrix>
        </filter>
    </defs>
    <g id="V5-HP-screens" stroke="none" stroke-width="1" fill="none" fill-rule="evenodd">
        <g id="cooling-open-V5-STATIC" transform="translate(-597.000000, -391.000000)">
            <g id="Group-2" transform="translate(597.000000, 365.000000)">
                <g id="Group-6" transform="translate(0.000000, 284.000000)" fill="url(#radialGradient-1)">
                    <g id="animation/shading">
                        <rect id="Rectangle-2" x="0" y="0" width="526" height="191"></rect>
                    </g>
                </g>
                <g id="animation/cooling-360px" transform="translate(122.000000, 0.000000)">
                    <g id="Group-13">
                        <rect id="Rectangle-path" x="0" y="0" width="401" height="363"></rect>
                        <g id="Group-5" transform="translate(10.025000, 26.090625)">
                            <ellipse id="Oval" fill="#FFE344" cx="79.6430556" cy="48.2109375" rx="47.3402778" ry="48.2109375"></ellipse>
                            <g id="Shape" fill-rule="nonzero">
                                <use fill="black" fill-opacity="1" filter="url(#filter-3)" xlink:href="#path-2"></use>
                                <use fill="#FFFFFF" fill-rule="evenodd" xlink:href="#path-2"></use>
                            </g>
                        </g>
                        <rect id="Rectangle-path" fill="#DBDBDB" x="128.988333" y="209.405625" width="105.930833" height="132.94875"></rect>
                        <g id="Group" transform="translate(50.125000, 137.259375)">
                            <polygon id="Shape" fill="#FFFFFF" points="239.040556 0.9075 184.682778 72.14625 184.682778 205.095 299.970278 205.095 299.636111 72.14625"></polygon>
                            <polygon id="Shape" fill="#66ECF4" points="192.702778 205.095 192.702778 74.9821875 239.374722 13.7259375 291.7275 75.2090625 291.950278 205.095"></polygon>
                            <polyline id="Shape" fill="#00DFED" points="192.702778 74.9821875 239.374722 13.7259375 291.7275 75.2090625"></polyline>
                            <g transform="translate(0.000000, 91.884375)">
                                <rect id="Rectangle-path" fill="#FFFFFF" x="44.3327778" y="29.1534375" width="90.0022222" height="84.0571875"></rect>
                                <polygon id="Shape" fill="#001CAF" points="134.335 29.04 112.836944 0.45375 22.6119444 0.45375 44.3327778 29.04"></polygon>
                                <polygon id="Shape" fill="#DBDBDB" points="0.779722222 113.210625 0.779722222 29.1534375 22.6119444 0.5671875 44.3327778 29.1534375 44.3327778 113.210625"></polygon>
                            </g>
                            <g transform="translate(11.138889, 91.884375)" fill="#00DEEC" id="Rectangle-path">
                                <rect x="49.5680556" y="46.8496875" width="21.3866667" height="28.6996875"></rect>
                                <rect x="85.7694444" y="46.8496875" width="21.3866667" height="28.6996875"></rect>
                                <rect x="137.676667" y="46.8496875" width="21.3866667" height="28.6996875"></rect>
                                <rect x="0.779722222" y="46.8496875" width="21.3866667" height="28.6996875"></rect>
                                <rect x="137.676667" y="0.5671875" width="21.3866667" height="28.6996875"></rect>
                            </g>
                        </g>
                        <polygon id="Shape" fill="#001CAF" points="129.099722 209.405625 183.4575 138.166875 289.165556 138.166875 234.919167 209.405625"></polygon>
                        <g id="Group" transform="translate(266.219444, 252.965625)" stroke="#FFFFFF" stroke-linecap="round" stroke-linejoin="round" stroke-width="4.125">
                            <path d="M23.7258333,6.4659375 C23.5030556,6.0121875 23.3916667,5.445 23.3916667,4.8778125 C23.3916667,4.1971875 23.5030556,3.5165625 23.7258333,2.949375 C23.9486111,2.3821875 24.2827778,1.815 24.7283333,1.36125 C25.1738889,0.9075 25.7308333,0.5671875 26.2877778,0.3403125 C26.8447222,0.1134375 27.5130556,5.68434189e-14 28.1813889,5.68434189e-14 C29.0725,5.68434189e-14 29.8522222,0.226875 30.5205556,0.45375 C31.3002778,0.7940625 31.8572222,1.2478125 32.4141667,1.815 C32.9711111,2.3821875 33.4166667,3.0628125 33.7508333,3.7434375 C34.085,4.4240625 34.1963889,5.3315625 34.1963889,6.125625 C34.1963889,7.1465625 33.9736111,8.1675 33.6394444,9.075 C33.3052778,9.9825 32.7483333,10.7765625 31.9686111,11.570625 C31.3002778,12.25125 30.5205556,12.8184375 29.5180556,13.2721875 C28.6269444,13.6125 27.6244444,13.839375 26.6219444,13.839375 L17.2652778,13.839375 L7.90861111,13.839375" id="Shape"></path>
                            <path d="M40.6569444,15.5409375 C40.4341667,15.0871875 40.3227778,14.52 40.3227778,13.9528125 C40.3227778,13.2721875 40.4341667,12.5915625 40.6569444,12.024375 C40.8797222,11.4571875 41.2138889,10.89 41.6594444,10.43625 C42.105,9.9825 42.6619444,9.6421875 43.2188889,9.4153125 C43.7758333,9.1884375 44.4441667,9.075 45.1125,9.075 C46.0036111,9.075 46.7833333,9.301875 47.4516667,9.52875 C48.12,9.8690625 48.7883333,10.3228125 49.3452778,10.89 C49.9022222,11.4571875 50.3477778,12.1378125 50.6819444,12.8184375 C51.0161111,13.4990625 51.1275,14.4065625 51.1275,15.200625 C51.1275,16.2215625 50.9047222,17.2425 50.5705556,18.15 C50.2363889,19.0575 49.6794444,19.8515625 48.8997222,20.645625 C48.2313889,21.32625 47.4516667,21.8934375 46.4491667,22.3471875 C45.5580556,22.6875 44.5555556,22.914375 43.5530556,22.914375 L29.0725,22.914375 L14.5919444,22.914375" id="Shape"></path>
                            <path d="M27.0675,39.3628125 C26.8447222,39.8165625 26.7333333,40.38375 26.7333333,40.9509375 C26.7333333,41.6315625 26.8447222,42.3121875 27.0675,42.879375 C27.2902778,43.4465625 27.6244444,44.01375 28.07,44.4675 C28.5155556,44.92125 29.0725,45.2615625 29.6294444,45.4884375 C30.1863889,45.7153125 30.8547222,45.82875 31.5230556,45.82875 C32.4141667,45.82875 33.1938889,45.601875 33.8622222,45.375 C34.6419444,45.0346875 35.1988889,44.5809375 35.7558333,44.01375 C36.3127778,43.4465625 36.7583333,42.7659375 37.0925,42.0853125 C37.4266667,41.4046875 37.5380556,40.4971875 37.5380556,39.703125 C37.5380556,38.6821875 37.3152778,37.66125 36.9811111,36.75375 C36.6469444,35.84625 36.09,35.0521875 35.3102778,34.258125 C34.6419444,33.5775 33.8622222,33.0103125 32.8597222,32.5565625 C31.9686111,32.21625 30.9661111,31.989375 29.9636111,31.989375 L15.4830556,31.989375 L1.0025,31.989375" id="Shape"></path>
                        </g>
                    </g>
                </g>
            </g>
        </g>
    </g>
</svg>