<?xml version="1.0" encoding="UTF-8"?>
<svg width="557px" height="470px" viewBox="0 0 557 470" version="1.1" xmlns="http://www.w3.org/2000/svg" xmlns:xlink="http://www.w3.org/1999/xlink">
    <!-- Generator: Sketch 48.2 (47327) - http://www.bohemiancoding.com/sketch -->
    <title>Group 6 Copy</title>
    <desc>Created with Sketch.</desc>
    <defs>
        <radialGradient cx="50%" cy="0%" fx="50%" fy="0%" r="82.3936819%" gradientTransform="translate(0.500000,0.000000),scale(0.363118,1.000000),rotate(90.000000),scale(1.000000,2.008246),translate(-0.500000,-0.000000)" id="radialGradient-1">
            <stop stop-color="#E2E2E2" offset="0%"></stop>
            <stop stop-color="#F5F5F5" stop-opacity="0" offset="100%"></stop>
        </radialGradient>
        <path d="M174.111111,60.5615625 C174.444444,58.68625 174.555556,56.700625 174.555556,54.715 C174.555556,34.0865625 157.666667,17.429375 137,17.429375 C116.333333,17.429375 99.4444444,34.196875 99.4444444,54.715 C99.4444444,54.8253125 99.4444444,54.935625 99.4444444,55.0459375 C92.5555556,55.7078125 86.5555556,59.4584375 82.8888889,64.9740625 C78.3333333,61.995625 73,60.3409375 67.2222222,60.3409375 C51.4444444,60.3409375 38.6666667,73.026875 38.6666667,88.69125 C38.6666667,104.355625 51.4444444,117.041563 67.2222222,117.041563 L170.111111,117.041563 C185.888889,117.041563 198.666667,104.355625 198.666667,88.69125 C198.666667,74.350625 188,62.5471875 174.111111,60.5615625 Z M121.222222,88.69125 L120.777778,88.69125 C120.777778,88.5809375 120.888889,88.5809375 120.888889,88.470625 C121,88.5809375 121.111111,88.5809375 121.222222,88.69125 Z" id="path-2"></path>
        <filter x="-11.2%" y="-18.1%" width="122.5%" height="136.1%" filterUnits="objectBoundingBox" id="filter-3">
            <feOffset dx="0" dy="0" in="SourceAlpha" result="shadowOffsetOuter1"></feOffset>
            <feGaussianBlur stdDeviation="6" in="shadowOffsetOuter1" result="shadowBlurOuter1"></feGaussianBlur>
            <feColorMatrix values="0 0 0 0 0.2   0 0 0 0 0.2   0 0 0 0 0.2  0 0 0 0.06 0" type="matrix" in="shadowBlurOuter1"></feColorMatrix>
        </filter>
        <linearGradient x1="50%" y1="0%" x2="50%" y2="64.975287%" id="linearGradient-4">
            <stop stop-color="#FFFFFF" stop-opacity="0" offset="0%"></stop>
            <stop stop-color="#FFFFFF" offset="100%"></stop>
        </linearGradient>
    </defs>
    <g id="Desktop-|-Flow-1-|-Custom-|-Success-V2" stroke="none" stroke-width="1" fill="none" fill-rule="evenodd" transform="translate(-417.000000, -358.000000)">
        <g id="Group-6-Copy" transform="translate(417.000000, 352.000000)">
            <g id="animation/shading" transform="translate(10.000000, 293.000000)" fill="url(#radialGradient-1)">
                <rect id="Rectangle-2" x="0" y="0" width="526" height="191"></rect>
            </g>
            <g id="animation/house-360px" transform="translate(87.000000, 0.000000)">
                <g id="Group-2">
                    <rect id="Rectangle-path" x="0" y="0" width="400" height="353"></rect>
                    <g id="Group" transform="translate(50.000000, 134.581250)">
                        <polygon id="Shape" fill="#FFFFFF" points="238.333333 0 184.222222 69.1659375 184.222222 198.341875 299.111111 198.341875 298.777778 69.1659375"></polygon>
                        <rect id="Rectangle-path" fill="#DBDBDB" x="78.6666667" y="69.1659375" width="105.555556" height="129.175937"></rect>
                        <rect id="Rectangle-path" fill="#00DEEC" x="205.333333" y="88.911875" width="21.3333333" height="27.79875"></rect>
                        <rect id="Rectangle-path" fill="#001CAF" x="256.666667" y="88.911875" width="21.3333333" height="27.79875"></rect>
                        <rect id="Rectangle-path" fill="#001CAF" x="226.555556" y="137.780313" width="30.1111111" height="60.7821875"></rect>
                        <g transform="translate(0.000000, 88.250000)">
                            <rect id="Rectangle-path" fill="#FFFFFF" x="44.3333333" y="28.460625" width="89.6666667" height="81.7415625"></rect>
                            <polygon id="Shape" fill="#001CAF" points="134 28.3503125 112.555556 0.5515625 22.6666667 0.5515625 44.3333333 28.3503125"></polygon>
                            <polygon id="Shape" fill="#DBDBDB" points="0.888888889 110.091875 0.888888889 28.460625 22.6666667 0.661875 44.3333333 28.460625 44.3333333 110.091875"></polygon>
                            <rect id="Rectangle-path" fill="#00DEEC" x="60.6666667" y="45.669375" width="21.3333333" height="27.79875"></rect>
                            <rect id="Rectangle-path" fill="#001CAF" x="96.7777778" y="45.669375" width="21.3333333" height="27.79875"></rect>
                        </g>
                        <rect id="Rectangle-path" fill="#00DEEC" x="148.444444" y="133.919375" width="21.3333333" height="27.79875"></rect>
                        <rect id="Rectangle-path" fill="#00DEEC" x="12" y="133.919375" width="21.3333333" height="27.79875"></rect>
                        <rect id="Rectangle-path" fill="#00DEEC" x="148.444444" y="88.911875" width="21.3333333" height="27.79875"></rect>
                    </g>
                    <g id="Shape" fill-rule="nonzero">
                        <use fill="black" fill-opacity="1" filter="url(#filter-3)" xlink:href="#path-2"></use>
                        <use fill="#FFFFFF" fill-rule="evenodd" xlink:href="#path-2"></use>
                    </g>
                    <polygon id="Shape" fill="#001CAF" points="128.777778 203.636875 182.888889 134.360625 288.333333 134.360625 234.222222 203.636875"></polygon>
                </g>
            </g>
            <rect id="Rectangle-3" fill="url(#linearGradient-4)" x="0" y="360" width="557" height="116"></rect>
        </g>
    </g>
</svg>