<?xml version="1.0" encoding="UTF-8"?>
<svg width="526px" height="433px" viewBox="0 0 526 433" version="1.1" xmlns="http://www.w3.org/2000/svg" xmlns:xlink="http://www.w3.org/1999/xlink">
    <!-- Generator: Sketch 48.2 (47327) - http://www.bohemiancoding.com/sketch -->
    <title>rain_graphic</title>
    <desc>Created with Sketch.</desc>
    <defs>
        <radialGradient cx="50%" cy="0%" fx="50%" fy="0%" r="82.3936819%" gradientTransform="translate(0.500000,0.000000),scale(0.363118,1.000000),rotate(90.000000),scale(1.000000,2.008246),translate(-0.500000,-0.000000)" id="radialGradient-1">
            <stop stop-color="#E2E2E2" offset="0%"></stop>
            <stop stop-color="#F5F5F5" stop-opacity="0" offset="100%"></stop>
        </radialGradient>
        <path d="M168.564524,54.7470506 C168.793896,53.0987967 168.946811,51.4505428 168.946811,49.8022889 C168.946811,32.3778906 155.184482,18.25 138.210943,18.25 C121.237405,18.25 107.475076,32.3778906 107.475076,49.8022889 C107.475076,49.8807772 107.475076,50.0377538 107.475076,50.116242 C101.81723,50.66566 96.9239572,53.8836795 93.9421193,58.4359998 C90.272165,55.9243748 85.8376369,54.5115858 81.0972792,54.5115858 C68.2524391,54.5115858 57.7777778,65.2644803 57.7777778,78.4505115 C57.7777778,91.6365426 68.2524391,102.389437 81.0972792,102.389437 L165.200399,102.389437 C178.045239,102.389437 188.5199,91.6365426 188.5199,78.4505115 C188.5199,66.3633162 179.803759,56.3953045 168.564524,54.7470506 Z M125.289646,78.4505115 L124.907359,78.4505115 C124.907359,78.3720232 124.983816,78.3720232 124.983816,78.2935349 C125.136731,78.3720232 125.213188,78.3720232 125.289646,78.4505115 Z" id="path-2"></path>
        <filter x="-13.8%" y="-21.4%" width="127.5%" height="142.8%" filterUnits="objectBoundingBox" id="filter-3">
            <feOffset dx="0" dy="0" in="SourceAlpha" result="shadowOffsetOuter1"></feOffset>
            <feGaussianBlur stdDeviation="6" in="shadowOffsetOuter1" result="shadowBlurOuter1"></feGaussianBlur>
            <feColorMatrix values="0 0 0 0 0.2   0 0 0 0 0.2   0 0 0 0 0.2  0 0 0 0.06 0" type="matrix" in="shadowBlurOuter1"></feColorMatrix>
        </filter>
    </defs>
    <g id="heating" stroke="none" stroke-width="1" fill="none" fill-rule="evenodd" transform="translate(-597.000000, -373.000000)">
        <g id="rain_graphic" transform="translate(597.000000, 366.000000)">
            <g id="Group-6" transform="translate(0.000000, 283.000000)" fill="url(#radialGradient-1)">
                <g id="animation/shading">
                    <rect id="Rectangle-2" x="0" y="0" width="526" height="191"></rect>
                </g>
            </g>
            <g id="animation/heating-360px" transform="translate(122.000000, 0.000000)">
                <g id="Group-13">
                    <rect id="Rectangle-path" x="0" y="0" width="400" height="365"></rect>
                    <g id="Shape" fill-rule="nonzero">
                        <use fill="black" fill-opacity="1" filter="url(#filter-3)" xlink:href="#path-2"></use>
                        <use fill="#CCCCCC" fill-rule="evenodd" xlink:href="#path-2"></use>
                    </g>
                    <g id="Group" transform="translate(56.666667, 114.062500)" fill="#CCCCCC">
                        <path d="M154.968553,188.511596 C155.066387,188.812893 155.164221,189.214623 155.164221,189.616352 C155.164221,190.018082 155.066387,190.319379 154.968553,190.721108 C154.87072,191.022406 154.675052,191.323703 154.381551,191.625 C154.185884,191.825865 153.892383,192.02673 153.501048,192.227594 C153.207547,192.328027 152.816212,192.428459 152.424878,192.428459 C152.033543,192.428459 151.740042,192.328027 151.348707,192.227594 C151.055206,192.127162 150.761705,191.926297 150.468204,191.625 C150.272537,191.424135 150.076869,191.122838 149.881202,190.721108 C149.783368,190.419811 149.685535,190.018082 149.685535,189.616352 C149.685535,189.214623 149.783368,188.913325 149.881202,188.511596 L152.327044,183.389544 L154.968553,188.511596 Z" id="Shape"></path>
                        <path d="M112.215234,188.511596 C112.313068,188.812893 112.410901,189.214623 112.410901,189.616352 C112.410901,190.018082 112.313068,190.319379 112.215234,190.721108 C112.1174,191.022406 111.921733,191.323703 111.628232,191.625 C111.432565,191.825865 111.139064,192.02673 110.747729,192.227594 C110.454228,192.328027 110.062893,192.428459 109.671558,192.428459 C109.280224,192.428459 108.986723,192.328027 108.595388,192.227594 C108.301887,192.127162 108.008386,191.926297 107.714885,191.625 C107.519217,191.424135 107.32355,191.122838 107.127883,190.721108 C107.030049,190.419811 106.932215,190.018082 106.932215,189.616352 C106.932215,189.214623 107.030049,188.913325 107.127883,188.511596 L109.573725,183.389544 L112.215234,188.511596 Z" id="Shape"></path>
                        <path d="M69.5597484,188.511596 C69.6575821,188.812893 69.7554158,189.214623 69.7554158,189.616352 C69.7554158,190.018082 69.6575821,190.319379 69.5597484,190.721108 C69.4619147,191.022406 69.2662474,191.323703 68.9727463,191.625 C68.777079,191.825865 68.4835779,192.02673 68.0922432,192.227594 C67.7987421,192.328027 67.4074074,192.428459 67.0160727,192.428459 C66.6247379,192.428459 66.3312369,192.328027 65.9399022,192.227594 C65.6464011,192.127162 65.3529001,191.926297 65.059399,191.625 C64.8637317,191.424135 64.6680643,191.122838 64.4723969,190.721108 C64.3745632,190.419811 64.2767296,190.018082 64.2767296,189.616352 C64.2767296,189.214623 64.3745632,188.913325 64.4723969,188.511596 L66.918239,183.389544 L69.5597484,188.511596 Z" id="Shape"></path>
                        <path d="M26.9042628,188.511596 C27.0020964,188.812893 27.0999301,189.214623 27.0999301,189.616352 C27.0999301,190.018082 27.0020964,190.319379 26.9042628,190.721108 C26.8064291,191.022406 26.6107617,191.323703 26.3172607,191.625 C26.1215933,191.825865 25.8280922,192.02673 25.4367575,192.227594 C25.1432565,192.328027 24.7519217,192.428459 24.360587,192.428459 C23.9692523,192.428459 23.6757512,192.328027 23.2844165,192.227594 C22.9909154,192.127162 22.6974144,191.926297 22.4039133,191.625 C22.208246,191.424135 22.0125786,191.122838 21.8169113,190.721108 C21.7190776,190.419811 21.6212439,190.018082 21.6212439,189.616352 C21.6212439,189.214623 21.7190776,188.913325 21.8169113,188.511596 L24.2627533,183.389544 L26.9042628,188.511596 Z" id="Shape"></path>
                        <path d="M133.640811,151.954206 C133.738644,152.255503 133.836478,152.657233 133.836478,153.058962 C133.836478,153.460692 133.738644,153.761989 133.640811,154.163719 C133.542977,154.465016 133.34731,154.766313 133.053809,155.06761 C132.858141,155.268475 132.56464,155.46934 132.173305,155.670204 C131.879804,155.770637 131.48847,155.871069 131.097135,155.871069 C130.7058,155.871069 130.412299,155.770637 130.020964,155.670204 C129.727463,155.569772 129.433962,155.368907 129.140461,155.06761 C128.944794,154.866745 128.749126,154.565448 128.553459,154.163719 C128.455625,153.862421 128.357792,153.460692 128.357792,153.058962 C128.357792,152.657233 128.455625,152.355936 128.553459,151.954206 L130.999301,146.832154 L133.640811,151.954206 Z" id="Shape"></path>
                        <path d="M90.8874913,151.954206 C90.9853249,152.255503 91.0831586,152.657233 91.0831586,153.058962 C91.0831586,153.460692 90.9853249,153.761989 90.8874913,154.163719 C90.7896576,154.465016 90.5939902,154.766313 90.3004892,155.06761 C90.1048218,155.268475 89.8113208,155.46934 89.419986,155.670204 C89.126485,155.770637 88.7351502,155.871069 88.3438155,155.871069 C87.9524808,155.871069 87.6589797,155.770637 87.267645,155.670204 C86.974144,155.569772 86.6806429,155.368907 86.3871419,155.06761 C86.1914745,154.866745 85.9958071,154.565448 85.8001398,154.163719 C85.7023061,153.862421 85.6044724,153.460692 85.6044724,153.058962 C85.6044724,152.657233 85.7023061,152.355936 85.8001398,151.954206 L88.2459818,146.832154 L90.8874913,151.954206 Z" id="Shape"></path>
                        <path d="M48.2320056,151.954206 C48.3298393,152.255503 48.427673,152.657233 48.427673,153.058962 C48.427673,153.460692 48.3298393,153.761989 48.2320056,154.163719 C48.1341719,154.465016 47.9385045,154.766313 47.6450035,155.06761 C47.4493361,155.268475 47.1558351,155.46934 46.7645003,155.670204 C46.4709993,155.770637 46.0796646,155.871069 45.6883298,155.871069 C45.2969951,155.871069 45.0034941,155.770637 44.6121593,155.670204 C44.3186583,155.569772 44.0251572,155.368907 43.7316562,155.06761 C43.5359888,154.866745 43.3403215,154.565448 43.1446541,154.163719 C43.0468204,153.862421 42.9489867,153.460692 42.9489867,153.058962 C42.9489867,152.657233 43.0468204,152.355936 43.1446541,151.954206 L45.5904962,146.832154 L48.2320056,151.954206 Z" id="Shape"></path>
                        <path d="M5.57651992,151.954206 C5.6743536,152.255503 5.77218728,152.657233 5.77218728,153.058962 C5.77218728,153.460692 5.6743536,153.761989 5.57651992,154.163719 C5.47868623,154.465016 5.28301887,154.766313 4.98951782,155.06761 C4.79385045,155.268475 4.50034941,155.46934 4.10901468,155.670204 C3.81551363,155.770637 3.4241789,155.871069 3.03284416,155.871069 C2.64150943,155.871069 2.34800839,155.770637 1.95667365,155.670204 C1.66317261,155.569772 1.36967156,155.368907 1.07617051,155.06761 C0.880503145,154.866745 0.684835779,154.565448 0.489168414,154.163719 C0.391334731,153.862421 0.293501048,153.460692 0.293501048,153.058962 C0.293501048,152.657233 0.391334731,152.355936 0.489168414,151.954206 L2.93501048,146.832154 L5.57651992,151.954206 Z" id="Shape"></path>
                        <path d="M133.640811,78.9398585 C133.738644,79.2411557 133.836478,79.6428852 133.836478,80.0446148 C133.836478,80.4463443 133.738644,80.7476415 133.640811,81.1493711 C133.542977,81.4506682 133.34731,81.7519654 133.053809,82.0532626 C132.858141,82.2541274 132.56464,82.4549921 132.173305,82.6558569 C131.879804,82.7562893 131.48847,82.8567217 131.097135,82.8567217 C130.7058,82.8567217 130.412299,82.7562893 130.020964,82.6558569 C129.727463,82.5554245 129.433962,82.3545597 129.140461,82.0532626 C128.944794,81.8523978 128.749126,81.5511006 128.553459,81.1493711 C128.455625,80.8480739 128.357792,80.4463443 128.357792,80.0446148 C128.357792,79.6428852 128.455625,79.3415881 128.553459,78.9398585 L130.999301,73.8178066 L133.640811,78.9398585 Z" id="Shape"></path>
                        <path d="M90.8874913,78.9398585 C90.9853249,79.2411557 91.0831586,79.6428852 91.0831586,80.0446148 C91.0831586,80.4463443 90.9853249,80.7476415 90.8874913,81.1493711 C90.7896576,81.4506682 90.5939902,81.7519654 90.3004892,82.0532626 C90.1048218,82.2541274 89.8113208,82.4549921 89.419986,82.6558569 C89.126485,82.7562893 88.7351502,82.8567217 88.3438155,82.8567217 C87.9524808,82.8567217 87.6589797,82.7562893 87.267645,82.6558569 C86.974144,82.5554245 86.6806429,82.3545597 86.3871419,82.0532626 C86.1914745,81.8523978 85.9958071,81.5511006 85.8001398,81.1493711 C85.7023061,80.8480739 85.6044724,80.4463443 85.6044724,80.0446148 C85.6044724,79.6428852 85.7023061,79.3415881 85.8001398,78.9398585 L88.2459818,73.8178066 L90.8874913,78.9398585 Z" id="Shape"></path>
                        <path d="M48.2320056,78.9398585 C48.3298393,79.2411557 48.427673,79.6428852 48.427673,80.0446148 C48.427673,80.4463443 48.3298393,80.7476415 48.2320056,81.1493711 C48.1341719,81.4506682 47.9385045,81.7519654 47.6450035,82.0532626 C47.4493361,82.2541274 47.1558351,82.4549921 46.7645003,82.6558569 C46.4709993,82.7562893 46.0796646,82.8567217 45.6883298,82.8567217 C45.2969951,82.8567217 45.0034941,82.7562893 44.6121593,82.6558569 C44.3186583,82.5554245 44.0251572,82.3545597 43.7316562,82.0532626 C43.5359888,81.8523978 43.3403215,81.5511006 43.1446541,81.1493711 C43.0468204,80.8480739 42.9489867,80.4463443 42.9489867,80.0446148 C42.9489867,79.6428852 43.0468204,79.3415881 43.1446541,78.9398585 L45.5904962,73.8178066 L48.2320056,78.9398585 Z" id="Shape"></path>
                        <path d="M5.57651992,78.9398585 C5.6743536,79.2411557 5.77218728,79.6428852 5.77218728,80.0446148 C5.77218728,80.4463443 5.6743536,80.7476415 5.57651992,81.1493711 C5.47868623,81.4506682 5.28301887,81.7519654 4.98951782,82.0532626 C4.79385045,82.2541274 4.50034941,82.4549921 4.10901468,82.6558569 C3.81551363,82.7562893 3.4241789,82.8567217 3.03284416,82.8567217 C2.64150943,82.8567217 2.34800839,82.7562893 1.95667365,82.6558569 C1.66317261,82.5554245 1.36967156,82.3545597 1.07617051,82.0532626 C0.880503145,81.8523978 0.684835779,81.5511006 0.489168414,81.1493711 C0.293501048,80.7476415 0.293501048,80.4463443 0.293501048,80.0446148 C0.293501048,79.6428852 0.391334731,79.3415881 0.489168414,78.9398585 L2.93501048,73.8178066 L5.57651992,78.9398585 Z" id="Shape"></path>
                        <path d="M154.968553,115.497248 C155.066387,115.798546 155.164221,116.200275 155.164221,116.602005 C155.164221,117.003734 155.066387,117.305031 154.968553,117.706761 C154.87072,118.008058 154.675052,118.309355 154.381551,118.610653 C154.185884,118.811517 153.892383,119.012382 153.501048,119.213247 C153.207547,119.313679 152.816212,119.414112 152.424878,119.414112 C152.033543,119.414112 151.740042,119.313679 151.348707,119.213247 C151.055206,119.112814 150.761705,118.91195 150.468204,118.610653 C150.272537,118.409788 150.076869,118.108491 149.881202,117.706761 C149.783368,117.405464 149.685535,117.003734 149.685535,116.602005 C149.685535,116.200275 149.783368,115.898978 149.881202,115.497248 L152.327044,110.375197 L154.968553,115.497248 Z" id="Shape"></path>
                        <path d="M112.215234,115.497248 C112.313068,115.798546 112.410901,116.200275 112.410901,116.602005 C112.410901,117.003734 112.313068,117.305031 112.215234,117.706761 C112.1174,118.008058 111.921733,118.309355 111.628232,118.610653 C111.432565,118.811517 111.139064,119.012382 110.747729,119.213247 C110.454228,119.313679 110.062893,119.414112 109.671558,119.414112 C109.280224,119.414112 108.986723,119.313679 108.595388,119.213247 C108.301887,119.112814 108.008386,118.91195 107.714885,118.610653 C107.519217,118.409788 107.32355,118.108491 107.127883,117.706761 C107.030049,117.405464 106.932215,117.003734 106.932215,116.602005 C106.932215,116.200275 107.030049,115.898978 107.127883,115.497248 L109.573725,110.375197 L112.215234,115.497248 Z" id="Shape"></path>
                        <path d="M69.5597484,115.497248 C69.6575821,115.798546 69.7554158,116.200275 69.7554158,116.602005 C69.7554158,117.003734 69.6575821,117.305031 69.5597484,117.706761 C69.4619147,118.008058 69.2662474,118.309355 68.9727463,118.610653 C68.777079,118.811517 68.4835779,119.012382 68.0922432,119.213247 C67.7987421,119.313679 67.4074074,119.414112 67.0160727,119.414112 C66.6247379,119.414112 66.3312369,119.313679 65.9399022,119.213247 C65.6464011,119.112814 65.3529001,118.91195 65.059399,118.610653 C64.8637317,118.409788 64.6680643,118.108491 64.4723969,117.706761 C64.3745632,117.405464 64.2767296,117.003734 64.2767296,116.602005 C64.2767296,116.200275 64.3745632,115.898978 64.4723969,115.497248 L66.918239,110.375197 L69.5597484,115.497248 Z" id="Shape"></path>
                        <path d="M26.9042628,115.497248 C27.0020964,115.798546 27.0999301,116.200275 27.0999301,116.602005 C27.0999301,117.003734 27.0020964,117.305031 26.9042628,117.706761 C26.8064291,118.008058 26.6107617,118.309355 26.3172607,118.610653 C26.1215933,118.811517 25.8280922,119.012382 25.4367575,119.213247 C25.1432565,119.313679 24.7519217,119.414112 24.360587,119.414112 C23.9692523,119.414112 23.6757512,119.313679 23.2844165,119.213247 C22.9909154,119.112814 22.6974144,118.91195 22.4039133,118.610653 C22.208246,118.409788 22.0125786,118.108491 21.8169113,117.706761 C21.7190776,117.405464 21.6212439,117.003734 21.6212439,116.602005 C21.6212439,116.200275 21.7190776,115.898978 21.8169113,115.497248 L24.2627533,110.375197 L26.9042628,115.497248 Z" id="Shape"></path>
                        <path d="M154.968553,42.3824686 C155.066387,42.6837657 155.164221,43.0854953 155.164221,43.4872248 C155.164221,43.8889544 155.066387,44.1902516 154.968553,44.5919811 C154.87072,44.8932783 154.675052,45.1945755 154.381551,45.4958726 C154.185884,45.6967374 153.892383,45.8976022 153.501048,46.098467 C153.207547,46.1988994 152.816212,46.2993318 152.424878,46.2993318 C152.033543,46.2993318 151.740042,46.1988994 151.348707,46.098467 C150.957372,45.9980346 150.761705,45.7971698 150.468204,45.4958726 C150.272537,45.2950079 150.076869,44.9937107 149.881202,44.5919811 C149.783368,44.290684 149.685535,43.8889544 149.685535,43.4872248 C149.685535,43.0854953 149.783368,42.7841981 149.881202,42.3824686 L152.327044,37.2604167 L154.968553,42.3824686 Z" id="Shape"></path>
                        <path d="M112.215234,42.3824686 C112.313068,42.6837657 112.410901,43.0854953 112.410901,43.4872248 C112.410901,43.8889544 112.313068,44.1902516 112.215234,44.5919811 C112.1174,44.8932783 111.921733,45.1945755 111.628232,45.4958726 C111.432565,45.6967374 111.139064,45.8976022 110.747729,46.098467 C110.454228,46.1988994 110.062893,46.2993318 109.671558,46.2993318 C109.280224,46.2993318 108.986723,46.1988994 108.595388,46.098467 C108.301887,45.9980346 108.008386,45.7971698 107.714885,45.4958726 C107.519217,45.2950079 107.32355,44.9937107 107.127883,44.5919811 C107.030049,44.290684 106.932215,43.8889544 106.932215,43.4872248 C106.932215,43.0854953 107.030049,42.7841981 107.127883,42.3824686 L109.573725,37.2604167 L112.215234,42.3824686 Z" id="Shape"></path>
                        <path d="M69.5597484,42.3824686 C69.6575821,42.6837657 69.7554158,43.0854953 69.7554158,43.4872248 C69.7554158,43.8889544 69.6575821,44.1902516 69.5597484,44.5919811 C69.4619147,44.8932783 69.2662474,45.1945755 68.9727463,45.4958726 C68.777079,45.6967374 68.4835779,45.8976022 68.0922432,46.098467 C67.7987421,46.1988994 67.4074074,46.2993318 67.0160727,46.2993318 C66.6247379,46.2993318 66.3312369,46.1988994 65.9399022,46.098467 C65.6464011,45.9980346 65.3529001,45.7971698 65.059399,45.4958726 C64.8637317,45.2950079 64.6680643,44.9937107 64.4723969,44.5919811 C64.3745632,44.290684 64.2767296,43.8889544 64.2767296,43.4872248 C64.2767296,43.0854953 64.3745632,42.7841981 64.4723969,42.3824686 L66.918239,37.2604167 L69.5597484,42.3824686 Z" id="Shape"></path>
                        <path d="M26.9042628,42.3824686 C27.0020964,42.6837657 27.0999301,43.0854953 27.0999301,43.4872248 C27.0999301,43.8889544 27.0020964,44.1902516 26.9042628,44.5919811 C26.8064291,44.8932783 26.6107617,45.1945755 26.3172607,45.4958726 C26.1215933,45.6967374 25.8280922,45.8976022 25.4367575,46.098467 C25.1432565,46.1988994 24.7519217,46.2993318 24.360587,46.2993318 C23.9692523,46.2993318 23.6757512,46.1988994 23.2844165,46.098467 C22.9909154,45.9980346 22.6974144,45.7971698 22.4039133,45.4958726 C22.208246,45.2950079 22.0125786,44.9937107 21.8169113,44.5919811 C21.7190776,44.290684 21.6212439,43.8889544 21.6212439,43.4872248 C21.6212439,43.0854953 21.7190776,42.7841981 21.8169113,42.3824686 L24.2627533,37.2604167 L26.9042628,42.3824686 Z" id="Shape"></path>
                        <path d="M133.640811,5.92551101 C133.738644,6.22680818 133.836478,6.62853774 133.836478,7.0302673 C133.836478,7.43199686 133.738644,7.73329403 133.640811,8.13502358 C133.542977,8.43632075 133.34731,8.73761792 133.053809,9.03891509 C132.858141,9.23977987 132.56464,9.44064465 132.173305,9.64150943 C131.879804,9.74194182 131.48847,9.84237421 131.097135,9.84237421 C130.7058,9.84237421 130.412299,9.74194182 130.020964,9.64150943 C129.727463,9.54107704 129.433962,9.34021226 129.140461,9.03891509 C128.944794,8.83805031 128.749126,8.53675314 128.553459,8.13502358 C128.455625,7.83372642 128.357792,7.43199686 128.357792,7.0302673 C128.357792,6.62853774 128.455625,6.32724057 128.553459,5.92551101 L130.999301,0.803459119 L133.640811,5.92551101 Z" id="Shape"></path>
                        <path d="M90.8874913,5.92551101 C90.9853249,6.22680818 91.0831586,6.62853774 91.0831586,7.0302673 C91.0831586,7.43199686 90.9853249,7.73329403 90.8874913,8.13502358 C90.7896576,8.43632075 90.5939902,8.73761792 90.3004892,9.03891509 C90.1048218,9.23977987 89.8113208,9.44064465 89.419986,9.64150943 C89.126485,9.74194182 88.7351502,9.84237421 88.3438155,9.84237421 C87.9524808,9.84237421 87.6589797,9.74194182 87.267645,9.64150943 C86.974144,9.54107704 86.6806429,9.34021226 86.3871419,9.03891509 C86.1914745,8.83805031 85.9958071,8.53675314 85.8001398,8.13502358 C85.7023061,7.83372642 85.6044724,7.43199686 85.6044724,7.0302673 C85.6044724,6.62853774 85.7023061,6.32724057 85.8001398,5.92551101 L88.2459818,0.803459119 L90.8874913,5.92551101 Z" id="Shape"></path>
                        <path d="M48.2320056,5.92551101 C48.3298393,6.22680818 48.427673,6.62853774 48.427673,7.0302673 C48.427673,7.43199686 48.3298393,7.73329403 48.2320056,8.13502358 C48.1341719,8.43632075 47.9385045,8.73761792 47.6450035,9.03891509 C47.4493361,9.23977987 47.1558351,9.44064465 46.7645003,9.64150943 C46.3731656,9.84237421 46.0796646,9.84237421 45.6883298,9.84237421 C45.2969951,9.84237421 45.0034941,9.74194182 44.6121593,9.64150943 C44.3186583,9.54107704 44.0251572,9.34021226 43.7316562,9.03891509 C43.5359888,8.83805031 43.3403215,8.53675314 43.1446541,8.13502358 C43.0468204,7.83372642 42.9489867,7.43199686 42.9489867,7.0302673 C42.9489867,6.62853774 43.0468204,6.32724057 43.1446541,5.92551101 L45.5904962,0.803459119 L48.2320056,5.92551101 Z" id="Shape"></path>
                        <path d="M5.57651992,5.92551101 C5.6743536,6.22680818 5.77218728,6.62853774 5.77218728,7.0302673 C5.77218728,7.43199686 5.6743536,7.73329403 5.57651992,8.13502358 C5.47868623,8.43632075 5.28301887,8.73761792 4.98951782,9.03891509 C4.79385045,9.23977987 4.50034941,9.44064465 4.10901468,9.64150943 C3.81551363,9.74194182 3.4241789,9.84237421 3.03284416,9.84237421 C2.64150943,9.84237421 2.34800839,9.74194182 1.95667365,9.64150943 C1.66317261,9.54107704 1.36967156,9.34021226 1.07617051,9.03891509 C0.880503145,8.83805031 0.684835779,8.53675314 0.489168414,8.13502358 C0.391334731,7.83372642 0.293501048,7.43199686 0.293501048,7.0302673 C0.293501048,6.62853774 0.391334731,6.32724057 0.489168414,5.92551101 L2.93501048,0.803459119 L5.57651992,5.92551101 Z" id="Shape"></path>
                    </g>
                    <polygon id="Shape" fill="#FFFFFF" points="288.444444 138.928125 234.222222 210.559375 234.222222 344.240625 349.222222 344.240625 348.888889 210.559375"></polygon>
                    <polygon id="Shape" fill="#FACA7B" points="242.222222 344.240625 242.222222 213.410938 288.777778 151.817188 341 213.639063 341.222222 344.240625"></polygon>
                    <polyline id="Shape" fill="#F6A623" points="242.222222 213.410938 288.777778 151.817188 341 213.639063"></polyline>
                    <rect id="Rectangle-path" fill="#DBDBDB" x="128.555556" y="210.559375" width="105.666667" height="133.68125"></rect>
                    <g id="Group" transform="translate(50.000000, 230.406250)">
                        <rect id="Rectangle-path" fill="#FFFFFF" x="44.2222222" y="29.3140625" width="89.7777778" height="84.5203125"></rect>
                        <polygon id="Shape" fill="#001CAF" points="134 29.2 112.555556 0.45625 22.5555556 0.45625 44.2222222 29.2"></polygon>
                        <polygon id="Shape" fill="#DBDBDB" points="0.777777778 113.834375 0.777777778 29.3140625 22.5555556 0.5703125 44.2222222 29.3140625 44.2222222 113.834375"></polygon>
                    </g>
                    <g id="Group" transform="translate(61.111111, 230.406250)">
                        <rect id="Rectangle-path" fill="#F6A623" x="49.4444444" y="47.1078125" width="21.3333333" height="28.8578125"></rect>
                        <rect id="Rectangle-path" fill="#F6A623" x="85.5555556" y="47.1078125" width="21.3333333" height="28.8578125"></rect>
                        <rect id="Rectangle-path" fill="#FACA7B" x="137.333333" y="47.1078125" width="21.3333333" height="28.8578125"></rect>
                        <rect id="Rectangle-path" fill="#F6A623" x="0.777777778" y="47.1078125" width="21.3333333" height="28.8578125"></rect>
                        <rect id="Rectangle-path" fill="#FACA7B" x="137.333333" y="0.5703125" width="21.3333333" height="28.8578125"></rect>
                    </g>
                    <polygon id="Shape" fill="#001CAF" points="128.777778 210.559375 183 138.928125 288.444444 138.928125 234.333333 210.559375"></polygon>
                    <g id="Group" transform="translate(270.000000, 257.781250)" stroke="#FFFFFF" stroke-linecap="round" stroke-linejoin="round" stroke-width="4.125">
                        <path d="M39.4444444,43.571875 C37.4444444,40.9484375 35.5555556,38.2109375 35.5555556,32.85 C35.5555556,27.4890625 37.5555556,24.865625 39.4444444,22.128125 C41.4444444,19.5046875 43.3333333,16.7671875 43.3333333,11.40625 C43.3333333,6.0453125 41.3333333,3.421875 39.4444444,0.684375" id="Shape"></path>
                        <path d="M21.6666667,43.571875 C19.6666667,40.9484375 17.7777778,38.2109375 17.7777778,32.85 C17.7777778,27.4890625 19.7777778,24.865625 21.6666667,22.128125 C23.6666667,19.5046875 25.5555556,16.7671875 25.5555556,11.40625 C25.5555556,6.0453125 23.5555556,3.421875 21.6666667,0.684375" id="Shape"></path>
                        <path d="M4,43.571875 C2,40.9484375 0.111111111,38.2109375 0.111111111,32.85 C0.111111111,27.4890625 2.11111111,24.865625 4,22.128125 C6,19.5046875 7.88888889,16.7671875 7.88888889,11.40625 C7.88888889,6.0453125 5.88888889,3.421875 4,0.684375" id="Shape"></path>
                    </g>
                </g>
            </g>
        </g>
    </g>
</svg>