<?xml version="1.0" encoding="UTF-8"?>
<svg width="66px" height="66px" viewBox="0 0 66 66" version="1.1" xmlns="http://www.w3.org/2000/svg" xmlns:xlink="http://www.w3.org/1999/xlink">
    <!-- Generator: Sketch 48.2 (47327) - http://www.bohemiancoding.com/sketch -->
    <title>enterntainment_icon</title>
    <desc>Created with Sketch.</desc>
    <defs></defs>
    <g id="Symbols" stroke="none" stroke-width="1" fill="none" fill-rule="evenodd">
        <g id="enterntainment_icon">
            <circle id="Oval-3-Copy-4" fill-opacity="0.1" fill="#001CB0" cx="33" cy="33" r="33"></circle>
            <g id="Group-50-Copy" transform="translate(16.000000, 16.000000)">
                <path d="M21.0715959,8.84642206 L25.8779011,1.70206079 C26.2027234,1.1742982 26.0344548,0.485774261 25.5019592,0.164251563 C24.9694636,-0.158328776 24.2750894,0.00983605624 23.9513321,0.537598644 L18.4282878,8.84642206 L15.6518558,8.84642206 L10.1298766,0.537598644 C9.80505426,0.00983605624 9.11068001,-0.158328776 8.57818443,0.164251563 C8.04568884,0.485774261 7.87742023,1.1742982 8.20224254,1.70206079 L13.0085477,8.84642206 L2.47259001,8.84642206 C1.10940131,8.84642206 -0.000319497353,9.94636814 -0.000319497353,11.2980326 L-0.000319497353,31.5359828 C-0.000319497353,32.8876473 1.10940131,33.9875933 2.47259001,33.9875933 L31.6075536,33.9875933 C32.9707423,33.9875933 34.0804631,32.8876473 34.0804631,31.5359828 L34.0804631,11.2980326 C34.0804631,9.94636814 32.9707423,8.84642206 31.6075536,8.84642206 L21.0715959,8.84642206 Z M28.8737213,28.1695132 C27.5872119,28.1695132 26.5413906,27.1319679 26.5413906,25.8564535 C26.5413906,24.5809391 27.5872119,23.5433938 28.8737213,23.5433938 C30.1591656,23.5433938 31.2060519,24.5809391 31.2060519,25.8564535 C31.2060519,27.1319679 30.1591656,28.1695132 28.8737213,28.1695132 Z M28.8737213,19.2906216 C27.5872119,19.2906216 26.5413906,18.2541339 26.5413906,16.9786195 C26.5413906,15.7031051 27.5872119,14.6655598 28.8737213,14.6655598 C30.1591656,14.6655598 31.2060519,15.7031051 31.2060519,16.9786195 C31.2060519,18.2541339 30.1591656,19.2906216 28.8737213,19.2906216 Z" id="Fill-28" fill="#001CB0"></path>
                <path d="M23.8991475,28.5946846 C23.8991475,29.3308024 23.2974275,29.9273116 22.5551286,29.9273116 L5.35552113,29.9273116 C4.61322228,29.9273116 4.01150226,29.3308024 4.01150226,28.5946846 L4.01150226,14.2403884 C4.01150226,13.503213 4.61322228,12.9067038 5.35552113,12.9067038 L22.5551286,12.9067038 C23.2974275,12.9067038 23.8991475,13.503213 23.8991475,14.2403884 L23.8991475,28.5946846 Z" id="Path" fill="#FFFFFF"></path>
            </g>
        </g>
    </g>
</svg>