<?xml version="1.0" encoding="UTF-8"?>
<svg width="66px" height="66px" viewBox="0 0 66 66" version="1.1" xmlns="http://www.w3.org/2000/svg" xmlns:xlink="http://www.w3.org/1999/xlink">
    <!-- Generator: Sketch 48.2 (47327) - http://www.bohemiancoding.com/sketch -->
    <title>heating_icon</title>
    <desc>Created with Sketch.</desc>
    <defs>
        <polygon id="path-1" points="0.000613204509 0.176538462 33.7354461 0.176538462 33.7354461 33.7721147 0.000613204509 33.7721147"></polygon>
        <polygon id="path-3" points="0 0 35 0 35 34 0 34"></polygon>
    </defs>
    <g id="Symbols" stroke="none" stroke-width="1" fill="none" fill-rule="evenodd">
        <g id="heating_icon">
            <circle id="Oval-3-Copy-5" fill-opacity="0.1" fill="#001CB0" cx="33" cy="33" r="33"></circle>
            <g id="Group-18-Copy" transform="translate(16.000000, 14.000000)">
                <g id="Group-3">
                    <mask id="mask-2" fill="white">
                        <use xlink:href="#path-1"></use>
                    </mask>
                    <g id="Clip-2"></g>
                </g>
                <mask id="mask-4" fill="white">
                    <use xlink:href="#path-3"></use>
                </mask>
                <g id="Clip-2"></g>
                <path d="M34.7105335,12.4488005 L17.9341998,0.141375371 C17.8053713,0.0481608408 17.6510952,0 17.5,0 C17.3457239,0 17.1914478,0.0481608408 17.0626193,0.141375371 L0.286285558,12.4488005 C0.103380896,12.5808545 0,12.7890336 0,13.0096413 L0,33.2962303 C0,33.6846242 0.322866491,34 0.723666273,34 L34.2763337,34 C34.675543,34 35,33.6846242 35,33.2962303 L35,13.0096413 C35,12.7890336 34.8918477,12.5808545 34.7105335,12.4488005" id="Fill-1" fill="#001CAF" mask="url(#mask-4)"></path>
                <path d="M24.0017762,30.9090909 C23.5950266,30.9090909 23.1971581,30.7506909 22.9342806,30.4521677 C22.0728242,29.4697827 21,28.2437054 21,25.9590893 C21,23.6744731 22.0728242,22.4483958 22.9342806,21.4660109 C23.7175844,20.5719644 24.3357016,19.8667796 24.3357016,18.3437022 C24.3357016,16.8206247 23.7175844,16.1154399 22.9342806,15.2213934 C22.4920071,14.7172548 22.6127886,14.0014084 23.2007105,13.6221621 C23.7921847,13.2429159 24.625222,13.3480082 25.0657194,13.8506238 C25.9271758,14.8330087 27,16.059086 27,18.3437022 C27,20.6283183 25.9271758,21.8543956 25.0657194,22.8367806 C24.2824156,23.730827 23.6642984,24.4360119 23.6642984,25.9590893 C23.6642984,27.4821667 24.2824156,28.1873516 25.0657194,29.081398 C25.5079929,29.5855366 25.3872114,30.301383 24.7992895,30.6806293 C24.5595027,30.8344601 24.2788632,30.9090909 24.0017762,30.9090909" id="Fill-4" fill="#FFFFFF" mask="url(#mask-4)"></path>
                <path d="M18.0017762,30.9090909 C17.5950266,30.9090909 17.1971581,30.7506909 16.9342806,30.4521677 C16.0728242,29.4697827 15,28.2437054 15,25.9590893 C15,23.6744731 16.0728242,22.4483958 16.9342806,21.4660109 C17.7175844,20.5719644 18.3357016,19.8667796 18.3357016,18.3437022 C18.3357016,16.8206247 17.7175844,16.1154399 16.9342806,15.2213934 C16.4920071,14.7172548 16.6127886,14.0014084 17.2007105,13.6221621 C17.7904085,13.2429159 18.625222,13.3480082 19.0657194,13.8506238 C19.9271758,14.8330087 21,16.059086 21,18.3437022 C21,20.6283183 19.9271758,21.8543956 19.0657194,22.8367806 C18.2824156,23.730827 17.6642984,24.4360119 17.6642984,25.9590893 C17.6642984,27.4821667 18.2824156,28.1873516 19.0657194,29.081398 C19.5079929,29.5855366 19.3872114,30.301383 18.7992895,30.6806293 C18.5595027,30.8344601 18.2788632,30.9090909 18.0017762,30.9090909" id="Fill-6" fill="#FFFFFF" mask="url(#mask-4)"></path>
                <path d="M11.0017762,30.9090909 C10.5950266,30.9090909 10.1971581,30.7506909 9.93428064,30.4521677 C9.07282416,29.4697827 8,28.2437054 8,25.9590893 C8,23.6744731 9.07282416,22.4483958 9.93428064,21.4660109 C10.7175844,20.5719644 11.3357016,19.8667796 11.3357016,18.3437022 C11.3357016,16.8206247 10.7175844,16.1154399 9.93428064,15.2213934 C9.4920071,14.7172548 9.61278863,14.0014084 10.2007105,13.6221621 C10.7921847,13.2429159 11.625222,13.3480082 12.0657194,13.8506238 C12.9271758,14.8330087 14,16.059086 14,18.3437022 C14,20.6283183 12.9271758,21.8543956 12.0657194,22.8367806 C11.2824156,23.730827 10.6642984,24.4360119 10.6642984,25.9590893 C10.6642984,27.4821667 11.2824156,28.1873516 12.0657194,29.081398 C12.5079929,29.5855366 12.3872114,30.301383 11.7992895,30.6806293 C11.5595027,30.8344601 11.2788632,30.9090909 11.0017762,30.9090909" id="Fill-8" fill="#FFFFFF" mask="url(#mask-4)"></path>
            </g>
        </g>
    </g>
</svg>