<?xml version="1.0" encoding="UTF-8"?>
<svg width="66px" height="66px" viewBox="0 0 66 66" version="1.1" xmlns="http://www.w3.org/2000/svg" xmlns:xlink="http://www.w3.org/1999/xlink">
    <!-- Generator: Sketch 48.2 (47327) - http://www.bohemiancoding.com/sketch -->
    <title>hotwater_icon</title>
    <desc>Created with Sketch.</desc>
    <defs>
        <polygon id="path-1" points="2.940652 3.08331308 0.597021047 3.08331308 0.597021047 0.739792692 2.940652 0.739792692"></polygon>
        <polygon id="path-3" points="2.85238991 0.739792692 2.85238991 3.08331308 0.50894099 3.08331308 0.50894099 0.739792692"></polygon>
        <polygon id="path-5" points="0 8.48764146 0 0.000308331308 3.18306157 0.000308331308 3.18306157 8.48764146"></polygon>
    </defs>
    <g id="Symbols" stroke="none" stroke-width="1" fill="none" fill-rule="evenodd">
        <g id="hotwater_icon">
            <circle id="Oval-3-Copy-3" fill-opacity="0.1" fill="#001CB0" cx="33" cy="33" r="33"></circle>
            <g id="Page-1-Copy" transform="translate(19.000000, 16.000000)">
                <g id="Group-3" transform="translate(3.083665, 29.805360)">
                    <mask id="mask-2" fill="white">
                        <use xlink:href="#path-1"></use>
                    </mask>
                    <g id="Clip-2"></g>
                    <path d="M2.21993027,0.830541766 C2.81816124,1.0813179 3.09877473,1.7658134 2.85002577,2.36294837 C2.6023047,2.96008333 1.91567535,3.24169259 1.31847227,2.992972 C0.72126919,2.74322364 0.43859992,2.05872814 0.687348878,1.46159318 C0.936097836,0.86445821 1.6216993,0.580793407 2.21993027,0.830541766" id="Fill-1" fill="#001CB0" mask="url(#mask-2)"></path>
                </g>
                <path d="M5.47566354,26.703444 C5.76347225,26.0107263 6.55700198,25.6849229 7.24774289,25.9737266 C7.9384838,26.2604747 8.26535227,27.0549417 7.97651567,27.7456038 C7.68973484,28.436266 6.89517722,28.7620694 6.20649209,28.4753213 C5.51472329,28.1854898 5.18785482,27.3920506 5.47566354,26.703444" id="Fill-4" fill="#001CB0"></path>
                <path d="M7.515405,21.1485472 C7.85769179,20.3283859 8.80026532,19.9398884 9.62154804,20.2821362 C10.4428308,20.6233562 10.8293167,21.56685 10.4870299,22.3890668 C10.145771,23.2102559 9.20319751,23.59567 8.38294268,23.2523945 C7.56063208,22.9111745 7.17311821,21.970764 7.515405,21.1485472" id="Fill-6" fill="#001CB0"></path>
                <g id="Group-10" transform="translate(23.641430, 29.805360)">
                    <mask id="mask-4" fill="white">
                        <use xlink:href="#path-3"></use>
                    </mask>
                    <g id="Clip-9"></g>
                    <path d="M1.22966272,0.830541766 C0.631431757,1.0813179 0.350818262,1.7658134 0.599567221,2.36294837 C0.847288291,2.96008333 1.53391765,3.24169259 2.13112072,2.992972 C2.7283238,2.74322364 3.01099307,2.05872814 2.76224411,1.46159318 C2.51349516,0.86445821 1.82789369,0.580793407 1.22966272,0.830541766" id="Fill-8" fill="#001CB0" mask="url(#mask-4)"></path>
                </g>
                <path d="M24.6989214,26.703444 C24.4111127,26.0107263 23.6175829,25.6849229 22.926842,25.9737266 C22.2361011,26.2604747 21.9092326,27.0549417 22.1980692,27.7456038 C22.4848501,28.436266 23.2783798,28.7620694 23.9680928,28.4753213 C24.6598616,28.1854898 24.9867301,27.3920506 24.6989214,26.703444" id="Fill-11" fill="#001CB0"></path>
                <path d="M22.6591799,21.1485472 C22.3168931,20.3283859 21.3743196,19.9398884 20.5530369,20.2821362 C19.7317541,20.6233562 19.3452682,21.56685 19.687555,22.3890668 C20.0288139,23.2102559 20.9703595,23.59567 21.7916422,23.2523945 C22.6139528,22.9111745 23.0014667,21.970764 22.6591799,21.1485472" id="Fill-13" fill="#001CB0"></path>
                <path d="M15.0870355,30.7734173 C15.6739597,30.7734173 16.1457604,31.2472197 16.1457604,31.8320214 C16.1457604,32.4157954 15.6739597,32.88857 15.0870355,32.88857 C14.5021671,32.88857 14.0283106,32.4157954 14.0283106,31.8320214 C14.0283106,31.2472197 14.5021671,30.7734173 15.0870355,30.7734173" id="Fill-15" fill="#001CB0"></path>
                <path d="M15.0870355,26.2076473 C15.763386,26.2076473 16.3112504,26.756477 16.3112504,27.4327503 C16.3112504,28.1090237 15.763386,28.6568256 15.0870355,28.6568256 C14.410685,28.6568256 13.8628206,28.1090237 13.8628206,27.4327503 C13.8628206,26.756477 14.410685,26.2076473 15.0870355,26.2076473" id="Fill-17" fill="#001CB0"></path>
                <path d="M15.0861104,20.6351755 C15.8909469,20.6351755 16.542628,21.2878101 16.542628,22.0915271 C16.542628,22.8942163 15.8909469,23.5468509 15.0861104,23.5468509 C14.2823018,23.5468509 13.6326764,22.8942163 13.6326764,22.0915271 C13.6326764,21.2878101 14.2823018,20.6351755 15.0861104,20.6351755" id="Fill-19" fill="#001CB0"></path>
                <path d="M24.9750121,17.7225752 C24.6872034,14.6145957 22.2346621,11.9906962 18.812822,10.8313705 L18.0840493,9.12835392 C17.9041688,8.7069678 17.4179777,8.36574782 16.9975714,8.36574782 L16.3726153,8.36574782 C16.1804002,5.27729589 13.6404883,2.82400645 10.5002897,2.82400645 L2.59685689,2.82400645 L2.59685689,5.85901429 L10.5002897,5.85901429 C11.9629747,5.86004206 13.1553251,6.9546182 13.3372613,8.36574782 L12.79762,8.36574782 C12.3782416,8.36574782 11.8910225,8.7069678 11.7101142,9.12835392 L10.9916203,10.8097873 C7.51633009,11.9629464 5.02370107,14.6187067 4.75439435,17.7677972" id="Fill-21" fill="#001CB0"></path>
                <g id="Group-25">
                    <mask id="mask-6" fill="white">
                        <use xlink:href="#path-5"></use>
                    </mask>
                    <g id="Clip-24"></g>
                    <path d="M1.64122918,8.48764146 L1.54152402,8.48764146 C0.693516207,8.48764146 -0.000308366477,7.79389602 -0.000308366477,6.94598492 L-0.000308366477,1.54196487 C-0.000308366477,0.694053774 0.693516207,0.000308331308 1.54152402,0.000308331308 L1.64122918,0.000308331308 C2.48923699,0.000308331308 3.18306157,0.694053774 3.18306157,1.54196487 L3.18306157,6.94598492 C3.18306157,7.79389602 2.48923699,8.48764146 1.64122918,8.48764146" id="Fill-23" fill="#001CB0" mask="url(#mask-6)"></path>
                </g>
                <path d="M24.4374266,19.0966023 L5.27142214,19.0966023 C4.70711149,19.0966023 4.24353388,18.6341054 4.24353388,18.0688313 L4.24353388,18.003054 C4.24353388,17.4377799 4.70711149,16.9752829 5.27142214,16.9752829 L24.4374266,16.9752829 C25.0027651,16.9752829 25.4653148,17.4377799 25.4653148,18.003054 L25.4653148,18.0688313 C25.4653148,18.6341054 25.0027651,19.0966023 24.4374266,19.0966023" id="Fill-26" fill="#001CB0"></path>
            </g>
        </g>
    </g>
</svg>