<?xml version="1.0" encoding="UTF-8"?>
<svg width="66px" height="66px" viewBox="0 0 66 66" version="1.1" xmlns="http://www.w3.org/2000/svg" xmlns:xlink="http://www.w3.org/1999/xlink">
    <!-- Generator: Sketch 48.2 (47327) - http://www.bohemiancoding.com/sketch -->
    <title>cooking_icon</title>
    <desc>Created with Sketch.</desc>
    <defs></defs>
    <g id="Symbols" stroke="none" stroke-width="1" fill="none" fill-rule="evenodd">
        <g id="cooking_icon">
            <circle id="Oval-3-Copy-6" fill-opacity="0.1" fill="#001CB0" cx="33" cy="33" r="33"></circle>
            <g id="Group-23-Copy" transform="translate(18.000000, 16.000000)">
                <g id="Group-17">
                    <g id="Group">
                        <path d="M0.323809524,31.4095238 C0.323809524,32.7047619 1.2952381,33.6761905 2.59047619,33.6761905 L27.0380952,33.6761905 C28.3333333,33.6761905 29.3047619,32.7047619 29.3047619,31.4095238 L29.3047619,10.847619 L0.323809524,10.847619 L0.323809524,31.4095238 Z M27.0380952,1.45714286 L2.59047619,1.45714286 C1.2952381,1.45714286 0.323809524,2.42857143 0.323809524,3.72380952 L0.323809524,9.87619048 L29.3047619,9.87619048 L29.3047619,3.72380952 C29.1428571,2.42857143 28.1714286,1.45714286 27.0380952,1.45714286 Z" id="Shape" fill="#001CB0"></path>
                        <path d="M6.31428571,5.34285714 C6.31428571,6.31428571 5.5047619,6.96190476 4.6952381,6.96190476 C3.72380952,6.96190476 3.07619048,6.15238095 3.07619048,5.34285714 C3.07619048,4.37142857 3.88571429,3.72380952 4.6952381,3.72380952 C5.66666667,3.72380952 6.31428571,4.37142857 6.31428571,5.34285714" id="Shape" fill="#FFFFFF"></path>
                        <path d="M26.3904762,5.34285714 C26.3904762,6.31428571 25.5809524,6.96190476 24.7714286,6.96190476 C23.8,6.96190476 23.152381,6.15238095 23.152381,5.34285714 C23.152381,4.37142857 23.9619048,3.72380952 24.7714286,3.72380952 C25.7428571,3.72380952 26.3904762,4.37142857 26.3904762,5.34285714" id="Shape" fill="#FFFFFF"></path>
                        <path d="M19.752381,5.34285714 C19.752381,6.31428571 18.9428571,6.96190476 18.1333333,6.96190476 C17.3238095,6.96190476 16.5142857,6.15238095 16.5142857,5.34285714 C16.5142857,4.37142857 17.3238095,3.72380952 18.1333333,3.72380952 C18.9428571,3.72380952 19.752381,4.37142857 19.752381,5.34285714" id="Shape" fill="#FFFFFF"></path>
                        <path d="M13.1142857,5.34285714 C13.1142857,6.31428571 12.3047619,6.96190476 11.4952381,6.96190476 C10.5238095,6.96190476 9.87619048,6.15238095 9.87619048,5.34285714 C9.87619048,4.37142857 10.6857143,3.72380952 11.4952381,3.72380952 C12.3047619,3.72380952 13.1142857,4.37142857 13.1142857,5.34285714" id="Shape" fill="#FFFFFF"></path>
                        <path d="M23.6380952,14.7333333 L5.82857143,14.7333333 C5.18095238,14.7333333 4.6952381,15.2190476 4.6952381,15.8666667 L4.6952381,28.1714286 C4.6952381,28.8190476 5.18095238,29.3047619 5.82857143,29.3047619 L23.6380952,29.3047619 C24.2857143,29.3047619 24.7714286,28.8190476 24.7714286,28.1714286 L24.7714286,15.8666667 C24.7714286,15.2190476 24.2857143,14.7333333 23.6380952,14.7333333 Z" id="Shape" fill="#FFFFFF"></path>
                        <g transform="translate(9.714286, 16.190476)" fill="#001CB0" id="Shape">
                            <path d="M8.0952381,10.2 C8.41904762,10.2 8.74285714,10.0380952 8.74285714,9.71428571 C8.9047619,9.39047619 8.74285714,9.06666667 8.41904762,8.9047619 C8.25714286,8.74285714 7.77142857,8.25714286 7.60952381,7.60952381 C7.44761905,7.12380952 7.60952381,6.63809524 7.93333333,6.31428571 C9.39047619,4.6952381 9.22857143,2.75238095 7.77142857,1.45714286 C7.44761905,1.13333333 7.12380952,1.13333333 6.8,1.45714286 C6.47619048,1.61904762 6.47619048,2.1047619 6.8,2.26666667 C8.0952381,3.56190476 7.44761905,4.85714286 6.8,5.5047619 C6.15238095,6.31428571 5.99047619,7.28571429 6.31428571,8.25714286 C6.63809524,9.22857143 7.44761905,9.87619048 7.93333333,10.0380952 C7.93333333,10.2 7.93333333,10.2 8.0952381,10.2"></path>
                            <path d="M3.07619048,10.2 C3.4,10.2 3.72380952,10.0380952 3.72380952,9.71428571 C3.88571429,9.39047619 3.72380952,9.06666667 3.4,8.9047619 C3.23809524,8.74285714 2.75238095,8.25714286 2.59047619,7.60952381 C2.42857143,7.12380952 2.59047619,6.63809524 2.91428571,6.31428571 C4.20952381,4.6952381 4.20952381,2.75238095 2.75238095,1.45714286 C2.42857143,1.13333333 2.1047619,1.13333333 1.78095238,1.45714286 C1.45714286,1.61904762 1.45714286,2.1047619 1.78095238,2.26666667 C3.07619048,3.56190476 2.42857143,4.85714286 1.78095238,5.5047619 C1.13333333,6.31428571 0.971428571,7.28571429 1.2952381,8.25714286 C1.61904762,9.22857143 2.42857143,9.87619048 2.91428571,10.0380952 C2.91428571,10.2 3.07619048,10.2 3.07619048,10.2"></path>
                        </g>
                    </g>
                </g>
            </g>
        </g>
    </g>
</svg>