<?xml version="1.0" encoding="UTF-8"?>
<svg width="66px" height="66px" viewBox="0 0 66 66" version="1.1" xmlns="http://www.w3.org/2000/svg" xmlns:xlink="http://www.w3.org/1999/xlink">
    <!-- Generator: Sketch 48.2 (47327) - http://www.bohemiancoding.com/sketch -->
    <title>cooling_icon</title>
    <desc>Created with Sketch.</desc>
    <defs></defs>
    <g id="Symbols" stroke="none" stroke-width="1" fill="none" fill-rule="evenodd">
        <g id="cooling_icon">
            <circle fill-opacity="0.1" fill="#001CB0" cx="33" cy="33" r="33"></circle>
            <g id="Group-14" transform="translate(16.000000, 15.000000)">
                <g id="Group-45-Copy">
                    <path d="M34.71125,12.4479189 L17.9353125,0.141405297 C17.80625,0.0467806998 17.653125,0 17.5,0 C17.346875,0 17.1926563,0.0467806998 17.0635937,0.141405297 L0.28765625,12.4479189 C0.105,12.5808187 0,12.7881422 0,13.0092873 L0,33.2950999 C0,33.6842303 0.32375,34 0.7240625,34 L34.2759375,34 C34.6751563,34 35,33.6842303 35,33.2950999 L35,13.0092873 C35,12.7881422 34.8939063,12.5808187 34.71125,12.4479189" id="Fill-5" fill="#001CB0"></path>
                    <path d="M18.0907531,27.2021895 C17.4202961,27.2021895 16.8774941,27.721519 16.8774941,28.3629832 C16.8774941,29.2671912 17.8172066,30 18.76121,30 C20.0946149,30 21,28.9664728 21,27.691755 C21,25.8946288 19.6623042,24 16.2317099,24 L6,24" id="Stroke-7" stroke="#FFFFFF" stroke-width="2" stroke-linecap="round" stroke-linejoin="round"></path>
                    <path d="M25.084498,17.9338354 C24.4125994,17.9338354 23.8686304,17.3883808 23.8686304,16.7170522 C23.8686304,15.7692308 24.6362073,15 25.5822404,15 C26.9185121,15 28,16.0833782 28,17.4195804 C28,19.3033889 26.5863255,21 23.7966029,21 L13,21" id="Stroke-9" stroke="#FFFFFF" stroke-width="2" stroke-linecap="round" stroke-linejoin="round"></path>
                    <path d="M18.1190952,13.9469541 C17.4525477,13.9695294 16.893887,13.4438465 16.8714551,12.7730364 C16.8394095,11.8259472 17.5764572,11.0336603 18.51646,11.0014098 C19.8420775,10.9562591 20.9529899,12.0011748 20.9978537,13.3363449 C21.0608766,15.2176232 19.7384636,17 16.7037501,17 L9,17" id="Stroke-11" stroke="#FFFFFF" stroke-width="2" stroke-linecap="round" stroke-linejoin="round"></path>
                </g>
            </g>
        </g>
    </g>
</svg>