<?xml version="1.0" encoding="UTF-8"?>
<svg width="66px" height="66px" viewBox="0 0 66 66" version="1.1" xmlns="http://www.w3.org/2000/svg" xmlns:xlink="http://www.w3.org/1999/xlink">
    <!-- Generator: Sketch 48.2 (47327) - http://www.bohemiancoding.com/sketch -->
    <title>poolspa_icon</title>
    <desc>Created with Sketch.</desc>
    <defs></defs>
    <g id="Symbols" stroke="none" stroke-width="1" fill="none" fill-rule="evenodd">
        <g id="poolspa_icon" fill="#001CB0">
            <circle id="Oval-3-Copy-2" fill-opacity="0.1" cx="33" cy="33" r="33"></circle>
            <g id="Group-21-Copy" transform="translate(17.000000, 16.000000)" fill-rule="nonzero">
                <g id="Group-16">
                    <path d="M1.77391304,4.93515152 C2.25770751,4.93515152 2.74150198,4.45606061 2.74150198,3.9769697 C2.74150198,3.01878788 3.54782609,2.22030303 4.51541502,2.22030303 C5.48300395,2.22030303 6.28932806,3.01878788 6.28932806,3.9769697 L6.28932806,18.8287879 C7.256917,19.1481818 8.22450593,19.3078788 9.51462451,19.3078788 C12.5786561,19.3078788 14.1913043,18.5093939 15.9652174,17.3915152 L8.38577075,17.3915152 L8.38577075,14.5169697 L17.7391304,14.5169697 L17.7391304,16.1139394 C18.3841897,15.6348485 19.029249,15.1557576 19.6743083,14.6766667 L19.6743083,3.9769697 C19.6743083,1.90090909 17.9003953,0.144242424 15.8039526,0.144242424 C13.7075099,0.144242424 11.9335968,1.90090909 11.9335968,3.9769697 C11.9335968,4.45606061 12.4173913,4.93515152 12.9011858,4.93515152 C13.3849802,4.93515152 13.8687747,4.45606061 13.8687747,3.9769697 C13.8687747,3.01878788 14.6750988,2.22030303 15.6426877,2.22030303 C16.6102767,2.22030303 17.4166008,3.01878788 17.4166008,3.9769697 L17.4166008,7.65 L8.06324111,7.65 L8.06324111,3.9769697 C8.06324111,1.90090909 6.28932806,0.144242424 4.19288538,0.144242424 C2.09644269,0.144242424 0.322529644,1.90090909 0.322529644,3.9769697 C0.806324111,4.45606061 1.29011858,4.93515152 1.77391304,4.93515152 Z M8.54703557,9.56636364 L17.9003953,9.56636364 L17.9003953,12.4409091 L8.54703557,12.4409091 L8.54703557,9.56636364 Z" id="Shape"></path>
                    <path d="M0.967588933,31.7642424 L0.967588933,21.7033333 C0.967588933,21.0645455 1.26788358,20.4257576 1.86847287,19.9466667 C2.16876752,19.7869697 2.46906216,19.6272727 2.76935681,19.6272727 C3.06965146,19.6272727 3.3699461,19.6272727 3.67024075,19.7869697 C5.3218613,20.7451515 7.12362918,21.0645455 9.2256917,21.0645455 C13.2796694,21.0645455 15.3817319,19.4675758 17.4837945,17.7109091 C19.585857,16.1139394 21.6879195,14.3572727 25.7418972,14.3572727 C29.4955803,14.3572727 31.4474955,15.6348485 33.2492634,17.0721212 C33.6997054,17.3915152 34,18.030303 34,18.6690909 L34,31.6045455 C34,32.7224242 33.0991161,33.5209091 32.1982321,33.5209091 L2.76935681,33.5209091 C1.71832555,33.5209091 0.967588933,32.7224242 0.967588933,31.7642424 Z" id="Shape"></path>
                </g>
            </g>
        </g>
    </g>
</svg>