<?xml version="1.0" encoding="UTF-8"?>
<svg width="526px" height="323px" viewBox="0 0 526 323" version="1.1" xmlns="http://www.w3.org/2000/svg" xmlns:xlink="http://www.w3.org/1999/xlink">
    <!-- Generator: Sketch 48.2 (47327) - http://www.bohemiancoding.com/sketch -->
    <title>kitchen_graphic</title>
    <desc>Created with Sketch.</desc>
    <defs>
        <radialGradient cx="50%" cy="0%" fx="50%" fy="0%" r="82.3936819%" gradientTransform="translate(0.500000,0.000000),scale(0.363118,1.000000),rotate(90.000000),scale(1.000000,2.008246),translate(-0.500000,-0.000000)" id="radialGradient-1">
            <stop stop-color="#E2E2E2" offset="0%"></stop>
            <stop stop-color="#F5F5F5" stop-opacity="0" offset="100%"></stop>
        </radialGradient>
    </defs>
    <g id="oven-and-cooktop" stroke="none" stroke-width="1" fill="none" fill-rule="evenodd" transform="translate(-597.000000, -483.000000)">
        <g id="kitchen_graphic" transform="translate(597.000000, 419.000000)">
            <g id="Group">
                <g id="Group-6" transform="translate(0.000000, 230.000000)" fill="url(#radialGradient-1)">
                    <g id="animation/shading">
                        <rect id="Rectangle-2" x="0" y="0" width="526" height="191"></rect>
                    </g>
                </g>
                <g id="animation/oven-360px" transform="translate(92.000000, 0.000000)">
                    <rect id="Rectangle-path" x="0" y="0" width="360" height="320"></rect>
                    <path d="M219.5,282.9 L191.4,282.9" id="Shape" fill="#001CAF" fill-rule="evenodd"></path>
                    <path d="M250.5,282.9 L222.5,282.9" id="Shape" fill="#001CAF" fill-rule="evenodd"></path>
                    <g id="Group-10" stroke-width="1" fill-rule="evenodd" transform="translate(54.000000, 64.000000)">
                        <g id="Group">
                            <rect id="Rectangle-path" fill="#E0E0E0" x="42.8031746" y="74.1517241" width="235.196825" height="5.29655172"></rect>
                            <rect id="Rectangle-path" fill="#FFFFFF" x="42.8031746" y="79.5586207" width="235.196825" height="176.441379"></rect>
                            <rect id="Rectangle-path" fill="#00DEEC" x="58.7992063" y="116.965517" width="203.204762" height="123.034483"></rect>
                            <rect id="Rectangle-path" fill="#FFFFFF" x="42.8031746" y="20.7448276" width="235.196825" height="53.5172414"></rect>
                            <g transform="translate(70.500000, 36.413793)">
                                <g transform="translate(0.000000, 1.103448)" id="Shape" stroke="#CCCCCC" stroke-linecap="round" stroke-linejoin="round" stroke-width="0.9692">
                                    <path d="M21.0634921,0.662068966 C21.1738095,0.772413793 21.1738095,0.772413793 21.284127,0.882758621"></path>
                                    <path d="M22.6079365,2.53793103 C25.8071429,7.28275862 25.365873,13.9034483 21.0634921,18.0965517 C16.2095238,22.9517241 8.48730159,22.9517241 3.63333333,18.0965517 C-0.88968254,13.5724138 -1.11031746,6.51034483 2.75079365,1.65517241" stroke-dasharray="0.4773,1.9092"></path>
                                    <path d="M3.52301587,0.882758621 C3.63333333,0.772413793 3.63333333,0.772413793 3.74365079,0.662068966"></path>
                                </g>
                                <g transform="translate(36.507937, 1.103448)" id="Shape" stroke="#CCCCCC" stroke-linecap="round" stroke-linejoin="round" stroke-width="0.9692">
                                    <path d="M21.9531746,0.662068966 C22.0634921,0.772413793 22.0634921,0.772413793 22.1738095,0.882758621"></path>
                                    <path d="M23.497619,2.53793103 C26.6968254,7.28275862 26.2555556,13.9034483 21.9531746,18.0965517 C17.0992063,22.9517241 9.37698413,22.9517241 4.52301587,18.0965517 C-9.88098492e-14,13.5724138 -0.220634921,6.51034483 3.64047619,1.65517241" stroke-dasharray="0.4773,1.9092"></path>
                                    <path d="M4.41269841,0.882758621 C4.52301587,0.772413793 4.52301587,0.772413793 4.63333333,0.662068966"></path>
                                </g>
                                <g transform="translate(117.039683, 1.103448)" id="Shape" stroke="#CCCCCC" stroke-linecap="round" stroke-linejoin="round" stroke-width="0.9692">
                                    <path d="M21.6222222,0.662068966 C21.7325397,0.772413793 21.7325397,0.772413793 21.8428571,0.882758621"></path>
                                    <path d="M23.1666667,2.53793103 C26.365873,7.28275862 25.9246032,13.9034483 21.6222222,18.0965517 C16.768254,22.9517241 9.04603175,22.9517241 4.19206349,18.0965517 C-0.330952381,13.5724138 -0.551587302,6.51034483 3.30952381,1.65517241" stroke-dasharray="0.4773,1.9092"></path>
                                    <path d="M4.08174603,0.882758621 C4.19206349,0.772413793 4.19206349,0.772413793 4.30238095,0.662068966"></path>
                                </g>
                                <g transform="translate(154.547619, 1.103448)" id="Shape" stroke="#CCCCCC" stroke-linecap="round" stroke-linejoin="round" stroke-width="0.9692">
                                    <path d="M21.5119048,0.662068966 C21.6222222,0.772413793 21.6222222,0.772413793 21.7325397,0.882758621"></path>
                                    <path d="M23.0563492,2.53793103 C26.2555556,7.28275862 25.8142857,13.9034483 21.5119048,18.0965517 C16.6579365,22.9517241 8.93571429,22.9517241 4.08174603,18.0965517 C-0.441269841,13.5724138 -0.661904762,6.51034483 3.19920635,1.65517241" stroke-dasharray="0.4773,1.9092"></path>
                                    <path d="M3.97142857,0.882758621 C4.08174603,0.772413793 4.08174603,0.772413793 4.19206349,0.662068966"></path>
                                </g>
                                <g transform="translate(74.015873, 0.000000)" id="Shape" stroke="#CCCCCC" stroke-linecap="round" stroke-linejoin="round" stroke-width="0.9692">
                                    <path d="M26.4761905,0.44137931 C26.5865079,0.551724138 26.5865079,0.551724138 26.6968254,0.662068966"></path>
                                    <path d="M28.0206349,2.31724138 C32.2126984,8.16551724 31.6611111,16.3310345 26.4761905,21.6275862 C20.6293651,27.4758621 11.1420635,27.4758621 5.2952381,21.6275862 C-0.220634921,16.1103448 -0.551587302,7.28275862 4.41269841,1.43448276" stroke-dasharray="0.4918,1.9672"></path>
                                    <path d="M5.07460317,0.662068966 C5.18492063,0.551724138 5.18492063,0.551724138 5.2952381,0.44137931"></path>
                                </g>
                                <g transform="translate(3.412698, 2.206897)">
                                    <ellipse id="Oval" fill="#CCCCCC" cx="8.93571429" cy="8.27586207" rx="8.0531746" ry="8.05517241"></ellipse>
                                    <polygon id="Shape" fill="#FFFFFF" points="13.1277778 4.08275862 9.70793651 5.29655172 12.0246032 7.50344828"></polygon>
                                </g>
                                <g transform="translate(40.920635, 2.206897)">
                                    <ellipse id="Oval" fill="#CCCCCC" cx="8.82539683" cy="8.27586207" rx="8.0531746" ry="8.05517241"></ellipse>
                                    <polygon id="Shape" fill="#FFFFFF" points="13.0174603 4.08275862 9.59761905 5.29655172 11.9142857 7.50344828"></polygon>
                                </g>
                                <g transform="translate(78.428571, 0.000000)">
                                    <ellipse id="Oval" fill="#CCCCCC" cx="11.4730159" cy="11.0344828" rx="10.7007937" ry="10.7034483"></ellipse>
                                    <polygon id="Shape" fill="#FFFFFF" points="17.7611111 5.29655172 14.3412698 6.4 16.6579365 8.71724138"></polygon>
                                </g>
                                <g transform="translate(121.452381, 2.206897)">
                                    <ellipse id="Oval" fill="#CCCCCC" cx="8.49444444" cy="8.27586207" rx="8.0531746" ry="8.05517241"></ellipse>
                                    <polygon id="Shape" fill="#FFFFFF" points="12.6865079 4.08275862 9.26666667 5.29655172 11.5833333 7.50344828"></polygon>
                                </g>
                                <g transform="translate(158.960317, 2.206897)">
                                    <ellipse id="Oval" fill="#CCCCCC" cx="8.49444444" cy="8.27586207" rx="8.0531746" ry="8.05517241"></ellipse>
                                    <polygon id="Shape" fill="#FFFFFF" points="12.5761905 4.08275862 9.15634921 5.29655172 11.4730159 7.50344828"></polygon>
                                </g>
                            </g>
                            <rect id="Rectangle-path" fill="#CCCCCC" x="106.897619" y="95.5586207" width="106.897619" height="5.29655172"></rect>
                            <g id="Shape">
                                <polygon fill="#E0E0E0" points="42.8031746 256 0 236.027586 0 59.5862069 42.8031746 79.5586207"></polygon>
                                <polygon fill="#E0E0E0" points="42.8031746 74.1517241 0 54.2896552 0 0.772413793 42.8031746 20.7448276"></polygon>
                                <polygon fill="#CCCCCC" points="42.8031746 79.5586207 0 59.5862069 0 54.2896552 42.8031746 74.1517241"></polygon>
                            </g>
                            <g>
                                <polygon id="Shape" fill="#FFFFFF" points="278 20.7448276 42.8031746 20.7448276 0 0.772413793 235.196825 0.772413793"></polygon>
                                <ellipse id="Oval" fill="#CCCCCC" transform="translate(75.798905, 6.173216) rotate(-89.139349) translate(-75.798905, -6.173216) " cx="75.7989051" cy="6.17321643" rx="2.64765298" ry="32.6624876"></ellipse>
                                <ellipse id="Oval" fill="#CCCCCC" transform="translate(182.723133, 6.086927) rotate(-89.139349) translate(-182.723133, -6.086927) " cx="182.723133" cy="6.08692677" rx="2.64765298" ry="32.6624876"></ellipse>
                                <ellipse id="Oval" fill="#CCCCCC" transform="translate(95.219683, 15.264340) rotate(-89.139349) translate(-95.219683, -15.264340) " cx="95.2196835" cy="15.2643401" rx="2.64765298" ry="32.6624876"></ellipse>
                                <ellipse id="Oval" fill="#CCCCCC" transform="translate(202.144132, 15.178050) rotate(-89.139349) translate(-202.144132, -15.178050) " cx="202.144132" cy="15.1780504" rx="2.64765298" ry="32.6624876"></ellipse>
                            </g>
                        </g>
                        <g id="Group" transform="translate(81.000000, 150.000000)" fill="#001CB0" fill-rule="nonzero">
                            <path d="M159.337931,50.4863014 L159.337931,70.4589041 C159.337931,75.8958904 154.813793,80.4452055 149.406897,80.4452055 L10.3724138,80.4452055 C4.85517241,80.4452055 0.44137931,75.8958904 0.44137931,70.4589041 L0.44137931,50.4863014 L159.337931,50.4863014 Z" id="Shape"></path>
                            <path d="M101.958621,0.998630137 C90.5931034,0.998630137 79.2275862,6.32465753 69.5172414,13.6479452 C65.5448276,11.539726 61.0206897,11.3178082 57.0482759,12.5383562 C56.6068966,12.0945205 56.0551724,11.7616438 55.3931034,11.4287671 C50.8689655,8.87671233 45.3517241,9.65342466 41.7103448,13.0931507 L31.337931,7.21232877 C31.5586207,6.99041096 31.7793103,6.76849315 31.8896552,6.43561644 C32.9931034,4.43835616 32.3310345,1.99726027 30.3448276,0.776712329 C28.3586207,-0.332876712 25.9310345,0.332876712 24.7172414,2.33013699 C23.6137931,4.32739726 24.2758621,6.76849315 26.262069,7.9890411 C24.2758621,6.87945205 21.8482759,7.54520548 20.6344828,9.54246575 C19.5310345,11.539726 20.1931034,13.9808219 22.1793103,15.2013699 C24.1655172,16.3109589 26.5931034,15.6452055 27.8068966,13.6479452 C27.9172414,13.3150685 28.137931,13.0931507 28.137931,12.760274 L38.4,18.6410959 C37.0758621,23.6342466 39.1724138,28.960274 43.8068966,31.6232877 C44.3586207,31.9561644 45.0206897,32.1780822 45.5724138,32.4 C46.0137931,34.1753425 46.6758621,35.9506849 47.6689655,37.5041096 C44.6896552,42.6082192 43.1448276,47.2684932 43.2551724,50.5972603 L137.268966,50.5972603 C138.482759,46.9356164 139.144828,42.9410959 139.144828,38.8356164 C139.475862,17.9753425 122.593103,0.998630137 101.958621,0.998630137 Z M33.6551724,10.0972603 C33.5448276,10.0972603 33.5448276,9.98630137 33.4344828,9.98630137 C33.5448276,9.98630137 33.5448276,9.98630137 33.6551724,10.0972603 Z" id="Shape"></path>
                        </g>
                        <polygon id="Shape" fill="#FFFFFF" opacity="0.3" points="221.856563 240 99 117 262 117 262 240"></polygon>
                    </g>
                </g>
            </g>
        </g>
    </g>
</svg>