<?xml version="1.0" encoding="UTF-8"?>
<svg width="133px" height="128px" viewBox="0 0 133 128" version="1.1" xmlns="http://www.w3.org/2000/svg" xmlns:xlink="http://www.w3.org/1999/xlink">
    <!-- Generator: Sketch 44 (41411) - http://www.bohemiancoding.com/sketch -->
    <title>icon_track_move</title>
    <desc>Created with Sketch.</desc>
    <defs></defs>
    <g id="Page-1" stroke="none" stroke-width="1" fill="none" fill-rule="evenodd">
        <g id="icon_track_move">
            <g id="Group-7">
                <path d="M64.6028242,0.550747126 L1.09065234,48.2380057 C0.400953125,48.7515402 -1.42108547e-14,49.5583103 -1.42108547e-14,50.4156897 L-1.42108547e-14,124.903494 C-1.42108547e-14,126.408374 1.22829297,127.630437 2.74233984,127.630437 L129.76818,127.630437 C131.253801,127.630437 132.462645,126.454517 132.507527,124.988339 L132.507527,50.3308448 C132.482094,49.5047241 132.085629,48.7336782 131.418371,48.2380057 L67.9047031,0.550747126 C67.4184727,0.184574713 66.8364922,7.10542736e-15 66.2545117,7.10542736e-15 C65.6740273,7.10542736e-15 65.0920469,0.184574713 64.6028242,0.550747126 Z" id="Fill-6-Copy" fill="#0110B8"></path>
                <g id="Group-6" transform="translate(12.000000, 58.000000)">
                    <polyline id="Path-3" stroke="#00E3F2" stroke-width="4" points="9 33.7529088 39.8796387 9 69.435791 33.7529088 98.8183178 9"></polyline>
                    <circle id="Oval" fill="#00E3F2" cx="9.21696429" cy="33.2169643" r="9.21696429"></circle>
                    <circle id="Oval-Copy-2" fill="#00E3F2" cx="40.2169643" cy="9.21696429" r="9.21696429"></circle>
                    <circle id="Oval-Copy-3" fill="#00E3F2" cx="69.2169643" cy="33.2169643" r="9.21696429"></circle>
                    <circle id="Oval-Copy-4" fill="#00E3F2" cx="98.2169643" cy="9.21696429" r="9.21696429"></circle>
                </g>
            </g>
        </g>
    </g>
</svg>