<?xml version="1.0" encoding="UTF-8"?>
<svg width="133px" height="128px" viewBox="0 0 133 128" version="1.1" xmlns="http://www.w3.org/2000/svg" xmlns:xlink="http://www.w3.org/1999/xlink">
    <!-- Generator: Sketch 44 (41411) - http://www.bohemiancoding.com/sketch -->
    <title>icon_rate_move</title>
    <desc>Created with Sketch.</desc>
    <defs></defs>
    <g id="Page-1" stroke="none" stroke-width="1" fill="none" fill-rule="evenodd">
        <g id="icon_rate_move">
            <g id="Group">
                <path d="M64.6028242,0.550747126 L1.09065234,48.2380057 C0.400953125,48.7515402 -1.42108547e-14,49.5583103 -1.42108547e-14,50.4156897 L-1.42108547e-14,124.903494 C-1.42108547e-14,126.408374 1.22829297,127.630437 2.74233984,127.630437 L129.76818,127.630437 C131.253801,127.630437 132.462645,126.454517 132.507527,124.988339 L132.507527,50.3308448 C132.482094,49.5047241 132.085629,48.7336782 131.418371,48.2380057 L67.9047031,0.550747126 C67.4184727,0.184574713 66.8364922,7.10542736e-15 66.2545117,7.10542736e-15 C65.6740273,7.10542736e-15 65.0920469,0.184574713 64.6028242,0.550747126 Z" id="Fill-6-Copy-2" fill="#0110B8"></path>
                <polygon id="Path-2-Copy" fill="#00E3F2" points="65.9361768 42 57.9701039 63.8783161 34 63.8783161 51.6442194 79.4280604 44.0222541 102.525869 65.9361768 90.4575114 89.1577356 102.525869 81.3123363 79.4280604 98 63.8783161 74.7108558 63.8783161"></polygon>
            </g>
        </g>
    </g>
</svg>