<?xml version="1.0" encoding="UTF-8"?>
<svg width="133px" height="128px" viewBox="0 0 133 128" version="1.1" xmlns="http://www.w3.org/2000/svg" xmlns:xlink="http://www.w3.org/1999/xlink">
    <!-- Generator: Sketch 44 (41411) - http://www.bohemiancoding.com/sketch -->
    <title>icon_move_home</title>
    <desc>Created with Sketch.</desc>
    <defs></defs>
    <g id="Page-1" stroke="none" stroke-width="1" fill="none" fill-rule="evenodd">
        <g id="icon_move_home">
            <g id="Move-Home">
                <path d="M64.8429247,0.552341855 L1.09470582,48.3776824 C0.402443293,48.8927039 0,49.70181 0,50.561672 L0,125.265161 C0,126.774398 1.232858,128 2.75253192,128 L130.250471,128 C131.741614,128 132.95495,126.820675 133,125.350252 L133,50.4765815 C132.974472,49.6480687 132.576534,48.8747901 131.906796,48.3776824 L68.1570753,0.552341855 C67.6690377,0.185109162 67.0848943,0 66.5007508,0 C65.918109,0 65.3339656,0.185109162 64.8429247,0.552341855 Z" id="Fill-6" fill="#0110B8"></path>
                <path d="M58.7778785,42 L58.7778785,59.4857297 L0,59.15771 L0,86.2751423 L58.7778785,86.2751423 C58.7524431,94.3613267 58.7778785,104 58.7778785,104 L99,71.5184712 L58.7778785,42 Z" id="Fill-6" fill="#00E3F2"></path>
            </g>
        </g>
    </g>
</svg>