<?xml version="1.0" encoding="UTF-8"?>
<svg width="25px" height="24px" viewBox="0 0 25 24" version="1.1" xmlns="http://www.w3.org/2000/svg" xmlns:xlink="http://www.w3.org/1999/xlink">
    <!-- Generator: Sketch 47.1 (45422) - http://www.bohemiancoding.com/sketch -->
    <title>ico_warning copy 7</title>
    <desc>Created with Sketch.</desc>
    <defs></defs>
    <g id="Components" stroke="none" stroke-width="1" fill="none" fill-rule="evenodd">
        <g id="UI-component-|-Desktop" transform="translate(-327.000000, -5668.000000)" fill="#FD334C">
            <path d="M327.083073,5690.9678 L338.653814,5668.51419 C339.006659,5667.8286 339.992058,5667.8286 340.346186,5668.51419 L351.916927,5690.9678 C352.153013,5691.42655 351.857906,5692 351.384453,5692 L327.615547,5692 C327.142094,5692 326.846987,5691.42655 327.083073,5690.9678 Z M340.723922,5684.61172 C340.947177,5684.61172 341.12809,5684.43204 341.12809,5684.21031 L341.12809,5677.31876 C341.12809,5677.09702 340.947177,5676.91734 340.723922,5676.91734 L338.275821,5676.91734 C338.052567,5676.91734 337.871654,5677.09702 337.871654,5677.31876 L337.871654,5684.21031 C337.871654,5684.43204 338.052567,5684.61172 338.275821,5684.61172 L340.723922,5684.61172 Z M337.762721,5688.03634 C337.762721,5688.98953 338.540262,5689.76178 339.5,5689.76178 C340.459738,5689.76178 341.237279,5688.98953 341.237279,5688.03634 C341.237279,5687.08314 340.459738,5686.3109 339.5,5686.3109 C338.540262,5686.3109 337.762721,5687.08314 337.762721,5688.03634 Z" id="ico_warning-copy-7"></path>
        </g>
    </g>
</svg>