<?xml version="1.0" encoding="UTF-8"?>
<svg width="25px" height="25px" viewBox="0 0 25 25" version="1.1" xmlns="http://www.w3.org/2000/svg" xmlns:xlink="http://www.w3.org/1999/xlink">
    <!-- Generator: Sketch 47.1 (45422) - http://www.bohemiancoding.com/sketch -->
    <title>ico_inform copy 3</title>
    <desc>Created with Sketch.</desc>
    <defs></defs>
    <g id="Components" stroke="none" stroke-width="1" fill="none" fill-rule="evenodd">
        <g id="UI-component-|-Desktop" transform="translate(-241.000000, -5667.000000)" fill="#999999">
            <path d="M254.732394,5675.74413 L254.732394,5673.22066 L252.267606,5673.22066 L252.267606,5675.74413 L254.732394,5675.74413 Z M254.732394,5685.77934 L254.732394,5678.26761 L252.267606,5678.26761 L252.267606,5685.77934 L254.732394,5685.77934 Z M253.5,5667 C256.942897,5667 259.88692,5668.2226 262.33216,5670.66784 C264.777399,5673.11308 266,5676.0571 266,5679.5 C266,5682.9429 264.777399,5685.88692 262.33216,5688.33216 C259.88692,5690.7774 256.942897,5692 253.5,5692 C250.057103,5692 247.11308,5690.7774 244.66784,5688.33216 C242.222601,5685.88692 241,5682.9429 241,5679.5 C241,5676.0571 242.222601,5673.11308 244.66784,5670.66784 C247.11308,5668.2226 250.057103,5667 253.5,5667 Z" id="ico_inform-copy-3"></path>
        </g>
    </g>
</svg>