<?xml version="1.0" encoding="UTF-8"?>
<svg width="25px" height="24px" viewBox="0 0 25 24" version="1.1" xmlns="http://www.w3.org/2000/svg" xmlns:xlink="http://www.w3.org/1999/xlink">
    <!-- Generator: Sketch 47.1 (45422) - http://www.bohemiancoding.com/sketch -->
    <title>ico_warning copy 6</title>
    <desc>Created with Sketch.</desc>
    <defs></defs>
    <g id="Components" stroke="none" stroke-width="1" fill="none" fill-rule="evenodd">
        <g id="UI-component-|-Desktop" transform="translate(-284.000000, -5668.000000)" fill="#F6A623">
            <path d="M284.083073,5690.9678 L295.653814,5668.51419 C296.006659,5667.8286 296.992058,5667.8286 297.346186,5668.51419 L308.916927,5690.9678 C309.153013,5691.42655 308.857906,5692 308.384453,5692 L284.615547,5692 C284.142094,5692 283.846987,5691.42655 284.083073,5690.9678 Z M297.723922,5684.61172 C297.947177,5684.61172 298.12809,5684.43204 298.12809,5684.21031 L298.12809,5677.31876 C298.12809,5677.09702 297.947177,5676.91734 297.723922,5676.91734 L295.275821,5676.91734 C295.052567,5676.91734 294.871654,5677.09702 294.871654,5677.31876 L294.871654,5684.21031 C294.871654,5684.43204 295.052567,5684.61172 295.275821,5684.61172 L297.723922,5684.61172 Z M294.762721,5688.03634 C294.762721,5688.98953 295.540262,5689.76178 296.5,5689.76178 C297.459738,5689.76178 298.237279,5688.98953 298.237279,5688.03634 C298.237279,5687.08314 297.459738,5686.3109 296.5,5686.3109 C295.540262,5686.3109 294.762721,5687.08314 294.762721,5688.03634 Z" id="ico_warning-copy-6"></path>
        </g>
    </g>
</svg>