<?xml version="1.0" encoding="UTF-8"?>
<svg width="403px" height="181px" viewBox="0 0 403 181" version="1.1" xmlns="http://www.w3.org/2000/svg" xmlns:xlink="http://www.w3.org/1999/xlink">
    <!-- Generator: Sketch 40.3 (33839) - http://www.bohemiancoding.com/sketch -->
    <title>Group</title>
    <desc>Created with Sketch.</desc>
    <defs></defs>
    <g id="Page-1" stroke="none" stroke-width="1" fill="none" fill-rule="evenodd">
        <g id="Artboard" transform="translate(-14.000000, -12.000000)" fill="#FFFFFF">
            <g id="Group" transform="translate(13.000000, 12.000000)">
                <path d="M240.76017,51.5711111 C234.224486,51.5711111 228.175005,52.3554969 222.780027,53.9032313 C217.397516,55.4509657 212.906376,57.2391248 209.434392,59.2196238 L209.054156,59.4360061 L211.503869,66.7389082 L212.089805,66.426356 C215.742557,64.484926 219.928262,62.8830961 224.519136,61.668951 C229.11936,60.454806 234.582905,59.8387175 240.76017,59.8387175 C248.629794,59.8387175 254.732258,61.5968236 258.889913,65.0679561 C263.022635,68.5210567 265.120162,74.6639093 265.120162,83.3282166 L265.120162,89.0773737 L243.060282,89.0773737 C229.589979,89.0773737 219.230125,91.5357169 212.267456,96.3832811 C205.248687,101.269914 201.689435,108.690024 201.689435,118.433237 C201.689435,122.679739 202.446789,126.481456 203.93968,129.736206 C205.432571,132.993961 207.542565,135.788899 210.213562,138.051897 C212.872093,140.30588 216.066692,142.021911 219.700744,143.145897 C223.31298,144.266877 227.24,144.834881 231.366488,144.834881 C239.351429,144.834881 246.345265,143.13087 252.154762,139.770934 C257.515456,136.669455 261.941146,132.34782 265.325863,126.911215 L267.479491,143.356269 L274.841095,143.356269 L274.841095,83.3312219 C274.841095,73.6270775 271.986214,65.8252941 266.351252,60.1422538 C260.716289,54.4562082 252.104895,51.5711111 240.76017,51.5711111 Z M265.117045,97.3539961 L265.117045,106.799684 C265.117045,110.409061 264.356575,114.009421 262.860567,117.498586 C261.358326,120.996766 259.173531,124.206436 256.359167,127.034433 C253.547919,129.86844 250.029184,132.188539 245.902696,133.934623 C241.782442,135.683713 236.957817,136.57028 231.562839,136.57028 C228.817041,136.57028 226.161628,136.206637 223.674515,135.485363 C221.199869,134.770099 219.011958,133.65513 217.163765,132.167501 C215.318689,130.688889 213.853848,128.792539 212.809759,126.538557 C211.762554,124.281569 211.229601,121.555754 211.229601,118.442253 C211.229601,111.145361 213.698014,105.756841 218.566272,102.432969 C223.496864,99.0640172 231.737373,97.3570014 243.063398,97.3570014 L265.117045,97.3570014 L265.117045,97.3539961 Z" id="Shape"></path>
                <path d="M360.369103,69.5188194 C359.219047,67.7246497 357.838357,65.921464 356.245732,64.1363101 C354.238588,61.8913439 351.816926,59.8086644 349.052428,57.9483779 C346.281697,56.085086 343.108914,54.5403569 339.624463,53.3562649 C336.127545,52.172173 332.197408,51.5711111 327.943136,51.5711111 C322.651009,51.5711111 317.608216,52.6139535 312.958125,54.6695852 C308.308035,56.7252169 304.15038,59.7876273 300.600478,63.7666571 C297.05681,67.7426815 294.217512,72.650352 292.160501,78.3514241 C290.106608,84.0464856 289.062519,90.634124 289.062519,97.9280102 C289.062519,106.207638 290.072324,113.381312 292.060768,119.250681 C294.055445,125.147098 296.866692,130.060779 300.416594,133.85348 C303.969612,137.658202 308.233234,140.471172 313.089026,142.217256 C317.923001,143.954325 323.243178,144.837886 328.899958,144.837886 C336.261562,144.837886 342.716212,143.067759 348.08314,139.572584 C352.895298,136.441051 356.950102,132.30274 360.157169,127.24781 L360.157169,138.577827 C360.157169,144.642541 359.424748,149.87178 357.981724,154.118282 C356.544933,158.331726 354.525323,161.775811 351.975877,164.357371 C349.432663,166.926911 346.319097,168.808235 342.716212,169.947247 C339.079043,171.095275 334.946322,171.678305 330.433365,171.678305 C324.508552,171.678305 318.982673,171.002111 314.005331,169.664748 C309.009288,168.321375 304.695799,166.719545 301.183298,164.904338 L300.600478,164.603807 L297.954415,172.471707 L298.359583,172.682079 C301.943769,174.536355 306.522176,176.28845 311.96702,177.896291 C317.430565,179.504131 323.51433,180.321576 330.046897,180.321576 C342.529211,180.321576 352.427796,176.850443 359.471499,170.001343 C366.505851,163.152242 370.074453,152.642675 370.074453,138.767161 L370.074453,53.0497234 L362.519614,53.0497234 L360.369103,69.5188194 Z M360.160285,80.5212575 L360.160285,103.659135 C360.160285,107.653192 359.493315,111.638232 358.178075,115.50306 C356.865952,119.361878 354.899325,122.881095 352.331178,125.961537 C349.772382,129.029958 346.543499,131.533381 342.738029,133.396673 C338.941909,135.25696 334.47882,136.203632 329.479661,136.203632 C325.599391,136.203632 321.762754,135.530443 318.078835,134.205101 C314.4105,132.888776 311.131749,130.697905 308.332968,127.695601 C305.52172,124.687286 303.240309,120.708256 301.54795,115.869708 C299.852474,111.025149 298.989153,104.987482 298.989153,97.9310155 C298.989153,91.4876319 299.818191,85.8226235 301.451333,81.1012823 C303.078241,76.3859517 305.300436,72.436975 308.052467,69.3625434 C310.788914,66.3031383 313.980397,63.9860447 317.533416,62.4803846 C321.092667,60.9777298 324.919954,60.2143812 328.906191,60.2143812 C335.398241,60.2143812 341.347988,62.0746678 346.593365,65.747156 C351.838743,69.4226495 356.404683,74.3934315 360.160285,80.5212575 Z" id="Shape"></path>
                <rect id="Rectangle-path" x="393.31244" y="17.7553686" width="9.91728447" height="125.606911"></rect>
                <path d="M19.4102449,36.5024892 C22.9507965,33.761647 28.1743568,34.3146239 31.0167715,37.7316608 L75.6133848,91.3283505 C78.4557994,94.7423821 77.8823298,99.7792808 74.3386615,102.520123 L74.3386615,102.520123 C70.7981099,105.260965 65.5745497,104.707988 62.732135,101.290952 L18.1386384,47.6942618 C15.2962237,44.2772249 15.8696933,39.2433315 19.4102449,36.5024892 L19.4102449,36.5024892 Z" id="Shape"></path>
                <path d="M1.11220058,125.787229 C1.86020444,121.4686 6.13629315,118.523396 10.6149662,119.244671 L62.2303491,127.548341 C66.7090222,128.269615 69.7633713,132.3929 69.0153674,136.711529 L69.0153674,136.711529 C68.2673635,141.030159 63.9912748,143.975362 59.5126017,143.254088 L7.8972189,134.950418 C3.41854581,134.229144 0.364196721,130.105859 1.11220058,125.787229 L1.11220058,125.787229 Z" id="Shape"></path>
                <path d="M85.0881003,0.0540955711 C89.5979402,-0.450796426 93.7181948,2.69275732 94.2417975,7.04444548 L102.463607,75.3010349 C102.987209,79.6497178 99.7271591,83.622737 95.2142025,84.1276289 L95.2142025,84.1276289 C90.7043626,84.6325209 86.584108,81.4889672 86.0605053,77.137279 L77.8386962,8.88068958 C77.3150935,4.53200673 80.5751437,0.558987568 85.0881003,0.0540955711 L85.0881003,0.0540955711 Z" id="Shape"></path>
                <path d="M144.965809,18.2362181 C149.232548,19.7358675 151.448509,24.3309857 149.890168,28.4452545 L130.36415,80.040408 C128.808926,84.1546767 124.043518,86.2914518 119.776779,84.788797 L119.776779,84.788797 C115.510041,83.2891476 113.294079,78.6940294 114.85242,74.5797607 L134.378438,22.9846071 C135.936779,18.8733437 140.702187,16.7365686 144.965809,18.2362181 L144.965809,18.2362181 Z" id="Shape"></path>
                <path d="M177.553844,59.9258715 C180.916744,62.8680695 181.175429,67.9260054 178.127313,71.1717397 L155.574997,95.1631254 C152.523765,98.4058544 147.278388,98.6552951 143.91237,95.7161024 L143.91237,95.7161024 C140.54947,92.7739044 140.290785,87.7159685 143.338901,84.4702342 L165.891217,60.4788485 C168.939333,57.2331142 174.187826,56.9866788 177.553844,59.9258715 L177.553844,59.9258715 Z" id="Shape"></path>
            </g>
        </g>
    </g>
</svg>