<?xml version="1.0" encoding="UTF-8"?>
<svg width="111px" height="45px" viewBox="0 0 111 45" version="1.1" xmlns="http://www.w3.org/2000/svg" xmlns:xlink="http://www.w3.org/1999/xlink">
    <!-- Generator: Sketch 42 (36781) - http://www.bohemiancoding.com/sketch -->
    <title>agl_logo</title>
    <desc>Created with Sketch.</desc>
    <defs>
        <polygon id="path-1" points="0 0.252770627 110.537836 0.252770627 110.537836 44.2622951 0 44.2622951"></polygon>
        <polyline id="path-3" points="0 0.252770627 110.537836 0.252770627 110.537836 44.2622951 0 44.2622951"></polyline>
    </defs>
    <g id="Interim" stroke="none" stroke-width="1" fill="none" fill-rule="evenodd">
        <g id="interim_lg_menu" transform="translate(-40.000000, -10.000000)">
            <g id="agl_logo" transform="translate(40.000000, 10.000000)">
                <g id="Group-37">
                    <path d="M41.1272036,12.6274109 L34.2336038,12.6274109 L34.2336038,2.64278824 L36.57901,2.64278824 L36.57901,10.6334128 L41.1272036,10.6334128 L41.1272036,12.6274109 Z M28.5945404,10.6213413 C28.5945404,10.6213413 30.6815636,10.618049 30.8274484,10.618049 L30.8274484,8.88925891 L28.6061531,8.88925891 L28.6061531,7.11108522 L32.9656401,7.11108522 L32.9656401,12.6274109 L28.2679327,12.6274109 C24.6748851,12.6274109 23.592362,9.00412139 23.592362,7.64918304 C23.592362,4.47619835 25.5926527,2.35160818 28.6555072,2.35160818 C30.4438658,2.35160818 32.4590353,3.30745427 32.9656401,5.39107438 L30.5182598,5.39107438 C30.1611687,4.7399431 29.501784,4.35950684 28.6555072,4.35950684 C26.1504261,4.35950684 25.8920431,6.71162715 25.8920431,7.64918304 C25.8920431,8.825609 26.7248928,10.6213413 28.5945404,10.6213413 L28.5945404,10.6213413 Z M21.7484801,12.631069 L20.9798633,10.3967376 L17.1796013,10.3967376 L16.3841301,12.631069 L14.1221903,12.631069 L17.9783386,2.59852594 L20.2678585,2.59852594 L24.0663061,12.631069 L21.7484801,12.631069 Z M13.4540961,10.2105433 C13.443935,11.2673513 13.1296658,12.632898 11.3024772,12.632898 L2.25036334,12.632898 L2.25036334,10.1827422 C2.25036334,10.1827422 10.6329314,11.9678661 11.4857404,12.1427205 C12.3341946,12.3190381 13.2399866,11.8943395 12.9326125,10.3901531 C12.6248755,8.87718737 11.3532828,2.59852594 11.3532828,2.59852594 L13.4540961,2.59852594 L13.4540961,10.2105433 Z M2.25036334,5.50374204 L12.1320607,11.8069123 C11.9636763,11.8669042 11.4505393,11.7008292 11.2614698,11.6199865 L2.25036334,7.98791763 L2.25036334,5.50374204 Z M4.70645324,2.59852594 L12.5399575,11.5449966 C12.5022161,11.5995014 12.4241932,11.6799783 12.3697586,11.7161929 L2.25036334,2.59852594 L4.70645324,2.59852594 Z M9.27315468,2.59852594 L12.6147143,10.9315432 C12.6553589,11.0357973 12.676044,11.1989459 12.6383027,11.3269774 L7.11137461,2.59852594 L9.27315468,2.59852594 Z M3.62897443e-05,0.25299011 L3.62897443e-05,44.2453218 L34.1113073,44.2453218 C39.9154891,44.2453218 43.2214848,42.1189026 43.2214848,35.2970221 L43.2214848,0.25299011 L3.62897443e-05,0.25299011 Z" id="Fill-1" fill="#0057BF"></path>
                    <polygon id="Fill-3" fill="#0057BF" points="19.0900386 5.07234928 17.7611082 8.75197263 20.3953807 8.75197263 19.1187075 5.07234928"></polygon>
                    <path d="M50.553501,13.9523533 L50.553501,18.0168026 L54.4216249,18.0168026 C54.6041623,18.0168026 54.7500471,18.1642217 54.7500471,18.3482211 L54.7500471,19.0099607 C54.7500471,19.1939602 54.6041623,19.3413792 54.4216249,19.3413792 L50.553501,19.3413792 L50.553501,24.344116 L55.2617325,24.344116 C55.4442699,24.344116 55.5894289,24.4911692 55.5894289,24.6748029 L55.5894289,25.3372741 C55.5894289,25.5209077 55.4442699,25.667961 55.2617325,25.667961 L49.4227126,25.667961 C49.2405381,25.667961 49.0942904,25.5209077 49.0942904,25.3372741 L49.0942904,12.9591952 C49.0942904,12.7751958 49.2405381,12.6281425 49.4227126,12.6281425 L55.1880643,12.6281425 C55.3706017,12.6281425 55.5168494,12.7751958 55.5168494,12.9591952 L55.5168494,13.6209348 C55.5168494,13.8049343 55.3706017,13.9523533 55.1880643,13.9523533 L50.553501,13.9523533 Z" id="Fill-5" fill="#0057BF"></path>
                    <path d="M58.6178806,25.3373107 C58.6178806,25.5209443 58.471633,25.6679976 58.2890955,25.6679976 L57.5955985,25.6679976 C57.4130611,25.6679976 57.2679021,25.5209443 57.2679021,25.3373107 L57.2679021,16.159286 C57.2679021,15.9752865 57.4130611,15.8282333 57.5955985,15.8282333 L58.2890955,15.8282333 C58.471633,15.8282333 58.6178806,15.9752865 58.6178806,16.159286 L58.6178806,17.0240469 C59.0188823,16.2148882 59.8219743,15.5341268 61.0260681,15.5341268 C62.2664515,15.5341268 63.5438505,16.6194676 63.5438505,18.624074 L63.5438505,25.3373107 C63.5438505,25.5209443 63.3979658,25.6679976 63.2150654,25.6679976 L62.5034236,25.6679976 C62.3219748,25.6679976 62.1753643,25.5209443 62.1753643,25.3373107 L62.1753643,19.0469435 C62.1753643,18.0354952 61.9013767,16.784811 60.4421661,16.784811 C58.9274321,16.784811 58.6178806,18.2564409 58.6178806,19.0469435 L58.6178806,25.3373107 Z" id="Fill-7" fill="#0057BF"></path>
                    <path d="M70.5481341,19.8933044 L70.5481341,18.7157811 C70.5481341,17.6677523 69.6720997,16.7847013 68.6146165,16.7847013 C67.5186662,16.7847013 66.6800102,17.6677523 66.6800102,18.7157811 L66.6800102,19.8933044 L70.5481341,19.8933044 Z M66.6800102,21.0335158 L66.6800102,22.7805961 C66.6800102,23.8289907 67.5186662,24.7116759 68.6146165,24.7116759 C69.6176651,24.7116759 70.5118444,23.9021515 70.5118444,22.9276494 L70.5118444,22.7805961 C70.5118444,22.5969625 70.658092,22.4495434 70.8402665,22.4495434 L71.5519084,22.4495434 C71.7348087,22.4495434 71.8806935,22.5969625 71.8806935,22.7805961 L71.8806935,22.9276494 C71.8806935,24.5459667 70.438902,25.9437041 68.6146165,25.9437041 C66.7344449,25.9437041 65.3485395,24.4545156 65.3485395,22.7805961 L65.3485395,18.7157811 C65.3485395,17.0422273 66.7344449,15.5526731 68.6146165,15.5526731 C70.4944253,15.5526731 71.8806935,17.0422273 71.8806935,18.7157811 L71.8806935,20.7024631 C71.8806935,20.8860967 71.7348087,21.0335158 71.5519084,21.0335158 L66.6800102,21.0335158 Z" id="Fill-9" fill="#0057BF"></path>
                    <path d="M79.3235749,18.5688741 C79.3235749,18.7528736 79.1776902,18.8999268 78.9947898,18.8999268 L78.3016557,18.8999268 C78.1194812,18.8999268 77.9739593,18.7528736 77.9739593,18.5688741 L77.9739593,18.3848747 C77.9739593,17.446953 77.6444485,16.7844818 76.5499498,16.7844818 C75.4550882,16.7844818 74.9622734,17.5387698 74.9622734,18.3848747 L74.9622734,25.3373472 C74.9622734,25.5209809 74.8171145,25.6680341 74.63494,25.6680341 L73.9403542,25.6680341 C73.7581797,25.6680341 73.612295,25.5209809 73.612295,25.3373472 L73.612295,16.1593226 C73.612295,15.9753231 73.7581797,15.8282699 73.9403542,15.8282699 L74.63494,15.8282699 C74.8171145,15.8282699 74.9622734,15.9753231 74.9622734,16.1593226 L74.9622734,16.8949546 C75.5280306,16.0675058 76.276688,15.5341634 77.3530418,15.5341634 C78.5027009,15.5341634 79.3235749,16.5456117 79.3235749,17.7044791 L79.3235749,18.5688741 Z" id="Fill-11" fill="#0057BF"></path>
                    <path d="M85.3801518,19.0470167 C85.3801518,18.2561482 85.0698745,16.7845184 83.5551406,16.7845184 C82.0962929,16.7845184 81.8212166,18.0355684 81.8212166,19.0470167 L81.8212166,22.1369638 C81.8212166,23.1484121 82.0962929,24.3990963 83.5551406,24.3990963 C85.0698745,24.3990963 85.3801518,22.9278323 85.3801518,22.1369638 L85.3801518,19.0470167 Z M85.3801518,24.1602263 C84.9791502,24.9693849 84.1767839,25.6501463 82.9708757,25.6501463 C81.731218,25.6501463 80.4534561,24.5648056 80.4534561,22.5601992 L80.4534561,18.6237813 C80.4534561,16.6195407 81.731218,15.5342 82.9708757,15.5342 C84.1767839,15.5342 84.9791502,16.2145956 85.3801518,17.02412 L85.3801518,16.1593592 C85.3801518,15.9753597 85.5260366,15.8283065 85.7082111,15.8283065 L86.402071,15.8283065 C86.5842455,15.8283065 86.7304932,15.9753597 86.7304932,16.1593592 L86.7304932,26.8452283 C86.7304932,27.7465696 86.4561427,28.5740184 85.9088934,29.162963 C85.3623699,29.7515418 84.5592778,30.0822287 83.6654614,30.0822287 C81.9496823,30.0822287 80.5634141,28.7404593 80.5634141,26.9922815 L80.5634141,26.8642501 C80.5634141,26.6802506 80.7092988,26.5328316 80.8914733,26.5328316 L81.5483177,26.5328316 C81.731218,26.5328316 81.8774657,26.6802506 81.8774657,26.8642501 L81.8774657,26.9922815 C81.8774657,28.0959125 82.4976574,28.8498347 83.592519,28.8498347 C84.1568245,28.8498347 84.6685099,28.6662011 84.9613682,28.3351484 C85.2887017,27.9488592 85.3801518,27.3975925 85.3801518,26.8452283 L85.3801518,24.1602263 Z" id="Fill-13" fill="#0057BF"></path>
                    <path d="M89.6661521,29.0524902 C89.4839776,29.0524902 89.337367,28.9054369 89.337367,28.7214375 L89.337367,28.1149343 C89.337367,27.9302032 89.4839776,27.78315 89.6661521,27.78315 L90.4870261,27.78315 C91.1993938,27.78315 91.4545107,27.5439141 91.4545107,27.1214104 C91.4545107,26.9191207 91.3997132,26.6802506 91.3274966,26.421993 L88.2621019,16.2332516 C88.2435941,16.1776494 88.2435941,16.1414348 88.2435941,16.122413 C88.2435941,15.9574353 88.3528262,15.8283065 88.516493,15.8283065 L89.2832953,15.8283065 C89.4654698,15.8283065 89.5754277,15.9204891 89.6298623,16.122413 L92.0928473,24.7670952 L94.3370051,16.122413 C94.3914397,15.9204891 94.5013976,15.8283065 94.6842979,15.8283065 L95.4322296,15.8283065 C95.5958963,15.8283065 95.7058543,15.9574353 95.7058543,16.122413 C95.7058543,16.1414348 95.7058543,16.1776494 95.6873465,16.2332516 L92.6586044,27.3975925 C92.2568769,28.8871467 91.4174952,29.0524902 90.4329544,29.0524902 L89.6661521,29.0524902 Z" id="Fill-15" fill="#0057BF"></path>
                    <path d="M100.648771,16.1593226 C100.648771,15.9753231 100.794656,15.8282699 100.976831,15.8282699 L101.670691,15.8282699 C101.853591,15.8282699 101.997661,15.9753231 101.997661,16.1593226 L101.997661,25.3373472 C101.997661,25.5209809 101.853591,25.6680341 101.670691,25.6680341 L100.976831,25.6680341 C100.794656,25.6680341 100.648771,25.5209809 100.648771,25.3373472 L100.648771,16.1593226 Z M100.539539,12.9592684 C100.539539,12.7752689 100.685787,12.6282157 100.867962,12.6282157 L101.779923,12.6282157 C101.962097,12.6282157 102.108345,12.7752689 102.108345,12.9592684 L102.108345,13.8419537 C102.108345,14.0259531 101.962097,14.1730064 101.779923,14.1730064 L100.867962,14.1730064 C100.685787,14.1730064 100.539539,14.0259531 100.539539,13.8419537 L100.539539,12.9592684 Z" id="Fill-17" fill="#0057BF"></path>
                    <path d="M105.610269,25.3373107 C105.610269,25.5209443 105.46511,25.6679976 105.28221,25.6679976 L104.588713,25.6679976 C104.406901,25.6679976 104.260653,25.5209443 104.260653,25.3373107 L104.260653,16.159286 C104.260653,15.9752865 104.406901,15.8282333 104.588713,15.8282333 L105.28221,15.8282333 C105.46511,15.8282333 105.610269,15.9752865 105.610269,16.159286 L105.610269,17.0240469 C106.011997,16.2148882 106.815089,15.5341268 108.018819,15.5341268 C109.259929,15.5341268 110.537691,16.6194676 110.537691,18.624074 L110.537691,25.3373107 C110.537691,25.5209443 110.391806,25.6679976 110.208905,25.6679976 L109.497264,25.6679976 C109.314363,25.6679976 109.169204,25.5209443 109.169204,25.3373107 L109.169204,19.0469435 C109.169204,18.0354952 108.89558,16.784811 107.434554,16.784811 C105.921272,16.784811 105.610269,18.2564409 105.610269,19.0469435 L105.610269,25.3373107 Z" id="Fill-19" fill="#0057BF"></path>
                    <path d="M51.0103163,40.0687901 C50.1894423,40.5103157 50.0069049,40.9887874 50.0069049,41.5770004 C50.0069049,42.5518683 50.6996761,43.0303401 51.5394208,43.0303401 C52.5976298,43.0303401 53.8198684,42.3678689 53.8198684,41.0985287 L53.8198684,38.6527625 L51.0103163,40.0687901 Z M52.8342389,37.8805501 C53.5462437,37.5491316 53.8017235,37.2184447 53.8017235,36.7216827 C53.8017235,35.8016854 53.2914897,35.1029996 52.0681624,35.1029996 C51.0103163,35.1029996 50.3901246,35.765105 50.3901246,36.7952093 L50.3901246,36.8687359 C50.3901246,37.0523696 50.2438769,37.2001545 50.0613395,37.2001545 L49.3678425,37.2001545 C49.1853051,37.2001545 49.0397832,37.0523696 49.0397832,36.8687359 L49.0397832,36.6664463 C49.0397832,35.0847094 50.3346013,33.8706056 52.1962652,33.8706056 C54.2212329,33.8706056 55.1698468,35.1944506 55.1698468,36.8504457 L55.1698468,43.6551335 C55.1698468,43.8394987 55.0239621,43.986552 54.8414247,43.986552 L54.1486534,43.986552 C53.966116,43.986552 53.8198684,43.8394987 53.8198684,43.6551335 L53.8198684,42.7724482 C53.3455614,43.5819726 52.324368,44.1892074 51.1924909,44.1892074 C49.9150919,44.1892074 48.6010402,43.342371 48.6010402,41.7057634 C48.6010402,40.6204227 49.0945807,39.663845 50.2983116,39.0939222 L52.8342389,37.8805501 Z" id="Fill-21" fill="#0057BF"></path>
                    <g id="Group-25">
                        <mask id="mask-2" fill="white">
                            <use xlink:href="#path-1"></use>
                        </mask>
                        <g id="Clip-24"></g>
                        <path d="M56.9752616,37.034116 C56.9752616,35.3609281 58.3252401,33.8706422 60.2043231,33.8706422 C62.1019138,33.8706422 63.4526181,35.3609281 63.4526181,37.034116 L63.4526181,37.1262986 C63.4526181,37.3099323 63.3060075,37.4569855 63.1234701,37.4569855 L62.412554,37.4569855 C62.2300166,37.4569855 62.083769,37.3099323 62.083769,37.1262986 L62.083769,37.034116 C62.083769,35.9860873 61.2814027,35.1030362 60.2043231,35.1030362 C59.146477,35.1030362 58.3437479,35.9860873 58.3437479,37.034116 L58.3437479,41.0985652 C58.3437479,42.1476914 59.146477,43.0303766 60.2043231,43.0303766 C61.2814027,43.0303766 62.083769,42.1476914 62.083769,41.0985652 L62.083769,40.9145658 C62.083769,40.7305663 62.2300166,40.5842447 62.412554,40.5842447 L63.1234701,40.5842447 C63.3060075,40.5842447 63.4526181,40.7305663 63.4526181,40.9145658 L63.4526181,41.0985652 C63.4526181,42.7724848 62.1019138,44.2624048 60.2043231,44.2624048 C58.3252401,44.2624048 56.9752616,42.7724848 56.9752616,41.0985652 L56.9752616,37.034116 Z" id="Fill-23" fill="#0057BF" mask="url(#mask-2)"></path>
                    </g>
                    <path d="M68.5600005,42.7169191 C68.742175,42.7169191 68.8873339,42.8643382 68.8873339,43.0487034 L68.8873339,43.6548408 C68.8873339,43.8392061 68.742175,43.9866251 68.5600005,43.9866251 L67.5373555,43.9866251 C66.1144346,43.9866251 65.1654578,43.0669936 65.1654578,41.63231 L65.1654578,31.2778594 C65.1654578,31.0934941 65.3120683,30.9460751 65.4946057,30.9460751 L66.1881028,30.9460751 C66.3699144,30.9460751 66.5154362,31.0934941 66.5154362,31.2778594 L66.5154362,34.477182 L68.5600005,34.477182 C68.742175,34.477182 68.8873339,34.6249668 68.8873339,34.8086005 L68.8873339,35.4154694 C68.8873339,35.5994689 68.742175,35.7461563 68.5600005,35.7461563 L66.5154362,35.7461563 L66.5154362,41.025441 C66.5154362,42.2208888 66.5709596,42.7169191 67.9760985,42.7169191 L68.5600005,42.7169191 Z" id="Fill-26" fill="#0057BF"></path>
                    <path d="M70.4205394,34.4770356 C70.4205394,34.2937678 70.5649725,34.1463487 70.7485986,34.1463487 L71.4417328,34.1463487 C71.6239073,34.1463487 71.770155,34.2937678 71.770155,34.4770356 L71.770155,43.6550603 C71.770155,43.8394256 71.6239073,43.9864788 71.4417328,43.9864788 L70.7485986,43.9864788 C70.5649725,43.9864788 70.4205394,43.8394256 70.4205394,43.6550603 L70.4205394,34.4770356 Z M70.3098556,31.277713 C70.3098556,31.0933478 70.4568291,30.9462945 70.6390036,30.9462945 L71.5509649,30.9462945 C71.7331394,30.9462945 71.87975,31.0933478 71.87975,31.277713 L71.87975,32.1603983 C71.87975,32.3443978 71.7331394,32.4910852 71.5509649,32.4910852 L70.6390036,32.4910852 C70.4568291,32.4910852 70.3098556,32.3443978 70.3098556,32.1603983 L70.3098556,31.277713 Z" id="Fill-28" fill="#0057BF"></path>
                    <g id="Group-32">
                        <mask id="mask-4" fill="white">
                            <use xlink:href="#path-3"></use>
                        </mask>
                        <g id="Clip-31"></g>
                        <path d="M75.2353175,37.034116 L75.2353175,41.0985652 C75.2353175,42.1476914 76.0750622,43.0303766 77.1332711,43.0303766 C78.1914801,43.0303766 79.0308619,42.1476914 79.0308619,41.0985652 L79.0308619,37.034116 C79.0308619,35.9860873 78.1914801,35.1030362 77.1332711,35.1030362 C76.0750622,35.1030362 75.2353175,35.9860873 75.2353175,37.034116 M73.8668312,41.0985652 L73.8668312,37.034116 C73.8668312,35.3609281 75.2538253,33.8706422 77.1332711,33.8706422 C79.0123541,33.8706422 80.3993481,35.3609281 80.3993481,37.034116 L80.3993481,41.0985652 C80.3993481,42.7724848 79.0123541,44.2624048 77.1332711,44.2624048 C75.2538253,44.2624048 73.8668312,42.7724848 73.8668312,41.0985652" id="Fill-30" fill="#0057BF" mask="url(#mask-4)"></path>
                    </g>
                    <path d="M83.6641913,43.6550237 C83.6641913,43.839389 83.5183065,43.9864422 83.336132,43.9864422 L82.6422721,43.9864422 C82.4600975,43.9864422 82.3131241,43.839389 82.3131241,43.6550237 L82.3131241,34.4769991 C82.3131241,34.2937312 82.4600975,34.1463122 82.6422721,34.1463122 L83.336132,34.1463122 C83.5183065,34.1463122 83.6641913,34.2937312 83.6641913,34.4769991 L83.6641913,35.3421257 C84.0659187,34.5329671 84.8675592,33.8518399 86.0727416,33.8518399 C87.3131251,33.8518399 88.5901612,34.9375464 88.5901612,36.941787 L88.5901612,43.6550237 C88.5901612,43.839389 88.4450022,43.9864422 88.2628277,43.9864422 L87.55046,43.9864422 C87.3682855,43.9864422 87.2224007,43.839389 87.2224007,43.6550237 L87.2224007,37.3650224 C87.2224007,36.353574 86.9480502,35.1028899 85.4884767,35.1028899 C83.9744686,35.1028899 83.6641913,36.5741539 83.6641913,37.3650224 L83.6641913,43.6550237 Z" id="Fill-33" fill="#0057BF"></path>
                    <path d="M90.2168853,42.7726677 C90.2168853,42.5886682 90.3634958,42.441615 90.5449445,42.441615 L91.4572687,42.441615 C91.640169,42.441615 91.7860538,42.5886682 91.7860538,42.7726677 L91.7860538,43.6553529 C91.7860538,43.8393524 91.640169,43.9864056 91.4572687,43.9864056 L90.5449445,43.9864056 C90.3634958,43.9864056 90.2168853,43.8393524 90.2168853,43.6553529 L90.2168853,42.7726677 Z" id="Fill-35" fill="#0057BF"></path>
                </g>
                <path d="M93.1072908,32.6473201 C93.1072908,32.5339209 93.0688237,32.4432015 92.9918894,32.3747961 C92.9145923,32.3063907 92.8220534,32.272371 92.7142729,32.272371 L92.2860539,32.272371 L92.2860539,33.2838193 L92.7142729,33.2838193 C92.8220534,33.2838193 92.9145923,33.2508969 92.9918894,33.1850522 C93.0688237,33.1188416 93.1072908,33.0292196 93.1072908,32.9161862 L93.1072908,32.6473201 Z M93.1072908,34.1756496 C93.1072908,34.0622504 93.0829767,33.9667755 93.0336226,33.889225 C92.9846315,33.8113088 92.89427,33.7721677 92.7636269,33.7721677 L92.321255,33.7721677 L92.321255,35.1731974 C92.321255,35.2203861 92.3060133,35.2595272 92.2755299,35.2898889 C92.2450465,35.3206164 92.2065794,35.3359802 92.1601285,35.3359802 L91.8371498,35.3359802 C91.7950537,35.3359802 91.7573123,35.3206164 91.7246516,35.2898889 C91.6919908,35.2595272 91.6756604,35.2203861 91.6756604,35.1731974 L91.6756604,31.9329048 C91.6756604,31.885716 91.6919908,31.8469408 91.7246516,31.8162133 C91.7573123,31.7854857 91.7950537,31.7701219 91.8371498,31.7701219 L92.9530594,31.7701219 C93.0416064,31.7701219 93.1319678,31.7887779 93.2230551,31.8268216 C93.3145053,31.8641336 93.3965201,31.9160778 93.4687367,31.9822883 C93.5413162,32.048133 93.5997426,32.1286099 93.644379,32.2229874 C93.6890154,32.3173649 93.7111522,32.423448 93.7111522,32.541237 L93.7111522,32.8737529 C93.7111522,33.0529969 93.6654271,33.2029766 93.5739769,33.3229603 C93.4828897,33.4433098 93.3765607,33.510252 93.2546272,33.5245184 C93.3997862,33.5530511 93.5191794,33.6225539 93.612807,33.7333925 C93.7060716,33.8438653 93.7532483,33.9942108 93.7532483,34.1825999 L93.7532483,35.1731974 C93.7532483,35.2203861 93.7376437,35.2595272 93.7075232,35.2898889 C93.6770398,35.3206164 93.6385727,35.3359802 93.5917589,35.3359802 L93.2687802,35.3359802 C93.2266841,35.3359802 93.1893056,35.3206164 93.1566449,35.2898889 C93.1239841,35.2595272 93.1072908,35.2203861 93.1072908,35.1731974 L93.1072908,34.1756496 Z M94.9812932,33.5673174 C94.9812932,33.2417518 94.9206893,32.9374028 94.7991187,32.6546362 C94.6771852,32.3715039 94.5124297,32.1249519 94.3041266,31.9149804 C94.0961864,31.7053746 93.8515935,31.5400312 93.5707109,31.4200474 C93.2898282,31.2993321 92.9904378,31.2393402 92.6721768,31.2393402 C92.3491981,31.2393402 92.0461787,31.2993321 91.7634816,31.4200474 C91.4804216,31.5400312 91.2343771,31.7053746 91.0264369,31.9149804 C90.8177708,32.1249519 90.6530154,32.3715039 90.5314448,32.6546362 C90.4095112,32.9374028 90.3489073,33.2417518 90.3489073,33.5673174 C90.3489073,33.8925173 90.4095112,34.1965005 90.5314448,34.4799986 C90.6530154,34.7627652 90.8177708,35.0104146 91.0264369,35.222581 C91.2343771,35.4347473 91.4804216,35.6011882 91.7634816,35.7211719 C92.0461787,35.8415215 92.3491981,35.9015133 92.6721768,35.9015133 C92.9904378,35.9015133 93.2898282,35.8415215 93.5707109,35.7211719 C93.8515935,35.6011882 94.0961864,35.4347473 94.3041266,35.222581 C94.5124297,35.0104146 94.6771852,34.7627652 94.7991187,34.4799986 C94.9206893,34.1965005 94.9812932,33.8925173 94.9812932,33.5673174 L94.9812932,33.5673174 Z M95.2552808,33.5673174 C95.2552808,33.9305609 95.1870561,34.2700271 95.0516953,34.5860818 C94.9156088,34.9017708 94.7312569,35.1790503 94.497188,35.4171887 C94.2634821,35.655693 93.9894945,35.8429847 93.6759511,35.9794296 C93.3624077,36.1162403 93.0278163,36.1850115 92.6721768,36.1850115 C92.3121825,36.1850115 91.9739621,36.1162403 91.6582413,35.9794296 C91.3421576,35.8429847 91.0659927,35.655693 90.8301094,35.4171887 C90.5935002,35.1790503 90.4076967,34.9017708 90.2719731,34.5860818 C90.1358865,34.2700271 90.0683876,33.9305609 90.0683876,33.5673174 C90.0683876,33.2084636 90.1358865,32.8711923 90.2719731,32.5551375 C90.4076967,32.2394486 90.5935002,31.9621691 90.8301094,31.7240306 C91.0659927,31.4858922 91.3421576,31.2982347 91.6582413,31.1617897 C91.9739621,31.0246132 92.3121825,30.9562078 92.6721768,30.9562078 C93.0278163,30.9562078 93.3624077,31.0246132 93.6759511,31.1617897 C93.9894945,31.2982347 94.2634821,31.4858922 94.497188,31.7240306 C94.7312569,31.9621691 94.9156088,32.2394486 95.0516953,32.5551375 C95.1870561,32.8711923 95.2552808,33.2084636 95.2552808,33.5673174 L95.2552808,33.5673174 Z" id="Fill-38" fill="#0057BF"></path>
            </g>
        </g>
    </g>
</svg>