<?xml version="1.0" encoding="UTF-8"?>
 <svg xmlns="http://www.w3.org/2000/svg" xmlns:xlink="http://www.w3.org/1999/xlink" width="104px"
                    height="99px" viewBox="0 0 104 99" version="1.1">
                    <title>logo/primary_white</title>
                    <defs/>
                    <g id="Page-1" stroke="none" stroke-width="1" fill="none" fill-rule="evenodd">
                        <g id="agl/logos" transform="translate(-116.000000, -532.000000)" fill="#FFFFFF">
                            <g id="logo/primary_white" transform="translate(116.000000, 532.000000)">
                                <g id="agl" transform="translate(47.540984, 50.819672)">
                                    <path d="M11.6786885,11.0983607 C9.89508197,11.0983607 8.2442623,11.3196721 6.7704918,11.7590164 C5.30163934,12.1967213 4.07540984,12.7032787 3.12786885,13.2639344 L3.02459016,13.3262295 L3.69344262,15.3934426 L3.85409836,15.304918 C4.85081967,14.7557377 5.99344262,14.3016393 7.24590164,13.9590164 C8.50163934,13.6147541 9.99344262,13.4409836 11.6786885,13.4409836 C13.8262295,13.4409836 15.4918033,13.9393443 16.6262295,14.9213115 C17.7540984,15.8983607 18.3262295,17.6377049 18.3262295,20.0901639 L18.3262295,21.7180328 L12.304918,21.7180328 C8.62786885,21.7180328 5.8,22.4147541 3.9,23.7868852 C1.98360656,25.1704918 1.01311475,27.2704918 1.01311475,30.0278689 C1.01311475,31.2295082 1.21967213,32.3065574 1.62786885,33.2262295 C2.03442623,34.147541 2.61147541,34.9393443 3.33934426,35.5803279 C4.06557377,36.2180328 4.93606557,36.7032787 5.9295082,37.0229508 C6.9147541,37.3409836 7.98688525,37.5016393 9.11311475,37.5016393 C11.2918033,37.5016393 13.2016393,37.0196721 14.7868852,36.0672131 C16.2491803,35.1901639 17.457377,33.9655738 18.3819672,32.4278689 L18.9704918,37.0836066 L20.9803279,37.0836066 L20.9803279,20.0885246 C20.9803279,17.342623 20.2,15.1344262 18.6639344,13.5245902 C17.1262295,11.9147541 14.7754098,11.0983607 11.6786885,11.0983607 Z M18.3278689,24.057377 L18.3278689,26.7311475 C18.3278689,27.752459 18.1213115,28.7721311 17.7114754,29.7590164 C17.3016393,30.7491803 16.704918,31.657377 15.9377049,32.4590164 C15.1704918,33.2606557 14.2098361,33.9180328 13.0836066,34.4131148 C11.9590164,34.9081967 10.642623,35.1590164 9.16885246,35.1590164 C8.41967213,35.1590164 7.69508197,35.0557377 7.0147541,34.852459 C6.33934426,34.6508197 5.74262295,34.3344262 5.23770492,33.9131148 C4.73442623,33.4934426 4.33442623,32.957377 4.04918033,32.3196721 C3.76393443,31.6803279 3.61803279,30.9098361 3.61803279,30.0278689 C3.61803279,27.9622951 4.29180328,26.4377049 5.61967213,25.4967213 C6.96557377,24.542623 9.2147541,24.0590164 12.3065574,24.0590164 L18.3278689,24.0590164 L18.3278689,24.057377 Z"
                                        id="Shape" fill-rule="nonzero" />
                                    <path d="M44.3245902,16.1786885 C44.0114754,15.6704918 43.6344262,15.1606557 43.2,14.6557377 C42.652459,14.0196721 41.9918033,13.4311475 41.2360656,12.904918 C40.4786885,12.3770492 39.6147541,11.9393443 38.6639344,11.604918 C37.7098361,11.2688525 36.6377049,11.1 35.4754098,11.1 C34.0311475,11.1 32.6540984,11.395082 31.3852459,11.9770492 C30.1163934,12.5590164 28.9819672,13.4262295 28.0131148,14.552459 C27.0459016,15.6786885 26.2704918,17.0672131 25.7098361,18.6803279 C25.1491803,20.2934426 24.8639344,22.157377 24.8639344,24.2213115 C24.8639344,26.5655738 25.1393443,28.595082 25.6819672,30.257377 C26.2262295,31.9262295 26.9934426,33.3180328 27.9622951,34.3918033 C28.9327869,35.4688525 30.0967213,36.2655738 31.4213115,36.7590164 C32.7409836,37.2508197 34.1918033,37.5 35.7360656,37.5 C37.7442623,37.5 39.5065574,36.9983607 40.9721311,36.0098361 C42.2852459,35.1229508 43.3918033,33.952459 44.2672131,32.5213115 L44.2672131,35.7278689 C44.2672131,37.4442623 44.0672131,38.9245902 43.6737705,40.1262295 C43.2819672,41.3180328 42.7295082,42.2934426 42.0344262,43.0245902 C41.3409836,43.752459 40.4901639,44.2836066 39.5081967,44.6065574 C38.5147541,44.9311475 37.3868852,45.0967213 36.1557377,45.0967213 C34.5393443,45.0967213 33.0295082,44.904918 31.6721311,44.5278689 C30.3081967,44.147541 29.1311475,43.6934426 28.1721311,43.1803279 L28.0131148,43.095082 L27.2918033,45.3213115 L27.4032787,45.3803279 C28.3819672,45.904918 29.6311475,46.4016393 31.1180328,46.8557377 C32.6098361,47.3114754 34.2688525,47.542623 36.052459,47.542623 C39.4590164,47.542623 42.1606557,46.5606557 44.0836066,44.6213115 C46.0032787,42.6819672 46.9770492,39.7081967 46.9770492,35.7803279 L46.9770492,11.5180328 L44.9147541,11.5180328 L44.3245902,16.1786885 Z M44.2688525,19.2934426 L44.2688525,25.842623 C44.2688525,26.9721311 44.0868852,28.1016393 43.7278689,29.195082 C43.3688525,30.2868852 42.8327869,31.2836066 42.1327869,32.1557377 C41.4344262,33.0245902 40.552459,33.7327869 39.5147541,34.2606557 C38.4786885,34.7868852 37.2606557,35.0540984 35.895082,35.0540984 C34.8360656,35.0540984 33.7885246,34.8639344 32.7836066,34.4885246 C31.7819672,34.1163934 30.8885246,33.495082 30.1229508,32.6459016 C29.3557377,31.7934426 28.7327869,30.6672131 28.2704918,29.2983607 C27.8081967,27.9262295 27.5721311,26.2180328 27.5721311,24.2213115 C27.5721311,22.3967213 27.7983607,20.795082 28.2442623,19.457377 C28.6885246,18.1229508 29.295082,17.004918 30.0459016,16.1344262 C30.7934426,15.2688525 31.6639344,14.6131148 32.6327869,14.1868852 C33.6032787,13.7622951 34.6491803,13.5459016 35.7360656,13.5459016 C37.5081967,13.5459016 39.1311475,14.0721311 40.5639344,15.1131148 C41.9967213,16.1508197 43.242623,17.5590164 44.2688525,19.2934426 Z"
                                        id="Shape" fill-rule="nonzero" />
                                    <rect id="Rectangle-path" fill-rule="nonzero" x="53.3163934" y="1.52786885" width="2.70655738" height="35.5540984" />
                                </g>
                                <g id="hand">
                                    <path d="M9.52786885,19.5885246 C11.3606557,18.1180328 14.0639344,18.4147541 15.5344262,20.247541 L38.6114754,49.0114754 C40.0819672,50.8442623 39.7852459,53.547541 37.952459,55.0180328 L37.952459,55.0180328 C36.1196721,56.4885246 33.4163934,56.1918033 31.9459016,54.3590164 L8.86885246,25.595082 C7.39836066,23.7622951 7.69508197,21.0590164 9.52786885,19.5885246 L9.52786885,19.5885246 Z"
                                        id="Shape" fill-rule="nonzero" />
                                    <path d="M0.0590163934,67.504918 C0.445901639,65.1868852 2.65901639,63.6065574 4.97704918,63.9934426 L31.6868852,68.4491803 C34.004918,68.8360656 35.5852459,71.0491803 35.1983607,73.3672131 L35.1983607,73.3672131 C34.8114754,75.6852459 32.5983607,77.2655738 30.2803279,76.8786885 L3.56885246,72.4229508 C1.25081967,72.0360656 -0.327868852,69.8229508 0.0590163934,67.504918 L0.0590163934,67.504918 Z"
                                        id="Shape" fill-rule="nonzero" />
                                    <path d="M43.5131148,0.0278688525 C45.847541,-0.242622951 47.9786885,1.4442623 48.2508197,3.77868852 L52.504918,40.4098361 C52.7754098,42.7442623 51.0885246,44.8754098 48.7540984,45.147541 L48.7540984,45.147541 C46.4196721,45.4180328 44.2885246,43.7311475 44.0163934,41.3967213 L39.7622951,4.76557377 C39.4918033,2.43114754 41.1786885,0.3 43.5131148,0.0278688525 L43.5131148,0.0278688525 Z"
                                        id="Shape" fill-rule="nonzero" />
                                    <path d="M74.5,9.78688525 C76.7081967,10.5918033 77.8540984,13.057377 77.0491803,15.2655738 L66.9442623,42.9540984 C66.1393443,45.1622951 63.6737705,46.3081967 61.4655738,45.5032787 L61.4655738,45.5032787 C59.257377,44.6983607 58.1114754,42.2327869 58.9163934,40.0245902 L69.0213115,12.3360656 C69.8278689,10.1278689 72.2918033,8.98196721 74.5,9.78688525 L74.5,9.78688525 Z"
                                        id="Shape" fill-rule="nonzero" />
                                    <path d="M91.3622951,32.1590164 C93.1032787,33.7377049 93.2360656,36.452459 91.6590164,38.1934426 L79.9885246,51.0688525 C78.4098361,52.8098361 75.695082,52.942623 73.9540984,51.3655738 L73.9540984,51.3655738 C72.2131148,49.7868852 72.0803279,47.0721311 73.657377,45.3311475 L85.3278689,32.4557377 C86.904918,30.7147541 89.6213115,30.5819672 91.3622951,32.1590164 L91.3622951,32.1590164 Z"
                                        id="Shape" fill-rule="nonzero" />
                                </g>
                            </g>
                        </g>
                    </g>
                </svg>