<?xml version="1.0" encoding="UTF-8"?>
<svg width="25px" height="25px" viewBox="0 0 25 25" version="1.1" xmlns="http://www.w3.org/2000/svg" xmlns:xlink="http://www.w3.org/1999/xlink">
    <!-- Generator: Sketch 42 (36781) - http://www.bohemiancoding.com/sketch -->
    <title>ico_inform</title>
    <desc>Created with Sketch.</desc>
    <defs></defs>
    <g id="Page-1" stroke="none" stroke-width="1" fill="none" fill-rule="evenodd">
        <g id="specs--notifications" transform="translate(-521.000000, -648.000000)" fill="#999999">
            <path d="M534.732394,656.744131 L534.732394,654.220657 L532.267606,654.220657 L532.267606,656.744131 L534.732394,656.744131 Z M534.732394,666.779343 L534.732394,659.267606 L532.267606,659.267606 L532.267606,666.779343 L534.732394,666.779343 Z M533.5,648 C536.942897,648 539.88692,649.222601 542.33216,651.66784 C544.777399,654.11308 546,657.057103 546,660.5 C546,663.942897 544.777399,666.88692 542.33216,669.33216 C539.88692,671.777399 536.942897,673 533.5,673 C530.057103,673 527.11308,671.777399 524.66784,669.33216 C522.222601,666.88692 521,663.942897 521,660.5 C521,657.057103 522.222601,654.11308 524.66784,651.66784 C527.11308,649.222601 530.057103,648 533.5,648 Z" id="ico_inform"></path>
        </g>
    </g>
</svg>