<?xml version="1.0" encoding="UTF-8"?>
<svg width="26px" height="26px" viewBox="0 0 26 26" version="1.1" xmlns="http://www.w3.org/2000/svg" xmlns:xlink="http://www.w3.org/1999/xlink">
    <!-- Generator: Sketch 42 (36781) - http://www.bohemiancoding.com/sketch -->
    <title>ico_warning</title>
    <desc>Created with Sketch.</desc>
    <defs></defs>
    <g id="Page-1" stroke="none" stroke-width="1" fill="none" fill-rule="evenodd">
        <g id="specs--notifications" transform="translate(-984.000000, -645.000000)" fill="#F6A623">
            <path d="M984.422441,669.208611 L996.23506,646.128289 C996.595281,645.423566 997.601279,645.423566 997.962809,646.128289 L1009.77543,669.208611 C1010.01645,669.680173 1009.71517,670.269625 1009.23182,670.269625 L984.966046,670.269625 C984.482696,670.269625 984.18142,669.680173 984.422441,669.208611 Z M998.348442,662.675125 C998.576363,662.675125 998.761058,662.49043 998.761058,662.262508 L998.761058,655.178605 C998.761058,654.950683 998.576363,654.765988 998.348442,654.765988 L995.849165,654.765988 C995.621244,654.765988 995.436549,654.950683 995.436549,655.178605 L995.436549,662.262508 C995.436549,662.49043 995.621244,662.675125 995.849165,662.675125 L998.348442,662.675125 Z M995.325339,666.195332 C995.325339,667.175133 996.119134,667.968928 997.098935,667.968928 C998.078735,667.968928 998.87253,667.175133 998.87253,666.195332 C998.87253,665.215532 998.078735,664.421737 997.098935,664.421737 C996.119134,664.421737 995.325339,665.215532 995.325339,666.195332 Z" id="ico_warning"></path>
        </g>
    </g>
</svg>