<?xml version="1.0" encoding="UTF-8"?>
<svg width="26px" height="26px" viewBox="0 0 26 26" version="1.1" xmlns="http://www.w3.org/2000/svg" xmlns:xlink="http://www.w3.org/1999/xlink">
    <!-- Generator: Sketch 42 (36781) - http://www.bohemiancoding.com/sketch -->
    <title>ico_error</title>
    <desc>Created with Sketch.</desc>
    <defs></defs>
    <g id="Page-1" stroke="none" stroke-width="1" fill="none" fill-rule="evenodd">
        <g id="specs--notifications" transform="translate(-1493.000000, -645.000000)" fill="#FD334C">
            <path d="M1493.42244,669.208611 L1505.23506,646.128289 C1505.59528,645.423566 1506.60128,645.423566 1506.96281,646.128289 L1518.77543,669.208611 C1519.01645,669.680173 1518.71517,670.269625 1518.23182,670.269625 L1493.96605,670.269625 C1493.4827,670.269625 1493.18142,669.680173 1493.42244,669.208611 Z M1507.34844,662.675125 C1507.57636,662.675125 1507.76106,662.49043 1507.76106,662.262508 L1507.76106,655.178605 C1507.76106,654.950683 1507.57636,654.765988 1507.34844,654.765988 L1504.84917,654.765988 C1504.62124,654.765988 1504.43655,654.950683 1504.43655,655.178605 L1504.43655,662.262508 C1504.43655,662.49043 1504.62124,662.675125 1504.84917,662.675125 L1507.34844,662.675125 Z M1504.32534,666.195332 C1504.32534,667.175133 1505.11913,667.968928 1506.09893,667.968928 C1507.07873,667.968928 1507.87253,667.175133 1507.87253,666.195332 C1507.87253,665.215532 1507.07873,664.421737 1506.09893,664.421737 C1505.11913,664.421737 1504.32534,665.215532 1504.32534,666.195332 Z" id="ico_error"></path>
        </g>
    </g>
</svg>