<?xml version="1.0" encoding="UTF-8" standalone="no"?>
<svg width="42px" height="34px" viewBox="0 0 42 34" version="1.1" xmlns="http://www.w3.org/2000/svg" xmlns:xlink="http://www.w3.org/1999/xlink">
    <!-- Generator: Sketch 43.2 (39069) - http://www.bohemiancoding.com/sketch -->
    <title>tick_in_box copy</title>
    <desc>Created with Sketch.</desc>
    <defs></defs>
    <g id="Mobile" stroke="none" stroke-width="1" fill="none" fill-rule="evenodd">
        <g id="Bill-smoothing" transform="translate(-139.000000, -305.000000)">
            <g id="icon/exp/smooth_graph" transform="translate(139.000000, 305.000000)">
                <g id="iconExp_smooth">
                    <path d="M2.1,19.5757576 L12.6,19.5757576 L12.6,33.0085634 C12.6,33.5561187 12.1488281,34 11.5932159,34 L3.10678414,34 C2.55075261,34 2.1,33.552494 2.1,33.0085634 L2.1,19.5757576 Z" id="Rectangle-2" fill="#001CB0"></path>
                    <path d="M15.75,19.5757576 L26.25,19.5757576 L26.25,33.0085634 C26.25,33.5561187 25.7988281,34 25.2432159,34 L16.7567841,34 C16.2007526,34 15.75,33.552494 15.75,33.0085634 L15.75,19.5757576 Z" id="Rectangle-2" fill="#001CB0"></path>
                    <path d="M29.4,19.5757576 L39.9,19.5757576 L39.9,33.0085634 C39.9,33.5561187 39.4488281,34 38.8932159,34 L30.4067841,34 C29.8507526,34 29.4,33.552494 29.4,33.0085634 L29.4,19.5757576 Z" id="Rectangle-2" fill="#001CB0"></path>
                    <path d="M17.85,12.3636364 L15.75,12.3636364 L15.75,1.03026203 C15.75,0.46126402 16.2284476,0 16.7951674,0 L25.2048326,0 C25.7820626,0 26.25,0.468487992 26.25,1.03026203 L26.25,12.3636364 L24.15,12.3636364 L24.15,2.06060606 L17.85,2.06060606 L17.85,12.3636364 Z M39.9,12.3636364 L39.9,8.23989448 C39.9,7.6719572 39.4320626,7.21212121 38.8548326,7.21212121 L30.4451674,7.21212121 C29.8784476,7.21212121 29.4,7.67227098 29.4,8.23989448 L29.4,12.3636364 L31.5,12.3636364 L31.5,9.27272727 L37.8,9.27272727 L37.8,12.3636364 L39.9,12.3636364 Z" id="Combined-Shape" fill="#001CB0" fill-rule="nonzero"></path>
                    <rect id="Rectangle-3" fill="#50E3C2" x="0" y="14.4242424" width="42" height="3.09090909" rx="1.54545455"></rect>
                </g>
            </g>
        </g>
    </g>
</svg>