<?xml version="1.0" encoding="UTF-8"?>
<svg width="49px" height="47px" viewBox="0 0 49 47" version="1.1" xmlns="http://www.w3.org/2000/svg" xmlns:xlink="http://www.w3.org/1999/xlink">
    <!-- Generator: Sketch 47 (45396) - http://www.bohemiancoding.com/sketch -->
    <title>noun_658643_cc</title>
    <desc>Created with Sketch.</desc>
    <defs></defs>
    <g id="UI-phase1" stroke="none" stroke-width="1" fill="none" fill-rule="evenodd">
        <g id="rewards-homepage-birthday-offer-credit" transform="translate(-98.000000, -113.000000)">
            <g id="noun_658643_cc" transform="translate(98.000000, 113.000000)">
                <path d="M1.43701172,28.7287598 L47.4934082,28.9056396 C47.7673367,29.8540928 47.9362006,31.0898919 48,32.6130371 C48.0637994,34.1361823 48.0637994,36.7663093 48,40.503418 L1,41 C0.959631025,37.375988 0.959631025,34.9972038 1,33.8636475 C1.04036898,32.7300911 1.18603955,31.0184619 1.43701172,28.7287598 Z" id="Rectangle-2" fill="#FFFFFF"></path>
                <path d="M47.9204078,28.0602013 C47.6707188,25.2981463 45.6539298,23.5911963 42.8651247,23.5488448 C42.3639108,23.5405586 41.863615,23.5488448 41.2348027,23.5488448 L41.2348027,23.3647078 C41.2348027,23.3508975 41.2348027,23.3361665 41.2348027,23.3223563 L41.2348027,12.1120957 C41.2348027,12.0973648 41.2348027,12.0835545 41.2348027,12.0697442 L41.2348027,11.8156351 L41.2008377,11.8156351 C41.0647905,11.2481796 40.5590893,10.847903 39.9771783,10.8470745 L35.8756702,10.8470745 C35.2937592,10.847903 34.788058,11.2481796 34.6520108,11.8156351 L34.6162098,11.8156351 L34.6162098,12.0918406 C34.6162098,12.0982854 34.6162098,12.1038096 34.6162098,12.1102543 L34.6162098,23.3149908 C34.6162098,23.3214356 34.6162098,23.3269597 34.6162098,23.3334045 L34.6162098,23.4337591 L27.781893,23.4337591 L27.781893,11.8147145 L27.7176348,11.8147145 C27.5815876,11.2472589 27.0758864,10.8469823 26.4939754,10.8461538 L22.3933853,10.8461538 C22.0588687,10.8463979 21.7381497,10.9799107 21.5017829,11.2173209 C21.2654161,11.4547311 21.1327634,11.7765912 21.1330069,12.1120957 L21.1330069,23.3168321 C21.1330069,23.358263 21.1330069,23.3996938 21.1394327,23.4411246 L14.44373,23.4411246 L14.44373,11.8331282 L14.4116009,11.8331282 C14.2820905,11.2570496 13.7721535,10.8476659 13.1833516,10.8470745 L9.08276154,10.8470745 C8.49395965,10.8476659 7.98402271,11.2570496 7.85451225,11.8331282 L7.77464851,11.8331282 L7.77464851,23.5681791 C6.98151893,23.5681791 6.31231584,23.5359552 5.64770263,23.5746239 C3.71169535,23.6878682 1.71234787,25.1130886 1.4103344,27.0004928 C1.070684,29.1180683 1.1202546,31.3019331 1,33.4609394 L1.42410401,33.7435897 C2.21447967,33.289692 3.00026546,32.8229047 3.79798491,32.3855794 C5.06111721,31.6867795 6.26182727,30.7283464 7.61675697,30.3748033 C9.89149668,29.7754374 12.001001,30.4908096 13.7442338,32.1241048 C14.8044938,33.1101585 15.9758287,33.8798511 17.4721264,33.4195086 C18.2312909,33.1856546 18.9638342,32.7142639 19.5834667,32.1986803 C22.7963759,29.5342179 26.2800874,29.4826596 29.3837577,32.1185807 C31.6786928,34.0639881 33.0556539,33.9746817 35.4488123,32.097405 C36.4963376,31.2737389 37.7043469,30.6793983 38.994946,30.3527069 C41.1494311,29.8362026 43.1258293,30.4963338 44.8259172,31.9758745 C45.6961566,32.7317569 46.5296771,33.6708556 47.947029,33.4416051 C47.9507009,31.6260142 48.0801352,29.8288371 47.9204078,28.0602013 Z" id="Shape" fill="#00DFED" fill-rule="nonzero"></path>
                <path d="M39.4541262,33.868717 C38.6239819,34.1058096 37.8519478,34.7031006 37.1583162,35.2657396 C34.7822589,37.1953087 32.1940536,37.6886437 29.3835541,36.4119912 C28.5349622,36.0262598 27.8035129,35.3696956 27.0591502,34.7851711 C25.298322,33.4027389 23.7173585,33.3917961 21.9998822,34.7933782 C21.6927289,35.0441492 21.3911098,35.3013035 21.0774998,35.5420437 C19.2714748,36.9171808 17.2283976,37.564626 15.0405063,36.8478768 C13.7648513,36.4293172 12.5712884,35.6396164 11.4745756,34.8417086 C9.67869689,33.5285803 7.99442645,33.3170208 6.49371014,34.6420037 C4.90721225,36.0399382 3.19342557,37.0603483 1,37.1424188 L1,47 L48,47 L48,37.1433307 C45.9449318,37.0229606 44.2459032,36.2460264 42.834658,34.8635941 C41.8781474,33.9316377 40.7030321,33.5149019 39.4541262,33.868717 Z" id="Shape" fill="#00DFED" fill-rule="nonzero"></path>
                <path d="M13.4337909,9.41595647 C15.7559361,7.23431425 14.484307,1.10831586 11.4079923,0 C11.051092,2.3140349 11.051092,2.3140349 8.94180255,4.46447027 C7.68210073,5.75057059 7.68668814,7.83764661 8.95189484,9.18710627 C10.1849897,10.5015764 12.1695017,10.6027623 13.4337909,9.41595647 Z" id="Shape" fill="#00DFED" fill-rule="nonzero"></path>
                <path d="M38.4649106,10.2033852 C39.3110644,10.0539197 40.3204311,9.5714678 40.822835,8.89225117 C42.6364125,6.43931422 41.1930273,1.24207721 38.4266148,0 C38.1129543,2.26184814 38.0618933,2.35171664 36.0504543,4.40544826 C34.9991446,5.47914029 34.7210445,6.8650071 35.2881864,8.20262871 C35.8553283,9.54025032 37.0734981,10.4493411 38.4649106,10.2033852 Z" id="Shape" fill="#00DFED" fill-rule="nonzero"></path>
                <path d="M24.3017043,10.2433574 C25.7340752,10.2581706 26.9284892,9.5647257 27.3136645,8.16024512 C27.6006943,7.11128236 27.7192098,5.92529711 27.5506955,4.86059529 C27.2497773,2.93672538 26.3914658,1.24431239 24.4026276,0 C24.4155902,2.15162351 23.3711724,3.40612001 22.0508357,4.5365556 C21.0323431,5.41238858 20.7406839,6.91130358 21.2351157,8.14728353 C21.7214474,9.41603005 22.9428669,10.2508944 24.3017043,10.2433574 Z" id="Shape" fill="#00DFED" fill-rule="nonzero"></path>
            </g>
        </g>
    </g>
</svg>