<?xml version="1.0" encoding="UTF-8" standalone="no"?>
<svg width="28px" height="28px" viewBox="0 0 28 28" version="1.1" xmlns="http://www.w3.org/2000/svg" xmlns:xlink="http://www.w3.org/1999/xlink">
    <!-- Generator: Sketch 42 (36781) - http://www.bohemiancoding.com/sketch -->
    <title>Button_Load</title>
    <desc>Created with Sketch.</desc>
    <defs></defs>
    <g id="HiFi" stroke="none" stroke-width="1" fill="none" fill-rule="evenodd">
        <g id="sending-reciept" transform="translate(-174.000000, -671.000000)" fill-rule="nonzero" fill="#666666">
            <g id="Button_Load" transform="translate(174.000000, 671.000000)">
                <path d="M14.0001304,0 C6.27879336,0 0,6.27879336 0,14.0001304 C0,21.7223225 6.27860492,28.0013043 14.0001304,28.0013043 C21.7216559,28.0013043 28.0002609,21.7223225 28.0002609,14.0001304 C28.0002609,12.8955609 27.1048304,12.0001304 26.0002609,12.0001304 C24.8956914,12.0001304 24.0002609,12.8955609 24.0002609,14.0001304 C24.0002609,19.5132373 19.5124632,24.0013043 14.0001304,24.0013043 C8.48779767,24.0013043 4,19.5132373 4,14.0001304 C4,8.48793236 8.48793236,4 14.0001304,4 C15.1046999,4 16.0001304,3.1045695 16.0001304,2 C16.0001304,0.8954305 15.1046999,0 14.0001304,0 Z" id="Page-1">
                 <animateTransform
            attributeType="xml"
            attributeName="transform"
            type="rotate"
            from="0 14 14" to="360 14 14" dur="0.8s"
            repeatCount="indefinite"
        />
                </path>
            </g>
        </g>
    </g>
</svg>