<?xml version="1.0" encoding="UTF-8"?>
<svg width="46px" height="32px" viewBox="0 0 46 32" version="1.1" xmlns="http://www.w3.org/2000/svg" xmlns:xlink="http://www.w3.org/1999/xlink">
    <!-- Generator: Sketch 45.2 (43514) - http://www.bohemiancoding.com/sketch -->
    <title>icon/camera_idle</title>
    <desc>Created with Sketch.</desc>
    <defs></defs>
    <g id="Symbols" stroke="none" stroke-width="1" fill="none" fill-rule="evenodd">
        <g id="input/photo_idle" transform="translate(-97.000000, -19.000000)" fill="#001CB0">
            <g id="icon/camera_idle">
                <g transform="translate(97.000000, 19.000000)">
                    <path d="M22.3428571,17.352381 L22.3428571,13.3333333 L24.9714286,13.3333333 L24.9714286,17.352381 L28.9904762,17.352381 L28.9904762,19.9809524 L24.9714286,19.9809524 L24.9714286,24 L22.3428571,24 L22.3428571,19.9809524 L18.3238095,19.9809524 L18.3238095,17.352381 L22.3428571,17.352381 Z M16.5653461,5.33333333 L18.2495185,-2.13162821e-14 L29.0647672,-2.48689958e-14 L30.7489396,5.33333333 L46,5.33333333 L46,32 L0,32 L0,5.33333333 L16.5653461,5.33333333 Z M23.6571429,28 C28.7381626,28 32.8571429,23.8213243 32.8571429,18.6666667 C32.8571429,13.512009 28.7381626,9.33333333 23.6571429,9.33333333 C18.5761232,9.33333333 14.4571429,13.512009 14.4571429,18.6666667 C14.4571429,23.8213243 18.5761232,28 23.6571429,28 Z M36.8,8 L36.8,12 L42.0571429,12 L42.0571429,8 L36.8,8 Z" id="Combined-Shape"></path>
                </g>
            </g>
        </g>
    </g>
</svg>