<?xml version="1.0" encoding="UTF-8"?>
<svg width="44px" height="30px" viewBox="0 0 44 30" version="1.1" xmlns="http://www.w3.org/2000/svg" xmlns:xlink="http://www.w3.org/1999/xlink">
    <!-- Generator: Sketch 43.2 (39069) - http://www.bohemiancoding.com/sketch -->
    <title>Chat _Icon</title>
    <desc>Created with Sketch.</desc>
    <defs></defs>
    <g id="Page-1" stroke="none" stroke-width="1" fill="none" fill-rule="evenodd">
        <g id="Chat-_Icon">
            <g id="Chat_Icon" transform="translate(4.000000, 4.000000)">
                <g id="Aqua-BG" transform="translate(12.500000, 9.000000) scale(-1, 1) translate(-12.500000, -9.000000) ">
                    <path d="M0.925925926,0 C0.379491136,0 0,0.474519231 0,1.06088942 L0,12.938734 C0,13.5247276 0.379491136,14 0.925925926,14 L17.5288956,14 L17.5925926,18 L21.2962963,14 L23.9450182,14 C24.491453,14 25,13.5247276 25,12.938734 L24.9983381,1.06088942 C24.9983381,0.474519231 24.55515,0 24.0087152,0 L0.925925926,0 Z" id="Fill-5" fill="#00DFED"></path>
                    <polygon id="Path" fill="#001CB0" points="7 10 22 10 22 8 7 8"></polygon>
                    <polygon id="Path" fill="#001CB0" points="3 6 22 6 22 4 3 4"></polygon>
                </g>
                <g id="White-BG" transform="translate(11.000000, 6.000000)">
                    <path d="M0.925925926,0 C0.379491136,0 0,0.474519231 0,1.06088942 L0,12.938734 C0,13.5247276 0.379491136,14 0.925925926,14 L17.5288956,14 L17.5925926,18 L21.2962963,14 L23.9450182,14 C24.491453,14 25,13.5247276 25,12.938734 L24.9983381,1.06088942 C24.9983381,0.474519231 24.55515,0 24.0087152,0 L0.925925926,0 Z" id="Fill-5" fill="#FFFFFF"></path>
                    <polygon id="Path" fill="#001CB0" points="3 10 17.8148148 10 17.8148148 8 3 8"></polygon>
                    <polygon id="Path" fill="#001CB0" points="3 6 22.4444444 6 22.4444444 4 3 4"></polygon>
                </g>
            </g>
        </g>
    </g>
</svg>