<?xml version="1.0" encoding="UTF-8" standalone="no"?>
<svg width="18px" height="18px" viewBox="0 0 18 18" version="1.1" xmlns="http://www.w3.org/2000/svg" xmlns:xlink="http://www.w3.org/1999/xlink">
    <!-- Generator: Sketch 41.2 (35397) - http://www.bohemiancoding.com/sketch -->
    <title>contract icon</title>
    <desc>Created with Sketch.</desc>
    <defs></defs>
    <g id="Version-04" stroke="none" stroke-width="1" fill="none" fill-rule="evenodd">
        <g id="frequency-message" transform="translate(-129.000000, -69.000000)" fill="#001CB0">
            <g id="Group-13-Copy" transform="translate(129.000000, 69.000000)">
                <g id="address-dropwdown-text">
                    <path d="M12.0796922,12.3239821 C12.0796922,12.3947368 12.0230884,12.4513406 11.9523337,12.4513406 L6.04766634,12.4513406 C5.97765641,12.4513406 5.92030785,12.3947368 5.92030785,12.3239821 L5.92030785,8.84433962 C5.92030785,8.80412115 5.93892751,8.76613704 5.97095333,8.74230387 L8.92328699,6.51464747 C8.96871897,6.48038729 9.03128103,6.48038729 9.07671301,6.51464747 L12.0290467,8.74230387 C12.0610725,8.76613704 12.0796922,8.80412115 12.0796922,8.84433962 L12.0796922,12.3239821 Z M9.22418073,0.0752234359 C9.15789474,0.0253227408 9.07894737,7.46069873e-14 9,7.46069873e-14 C8.92105263,7.46069873e-14 8.84210526,0.0253227408 8.77581927,0.0752234359 L0.148212512,6.58614697 C0.0543694141,6.65690169 0,6.76713009 0,6.88331678 L0,17.0533764 C0,17.2589374 0.166832175,17.4257696 0.372393247,17.4257696 L17.6276068,17.4257696 C17.8331678,17.4257696 18,17.2589374 18,17.0533764 L18,6.88331678 C18,6.76713009 17.9456306,6.65690169 17.8517875,6.58614697 L9.22418073,0.0752234359 Z" id="contract-icon"></path>
                </g>
            </g>
        </g>
    </g>
</svg>