<?xml version="1.0" encoding="UTF-8"?>
<svg width="24px" height="19px" viewBox="0 0 24 19" version="1.1" xmlns="http://www.w3.org/2000/svg" xmlns:xlink="http://www.w3.org/1999/xlink">
    <!-- Generator: Sketch 42 (36781) - http://www.bohemiancoding.com/sketch -->
    <title>Fill 1</title>
    <desc>Created with Sketch.</desc>
    <defs></defs>
    <g id="Page-1" stroke="none" stroke-width="1" fill="none" fill-rule="evenodd">
        <g id="OMM-Calendar" transform="translate(-1068.000000, -827.000000)" fill="#FFE344">
            <g id="Group" transform="translate(116.000000, 366.000000)">
                <g id="Group-15" transform="translate(939.000000, 445.000000)">
                    <g id="Group-10">
                        <path d="M34.1731097,16.1408153 C34.0854139,16.0547013 33.9599755,16.0037912 33.8206612,16 C33.6891174,16.0016248 33.5614589,16.0552429 33.4715429,16.1467728 L21.5010594,28.2335957 L16.523375,23.5437544 C16.4273536,23.4505997 16.3013602,23.4040224 16.1759219,23.4040224 C16.0499284,23.4040224 15.923935,23.4505997 15.8284687,23.544296 L13.1443096,26.1623765 C13.0510634,26.2533648 13,26.374141 13,26.5019579 C13,26.6297748 13.0510634,26.7500094 13.1443096,26.8415393 L21.0609151,34.396971 L21.1963441,34.5096232 C21.2857051,34.5827388 21.3989326,34.6239002 21.5149353,34.6239002 C21.6464791,34.6239002 21.7691423,34.5740732 21.8607234,34.4847097 L22.4124302,33.9517781 L36.8622641,19.4326425 C37.0482015,19.2452499 37.0454263,18.9430387 36.8567137,18.7594373 L34.1731097,16.1408153 Z" id="Fill-1"></path>
                    </g>
                </g>
            </g>
        </g>
    </g>
</svg>