<?xml version="1.0" encoding="UTF-8" standalone="no"?>
<svg width="18px" height="18px" viewBox="0 0 18 18" version="1.1" xmlns="http://www.w3.org/2000/svg" xmlns:xlink="http://www.w3.org/1999/xlink">
    <!-- Generator: Sketch 41.2 (35397) - http://www.bohemiancoding.com/sketch -->
    <title>ebilling s icon</title>
    <desc>Created with Sketch.</desc>
    <defs></defs>
    <g id="Version-02" stroke="none" stroke-width="1" fill="none" fill-rule="evenodd">
        <g id="T&amp;C-approved" transform="translate(-756.000000, -1070.000000)" stroke="#333333">
            <g id="Quicklink-block" transform="translate(742.000000, 946.000000)">
                <g id="ebilling-s-icon" transform="translate(15.000000, 125.000000)">
                    <g id="Group-8">
                        <path d="M8,16 C8.43783161,16 8.8674483,15.9648278 9.28617872,15.8971546 C13.0929711,15.2819198 16,11.9804464 16,8 C16,3.581722 12.418278,0 8,0 C3.581722,0 0,3.581722 0,8" id="Oval" transform="translate(8.000000, 8.000000) scale(-1, 1) translate(-8.000000, -8.000000) "></path>
                        <path d="M8,16 C8.43783161,16 8.8674483,15.9648278 9.28617872,15.8971546 C10.7147265,15.6662798 12.0165676,15.057123 13.0856274,14.1757587" id="Oval-Copy-3" stroke-linecap="round"></path>
                    </g>
                    <g id="Group-7" transform="translate(4.444444, 4.444444)" stroke-width="1.5">
                        <ellipse id="Oval-Copy" cx="3.55555556" cy="3.55555556" rx="3.55555556" ry="3.55555556"></ellipse>
                        <path d="M7.77777778,0.444444444 L7.77777778,4.89444098" id="Line" stroke-linecap="round"></path>
                    </g>
                    <path d="M12.4136285,8.9765625 C12.0678663,9.99421996 13.187698,11.2845536 14.1697708,10.9127604 C15.1518436,10.5409672 15.9900174,9.22005208 15.9900174,7.62261285" id="Line" stroke-linecap="round"></path>
                </g>
            </g>
        </g>
    </g>
</svg>