<?xml version="1.0" encoding="UTF-8" standalone="no"?>
<svg width="8px" height="12px" viewBox="0 0 8 12" version="1.1" xmlns="http://www.w3.org/2000/svg" xmlns:xlink="http://www.w3.org/1999/xlink">
    <!-- Generator: Sketch 41.2 (35397) - http://www.bohemiancoding.com/sketch -->
    <title>elec contract selected</title>
    <desc>Created with Sketch.</desc>
    <defs></defs>
    <g id="Version-05" stroke="none" stroke-width="1" fill="none" fill-rule="evenodd">
        <g id="Components" transform="translate(-879.000000, -550.000000)" fill="#FFFFFF">
            <path d="M886.824465,553.395899 L883.842545,553.395899 L886.952987,550.275639 C887.000561,550.227875 887.013343,550.158219 886.985295,550.098182 C886.957602,550.038477 886.894407,550 886.824465,550 L886.82411,550 L881.762052,550.010614 C881.689626,550.010946 881.62501,550.052076 881.598737,550.115098 L879.258361,555.715778 C879.237059,555.766528 879.244515,555.823579 879.277533,555.86869 C879.310906,555.913469 879.377652,555.937683 879.424161,555.939341 L881.492582,555.917781 L879.014808,561.198375 C878.98037,561.271679 879.007708,561.357589 879.079069,561.401372 C879.108537,561.419616 879.142265,561.428571 879.175638,561.428571 C879.222858,561.428571 879.269722,561.410328 879.30416,561.375832 L886.952987,553.671207 C887.000561,553.623774 887.013343,553.554118 886.985295,553.494081 C886.957602,553.434376 886.894407,553.395899 886.824465,553.395899" id="elec-contract-selected"></path>
        </g>
    </g>
</svg>