<?xml version="1.0" encoding="UTF-8" standalone="no"?>
<svg width="8px" height="12px" viewBox="0 0 8 12" version="1.1" xmlns="http://www.w3.org/2000/svg" xmlns:xlink="http://www.w3.org/1999/xlink">
    <!-- Generator: Sketch 41.2 (35397) - http://www.bohemiancoding.com/sketch -->
    <title>elec contract dis</title>
    <desc>Created with Sketch.</desc>
    <defs></defs>
    <g id="Version-05" stroke="none" stroke-width="1" fill="none" fill-rule="evenodd">
        <g id="Components" transform="translate(-827.000000, -550.000000)" fill="#CCCCCC">
            <g id="elec-contract-dis" transform="translate(827.000000, 550.000000)">
                <path d="M7.82446513,3.39589941 L4.84254452,3.39589941 L7.95298701,0.275639032 C8.00056141,0.227874868 8.01334259,0.158218795 7.985295,0.0981818936 C7.95760244,0.038476688 7.8944066,0 7.82446513,0 L7.8241101,0 L2.76205222,0.0106142588 C2.68962552,0.0109459544 2.62500955,0.0520762071 2.59873712,0.115098368 L0.2583608,5.71577834 C0.237058831,5.76652777 0.24451452,5.82357941 0.277532572,5.86869001 C0.310905656,5.91346891 0.377651826,5.93768269 0.424161125,5.93934117 L2.49258231,5.91778096 L0.0148082881,11.1983747 C-0.019629895,11.2716794 0.00770763177,11.3575886 0.0790692277,11.4013724 C0.108536951,11.4196156 0.142265069,11.4285714 0.175638154,11.4285714 C0.222857518,11.4285714 0.26972185,11.4103282 0.304160033,11.3758318 L7.95298701,3.67120675 C8.00056141,3.62377428 8.01334259,3.55411821 7.985295,3.49408131 C7.95760244,3.4343761 7.8944066,3.39589941 7.82446513,3.39589941" id="Fill-3-Copy-3"></path>
            </g>
        </g>
    </g>
</svg>