<?xml version="1.0" encoding="UTF-8" standalone="no"?>
<svg width="40px" height="59px" viewBox="0 0 40 59" version="1.1" xmlns="http://www.w3.org/2000/svg" xmlns:xlink="http://www.w3.org/1999/xlink">
    <!-- Generator: Sketch 42 (36781) - http://www.bohemiancoding.com/sketch -->
    <title>Fill 3</title>
    <desc>Created with Sketch.</desc>
    <defs></defs>
    <g id="Symbols" stroke="none" stroke-width="1" fill="none" fill-rule="evenodd">
        <g id="lightingbolt_grey" fill="#CCCCCC">
            <path d="M23.6755511,17.4329383 L38.8827299,1.41500017 C39.1153246,1.16980158 39.1778127,0.812220312 39.040686,0.504019313 C38.9052951,0.197521082 38.596326,-7.10542736e-15 38.2543771,-7.10542736e-15 L13.5038735,0.0544885744 C13.1497741,0.0561913423 12.8338619,0.267334568 12.7054141,0.590860479 L1.26314467,29.3420973 C1.1589978,29.6026208 1.19544921,29.8954969 1.35687686,30.1270733 C1.52004029,30.356947 1.84636715,30.4812491 2.07375448,30.4897629 L12.1864156,30.379083 L0.0723987937,57.4871488 C-0.0959719795,57.8634605 0.0376831703,58.3044774 0.386575185,58.5292427 C0.530645022,58.622895 0.695544233,58.6688697 0.858707662,58.6688697 C1.08956656,58.6688697 1.31868967,58.5752175 1.48706044,58.3981296 L38.8827299,18.8462357 C39.1153246,18.6027399 39.1778127,18.2451586 39.040686,17.9369576 C38.9052951,17.6304594 38.596326,17.4329383 38.2543771,17.4329383 L23.6755511,17.4329383 Z" id="Fill-3"></path>
        </g>
    </g>
</svg>