<?xml version="1.0" encoding="UTF-8" standalone="no"?>
<svg width="186px" height="191px" viewBox="0 0 186 191" version="1.1" xmlns="http://www.w3.org/2000/svg" xmlns:xlink="http://www.w3.org/1999/xlink">
    <!-- Generator: sketchtool 39.1 (31720) - http://www.bohemiancoding.com/sketch -->
    <title>A2A94E1D-FCDD-48AB-A4CF-31CE8FF0CD04</title>
    <desc>Created with sketchtool.</desc>
    <defs></defs>
    <g id="Review" stroke="none" stroke-width="1" fill="none" fill-rule="evenodd">
        <g id="MA2--dashboard--energy-saving-tips--lg" transform="translate(-509.000000, -361.000000)">
            <g id="Group-7" transform="translate(420.000000, 342.000000)">
                <g id="Page-1" transform="translate(89.000000, 19.000000)">
                    <polyline id="Fill-1" fill="#4EB2EC" points="30.6437483 17.8116876 5.19073688 10.2473931 5.19073688 92.6100658 5.19073688 174.908146 17.3300677 174.908146 30.6437483 174.908146"></polyline>
                    <polygon id="Fill-2" fill="#00408C" points="0 180.117167 30.6438175 180.117167 30.6438175 169.69968 10.3802281 169.69968 10.3802281 17.2219491 29.1705171 22.8067891 32.1171179 12.8171418 0 3.27269818"></polygon>
                    <polygon id="Fill-3" fill="#ACDAF6" points="137.634559 114.871359 91.7124297 106.509726 91.7124297 170.996883 137.634559 170.996883"></polygon>
                    <polygon id="Fill-4" fill="#ACDAF6" points="82.6252319 29.7348105 36.7031027 13.0122396 36.7031027 87.2237269 82.6252319 95.5853596"></polygon>
                    <polygon id="Fill-5" fill="#ACDAF6" points="137.634559 49.76696 91.7124297 33.0443891 91.7124297 97.2398364 137.634559 105.601469"></polygon>
                    <polygon id="Fill-6" fill="#ACDAF6" points="82.6252319 104.855319 36.7031027 96.4936862 36.7031027 170.996883 82.6252319 170.996883"></polygon>
                    <polygon id="Fill-7" fill="#AADAF6" points="27.6155589 0.000347272727 27.6155589 180.117515 146.721757 180.117515 146.721757 43.3733218"></polygon>
                    <path d="M27.6155589,0.000347272727 L27.6155589,180.117515 L146.721757,180.117515 L146.721757,43.3733218 L27.6155589,0.000347272727 Z M36.7037947,87.2241436 L36.7037947,13.0119618 L82.6252319,29.7345327 L82.6252319,95.5857764 L36.7037947,87.2241436 Z M91.7120837,97.2401836 L91.7120837,33.0440418 L137.634213,49.7673073 L137.634213,105.601122 L91.7120837,97.2401836 Z M36.7037947,96.4935473 L82.6252319,104.855875 L82.6252319,170.996744 L36.7037947,170.996744 L36.7037947,96.4935473 Z M91.7120837,106.510282 L137.634213,114.87122 L137.634213,170.996744 L91.7120837,170.996744 L91.7120837,106.510282 Z" id="Fill-8" fill="#00408C"></path>
                    <polyline id="Stroke-9" stroke="#EB8B23" stroke-width="7.296" stroke-linecap="round" stroke-linejoin="round" points="181.828034 26.1867251 117.152293 91.0989433 175.035213 149.193503"></polyline>
                    <polygon id="Fill-11" fill="#EB8B23" points="181.829972 140.261927 166.136451 156.012828 181.827896 156.010745"></polygon>
                    <polyline id="Stroke-12" stroke="#EB8B23" stroke-width="7.296" stroke-linecap="round" stroke-linejoin="round" points="181.828034 60.7111211 117.152293 125.623339 175.035213 183.717899"></polyline>
                    <polygon id="Fill-14" fill="#EB8B23" points="166.136174 190.537433 181.828311 190.535349 181.829695 174.786531"></polygon>
                </g>
            </g>
        </g>
    </g>
</svg>