<?xml version="1.0" encoding="UTF-8" standalone="no"?>
<svg width="74px" height="74px" viewBox="0 0 74 74" version="1.1" xmlns="http://www.w3.org/2000/svg" xmlns:xlink="http://www.w3.org/1999/xlink">
    <!-- Generator: Sketch 43.2 (39069) - http://www.bohemiancoding.com/sketch -->
    <title>Error icon</title>
    <desc>Created with Sketch.</desc>
    <defs></defs>
    <g id="Mobile" stroke="none" stroke-width="1" fill="none" fill-rule="evenodd">
        <g id="Invalid-reads-(multiple)" transform="translate(-123.000000, -90.000000)">
            <g id="Error-icon" transform="translate(123.000000, 90.000000)">
                <g>
                    <circle id="Oval" fill="#FC334C" cx="37" cy="37" r="37"></circle>
                    <path d="M40.8468937,58.0299988 L33.2536084,58.0299988 C32.561139,58.0299988 32,57.071862 32,55.8894805 L32,19.1405183 C32,17.9581368 32.561139,17 33.2536084,17 L40.8468937,17 C41.5393631,17 42.1005021,17.9581368 42.1005021,19.1405183 L42.1005021,55.8894805 C42.1005021,57.071862 41.5393631,58.0299988 40.8468937,58.0299988" id="Fill-4-Copy" fill="#FFFFFF" transform="translate(37.050251, 37.514999) rotate(45.000000) translate(-37.050251, -37.514999) "></path>
                    <path d="M40.8468937,58.0299988 L33.2536084,58.0299988 C32.561139,58.0299988 32,57.071862 32,55.8894805 L32,19.1405183 C32,17.9581368 32.561139,17 33.2536084,17 L40.8468937,17 C41.5393631,17 42.1005021,17.9581368 42.1005021,19.1405183 L42.1005021,55.8894805 C42.1005021,57.071862 41.5393631,58.0299988 40.8468937,58.0299988" id="Fill-4-Copy-2" fill="#FFFFFF" transform="translate(37.050251, 37.514999) rotate(-45.000000) translate(-37.050251, -37.514999) "></path>
                </g>
            </g>
        </g>
    </g>
</svg>