<svg xmlns="http://www.w3.org/2000/svg" width="77" height="66" viewBox="0 0 77 66">
    <g fill="none" fill-rule="evenodd">
        <path fill="#00DEFE" d="M36.433 1.423c1.119-1.9 2.936-1.894 4.05 0l35.95 61.116c1.119 1.9.242 3.442-1.97 3.442H2.454c-2.206 0-3.084-1.548-1.97-3.442l35.95-61.116z"/>
        <circle cx="38" cy="56" r="4" fill="#001CB0"/>
        <path fill="#001CB0" d="M35.916 45.994A2.103 2.103 0 0 0 38 48c1.105 0 2.038-.902 2.084-2.006 0 0 .916-21.686.916-22.763C41 22.154 40.28 20 38 20c-2.28 0-3 2.154-3 3.23 0 1.078.916 22.764.916 22.764z"/>
    </g>
</svg>
