<?xml version="1.0" encoding="UTF-8"?>
<svg width="308px" height="388px" viewBox="0 0 308 388" version="1.1" xmlns="http://www.w3.org/2000/svg" xmlns:xlink="http://www.w3.org/1999/xlink">
    <!-- Generator: Sketch 47.1 (45422) - http://www.bohemiancoding.com/sketch -->
    <title>Group</title>
    <desc>Created with Sketch.</desc>
    <defs>
        <filter x="-1.4%" y="-1.5%" width="102.8%" height="104.3%" filterUnits="objectBoundingBox" id="filter-1">
            <feOffset dx="0" dy="3" in="SourceAlpha" result="shadowOffsetOuter1"></feOffset>
            <feGaussianBlur stdDeviation="3" in="shadowOffsetOuter1" result="shadowBlurOuter1"></feGaussianBlur>
            <feColorMatrix values="0 0 0 0 0   0 0 0 0 0   0 0 0 0 0  0 0 0 0.3 0" type="matrix" in="shadowBlurOuter1" result="shadowMatrixOuter1"></feColorMatrix>
            <feMerge>
                <feMergeNode in="shadowMatrixOuter1"></feMergeNode>
                <feMergeNode in="SourceGraphic"></feMergeNode>
            </feMerge>
        </filter>
        <rect id="path-2" x="0" y="0" width="375" height="458"></rect>
        <linearGradient x1="50%" y1="0%" x2="50%" y2="100.00055%" id="linearGradient-4">
            <stop stop-color="#00DFED" stop-opacity="0" offset="10%"></stop>
            <stop stop-color="#00DFED" offset="100%"></stop>
        </linearGradient>
    </defs>
    <g id="UI-phase1" stroke="none" stroke-width="1" fill="none" fill-rule="evenodd">
        <g id="feature-screen" transform="translate(-305.000000, -205.000000)">
            <g id="Group-31" filter="url(#filter-1)" transform="translate(230.000000, 148.000000)">
                <g id="Group" transform="translate(41.000000, 0.000000)">
                    <mask id="mask-3" fill="white">
                        <use xlink:href="#path-2"></use>
                    </mask>
                    <g id="Mask" fill-rule="nonzero"></g>
                    <g mask="url(#mask-3)">
                        <g transform="translate(39.000000, 18.000000)">
                            <g>
                                <path d="M296.14,311.34 L296.14,324.12 C296.14,326.46 293.36,329.12 288.14,331.34 L86.92,414.67 C78.34,418.22 66.45,419.07 60.39,416.56 L4.39,393.35 C2.01,392.35 0.87,391.01 0.9,389.5 L0.9,376.72 C0.9,374.39 3.74,371.72 8.9,369.57 L210.07,286.25 C218.65,282.69 230.54,281.85 236.61,284.36 L292.61,307.57 C295,308.54 296.12,309.87 296.14,311.34 Z" id="Shape" fill="#E3E3E3" fill-rule="nonzero"></path>
                                <g transform="translate(0.000000, 282.000000)" id="Shape" fill-rule="nonzero">
                                    <path d="M86.92,119.89 C78.33,123.45 66.45,124.29 60.38,121.78 L4.38,98.57 C-1.69,96.06 0.38,91.13 8.93,87.57 L210.1,4.24 C218.69,0.68 230.57,-0.16 236.64,2.35 L292.64,25.56 C298.71,28.07 296.64,33 288.09,36.56 L86.92,119.89 Z" fill="#FFFFFF"></path>
                                    <path d="M97.29,113.47 C96.8062956,113.675261 96.2680926,113.713956 95.76,113.58 L24.15,83.92 C23.8,83.77 23.92,83.49 24.41,83.28 L204.07,8.86 C204.553704,8.6547385 205.091907,8.61604416 205.6,8.75 L277.21,38.41 C277.56,38.56 277.44,38.84 276.95,39.05 L97.29,113.47 Z" fill="#00DFED"></path>
                                    <path d="M237.73,13.19 C238.798632,12.7363696 239.987992,12.651918 241.11,12.95 C241.88,13.27 241.62,13.9 240.53,14.35 C239.461368,14.8036304 238.272008,14.888082 237.15,14.59 C236.38,14.27 236.64,13.64 237.73,13.19" fill="#E3E3E3"></path>
                                    <path d="M40,102.43 C44.36,100.62 50.4,100.19 53.49,101.43 C56.58,102.67 55.49,105.21 51.18,107.02 C46.87,108.83 40.78,109.26 37.7,108.02 C34.62,106.78 35.7,104.24 40.01,102.43" fill="#E3E3E3"></path>
                                    <path d="M258.46,21.74 C257.982763,21.9429831 257.451616,21.981676 256.95,21.85 L245.49,17.1 C245.14,16.96 245.26,16.68 245.75,16.47 L245.75,16.47 C246.227237,16.2670169 246.758384,16.228324 247.26,16.36 L258.72,21.11 C259.07,21.25 258.95,21.53 258.46,21.74 Z" fill="#E3E3E3"></path>
                                </g>
                                <path d="M277.41,323.556427 C277.41,323.64612 217.37,347.619759 97.29,395.477345 C96.8062956,395.6746 96.2680926,395.711785 95.76,395.583054 L24.15,367.079922 C24.07,367.079922 24.0033333,244.719948 23.95,0 L277.41,0 C277.41,0 277.41,323.479548 277.41,323.556427 Z" id="Shape" fill="url(#linearGradient-4)" fill-rule="nonzero" opacity="0.5"></path>
                            </g>
                            <g transform="translate(135.000000, 334.000000)">
                                <polygon id="Shape" fill="#F9C165" fill-rule="nonzero" points="4.67 17.99 6.97 0.53 0.23 13.01"></polygon>
                                <polygon id="Shape" fill="#F6A623" fill-rule="nonzero" points="4.67 17.99 6.97 0.53 16.17 13.63"></polygon>
                            </g>
                            <g transform="translate(14.000000, 41.000000)">
                                <g id="Shape" fill-rule="nonzero">
                                    <polygon fill="#26E4F0" points="228.83 155.86 209.93 175.51 230.14 195.71 247.62 175.16"></polygon>
                                    <polygon fill="#BE84F9" points="211.88 241.33 211.87 241.33 211.88 241.33 211.87 241.33 183.39 233.79 183.38 233.78 183.38 233.79 183.37 233.79 183.38 233.8 191.06 262.15 191.06 262.28 191.08 262.25 191.09 262.28 191.09 262.24 211.87 241.33"></polygon>
                                    <polygon fill="#BE84F9" points="64.26 118.3 64.26 118.3 64.26 118.3 64.26 118.3 50.37 114.62 50.36 114.61 50.36 114.62 50.36 114.62 50.36 114.63 54.11 128.45 54.11 128.52 54.12 128.5 54.13 128.52 54.13 128.5 64.26 118.3"></polygon>
                                    <polygon fill="#F6A623" points="127.97 254.53 121.23 267.01 125.67 271.99 137.17 267.63"></polygon>
                                    <polygon fill="#84EBD4" points="205.88 127.2 199.46 133.81 209.87 139.78 210.48 129.16"></polygon>
                                    <polygon fill="#F8B84F" points="51.47 281.03 42.58 278.58 42.36 290.58 51.96 286"></polygon>
                                    <polygon fill="#F8B84F" points="82.09 159.69 61.51 166.25 76.4 190.08 89.41 168.83"></polygon>
                                    <polygon fill="#F8B84F" points="153.63 24.32 143.46 23.19 134.78 39.96 158.72 45.5"></polygon>
                                    <polygon fill="#C18BF9" points="48.43 197.65 20.14 202.59 25.84 231.3 25.86 231.29 54.36 227.81"></polygon>
                                    <polygon fill="#D5AFFB" points="223.07 155.23 218.6 152.63 214.63 154.1 210.8 156.74 210.73 161.58 211.86 165.45 216.55 167.78 220.65 166.93 224.32 163.84 224.88 158.83"></polygon>
                                    <polygon fill="#D5AFFB" points="202.78 5.9 198.31 3.3 194.34 4.77 190.51 7.41 190.44 12.25 191.57 16.12 196.26 18.45 200.36 17.6 204.03 14.51 204.59 9.5"></polygon>
                                    <polygon fill="#A3A3A3" points="33.04 49.17 6.72 54.36 0.02 79.93 17.59 100.8 44.52 94.29 52.91 68.02 52.99 67.77"></polygon>
                                    <polygon fill="#A083CA" points="89.09 233.49 70.03 234.82 59.81 251.69 70.5 268.62 90.43 268.29 90.62 268.28 98.74 250.31"></polygon>
                                    <polygon fill="#A7F1E0" points="25.81 140.27 25.79 140.16 13.77 137.02 4.34 144.8 7.19 156.5 18.75 161.06 28.13 152.62"></polygon>
                                    <polygon fill="#33E5F1" points="80.11 0.74 59.15 8.24 52.76 20.53 83.83 45.44 92.84 6.18"></polygon>
                                    <polygon fill="#B8B8B8" points="144.88 220.25 143.47 237.53 149.23 239.06 157.7 234.57 159.66 228.94"></polygon>
                                    <polygon fill="#FACE86" points="166.69 164.28 152.82 167.68 142.32 177.37 153.31 197.84 160.69 200.42 160.72 200.41 175.7 192.36 175.75 192.33 177.68 184.75"></polygon>
                                    <polygon fill="#F9C165" points="243.71 123.18 236.68 123.97 233.28 131.69 238.4 136.88 245.44 136.08 248.83 128.36"></polygon>
                                    <polygon fill="#7046AF" points="195.8 40.84 189.38 84.79 231.22 87.51 237.86 46.16"></polygon>
                                    <polygon fill="#B8B8B8" points="238.37 37.76 223.81 47.13 226.1 52.63 234.79 56.61 240.45 54.75"></polygon>
                                    <polygon fill="#A88ECE" points="118.12 200.17 114.92 198.31 112.09 199.36 109.35 201.24 109.3 204.7 110.11 207.46 113.46 209.13 116.38 208.53 119.01 206.32 119.4 202.74"></polygon>
                                </g>
                                <g fill-rule="nonzero">
                                    <g id="Page-1" transform="translate(99.000000, 74.000000)" fill="#FFFFFF">
                                        <g id="agl_logos">
                                            <g id="logo_primary">
                                                <g id="agl" transform="translate(31.000000, 34.000000)">
                                                    <path d="M7.78,7.06 C6.6948524,7.04761955 5.61363124,7.19245603 4.57,7.49 C3.73947404,7.72679489 2.94041249,8.06253503 2.19,8.49 L2.12,8.49 L2.56,9.84 L2.66,9.78 C3.36279457,9.40033311 4.10795064,9.10495593 4.88,8.9 C5.82415473,8.65987973 6.79589667,8.54555715 7.77,8.56 C8.93209669,8.49236362 10.0794102,8.84756905 11,9.56 C11.8382739,10.4749539 12.2426189,11.7062026 12.11,12.94 L12.11,14 L8.18,14 C6.25459491,13.8733606 4.3371024,14.3448751 2.69,15.35 C1.41105578,16.3032669 0.700109442,17.8380082 0.8,19.43 C0.785790355,20.1469667 0.92205475,20.8589481 1.2,21.52 C1.45644744,22.1089324 1.83873195,22.6345736 2.32,23.06 C2.80980636,23.4849507 3.38159715,23.8048813 4,24 C4.67291669,24.2112058 5.37474043,24.3158045 6.08,24.31 C7.37945355,24.3426824 8.66288391,24.0175006 9.79,23.37 C10.7584785,22.7836929 11.5660247,21.9658376 12.14,20.99 L12.52,23.99 L13.83,23.99 L13.83,12.89 C13.9091374,11.3172536 13.366799,9.7764378 12.32,8.6 C11.0832952,7.48339641 9.44082993,6.92626061 7.78,7.06 L7.78,7.06 Z M12.12,15.53 L12.12,17.28 C12.1216036,17.9666931 11.9855929,18.6467462 11.72,19.28 C11.4461156,19.9336821 11.0527236,20.5305528 10.56,21.04 C10.0303447,21.5849939 9.39824469,22.0199875 8.7,22.32 C7.88998269,22.6594349 7.0181104,22.8263167 6.14,22.81 C5.66277802,22.81221 5.187783,22.7448348 4.73,22.61 C4.30581615,22.4878115 3.91107479,22.280232 3.57,22 C3.23843904,21.7292403 2.97188631,21.387506 2.79,21 C2.59260468,20.5251396 2.4972097,20.0140951 2.51,19.5 C2.40291866,18.3414561 2.89745121,17.2089388 3.82,16.5 C5.15356311,15.7664983 6.67278365,15.4397095 8.19,15.56 L12.12,15.56 L12.12,15.53 Z" id="Shape"></path>
                                                    <path d="M29.1,10.38 C28.8833739,10.0279673 28.6392815,9.69359426 28.37,9.38 C27.9926719,8.94798072 27.5626494,8.56499185 27.09,8.24 C26.5708332,7.88230423 26.0057227,7.59638525 25.41,7.39 C24.7402779,7.16332541 24.0369943,7.05174675 23.33,7.06 C22.4092318,7.05448191 21.4982451,7.24896222 20.66,7.63 C19.8137266,8.02418655 19.0631097,8.59738488 18.46,9.31 C17.7950764,10.1079506 17.2862248,11.0238835 16.96,12.01 C16.5766299,13.1776841 16.3907451,14.4011436 16.41,15.63 C16.3812097,16.9628751 16.5600157,18.2921123 16.94,19.57 C17.2423714,20.5643013 17.7499698,21.4841104 18.43,22.27 C19.0458047,22.9630727 19.8216386,23.4951712 20.69,23.82 C21.593528,24.1481233 22.5487961,24.3107221 23.51,24.3 C24.7249602,24.3206708 25.9175625,23.9719567 26.93,23.3 C27.8026497,22.703878 28.5360762,21.9261048 29.08,21.02 L29.08,23.12 C29.0997005,24.0911073 28.9681256,25.0593638 28.69,25.99 C28.4761218,26.6907891 28.1108387,27.3360087 27.62,27.88 C27.159834,28.3429718 26.593356,28.6862917 25.97,28.88 C25.2613634,29.1011396 24.5222837,29.209133 23.78,29.2 C22.7911419,29.2089306 21.8055952,29.0844759 20.85,28.83 C20.0571141,28.6202665 19.2892967,28.32521 18.56,27.95 L18.46,27.89 L17.99,29.34 L18.06,29.34 C18.8360088,29.7505918 19.6497675,30.0854719 20.49,30.34 C21.5351176,30.6486713 22.6203019,30.8003274 23.71,30.79 C25.6444254,30.8970926 27.5382314,30.2067931 28.95,28.88 C30.2,27.61 30.84,25.67 30.84,23.1 L30.84,7.34 L29.49,7.34 L29.1,10.38 Z M29.1,12.38 L29.1,16.66 C29.1004513,17.4039608 28.9823022,18.1432372 28.75,18.85 C28.5341022,19.5476864 28.1954633,20.2012594 27.75,20.78 C26.7681007,22.0176034 25.2590661,22.718359 23.68,22.67 C22.9967237,22.665645 22.3196118,22.5403793 21.68,22.3 C21.0109242,22.0476809 20.4136121,21.6357415 19.94,21.1 C19.3922606,20.4596546 18.9805726,19.7145334 18.73,18.91 C18.4003936,17.8349908 18.2450934,16.7141284 18.27,15.59 C18.2505745,14.5365448 18.3991026,13.4867214 18.71,12.48 C18.9584554,11.6868052 19.3592759,10.9497031 19.89,10.31 C20.3512541,9.76559294 20.9287687,9.33160271 21.58,9.04 C22.2106409,8.76379847 22.8915274,8.6208123 23.58,8.62 C24.7102741,8.6055313 25.8150339,8.9562487 26.73,9.62 C27.6894004,10.3847601 28.4823048,11.3376067 29.06,12.42 L29.1,12.38 Z" id="Shape-2"></path>
                                                    <rect id="Rectangle-path" x="34.97" y="0.81" width="1.77" height="23.23"></rect>
                                                </g>
                                                <g id="hand">
                                                    <path d="M6.33,13.41 C7.53312335,12.4528248 9.28298192,12.6447736 10.25,13.84 L25.32,32.63 C26.2771752,33.8331234 26.0852264,35.5829819 24.89,36.55 L24.89,36.55 C23.6868766,37.5071752 21.9370181,37.3152264 20.97,36.12 L5.9,17.33 C4.94282481,16.1268766 5.13477358,14.3770181 6.33,13.41 Z" id="Shape-3"></path>
                                                    <path d="M0.14,44.71 C0.399980306,43.1949301 1.83279832,42.172764 3.35,42.42 L20.79,45.33 C22.3050699,45.5899803 23.327236,47.0227983 23.08,48.54 L23.08,48.54 C22.8200197,50.0550699 21.3872017,51.077236 19.87,50.83 L2.43,47.92 C0.914930093,47.6600197 -0.107236032,46.2272017 0.14,44.71 L0.14,44.71 Z" id="Shape-4"></path>
                                                    <path d="M28.52,0.63 C30.0479389,0.45987311 31.4272695,1.55351716 31.61,3.08 L34.39,27 C34.5660366,28.5316089 33.4708369,29.9173717 31.94,30.1 L31.94,30.1 C30.4120611,30.2701269 29.0327305,29.1764828 28.85,27.65 L26.07,3.72 C25.8939634,2.18839108 26.9891631,0.802628269 28.52,0.62 L28.52,0.63 Z" id="Shape-5"></path>
                                                    <path d="M48.76,7 C50.2030965,7.53441246 50.9444601,9.13325684 50.42,10.58 L43.82,28.67 C43.2896389,30.1170609 41.6895712,30.8634612 40.24,30.34 L40.24,30.34 C38.7969035,29.8055875 38.0555399,28.2067432 38.58,26.76 L45.18,8.67 C45.7103611,7.22293906 47.3104288,6.47653876 48.76,7 Z" id="Shape-6"></path>
                                                    <path d="M59.77,21.62 C60.9046876,22.6582547 60.9895186,24.4173801 59.96,25.56 L52.34,34 C51.3017453,35.1346876 49.5426199,35.2195186 48.4,34.19 L48.4,34.19 C47.2653124,33.1517453 47.1804814,31.3926199 48.21,30.25 L55.83,21.84 C56.8682547,20.7053124 58.6273801,20.6204814 59.77,21.65 L59.77,21.62 Z" id="Shape-7"></path>
                                                </g>
                                            </g>
                                        </g>
                                    </g>
                                    <g transform="translate(209.000000, 155.000000)" id="Shape">
                                        <polygon fill="#00A5E0" points="19.83 0.86 0.93 20.51 21.14 40.71 38.62 20.16"></polygon>
                                        <polygon fill="#4CE9F2" points="19.83 0.86 0.93 20.51 27.25 17.07"></polygon>
                                        <polygon fill="#00DFED" points="38.62 20.16 19.83 0.86 27.25 17.07"></polygon>
                                        <polygon fill="#73EDF5" points="0.93 20.51 21.14 40.71 27.25 17.07"></polygon>
                                        <polygon fill="#26E4F0" points="27.25 17.07 21.14 40.71 38.62 20.16"></polygon>
                                    </g>
                                    <g transform="translate(183.000000, 233.000000)" id="Shape">
                                        <polygon fill="#B26EF8" points="28.88 8.33 0.37 0.79 7.89 10.31"></polygon>
                                        <polygon fill="#C999FA" points="8.09 29.28 8.26 8.96 0.38 0.78"></polygon>
                                        <polygon fill="#BE84F9" points="8.06 29.28 8.16 8.85 28.88 8.33"></polygon>
                                    </g>
                                    <g transform="translate(50.000000, 114.000000)" id="Shape">
                                        <polygon fill="#B26EF8" points="14.26 4.3 0.36 0.62 4.03 5.27"></polygon>
                                        <polygon fill="#C999FA" points="4.13 14.52 4.21 4.61 0.36 0.61"></polygon>
                                        <polygon fill="#BE84F9" points="4.11 14.52 4.16 4.56 14.26 4.3"></polygon>
                                    </g>
                                    <g transform="translate(121.000000, 254.000000)" id="Shape">
                                        <polygon fill="#F9C165" points="4.67 17.99 6.97 0.53 0.23 13.01"></polygon>
                                        <polygon fill="#F6A623" points="4.67 17.99 6.97 0.53 16.17 13.63"></polygon>
                                    </g>
                                    <g transform="translate(199.000000, 127.000000)" id="Shape">
                                        <polygon fill="#50E3C2" points="6.88 0.2 10.87 12.78 11.48 2.16"></polygon>
                                        <polygon fill="#84EBD4" points="6.88 0.2 10.87 12.78 0.46 6.81"></polygon>
                                    </g>
                                    <g transform="translate(42.000000, 278.000000)" id="Shape">
                                        <polygon fill="#F6A623" points="9.47 3.03 0.36 12.58 9.96 8"></polygon>
                                        <polygon fill="#F8B84F" points="9.47 3.03 0.36 12.58 0.58 0.58"></polygon>
                                    </g>
                                    <g transform="translate(61.000000, 159.000000)" id="Shape">
                                        <polygon fill="#F6A623" points="21.09 0.69 15.4 31.08 28.41 9.83"></polygon>
                                        <polygon fill="#F8B84F" points="21.09 0.69 15.4 31.08 0.51 7.25"></polygon>
                                    </g>
                                    <g transform="translate(134.000000, 23.000000)" id="Shape">
                                        <polygon fill="#F6A623" points="9.46 0.19 24.72 22.5 19.63 1.32"></polygon>
                                        <polygon fill="#F8B84F" points="9.46 0.19 24.72 22.5 0.78 16.96"></polygon>
                                    </g>
                                    <g transform="translate(20.000000, 197.000000)" id="Shape">
                                        <polygon fill="#B26EF8" points="28.43 0.65 0.14 5.59 5.84 34.3 5.86 34.29 34.36 30.81"></polygon>
                                        <polygon fill="#B26EF8" points="34.36 30.81 28.43 0.65 6.78 22.19"></polygon>
                                        <polygon fill="#BA7CF9" points="6.78 22.19 28.43 0.65 0.14 5.59 6.76 22.18"></polygon>
                                        <polygon fill="#BA7CF9" points="6.78 22.19 6.77 22.2 5.86 34.29 34.36 30.81"></polygon>
                                        <polygon fill="#C18BF9" points="6.78 22.19 6.76 22.18 0.14 5.59 5.84 34.3 5.86 34.29 6.77 22.2"></polygon>
                                    </g>
                                    <g transform="translate(210.000000, 152.000000)" id="Shape">
                                        <polygon fill="#B26EF8" points="11.3 6.62 14.88 6.83 13.07 3.23 8.6 0.63 7.17 2.51"></polygon>
                                        <polygon fill="#BE84F9" points="7.17 2.51 8.6 0.63 4.63 2.1 0.8 4.74 2.06 5.19"></polygon>
                                        <polygon fill="#C999FA" points="2.06 5.19 0.8 4.74 0.73 9.58 1.86 13.45 2.76 10.98"></polygon>
                                        <polygon fill="#BE84F9" points="2.76 10.98 1.86 13.45 6.55 15.78 10.65 14.93 8.57 11.91"></polygon>
                                        <polygon fill="#B26EF8" points="14.88 6.83 11.3 6.62 8.57 11.91 10.65 14.93 14.32 11.84"></polygon>
                                        <polygon fill="#D5AFFB" points="2.06 5.19 2.76 10.98 8.57 11.91 11.3 6.62 7.17 2.51"></polygon>
                                    </g>
                                    <g transform="translate(190.000000, 3.000000)" id="Shape">
                                        <polygon fill="#B26EF8" points="11.01 6.28 14.59 6.5 12.78 2.9 8.31 0.3 6.88 2.18"></polygon>
                                        <polygon fill="#C999FA" points="1.77 4.86 0.51 4.41 0.44 9.25 1.57 13.12 2.47 10.65"></polygon>
                                        <polygon fill="#BE84F9" points="2.47 10.65 1.57 13.12 6.26 15.45 10.36 14.6 8.28 11.58"></polygon>
                                        <polygon fill="#B26EF8" points="14.59 6.5 11.01 6.28 8.28 11.58 10.36 14.6 14.03 11.51"></polygon>
                                        <polygon fill="#D5AFFB" points="1.77 4.86 2.47 10.65 8.28 11.58 11.01 6.28 6.88 2.18"></polygon>
                                    </g>
                                    <g transform="translate(0.000000, 49.000000)" id="Shape">
                                        <polygon fill="#949494" points="30.66 7 6.72 5.36 7.62 28.83"></polygon>
                                        <polygon fill="#757575" points="52.99 18.77 33.04 0.17 30.66 7"></polygon>
                                        <polygon fill="#858585" points="33.04 0.17 6.72 5.36 30.66 7"></polygon>
                                        <polygon fill="#858585" points="6.72 5.36 0.02 30.93 7.62 28.83"></polygon>
                                        <path d="M7.62,28.83 C7.49,28.65 17.62,51.83 17.62,51.83 L38.62,38.58 L7.62,28.83 Z" fill="#949494"></path>
                                        <polygon fill="#858585" points="30.66 7 38.61 38.55 52.91 19.02 52.99 18.77"></polygon>
                                        <polygon fill="#757575" points="44.52 45.29 52.91 19.02 38.61 38.55"></polygon>
                                        <path d="M0,30.93 L17.59,51.8 C17.59,51.8 7.49,28.65 7.59,28.8 L0,30.93 Z" fill="#A3A3A3"></path>
                                        <polygon fill="#666666" points="17.59 51.8 44.52 45.29 38.61 38.55"></polygon>
                                        <polygon fill="#A3A3A3" points="38.61 38.55 30.66 7 7.62 28.83"></polygon>
                                    </g>
                                    <g transform="translate(59.000000, 233.000000)" id="Shape">
                                        <polygon fill="#906FC1" points="34.51 17.26 30.09 0.49 14.23 6.54"></polygon>
                                        <polygon fill="#7046AF" points="31.62 35.28 39.74 17.31 34.51 17.26"></polygon>
                                        <polygon fill="#805AB8" points="39.74 17.31 30.09 0.49 34.51 17.26"></polygon>
                                        <polygon fill="#805AB8" points="30.09 0.49 11.03 1.82 14.23 6.54"></polygon>
                                        <path d="M14.23,6.54 C14.32,6.41 0.81,18.68 0.81,18.68 L14.75,30 L14.23,6.54 Z" fill="#906FC1"></path>
                                        <polygon fill="#805AB8" points="34.51 17.26 14.75 30.01 31.43 35.29 31.62 35.28"></polygon>
                                        <polygon fill="#7046AF" points="11.5 35.62 31.43 35.29 14.75 30.01"></polygon>
                                        <path d="M11,1.82 L0.78,18.68 C0.78,18.68 14.3,6.41 14.2,6.54 L11,1.82 Z" fill="#A083CA"></path>
                                        <polygon fill="#6031A6" points="0.81 18.69 11.5 35.62 14.75 30.01"></polygon>
                                        <polygon fill="#A083CA" points="14.75 30.01 34.51 17.26 14.23 6.54"></polygon>
                                    </g>
                                    <g transform="translate(4.000000, 137.000000)" id="Shape">
                                        <polygon fill="#96EEDA" points="10.29 3.27 0.34 7.8 5.78 17.01"></polygon>
                                        <polygon fill="#6AE7CB" points="21.79 3.16 9.77 0.02 10.29 3.27"></polygon>
                                        <polygon fill="#84EBD4" points="9.77 0.02 0.34 7.8 10.29 3.27"></polygon>
                                        <polygon fill="#84EBD4" points="0.34 7.8 3.19 19.5 5.78 17.01"></polygon>
                                        <path d="M5.78,17 C5.69,17 14.78,24.05 14.78,24.05 L20.34,14.19 L5.78,17 Z" fill="#96EEDA"></path>
                                        <polygon fill="#84EBD4" points="10.29 3.27 20.31 14.2 21.81 3.27 21.79 3.16"></polygon>
                                        <polygon fill="#6AE7CB" points="24.13 15.62 21.81 3.27 20.31 14.2"></polygon>
                                        <path d="M3.19,19.5 L14.75,24.06 C14.75,24.06 5.69,16.97 5.75,17.01 L3.19,19.5 Z" fill="#A7F1E0"></path>
                                        <polygon fill="#50E3C2" points="14.75 24.06 24.13 15.62 20.31 14.2"></polygon>
                                        <polygon fill="#A7F1E0" points="20.31 14.2 10.29 3.27 5.78 17.01"></polygon>
                                    </g>
                                    <g transform="translate(52.000000, 0.000000)" id="Shape">
                                        <polygon fill="#00DFED" points="40.84 6.18 28.11 0.74 31.83 45.44"></polygon>
                                        <polygon fill="#19E2EF" points="28.11 0.74 7.15 8.24 31.83 45.44"></polygon>
                                        <polygon fill="#33E5F1" points="31.83 45.44 7.15 8.24 0.76 20.53"></polygon>
                                    </g>
                                    <g transform="translate(143.000000, 220.000000)" id="Shape">
                                        <polygon fill="#999999" points="0.47 17.53 6.23 19.06 1.88 0.25"></polygon>
                                        <polygon fill="#A8A8A8" points="6.23 19.06 14.7 14.57 1.88 0.25"></polygon>
                                        <polygon fill="#B8B8B8" points="1.88 0.25 14.7 14.57 16.66 8.94"></polygon>
                                    </g>
                                    <g transform="translate(142.000000, 164.000000)">
                                        <polygon id="Shape" fill="#F6A623" points="22.72 7.89 33.7 28.36 33.75 28.33 35.68 20.75 24.69 0.28 22.76 7.87"></polygon>
                                        <rect id="Rectangle-path" fill="#F7B344" transform="translate(20.721724, 22.129888) rotate(-28.230000) translate(-20.721724, -22.129888) " x="12.2167238" y="10.5148882" width="17.01" height="23.23"></rect>
                                        <polygon id="Shape" fill="#F9C165" points="7.7 15.95 0.32 13.37 11.31 33.84 18.69 36.42 18.72 36.41 7.73 15.94"></polygon>
                                        <polygon id="Shape" fill="#FACE86" points="10.82 3.68 0.32 13.37 7.7 15.95 7.73 15.94 22.72 7.89 22.76 7.87 24.69 0.28"></polygon>
                                    </g>
                                    <g transform="translate(233.000000, 123.000000)" id="Shape">
                                        <polygon fill="#F7B344" points="3.68 0.97 10.71 0.18 7.32 7.9 0.28 8.69"></polygon>
                                        <polygon fill="#F6A623" points="10.71 0.18 15.83 5.36 12.44 13.08 7.32 7.9"></polygon>
                                        <polygon fill="#F9C165" points="7.32 7.9 12.44 13.08 5.4 13.88 0.28 8.69"></polygon>
                                    </g>
                                    <g transform="translate(189.000000, 40.000000)" id="Shape">
                                        <polygon fill="#7046AF" points="48.86 6.16 6.8 0.84 35.52 30.46"></polygon>
                                        <polygon fill="#6031A6" points="42.22 47.51 48.86 6.16 35.52 30.46"></polygon>
                                        <polygon fill="#805AB8" points="6.8 0.84 0.38 44.79 35.52 30.46"></polygon>
                                        <polygon fill="#7046AF" points="35.52 30.46 0.38 44.79 42.22 47.51"></polygon>
                                    </g>
                                    <g transform="translate(223.000000, 37.000000)" id="Shape">
                                        <polygon fill="#999999" points="0.81 10.13 3.1 15.63 15.37 0.76"></polygon>
                                        <polygon fill="#A8A8A8" points="3.1 15.63 11.79 19.61 15.37 0.76"></polygon>
                                        <polygon fill="#B8B8B8" points="15.37 0.76 11.79 19.61 17.45 17.75"></polygon>
                                    </g>
                                    <g transform="translate(109.000000, 198.000000)" id="Shape">
                                        <polygon fill="#6031A6" points="7.84 4.59 10.4 4.74 9.12 2.17 5.92 0.31 4.9 1.66"></polygon>
                                        <polygon fill="#7850B3" points="4.9 1.66 5.92 0.31 3.09 1.36 0.35 3.24 1.25 3.56"></polygon>
                                        <polygon fill="#906FC1" points="1.25 3.56 0.35 3.24 0.3 6.7 1.11 9.46 1.75 7.7"></polygon>
                                        <polygon fill="#7850B3" points="1.75 7.7 1.11 9.46 4.46 11.13 7.38 10.53 5.9 8.37"></polygon>
                                        <polygon fill="#6031A6" points="10.4 4.74 7.84 4.59 5.9 8.37 7.38 10.53 10.01 8.32"></polygon>
                                        <polygon fill="#A88ECE" points="1.25 3.56 1.75 7.7 5.9 8.37 7.84 4.59 4.9 1.66"></polygon>
                                    </g>
                                </g>
                            </g>
                        </g>
                    </g>
                </g>
            </g>
        </g>
    </g>
</svg>