<?xml version="1.0" encoding="UTF-8"?>
<svg xmlns="http://www.w3.org/2000/svg" xmlns:xlink="http://www.w3.org/1999/xlink" width="142px" height="66px" id="Layer_2" data-name="Layer 2" viewBox="0 0 207.25 70.64">
   <defs>
      <style>.cls-1{fill:url(#New_Gradient_Swatch_1);}.cls-2{clip-path:url(#clip-path);}.cls-3{fill:url(#New_Gradient_Swatch_1-3);}</style>
      <linearGradient id="New_Gradient_Swatch_1" x1="-18.63" y1="35.32" x2="235.69" y2="35.32" gradientUnits="userSpaceOnUse">
         <stop offset="0.12" stop-color="#005fab" />
         <stop offset="0.19" stop-color="#0064ae" />
         <stop offset="0.27" stop-color="#0071b7" />
         <stop offset="0.36" stop-color="#0088c5" />
         <stop offset="0.44" stop-color="#00a7d9" />
         <stop offset="0.48" stop-color="#00b5e2" />
         <stop offset="0.54" stop-color="#009bd1" />
         <stop offset="0.62" stop-color="#0081c0" />
         <stop offset="0.7" stop-color="#006eb5" />
         <stop offset="0.79" stop-color="#0063ad" />
         <stop offset="0.88" stop-color="#005fab" />
      </linearGradient>
      <clipPath id="clip-path">
         <path class="cls-1" d="M62.49,18.74V34.39c0,4.3-2,6.7-6,6.7s-6-2.4-6-6.7V16.63l-9.1,2.11V34.39c0,9.32,6.08,15.8,15.12,15.8a16.73,16.73,0,0,0,6-1.28v5.74c0,5.42-3.08,6.89-5.76,6.89H54.51v9.1h2.23c9.16,0,14.86-6.13,14.86-16V20.72h0V16.63Zm69.44,0V34.39c0,4.3-2,6.7-6,6.7s-6-2.4-6-6.7V16.63l-9.1,2.11V34.39c0,9.32,6.08,15.8,15.12,15.8S141,43.71,141,34.39V16.63Zm34.58,0V34.39c0,4.3-2,6.7-6,6.7s-6-2.4-6-6.7V16.63l-9.1,2.11V34.39c0,9.32,6.07,15.8,15.12,15.8a16.73,16.73,0,0,0,6-1.28v5.74c0,5.42-3.08,6.89-5.76,6.89h-2.22v9.1h2.23c9.16,0,14.86-6.13,14.86-16V20.72h0V16.63Zm13.11,7.88c.06,4.07,3.06,6.84,9.16,8.48l.49.14c6.08,1.82,8.61,2.57,8.61,4.91a2.58,2.58,0,0,1-.79,1.88,5.36,5.36,0,0,1-3.78,1.38c-.47,0-4.61-.1-5-3.71l0-.33-9.05,2.11c1.5,6,7.85,8.69,13.92,8.69,4.62,0,8.74-1.49,11.32-4.08a9.22,9.22,0,0,0,2.76-6.81c-.07-7-6.62-8.54-12.41-9.91-4-1-5.79-2.1-5.84-3.57s1.22-2.76,3.91-2.76c3.24,0,3.79,1.71,4,3l.05.35,8.88-2.07c-1.49-5.88-7.47-8-12.91-8-7.74,0-13.36,4.34-13.36,10.33M18.13,0C5.59,0,0,7.42,0,16.59H0V49.85H9.09V25H20.52V16.63H9.09v0H9c0-4.59,3-8.31,9.11-8.31h7.19V0ZM37.2,0,28.14,2.1V49.85h9.1V0ZM84.87,33.24c0-4.34,2.75-7.85,6.8-7.85s6.81,3.52,6.81,7.85-2.75,7.85-6.81,7.85-6.8-3.52-6.8-7.85M85.21,0l-9.4,2.1V33.24c0,9.36,7.1,17,15.86,17s15.87-7.59,15.87-17-7.11-17-15.87-17a14.94,14.94,0,0,0-6.43,1.45V0Z" />
      </clipPath>
      <linearGradient id="New_Gradient_Swatch_1-3" x1="-491.69" y1="392.83" x2="-491.4" y2="392.83" gradientTransform="matrix(586.76, -0.01, -0.01, -586.76, 288525.16, 230531.41)" xlink:href="#New_Gradient_Swatch_1" />
   </defs>
   <title>Artboard 1</title>
   <path class="cls-1" d="M62.49,18.74V34.39c0,4.3-2,6.7-6,6.7s-6-2.4-6-6.7V16.63l-9.1,2.11V34.39c0,9.32,6.08,15.8,15.12,15.8a16.73,16.73,0,0,0,6-1.28v5.74c0,5.42-3.08,6.89-5.76,6.89H54.51v9.1h2.23c9.16,0,14.86-6.13,14.86-16V20.72h0V16.63Zm69.44,0V34.39c0,4.3-2,6.7-6,6.7s-6-2.4-6-6.7V16.63l-9.1,2.11V34.39c0,9.32,6.08,15.8,15.12,15.8S141,43.71,141,34.39V16.63Zm34.58,0V34.39c0,4.3-2,6.7-6,6.7s-6-2.4-6-6.7V16.63l-9.1,2.11V34.39c0,9.32,6.07,15.8,15.12,15.8a16.73,16.73,0,0,0,6-1.28v5.74c0,5.42-3.08,6.89-5.76,6.89h-2.22v9.1h2.23c9.16,0,14.86-6.13,14.86-16V20.72h0V16.63Zm13.11,7.88c.06,4.07,3.06,6.84,9.16,8.48l.49.14c6.08,1.82,8.61,2.57,8.61,4.91a2.58,2.58,0,0,1-.79,1.88,5.36,5.36,0,0,1-3.78,1.38c-.47,0-4.61-.1-5-3.71l0-.33-9.05,2.11c1.5,6,7.85,8.69,13.92,8.69,4.62,0,8.74-1.49,11.32-4.08a9.22,9.22,0,0,0,2.76-6.81c-.07-7-6.62-8.54-12.41-9.91-4-1-5.79-2.1-5.84-3.57s1.22-2.76,3.91-2.76c3.24,0,3.79,1.71,4,3l.05.35,8.88-2.07c-1.49-5.88-7.47-8-12.91-8-7.74,0-13.36,4.34-13.36,10.33M18.13,0C5.59,0,0,7.42,0,16.59H0V49.85H9.09V25H20.52V16.63H9.09v0H9c0-4.59,3-8.31,9.11-8.31h7.19V0ZM37.2,0,28.14,2.1V49.85h9.1V0ZM84.87,33.24c0-4.34,2.75-7.85,6.8-7.85s6.81,3.52,6.81,7.85-2.75,7.85-6.81,7.85-6.8-3.52-6.8-7.85M85.21,0l-9.4,2.1V33.24c0,9.36,7.1,17,15.86,17s15.87-7.59,15.87-17-7.11-17-15.87-17a14.94,14.94,0,0,0-6.43,1.45V0Z" />
   <g class="cls-2">
      <rect class="cls-3" x="5.38" y="-62.95" width="196.54" height="196.54" transform="translate(5.38 83.64) rotate(-45)" />
   </g>
</svg>