<?xml version="1.0" encoding="UTF-8" standalone="no"?>
<svg width="40px" height="57px" viewBox="0 0 40 57" version="1.1" xmlns="http://www.w3.org/2000/svg" xmlns:xlink="http://www.w3.org/1999/xlink">
    <!-- Generator: Sketch 42 (36781) - http://www.bohemiancoding.com/sketch -->
    <title>Fill 1</title>
    <desc>Created with Sketch.</desc>
    <defs></defs>
    <g id="Symbols" stroke="none" stroke-width="1" fill="none" fill-rule="evenodd">
        <g id="flame_blue" fill="#001CB0">
            <path d="M38.7903612,36.7176646 L39.6871045,36.6345467 C39.688762,36.612495 39.6970499,36.4225112 39.6970499,36.4004595 C39.6970499,35.6591832 39.6489804,34.9433513 39.5528416,34.2597487 C38.8500336,26.2685534 35.7470699,19.5360011 35.6144646,19.2527216 C35.4437353,18.8880205 35.0658103,18.6708961 34.6663368,18.7472289 C34.2751512,18.813384 33.9718166,19.135678 33.9270624,19.5393937 C33.8027449,20.5995713 33.1181701,23.5663726 31.4473435,24.5570026 C30.6367937,25.0353547 29.6687751,25.0149993 28.4819578,24.4976326 C23.820882,22.4603952 20.5538193,6.90886086 22.1069587,1.81661543 C22.3008939,1.17541997 22.5230078,0.447714013 21.7903636,0.0948868816 C21.3063543,-0.134111497 20.8787022,0.0524797745 20.5024347,0.642786706 L20.3250752,0.914192192 C18.2100209,3.95562992 15.4833247,7.43301271 12.5958446,11.1139496 C9.62548618,14.9017524 6.55401625,18.8167766 4.01130989,22.4502175 C0.0281786232,28.1463401 0,35.6320427 0,35.9458553 C0.00663026429,36.1952091 0,36.2918973 0,36.4004595 C0,47.5993283 8.90278737,56.7100712 19.8476961,56.7100712 C30.3599802,56.7100712 38.9992145,48.36096 39.6357199,37.6472284 C39.6738439,37.5437551 39.6970499,37.430104 39.6970499,37.3130604 L39.6821318,36.7023981 L38.7903612,36.7176646 Z" id="Fill-1"></path>
        </g>
    </g>
</svg>