<?xml version="1.0" encoding="UTF-8" standalone="no"?>
<svg width="8px" height="12px" viewBox="0 0 8 12" version="1.1" xmlns="http://www.w3.org/2000/svg" xmlns:xlink="http://www.w3.org/1999/xlink">
    <!-- Generator: Sketch 41.2 (35397) - http://www.bohemiancoding.com/sketch -->
    <title>gas contract</title>
    <desc>Created with Sketch.</desc>
    <defs></defs>
    <g id="Version-05" stroke="none" stroke-width="1" fill="none" fill-rule="evenodd">
        <g id="Components" transform="translate(-827.000000, -579.000000)" fill="#CCCCCC">
            <path d="M834.817278,586.399575 L834.997996,586.382825 C834.99833,586.378381 835,586.340094 835,586.33565 C835,586.186264 834.990313,586.042005 834.970938,585.904241 C834.829304,584.293805 834.203975,582.937018 834.177252,582.87993 C834.142845,582.806433 834.066683,582.762677 833.986179,582.77806 C833.907345,582.791392 833.846215,582.856343 833.837196,582.937702 C833.812142,583.151356 833.674183,583.749244 833.337467,583.948882 C833.17412,584.045283 832.979039,584.041181 832.739864,583.936918 C831.800534,583.526361 831.142135,580.392317 831.455134,579.366096 C831.494217,579.236878 831.538979,579.090226 831.391332,579.019122 C831.293791,578.972973 831.207608,579.010576 831.13178,579.129538 L831.096037,579.184234 C830.669798,579.797164 830.120297,580.497948 829.538394,581.239753 C828.939789,582.003095 828.320807,582.792076 827.808384,583.52431 C827.005679,584.672228 827,586.180794 827,586.244036 C827.001336,586.294287 827,586.313772 827,586.33565 C827,588.592517 828.794146,590.428571 830.999833,590.428571 C833.118335,590.428571 834.859368,588.746006 834.98764,586.586907 C834.995323,586.566054 835,586.543151 835,586.519563 L834.996994,586.396499 L834.817278,586.399575 Z" id="gas-contract"></path>
        </g>
    </g>
</svg>