<?xml version="1.0" encoding="UTF-8" standalone="no"?>
<svg width="8px" height="10px" viewBox="0 0 8 10" version="1.1" xmlns="http://www.w3.org/2000/svg" xmlns:xlink="http://www.w3.org/1999/xlink">
    <!-- Generator: Sketch 41.2 (35397) - http://www.bohemiancoding.com/sketch -->
    <title>Gas contract selected</title>
    <desc>Created with Sketch.</desc>
    <defs></defs>
    <g id="Version-05" stroke="none" stroke-width="1" fill="none" fill-rule="evenodd">
        <g id="Components" transform="translate(-879.000000, -579.000000)" fill="#FFFFFF">
            <path d="M886.817278,585.474629 L886.997996,585.459972 C886.99833,585.456083 887,585.422583 887,585.418694 C887,585.287981 886.990313,585.161754 886.970938,585.041211 C886.829304,583.632079 886.203975,582.444891 886.177252,582.394939 C886.142845,582.330629 886.066683,582.292342 885.986179,582.305802 C885.907345,582.317468 885.846215,582.3743 885.837196,582.445489 C885.812142,582.632436 885.674183,583.155589 885.337467,583.330272 C885.17412,583.414622 884.979039,583.411033 884.739864,583.319803 C883.800534,582.960566 883.142135,580.218278 883.455134,579.320334 C883.494217,579.207268 883.538979,579.078948 883.391332,579.016732 C883.293791,578.976351 883.207608,579.009254 883.13178,579.113346 L883.096037,579.161205 C882.669798,579.697518 882.120297,580.310704 881.538394,580.959784 C880.939789,581.627708 880.320807,582.318066 879.808384,582.958771 C879.005679,583.9632 879,585.283195 879,585.338531 C879.001336,585.382501 879,585.399551 879,585.418694 C879,587.393452 880.794146,589 882.999833,589 C885.118335,589 886.859368,587.527755 886.98764,585.638544 C886.995323,585.620298 887,585.600257 887,585.579618 L886.996994,585.471937 L886.817278,585.474629 Z" id="Gas-contract-selected"></path>
        </g>
    </g>
</svg>