<?xml version="1.0" encoding="UTF-8"?>
<svg width="23px" height="28px" viewBox="0 0 23 28" version="1.1" xmlns="http://www.w3.org/2000/svg" xmlns:xlink="http://www.w3.org/1999/xlink">
    <!-- Generator: Sketch 42 (36781) - http://www.bohemiancoding.com/sketch -->
    <title>Gift</title>
    <desc>Created with Sketch.</desc>
    <defs></defs>
    <g id="HiFi" stroke="none" stroke-width="1" fill="none" fill-rule="evenodd">
        <g id="03a-Custom-payment-no-bonus" transform="translate(-84.000000, -345.000000)">
            <g id="Gift" transform="translate(84.000000, 345.000000)">
                <g id="Group-6-Copy" transform="translate(0.000000, 0.000000)">
                    <path d="M8.91666667,8.46966667 L0.666666667,8.46966667 C0.3,8.46966667 0,8.76966667 0,9.13633333 L0,12.6363333 C0,13.003 0.3,13.303 0.666666667,13.303 L8.91666667,13.303 L8.91666667,8.46966667 Z" id="Fill-1" fill="#001CB0"></path>
                    <path d="M21.5,8.46966667 L13.25,8.46966667 L13.25,13.303 L21.5,13.303 C21.8666667,13.303 22.1666667,13.003 22.1666667,12.6363333 L22.1666667,9.13633333 C22.1666667,8.76966667 21.8666667,8.46966667 21.5,8.46966667" id="Fill-3" fill="#001CB0"></path>
                    <path d="M8.91666667,14.2196667 L2,14.2196667 C1.63333333,14.2196667 1.33333333,14.5196667 1.33333333,14.8863333 L1.33333333,27.053 C1.33333333,27.4196667 1.63333333,27.7196667 2,27.7196667 L8.91666667,27.7196667 L8.91666667,14.2196667 Z" id="Fill-5" fill="#001CB0"></path>
                    <path d="M20.1666667,14.2196667 L13.25,14.2196667 L13.25,27.7196667 L20.1666667,27.7196667 C20.5333333,27.7196667 20.8333333,27.4196667 20.8333333,27.053 L20.8333333,14.8863333 C20.8333333,14.5196667 20.5333333,14.2196667 20.1666667,14.2196667" id="Fill-7" fill="#001CB0"></path>
                    <path d="M14.6520667,4.75253333 C13.8754,6.0972 12.7900667,6.60786667 12.4787333,6.4332 C12.1687333,6.25386667 12.0720667,5.05453333 12.8474,3.7112 C13.2287333,3.05053333 13.7407333,2.50253333 14.2520667,2.20653333 C14.5094,2.05786667 14.7240667,1.99853333 14.8700667,1.99853333 C14.9347333,1.99853333 14.9854,2.00986667 15.0207333,2.03053333 C15.3307333,2.2092 15.4280667,3.40853333 14.6520667,4.75253333 L14.6520667,4.75253333 Z M9.6874,6.4332 C9.37673333,6.60786667 8.2914,6.0972 7.51473333,4.75253333 C6.73873333,3.40853333 6.83606667,2.2092 7.14606667,2.03053333 C7.1814,2.00986667 7.23206667,1.99853333 7.29673333,1.99853333 C7.44206667,1.99853333 7.6574,2.05786667 7.91406667,2.20653333 C8.42606667,2.50253333 8.9374,3.05053333 9.3194,3.7112 C10.0947333,5.05453333 9.9974,6.25386667 9.6874,6.4332 L9.6874,6.4332 Z M12.6354,8.46986667 C13.9380667,8.46986667 15.3967333,7.46053333 16.3840667,5.75253333 C17.6787333,3.50986667 17.5227333,1.1652 16.0207333,0.298533333 C15.2374,-0.154133333 14.2274,-0.0894666667 13.2507333,0.4752 C12.4334,0.947866667 11.6747333,1.74186667 11.1154,2.71053333 C11.1034,2.73253333 11.0954,2.75453333 11.0834,2.77586667 C11.0707333,2.75453333 11.0634,2.73253333 11.0507333,2.71053333 C10.4920667,1.74186667 9.7334,0.947866667 8.9154,0.4752 C7.93873333,-0.0894666667 6.9294,-0.154133333 6.14606667,0.298533333 C4.64406667,1.1652 4.48806667,3.50986667 5.78273333,5.75253333 C6.77006667,7.46053333 8.22873333,8.46986667 9.5314,8.46986667 L12.6354,8.46986667 Z" id="Fill-9" fill="#00DFED"></path>
                </g>
            </g>
        </g>
    </g>
</svg>