<?xml version="1.0" encoding="UTF-8" standalone="no"?>
<svg width="40px" height="39px" viewBox="0 0 40 39" version="1.1" xmlns="http://www.w3.org/2000/svg" xmlns:xlink="http://www.w3.org/1999/xlink">
    <!-- Generator: Sketch 42 (36781) - http://www.bohemiancoding.com/sketch -->
    <title>un selected bar copy</title>
    <desc>Created with Sketch.</desc>
    <defs>
        <rect id="path-1" x="0" y="0" width="40" height="39"></rect>
    </defs>
    <g id="Smart-meter-V2" stroke="none" stroke-width="1" fill="none" fill-rule="evenodd">
        <g id="Dev-requirement" transform="translate(-160.000000, -185.000000)">
            <g id="un-selected-bar-copy" transform="translate(160.000000, 185.000000)">
                <mask id="mask-2" fill="white">
                    <use xlink:href="#path-1"></use>
                </mask>
                <g id="Mask"></g>
                <g id="lines-for-unselected" mask="url(#mask-2)" stroke-linecap="square">
                    <g transform="translate(-135.000000, -88.000000)" id="Group-2">
                        <g transform="translate(206.000000, 208.000000) rotate(-40.000000) translate(-206.000000, -208.000000) translate(65.000000, 56.000000)">
                            <path d="M2.33679834,150.135802 L279.336126,150.135802" id="Line" stroke="#93DEFC" stroke-width="2" transform="translate(140.792100, 150.135802) scale(-1, 1) translate(-140.792100, -150.135802) "></path>
                            <path d="M2.34193168,146.407407 L279.34126,146.407407" id="Line-Copy-21" stroke="#93DEFC" stroke-width="2" transform="translate(140.797233, 146.407407) scale(-1, 1) translate(-140.797233, -146.407407) "></path>
                            <path d="M2.34706501,142.679012 L279.346393,142.679012" id="Line-Copy-23" stroke="#93DEFC" stroke-width="2" transform="translate(140.802366, 142.679012) scale(-1, 1) translate(-140.802366, -142.679012) "></path>
                            <path d="M2.35219835,138.950617 L279.351526,138.950617" id="Line-Copy-29" stroke="#93DEFC" stroke-width="2" transform="translate(140.807500, 138.950617) scale(-1, 1) translate(-140.807500, -138.950617) "></path>
                            <path d="M2.35733169,135.222222 L279.35666,135.222222" id="Line-Copy-30" stroke="#93DEFC" stroke-width="2" transform="translate(140.812633, 135.222222) scale(-1, 1) translate(-140.812633, -135.222222) "></path>
                            <path d="M2.36246503,131.493827 L279.361793,131.493827" id="Line-Copy-31" stroke="#93DEFC" stroke-width="2" transform="translate(140.817766, 131.493827) scale(-1, 1) translate(-140.817766, -131.493827) "></path>
                            <path d="M2.36759837,127.765432 L279.366926,127.765432" id="Line-Copy-32" stroke="#93DEFC" stroke-width="2" transform="translate(140.822900, 127.765432) scale(-1, 1) translate(-140.822900, -127.765432) "></path>
                            <path d="M2.37273171,124.037037 L279.37206,124.037037" id="Line-Copy-33" stroke="#93DEFC" stroke-width="2" transform="translate(140.828033, 124.037037) scale(-1, 1) translate(-140.828033, -124.037037) "></path>
                            <path d="M2.37786504,120.308642 L279.377193,120.308642" id="Line-Copy-34" stroke="#93DEFC" stroke-width="2" transform="translate(140.833166, 120.308642) scale(-1, 1) translate(-140.833166, -120.308642) "></path>
                            <path d="M2.38299838,116.580247 L279.382326,116.580247" id="Line-Copy-35" stroke="#93DEFC" stroke-width="2" transform="translate(140.838300, 116.580247) scale(-1, 1) translate(-140.838300, -116.580247) "></path>
                            <path d="M2.38813172,112.851852 L279.38746,112.851852" id="Line-Copy-36" stroke="#93DEFC" stroke-width="2" transform="translate(140.843433, 112.851852) scale(-1, 1) translate(-140.843433, -112.851852) "></path>
                            <path d="M2.39326506,109.123457 L279.392593,109.123457" id="Line-Copy-37" stroke="#93DEFC" stroke-width="2" transform="translate(140.848567, 109.123457) scale(-1, 1) translate(-140.848567, -109.123457) "></path>
                            <path d="M2.3983984,105.395062 L279.397726,105.395062" id="Line-Copy-38" stroke="#93DEFC" stroke-width="2" transform="translate(140.853700, 105.395062) scale(-1, 1) translate(-140.853700, -105.395062) "></path>
                            <path d="M2.40353174,101.666667 L279.40286,101.666667" id="Line-Copy-39" stroke="#93DEFC" stroke-width="2" transform="translate(140.858833, 101.666667) scale(-1, 1) translate(-140.858833, -101.666667) "></path>
                            <path d="M2.40866508,97.9382716 L279.407993,97.9382716" id="Line-Copy-40" stroke="#93DEFC" stroke-width="2" transform="translate(140.863967, 97.938272) scale(-1, 1) translate(-140.863967, -97.938272) "></path>
                            <path d="M2.41379841,94.2098765 L279.413126,94.2098765" id="Line-Copy-41" stroke="#93DEFC" stroke-width="2" transform="translate(140.869100, 94.209877) scale(-1, 1) translate(-140.869100, -94.209877) "></path>
                            <path d="M2.41893175,90.4814815 L279.41826,90.4814815" id="Line-Copy-42" stroke="#93DEFC" stroke-width="2" transform="translate(140.874233, 90.481481) scale(-1, 1) translate(-140.874233, -90.481481) "></path>
                            <path d="M2.42406509,86.7530864 L279.423393,86.7530864" id="Line-Copy-43" stroke="#93DEFC" stroke-width="2" transform="translate(140.879367, 86.753086) scale(-1, 1) translate(-140.879367, -86.753086) "></path>
                            <path d="M2.42919843,83.0246914 L279.428526,83.0246914" id="Line-Copy-44" stroke="#93DEFC" stroke-width="2" transform="translate(140.884500, 83.024691) scale(-1, 1) translate(-140.884500, -83.024691) "></path>
                            <path d="M2.43433177,79.2962963 L279.43366,79.2962963" id="Line-Copy-45" stroke="#93DEFC" stroke-width="2" transform="translate(140.889633, 79.296296) scale(-1, 1) translate(-140.889633, -79.296296) "></path>
                            <path d="M2.43946511,75.5679012 L279.438793,75.5679012" id="Line-Copy-46" stroke="#93DEFC" stroke-width="2" transform="translate(140.894767, 75.567901) scale(-1, 1) translate(-140.894767, -75.567901) "></path>
                            <path d="M2.44459844,71.8395062 L279.443926,71.8395062" id="Line-Copy-47" stroke="#93DEFC" stroke-width="2" transform="translate(140.899900, 71.839506) scale(-1, 1) translate(-140.899900, -71.839506) "></path>
                            <path d="M2.44973178,68.1111111 L279.44906,68.1111111" id="Line-Copy-48" stroke="#93DEFC" stroke-width="2" transform="translate(140.905033, 68.111111) scale(-1, 1) translate(-140.905033, -68.111111) "></path>
                            <path d="M2.45486512,64.382716 L279.454193,64.382716" id="Line-Copy-49" stroke="#93DEFC" stroke-width="2" transform="translate(140.910167, 64.382716) scale(-1, 1) translate(-140.910167, -64.382716) "></path>
                            <path d="M2.45999846,60.654321 L279.459326,60.654321" id="Line-Copy-50" stroke="#93DEFC" stroke-width="2" transform="translate(140.915300, 60.654321) scale(-1, 1) translate(-140.915300, -60.654321) "></path>
                            <path d="M2.4651318,56.9259259 L279.46446,56.9259259" id="Line-Copy-51" stroke="#93DEFC" stroke-width="2" transform="translate(140.920433, 56.925926) scale(-1, 1) translate(-140.920433, -56.925926) "></path>
                            <path d="M2.47026514,53.1975309 L279.469593,53.1975309" id="Line-Copy-52" stroke="#93DEFC" stroke-width="2" transform="translate(140.925567, 53.197531) scale(-1, 1) translate(-140.925567, -53.197531) "></path>
                            <path d="M2.47539848,49.4691358 L279.474726,49.4691358" id="Line-Copy-53" stroke="#93DEFC" stroke-width="2" transform="translate(140.930700, 49.469136) scale(-1, 1) translate(-140.930700, -49.469136) "></path>
                            <path d="M2.48053181,45.7407407 L279.47986,45.7407407" id="Line-Copy-54" stroke="#93DEFC" stroke-width="2" transform="translate(140.935833, 45.740741) scale(-1, 1) translate(-140.935833, -45.740741) "></path>
                            <path d="M2.48566515,42.0123457 L279.484993,42.0123457" id="Line-Copy-55" stroke="#93DEFC" stroke-width="2" transform="translate(140.940967, 42.012346) scale(-1, 1) translate(-140.940967, -42.012346) "></path>
                            <path d="M2.49079849,38.2839506 L279.490126,38.2839506" id="Line-Copy-56" stroke="#93DEFC" stroke-width="2" transform="translate(140.946100, 38.283951) scale(-1, 1) translate(-140.946100, -38.283951) "></path>
                            <path d="M2.49593183,34.5555556 L279.49526,34.5555556" id="Line-Copy-57" stroke="#93DEFC" stroke-width="2" transform="translate(140.951233, 34.555556) scale(-1, 1) translate(-140.951233, -34.555556) "></path>
                            <path d="M2.50106517,30.8271605 L279.500393,30.8271605" id="Line-Copy-58" stroke="#93DEFC" stroke-width="2" transform="translate(140.956367, 30.827160) scale(-1, 1) translate(-140.956367, -30.827160) "></path>
                            <path d="M2.50619851,27.0987654 L279.505526,27.0987654" id="Line-Copy-59" stroke="#93DEFC" stroke-width="2" transform="translate(140.961500, 27.098765) scale(-1, 1) translate(-140.961500, -27.098765) "></path>
                            <path d="M2.51133184,23.3703704 L279.51066,23.3703704" id="Line-Copy-60" stroke="#93DEFC" stroke-width="2" transform="translate(140.966633, 23.370370) scale(-1, 1) translate(-140.966633, -23.370370) "></path>
                            <path d="M2.51646518,19.6419753 L279.515793,19.6419753" id="Line-Copy-61" stroke="#93DEFC" stroke-width="2" transform="translate(140.971767, 19.641975) scale(-1, 1) translate(-140.971767, -19.641975) "></path>
                            <path d="M2.52159852,15.9135802 L279.520926,15.9135802" id="Line-Copy-62" stroke="#93DEFC" stroke-width="2" transform="translate(140.976900, 15.913580) scale(-1, 1) translate(-140.976900, -15.913580) "></path>
                            <path d="M2.52673186,12.1851852 L279.52606,12.1851852" id="Line-Copy-63" stroke="#93DEFC" stroke-width="2" transform="translate(140.982033, 12.185185) scale(-1, 1) translate(-140.982033, -12.185185) "></path>
                            <path d="M2.5318652,8.45679012 L279.531193,8.45679012" id="Line-Copy-64" stroke="#93DEFC" stroke-width="2" transform="translate(140.987167, 8.456790) scale(-1, 1) translate(-140.987167, -8.456790) "></path>
                            <path d="M2.53699854,4.72839506 L279.536326,4.72839506" id="Line-Copy-65" stroke="#93DEFC" stroke-width="2" transform="translate(140.992300, 4.728395) scale(-1, 1) translate(-140.992300, -4.728395) "></path>
                            <path d="M2.54213188,1 L279.54146,1" id="Line-Copy-66" stroke="#93DEFC" stroke-width="2" transform="translate(140.997433, 1.000000) scale(-1, 1) translate(-140.997433, -1.000000) "></path>
                            <path d="M2.7320654,165.049383 L279.731393,165.049383" id="Line-Copy-63" stroke="#93DEFC" stroke-width="2" transform="translate(141.187367, 165.049383) scale(-1, 1) translate(-141.187367, -165.049383) "></path>
                            <path d="M2.73719874,161.320988 L279.736527,161.320988" id="Line-Copy-64" stroke="#93DEFC" stroke-width="2" transform="translate(141.192500, 161.320988) scale(-1, 1) translate(-141.192500, -161.320988) "></path>
                            <path d="M2.74233208,157.592593 L279.74166,157.592593" id="Line-Copy-65" stroke="#93DEFC" stroke-width="2" transform="translate(141.197634, 157.592593) scale(-1, 1) translate(-141.197634, -157.592593) "></path>
                            <path d="M2.74746541,153.864198 L279.746793,153.864198" id="Line-Copy-66" stroke="#93DEFC" stroke-width="2" transform="translate(141.202767, 153.864198) scale(-1, 1) translate(-141.202767, -153.864198) "></path>
                        </g>
                    </g>
                </g>
            </g>
        </g>
    </g>
</svg>