<?xml version="1.0" encoding="UTF-8" standalone="no"?>
<svg width="21px" height="21px" viewBox="0 0 21 21" version="1.1" xmlns="http://www.w3.org/2000/svg" xmlns:xlink="http://www.w3.org/1999/xlink">
    <!-- Generator: Sketch 42 (36781) - http://www.bohemiancoding.com/sketch -->
    <title>HELP</title>
    <desc>Created with Sketch.</desc>
    <defs></defs>
    <g id="Symbols" stroke="none" stroke-width="1" fill="none" fill-rule="evenodd">
        <g id="help-CTA-panel" transform="translate(-106.000000, -21.000000)" fill-rule="nonzero" fill="#001CB0">
            <g id="Group-2" transform="translate(106.000000, 21.000000)">
                <path d="M10.5,21 C16.2989899,21 21,16.2989899 21,10.5 C21,4.70101013 16.2989899,0 10.5,0 C4.70101013,0 0,4.70101013 0,10.5 C0,16.2989899 4.70101013,21 10.5,21 Z M10.5,19.0909091 C5.75537192,19.0909091 1.90909091,15.2446281 1.90909091,10.5 C1.90909091,5.75537192 5.75537192,1.90909091 10.5,1.90909091 C15.2446281,1.90909091 19.0909091,5.75537192 19.0909091,10.5 C19.0909091,15.2446281 15.2446281,19.0909091 10.5,19.0909091 Z M10.4344518,16.0454545 C10.0520855,16.0454545 9.72434783,15.9204089 9.45122903,15.6703139 C9.17811022,15.4202188 9.04155287,15.1201093 9.04155287,14.7699762 C9.04155287,14.4198432 9.17811022,14.1197337 9.45122903,13.8696386 C9.72434783,13.6195436 10.0520855,13.4944979 10.4344518,13.4944979 C10.8168181,13.4944979 11.1445558,13.6195436 11.4176746,13.8696386 C11.6907934,14.1197337 11.8273508,14.4198432 11.8273508,14.7699762 C11.8273508,15.1201093 11.6907934,15.4202188 11.4176746,15.6703139 C11.1445558,15.9204089 10.8168181,16.0454545 10.4344518,16.0454545 L10.4344518,16.0454545 Z M9.30374561,12.324059 C9.30374561,11.8838918 9.44849641,11.4637384 9.73800234,11.0635863 C10.0275083,10.6634343 10.3415902,10.3408165 10.6802575,10.0957234 C11.0189248,9.85063026 11.3330067,9.56302528 11.6225127,9.23289984 C11.9120186,8.90277439 12.0567694,8.5726539 12.0567694,8.24252845 C12.0567694,7.8923954 11.9256744,7.62229681 11.6634803,7.43222458 C11.4012862,7.24215236 11.0353125,7.14711767 10.5655482,7.14711767 C9.647869,7.14711767 8.99785599,7.59228016 8.61548966,8.48261848 L6.68181818,7.46223584 C7.00956075,6.72195453 7.53120984,6.14924549 8.24678112,5.74409153 C8.96235239,5.33893758 9.76257849,5.13636364 10.6474834,5.13636364 C11.6416359,5.13636364 12.5019472,5.39895948 13.2284432,5.92415906 C13.9549393,6.44935863 14.3181818,7.17212245 14.3181818,8.09247218 C14.3181818,8.51263184 14.2225917,8.90277424 14.0314085,9.26291109 C13.8402253,9.62304794 13.610809,9.93066022 13.3431526,10.1857572 C13.0754961,10.4408541 12.8078437,10.6809417 12.5401873,10.9060273 C12.2725309,11.1311128 12.0431145,11.3636977 11.8519313,11.6037889 C11.6607482,11.8438802 11.565158,12.0839678 11.565158,12.324059 L9.30374561,12.324059 Z" id="HELP"></path>
            </g>
        </g>
    </g>
</svg>