<?xml version="1.0" encoding="UTF-8" standalone="no"?>
<svg width="26px" height="26px" viewBox="0 0 26 26" version="1.1" xmlns="http://www.w3.org/2000/svg" xmlns:xlink="http://www.w3.org/1999/xlink">
    <!-- Generator: sketchtool 39.1 (31720) - http://www.bohemiancoding.com/sketch -->
    <title>1668A18E-FCF0-4B2B-9C0A-E9C0BFDBA568</title>
    <desc>Created with sketchtool.</desc>
    <defs></defs>
    <g id="Desktop" stroke="none" stroke-width="1" fill="none" fill-rule="evenodd">
        <g id="lg--01-verify--01" transform="translate(-218.000000, -480.000000)">
            <g id="Group-8" transform="translate(120.000000, 481.000000)">
                <g id="Group-6">
                    <g id="ic_account_circle_black_24px" transform="translate(99.000000, 0.000000)">
                        <path d="M12,0 C5.376,0 0,5.376 0,12 C0,18.624 5.376,24 12,24 C18.624,24 24,18.624 24,12 C24,5.376 18.624,0 12,0 L12,0 Z" id="Shape" stroke="#83CE40" stroke-width="2" fill="#83CE40"></path>
                        <path d="M12,20.64 C9,20.64 6.348,19.104 4.8,16.776 C4.836,14.388 9.6,13.08 12,13.08 C14.388,13.08 19.164,14.388 19.2,16.776 C17.652,19.104 15,20.64 12,20.64 L12,20.64 Z" id="Path" fill="#FFFFFF"></path>
                        <path d="M12,3.6 C13.992,3.6 15.6,5.208 15.6,7.2 C15.6,9.192 13.992,10.8 12,10.8 C10.008,10.8 8.4,9.192 8.4,7.2 C8.4,5.208 10.008,3.6 12,3.6 L12,3.6 Z" id="Path" fill="#FFFFFF"></path>
                    </g>
                </g>
            </g>
        </g>
    </g>
</svg>