<?xml version="1.0" encoding="UTF-8" standalone="no"?>
<svg width="69px" height="68px" viewBox="0 0 69 68" version="1.1" xmlns="http://www.w3.org/2000/svg" xmlns:xlink="http://www.w3.org/1999/xlink">
    <!-- Generator: sketchtool 39.1 (31720) - http://www.bohemiancoding.com/sketch -->
    <title>46CE1D2F-0AA9-4404-B3A1-96C1339F2D22</title>
    <desc>Created with sketchtool.</desc>
    <defs>
        <polygon id="path-1" points="0 0.115668 0 14.909068 12.9766715 14.909068 12.9766715 0.115668 0 0.115668"></polygon>
        <polygon id="path-3" points="5.957528 14.908524 5.957528 0.115124 0.378362266 0.115124 0.378362266 14.908524 5.957528 14.908524"></polygon>
    </defs>
    <g id="Icons" stroke="none" stroke-width="1" fill="none" fill-rule="evenodd">
        <g id="specs--icons" transform="translate(-776.000000, -423.000000)">
            <g id="ico--directDebit--payPal" transform="translate(776.000000, 423.000000)">
                <path d="M51.5741032,11.20708 C52.116507,7.77648 51.5699889,5.44068 49.699347,3.3252 C47.6367038,0.99688 43.915306,0 39.1523007,0 L25.3261455,0 C24.35311,0 23.5233898,0.70176 23.3732173,1.65648 L17.6138622,37.8556 C17.5007185,38.57232 18.0575224,39.21832 18.7857562,39.21832 L27.3222739,39.21832 L27.5595327,37.72436 L27.5595327,37.72436 L29.3986315,26.1562 C29.5508612,25.20284 30.371667,24.50176 31.3460739,24.50176 L35.4027884,24.50176 C35.8923919,24.50176 36.3751382,24.48884 36.8510273,24.46368 C37.0697717,24.45212 37.2816589,24.429 37.4969747,24.412 C37.7486336,24.39228 38.0037212,24.37732 38.2505801,24.35012 C38.5365249,24.31816 38.8135555,24.2726 39.0926432,24.23044 C39.2606444,24.20528 39.4327599,24.18624 39.5987039,24.157 C39.9189348,24.10056 40.2302512,24.02916 40.5415677,23.95776 C40.65814,23.93056 40.7781408,23.91016 40.8933417,23.88092 C41.2327726,23.79592 41.5626036,23.69528 41.8903773,23.59192 C41.9706065,23.56608 42.0535785,23.54568 42.1324362,23.51916 C42.4814672,23.40288 42.8202125,23.27028 43.1548434,23.13088 C43.2069581,23.10912 43.2611299,23.09076 43.3132446,23.06832 C43.6643328,22.91736 44.0051352,22.7494 44.3390804,22.57124 C44.3699378,22.55492 44.4021666,22.54132 44.4323382,22.52432 C44.7793121,22.33664 45.1153145,22.13128 45.4424025,21.913 C45.4574883,21.9028 45.4732599,21.89396 45.4883457,21.88376 C45.8257195,21.65732 46.1507504,21.41252 46.4654955,21.15208 C46.4689241,21.14936 46.4730384,21.14596 46.4771527,21.14324 C48.7187686,19.28684 50.3768375,16.56004 51.2559295,12.7568 L51.2559295,12.7568 C51.3135299,12.50656 51.3800447,12.26992 51.4307879,12.01084 C51.4856454,11.73612 51.5315886,11.46888 51.5727317,11.20708 L51.5741032,11.20708 Z" id="Fill-1" fill="#253B80"></path>
                <path d="M51.5725946,11.20708 L51.5725946,11.20708 C51.5314515,11.46888 51.4841368,11.73612 51.4313365,12.01084 C49.6080092,21.2942 43.3693364,24.50176 35.4026513,24.50176 L31.3459368,24.50176 C30.3715298,24.50176 29.550724,25.20284 29.3991801,26.1562 L27.3221368,39.21832 L26.7337897,42.92092 C26.6350462,43.54652 27.1212211,44.11092 27.7582542,44.11092 L34.9528195,44.11092 C35.8051684,44.11092 36.5286021,43.49688 36.6630031,42.6632 L36.7336321,42.30076 L38.0879275,33.77628 L38.1750138,33.30844 C38.3080433,32.47204 39.0328485,31.85868 39.8851974,31.85868 L40.9610907,31.85868 C47.9314259,31.85868 53.3883789,29.05164 54.9833617,20.9304 C55.6498807,17.53788 55.304964,14.705 53.54198,12.7126 C53.0084905,12.11216 52.3467715,11.61372 51.5725946,11.20708" id="Fill-3" fill="#179BD7"></path>
                <path d="M49.6651982,10.452824 C49.3867962,10.372584 49.0994799,10.299144 48.8046207,10.233864 C48.50839,10.169264 48.2046164,10.112144 47.8919285,10.062504 C46.7982064,9.887064 45.5995694,9.804104 44.3159031,9.804104 L33.4787976,9.804104 C33.2120529,9.804104 32.9583368,9.863944 32.7313637,9.972064 C32.2321602,10.210064 31.8605004,10.679264 31.7706712,11.253864 L29.4652834,25.733784 L29.3987687,26.156064 C29.5509983,25.203384 30.3718041,24.501624 31.346211,24.501624 L35.4022398,24.501624 C43.3696107,24.501624 49.6075978,21.292704 51.430925,12.010704 C51.4857826,11.735984 51.53104,11.468744 51.5728689,11.206944 C51.1113799,10.964184 50.6114906,10.756784 50.0732011,10.579984 C49.9408573,10.536464 49.8037135,10.493624 49.6651982,10.452824" id="Fill-5" fill="#222D65"></path>
                <g id="Group-9" transform="translate(0.000000, 49.236488)">
                    <mask id="mask-2" fill="white">
                        <use xlink:href="#path-1"></use>
                    </mask>
                    <g id="Clip-8"></g>
                    <path d="M8.90481749,5.103468 C8.61132969,7.014268 7.13909067,7.014268 5.71485199,7.014268 L4.90501767,7.014268 L5.47347885,3.445628 C5.50707909,3.230068 5.69565185,3.070948 5.91508198,3.070948 L6.28674176,3.070948 C7.25634864,3.070948 8.17109799,3.070948 8.64424421,3.619028 C8.92607478,3.946108 9.01247539,4.432308 8.90481749,5.103468 M8.28492737,0.115668 L2.91506069,0.115668 C2.54751522,0.115668 2.23482729,0.380868 2.1779126,0.740588 L0.00555432514,14.396348 C-0.0376459815,14.665628 0.172869798,14.909068 0.448528898,14.909068 L3.01243281,14.909068 C3.37997827,14.909068 3.69266621,14.643868 3.7495809,14.283468 L4.33518505,10.600588 C4.39209974,10.239508 4.7054734,9.974988 5.07233314,9.974988 L6.77223092,9.974988 C10.309856,9.974988 12.3512419,8.277708 12.8847314,4.913748 C13.1247332,3.441548 12.8943315,2.285548 12.199698,1.475668 C11.4364926,0.586228 10.082883,0.115668 8.28492737,0.115668" id="Fill-7" fill="#253B80" mask="url(#mask-2)"></path>
                </g>
                <path d="M20.7533587,59.241872 C20.5051284,60.699112 19.3394058,61.676952 17.852081,61.676952 C17.1053328,61.676952 16.5080715,61.439632 16.1254402,60.989472 C15.744866,60.542032 15.600865,59.906232 15.7215516,59.197672 C15.9533247,57.753352 17.1389331,56.742872 18.6036292,56.742872 C19.3339201,56.742872 19.9270671,56.983592 20.3186128,57.437832 C20.7101584,57.896152 20.8658167,58.536712 20.7533587,59.241872 M24.3382985,54.278552 L21.7661659,54.278552 C21.5474215,54.278552 21.358163,54.436992 21.3245628,54.653232 L21.2100477,55.366552 L21.0303893,55.107472 C20.4735853,54.306432 19.2324336,54.038512 17.9933391,54.038512 C15.151719,54.038512 12.7242732,56.173032 12.2518127,59.167072 C12.0056395,60.660352 12.3553563,62.089032 13.2097623,63.084552 C13.9928536,64.000512 15.1146901,64.381992 16.4484139,64.381992 C18.7387159,64.381992 20.007982,62.922032 20.007982,62.922032 L19.8934669,63.630592 C19.8502666,63.901912 20.0607824,64.144672 20.33507,64.144672 L22.6514293,64.144672 C23.0196605,64.144672 23.3302913,63.879472 23.3885774,63.519072 L24.7785301,54.790592 C24.8224162,54.521992 24.6125861,54.278552 24.3382985,54.278552" id="Fill-10" fill="#253B80"></path>
                <path d="M38.0342357,54.278484 L35.4497602,54.278484 C35.203587,54.278484 34.9718139,54.400204 34.8319272,54.603524 L31.2675591,59.809604 L29.7569198,54.806164 C29.6622905,54.493364 29.3708599,54.278484 29.041029,54.278484 L26.5011252,54.278484 C26.1925516,54.278484 25.9786072,54.577684 26.0766651,54.865324 L28.9230853,63.149084 L26.2467234,66.895884 C26.0362076,67.191004 26.2487806,67.596284 26.6122117,67.596284 L29.1932586,67.596284 C29.4380604,67.596284 29.6677763,67.477964 29.8062915,67.278724 L38.4017811,54.975484 C38.6074969,54.681044 38.3962954,54.278484 38.0342357,54.278484" id="Fill-12" fill="#253B80"></path>
                <path d="M47.2098436,54.339956 C46.9170416,56.250756 45.4448025,56.250756 44.0198781,56.250756 L43.2107295,56.250756 L43.7798764,52.682116 C43.8134767,52.466556 44.000678,52.307436 44.2214796,52.307436 L44.5924536,52.307436 C45.5613748,52.307436 46.4774956,52.307436 46.9499561,52.855516 C47.2317867,53.182596 47.3175015,53.668796 47.2098436,54.339956 M46.5899535,49.352156 L41.2194011,49.352156 C40.8525414,49.352156 40.5398534,49.617356 40.4829388,49.977076 L38.3105805,63.632836 C38.2673802,63.902116 38.477896,64.145556 38.7521836,64.145556 L41.5080889,64.145556 C41.7638621,64.145556 41.9832923,63.959916 42.023064,63.707636 L42.6395255,59.837076 C42.6964402,59.475996 43.0098138,59.211476 43.3759879,59.211476 L45.0751999,59.211476 C48.6141965,59.211476 50.6548967,57.514196 51.1883862,54.150236 C51.4297593,52.678036 51.1979862,51.522036 50.5033527,50.712156 C49.740833,49.822716 48.3879091,49.352156 46.5899535,49.352156" id="Fill-14" fill="#179BD7"></path>
                <path d="M59.057562,59.241872 C58.8107031,60.699112 57.6436091,61.676952 56.1562843,61.676952 C55.4109076,61.676952 54.8122747,61.439632 54.4296435,60.989472 C54.0490693,60.542032 53.9064397,59.906232 54.0257549,59.197672 C54.2588994,57.753352 55.4431364,56.742872 56.9078325,56.742872 C57.6381234,56.742872 58.2312704,56.983592 58.6228161,57.437832 C59.0157331,57.896152 59.1713914,58.536712 59.057562,59.241872 M62.6425017,54.278552 L60.0724264,54.278552 C59.8516248,54.278552 59.6637377,54.436992 59.6308232,54.653232 L59.5169938,55.366552 L59.3366497,55.107472 C58.7798458,54.306432 57.5386941,54.038512 56.2995996,54.038512 C53.4579794,54.038512 51.0319051,56.173032 50.5587588,59.167072 C50.3139571,60.660352 50.6616167,62.089032 51.5160228,63.084552 C52.3011712,64.000512 53.4209506,64.381992 54.7553601,64.381992 C57.0449763,64.381992 58.3149282,62.922032 58.3149282,62.922032 L58.1997274,63.630592 C58.1572128,63.901912 58.3670428,64.144672 58.6427019,64.144672 L60.9583755,64.144672 C61.3252353,64.144672 61.6379232,63.879472 61.6955236,63.519072 L63.086162,54.790592 C63.1279909,54.521992 62.9181608,54.278552 62.6425017,54.278552" id="Fill-16" fill="#179BD7"></path>
                <g id="Group-20" transform="translate(63.086162, 49.236488)">
                    <mask id="mask-4" fill="white">
                        <use xlink:href="#path-3"></use>
                    </mask>
                    <g id="Clip-19"></g>
                    <path d="M2.58790408,0.490484 L0.384002725,14.396484 C0.340802419,14.665764 0.551318199,14.908524 0.824920141,14.908524 L3.04116444,14.908524 C3.40939563,14.908524 3.72208356,14.644004 3.77831253,14.283604 L5.95204224,0.628524 C5.99524255,0.358564 5.78472677,0.115124 5.51043911,0.115124 L3.02950722,0.115124 C2.81007709,0.115804 2.62150432,0.274924 2.58790408,0.490484" id="Fill-18" fill="#179BD7" mask="url(#mask-4)"></path>
                </g>
            </g>
        </g>
    </g>
</svg>