<?xml version="1.0" encoding="UTF-8" standalone="no"?>
<svg width="38px" height="24px" viewBox="0 0 38 24" version="1.1" xmlns="http://www.w3.org/2000/svg" xmlns:xlink="http://www.w3.org/1999/xlink">
    <!-- Generator: sketchtool 39.1 (31720) - http://www.bohemiancoding.com/sketch -->
    <title>5A293937-0BFC-4822-AE55-854D91D89A0D</title>
    <desc>Created with sketchtool.</desc>
    <defs>
        <rect id="path-1" x="0" y="0" width="37.993809" height="23.860112" rx="3"></rect>
        <mask id="mask-2" maskContentUnits="userSpaceOnUse" maskUnits="objectBoundingBox" x="0" y="0" width="37.993809" height="23.860112" fill="white">
            <use xlink:href="#path-1"></use>
        </mask>
    </defs>
    <g id="Icons" stroke="none" stroke-width="1" fill="none" fill-rule="evenodd">
        <g id="specs--icons" transform="translate(-916.000000, -254.000000)">
            <g id="ico--masterCard" transform="translate(916.000000, 254.000000)">
                <g id="Slice-1">
                    <g id="Group">
                        <use id="Rectangle-path" stroke="#CDD2D9" mask="url(#mask-2)" fill="#F8F8F8" xlink:href="#path-1"></use>
                        <path d="M21.9861561,11.930056 C21.9861561,16.9524323 17.9147395,21.0234436 12.8925658,21.0234436 C7.8703922,21.0234436 3.7993809,16.9524323 3.7993809,11.930056 C3.7993809,6.90813566 7.8703922,2.83666844 12.8925658,2.83666844 C17.9146888,2.83666844 21.9861561,6.908085 21.9861561,11.930056" id="Shape" fill="#D9222A"></path>
                        <path d="M25.1008379,2.83666844 C22.7513007,2.83666844 20.6103749,3.72805385 18.9964992,5.19056221 C18.6678274,5.4886363 18.3609388,5.81051985 18.0783155,6.1528694 L19.9154935,6.1528694 C20.1667592,6.45833962 20.3980148,6.77951395 20.6087032,7.11603778 L17.3851058,7.11603778 C17.1919959,7.42530739 17.0165658,7.74658304 16.8612978,8.0790542 L21.1323085,8.0790542 C21.2782047,8.39095804 21.4069784,8.71203105 21.5173125,9.041716 L16.4762939,9.041716 C16.371127,9.35539289 16.2826774,9.6764659 16.2119583,10.0047324 L21.7814454,10.0047324 C21.9150316,10.625298 21.9861054,11.2694197 21.9861054,11.9301067 C21.9861054,12.9398808 21.8213136,13.9115091 21.5173631,14.8186493 L16.4762432,14.8186493 C16.5864253,15.1485876 16.7151483,15.4698632 16.8609939,15.7816657 L21.1323592,15.7816657 C20.9765846,16.1140862 20.8015597,16.4353112 20.6082472,16.7447835 L17.3851058,16.7447835 C17.5955408,17.0806487 17.8273537,17.4023296 18.0783155,17.7070907 L19.9150882,17.7070907 C19.6329208,18.0500481 19.3257789,18.3723876 18.9966512,18.6702084 C20.6106282,20.1325648 22.7513514,21.0234943 25.1008379,21.0234943 C30.1230115,21.0234436 34.1944281,16.9524323 34.1944281,11.930056 C34.1944281,6.90828764 30.1230115,2.83666844 25.1008379,2.83666844" id="Shape" fill="#EE9F2D"></path>
                        <path d="M10.7693198,12.9346528 C10.6657234,12.9155712 10.6201308,12.9104989 10.5489557,12.9104989 C9.98943357,12.9104989 9.70615173,13.2154814 9.70615173,13.8176365 C9.70615173,14.189042 9.84444919,14.4252665 10.0601021,14.4252665 C10.4622285,14.4252665 10.752096,13.8165898 10.7693198,12.9347333 L10.7693198,12.9346528 Z M11.4871495,14.5972214 L10.6692695,14.5972214 L10.6880131,14.2084181 C10.438571,14.5157627 10.1056946,14.6618109 9.65336566,14.6618109 C9.11831152,14.6618109 8.7514433,14.243879 8.7514433,13.6369912 C8.7514433,12.723924 9.38953665,12.1912001 10.4848222,12.1912001 C10.5967773,12.1912001 10.7402419,12.2013318 10.8871513,12.2200754 C10.9177996,12.0963676 10.9258037,12.0434295 10.9258037,11.976915 C10.9258037,11.7282836 10.7537677,11.6355787 10.2925735,11.6355787 C9.80964687,11.6301076 9.41131977,11.7505733 9.24774376,11.8044738 C9.25807808,11.7422653 9.38452147,10.9606566 9.38452147,10.9606566 C9.87651597,10.8164828 10.2009831,10.7622276 10.5661289,10.7622276 C11.4137961,10.7622276 11.8627816,11.1427736 11.8619711,11.8621231 C11.8635922,12.0548783 11.831728,12.2927196 11.7819308,12.605282 C11.6962168,13.1488467 11.5124281,14.3133823 11.4872508,14.5972721 L11.4871495,14.5972214 Z M8.33837461,14.5972214 L7.35114347,14.5972214 L7.91664333,11.0513352 L6.65398241,14.5972214 L5.9812387,14.5972214 L5.8981589,11.0715986 L5.3037331,14.5972214 L4.37962235,14.5972214 L5.15155523,9.98457036 L6.57100393,9.98457036 L6.65712323,12.5664776 L7.52297681,9.98457036 L9.10184753,9.98457036 L8.33837461,14.5972214 L8.33837461,14.5972214 Z M26.3208444,12.9346528 C26.2176532,12.9155712 26.1718073,12.9104989 26.1008856,12.9104989 C25.5416167,12.9104989 25.2582842,13.2154814 25.2582842,13.8176365 C25.2582842,14.189042 25.3963284,14.4252665 25.6120319,14.4252665 C26.0141584,14.4252665 26.3041778,13.8165898 26.3208444,12.9347333 L26.3208444,12.9346528 Z M27.0393326,14.5972214 L26.2214526,14.5972214 L26.2399936,14.2084181 C25.9904502,14.5157627 25.6574218,14.6618109 25.2054475,14.6618109 C24.6701907,14.6618109 24.3037277,14.243879 24.3037277,13.6369912 C24.3037277,12.723924 24.9414158,12.1912001 26.036904,12.1912001 C26.1488591,12.1912001 26.2921211,12.2013318 26.4388278,12.2200754 C26.4694255,12.0963676 26.4774802,12.0434295 26.4774802,11.976915 C26.4774802,11.7282836 26.3056469,11.6355787 25.8444527,11.6355787 C25.3615767,11.6301076 24.9636549,11.7505733 24.799471,11.8044738 C24.8098053,11.7422653 24.9366539,10.9606566 24.9366539,10.9606566 C25.4286991,10.8164828 25.7529129,10.7622276 26.1176535,10.7622276 C26.9656753,10.7622276 27.4147115,11.1427736 27.4138503,11.8621231 C27.415522,12.0548783 27.3836579,12.2927196 27.33381,12.605282 C27.2486025,13.1488467 27.0643072,14.3133823 27.0393833,14.5972721 L27.0393326,14.5972214 Z M15.8746746,14.5402307 C15.6044626,14.6253368 15.3938249,14.6618109 15.1654568,14.6618109 C14.6607471,14.6618109 14.3853173,14.3717915 14.3853173,13.8377505 C14.3781238,13.6720975 14.4579108,13.2359286 14.5205752,12.8379054 C14.5775659,12.4875518 14.9486388,10.2782372 14.9486388,10.2782372 L15.9298922,10.2782372 L15.8154042,10.8460167 L16.4081077,10.8460167 L16.2742175,11.7475338 L15.6793864,11.7475338 C15.565405,12.4609562 15.4030954,13.349606 15.4012717,13.4673868 C15.4012717,13.66075 15.5044122,13.7451469 15.7391633,13.7451469 C15.851625,13.7451469 15.9387575,13.7336981 16.0053226,13.709686 L15.8746239,14.5402307 L15.8746746,14.5402307 Z M18.8833283,14.5098356 C18.5462472,14.6128242 18.2209696,14.6626721 17.8762391,14.6618109 C16.7778634,14.6607977 16.2052207,14.0870405 16.2052207,12.9884116 C16.2052207,11.7060952 16.9336887,10.762177 17.9225409,10.762177 C18.7315557,10.762177 19.2482715,11.2906962 19.2482715,12.1196198 C19.2482715,12.394695 19.2128106,12.6631846 19.1273499,13.0422108 L17.1732017,13.0422108 C17.1071431,13.5863835 17.455369,13.8130798 18.0261373,13.8130798 C18.3774028,13.8130798 18.6942205,13.7407396 19.0464991,13.5769103 L18.8832777,14.5098863 L18.8833283,14.5098356 Z M18.3318102,13.1311467 C18.3373826,12.9544219 18.4359132,11.6163791 17.8752766,11.6163791 C17.5627142,11.6163791 17.3391586,12.1554929 17.2481254,13.1311467 L18.3318608,13.1311467 L18.3318102,13.1311467 Z M12.0792957,12.0317781 C12.0792957,12.5062955 12.3092849,12.8334475 12.8310665,13.0791408 C13.2309134,13.2670835 13.2927673,13.3228077 13.2927673,13.49302 C13.2927673,13.7269605 13.116476,13.8324314 12.7257983,13.8324314 C12.4313717,13.8324314 12.157411,13.7864842 11.8414038,13.6845088 C11.8414038,13.6845088 11.7115663,14.5112541 11.7056392,14.5507676 C11.930056,14.5997543 12.1301567,14.6451443 12.7329918,14.6618109 C13.7746301,14.6618109 14.2556824,14.2651555 14.2556824,13.4080152 C14.2556824,12.8925658 14.0543152,12.5900845 13.5597878,12.3627802 C13.1459086,12.1728111 13.098391,12.1303594 13.098391,11.9551826 C13.098391,11.7523463 13.2624229,11.6489018 13.5815709,11.6489018 C13.7753393,11.6489018 14.0400295,11.6695705 14.2907887,11.7052846 L14.4313658,10.8352264 C14.1757434,10.7946997 13.7882066,10.762177 13.562574,10.762177 C12.4582206,10.762177 12.0759522,11.3390243 12.0792957,12.0317781 L12.0792957,12.0317781 Z M23.6844793,10.8607583 C23.9586933,10.8607583 24.2143663,10.9326932 24.5665942,11.1099976 L24.7280426,10.1088861 C24.5834635,10.0521487 24.0743465,9.71881633 23.643142,9.71881633 C22.982455,9.71881633 22.423946,10.0465763 22.0311914,10.5876081 C21.4582447,10.3978417 21.2226831,10.7813765 20.9339302,11.1634423 L20.6774973,11.2232192 C20.6968995,11.0973837 20.7144779,10.9724601 20.7085509,10.845966 L19.801968,10.845966 C19.6780575,12.0069048 19.4585039,13.1828385 19.2867719,14.3451958 L19.2419392,14.5972214 L20.2295756,14.5972214 C20.3944181,13.5262013 20.4847927,12.8403877 20.5396051,12.3762553 L20.9115898,12.169417 C20.9671114,11.9627307 21.1410724,11.8929234 21.4899062,11.9013327 C21.4443137,12.1462155 21.4198457,12.4037122 21.4198457,12.67053 C21.4198457,13.8977301 22.0819511,14.6618109 23.1447646,14.6618109 C23.418472,14.6618109 23.653375,14.6257421 24.0171024,14.5271608 L24.1908608,13.4754922 C23.8636075,13.6365859 23.5951179,13.7123709 23.3519575,13.7123709 C22.778099,13.7123709 22.4308356,13.2887653 22.4308356,12.5886154 C22.4308356,11.5729142 22.9473488,10.8607583 23.6844287,10.8607583 L23.6844793,10.8607583 Z" id="Shape" fill="#000000"></path>
                        <polyline id="Shape" fill="#FFFFFF" points="8.62246698 14.48324 7.63513453 14.48324 8.20098899 10.8147759 6.93827742 14.48324 6.26543239 14.48324 6.18220062 10.8357422 5.58782547 14.48324 4.66371472 14.48324 5.4356476 9.71121757 6.85509631 9.71121757 6.89501513 12.6655189 7.85266175 9.71121757 9.38593991 9.71121757 8.62241632 14.48324"></polyline>
                        <path d="M32.0424587,9.98457139 L31.8236144,11.3442998 C31.5536051,10.9818847 31.2636363,10.7195835 30.88076,10.7195835 C30.3825852,10.7195835 29.9291924,11.1048433 29.6324354,11.6718792 C29.2191641,11.5844282 28.7917084,11.4360406 28.7917084,11.4360406 L28.7915058,11.4394519 C28.824839,11.1224679 28.8381115,10.9290627 28.8351733,10.8633711 L27.9283878,10.8633711 C27.8049332,12.0478357 27.5854303,13.2475992 27.4137996,14.433511 L27.3686123,14.6906438 L28.3560461,14.6906438 C28.4894297,13.8070374 28.5916077,13.0733174 28.6667341,12.4914479 C29.0041192,12.1804594 29.172913,11.9091133 29.5137428,11.927203 C29.362882,12.2995933 29.2744324,12.7285786 29.2744324,13.1685211 C29.2744324,14.1253651 29.7488991,14.7565421 30.4665768,14.7565421 C30.8282779,14.7565421 31.105886,14.6292937 31.3767059,14.3342758 L31.3304547,14.6900235 L32.2643426,14.6900235 L33.0162147,9.9845197 L32.04256,9.9845197 L32.0424587,9.98457139 Z M30.8079132,13.8062621 C30.471896,13.8062621 30.3021903,13.5524888 30.3021903,13.0518681 C30.3021903,12.299645 30.6198185,11.7662043 31.0677402,11.7662043 C31.4068983,11.7662043 31.590535,12.0300044 31.590535,12.51605 C31.590535,13.2747855 31.2678409,13.8062621 30.8078626,13.8062621 L30.8079132,13.8062621 Z" id="Shape" fill="#000000"></path>
                        <path d="M11.0532602,12.6524316 C10.9498157,12.6403561 10.9040205,12.6371461 10.8330988,12.6371461 C10.2735259,12.6371461 9.99044674,12.8301502 9.99044674,13.211216 C9.99044674,13.4457964 10.1287442,13.5956956 10.3440425,13.5956956 C10.7465235,13.5956956 11.0363403,13.2106555 11.0532602,12.6524825 L11.0532602,12.6524316 Z M11.7715965,14.3232607 L10.9536151,14.3232607 L10.9722068,13.9350653 C10.7229674,14.2417007 10.389635,14.3884581 9.93776199,14.3884581 C9.40240389,14.3884581 9.03578896,13.9705262 9.03578896,13.3636384 C9.03578896,12.4501153 9.67357837,11.917746 10.7691172,11.917746 C10.8810723,11.917746 11.0245369,11.9278777 11.1712437,11.9466213 C11.201892,11.8230148 11.209896,11.7700261 11.209896,11.7031063 C11.209896,11.4545255 11.038164,11.3622765 10.5768685,11.3622765 C10.0937392,11.3567041 9.69566544,11.4772711 9.53178548,11.5304625 C9.54217045,11.4684059 9.66856319,10.6876585 9.66856319,10.6876585 C10.1604564,10.5428767 10.4852781,10.4885709 10.8500187,10.4885709 C11.6978885,10.4885709 12.147026,10.8694208 12.1462155,11.5881117 C12.1477352,11.7816269 12.1155671,12.0193161 12.0659725,12.3315239 C11.9805118,12.8748354 11.7964698,14.0399789 11.7715458,14.3232607 L11.7715965,14.3232607 Z M25.0123883,9.83533068 L24.8506866,10.8366955 C24.4986107,10.6595937 24.2427857,10.5874561 23.968825,10.5874561 C23.2317451,10.5874561 22.7150293,11.2995614 22.7150293,12.3152626 C22.7150293,13.0153618 23.0624447,13.4388662 23.6361512,13.4388662 C23.8793116,13.4388662 24.1475479,13.3632838 24.4746999,13.2019874 L24.3014481,14.2531495 C23.9375181,14.35244 23.7028177,14.3884074 23.4288063,14.3884074 C22.3662461,14.3884074 21.7038874,13.6243773 21.7038874,12.3971772 C21.7038874,10.7482459 22.6187783,9.59576705 23.9271838,9.59576705 C24.3581855,9.59576705 24.8675559,9.77864392 25.0122869,9.83538134 L25.0123883,9.83533068 Z M26.6051901,12.6524316 C26.5017456,12.6403561 26.456153,12.6371461 26.3850286,12.6371461 C25.8256584,12.6371461 25.5423766,12.8301502 25.5423766,13.211216 C25.5423766,13.4457964 25.680674,13.5956956 25.8961749,13.5956956 C26.2982507,13.5956956 26.5882701,13.2106555 26.6051901,12.6524825 L26.6051901,12.6524316 Z M27.3235263,14.3232607 L26.505393,14.3232607 L26.5241366,13.9350653 C26.2746439,14.2417007 25.9415649,14.3884581 25.4896918,14.3884581 C24.9545364,14.3884581 24.5877188,13.9705262 24.5877188,13.3636384 C24.5877188,12.4501153 25.2257615,11.917746 26.3208444,11.917746 C26.4329515,11.917746 26.5762641,11.9278777 26.7231735,11.9466213 C26.7535685,11.8230148 26.7617752,11.7700261 26.7617752,11.7031063 C26.7617752,11.4545255 26.5899419,11.3622765 26.128697,11.3622765 C25.6457704,11.3567041 25.247494,11.4772711 25.083614,11.5304625 C25.093999,11.4684059 25.220645,10.6876585 25.220645,10.6876585 C25.7125382,10.5428767 26.0371066,10.4885709 26.4018472,10.4885709 C27.2499703,10.4885709 27.6989052,10.8694208 27.6978413,11.5881117 C27.6995637,11.7816269 27.6676996,12.0193161 27.6178011,12.3315239 C27.5325936,12.8748354 27.3480957,14.0399789 27.3234757,14.3232607 L27.3235263,14.3232607 Z M16.158767,14.266422 C15.8883523,14.3515281 15.6777147,14.3885087 15.4495492,14.3885087 C14.9448394,14.3885087 14.6694096,14.0984387 14.6694096,13.5644484 C14.6624188,13.3982888 14.7422058,12.9626264 14.8049209,12.5645526 C14.8616583,12.2137431 15.2327818,10.0046311 15.2327818,10.0046311 L16.2138326,10.0046311 L16.099446,10.5726132 L16.6030919,10.5726132 L16.4690497,11.473725 L15.9637321,11.473725 C15.8497506,12.1875021 15.6869852,13.075544 15.6853134,13.1935781 C15.6853134,13.3875998 15.7886566,13.4713382 16.023205,13.4713382 C16.1356667,13.4713382 16.2226472,13.4603453 16.2893643,13.4362826 L16.1586656,14.2664726 L16.158767,14.266422 Z M19.1674714,14.2365335 C18.8305929,14.3395221 18.5048593,14.3891166 18.1603821,14.3885087 C17.0619558,14.3873943 16.4893131,13.8136877 16.4893131,12.7150588 C16.4893131,11.4323878 17.2177811,10.4886216 18.2066333,10.4886216 C19.0156481,10.4886216 19.5323639,11.0169888 19.5323639,11.846267 C19.5323639,12.1214942 19.496903,12.3899837 19.4116956,12.768858 L17.4575473,12.768858 C17.3914381,13.3130307 17.7397147,13.539879 18.310483,13.539879 C18.6615458,13.539879 18.9785661,13.4673362 19.3305914,13.3031016 L19.1674714,14.2364829 L19.1674714,14.2365335 Z M18.6156999,12.3009679 C18.621627,12.189426 18.7199549,11.3424184 18.1591157,11.3424184 C17.8467559,11.3424184 17.6231497,11.684514 17.5322178,12.3009679 L18.6156999,12.3009679 L18.6156999,12.3009679 Z M12.3633881,11.758476 C12.3633881,12.2329427 12.5934786,12.5596894 13.1152602,12.8058386 C13.5149551,12.99368 13.5768597,13.0496069 13.5768597,13.2197179 C13.5768597,13.4536078 13.4004164,13.5591292 13.010144,13.5591292 C12.7155147,13.5591292 12.441554,13.5131314 12.1253442,13.4112067 C12.1253442,13.4112067 11.9959626,14.2379519 11.9900862,14.2774655 C12.2139964,14.3264015 12.4142998,14.3711836 13.0171349,14.3884074 C14.0590264,14.3884074 14.5399267,13.9918534 14.5399267,13.134865 C14.5399267,12.6191624 14.3387115,12.3167317 13.8438802,12.0894274 C13.4302036,11.8990531 13.382382,11.8572599 13.382382,11.6818298 C13.382382,11.4791961 13.5467179,11.3749411 13.8656633,11.3749411 C14.0591784,11.3749411 14.3239193,11.3962177 14.5750837,11.4319318 L14.7154075,10.5616203 C14.4600891,10.5210936 14.0725522,10.4886722 13.846869,10.4886722 C12.742313,10.4886722 12.3602979,11.0650636 12.3634387,11.758476 L12.3633881,11.758476 Z M32.5484349,14.3232607 L31.6143951,14.3232607 L31.6608996,13.9741229 C31.3900797,14.2637371 31.1125223,14.3885087 30.7507199,14.3885087 C30.0330928,14.3885087 29.5588288,13.7698176 29.5588288,12.8319784 C29.5588288,11.5842617 30.2943889,10.5324917 31.1651057,10.5324917 C31.547982,10.5324917 31.8378494,10.6889249 32.1075548,11.0439391 L32.3266524,9.71121757 L33.3003071,9.71121757 L32.5484349,14.3232607 L32.5484349,14.3232607 Z M31.0922589,13.4564953 C31.551984,13.4564953 31.8749314,12.9356255 31.8749314,12.1924159 C31.8749314,11.7159736 31.6910413,11.4573624 31.3518833,11.4573624 C30.9041642,11.4573624 30.58608,11.9800559 30.58608,12.717541 C30.58608,13.2082691 30.7562923,13.4564953 31.0923096,13.4564953 L31.0922589,13.4564953 Z M28.2126828,10.5726132 C28.0890763,11.733552 27.8695227,12.9094858 27.697892,14.0712351 L27.652806,14.3232607 L28.6401385,14.3232607 C28.9932276,12.0297011 29.0788403,11.5817794 29.6324354,11.6378583 C29.7206824,11.1685081 29.8848663,10.7573138 30.0073077,10.5498169 C29.5937831,10.4636976 29.3629327,10.6973849 29.0606033,11.1412539 C29.0844127,10.9493598 29.1281816,10.7629369 29.119519,10.5725625 L28.2127334,10.5725625 L28.2126828,10.5726132 Z M20.0860603,10.5726132 C19.9621499,11.733552 19.7425963,12.9094858 19.5710163,14.0712351 L19.5260823,14.3232607 L20.5139213,14.3232607 C20.8666051,12.0297011 20.9519139,11.5817794 21.5053064,11.6378583 C21.5939586,11.1685081 21.7581932,10.7573138 21.8801787,10.5498169 C21.46711,10.4636976 21.2360063,10.6973849 20.9339808,11.1412539 C20.9577903,10.9493598 21.0011032,10.7629369 20.9928459,10.5725625 L20.0860603,10.5725625 L20.0860603,10.5726132 Z" id="Shape" fill="#FFFFFF"></path>
                    </g>
                </g>
            </g>
        </g>
    </g>
</svg>