<?xml version="1.0" encoding="UTF-8" standalone="no"?>
<svg width="51px" height="31px" viewBox="0 0 51 31" version="1.1" xmlns="http://www.w3.org/2000/svg" xmlns:xlink="http://www.w3.org/1999/xlink">
    <!-- Generator: sketchtool 39.1 (31720) - http://www.bohemiancoding.com/sketch -->
    <title>C04F924F-04FD-4490-B21A-F7FCD67EB5E8</title>
    <desc>Created with sketchtool.</desc>
    <defs></defs>
    <g id="Icons" stroke="none" stroke-width="1" fill="none" fill-rule="evenodd">
        <g id="specs--icons" transform="translate(-1165.000000, -719.000000)">
            <g id="ico--directDebit--saved--masterCard" transform="translate(1165.000000, 719.000000)">
                <g id="Slice-1">
                    <g id="Group">
                        <path d="M30.4755129,15.3835562 C30.4755129,23.7448826 23.6917463,30.5223626 15.3238348,30.5223626 C6.95592336,30.5223626 0.17283209,23.7448826 0.17283209,15.3835562 C0.17283209,7.02298882 6.95592336,0.244749858 15.3238348,0.244749858 C23.6916619,0.244749858 30.4755129,7.02290448 30.4755129,15.3835562" id="Shape" fill="#D9222A"></path>
                        <path d="M35.6651744,0.244749858 C31.7503917,0.244749858 28.1831957,1.72874151 25.494167,4.16354708 C24.9465363,4.65978525 24.4352005,5.19566175 23.9642956,5.76561035 L27.025389,5.76561035 C27.4440462,6.27416171 27.8293628,6.80885749 28.1804103,7.36910735 L22.8092743,7.36910735 C22.4875159,7.88398397 22.1952155,8.41884843 21.936509,8.97235134 L29.0528379,8.97235134 C29.2959292,9.49161348 29.510491,10.0261406 29.6943288,10.575005 L21.2950181,10.575005 C21.1197898,11.0972189 20.9724157,11.631746 20.8545839,12.178249 L30.1344254,12.178249 C30.3570058,13.2113757 30.4754284,14.283719 30.4754284,15.3836406 C30.4754284,17.0647275 30.2008535,18.6823087 29.6944132,20.1925291 L21.2949337,20.1925291 C21.4785182,20.7418152 21.6929957,21.2766797 21.9360026,21.7957731 L29.0529223,21.7957731 C28.7933717,22.3491917 28.5017466,22.8839718 28.1796506,23.3991858 L22.8092743,23.3991858 C23.1598997,23.9583393 23.5461448,24.4938784 23.9642956,25.0012491 L27.0247137,25.0012491 C26.5545684,25.5722097 26.0428106,26.1088452 25.4944202,26.6046617 C28.1836177,29.0392143 31.7504761,30.5224469 35.6651744,30.5224469 C44.0330859,30.5223626 50.8168524,23.7448826 50.8168524,15.3835562 C50.8168524,7.02324183 44.0330859,0.244749858 35.6651744,0.244749858" id="Shape" fill="#EE9F2D"></path>
                        <path d="M11.7860968,17.0560238 C11.6134851,17.0242565 11.5375191,17.0158121 11.4189277,17.0158121 C10.4866556,17.0158121 10.0146534,17.5235514 10.0146534,18.5260282 C10.0146534,19.1443495 10.2450837,19.5376196 10.604403,19.5376196 C11.2744234,19.5376196 11.7573985,18.5242856 11.7860968,17.0561578 L11.7860968,17.0560238 Z M12.9821398,19.8238927 L11.6193936,19.8238927 L11.650624,19.1766072 C11.2350055,19.688279 10.680369,19.9314222 9.9267016,19.9314222 C9.03519803,19.9314222 8.4239247,19.235643 8.4239247,18.2252872 C8.4239247,16.7051994 9.4871115,15.8183128 11.3120688,15.8183128 C11.4986076,15.8183128 11.7376474,15.8351802 11.9824268,15.8663848 C12.0334928,15.6604342 12.0468291,15.5723021 12.0468291,15.4615678 C12.0468291,15.0476424 11.7601839,14.893306 10.9917453,14.893306 C10.1870963,14.8841976 9.52340638,15.0847507 9.25085715,15.1744851 C9.26807611,15.0709194 9.47875524,13.7696858 9.47875524,13.7696858 C10.2985131,13.529663 10.839138,13.4393382 11.4475415,13.4393382 C12.8599188,13.4393382 13.6080154,14.0728768 13.6066649,15.2704605 C13.6093659,15.5913623 13.5562741,15.9873239 13.4733023,16.5076824 C13.3304862,17.4126171 13.0242587,19.3513532 12.9823086,19.823977 L12.9821398,19.8238927 Z M7.73567246,19.8238927 L6.09075468,19.8238927 L7.03298668,13.9206488 L4.92914967,19.8238927 L3.80822868,19.8238927 L3.6698017,13.9543835 L2.67937347,19.8238927 L1.13962644,19.8238927 L2.42581574,12.1446829 L4.79089149,12.1446829 L4.93438288,16.4430804 L6.37706221,12.1446829 L9.00776585,12.1446829 L7.73567246,19.8238927 L7.73567246,19.8238927 Z M37.697941,17.0560238 C37.5260046,17.0242565 37.4496165,17.0158121 37.3314471,17.0158121 C36.3995971,17.0158121 35.9275105,17.5235514 35.9275105,18.5260282 C35.9275105,19.1443495 36.1575187,19.5376196 36.5169225,19.5376196 C37.1869428,19.5376196 37.6701712,18.5242856 37.697941,17.0561578 L37.697941,17.0560238 Z M38.8950812,19.8238927 L37.5323351,19.8238927 L37.5632279,19.1766072 C37.1474405,19.688279 36.5925509,19.9314222 35.8394743,19.9314222 C34.9476331,19.9314222 34.337035,19.235643 34.337035,18.2252872 C34.337035,16.7051994 35.3995465,15.8183128 37.2248414,15.8183128 C37.4113803,15.8183128 37.6500824,15.8351802 37.8945242,15.8663848 C37.9455059,15.6604342 37.9589265,15.5723021 37.9589265,15.4615678 C37.9589265,15.0476424 37.672619,14.893306 36.9041804,14.893306 C36.0996157,14.8841976 35.4366011,15.0847507 35.163039,15.1744851 C35.1802579,15.0709194 35.3916123,13.7696858 35.3916123,13.7696858 C36.2114546,13.529663 36.7516575,13.4393382 37.3593857,13.4393382 C38.7723539,13.4393382 39.5205349,14.0728768 39.5191,15.2704605 C39.5218854,15.5913623 39.4687936,15.9873239 39.3857374,16.5076824 C39.2437653,17.4126171 38.9366937,19.3513532 38.8951656,19.823977 L38.8950812,19.8238927 Z M20.2926041,19.7290137 C19.8423787,19.8706996 19.4914157,19.9314222 19.1109103,19.9314222 C18.2699663,19.9314222 17.8110471,19.4485936 17.8110471,18.5595142 C17.7990613,18.2837327 17.9320019,17.5575922 18.036413,16.8949573 C18.1313705,16.3116835 18.7496496,12.6335837 18.7496496,12.6335837 L20.3846074,12.6335837 L20.1938483,13.5788314 L21.1814066,13.5788314 L20.9583197,15.0796905 L19.9672163,15.0796905 C19.7773012,16.2674067 19.5068621,17.7468441 19.5038235,17.9429274 C19.5038235,18.2648412 19.6756755,18.4053464 20.0668162,18.4053464 C20.254199,18.4053464 20.3993786,18.3862863 20.510289,18.3463106 L20.2925197,19.7290137 L20.2926041,19.7290137 Z M25.3056024,19.6784116 C24.7439603,19.8498684 24.2019848,19.9328559 23.6275972,19.9314222 C21.7974912,19.9297354 20.8433578,18.974536 20.8433578,17.1455222 C20.8433578,15.0107029 22.0571262,13.4392539 23.704745,13.4392539 C25.05272,13.4392539 25.9136683,14.3191405 25.9136683,15.6991448 C25.9136683,16.157094 25.8545836,16.6040795 25.7121895,17.235088 L22.456201,17.235088 C22.3461347,18.1410347 22.9263464,18.5184422 23.8773567,18.5184422 C24.4626327,18.5184422 24.9905122,18.3980091 25.5774764,18.1252637 L25.305518,19.6784959 L25.3056024,19.6784116 Z M24.3866667,17.3831498 C24.3959514,17.0889357 24.5601225,14.8613423 23.6259935,14.8613423 C23.1052042,14.8613423 22.7327174,15.7588669 22.5810386,17.3831498 L24.3867511,17.3831498 L24.3866667,17.3831498 Z M13.9687697,15.5529047 C13.9687697,16.3428882 14.3519761,16.8875357 15.2213651,17.2965695 C15.8875872,17.6094594 15.9906478,17.7022299 15.9906478,17.9856018 C15.9906478,18.3750695 15.6969125,18.5506589 15.045968,18.5506589 C14.5553962,18.5506589 14.0989248,18.4741653 13.5723958,18.3043952 C13.5723958,18.3043952 13.3560614,19.680773 13.3461859,19.7465558 C13.7201075,19.8281095 14.053514,19.9036754 15.0579537,19.9314222 C16.7935243,19.9314222 17.5950503,19.2710645 17.5950503,17.8440845 C17.5950503,16.9859568 17.2595337,16.4823814 16.4355555,16.1039618 C15.7459528,15.7876985 15.6667793,15.7170242 15.6667793,15.4253873 C15.6667793,15.0877025 15.9400882,14.9154866 16.4718504,14.9154866 C16.794706,14.9154866 17.235731,14.949896 17.6535442,15.0093535 L17.8877728,13.5608677 C17.4618566,13.4933982 16.8161453,13.4392539 16.4401979,13.4392539 C14.6001318,13.4392539 13.9631988,14.3995979 13.9687697,15.5529047 L13.9687697,15.5529047 Z M33.3052475,13.6033735 C33.762141,13.6033735 34.1881416,13.7231318 34.7750214,14.0183109 L35.0440255,12.3516456 C34.8031288,12.2571883 33.9548415,11.7022516 33.2363716,11.7022516 C32.1355394,11.7022516 31.2049556,12.2479112 30.5505504,13.148629 C29.5959106,12.8327031 29.2034195,13.4712176 28.7223013,14.1072863 L28.2950346,14.2068038 C28.3273623,13.997311 28.3566515,13.7893363 28.3467759,13.5787471 L26.8362336,13.5787471 C26.6297748,15.5114953 26.2639561,17.4692071 25.9778174,19.4043167 L25.9031175,19.8238927 L27.5487105,19.8238927 C27.8233699,18.0408425 27.9739515,16.8990899 28.0652795,16.1263954 L28.6850779,15.7820479 C28.7775877,15.4379535 29.0674403,15.3217373 29.6486648,15.3357372 C29.5726988,15.7434217 29.5319304,16.172106 29.5319304,16.6163083 C29.5319304,18.6593691 30.6351259,19.9314222 32.4059785,19.9314222 C32.8620279,19.9314222 33.2534218,19.8713743 33.8594619,19.7072548 L34.1489769,17.9564213 C33.6037096,18.2246125 33.1563541,18.3507805 32.7512019,18.3507805 C31.7950428,18.3507805 31.2164349,17.6455555 31.2164349,16.4799356 C31.2164349,14.7889812 32.0770456,13.6033735 33.3051631,13.6033735 L33.3052475,13.6033735 Z" id="Shape" fill="#000000"></path>
                        <polyline id="Shape" fill="#FFFFFF" points="8.20902524 19.6341347 6.56393865 19.6341347 7.50676149 13.5268214 5.40284007 19.6341347 4.28175027 19.6341347 4.14307007 13.5617263 3.15272625 19.6341347 1.61297922 19.6341347 2.89916852 11.6896011 5.26424427 11.6896011 5.33075675 16.6079657 6.92638102 11.6896011 9.48111862 11.6896011 8.20894083 19.6341347"></polyline>
                        <path d="M47.2312558,12.1446846 L46.8666189,14.4083806 C46.4167311,13.8050266 45.9335872,13.3683436 45.2956413,13.3683436 C44.4655859,13.3683436 43.7101459,14.0097299 43.2156914,14.9537396 C42.5271016,14.8081499 41.8148778,14.5611121 41.8148778,14.5611121 L41.8145402,14.5667911 C41.8700798,14.0390715 41.8921944,13.7170877 41.8872988,13.6077233 L40.3764188,13.6077233 C40.1707197,15.5796377 39.8049855,17.5770216 39.5190156,19.5513452 L39.4437248,19.9794236 L41.0889802,19.9794236 C41.311223,18.5083826 41.4814714,17.2868747 41.6066465,16.3181698 C42.1687951,15.8004315 42.4500382,15.3486904 43.0179265,15.3788065 C42.7665634,15.9987673 42.6191893,16.7129484 42.6191893,17.4453713 C42.6191893,19.0383394 43.4097424,20.0891321 44.6055322,20.0891321 C45.208196,20.0891321 45.6707447,19.8772871 46.1219829,19.386137 L46.0449196,19.978391 L47.6009572,19.978391 L48.8537214,12.1445985 L47.2314246,12.1445985 L47.2312558,12.1446846 Z M45.1742645,18.5070919 C44.6143949,18.5070919 44.3316324,18.0846064 44.3316324,17.2511657 C44.3316324,15.9988534 44.8608624,15.1107734 45.6071865,15.1107734 C46.1722893,15.1107734 46.4782636,15.5499518 46.4782636,16.3591276 C46.4782636,17.6222817 45.9405929,18.5070919 45.1741801,18.5070919 L45.1742645,18.5070919 Z" id="Shape" fill="#000000"></path>
                        <path d="M12.2591964,16.5861777 C12.0868379,16.5660743 12.0105342,16.5607303 11.8923648,16.5607303 C10.9600084,16.5607303 10.4883438,16.8820463 10.4883438,17.5164503 C10.4883438,17.9069833 10.7187741,18.1565376 11.0775026,18.1565376 C11.7481138,18.1565376 12.2310045,17.5155173 12.2591964,16.5862626 L12.2591964,16.5861777 Z M13.4560834,19.3677989 L12.0931684,19.3677989 L12.1241456,18.7215254 C11.7088647,19.2320165 11.1534686,19.4763404 10.4005608,19.4763404 C9.5085508,19.4763404 8.89769951,18.7805612 8.89769951,17.7702054 C8.89769951,16.2493586 9.96037987,15.3630624 11.7857592,15.3630624 C11.972298,15.3630624 12.2113378,15.3799297 12.4557796,15.4111344 C12.5068456,15.2053524 12.5201819,15.117136 12.5201819,15.005727 C12.5201819,14.591886 12.2340432,14.4383085 11.4654357,14.4383085 C10.660449,14.4290315 9.99718119,14.6297532 9.72412552,14.7183069 C9.74142889,14.6149943 9.95202361,13.3151944 9.95202361,13.3151944 C10.7716127,13.0741596 11.3128284,12.9837504 11.9205567,12.9837504 C13.3332716,12.9837504 14.0816214,13.6177951 14.0802709,14.8142823 C14.0828031,15.1364492 14.0292049,15.5321578 13.9465707,16.0519259 C13.8041766,16.9564389 13.4975271,18.896187 13.455999,19.3677989 L13.4560834,19.3677989 Z M35.5178003,11.8962264 L35.2483741,13.5633134 C34.6617476,13.2684717 34.2354937,13.148376 33.7790223,13.148376 C32.5509048,13.148376 31.6899565,14.3338995 31.6899565,16.0248538 C31.6899565,17.1903894 32.2688176,17.8954457 33.2247235,17.8954457 C33.6298757,17.8954457 34.0768091,17.7696151 34.6219076,17.5010865 L34.3332367,19.2510766 C33.726859,19.4163769 33.3358027,19.4762561 32.8792469,19.4762561 C31.1088163,19.4762561 30.0051987,18.2042873 30.0051987,16.1612265 C30.0051987,13.4160613 31.5295837,11.4973974 33.70964,11.4973974 C34.4277722,11.4973974 35.2764816,11.8018535 35.5176315,11.8963108 L35.5178003,11.8962264 Z M38.1717158,16.5861777 C37.9993573,16.5660743 37.9233913,16.5607303 37.8048843,16.5607303 C36.8728655,16.5607303 36.4008632,16.8820463 36.4008632,17.5164503 C36.4008632,17.9069833 36.6312935,18.1565376 36.9903596,18.1565376 C37.6602956,18.1565376 38.143524,17.5155173 38.1717158,16.5862626 L38.1717158,16.5861777 Z M39.3686028,19.3677989 L38.0054346,19.3677989 L38.0366651,18.7215254 C37.6209621,19.2320165 37.065988,19.4763404 36.3130803,19.4763404 C35.4214079,19.4763404 34.810219,18.7805612 34.810219,17.7702054 C34.810219,16.2493586 35.8733214,15.3630624 37.697941,15.3630624 C37.884733,15.3630624 38.1235196,15.3799297 38.368299,15.4111344 C38.418943,15.2053524 38.4326169,15.117136 38.4326169,15.005727 C38.4326169,14.591886 38.1463094,14.4383085 37.3777864,14.4383085 C36.5731373,14.4290315 35.9095318,14.6297532 35.6364762,14.7183069 C35.6537795,14.6149943 35.8647963,13.3151944 35.8647963,13.3151944 C36.6843853,13.0741596 37.2251791,12.9837504 37.8329073,12.9837504 C39.2460443,12.9837504 39.9940565,13.6177951 39.9922839,14.8142823 C39.9951538,15.1364492 39.942062,15.5321578 39.8589214,16.0519259 C39.7169493,16.9564389 39.4095401,18.896187 39.3685184,19.3677989 L39.3686028,19.3677989 Z M20.7659569,19.2731729 C20.3153939,19.4148588 19.9644308,19.4764247 19.5842631,19.4764247 C18.7433191,19.4764247 18.2843999,18.9935118 18.2843999,18.1045168 C18.2727517,17.8278919 18.4056923,17.1025947 18.5101878,16.4398756 C18.6047233,15.8558427 19.2230868,12.1780803 19.2230868,12.1780803 L20.857707,12.1780803 L20.6671166,13.1236653 L21.506288,13.1236653 L21.2829479,14.6238496 L20.4409911,14.6238496 C20.251076,15.8121562 19.9798773,17.2905816 19.9770918,17.4870865 C19.9770918,17.8100968 20.1492815,17.9495056 20.5400845,17.9495056 C20.7274674,17.9495056 20.8723937,17.9312045 20.9835573,17.8911445 L20.7657881,19.2732572 L20.7659569,19.2731729 Z M25.7790396,19.2234141 C25.2177351,19.394871 24.675,19.4774368 24.1010344,19.4764247 C22.2708439,19.4745693 21.3167106,18.5194542 21.3167106,16.6904404 C21.3167106,14.5550308 22.5304789,12.9838348 24.1780977,12.9838348 C25.5260727,12.9838348 26.3870211,13.8634684 26.3870211,15.244063 C26.3870211,15.7022653 26.3279364,16.1492507 26.1859643,16.7800062 L22.9299759,16.7800062 C22.8198251,17.6859529 23.4001212,18.0636134 24.3511315,18.0636134 C24.9360699,18.0636134 25.464287,17.942843 26.0508292,17.6694229 L25.7790396,19.2233298 L25.7790396,19.2234141 Z M24.8596818,16.0010558 C24.8695574,15.8153592 25.0333908,14.4052485 24.0989243,14.4052485 C23.5784725,14.4052485 23.2059014,14.9747743 23.0543913,16.0010558 L24.8596818,16.0010558 L24.8596818,16.0010558 Z M14.4421225,15.0979072 C14.4421225,15.8878064 14.8254977,16.4317792 15.6948867,16.8415721 C16.3608556,17.1542932 16.4640006,17.2474011 16.4640006,17.5306044 C16.4640006,17.9199877 16.170012,18.0956614 15.5197428,18.0956614 C15.0288334,18.0956614 14.572362,18.0190836 14.0454954,17.8493978 C14.0454954,17.8493978 13.8299207,19.2257756 13.8201295,19.2915583 C14.1932071,19.3730277 14.5269512,19.4475815 15.5313909,19.4762561 C17.2673835,19.4762561 18.0686563,18.816067 18.0686563,17.3893401 C18.0686563,16.5307907 17.7333929,16.0272996 16.9089083,15.64888 C16.2196432,15.331942 16.1399632,15.2623641 16.1399632,14.9703055 C16.1399632,14.632958 16.4137786,14.4593927 16.9452032,14.4593927 C17.2676368,14.4593927 17.7087462,14.4948142 18.1272346,14.5542717 L18.3610412,13.1053642 C17.9356314,13.0378947 17.2899201,12.9839191 16.9138883,12.9839191 C15.0734846,12.9839191 14.4369736,13.9435041 14.4422069,15.0979072 L14.4421225,15.0979072 Z M48.0743099,19.3677989 L46.5180192,19.3677989 L46.5955045,18.7865491 C46.1442663,19.268703 45.681802,19.4764247 45.0789693,19.4764247 C43.883264,19.4764247 43.0930485,18.4464185 43.0930485,16.8850899 C43.0930485,14.8078727 44.3186338,13.0568705 45.7694162,13.0568705 C46.407362,13.0568705 46.8903371,13.3173028 47.3397184,13.9083356 L47.7047774,11.6896011 L49.3270742,11.6896011 L48.0743099,19.3677989 L48.0743099,19.3677989 Z M45.6480393,17.9247949 C46.4140301,17.9247949 46.9521228,17.0576432 46.9521228,15.8203369 C46.9521228,15.0271486 46.6457265,14.5966088 46.0806237,14.5966088 C45.3346372,14.5966088 44.8046476,15.4667967 44.8046476,16.6945729 C44.8046476,17.5115442 45.0882541,17.9247949 45.6481237,17.9247949 L45.6480393,17.9247949 Z M40.8501092,13.1236653 C40.6441569,15.0564135 40.2783382,17.0141254 39.9923683,18.9482229 L39.9172464,19.3677989 L41.562333,19.3677989 C42.1506477,15.5494468 42.293295,14.8037402 43.2156914,14.8971011 C43.3627279,14.11572 43.63629,13.4311576 43.840301,13.0857137 C43.1512891,12.942341 42.7666478,13.331387 42.2629086,14.0703467 C42.3025797,13.7508787 42.3755071,13.440519 42.3610736,13.123581 L40.8501936,13.123581 L40.8501092,13.1236653 Z M27.3095863,13.1236653 C27.1031275,15.0564135 26.7373089,17.0141254 26.4514234,18.9482229 L26.3765547,19.3677989 L28.0224853,19.3677989 C28.6101248,15.5494468 28.7522657,14.8037402 29.6743245,14.8971011 C29.8220362,14.11572 30.0956827,13.4311576 30.298934,13.0857137 C29.6106818,12.942341 29.2256184,13.331387 28.7223857,14.0703467 C28.7620568,13.7508787 28.8342246,13.440519 28.8204663,13.123581 L27.3095863,13.123581 L27.3095863,13.1236653 Z" id="Shape" fill="#FFFFFF"></path>
                    </g>
                </g>
            </g>
        </g>
    </g>
</svg>