<svg width="52" height="50" viewBox="0 0 52 50" xmlns="http://www.w3.org/2000/svg"><title>F065DE15-0FE0-4970-85EE-C067F9E1F085</title><path d="M.173 47.85L24.24 1.07c.734-1.428 2.783-1.428 3.52 0L51.827 47.85c.491.955-.123 2.15-1.107 2.15H1.28C.296 50-.318 48.805.173 47.85zm28.373-13.242c.464 0 .84-.375.84-.837V19.414a.838.838 0 0 0-.84-.836h-5.092a.838.838 0 0 0-.841.836v14.357c0 .462.376.837.84.837h5.093zm-6.16 7.134A3.603 3.603 0 0 0 26 45.337a3.603 3.603 0 0 0 3.614-3.595A3.603 3.603 0 0 0 26 38.148a3.603 3.603 0 0 0-3.614 3.594z" fill="#F6A623" fill-rule="evenodd"/></svg>