<?xml version="1.0" encoding="UTF-8" standalone="no"?>
<svg width="37px" height="38px" viewBox="0 0 37 38" version="1.1" xmlns="http://www.w3.org/2000/svg" xmlns:xlink="http://www.w3.org/1999/xlink">
    <!-- Generator: sketchtool 39.1 (31720) - http://www.bohemiancoding.com/sketch -->
    <title>E1D27CD2-976D-408F-B881-125559022356</title>
    <desc>Created with sketchtool.</desc>
    <defs></defs>
    <g id="Icons" stroke="none" stroke-width="1" fill="none" fill-rule="evenodd">
        <g id="specs--icons" transform="translate(-519.000000, -555.000000)" fill="#FFFFFF">
            <g id="ico--directDebit--bankAccount--active" transform="translate(519.000000, 555.000000)">
                <path d="M15.0859227,9.70056818 C15.3264682,9.79506818 15.5966045,9.77311364 15.8190136,9.64138636 C15.8352409,9.63184091 17.4942409,8.66488636 20.3750591,8.66488636 C22.5056045,8.66488636 24.7258773,9.19561364 26.9747864,10.2408409 C27.0855136,10.2923864 27.2076955,10.3200682 27.3298773,10.3200682 C27.9846955,10.3200682 28.1651045,9.70056818 28.2328773,9.46765909 C28.2853773,9.28629545 28.3436045,9.04765909 28.3970591,8.79565909 C28.4753318,8.42147727 28.6080136,7.71034091 28.6080136,7.15193182 C28.6080136,3.20870455 25.3997864,0.000477272727 21.4565591,0.000477272727 C17.5123773,0.000477272727 14.30415,3.20870455 14.30415,7.15193182 C14.30415,7.83347727 14.4005591,8.50834091 14.5905136,9.15743182 C14.6621045,9.40561364 14.8453773,9.60606818 15.0859227,9.70056818" id="Fill-1"></path>
                <path d="M8.98236818,21.2752909 C8.12232273,21.2752909 7.42455,20.6262 7.42455,19.8253364 C7.42455,19.0244727 8.12232273,18.3753818 8.98236818,18.3753818 C9.84336818,18.3753818 10.5420955,19.0244727 10.5420955,19.8253364 C10.5420955,20.6262 9.84336818,21.2752909 8.98236818,21.2752909 M31.7874136,14.2231091 C28.8903682,11.8825636 25.1208682,10.5939273 21.1738227,10.5939273 C20.89605,10.5939273 20.6154136,10.6006091 20.3376409,10.6139727 C16.2302318,10.8039273 14.0586409,12.5106545 13.0620955,13.6379727 C11.3334136,11.7069273 9.41382273,10.7294727 7.34532273,10.7294727 C6.85086818,10.7294727 6.34877727,10.7886545 5.85241364,10.9041545 C5.62618636,10.9576091 5.43241364,11.1027 5.31691364,11.3041091 C5.20141364,11.5064727 5.17659545,11.7470182 5.24627727,11.9684727 C5.50686818,12.7970182 6.32682273,14.2498364 7.01027727,15.4210636 C5.72736818,16.2830182 4.70123182,17.5077 4.04068636,18.9672 C3.23218636,19.3394727 2.24900455,19.5122455 0.947959091,19.5132 C0.625322727,19.5132 0.332277273,19.6983818 0.193868182,19.9895182 C-0.0953590909,20.5956545 0.00200454545,21.6542455 0.0860045455,22.2317455 C0.234913636,23.2569273 0.554686364,24.2706545 0.987095455,25.0877455 C1.58368636,26.2122 4.25641364,28.2014727 8.92986818,30.9982909 C9.17518636,31.1452909 9.32791364,31.2407455 9.38995909,31.2808364 L9.38995909,36.3924273 C9.38995909,36.8534727 9.76414091,37.2276545 10.2251864,37.2276545 L12.6039136,37.2276545 C12.9380045,37.2276545 13.2405955,37.0281545 13.3713682,36.7207909 L14.5674136,33.9268364 C16.2846409,34.4499273 18.0877773,34.7152909 19.9271864,34.7152909 C22.2066409,34.7152909 25.1218227,34.3172455 27.01755,33.7473818 L28.1353227,36.6892909 C28.2584591,37.0128818 28.5696409,37.2276545 28.9161409,37.2276545 L31.1058682,37.2276545 C31.5258682,37.2276545 31.8809591,36.9145636 31.9344136,36.4974273 L32.7066409,30.4293818 L32.7075955,30.4293818 C35.0051864,28.2558818 36.2699591,25.4943818 36.2699591,22.6555636 C36.2699591,19.5972 34.6367318,16.5235636 31.7874136,14.2231091" id="Fill-3"></path>
            </g>
        </g>
    </g>
</svg>