<?xml version="1.0" encoding="UTF-8" standalone="no"?>
<svg width="37px" height="38px" viewBox="0 0 37 38" version="1.1" xmlns="http://www.w3.org/2000/svg" xmlns:xlink="http://www.w3.org/1999/xlink">
    <!-- Generator: sketchtool 39.1 (31720) - http://www.bohemiancoding.com/sketch -->
    <title>7EF773B2-2F28-41B4-9D16-4947D7168A46</title>
    <desc>Created with sketchtool.</desc>
    <defs></defs>
    <g id="Icons" stroke="none" stroke-width="1" fill="none" fill-rule="evenodd">
        <g id="specs--icons" transform="translate(-817.000000, -501.000000)" fill="#B0B8C3">
            <g id="ico--directDebit--saved--bankAccount" transform="translate(817.000000, 501.000000)">
                <path d="M15.0859744,9.70009091 C15.3265199,9.79459091 15.5966562,9.77263636 15.8190653,9.64090909 C15.8352926,9.63136364 17.4942926,8.66440909 20.3751108,8.66440909 C22.5056562,8.66440909 24.725929,9.19513636 26.9748381,10.2403636 C27.0855653,10.2919091 27.2077472,10.3195909 27.329929,10.3195909 C27.9847472,10.3195909 28.1651562,9.70009091 28.232929,9.46718182 C28.285429,9.28581818 28.3436562,9.04718182 28.3971108,8.79518182 C28.4753835,8.421 28.6080653,7.70986364 28.6080653,7.15145455 C28.6080653,3.20822727 25.3998381,0 21.4566108,0 C17.512429,0 14.3042017,3.20822727 14.3042017,7.15145455 C14.3042017,7.833 14.4006108,8.50786364 14.5905653,9.15695455 C14.6621562,9.40513636 14.845429,9.60559091 15.0859744,9.70009091 Z M31.7874653,14.2226318 C28.8904199,11.8820864 25.1209199,10.59345 21.1738744,10.59345 C20.8961017,10.59345 20.6154653,10.6001318 20.3376926,10.6134955 C16.2302835,10.80345 14.0586926,12.5101773 13.0621472,13.6374955 C11.3334653,11.70645 9.41387443,10.7289955 7.34537443,10.7289955 C6.85091988,10.7289955 6.34882897,10.7881773 5.85246533,10.9036773 C5.62623806,10.9571318 5.43246533,11.1022227 5.31696533,11.3036318 C5.20146533,11.5059955 5.17664715,11.7465409 5.24632897,11.9679955 C5.50691988,12.7965409 6.32687443,14.2493591 7.01032897,15.4205864 C5.72741988,16.2825409 4.70128352,17.5072227 4.04073806,18.9667227 C3.23223806,19.3389955 2.24905624,19.5117682 0.948010789,19.5127227 C0.625374425,19.5127227 0.332328971,19.6979045 0.19391988,19.9890409 C-0.0953073931,20.5951773 0.00205624325,21.6537682 0.0860562433,22.2312682 C0.234965334,23.25645 0.554738061,24.2701773 0.987147152,25.0872682 C1.58373806,26.2117227 4.25646533,28.2009955 8.92991988,30.9978136 C9.17523806,31.1448136 9.32796533,31.2402682 9.39001079,31.2803591 L9.39001079,36.39195 C9.39001079,36.8529955 9.76419261,37.2271773 10.2252381,37.2271773 L12.6039653,37.2271773 C12.9380562,37.2271773 13.2406472,37.0276773 13.3714199,36.7203136 L14.5674653,33.9263591 C16.2846926,34.44945 18.087829,34.7148136 19.9272381,34.7148136 C22.2066926,34.7148136 25.1218744,34.3167682 27.0176017,33.7469045 L28.1353744,36.6888136 C28.2585108,37.0124045 28.5696926,37.2271773 28.9161926,37.2271773 L31.1059199,37.2271773 C31.5259199,37.2271773 31.8810108,36.9140864 31.9344653,36.49695 L32.7066926,30.4289045 L32.7076472,30.4289045 C35.0052381,28.2554045 36.2700108,25.4939045 36.2700108,22.6550864 C36.2700108,19.5967227 34.6367835,16.5230864 31.7874653,14.2226318 Z M8.98241988,21.2748136 C8.12237443,21.2748136 7.4246017,20.6257227 7.4246017,19.8248591 C7.4246017,19.0239955 8.12237443,18.3749045 8.98241988,18.3749045 C9.84341988,18.3749045 10.5421472,19.0239955 10.5421472,19.8248591 C10.5421472,20.6257227 9.84341988,21.2748136 8.98241988,21.2748136 Z" id="Combined-Shape"></path>
            </g>
        </g>
    </g>
</svg>