<?xml version="1.0" encoding="UTF-8" standalone="no"?>
<svg width="70px" height="70px" viewBox="0 0 70 70" version="1.1" xmlns="http://www.w3.org/2000/svg" xmlns:xlink="http://www.w3.org/1999/xlink">
    <!-- Generator: sketchtool 39.1 (31720) - http://www.bohemiancoding.com/sketch -->
    <title>184A1818-587E-4ED7-AF97-9579897110E6</title>
    <desc>Created with sketchtool.</desc>
    <defs></defs>
    <g id="Icons" stroke="none" stroke-width="1" fill="none" fill-rule="evenodd">
        <g id="specs--icons" transform="translate(-776.000000, -553.000000)" fill="#FFFFFF">
            <g id="ico--directDebit--payPal--active" transform="translate(776.000000, 553.000000)">
                <path d="M8.90481749,56.339956 C8.61132969,58.250756 7.13909067,58.250756 5.71485199,58.250756 L4.90501767,58.250756 L5.47347885,54.682116 C5.50707909,54.466556 5.69565185,54.307436 5.91508198,54.307436 L6.28674176,54.307436 C7.25634864,54.307436 8.17109799,54.307436 8.64424421,54.855516 C8.92607478,55.182596 9.01247539,55.668796 8.90481749,56.339956 M8.28492737,51.352156 L2.91506069,51.352156 C2.54751522,51.352156 2.23482729,51.617356 2.1779126,51.977076 L0.00555432514,65.632836 C-0.0376459815,65.902116 0.172869798,66.145556 0.448528898,66.145556 L3.01243281,66.145556 C3.37997827,66.145556 3.69266621,65.880356 3.7495809,65.519956 L4.33518505,61.837076 C4.39209974,61.475996 4.7054734,61.211476 5.07233314,61.211476 L6.77223092,61.211476 C10.309856,61.211476 12.3512419,59.514196 12.8847314,56.150236 C13.1247332,54.678036 12.8943315,53.522036 12.199698,52.712156 C11.4364926,51.822716 10.082883,51.352156 8.28492737,51.352156" id="Fill-7"></path>
                <g id="Page-1" transform="translate(17.000000, 0.000000)">
                    <path d="M34.8151115,12.0463915 C35.3713702,8.49989371 34.8113969,6.08727229 32.8932793,3.90124041 C30.781539,1.49511951 26.9666627,0.464322829 22.0857011,0.464322829 L7.91735429,0.464322829 C6.91998885,0.464322829 6.07027807,1.19005941 5.91519425,2.17581678 L0.0150440597,39.5872358 C-0.101036648,40.3255091 0.469616109,40.992741 1.21624722,40.992741 L9.96316067,40.992741 L9.359541,44.8210827 C9.2578543,45.4669558 9.75653702,46.0506096 10.4103036,46.0506096 L17.7832858,46.0506096 C18.6557484,46.0506096 19.3986649,45.4158802 19.5347115,44.5536328 L19.6071458,44.1784599 L20.9959354,35.3711845 L21.0855497,34.8845742 C21.2215963,34.022791 21.9645128,33.387133 22.8369754,33.387133 L23.9397422,33.387133 C31.0824202,33.387133 36.6751887,30.4855797 38.3091407,22.0934089 C38.9921596,18.5868429 38.63881,15.6597517 36.8330585,13.601873 C36.2874792,12.980609 35.6077105,12.4661393 34.8151115,12.0463915" id="Fill-1" opacity="0.68"></path>
                    <path d="M32.8932793,3.90124041 C30.781539,1.49511951 26.9666627,0.464322829 22.0857011,0.464322829 L7.91735429,0.464322829 C6.91998885,0.464322829 6.07027807,1.19005941 5.91519425,2.17581678 L0.0150440597,39.5872358 C-0.101036648,40.3255091 0.469616109,40.992741 1.21624722,40.992741 L9.96316067,40.992741 L12.1603363,27.0598058 L12.0920808,27.4967336 C12.247629,26.5114406 13.0894463,25.7852397 14.087276,25.7852397 L18.2448227,25.7852397 C26.4094753,25.7852397 32.8027363,22.4681174 34.6702427,12.8752077 C34.7259615,12.5919708 34.7728581,12.3166274 34.8151115,12.0463915 C35.3713702,8.49989371 34.8113969,6.08727229 32.8932793,3.90124041 Z" id="Fill-4" opacity="0.7"></path>
                    <path d="M14.5209536,12.0932881 C14.6142825,11.5008122 14.9950272,11.0151305 15.5071753,10.769968 C15.739801,10.6585305 16.0002861,10.5963113 16.2728436,10.5963113 L27.3789814,10.5963113 C28.6948722,10.5963113 29.9216132,10.6826753 31.0429528,10.8632969 C31.3633355,10.9148367 31.6753605,10.9742701 31.9785633,11.0415969 C32.2813018,11.1089237 32.5756825,11.1836797 32.8603123,11.2672578 C33.0028595,11.3085825 33.1426206,11.3526932 33.2805245,11.3981968 C33.8312114,11.58114 34.3442881,11.7965858 34.8160401,12.0468558 C35.3722989,8.50035803 34.8123255,6.08773661 32.8942079,3.90170473 C30.781539,1.49511951 26.9666627,0.464322829 22.0857011,0.464322829 L7.91735429,0.464322829 C6.91998885,0.464322829 6.07027807,1.19005941 5.91519425,2.17581678 L0.0150440597,39.5872358 C-0.101036648,40.3255091 0.469616109,40.992741 1.21624722,40.992741 L9.96316067,40.992741 L12.1603363,27.0598058 L14.5209536,12.0932881 Z" id="Fill-6"></path>
                </g>
                <path d="M20.7533587,61.241872 C20.5051284,62.699112 19.3394058,63.676952 17.852081,63.676952 C17.1053328,63.676952 16.5080715,63.439632 16.1254402,62.989472 C15.744866,62.542032 15.600865,61.906232 15.7215516,61.197672 C15.9533247,59.753352 17.1389331,58.742872 18.6036292,58.742872 C19.3339201,58.742872 19.9270671,58.983592 20.3186128,59.437832 C20.7101584,59.896152 20.8658167,60.536712 20.7533587,61.241872 M24.3382985,56.278552 L21.7661659,56.278552 C21.5474215,56.278552 21.358163,56.436992 21.3245628,56.653232 L21.2100477,57.366552 L21.0303893,57.107472 C20.4735853,56.306432 19.2324336,56.038512 17.9933391,56.038512 C15.151719,56.038512 12.7242732,58.173032 12.2518127,61.167072 C12.0056395,62.660352 12.3553563,64.089032 13.2097623,65.084552 C13.9928536,66.000512 15.1146901,66.381992 16.4484139,66.381992 C18.7387159,66.381992 20.007982,64.922032 20.007982,64.922032 L19.8934669,65.630592 C19.8502666,65.901912 20.0607824,66.144672 20.33507,66.144672 L22.6514293,66.144672 C23.0196605,66.144672 23.3302913,65.879472 23.3885774,65.519072 L24.7785301,56.790592 C24.8224162,56.521992 24.6125861,56.278552 24.3382985,56.278552" id="Fill-10"></path>
                <path d="M38.0342357,56.278484 L35.4497602,56.278484 C35.203587,56.278484 34.9718139,56.400204 34.8319272,56.603524 L31.2675591,61.809604 L29.7569198,56.806164 C29.6622905,56.493364 29.3708599,56.278484 29.041029,56.278484 L26.5011252,56.278484 C26.1925516,56.278484 25.9786072,56.577684 26.0766651,56.865324 L28.9230853,65.149084 L26.2467234,68.895884 C26.0362076,69.191004 26.2487806,69.596284 26.6122117,69.596284 L29.1932586,69.596284 C29.4380604,69.596284 29.6677763,69.477964 29.8062915,69.278724 L38.4017811,56.975484 C38.6074969,56.681044 38.3962954,56.278484 38.0342357,56.278484" id="Fill-12"></path>
                <path d="M47.2098436,56.339956 C46.9170416,58.250756 45.4448025,58.250756 44.0198781,58.250756 L43.2107295,58.250756 L43.7798764,54.682116 C43.8134767,54.466556 44.000678,54.307436 44.2214796,54.307436 L44.5924536,54.307436 C45.5613748,54.307436 46.4774956,54.307436 46.9499561,54.855516 C47.2317867,55.182596 47.3175015,55.668796 47.2098436,56.339956 M46.5899535,51.352156 L41.2194011,51.352156 C40.8525414,51.352156 40.5398534,51.617356 40.4829388,51.977076 L38.3105805,65.632836 C38.2673802,65.902116 38.477896,66.145556 38.7521836,66.145556 L41.5080889,66.145556 C41.7638621,66.145556 41.9832923,65.959916 42.023064,65.707636 L42.6395255,61.837076 C42.6964402,61.475996 43.0098138,61.211476 43.3759879,61.211476 L45.0751999,61.211476 C48.6141965,61.211476 50.6548967,59.514196 51.1883862,56.150236 C51.4297593,54.678036 51.1979862,53.522036 50.5033527,52.712156 C49.740833,51.822716 48.3879091,51.352156 46.5899535,51.352156" id="Fill-14"></path>
                <path d="M59.057562,61.241872 C58.8107031,62.699112 57.6436091,63.676952 56.1562843,63.676952 C55.4109076,63.676952 54.8122747,63.439632 54.4296435,62.989472 C54.0490693,62.542032 53.9064397,61.906232 54.0257549,61.197672 C54.2588994,59.753352 55.4431364,58.742872 56.9078325,58.742872 C57.6381234,58.742872 58.2312704,58.983592 58.6228161,59.437832 C59.0157331,59.896152 59.1713914,60.536712 59.057562,61.241872 M62.6425017,56.278552 L60.0724264,56.278552 C59.8516248,56.278552 59.6637377,56.436992 59.6308232,56.653232 L59.5169938,57.366552 L59.3366497,57.107472 C58.7798458,56.306432 57.5386941,56.038512 56.2995996,56.038512 C53.4579794,56.038512 51.0319051,58.173032 50.5587588,61.167072 C50.3139571,62.660352 50.6616167,64.089032 51.5160228,65.084552 C52.3011712,66.000512 53.4209506,66.381992 54.7553601,66.381992 C57.0449763,66.381992 58.3149282,64.922032 58.3149282,64.922032 L58.1997274,65.630592 C58.1572128,65.901912 58.3670428,66.144672 58.6427019,66.144672 L60.9583755,66.144672 C61.3252353,66.144672 61.6379232,65.879472 61.6955236,65.519072 L63.086162,56.790592 C63.1279909,56.521992 62.9181608,56.278552 62.6425017,56.278552" id="Fill-16"></path>
                <path d="M65.6740661,51.726972 L63.4701648,65.632972 C63.4269645,65.902252 63.6374802,66.145012 63.9110822,66.145012 L66.1273265,66.145012 C66.4955577,66.145012 66.8082456,65.880492 66.8644746,65.520092 L69.0382043,51.865012 C69.0814046,51.595052 68.8708888,51.351612 68.5966011,51.351612 L66.1156693,51.351612 C65.8962391,51.352292 65.7076664,51.511412 65.6740661,51.726972" id="Fill-18"></path>
            </g>
        </g>
    </g>
</svg>