<?xml version="1.0" encoding="UTF-8" standalone="no"?>
<svg width="63px" height="20px" viewBox="0 0 63 20" version="1.1" xmlns="http://www.w3.org/2000/svg" xmlns:xlink="http://www.w3.org/1999/xlink">
    <!-- Generator: sketchtool 39.1 (31720) - http://www.bohemiancoding.com/sketch -->
    <title>E96F878F-D5C4-41F5-97E6-79C6C91115DF</title>
    <desc>Created with sketchtool.</desc>
    <defs>
        <polygon id="path-1" points="0.67864 19.2 15.80504 19.2 15.80504 0.0172268701 0.67864 0.0172268701"></polygon>
        <polygon id="path-3" points="18.3968 18.9708 18.3968 0.3204 0.32488 0.3204 0.32488 18.9708 18.3968 18.9708"></polygon>
        <polygon id="path-5" points="4.33680869e-20 0.00504 4.33680869e-20 10.40184 12.00304 10.40184 12.00304 0.00504 0 0.00504"></polygon>
    </defs>
    <g id="Icons" stroke="none" stroke-width="1" fill="none" fill-rule="evenodd">
        <g id="specs--icons" transform="translate(-792.000000, -730.000000)">
            <g id="ico--directDebit--saved--visa" transform="translate(792.000000, 730.000000)">
                <g id="Group-3" transform="translate(29.600000, 0.794960)">
                    <mask id="mask-2" fill="white">
                        <use xlink:href="#path-1"></use>
                    </mask>
                    <g id="Clip-2"></g>
                    <path d="M15.80504,0.71504 C15.63144,2.11904 15.40184,3.46704 15.11784,4.76064 C13.92344,4.36944 12.54504,3.74224 10.59864,3.87264 C9.43784,3.95104 8.06424,4.39904 8.04584,5.45104 C8.02504,6.61664 9.93144,7.31024 10.99224,7.81984 C12.90424,8.73904 14.95784,9.96464 15.11784,12.45744 C15.24024,14.37424 14.35464,16.04144 13.34984,16.99664 C10.67224,19.53904 4.73224,19.80784 0.67864,18.18144 C0.93144,16.82304 1.16104,15.44224 1.36664,14.03664 C2.93624,14.70704 5.09144,15.61264 7.45624,15.31904 C8.53304,15.18544 9.85144,14.55424 9.81384,13.44464 C9.76664,12.09024 7.25064,11.28464 5.98264,10.58304 C4.50904,9.76704 2.83304,8.41024 2.74104,6.33984 C2.68024,4.95984 3.21464,3.66784 3.92024,2.78704 C6.01304,0.17424 11.39224,-0.75536 15.80504,0.71504" id="Fill-1" fill="#3957A7" mask="url(#mask-2)"></path>
                </g>
                <polygon id="Fill-4" fill="#3957A7" points="21.996 19.70768 25.0768 1.15328 30.1176 1.15328 27.0368 19.70768"></polygon>
                <path d="M17.78272,1.11504 C16.04512,5.22464 14.56272,9.59104 12.77392,13.64784 L12.24832,11.21344 C12.24672,11.20384 12.24192,11.19264 12.24032,11.18464 L12.32912,11.61744 C11.94032,10.33664 11.27952,9.12864 10.43392,8.02064 C10.41152,7.99184 10.38912,7.96304 10.36672,7.93424 C10.21872,7.74384 10.06192,7.55904 9.90272,7.37424 C9.80672,7.26144 9.68992,7.14304 9.58912,7.03184 C8.36912,5.69024 6.88832,4.43184 5.32672,3.51344 L9.82672,19.66704 L15.22912,19.66704 C17.77232,13.40624 20.51632,7.34864 23.08672,1.11504 L17.78272,1.11504 Z" id="Fill-6" fill="#3957A7"></path>
                <g id="Group-10" transform="translate(44.000000, 0.794960)">
                    <mask id="mask-4" fill="white">
                        <use xlink:href="#path-3"></use>
                    </mask>
                    <g id="Clip-9"></g>
                    <path d="M10.74888,5.4604 L8.18248,12.3588 L12.33288,12.3588 L10.74888,5.4604 Z M18.39688,18.9708 L13.78088,18.9708 C13.48248,18.0868 13.39928,16.986 13.09288,16.1084 L6.80728,16.1084 L5.62888,18.9708 L0.32488,18.9708 L7.20008,3.0836 C7.50328,2.386 8.04968,1.434 8.28008,1.0108 C8.62968,0.3684 9.98088,0.3204 10.55528,0.3204 L14.36968,0.3204 L18.39688,18.9708 Z" id="Fill-8" fill="#3957A7" mask="url(#mask-4)"></path>
                </g>
                <g id="Group-13" transform="translate(0.000000, 0.794960)">
                    <mask id="mask-6" fill="white">
                        <use xlink:href="#path-5"></use>
                    </mask>
                    <g id="Clip-12"></g>
                    <path d="M8.04144,0.00504 L-0.00016,0.00504 L-0.00016,0.40504 C4.62864,1.32504 10.44544,5.35784 12.00304,10.40184 L10.27664,1.84424 C10.04144,0.52504 9.13984,0.00504 8.04144,0.00504" id="Fill-11" fill="#F2A239" mask="url(#mask-6)"></path>
                </g>
            </g>
        </g>
    </g>
</svg>