<?xml version="1.0" encoding="UTF-8" standalone="no"?>
<svg width="24px" height="24px" viewBox="0 0 24 24" version="1.1" xmlns="http://www.w3.org/2000/svg" xmlns:xlink="http://www.w3.org/1999/xlink">
    <!-- Generator: sketchtool 39.1 (31720) - http://www.bohemiancoding.com/sketch -->
    <title>DB417ABB-572D-4CC1-874E-732744000E62</title>
    <desc>Created with sketchtool.</desc>
    <defs></defs>
    <g id="Icons" stroke="none" stroke-width="1" fill="none" fill-rule="evenodd">
        <g id="specs--icons" transform="translate(-347.000000, -163.000000)">
            <g id="ico--inputField--clear" transform="translate(347.000000, 163.000000)">
                <path d="M12,4.54747351e-13 C5.376,4.54747351e-13 -4.54747351e-13,5.376 -4.54747351e-13,12 C-4.54747351e-13,18.624 5.376,24 12,24 C18.624,24 24,18.624 24,12 C24,5.376 18.624,4.54747351e-13 12,4.54747351e-13 L12,4.54747351e-13 Z" id="Shape" fill="#B0B8C3"></path>
                <polygon id="Path" fill="#FFFFFF" transform="translate(12.000000, 12.000000) rotate(-315.000000) translate(-12.000000, -12.000000) " points="18 13.2 13.2 13.2 13.2 18 10.8 18 10.8 13.2 6 13.2 6 10.8 10.8 10.8 10.8 6 13.2 6 13.2 10.8 18 10.8"></polygon>
            </g>
        </g>
    </g>
</svg>