<?xml version="1.0" encoding="UTF-8" standalone="no"?>
<svg width="160px" height="39px" viewBox="0 0 160 39" version="1.1" xmlns="http://www.w3.org/2000/svg" xmlns:xlink="http://www.w3.org/1999/xlink">
    <!-- Generator: sketchtool 39.1 (31720) - http://www.bohemiancoding.com/sketch -->
    <title>9C1DF9E9-DF06-43D2-9E1B-6D290C3B6067</title>
    <desc>Created with sketchtool.</desc>
    <defs>
        <polygon id="path-1" points="9.7883871 25.2490323 9.7883871 0.735483871 0.620411636 0.735483871 0.620411636 25.2490323 9.7883871 25.2490323"></polygon>
    </defs>
    <g id="Icons" stroke="none" stroke-width="1" fill="none" fill-rule="evenodd">
        <g id="specs--icons" transform="translate(-994.000000, -433.000000)">
            <g id="ico--directDebit--saved--payPal" transform="translate(994.000000, 433.000000)">
                <path d="M60.6451613,16.9729032 C60.1625806,20.1393548 57.7432258,20.1393548 55.403871,20.1393548 L54.0722581,20.1393548 L55.0064516,14.2258065 C55.0619355,13.8683871 55.3716129,13.6051613 55.7329032,13.6051613 L56.3432258,13.6051613 C57.9367742,13.6051613 59.44,13.6051613 60.2167742,14.5135484 C60.68,15.0554839 60.8219355,15.8606452 60.6451613,16.9729032 M66.0593548,10.9612903 C64.8051613,9.48774194 62.5806452,8.7083871 59.6270968,8.7083871 L50.8025806,8.7083871 C50.1987097,8.7083871 49.6851613,9.14709677 49.5909677,9.74322581 L46.0219355,32.3716129 C45.9509677,32.8180645 46.2967742,33.2206452 46.7496774,33.2206452 L50.9625806,33.2206452 C51.5664516,33.2206452 52.08,32.7819355 52.1741935,32.1845161 L53.1367742,26.0812903 C53.2296774,25.483871 53.7445161,25.0451613 54.3470968,25.0451613 L57.1406452,25.0451613 C62.9535484,25.0451613 66.3083871,22.2322581 67.1845161,16.6580645 C67.5793548,14.2193548 67.2012903,12.3032258 66.0593548,10.9612903" id="Fill-1" fill="#253B80"></path>
                <path d="M80.1148387,25.0954839 C79.7070968,27.5096774 77.7909677,29.1303226 75.3470968,29.1303226 C74.12,29.1303226 73.1393548,28.7367742 72.5096774,27.9909677 C71.8851613,27.2503226 71.6477419,26.196129 71.8464516,25.0219355 C72.2270968,22.6283871 74.1754839,20.9548387 76.5819355,20.9548387 C77.7819355,20.9548387 78.7574194,21.3535484 79.4,22.1058065 C80.043871,22.8658065 80.2993548,23.9264516 80.1148387,25.0954839 M86.0051613,16.8709677 L81.7793548,16.8709677 C81.4193548,16.8709677 81.1083871,17.1341935 81.0529032,17.4916129 L80.8658065,18.6735484 L80.5703226,18.2451613 C79.6554839,16.9174194 77.6154839,16.4735484 75.5793548,16.4735484 C70.9096774,16.4735484 66.9212903,20.0103226 66.1445161,24.9716129 C65.7406452,27.4464516 66.3148387,29.8129032 67.7187097,31.4632258 C69.0064516,32.9806452 70.8490323,33.6129032 73.0412903,33.6129032 C76.803871,33.6129032 78.8903226,31.1935484 78.8903226,31.1935484 L78.7019355,32.3677419 C78.6309677,32.8167742 78.9767742,33.2193548 79.4270968,33.2193548 L83.2335484,33.2193548 C83.8387097,33.2193548 84.3496774,32.7806452 84.4451613,32.1832258 L86.7290323,17.72 C86.8012903,17.2748387 86.4567742,16.8709677 86.0051613,16.8709677" id="Fill-3" fill="#253B80"></path>
                <path d="M108.510968,16.8709677 L104.264516,16.8709677 C103.859355,16.8709677 103.47871,17.0722581 103.249032,17.4090323 L97.3922581,26.036129 L94.9096774,17.7458065 C94.7535484,17.2270968 94.2748387,16.8709677 93.7329032,16.8709677 L89.56,16.8709677 C89.0529032,16.8709677 88.7006452,17.3664516 88.8619355,17.843871 L93.5393548,31.5703226 L89.1419355,37.7780645 C88.796129,38.2670968 89.1445161,38.9393548 89.7419355,38.9393548 L93.9832258,38.9393548 C94.3858065,38.9393548 94.7625806,38.7432258 94.9909677,38.4129032 L109.114839,18.0258065 C109.452903,17.5380645 109.105806,16.8709677 108.510968,16.8709677" id="Fill-5" fill="#253B80"></path>
                <path d="M123.588387,16.9729032 C123.107097,20.1393548 120.687742,20.1393548 118.347097,20.1393548 L117.016774,20.1393548 L117.952258,14.2258065 C118.007742,13.8683871 118.314839,13.6051613 118.677419,13.6051613 L119.287742,13.6051613 C120.88,13.6051613 122.384516,13.6051613 123.16129,14.5135484 C123.624516,15.0554839 123.765161,15.8606452 123.588387,16.9729032 M129,10.9612903 C127.747097,9.48774194 125.523871,8.7083871 122.570323,8.7083871 L113.744516,8.7083871 C113.141935,8.7083871 112.628387,9.14709677 112.534194,9.74322581 L108.965161,32.3716129 C108.894194,32.8180645 109.24,33.2206452 109.690323,33.2206452 L114.219355,33.2206452 C114.64,33.2206452 115,32.9135484 115.065806,32.4954839 L116.07871,26.0812903 C116.171613,25.483871 116.686452,25.0451613 117.289032,25.0451613 L120.08129,25.0451613 C125.895484,25.0451613 129.249032,22.2322581 130.126452,16.6580645 C130.522581,14.2193548 130.141935,12.3032258 129,10.9612903" id="Fill-7" fill="#179BD7"></path>
                <path d="M143.056774,25.0954839 C142.651613,27.5096774 140.732903,29.1303226 138.289032,29.1303226 C137.064516,29.1303226 136.08129,28.7367742 135.451613,27.9909677 C134.827097,27.2503226 134.592258,26.196129 134.788387,25.0219355 C135.171613,22.6283871 137.117419,20.9548387 139.523871,20.9548387 C140.723871,20.9548387 141.699355,21.3535484 142.341935,22.1058065 C142.988387,22.8658065 143.243871,23.9264516 143.056774,25.0954839 M148.947097,16.8709677 L144.723871,16.8709677 C144.36129,16.8709677 144.052903,17.1341935 143.99871,17.4916129 L143.811613,18.6735484 L143.514839,18.2451613 C142.6,16.9174194 140.56129,16.4735484 138.525161,16.4735484 C133.855484,16.4735484 129.868387,20.0103226 129.091613,24.9716129 C128.689032,27.4464516 129.260645,29.8129032 130.664516,31.4632258 C131.954839,32.9806452 133.794839,33.6129032 135.987097,33.6129032 C139.749677,33.6129032 141.836129,31.1935484 141.836129,31.1935484 L141.647742,32.3677419 C141.576774,32.8167742 141.922581,33.2193548 142.375484,33.2193548 L146.180645,33.2193548 C146.783226,33.2193548 147.296774,32.7806452 147.390968,32.1832258 L149.676129,17.72 C149.745806,17.2748387 149.4,16.8709677 148.947097,16.8709677" id="Fill-9" fill="#179BD7"></path>
                <g id="Group-13" transform="translate(149.677419, 7.971613)">
                    <mask id="mask-2" fill="white">
                        <use xlink:href="#path-1"></use>
                    </mask>
                    <g id="Clip-12"></g>
                    <path d="M9.05419355,0.735483871 L4.97677419,0.735483871 C4.61677419,0.736774194 4.30709677,1 4.2516129,1.35741935 L0.629677419,24.4 C0.558709677,24.8464516 0.904516129,25.2490323 1.35483871,25.2490323 L4.99612903,25.2490323 C5.60129032,25.2490323 6.11483871,24.8103226 6.20774194,24.2129032 L9.77935484,1.58580645 C9.85032258,1.13935484 9.50451613,0.735483871 9.05419355,0.735483871" id="Fill-11" fill="#179BD7" mask="url(#mask-2)"></path>
                </g>
                <path d="M29.7393548,9.89290323 L29.7393548,9.89290323 C29.7032258,10.123871 29.6619355,10.36 29.6154839,10.6025806 C28.0193548,18.7974194 22.5587097,21.6283871 15.5845161,21.6283871 L12.0335484,21.6283871 C11.1806452,21.6283871 10.4619355,22.2477419 10.3290323,23.0890323 L8.51096774,34.6193548 L7.99612903,37.8877419 C7.90967742,38.44 8.33548387,38.9380645 8.89290323,38.9380645 L15.1909677,38.9380645 C15.9367742,38.9380645 16.5703226,38.396129 16.6877419,37.6606452 L16.7496774,37.3406452 L17.9354839,29.8154839 L18.0116129,29.4025806 C18.1277419,28.6645161 18.7625806,28.1225806 19.5083871,28.1225806 L20.4503226,28.1225806 C26.5522581,28.1225806 31.3290323,25.6451613 32.7251613,18.476129 C33.3083871,15.4812903 33.0064516,12.9806452 31.4632258,11.2219355 C30.996129,10.6916129 30.4167742,10.2516129 29.7393548,9.89290323" id="Fill-14" fill="#179BD7"></path>
                <path d="M12.0335484,21.6283871 L15.5845161,21.6283871 C16.4567742,21.6283871 17.3045161,21.5845161 18.123871,21.4903226 C23.8632258,20.836129 28.2193548,17.7716129 29.6154839,10.6025806 C29.6632258,10.36 29.7032258,10.123871 29.7393548,9.89290323 C29.3354839,9.67870968 28.8980645,9.49548387 28.4270968,9.33935484 C28.3109677,9.30064516 28.1909677,9.26322581 28.0696774,9.22709677 C27.8258065,9.15612903 27.5741935,9.0916129 27.316129,9.03354839 C27.0567742,8.97677419 26.7909677,8.92645161 26.5174194,8.88258065 C25.56,8.72774194 24.5109677,8.65419355 23.3870968,8.65419355 L13.9006452,8.65419355 C13.6670968,8.65419355 13.4451613,8.70709677 13.2464516,8.80258065 C12.8090323,9.01290323 12.483871,9.42709677 12.4051613,9.93419355 L10.3870968,22.716129 L10.3290323,23.0890323 C10.4619355,22.2477419 11.1806452,21.6283871 12.0335484,21.6283871" id="Fill-16" fill="#222D65"></path>
                <path d="M28.0993548,2.93548387 C26.2941935,0.88 23.036129,0 18.8670968,0 L6.76387097,0 C5.91225806,0 5.18580645,0.619354839 5.05419355,1.46193548 L0.0129032258,33.4167742 C-0.0864516129,34.0490323 0.401290323,34.6193548 1.03870968,34.6193548 L8.51096774,34.6193548 L8.71870968,33.3006452 L8.71870968,33.3006452 L10.3290323,23.0890323 L10.3870968,22.716129 L12.4051613,9.93419355 C12.483871,9.42709677 12.8090323,9.01290323 13.2464516,8.80258065 C13.4451613,8.70709677 13.6670968,8.65419355 13.9006452,8.65419355 L23.3870968,8.65419355 C24.5109677,8.65419355 25.56,8.72774194 26.5174194,8.88258065 C26.7909677,8.92645161 27.0567742,8.97677419 27.316129,9.03354839 C27.5741935,9.0916129 27.8258065,9.15612903 28.0696774,9.22709677 C28.1909677,9.26322581 28.3109677,9.30064516 28.4270968,9.33935484 C28.443871,9.34451613 28.4580645,9.35354839 28.4748387,9.36 L28.4748387,9.35870968 C28.9264516,9.51096774 29.3509677,9.68774194 29.7406452,9.89290323 C30.2154839,6.86451613 29.7367742,4.80258065 28.0993548,2.93548387" id="Fill-18" fill="#253B80"></path>
            </g>
        </g>
    </g>
</svg>