<?xml version="1.0" encoding="UTF-8" standalone="no"?>
<svg width="40px" height="54px" viewBox="0 0 40 54" version="1.1" xmlns="http://www.w3.org/2000/svg" xmlns:xlink="http://www.w3.org/1999/xlink">
    <!-- Generator: Sketch 42 (36781) - http://www.bohemiancoding.com/sketch -->
    <title>Exp_thermometer</title>
    <desc>Created with Sketch.</desc>
    <defs></defs>
    <g id="Billing-States-Working" stroke="none" stroke-width="1" fill="none" fill-rule="evenodd">
        <g id="wd/billing/PAYG-lowBalance" transform="translate(-392.000000, -84.000000)">
            <g id="icon/exp/thermometer" transform="translate(392.000000, 84.000000)">
                <g id="iconExp_thermometer">
                    <g id="Group-4" transform="translate(12.234959, 11.996139)">
                        <g id="Group-2">
                            <path d="M8.38304796,23.8806194 C12.9629291,23.8806194 16.6896256,27.7340144 16.6896256,32.4696004 C16.6896256,37.2051864 12.9629291,41.0567474 8.38304796,41.0567474 C3.80139301,41.0567474 0.0746965162,37.2051864 0.0746965162,32.4696004 C0.0746965162,27.7340144 3.80139301,23.8806194 8.38304796,23.8806194 L8.38304796,23.8806194 Z" id="Combined-Shape-Copy" fill="#001CB0"></path>
                            <rect id="Rectangle" fill="#001CB0" x="5.61300622" y="19.7330973" width="5.32098161" height="17.176128" rx="1"></rect>
                            <rect id="Rectangle-Copy" stroke="#001CB0" stroke-width="2" x="5.61300622" y="0.757407431" width="5.32098161" height="36.0120863" rx="1"></rect>
                        </g>
                    </g>
                    <g id="Group" transform="translate(0.464528, 0.673570)" stroke="#50E3C2" fill="#50E3C2">
                        <path d="M20.9957368,4.29122814 C20.9957368,4.77420261 20.5984083,5.16863175 20.1132689,5.16863175 L19.3871166,5.16863175 C18.9019772,5.16863175 18.5046486,4.77420261 18.5046486,4.29122814 L18.5046486,0.877589374 C18.5046486,0.394614907 18.9019772,0.000185759411 19.3871166,0.000185759411 L20.1132689,0.000185759411 C20.5984083,0.000185759411 20.9957368,0.394614907 20.9957368,0.877589374 L20.9957368,4.29122814 Z" id="Fill-9"></path>
                        <path d="M5.741496,18.7550131 C5.741496,19.2379876 5.34416743,19.6324167 4.859028,19.6324167 L1.50975992,19.6324167 C1.02399772,19.6324167 0.627291928,19.2379876 0.627291928,18.7550131 L0.627291928,18.0336474 C0.627291928,17.5506729 1.02399772,17.1556246 1.50975992,17.1556246 L4.859028,17.1556246 C5.34416743,17.1556246 5.741496,17.5506729 5.741496,18.0336474 L5.741496,18.7550131 Z" id="Fill-11"></path>
                        <path d="M38.9004644,18.7550131 C38.9004644,19.2379876 38.5031358,19.6324167 38.0179964,19.6324167 L34.6687283,19.6324167 C34.1829661,19.6324167 33.7862603,19.2379876 33.7862603,18.7550131 L33.7862603,18.0336474 C33.7862603,17.5506729 34.1829661,17.1556246 34.6687283,17.1556246 L38.0179964,17.1556246 C38.5031358,17.1556246 38.9004644,17.5506729 38.9004644,18.0336474 L38.9004644,18.7550131 Z" id="Fill-11-Copy"></path>
                        <path d="M9.64702407,9.47862159 C9.30387667,9.81979971 8.74213628,9.81979971 8.39898888,9.47862159 L5.97142344,7.06498765 C5.62765327,6.72380954 5.62765327,6.16529291 5.97142344,5.82411479 L6.48458761,5.31327641 C6.827735,4.9720983 7.38947539,4.9720983 7.73262279,5.31327641 L10.1601882,7.72691035 C10.5033356,8.06870767 10.5033356,8.6272243 10.1601882,8.96840241 L9.64702407,9.47862159 Z" id="Fill-16"></path>
                        <path d="M31.1013343,9.47886927 C30.7581869,9.82004739 30.1964465,9.82004739 29.8532991,9.47886927 L29.3395122,8.96865009 C28.9963648,8.62747197 28.9963648,8.06895535 29.3395122,7.72715803 L31.7670777,5.31352409 C32.1108478,4.97234598 32.6725882,4.97234598 33.0157356,5.31352409 L33.5288998,5.82374327 C33.8720472,6.16492139 33.8720472,6.72343802 33.5288998,7.06523533 L31.1013343,9.47886927 Z" id="Fill-18"></path>
                    </g>
                </g>
            </g>
        </g>
    </g>
</svg>