<?xml version="1.0" encoding="UTF-8" standalone="no"?>
<svg width="26px" height="26px" viewBox="0 0 26 26" version="1.1" xmlns="http://www.w3.org/2000/svg" xmlns:xlink="http://www.w3.org/1999/xlink">
    <!-- Generator: sketchtool 39.1 (31720) - http://www.bohemiancoding.com/sketch -->
    <title>E58D6577-7541-4C5E-BA59-1FD7C8DF6987</title>
    <desc>Created with sketchtool.</desc>
    <defs></defs>
    <g id="Icons" stroke="none" stroke-width="1" fill="none" fill-rule="evenodd">
        <g id="specs--icons" transform="translate(-154.000000, -737.000000)">
            <g id="ico--progress--success--active" transform="translate(154.000000, 737.000000)">
                <path d="M12.9615385,0.461538462 C6.06153846,0.461538462 0.461538462,6.06153846 0.461538462,12.9615385 C0.461538462,19.8615385 6.06153846,25.4615385 12.9615385,25.4615385 C19.8615385,25.4615385 25.4615385,19.8615385 25.4615385,12.9615385 C25.4615385,6.06153846 19.8615385,0.461538462 12.9615385,0.461538462 L12.9615385,0.461538462 Z" id="Shape" fill="#83CE40"></path>
                <polygon id="Combined-Shape" fill="#FFFFFF" points="10.6659341 19.0559802 11.0208369 18.6983526 20.2779797 9.37013767 20.6262623 9.01918118 20.279222 8.66699627 18.8289363 7.19521125 18.4740475 6.83506154 18.1178884 7.19395505 10.3110312 15.0607497 11.0203453 15.060255 7.32777391 11.3496984 6.972868 10.9930639 6.61845982 11.3501931 5.16817411 12.8116134 4.81865873 13.1638122 5.16817411 13.516011 10.3110312 18.6983526"></polygon>
            </g>
        </g>
    </g>
</svg>