<?xml version="1.0" encoding="UTF-8" standalone="no"?>
<svg width="24px" height="24px" viewBox="0 0 24 24" version="1.1" xmlns="http://www.w3.org/2000/svg" xmlns:xlink="http://www.w3.org/1999/xlink">
    <!-- Generator: sketchtool 39.1 (31720) - http://www.bohemiancoding.com/sketch -->
    <title>D0959318-909C-42C5-8291-E829DA7FCF10</title>
    <desc>Created with sketchtool.</desc>
    <defs></defs>
    <g id="Icons" stroke="none" stroke-width="1" fill="none" fill-rule="evenodd">
        <g id="specs--icons" transform="translate(-347.000000, -278.000000)" fill="#0057BF">
            <path d="M367.482064,281.517936 C362.791483,276.827355 355.208517,276.827355 350.517936,281.517936 C345.827355,286.208517 345.827355,293.791483 350.517936,298.482064 C355.208517,303.172645 362.791483,303.172645 367.482064,298.482064 C372.172645,293.791483 372.172645,286.208517 367.482064,281.517936 L367.482064,281.517936 L367.482064,281.517936 L367.482064,281.517936 Z M360.195971,297.286093 L357.804029,297.286093 L357.804029,291.195971 L351.713907,291.195971 L351.713907,288.804029 L357.804029,288.804029 L357.804029,282.713907 L360.195971,282.713907 L360.195971,288.804029 L366.286093,288.804029 L366.286093,291.195971 L360.195971,291.195971 L360.195971,297.286093 L360.195971,297.286093 L360.195971,297.286093 L360.195971,297.286093 Z" id="ico--plusAdd"></path>
        </g>
    </g>
</svg>