<?xml version="1.0" encoding="UTF-8" standalone="no"?>
<svg width="25px" height="25px" viewBox="0 0 25 25" version="1.1" xmlns="http://www.w3.org/2000/svg" xmlns:xlink="http://www.w3.org/1999/xlink">
    <!-- Generator: sketchtool 39.1 (31720) - http://www.bohemiancoding.com/sketch -->
    <title>587BBBE3-4F6E-4B85-9D43-8702D995447E</title>
    <desc>Created with sketchtool.</desc>
    <defs></defs>
    <g id="Icons" stroke="none" stroke-width="1" fill="none" fill-rule="evenodd">
        <g id="specs--icons" transform="translate(-99.000000, -737.000000)">
            <g id="ico--progress--edit--active" transform="translate(99.000000, 737.000000)">
                <path d="M12.5,0 C5.6,0 0,5.6 0,12.5 C0,19.4 5.6,25 12.5,25 C19.4,25 25,19.4 25,12.5 C25,5.6 19.4,0 12.5,0 L12.5,0 Z" id="Shape" fill="#83CE40"></path>
                <path d="M7,16.2892283 L7,18.7333333 L9.44410499,18.7333333 L16.6525853,11.524853 L14.2084803,9.08074804 L7,16.2892283 L7,16.2892283 Z M18.5426931,9.63474517 C18.7968801,9.38055826 18.7968801,8.96994862 18.5426931,8.7157617 L17.0175716,7.19064019 C16.7633847,6.93645327 16.3527751,6.93645327 16.0985882,7.19064019 L14.9058649,8.38336342 L17.3499699,10.8274684 L18.5426931,9.63474517 L18.5426931,9.63474517 Z" id="Shape" fill="#FFFFFF"></path>
            </g>
        </g>
    </g>
</svg>