<?xml version="1.0" encoding="UTF-8" standalone="no"?>
<svg width="50px" height="37px" viewBox="0 0 50 37" version="1.1" xmlns="http://www.w3.org/2000/svg" xmlns:xlink="http://www.w3.org/1999/xlink">
    <!-- Generator: sketchtool 39.1 (31720) - http://www.bohemiancoding.com/sketch -->
    <title>298F793D-6BC8-4FAA-A7F4-3B34C5EB5569</title>
    <desc>Created with sketchtool.</desc>
    <defs></defs>
    <g id="Icons" stroke="none" stroke-width="1" fill="none" fill-rule="evenodd">
        <g id="specs--icons" transform="translate(-649.000000, -555.000000)" fill="#FFFFFF">
            <g id="ico--directDebit--creditCard--active" transform="translate(649.000000, 555.000000)">
                <path d="M45.1877294,0.744545455 L15.2301985,0.744545455 C12.6324794,0.744545455 10.5187148,2.85905455 10.5187148,5.46049636 L10.5187148,5.47538727 L10.5187148,6.56540182 L12.5669594,6.56540182 L12.5669594,5.47538727 C12.5669594,3.99150818 13.7604657,2.79576818 15.2301985,2.79576818 L45.1877294,2.79576818 C46.6552285,2.79576818 47.8494794,3.99150818 47.8494794,5.46049636 L47.8494794,8.61662455 L39.506103,8.61662455 C40.693653,9.83693455 41.4285194,11.5002491 41.4285194,13.3340645 L41.4285194,14.1448745 L47.8494794,14.1448745 L47.8494794,24.1590109 C47.8494794,25.64289 46.6552285,26.8378855 45.1877294,26.8378855 L41.4285194,26.8378855 L41.4285194,28.8898527 L45.1877294,28.8898527 C47.786193,28.8898527 49.8984685,26.7738545 49.8984685,24.1724127 L49.8984685,24.1590109 L49.8984685,5.46049636 C49.8984685,2.85905455 47.786193,0.744545455 45.1877294,0.744545455 Z M46.2529505,17.2111361 C46.2529505,16.8708788 45.9782133,16.595397 45.637956,16.595397 L41.428296,16.595397 L41.428296,17.8268752 L45.637956,17.8268752 C45.9782133,17.8268752 46.2529505,17.5506488 46.2529505,17.2111361 Z M41.4282215,20.8060249 L45.6378815,20.8060249 C45.9781388,20.8060249 46.2528761,20.5305431 46.2528761,20.1902858 C46.2528761,19.8507731 45.9781388,19.5745467 45.6378815,19.5745467 L41.4282215,19.5745467 L41.4282215,20.8060249 Z" id="Combined-Shape"></path>
                <path d="M34.4458743,27.3443997 L4.85242609,27.3443997 C4.441437,27.3443997 4.10788064,27.0108434 4.10788064,26.5998543 C4.10788064,26.1888652 4.441437,25.8553088 4.85242609,25.8553088 L34.4458743,25.8553088 C34.8568634,25.8553088 35.1904197,26.1888652 35.1904197,26.5998543 C35.1904197,27.0108434 34.8568634,27.3443997 34.4458743,27.3443997 L34.4458743,27.3443997 Z M21.6046988,31.4393997 L4.48015336,31.4393997 C4.27465882,31.4393997 4.10788064,31.2726215 4.10788064,31.067127 C4.10788064,30.8616325 4.27465882,30.6948543 4.48015336,30.6948543 L21.6046988,30.6948543 C21.8101934,30.6948543 21.9769715,30.8616325 21.9769715,31.067127 C21.9769715,31.2726215 21.8101934,31.4393997 21.6046988,31.4393997 L21.6046988,31.4393997 Z M4.10788064,16.5983752 C4.10788064,16.1873861 4.441437,15.8538297 4.85242609,15.8538297 L10.534797,15.8538297 C10.9457861,15.8538297 11.2793425,16.1873861 11.2793425,16.5983752 L11.2793425,22.2800015 C11.2793425,22.6917352 10.9457861,23.024547 10.534797,23.024547 L4.85242609,23.024547 C4.441437,23.024547 4.10788064,22.6917352 4.10788064,22.2800015 L4.10788064,16.5983752 Z M34.6684934,8.61684791 L4.71096245,8.61684791 C2.11175427,8.61684791 0.000223363637,10.7321015 0.000223363637,13.3335434 L0.000223363637,32.0447152 C0.000223363637,34.646157 2.11175427,36.7614106 4.71096245,36.7614106 L34.6684934,36.7614106 C37.266957,36.7614106 39.3792325,34.646157 39.3792325,32.0447152 L39.3792325,13.3335434 C39.3792325,10.7321015 37.266957,8.61684791 34.6684934,8.61684791 L34.6684934,8.61684791 Z" id="Fill-8"></path>
            </g>
        </g>
    </g>
</svg>