<?xml version="1.0" encoding="UTF-8" standalone="no"?>
<svg width="25px" height="25px" viewBox="0 0 25 25" version="1.1" xmlns="http://www.w3.org/2000/svg" xmlns:xlink="http://www.w3.org/1999/xlink">
    <!-- Generator: Sketch 42 (36781) - http://www.bohemiancoding.com/sketch -->
    <title>ico_inform</title>
    <desc>Created with Sketch.</desc>
    <defs></defs>
    <g id="Page-1" stroke="none" stroke-width="1" fill="none" fill-rule="evenodd">
        <g id="07---Success-Dr" transform="translate(-316.000000, -435.000000)" fill="#006CE5">
            <path d="M329.732394,443.744131 L329.732394,441.220657 L327.267606,441.220657 L327.267606,443.744131 L329.732394,443.744131 Z M329.732394,453.779343 L329.732394,446.267606 L327.267606,446.267606 L327.267606,453.779343 L329.732394,453.779343 Z M328.5,435 C331.942897,435 334.88692,436.222601 337.33216,438.66784 C339.777399,441.11308 341,444.057103 341,447.5 C341,450.942897 339.777399,453.88692 337.33216,456.33216 C334.88692,458.777399 331.942897,460 328.5,460 C325.057103,460 322.11308,458.777399 319.66784,456.33216 C317.222601,453.88692 316,450.942897 316,447.5 C316,444.057103 317.222601,441.11308 319.66784,438.66784 C322.11308,436.222601 325.057103,435 328.5,435 Z" id="ico_inform"></path>
        </g>
    </g>
</svg>