<?xml version="1.0" encoding="UTF-8" standalone="no"?>
<svg width="18px" height="18px" viewBox="0 0 18 18" version="1.1" xmlns="http://www.w3.org/2000/svg" xmlns:xlink="http://www.w3.org/1999/xlink">
    <!-- Generator: Sketch 39.1 (31720) - http://www.bohemiancoding.com/sketch -->
    <title>Shape</title>
    <desc>Created with Sketch.</desc>
    <defs></defs>
    <g id="Direct-debit" stroke="none" stroke-width="1" fill="none" fill-rule="evenodd">
        <g id="settings/directDebit/setup---creditCard-open" transform="translate(-864.000000, -346.000000)" fill="#8590A2">
            <g id="Group" transform="translate(864.000000, 315.000000)">
                <g id="Group-4" transform="translate(0.000000, 30.000000)">
                    <path d="M9,1 C4.032,1 0,5.032 0,10 C0,14.968 4.032,19 9,19 C13.968,19 18,14.968 18,10 C18,5.032 13.968,1 9,1 L9,1 Z M9.9,14.5 L8.1,14.5 L8.1,12.7 L9.9,12.7 L9.9,14.5 L9.9,14.5 Z M9.9,10.9 L8.1,10.9 L8.1,5.5 L9.9,5.5 L9.9,10.9 L9.9,10.9 Z" id="Shape" transform="translate(9.000000, 10.000000) scale(1, -1) translate(-9.000000, -10.000000) "></path>
                </g>
            </g>
        </g>
    </g>
</svg>