<?xml version="1.0" encoding="UTF-8" standalone="no"?>
<svg width="32px" height="20px" viewBox="0 0 32 20" version="1.1" xmlns="http://www.w3.org/2000/svg" xmlns:xlink="http://www.w3.org/1999/xlink" xmlns:sketch="http://www.bohemiancoding.com/sketch/ns">
    <!-- Generator: Sketch 3.4.3 (16044) - http://www.bohemiancoding.com/sketch -->
    <title>Shape + Shape</title>
    <desc>Created with Sketch.</desc>
    <defs></defs>
    <g id="Page-1" stroke="none" stroke-width="1" fill="none" fill-rule="evenodd" sketch:type="MSPage">
        <g id="Desktop---reference-number-highlighted" sketch:type="MSArtboardGroup" transform="translate(-306.000000, -650.000000)" fill="#4A4A4A">
            <g id="Shape-+-Shape" sketch:type="MSLayerGroup" transform="translate(306.000000, 650.000000)">
                <path d="M2,2.99420208 L2,2.99420208 L2,17.0057979 C2,17.5530739 2.44692464,18 2.99610022,18 L29.0038998,18 C29.5582508,18 30,17.5578027 30,17.0057979 L30,2.99420208 C30,2.44692609 29.5530754,2 29.0038998,2 L2.99610022,2 C2.44174919,2 2,2.44219726 2,2.99420208 L2,2.99420208 Z M0,2.99420208 C0,1.34054993 1.33425951,0 2.99610022,0 L29.0038998,0 C30.6586002,0 32,1.34331197 32,2.99420208 L32,17.0057979 C32,18.6594501 30.6657405,20 29.0038998,20 L2.99610022,20 C1.34139976,20 0,18.656688 0,17.0057979 L0,2.99420208 L0,2.99420208 Z" id="Shape" sketch:type="MSShapeGroup"></path>
                <path d="M2,7.5 L29.5,7.5 L31,7.5 L31,4.5 L29.5,4.5 L2,4.5 L0.5,4.5 L0.5,7.5 L2,7.5 L2,7.5 Z" id="Shape" sketch:type="MSShapeGroup"></path>
            </g>
        </g>
    </g>
</svg>