<?xml version="1.0" encoding="UTF-8" standalone="no"?>
<svg width="43px" height="59px" viewBox="0 0 43 59" version="1.1" xmlns="http://www.w3.org/2000/svg" xmlns:xlink="http://www.w3.org/1999/xlink">
    <!-- Generator: Sketch 42 (36781) - http://www.bohemiancoding.com/sketch -->
    <title>light blue gas meter</title>
    <desc>Created with Sketch.</desc>
    <defs></defs>
    <g id="Symbols" stroke="none" stroke-width="1" fill="none" fill-rule="evenodd">
        <g id="light-blue-gas-meter">
            <path d="M34.8996441,52 C39.3088459,52 42.8915477,48.4196938 42.8908141,44.0031624 L42.8848332,7.99683765 C42.8840986,3.57417059 39.3009637,0 34.8816751,0 L8.00913911,0 C3.58916273,0 0.0067145951,3.58030617 0.00598098239,7.99683765 L1.13110855e-07,44.0031624 C-0.000734518756,48.4258294 3.57703519,52 7.99117015,52 L18,52 L18,56.9986107 C18,58.1050616 18.8944962,59 19.9979131,59 L22.0020869,59 C23.1017394,59 24,58.1039475 24,56.9986107 L24,52 L34.8996441,52 Z" id="Combined-Shape" fill="#00DFED"></path>
            <path d="M6,9.9947834 C6,7.78852545 7.78679466,6 9.9992748,6 L32.0007252,6 C34.2094637,6 36,7.79171562 36,9.9947834 L36,20.0052166 C36,22.2114745 34.2132053,24 32.0007252,24 L9.9992748,24 C7.79053632,24 6,22.2082844 6,20.0052166 L6,9.9947834 Z" id="Rectangle-3-Copy" fill="#FFFFFF"></path>
            <circle id="Oval-5" fill="#001CB0" cx="17.5" cy="12.5" r="2.5"></circle>
            <circle id="Oval-5-Copy-2" fill="#001CB0" cx="12.5" cy="15.5" r="2.5"></circle>
            <circle id="Oval-5-Copy-3" fill="#001CB0" cx="28.5" cy="15.5" r="2.5"></circle>
            <circle id="Oval-5-Copy" fill="#001CB0" cx="23.5" cy="12.5" r="2.5"></circle>
            <path d="M26.9441897,40.3594057 L27.197194,40.3359551 C27.1976617,40.3297335 27.2,40.276132 27.2,40.2699104 C27.2,40.0607691 27.1864378,39.8588065 27.1593135,39.6659371 C26.9610255,37.4113265 26.0855652,35.5118255 26.0481523,35.4319019 C25.9999833,35.3290063 25.8933567,35.2677475 25.7806505,35.2892838 C25.6702827,35.3079486 25.5847008,35.3988796 25.572074,35.5127827 C25.5369995,35.8118979 25.3438557,36.6489418 24.872454,36.928435 C24.643768,37.0633957 24.3706543,37.0576527 24.0358094,36.9116845 C22.7207483,36.3369048 21.7989895,31.9492441 22.2371874,30.5125341 C22.2919036,30.3316293 22.3545701,30.1263166 22.1478642,30.0267711 C22.0113074,29.9621622 21.890651,30.0148065 21.784492,30.1813538 L21.7344524,30.2579273 C21.1377177,31.1160289 20.3684162,32.0971267 19.5537517,33.1356546 C18.7157042,34.2043333 17.8491294,35.3089058 17.1317383,36.3340333 C16.0079502,37.9411193 16,40.0531117 16,40.1416498 C16,40.1564859 16.001403,40.1708435 16.0042089,40.185201 C16.0018706,40.2120017 16,40.239281 16,40.2699104 C16,43.4295238 18.5118043,46 21.5997662,46 C24.5656687,46 27.003115,43.6444082 27.1826966,40.6216699 C27.1934528,40.5924762 27.2,40.5604111 27.2,40.5273888 L27.1957911,40.3550984 L26.9441897,40.3594057 Z" id="Fill-1" fill="#FFFFFF"></path>
        </g>
    </g>
</svg>