<?xml version="1.0" encoding="UTF-8"?>
<svg width="30px" height="18px" viewBox="0 0 30 18" version="1.1" xmlns="http://www.w3.org/2000/svg" xmlns:xlink="http://www.w3.org/1999/xlink">
    <!-- Generator: Sketch 41.2 (35397) - http://www.bohemiancoding.com/sketch -->
    <title>iconPay_visaCard</title>
    <desc>Created with Sketch.</desc>
    <defs></defs>
    <g id="Page-1" stroke="none" stroke-width="1" fill="none" fill-rule="evenodd">
        <g id="iconPay_visaCard">
            <g id="Slice-1">
                <g id="Group">
                    <rect id="Rectangle-path" fill="#0E4595" x="0" y="0" width="30" height="18" rx="3"></rect>
                    <path d="M10.5697637,12.6985948 L11.8372371,5.26081276 L13.8645868,5.26081276 L12.5962395,12.6985948 L10.5697637,12.6985948 L10.5697637,12.6985948 Z M19.920458,5.42126061 C19.5187874,5.27057717 18.88942,5.10887552 18.1034801,5.10887552 C16.1002565,5.10887552 14.6891664,6.11761114 14.6771984,7.56338956 C14.6658762,8.6321554 15.6845282,9.22827827 16.4535229,9.58409029 C17.2426543,9.94860289 17.5079271,10.181125 17.5042037,10.5066939 C17.4991885,11.0051727 16.8740004,11.2329836 16.2913274,11.2329836 C15.4798556,11.2329836 15.0487778,11.120294 14.3829743,10.8425592 L14.1217669,10.7243985 L13.8371932,12.3894012 C14.3107481,12.5970373 15.1863534,12.776938 16.0954693,12.7862465 C18.226542,12.7862465 19.6098966,11.788985 19.625702,10.2451066 C19.6333768,9.39906044 19.0932568,8.75514136 17.9236554,8.22429186 C17.2150328,7.88025792 16.7810296,7.65058535 16.7856648,7.30225811 C16.7856648,6.99310248 17.152951,6.66244236 17.9466036,6.66244236 C18.6095956,6.65218404 19.0898373,6.79678847 19.4639624,6.94739593 L19.6455728,7.03326194 L19.920458,5.42118463 L19.920458,5.42126061 Z M25.1372739,5.26081276 L23.5707892,5.26081276 C23.0854563,5.26081276 22.7223114,5.39329717 22.5091662,5.87760425 L19.4983468,12.6938076 L21.6271399,12.6938076 C21.6271399,12.6938076 21.9752772,11.7772829 22.0540003,11.5761057 C22.2866364,11.5761057 24.3546394,11.5792972 24.6503453,11.5792972 C24.7109454,11.8396307 24.8969251,12.6937696 24.8969251,12.6937696 L26.7781125,12.6937696 L25.1372359,5.26073677 L25.1372739,5.26081276 Z M22.6517949,10.0634962 C22.8194616,9.634926 23.4595433,7.98436096 23.4595433,7.98436096 C23.4475373,8.00411774 23.6259562,7.55370114 23.7283495,7.27444664 L23.8653552,7.91578213 C23.8653552,7.91578213 24.2535379,9.69111885 24.3346547,10.0634582 L22.6517949,10.0634582 L22.6517949,10.0634962 Z M8.84887209,5.26081276 L6.86407551,10.3328343 L6.65256397,9.30213823 C6.28307418,8.11391985 5.13186177,6.82661361 3.84489748,6.18208664 L5.65970976,12.6867787 L7.80468824,12.6843091 L10.9963202,5.26088875 L8.84891008,5.26088875 L8.84887209,5.26081276 Z" id="Shape" fill="#FFFFFF"></path>
                    <path d="M5.01214328,5.26081276 L1.74315596,5.26081276 L1.71720618,5.41556154 C4.26051176,6.03121322 5.94333354,7.51901279 6.64188771,9.30665949 L5.93109954,5.88873644 C5.80837953,5.41780318 5.45237754,5.27726408 5.01210528,5.26085075" id="Shape" fill="#F2AE14"></path>
                </g>
            </g>
        </g>
    </g>
</svg>