<?xml version="1.0" encoding="UTF-8" standalone="no"?>
<svg width="65px" height="105px" viewBox="8 10 15 15"
    version="1.1" xmlns="http://www.w3.org/2000/svg" xmlns:xlink="http://www.w3.org/1999/xlink">
    <defs>
        <polygon id="path-1" points="13.7037037 15.1568919 13.7037037 0.284555556
            0.000111111111 0.284555556 0.000111111111 15.1568919 13.7037037 15.1568919"></polygon>
    </defs>
    <g id="Page-1" stroke="none" stroke-width="1" fill="none" fill-rule="evenodd">
        <g id="Group-12" transform="translate(0.171875, 0.914062)">
            <g id="Page-1" transform="translate(8.000000, 5.000000)">
                <g id="Group-3" transform="translate(0.000000, 0.085778)">
                    <mask id="mask-2" fill="#f1f1f1">
                        <use xlink:href="#path-1"></use>
                    </mask>
                    <g id="Clip-2"></g>
                    <path d="M10.4597407,11.8538148 C13.3152963,7.77677778 11.8786296,3.06307407 8.62233333,1.789
                        C12.6452963,2.18862963 14.179,8.62974074 10.4597407,11.8538148 M6.85159259,0.284555556 C3.06825926,
                        0.284555556 0.000111111111,3.35159259 0.000111111111,7.13640741 C0.000111111111,9.02788889 0.976777778,
                        10.866037 2.00751852,11.9804815 C2.51714815,12.5334444 2.92640741,12.9952963 3.28122222,
                        13.4852963 C3.92492593,14.1978889 4.03418519,14.3486296 4.33862963,14.9401111 C5.63159259,
                        15.2634444 8.82455556,15.1927037 9.36492593,14.9401111 C9.78418519,14.216037 10.1486296,
                        13.5804815 10.6545556,
                        13.1778889 C10.9556667,12.7952963 11.2952963,12.4156667 11.696037,11.9804815 C12.7264074,
                        10.866037 13.7038148,
                        9.02788889 13.7038148,7.13640741 C13.7038148,3.35159259 10.6352963,0.284555556 6.85159259,0.284555556"
                        id="Fill-1" fill="#f1f1f1" mask="url(#mask-2)"></path>
                </g>
                <path d="M4.63659259,18.5805185 C4.93362963,19.239037 5.81177778,19.7153333 6.84881481,
                19.7153333 C7.88437037,19.7153333 8.76140741,19.2405185 9.05955556,18.5834815 C7.98288889,
                18.9682963 5.71140741,18.9705185 4.63659259,18.5805185" id="Fill-4" fill="#f1f1f1"></path>
                <path d="M4.2492963,17.4935556 L4.2492963,18.0972593 C5.22411111,18.570963 8.4267037,
                18.5887407 9.45374074,18.0920741 L9.45374074,17.4891111 C8.20003704,17.970963 5.41040741,
                17.9517037 4.2492963,17.4935556" id="Fill-6" fill="#f1f1f1"></path>
                <path d="M4.2492963,16.3813333 L4.2492963,16.9861481 C5.25744444,17.4283704 8.46262963,
                17.4402222 9.45374074,16.980963 L9.45374074,16.378 C8.23596296,16.7842963 5.44225926,
                16.7754074 4.2492963,16.3813333" id="Fill-8" fill="#f1f1f1"></path>
                <path d="M4.2492963,15.2785185 L4.2492963,15.8751852 C5.13522222,16.3011111 8.74411111,
                16.2444444 9.45374074,15.87 L9.45374074,15.2785185 C8.7092963,15.647037 5.30744444,
                15.6844444 4.2492963,15.2785185" id="Fill-10" fill="#f1f1f1"></path>
            </g>
        </g>
    </g>
</svg>