<?xml version="1.0" encoding="UTF-8" standalone="no"?>
<svg width="75px" height="80px" viewBox="0 0 75 80" version="1.1" xmlns="http://www.w3.org/2000/svg" xmlns:xlink="http://www.w3.org/1999/xlink">
    <!-- Generator: Sketch 42 (36781) - http://www.bohemiancoding.com/sketch -->
    <title>exhaust fan</title>
    <desc>Created with Sketch.</desc>
    <defs>
        <rect id="path-1" x="0" y="0" width="75" height="80"></rect>
    </defs>
    <g id="Version-06" stroke="none" stroke-width="1" fill="none" fill-rule="evenodd">
        <g id="tips-icons_all-sizes" transform="translate(-435.000000, -627.000000)">
            <g id="exhaust-fan" transform="translate(435.000000, 627.000000)">
                <g id="griup">
                    <mask id="mask-2" fill="white">
                        <use xlink:href="#path-1"></use>
                    </mask>
                    <use id="Mask" fill="#FFFFFF" xlink:href="#path-1"></use>
                    <g id="exhaust" mask="url(#mask-2)">
                        <g transform="translate(4.000000, 11.000000)">
                            <path d="M64.5792261,0 L3.22688391,0 C1.45417515,0 0,1.46134021 0,3.24278351 L0,46.2896907 C0,48.071134 1.45417515,49.5324742 3.22688391,49.5324742 L7.36782077,49.5324742 L7.36782077,53.9164948 L14.901833,53.9164948 L14.901833,49.5324742 L53.001222,49.5324742 L53.001222,53.9164948 L60.5490835,53.9164948 L60.5490835,49.5324742 L64.6900204,49.5324742 C66.4627291,49.5324742 67.9169043,48.071134 67.9169043,46.2896907 L67.9169043,3.1871134 C67.80611,1.4056701 66.3519348,0 64.5792261,0 Z" id="Path" stroke="#50E3C2" stroke-width="4" fill="#FFFFFF" fill-rule="evenodd"></path>
                            <g id="Group-2" stroke="none" stroke-width="1" fill="none" fill-rule="evenodd" transform="translate(46.651163, 14.294118)">
                                <path d="M14.804888,16.3113402 L1.398778,16.3113402 C0.650916497,16.3113402 0,15.7128866 0,14.9056701 C0,14.0984536 0.595519348,13.5 1.398778,13.5 L14.804888,13.5 C15.5527495,13.5 16.203666,14.0984536 16.203666,14.9056701 C16.203666,15.7268041 15.5527495,16.3113402 14.804888,16.3113402 Z" id="Path" fill="#50E3C2"></path>
                                <path d="M14.804888,11.8113402 L1.398778,11.8113402 C0.650916497,11.8113402 0,11.2128866 0,10.4056701 C0,9.65412371 0.595519348,9 1.398778,9 L14.804888,9 C15.5527495,9 16.203666,9.59845361 16.203666,10.4056701 C16.1482688,11.1572165 15.5527495,11.8113402 14.804888,11.8113402 Z" id="Path" fill="#50E3C2"></path>
                                <path d="M14.804888,7.31134021 L1.398778,7.31134021 C0.650916497,7.31134021 0,6.7128866 0,5.9056701 C0,5.15412371 0.595519348,4.5 1.398778,4.5 L14.804888,4.5 C15.5527495,4.5 16.203666,5.09845361 16.203666,5.9056701 C16.1482688,6.7128866 15.5527495,7.31134021 14.804888,7.31134021 Z" id="Path" fill="#50E3C2"></path>
                                <path d="M14.804888,2.81134021 L1.398778,2.81134021 C0.650916497,2.81134021 0,2.2128866 0,1.4056701 C0,0.654123711 0.595519348,0 1.398778,0 L14.804888,0 C15.5527495,0 16.203666,0.598453608 16.203666,1.4056701 C16.1482688,2.22680412 15.5527495,2.81134021 14.804888,2.81134021 Z" id="Path" fill="#50E3C2"></path>
                            </g>
                            <path d="M22.9302326,43.1039585 C12.4778013,43.1039585 3.95348837,34.8818266 3.95348837,24.7348236 C3.95348837,14.5878205 12.4778013,6.35294118 22.9302326,6.35294118 C33.3826638,6.35294118 41.9069767,14.575073 41.9069767,24.7348236 C41.9069767,34.8945741 33.3826638,43.1039585 22.9302326,43.1039585 Z" id="Path" stroke="none" fill="#50E3C2" fill-rule="evenodd"></path>
                            <path d="M24.2893952,8.73529412 C27.8348127,8.73529412 30.743163,10.2523044 30.743163,12.1450879 C30.743163,13.550758 28.2641406,14.0378714 25.2034481,18.2548817 C24.6079288,18.0878714 22.2120021,17.1693147 19.3313504,19.2291086 C18.5280917,16.3064281 17.8771752,13.0636446 17.8771752,12.1450879 C17.8771752,10.2523044 20.7301284,8.73529412 24.2893952,8.73529412 Z M27.5162791,24.9074591 C27.5162791,27.287356 25.632776,29.1801395 23.2645479,29.1801395 C20.8963198,29.1801395 19.0128167,27.287356 19.0128167,24.9074591 C19.0128167,22.5275622 20.8963198,20.6347787 23.2645479,20.6347787 C25.632776,20.6347787 27.5162791,22.5832323 27.5162791,24.9074591 Z M7.11627907,23.8775622 C7.11627907,20.3146756 8.62585137,17.3919951 10.5093544,17.3919951 C11.9081324,17.3919951 12.3374603,19.8832323 16.5891915,22.9590055 C16.03522,25.2414797 16.7553829,27.7187993 17.5586416,28.8600364 C14.6502913,29.6672529 11.4234074,30.3770467 10.5647516,30.3770467 C8.68124852,30.3631292 7.11627907,27.4404488 7.11627907,23.8775622 Z M22.2397007,41.1213766 C18.6942831,41.1213766 15.7859328,39.6043663 15.7859328,37.7115828 C15.7859328,36.3059127 18.2649552,35.8744694 21.3256477,31.601789 C23.6661772,32.1028199 26.0621039,31.4347787 27.1977455,30.6275622 C28.0010041,33.5502426 28.6519206,36.7930261 28.6519206,37.7115828 C28.6380713,39.6182838 25.7989675,41.1213766 22.2397007,41.1213766 Z M39.4128167,25.9791086 C39.4128167,29.5419951 37.9032444,32.4646756 36.0197414,32.4646756 C34.6209634,32.4646756 34.1916355,29.9734384 29.9399043,26.8976653 C30.1060958,26.2992116 30.743163,23.529624 28.9704542,20.9966343 C31.8788045,20.1894178 35.1056884,19.5352941 36.0197414,19.5352941 C37.8478473,19.4935415 39.4128167,22.416222 39.4128167,25.9791086 Z" id="Shape" stroke="none" fill="#FFFFFF" fill-rule="nonzero"></path>
                        </g>
                    </g>
                </g>
            </g>
        </g>
    </g>
</svg>