<?xml version="1.0" encoding="UTF-8"?>
<svg width="18px" height="18px" viewBox="0 0 18 18" version="1.1" xmlns="http://www.w3.org/2000/svg" xmlns:xlink="http://www.w3.org/1999/xlink">
    <!-- Generator: Sketch 44 (41411) - http://www.bohemiancoding.com/sketch -->
    <title>question_icon</title>
    <desc>Created with Sketch.</desc>
    <defs></defs>
    <g id="Desktop" stroke="none" stroke-width="1" fill="none" fill-rule="evenodd">
        <g id="DSP-13822" transform="translate(-516.000000, -213.000000)">
            <g id="What-happens-next?" transform="translate(464.000000, 209.000000)">
                <g id="?">
                    <g id="question_icon" transform="translate(52.000000, 4.000000)">
                        <path d="M9.00701971,-5.27777792e-06 C13.9761364,-5.27777792e-06 18.0164,4.04795833 17.9999499,9.00997501 C17.9833999,13.9941918 13.9646364,18.0029552 8.98731965,18.0000552 C4.03105299,17.9971552 0.000989437469,13.9658917 -1.0565893e-05,9.01002501 C-0.00101056925,4.03080827 4.02845298,-5.27777792e-06 9.00701971,-5.27777792e-06" id="Path" fill="#FFFFFF" opacity="0.6"></path>
                        <g id="Group-3" transform="translate(5.000000, 4.000000)" fill="#001CB0">
                            <path d="M7.38990159,3.00489457 C7.40793651,3.73080013 7.09929206,4.31380745 6.62091429,4.80562437 C6.2116,5.22645997 5.78177778,5.62677462 5.349,6.02203699 C4.9731619,6.3652173 4.71795873,6.77020997 4.64569841,7.28928422 C4.63719365,7.35065997 4.6190381,7.41066351 4.60474286,7.47110366 C4.49146667,7.95032109 4.19464444,8.1804178 3.7343619,8.14604987 C3.30236825,8.11386503 3.01025079,7.81833826 2.97152698,7.35165795 C2.9031873,6.52844937 3.16852381,5.82743093 3.73876508,5.25614987 C4.12099683,4.87317513 4.52228889,4.51059659 4.91266349,4.13635417 C5.16563492,3.8937827 5.39713333,3.63031604 5.47506349,3.2701077 C5.62344444,2.58443321 5.1959746,1.91223144 4.50099683,1.72860316 C4.13191429,1.63111301 3.76313333,1.6510726 3.40068571,1.76565316 C3.16864444,1.83900467 2.98190159,1.98383649 2.83273651,2.18305821 C2.58923492,2.50827487 2.44447302,2.88276679 2.3117746,3.26499306 C2.26798413,3.39098801 2.21635238,3.51779381 2.14644444,3.6296923 C1.92833651,3.9790476 1.54694921,4.10866023 1.15681587,3.97910997 C0.789542857,3.85716932 0.514555556,3.48417437 0.533977778,3.09851755 C0.578190476,2.22254078 0.985514286,1.53986023 1.63036825,1.00063927 C2.42547302,0.335797601 3.35231111,0.119672601 4.35490794,0.183169066 C5.06104444,0.227891035 5.72115873,0.422309975 6.29706984,0.858551894 C6.99639048,1.38835442 7.37488254,2.1006625 7.38990159,3.00489457" id="Fill-4"></path>
                            <path d="M3.88656698,8.79974535 C4.46603683,8.7998701 4.90599238,9.25744384 4.9032781,9.85716732 C4.90056381,10.4608204 4.4652527,10.9157744 3.8862654,10.9200782 C3.28550349,10.9244443 2.8392146,10.4723595 2.83867175,9.85903854 C2.83824952,9.24758879 3.2814019,8.79955823 3.88656698,8.79974535" id="Fill-6"></path>
                        </g>
                    </g>
                </g>
            </g>
        </g>
    </g>
</svg>