<svg xmlns="http://www.w3.org/2000/svg" width="30" height="56" viewBox="0 0 30 56">
  <g fill="none" fill-rule="evenodd">
    <rect width="30" height="56" fill="#FFFFFF" fill-opacity=".01"/>
    <g fill="#48515F" transform="translate(0 15)">
      <path d="M28,15.07 L24.25,15.07 L24.25,11.75 L22.38,11.75 L22.38,7.32 C22.38,3.27727563 19.1027244,0 15.06,0 C11.0172756,0 7.74,3.27727563 7.74,7.32 L7.74,11.75 L5.87,11.75 L5.87,15.07 L2,15.07 C0.8954305,15.07 1.3527075e-16,15.9654305 0,17.07 L0,21.07 C1.3527075e-16,22.1745695 0.8954305,23.07 2,23.07 L5.87,23.07 L5.87,26 L24.25,26 L24.25,23.07 L28,23.07 C29.1045695,23.07 30,22.1745695 30,21.07 L30,17.07 C30,15.9654305 29.1045695,15.07 28,15.07 L28,15.07 Z M9.74,7.32 C9.74,4.38184513 12.1218451,2 15.06,2 C17.9981549,2 20.38,4.38184513 20.38,7.32 L20.38,11.75 L9.74,11.75 L9.74,7.32 Z M29,21.07 C29,21.6222847 28.5522847,22.07 28,22.07 L2,22.07 C1.44771525,22.07 1,21.6222847 1,21.07 L1,17.07 C1,16.5177153 1.44771525,16.07 2,16.07 L28,16.07 C28.5522847,16.07 29,16.5177153 29,17.07 L29,21.07 Z"/>
      <polygon points="6.17 17.54 5.21 18.16 5.26 17 4.37 17 4.41 18.16 3.44 17.54 3 18.31 4.02 18.84 3 19.37 3.44 20.14 4.41 19.52 4.37 20.68 5.26 20.68 5.21 19.52 6.17 20.14 6.62 19.37 5.6 18.84 6.62 18.31"/>
      <polygon points="11.27 17.54 10.3 18.16 10.35 17 9.46 17 9.51 18.16 8.54 17.54 8.1 18.31 9.11 18.84 8.1 19.37 8.54 20.14 9.51 19.52 9.46 20.68 10.35 20.68 10.3 19.52 11.27 20.14 11.72 19.37 10.69 18.84 11.72 18.31"/>
      <polygon points="16.36 17.54 15.39 18.16 15.45 17 14.55 17 14.6 18.16 13.63 17.54 13.19 18.31 14.2 18.84 13.19 19.37 13.63 20.14 14.6 19.52 14.55 20.68 15.45 20.68 15.39 19.52 16.36 20.14 16.81 19.37 15.79 18.84 16.81 18.31"/>
      <polygon points="21.45 17.54 20.48 18.16 20.54 17 19.65 17 19.69 18.16 18.72 17.54 18.28 18.31 19.3 18.84 18.28 19.37 18.72 20.14 19.69 19.52 19.65 20.68 20.54 20.68 20.48 19.52 21.45 20.14 21.9 19.37 20.88 18.84 21.9 18.31"/>
      <polygon points="26.54 17.54 25.58 18.16 25.63 17 24.74 17 24.78 18.16 23.82 17.54 23.38 18.31 24.39 18.84 23.38 19.37 23.82 20.14 24.78 19.52 24.74 20.68 25.63 20.68 25.58 19.52 26.54 20.14 27 19.37 25.97 18.84 27 18.31"/>
    </g>
  </g>
</svg>
