<?xml version="1.0" encoding="UTF-8" standalone="no"?>
<svg width="75px" height="80px" viewBox="0 0 75 80" version="1.1" xmlns="http://www.w3.org/2000/svg" xmlns:xlink="http://www.w3.org/1999/xlink">
    <!-- Generator: Sketch 42 (36781) - http://www.bohemiancoding.com/sketch -->
    <title>insulators</title>
    <desc>Created with Sketch.</desc>
    <defs>
        <rect id="path-1" x="0" y="0" width="75" height="80"></rect>
        <path d="M11.75,-4.75 L51.7525078,-4.75 C52.8556923,-4.75 53.75,-3.84781352 53.75,-2.75428883 L53.75,53.7542888 C53.75,54.8564897 52.8533397,55.75 51.7525078,55.75 L11.75,55.75" id="path-3"></path>
        <mask id="mask-4" maskContentUnits="userSpaceOnUse" maskUnits="objectBoundingBox" x="0" y="0" width="42" height="60.5" fill="white">
            <use xlink:href="#path-3"></use>
        </mask>
        <rect id="path-5" x="2" y="68" width="62" height="7" rx="2"></rect>
        <mask id="mask-6" maskContentUnits="userSpaceOnUse" maskUnits="objectBoundingBox" x="0" y="0" width="62" height="7" fill="white">
            <use xlink:href="#path-5"></use>
        </mask>
    </defs>
    <g id="Version-06" stroke="none" stroke-width="1" fill="none" fill-rule="evenodd">
        <g id="tips-icons_all-sizes" transform="translate(-435.000000, -1263.000000)">
            <g id="insulators" transform="translate(435.000000, 1263.000000)">
                <mask id="mask-2" fill="white">
                    <use xlink:href="#path-1"></use>
                </mask>
                <use id="Mask" fill="#FFFFFF" xlink:href="#path-1"></use>
                <g mask="url(#mask-2)">
                    <g transform="translate(5.000000, 2.000000)">
                        <g id="Household_double-window" stroke="none" stroke-width="1" fill="none" transform="translate(10.000000, 20.000000)" stroke-linejoin="round">
                            <g id="doublw-window" stroke="#50E3C2">
                                <path d="M-9.9999852e-08,10.0429974 L1.48103751e-13,44 L20,44 L20,10.0429974 C20,4.5369072 15.5489635,0.0667286 10.0429249,0.0430994 L10.0429049,0.0430992 C4.5033469,0.0193262 -9.9999852e-08,4.5033884 -9.9999852e-08,10.0429974 Z" id="Shape" stroke-width="4"></path>
                                <rect id="Rectangle-path" x="4" y="9" width="12" height="31"></rect>
                                <path d="M26,10.0429974 L26,44 L46,44 L46,10.0429974 C46,4.5369072 41.5489655,0.0667286 36.042923,0.0430994 L36.0429039,0.0430992 C30.5033474,0.0193262 26,4.5033884 26,10.0429974 Z" id="Shape" stroke-width="4"></path>
                                <rect id="Rectangle-path" x="30" y="9" width="12" height="31"></rect>
                            </g>
                        </g>
                        <g id="Group-2" stroke="none" stroke-width="1" fill="none">
                            <g id="Group">
                                <use id="Rectangle-28" stroke="#50E3C2" mask="url(#mask-4)" stroke-width="4" fill="#FFFFFF" transform="translate(32.750000, 25.500000) rotate(90.000000) translate(-32.750000, -25.500000) " xlink:href="#path-3"></use>
                                <circle id="Oval-15" fill="#50E3C2" cx="3.5" cy="3.5" r="3.5"></circle>
                                <circle id="Oval-15-Copy" fill="#50E3C2" cx="61.5" cy="3.5" r="3.5"></circle>
                            </g>
                            <path d="M4.5,31.8 L62,31.8" id="Line" stroke="#50E3C2" stroke-width="2" stroke-linecap="square"></path>
                            <path d="M4.5,25.2 L62,25.2" id="Line-Copy" stroke="#50E3C2" stroke-width="2" stroke-linecap="square"></path>
                            <path d="M4.5,18.6 L62,18.6" id="Line-Copy-2" stroke="#50E3C2" stroke-width="2" stroke-linecap="square"></path>
                            <path d="M4.5,12 L62,12" id="Line-Copy-3" stroke="#50E3C2" stroke-width="2" stroke-linecap="square"></path>
                            <path d="M4.5,38.4 L62,38.4" id="Line-Copy-4" stroke="#50E3C2" stroke-width="2" stroke-linecap="square"></path>
                        </g>
                        <use id="Rectangle-31" stroke="#50E3C2" mask="url(#mask-6)" stroke-width="4" fill="#FFFFFF" xlink:href="#path-5"></use>
                    </g>
                </g>
            </g>
        </g>
    </g>
</svg>