<?xml version="1.0" encoding="UTF-8"?>
<svg width="22px" height="20px" viewBox="0 0 22 20" version="1.1" xmlns="http://www.w3.org/2000/svg" xmlns:xlink="http://www.w3.org/1999/xlink">
    <!-- Generator: Sketch 47 (45396) - http://www.bohemiancoding.com/sketch -->
    <title>Group 6</title>
    <desc>Created with Sketch.</desc>
    <defs>
        <path d="M5.26689701,0.149774755 L5.22579533,0.210955522 C4.74450802,0.903229193 4.12599417,1.69658413 3.47101915,2.53449463 C2.79681916,3.39767544 2.09809075,4.2887866 1.52200443,5.11672197 C0.617104732,6.41348821 0.6098125,8.11989959 0.6098125,8.19039047 C0.6098125,8.20236062 0.612464221,8.21433077 0.614453011,8.22563591 C0.612464221,8.24691618 0.6098125,8.26952646 0.6098125,8.29346676 C0.6098125,10.8451037 2.63241248,12.9212597 5.11641185,12.9212597 C7.5029605,12.9212597 9.46589676,11.0186709 9.60975261,8.57809033 C9.6183707,8.55481503 9.625,8.52954472 9.625,8.50161437 L9.61969656,8.36395764 L9.41816578,8.36595267 L9.62102242,8.34733244 C9.62102242,8.34334239 9.625,8.29945184 9.625,8.29346676 C9.625,8.12455465 9.61373019,7.9616276 9.59185349,7.80535065 C9.43208732,5.98588786 8.72672961,4.45304366 8.69756068,4.38787284 C8.65778487,4.30607682 8.57226688,4.25620119 8.48078251,4.27349141 C8.39327573,4.28745658 8.32433099,4.36193752 8.31438704,4.45304366 C8.28588104,4.69444168 8.13009245,5.37075515 7.75089638,5.59552797 C7.5666018,5.70458933 7.34783484,5.70126429 7.07802225,5.58289281 C6.01998569,5.119382 5.27816682,1.57688263 5.63018274,0.415778087 C5.67393614,0.270141263 5.72431883,0.105884205 5.55726042,0.0254181976 C5.52742857,0.010123006 5.49892257,0.00413793103 5.46975364,0.00413793103 C5.39616839,0.00413793103 5.32854951,0.0533485474 5.26689701,0.149774755 Z" id="path-1"></path>
        <path d="M3.597,0.462758621 C3.5151875,0.462758621 3.4436875,0.511034483 3.4148125,0.584827586 L0.8105625,7.15034483 C0.7871875,7.20896552 0.79475,7.27655172 0.8311875,7.32827586 C0.869,7.38068966 0.9411875,7.41103448 0.9948125,7.41241379 L3.2951875,7.38689655 L0.539,13.5758621 C0.5011875,13.6606897 0.529375,13.762069 0.611875,13.8137931 C0.6428125,13.8351724 0.682,13.8468966 0.71775,13.8468966 C0.77,13.8468966 0.82225,13.8234483 0.859375,13.7841379 L9.373375,4.75241379 C9.425625,4.69793103 9.4386875,4.61517241 9.4084375,4.54482759 C9.3775,4.47586207 9.307375,4.43034483 9.229,4.43034483 L5.9118125,4.43034483 L9.373375,0.773103448 C9.425625,0.716551724 9.4386875,0.634482759 9.4084375,0.565517241 C9.3775,0.495172414 9.307375,0.449655172 9.229,0.449655172 L3.597,0.462758621 Z" id="path-3"></path>
        <path d="M1.546875,0.376551724 C1.5008125,0.382758621 1.46025,0.408275862 1.42725,0.442758621 L0.257125,1.66275862 C0.2206875,1.70068966 0.2028125,1.74827586 0.2014375,1.79724138 L0.2014375,1.80689655 C0.2028125,1.85241379 0.218625,1.89724138 0.251625,1.93586207 C2.165625,4.13448276 4.9603125,5.39655172 7.918625,5.39655172 C10.0973125,5.39655172 12.16875,4.72896552 13.91225,3.46758621 C13.963125,3.43103448 13.9926875,3.3737931 13.996125,3.31448276 L13.996125,3.29241379 C13.9954375,3.27793103 13.9926875,3.26344828 13.98925,3.24827586 C13.965875,3.16689655 13.893,3.10758621 13.805,3.09931034 C13.077625,3.02827586 12.373625,2.82413793 11.715,2.49103448 C11.6538125,2.46068966 11.5809375,2.46068966 11.51975,2.49103448 C10.3888125,3.05310345 9.1788125,3.33931034 7.918625,3.33931034 C5.5116875,3.33931034 3.2621875,2.28758621 1.7496875,0.454482759 C1.7105,0.406896552 1.65275,0.37862069 1.590875,0.376551724 L1.546875,0.376551724 Z" id="path-5"></path>
        <path d="M7.1328125,0.571034483 C4.653,0.609655172 2.2928125,1.59034483 0.4709375,3.34482759 C0.430375,3.38275862 0.4076875,3.4337931 0.4035625,3.48827586 L0.4035625,3.52 C0.4049375,3.54068966 0.40975,3.56275862 0.4186875,3.58344828 C0.4503125,3.66689655 0.5286875,3.72206897 0.6153125,3.72206897 L3.521375,3.71517241 C3.55575,3.71517241 3.5894375,3.70689655 3.620375,3.68965517 C4.763,3.06689655 5.995,2.75172414 7.28475,2.75172414 C9.0454375,2.75172414 10.71675,3.34689655 12.1165,4.47241379 C12.1543125,4.50275862 12.1996875,4.51931034 12.247125,4.51931034 C12.2560625,4.51931034 12.2643125,4.51793103 12.27325,4.51655172 C12.329625,4.50965517 12.3805,4.48 12.414875,4.43310345 L12.5998125,4.18275862 C12.6011875,4.18137931 12.6011875,4.18068966 12.601875,4.17931034 L13.424125,3.02413793 C13.45025,2.98758621 13.4633125,2.94482759 13.4646875,2.90137931 L13.4646875,2.89034483 C13.4633125,2.82689655 13.435125,2.76413793 13.382875,2.72206897 C11.6538125,1.3462069 9.5995625,0.602758621 7.431875,0.571034483 L7.1328125,0.571034483 Z" id="path-7"></path>
    </defs>
    <g id="SMS-Pay-SA-Setup-and-view" stroke="none" stroke-width="1" fill="none" fill-rule="evenodd">
        <g id="SMSPay-|-SA-|-NotSetup-" transform="translate(-482.000000, -368.000000)">
            <g id="Group-5" transform="translate(422.000000, 129.000000)">
                <g id="Group-4" transform="translate(45.000000, 222.000000)">
                    <g id="Group-2">
                        <g id="Group-3" transform="translate(15.000000, 17.000000)">
                            <g id="Group-6">
                                <g id="Group-15" transform="translate(12.375000, 4.137931)">
                                    <mask id="mask-2" fill="white">
                                        <use xlink:href="#path-1"></use>
                                    </mask>
                                    <g id="Clip-14"></g>
                                    <polygon id="Fill-13" fill="#333333" mask="url(#mask-2)" points="-0.6875 14.4299492 12.183875 14.4299492 12.183875 -2.22965517 -0.6875 -2.22965517"></polygon>
                                </g>
                                <g id="Group-18" transform="translate(0.000000, 4.137931)">
                                    <mask id="mask-4" fill="white">
                                        <use xlink:href="#path-3"></use>
                                    </mask>
                                    <g id="Clip-17"></g>
                                    <polygon id="Fill-16" fill="#333333" mask="url(#mask-4)" points="-1.703625 16.0772414 11.6496875 16.0772414 11.6496875 -1.78275862 -1.703625 -1.78275862"></polygon>
                                </g>
                                <g id="Group-21" transform="translate(3.437500, 14.482759)">
                                    <mask id="mask-6" fill="white">
                                        <use xlink:href="#path-5"></use>
                                    </mask>
                                    <g id="Clip-20"></g>
                                    <polygon id="Fill-19" fill="#333333" mask="url(#mask-6)" points="-2.0246875 7.62827586 16.22225 7.62827586 16.22225 -1.85793103 -2.0246875 -1.85793103"></polygon>
                                </g>
                                <g id="Group-24" transform="translate(4.125000, 0.000000)">
                                    <mask id="mask-8" fill="white">
                                        <use xlink:href="#path-7"></use>
                                    </mask>
                                    <g id="Clip-23"></g>
                                    <polygon id="Fill-22" fill="#333333" mask="url(#mask-8)" points="-1.821875 6.75103448 15.6908125 6.75103448 15.6908125 -1.66413793 -1.821875 -1.66413793"></polygon>
                                </g>
                            </g>
                        </g>
                    </g>
                </g>
            </g>
        </g>
    </g>
</svg>