<?xml version="1.0" encoding="UTF-8" standalone="no"?>
<svg width="75px" height="80px" viewBox="0 0 75 80" version="1.1" xmlns="http://www.w3.org/2000/svg" xmlns:xlink="http://www.w3.org/1999/xlink">
    <!-- Generator: Sketch 42 (36781) - http://www.bohemiancoding.com/sketch -->
    <title>air conditioner</title>
    <desc>Created with Sketch.</desc>
    <defs>
        <rect id="path-1" x="0" y="0" width="75" height="80"></rect>
    </defs>
    <g id="Version-06" stroke="none" stroke-width="1" fill="none" fill-rule="evenodd">
        <g id="tips-icons_all-sizes" transform="translate(-439.000000, -433.000000)">
            <g id="air-conditioner" transform="translate(439.000000, 433.000000)">
                <mask id="mask-2" fill="white">
                    <use xlink:href="#path-1"></use>
                </mask>
                <use id="Mask" fill="#FFFFFF" xlink:href="#path-1"></use>
                <g mask="url(#mask-2)" stroke-linecap="round" id="air-conditioners">
                    <g transform="translate(4.000000, 8.000000)">
                        <g>
                            <path d="M61.5,28.5 L4.5,28.5 C2.0147187,28.5 0,26.4852819 0,24 L0,4.5 C0,2.0147181 2.0147187,0 4.5,0 L61.5,0 C63.9852791,0 66,2.0147181 66,4.5 L66,24 C66,26.4852819 63.9852791,28.5 61.5,28.5 Z" id="Shape" stroke="#50E3C2" stroke-width="4"></path>
                            <path d="M1.5,22.1454545 L66,22.1454545" id="Shape" stroke="#50E3C2" stroke-width="4"></path>
                            <path d="M16.1162791,22.5 L16.1162791,28.5" id="Shape" stroke="#50E3C2" stroke-width="2"></path>
                            <path d="M28.3953488,22.5 L28.3953488,28.5" id="Shape" stroke="#50E3C2" stroke-width="2"></path>
                            <path d="M38.372093,22.5 L38.372093,28.5" id="Shape" stroke="#50E3C2" stroke-width="2"></path>
                            <path d="M50.6511628,22.5 L50.6511628,28.5" id="Shape" stroke="#50E3C2" stroke-width="2"></path>
                            <path d="M52.5,16 L60,16" id="Shape" stroke="#50E3C2" stroke-width="2"></path>
                            <path d="M6,37.5 L1.5,42" id="Shape" stroke="#50E3C2" stroke-width="4"></path>
                            <path d="M24,37.5 L22.5,42" id="Shape" stroke="#50E3C2" stroke-width="4"></path>
                            <path d="M42,37.5 L43.5,42" id="Shape" stroke="#50E3C2" stroke-width="4"></path>
                            <path d="M60,37.5 L64.5,42" id="Shape" stroke="#50E3C2" stroke-width="4"></path>
                        </g>
                    </g>
                </g>
            </g>
        </g>
    </g>
</svg>