<?xml version="1.0" encoding="UTF-8" standalone="no"?>
<svg width="26px" height="26px" viewBox="0 0 26 26" version="1.1" xmlns="http://www.w3.org/2000/svg" xmlns:xlink="http://www.w3.org/1999/xlink">
    <!-- Generator: Sketch 41.2 (35397) - http://www.bohemiancoding.com/sketch -->
    <title>Solar icon Copy 2</title>
    <desc>Created with Sketch.</desc>
    <defs></defs>
    <g id="Version-02" stroke="none" stroke-width="1" fill="none" fill-rule="evenodd">
        <g id="Components" transform="translate(-665.000000, -224.000000)">
            <g id="Group-19-Copy-2" transform="translate(0.000000, 218.000000)">
                <g id="Group-10" transform="translate(448.000000, 6.000000)">
                    <g id="Group-18" transform="translate(217.000000, 0.000000)">
                        <g id="Solar-icon-Copy-2">
                            <g id="sun">
                                <g id="Group" transform="translate(6.000000, 6.000000)"></g>
                                <ellipse id="Oval" fill="#50E3AA" cx="13" cy="13" rx="6.02380952" ry="6.02380952"></ellipse>
                                <path d="M12.6936748,0.407868743 C12.8145351,-0.136677661 13.0108087,-0.135234356 13.1313487,0.407868743 L13.8013295,3.42652478 C13.9221898,3.97107118 13.5718655,4.41251326 13.0162192,4.41251326 L12.8088043,4.41251326 C12.2543396,4.41251326 11.9031541,3.96962787 12.023694,3.42652478 L12.6936748,0.407868743 Z" id="Triangle-2" fill="#50E3AA"></path>
                                <path d="M5.98644331,3.40696758 C6.1073036,2.86242117 6.30357719,2.86386448 6.42411714,3.40696758 L7.09409796,6.42562361 C7.21495826,6.97017001 6.86463399,7.41161209 6.30898764,7.41161209 L6.10157282,7.41161209 C5.54710807,7.41161209 5.19592254,6.96872671 5.31646249,6.42562361 L5.98644331,3.40696758 Z" id="Triangle-2-Copy-4" fill="#50E3AA" transform="translate(6.205355, 5.205355) rotate(-45.000000) translate(-6.205355, -5.205355) "></path>
                                <path d="M19.4009063,3.40696758 C19.5217666,2.86242117 19.7180402,2.86386448 19.8385802,3.40696758 L20.508561,6.42562361 C20.6294213,6.97017001 20.279097,7.41161209 19.7234507,7.41161209 L19.5160358,7.41161209 C18.9615711,7.41161209 18.6103856,6.96872671 18.7309255,6.42562361 L19.4009063,3.40696758 Z" id="Triangle-2-Copy-5" fill="#50E3AA" transform="translate(19.619818, 5.205355) scale(-1, 1) rotate(-45.000000) translate(-19.619818, -5.205355) "></path>
                                <path d="M5.98644331,18.4069676 C6.1073036,17.8624212 6.30357719,17.8638645 6.42411714,18.4069676 L7.09409796,21.4256236 C7.21495826,21.97017 6.86463399,22.4116121 6.30898764,22.4116121 L6.10157282,22.4116121 C5.54710807,22.4116121 5.19592254,21.9687267 5.31646249,21.4256236 L5.98644331,18.4069676 Z" id="Triangle-2-Copy-7" fill="#50E3AA" transform="translate(6.205355, 20.205355) scale(1, -1) rotate(-45.000000) translate(-6.205355, -20.205355) "></path>
                                <path d="M18.9864433,18.4069676 C19.1073036,17.8624212 19.3035772,17.8638645 19.4241171,18.4069676 L20.094098,21.4256236 C20.2149583,21.97017 19.864634,22.4116121 19.3089876,22.4116121 L19.1015728,22.4116121 C18.5471081,22.4116121 18.1959225,21.9687267 18.3164625,21.4256236 L18.9864433,18.4069676 Z" id="Triangle-2-Copy-6" fill="#50E3AA" transform="translate(19.205355, 20.205355) scale(-1, -1) rotate(-45.000000) translate(-19.205355, -20.205355) "></path>
                                <path d="M12.6936748,21.4078687 C12.8145351,20.8633223 13.0108087,20.8647656 13.1313487,21.4078687 L13.8013295,24.4265248 C13.9221898,24.9710712 13.5718655,25.4125133 13.0162192,25.4125133 L12.8088043,25.4125133 C12.2543396,25.4125133 11.9031541,24.9696279 12.023694,24.4265248 L12.6936748,21.4078687 Z" id="Triangle-2-Copy" fill="#50E3AA" transform="translate(12.912587, 23.206257) scale(1, -1) translate(-12.912587, -23.206257) "></path>
                                <path d="M22.9873445,10.1141991 C23.1082048,9.56965268 23.3044784,9.57109599 23.4250183,10.1141991 L24.0949991,13.1328551 C24.2158594,13.6774015 23.8655352,14.1188436 23.3098888,14.1188436 L23.102474,14.1188436 C22.5480092,14.1188436 22.1968237,13.6759582 22.3173637,13.1328551 L22.9873445,10.1141991 Z" id="Triangle-2-Copy-2" fill="#50E3AA" transform="translate(23.206257, 11.912587) scale(1, -1) rotate(90.000000) translate(-23.206257, -11.912587) "></path>
                                <path d="M1.98734448,10.1141991 C2.10820477,9.56965268 2.30447836,9.57109599 2.42501831,10.1141991 L3.09499913,13.1328551 C3.21585942,13.6774015 2.86553515,14.1188436 2.30988881,14.1188436 L2.10247398,14.1188436 C1.54800923,14.1188436 1.19682371,13.6759582 1.31736366,13.1328551 L1.98734448,10.1141991 Z" id="Triangle-2-Copy-3" fill="#50E3AA" transform="translate(2.206257, 11.912587) scale(-1, -1) rotate(90.000000) translate(-2.206257, -11.912587) "></path>
                            </g>
                        </g>
                    </g>
                </g>
            </g>
        </g>
    </g>
</svg>