<?xml version="1.0" encoding="UTF-8"?>
<svg width="50px" height="30px" viewBox="0 0 50 30" version="1.1" xmlns="http://www.w3.org/2000/svg" xmlns:xlink="http://www.w3.org/1999/xlink">
    <!-- Generator: Sketch 42 (36781) - http://www.bohemiancoding.com/sketch -->
    <title>ico--visa</title>
    <desc>Created with Sketch.</desc>
    <defs></defs>
    <g id="Page-1" stroke="none" stroke-width="1" fill="none" fill-rule="evenodd">
        <g id="4.1---(wd)-Add-Credit-Card-Success" transform="translate(-947.000000, -361.000000)">
            <g id="ico--visa" transform="translate(947.000000, 361.000000)">
                <g id="Slice-1">
                    <g id="Group">
                        <rect id="Rectangle-path" fill="#000000" x="0" y="0" width="49.6551724" height="30" rx="3"></rect>
                        <g id="Group-22" transform="translate(7.448276, 3.750000)">
                            <rect id="Rectangle-path" fill="#FF5F00" x="11.5034483" y="2.19444444" width="9.57241379" height="15.7222222"></rect>
                            <path d="M12.4689655,10.0555556 C12.4689655,6.86111111 13.9586207,4.02777778 16.2482759,2.19444444 C14.5655172,0.861111111 12.4413793,0.0555555556 10.1241379,0.0555555556 C4.63448276,0.0555555556 0.193103448,4.52777778 0.193103448,10.0555556 C0.193103448,15.5833333 4.63448276,20.0555556 10.1241379,20.0555556 C12.4413793,20.0555556 14.5655172,19.25 16.2482759,17.9166667 C13.9586207,16.0833333 12.4689655,13.25 12.4689655,10.0555556 Z" id="XMLID_330_" fill="#EB001B"></path>
                            <path d="M32.3310345,10.0555556 C32.3310345,15.5833333 27.8896552,20.0555556 22.4,20.0555556 C20.0827586,20.0555556 17.9586207,19.25 16.2758621,17.9166667 C18.5931034,16.0833333 20.0551724,13.25 20.0551724,10.0555556 C20.0551724,6.86111111 18.5655172,4.02777778 16.2758621,2.19444444 C17.9586207,0.861111111 20.0827586,0.0555555556 22.4,0.0555555556 C27.8896552,0.0555555556 32.3310345,4.52777778 32.3310345,10.0555556 Z" id="Shape" fill="#F79E1B"></path>
                        </g>
                    </g>
                </g>
            </g>
        </g>
    </g>
</svg>