<svg xmlns="http://www.w3.org/2000/svg" width="30" height="56" viewBox="0 0 30 56">
  <g fill="none" fill-rule="evenodd">
    <rect width="30" height="56" fill="#FFFFFF" fill-opacity=".01"/>
    <g fill="#48515F" transform="translate(0 15)">
      <path d="M13 14.3L13 15.71 25 15.71 25 14.3C25 13.3933333 24.3133333 12.65 22.94 12.07 21.6972401 11.5232051 20.357573 11.2307905 19 11.21 17.6417104 11.2336744 16.3019617 11.5295073 15.06 12.08 13.6866667 12.6533333 13 13.3933333 13 14.3L13 14.3zM21.08 8.82C21.9696229 8.09758632 22.3699648 6.93146566 22.1116638 5.81495726 21.8533628 4.69844886 20.9815511 3.82663723 19.8650427 3.56833624 18.7485343 3.31003524 17.5824137 3.71037711 16.86 4.6 15.9703771 5.32241368 15.5700352 6.48853434 15.8283362 7.60504274 16.0866372 8.72155114 16.9584489 9.59336277 18.0749573 9.85166376 19.1914657 10.1099648 20.3575863 9.70962289 21.08 8.82L21.08 8.82z"/>
      <path d="M28,0 L10,0 C8.8954305,0 8,0.8954305 8,2 L8,3 C8.34262661,3.10071112 8.6769558,3.22775621 9,3.38 L9,2 C9,1.44771525 9.44771525,1 10,1 L28,1 C28.5522847,1 29,1.44771525 29,2 L29,17.94 L9,17.94 L9,16.08 C8.6769558,16.2322438 8.34262661,16.3592889 8,16.46 L8,24 C8,25.1045695 8.8954305,26 10,26 L28,26 C29.1045695,26 30,25.1045695 30,24 L30,2 C30,0.8954305 29.1045695,0 28,0 L28,0 Z M26.5,23 L11.5,23 C10.9477153,23 10.5,22.5522847 10.5,22 C10.5,21.4477153 10.9477153,21 11.5,21 L26.5,21 C27.0522847,21 27.5,21.4477153 27.5,22 C27.5,22.5522847 27.0522847,23 26.5,23 L26.5,23 Z"/>
      <path d="M12,9.74 C12,6.4262915 9.3137085,3.74 6,3.74 C2.6862915,3.74 4.05812251e-16,6.4262915 0,9.74 C-4.05812251e-16,13.0537085 2.6862915,15.74 6,15.74 C7.59129894,15.74 9.11742242,15.107859 10.2426407,13.9826407 C11.367859,12.8574224 12,11.3312989 12,9.74 L12,9.74 Z M8.78,13.27 L3.28,13.27 L3.28,8.78 L4,8.78 L4,7.67 C4,6.53781626 4.91781626,5.62 6.05,5.62 C7.18218374,5.62 8.1,6.53781626 8.1,7.67 L8.1,8.78 L8.8,8.78 L8.78,13.27 Z"/>
      <path d="M6,6.62 C5.44771525,6.62 5,7.06771525 5,7.62 L5,8.73 L7.1,8.73 L7.1,7.67 C7.11613683,7.37793557 7.00358724,7.09344864 6.79199859,6.89147766 C6.58040995,6.68950669 6.29099854,6.59030356 6,6.62 L6,6.62 Z"/>
    </g>
  </g>
</svg>
