<svg xmlns="http://www.w3.org/2000/svg" width="30" height="56" viewBox="0 0 30 56">
  <g fill="none" fill-rule="evenodd">
    <rect width="30" height="56" fill="#FFFFFF" fill-opacity=".01"/>
    <g fill="#48515F" transform="translate(0 15)">
      <path d="M3.5,18.75 C3.22385763,18.75 3,18.9738576 3,19.25 C3,19.5261424 3.22385763,19.75 3.5,19.75 L7,19.75 L7,22.75 C7,23.0261424 7.22385763,23.25 7.5,23.25 C7.77614237,23.25 8,23.0261424 8,22.75 L8,19.75 L14.5,19.75 L14.5,22.75 C14.5,23.0261424 14.7238576,23.25 15,23.25 C15.2761424,23.25 15.5,23.0261424 15.5,22.75 L15.5,19.75 L22,19.75 L22,22.75 C22,23.0261424 22.2238576,23.25 22.5,23.25 C22.7761424,23.25 23,23.0261424 23,22.75 L23,19.75 L26.5,19.75 C26.7761424,19.75 27,19.5261424 27,19.25 C27,18.9738576 26.7761424,18.75 26.5,18.75 L23,18.75 L23,14.75 L26.5,14.75 C26.7761424,14.75 27,14.5261424 27,14.25 C27,13.9738576 26.7761424,13.75 26.5,13.75 L23,13.75 L23,10.75 C23,10.4738576 22.7761424,10.25 22.5,10.25 C22.2238576,10.25 22,10.4738576 22,10.75 L22,13.75 L15.5,13.75 L15.5,10.75 C15.5,10.4738576 15.2761424,10.25 15,10.25 C14.7238576,10.25 14.5,10.4738576 14.5,10.75 L14.5,13.75 L8,13.75 L8,10.75 C8,10.4738576 7.77614237,10.25 7.5,10.25 C7.22385763,10.25 7,10.4738576 7,10.75 L7,13.75 L3.5,13.75 C3.22385763,13.75 3,13.9738576 3,14.25 C3,14.5261424 3.22385763,14.75 3.5,14.75 L7,14.75 L7,18.75 L3.5,18.75 Z M15.5,14.75 L22,14.75 L22,18.75 L15.5,18.75 L15.5,14.75 Z M8,14.75 L14.5,14.75 L14.5,18.75 L8,18.75 L8,14.75 Z"/>
      <path d="M29.6599901,3.09146341 C29.5163454,2.88039817 29.3330038,2.69873339 29.1199903,2.55640244 C28.7889157,2.33595167 28.3988759,2.21862967 27.9999907,2.2195122 L24.4999919,2.2195122 L24.4999919,1.98170732 C24.4999919,0.887240587 23.6045617,0 22.4999925,0 C21.3954234,0 20.4999932,0.887240587 20.4999932,1.98170732 L20.4999932,2.2195122 L9.49999684,2.2195122 L9.49999684,1.98170732 C9.43043057,0.954513624 8.53710435,0.17557648 7.49999751,0.237804878 C6.46289066,0.17557648 5.56956444,0.954513624 5.49999817,1.98170732 L5.49999817,2.2195122 L1.99999933,2.2195122 C1.60111409,2.21862967 1.2110743,2.33595167 0.879999707,2.55640244 C0.666986236,2.69873339 0.483644612,2.88039817 0.339999887,3.09146341 C0.117514263,3.41950999 -0.000890672952,3.80598247 -1.68716393e-12,4.20121951 L-1.68716393e-12,24.0182927 C-1.68702866e-12,25.1127594 0.895430203,26 1.99999933,26 L27.9999907,26 C29.1045598,26 29.99999,25.1127594 29.99999,24.0182927 L29.99999,4.20121951 C30.0008807,3.80598247 29.8824758,3.41950999 29.6599901,3.09146341 L29.6599901,3.09146341 Z M21.4999929,1.98170732 C21.4999929,1.57545732 21.9599927,1.22865854 22.4999925,1.22865854 C23.0399923,1.22865854 23.4999922,1.57545732 23.4999922,1.98170732 L23.4999922,5.43978659 C23.4999922,5.84603659 23.0399923,6.19283537 22.4999925,6.19283537 C21.9599927,6.19283537 21.4999929,5.84603659 21.4999929,5.43978659 L21.4999929,1.98170732 L21.4999929,1.98170732 Z M6.49999784,1.98170732 C6.49999784,1.57545732 6.95999769,1.22865854 7.49999751,1.22865854 C8.03999733,1.22865854 8.49999717,1.57545732 8.49999717,1.98170732 L8.49999717,5.43978659 C8.49999717,5.84603659 8.03999733,6.19283537 7.49999751,6.19283537 C6.95999769,6.19283537 6.49999784,5.84603659 6.49999784,5.43978659 L6.49999784,1.98170732 L6.49999784,1.98170732 Z M28.9999904,24.0182927 C28.9999904,24.565526 28.5522753,25.0091463 27.9999907,25.0091463 L1.99999933,25.0091463 C1.44771477,25.0091463 0.999999667,24.565526 0.999999667,24.0182927 L0.999999667,8.6402439 L28.9999904,8.6402439 L28.9999904,24.0182927 Z"/>
    </g>
  </g>
</svg>
