<?xml version="1.0" encoding="UTF-8" standalone="no"?>
<svg width="35px" height="46px" viewBox="0 0 35 46" version="1.1" xmlns="http://www.w3.org/2000/svg" xmlns:xlink="http://www.w3.org/1999/xlink">
    <!-- Generator: Sketch 42 (36781) - http://www.bohemiancoding.com/sketch -->
    <title>tick_in_box</title>
    <desc>Created with Sketch.</desc>
    <defs></defs>
    <g id="Billing-States-Working" stroke="none" stroke-width="1" fill="none" fill-rule="evenodd">
        <g id="wd/billing/PAYG-lowBalance" transform="translate(-392.000000, -92.000000)">
            <g id="icon/exp/thermometer" transform="translate(392.000000, 92.000000)">
                <g id="iconExp_thermometer">
                    <g id="Group-4" transform="translate(10.444477, 10.218934)">
                        <g id="Group-2">
                            <path d="M7.15626046,20.3427498 C11.0659151,20.3427498 14.2472414,23.6252716 14.2472414,27.6592892 C14.2472414,31.6933069 11.0659151,34.9742663 7.15626046,34.9742663 C3.2450916,34.9742663 0.0637653187,31.6933069 0.0637653187,27.6592892 C0.0637653187,23.6252716 3.2450916,20.3427498 7.15626046,20.3427498 L7.15626046,20.3427498 Z" id="Combined-Shape-Copy" fill="#001CB0"></path>
                            <rect id="Rectangle" fill="#001CB0" x="4.79159068" y="16.8096755" width="4.54230138" height="14.6315165" rx="1"></rect>
                            <rect id="Rectangle-Copy" stroke="#001CB0" stroke-width="2" x="4.79159068" y="0.645198923" width="4.54230138" height="30.6769624" rx="1"></rect>
                        </g>
                    </g>
                    <g id="Group" transform="translate(0.396548, 0.573781)" stroke="#50E3C2" fill="#50E3C2">
                        <path d="M17.92319,3.65549064 C17.92319,4.06691333 17.5840071,4.40290853 17.1698637,4.40290853 L16.5499776,4.40290853 C16.1358342,4.40290853 15.7966513,4.06691333 15.7966513,3.65549064 L15.7966513,0.747576134 C15.7966513,0.33615344 16.1358342,0.000158239498 16.5499776,0.000158239498 L17.1698637,0.000158239498 C17.5840071,0.000158239498 17.92319,0.33615344 17.92319,0.747576134 L17.92319,3.65549064 Z" id="Fill-9"></path>
                        <path d="M4.90127707,15.9764926 C4.90127707,16.3879153 4.56209415,16.7239105 4.14795073,16.7239105 L1.28881945,16.7239105 C0.874144398,16.7239105 0.535493109,16.3879153 0.535493109,15.9764926 L0.535493109,15.3619959 C0.535493109,14.9505732 0.874144398,14.6140506 1.28881945,14.6140506 L4.14795073,14.6140506 C4.56209415,14.6140506 4.90127707,14.9505732 4.90127707,15.3619959 L4.90127707,15.9764926 Z" id="Fill-11"></path>
                        <path d="M33.2077135,15.9764926 C33.2077135,16.3879153 32.8685306,16.7239105 32.4543872,16.7239105 L29.5952559,16.7239105 C29.1805808,16.7239105 28.8419296,16.3879153 28.8419296,15.9764926 L28.8419296,15.3619959 C28.8419296,14.9505732 29.1805808,14.6140506 29.5952559,14.6140506 L32.4543872,14.6140506 C32.8685306,14.6140506 33.2077135,14.9505732 33.2077135,15.3619959 L33.2077135,15.9764926 Z" id="Fill-11-Copy"></path>
                        <path d="M8.23526445,8.07438136 C7.94233374,8.36501457 7.46279927,8.36501457 7.16986856,8.07438136 L5.09755659,6.01832282 C4.80409425,5.72768961 4.80409425,5.25191618 5.09755659,4.96128297 L5.53562357,4.52612435 C5.82855427,4.23549114 6.30808875,4.23549114 6.60101946,4.52612435 L8.67333142,6.58218289 C8.96626213,6.87334357 8.96626213,7.34911699 8.67333142,7.6397502 L8.23526445,8.07438136 Z" id="Fill-16"></path>
                        <path d="M26.5499196,8.07459234 C26.2569888,8.36522555 25.7774544,8.36522555 25.4845237,8.07459234 L25.0459251,7.63996119 C24.7529943,7.34932798 24.7529943,6.87355456 25.0459251,6.58239388 L27.118237,4.52633534 C27.4116994,4.23570213 27.8912338,4.23570213 28.1841645,4.52633534 L28.6222315,4.96096649 C28.9151622,5.2515997 28.9151622,5.72737313 28.6222315,6.0185338 L26.5499196,8.07459234 Z" id="Fill-18"></path>
                    </g>
                </g>
            </g>
        </g>
    </g>
</svg>