<?xml version="1.0" encoding="UTF-8" standalone="no"?>
<svg width="75px" height="80px" viewBox="0 0 75 80" version="1.1" xmlns="http://www.w3.org/2000/svg" xmlns:xlink="http://www.w3.org/1999/xlink">
    <!-- Generator: Sketch 42 (36781) - http://www.bohemiancoding.com/sketch -->
    <title>fridge</title>
    <desc>Created with Sketch.</desc>
    <defs>
        <rect id="path-1" x="0" y="0" width="75" height="80"></rect>
    </defs>
    <g id="Version-06" stroke="none" stroke-width="1" fill="none" fill-rule="evenodd">
        <g id="tips-icons_all-sizes" transform="translate(-439.000000, -3049.000000)">
            <g id="fridge" transform="translate(439.000000, 3049.000000)">
                <mask id="mask-2" fill="white">
                    <use xlink:href="#path-1"></use>
                </mask>
                <use id="Mask" fill="#FFFFFF" xlink:href="#path-1"></use>
                <g mask="url(#mask-2)" id="refrigerator">
                    <g transform="translate(20.000000, 5.000000)">
                        <g>
                            <path d="M32.0833333,61.25 L2.91666667,61.25 C1.30583629,61.25 0,59.9441624 0,58.3333333 L0,2.91666667 C0,1.30583629 1.30583629,0 2.91666667,0 L32.0833333,0 C33.6941624,0 35,1.30583629 35,2.91666667 L35,58.3333333 C35,59.9441624 33.6941624,61.25 32.0833333,61.25 Z" id="Shape" stroke="#50E3C2" stroke-width="4"></path>
                            <path d="M0,23.3333333 L35,23.3333333" id="Shape" stroke="#50E3C2" stroke-width="4"></path>
                            <path d="M29.1666667,13.125 L29.1666667,17.5" id="Shape" stroke="#50E3C2" stroke-width="2" stroke-linecap="round"></path>
                            <path d="M29.1666667,29.1666667 L29.1666667,36.4583333" id="Shape" stroke="#50E3C2" stroke-width="2" stroke-linecap="round"></path>
                            <path d="M4.375,62.25 L4.375,65.1666667" id="Shape" stroke="#50E3C2" stroke-width="2" stroke-linecap="round"></path>
                            <path d="M30.625,62.25 L30.625,65.1666667" id="Shape" stroke="#50E3C2" stroke-width="2" stroke-linecap="round"></path>
                        </g>
                    </g>
                </g>
            </g>
        </g>
    </g>
</svg>