<svg id="Layer_1" data-name="Layer 1" xmlns="http://www.w3.org/2000/svg" width="20" height="20" viewBox="0 0 20 20"><title>icon_</title><circle cx="10" cy="10" r="10" style="fill:#001cb0"/><path d="M12.71,7.64A2,2,0,0,1,12.23,9a2.52,2.52,0,0,1-1.37.77v0a2.73,2.73,0,0,1,1.57.63A1.76,1.76,0,0,1,13,11.79a2.29,2.29,0,0,1-.9,1.92,4.13,4.13,0,0,1-2.56.69A6.22,6.22,0,0,1,7,13.94V12.4a5.59,5.59,0,0,0,1.1.41A4.61,4.61,0,0,0,9.31,13a2.3,2.3,0,0,0,1.32-.3,1.12,1.12,0,0,0,.43-1,.88.88,0,0,0-.49-.86A3.64,3.64,0,0,0,9,10.58H8.35V9.19H9a3.08,3.08,0,0,0,1.46-.26A.94.94,0,0,0,10.93,8q0-1-1.22-1a2.79,2.79,0,0,0-.86.14,4.19,4.19,0,0,0-1,.49L7,6.44A4.66,4.66,0,0,1,9.84,5.6a3.61,3.61,0,0,1,2.1.54A1.73,1.73,0,0,1,12.71,7.64Z" style="fill:#fff"/></svg>