<?xml version="1.0" encoding="UTF-8"?>
<svg width="36px" height="34px" viewBox="0 0 36 34" version="1.1" xmlns="http://www.w3.org/2000/svg" xmlns:xlink="http://www.w3.org/1999/xlink">
    <!-- Generator: Sketch 42 (36781) - http://www.bohemiancoding.com/sketch -->
    <title>tick_in_box</title>
    <desc>Created with Sketch.</desc>
    <defs></defs>
    <g id="Page-2" stroke="none" stroke-width="1" fill="none" fill-rule="evenodd">
        <g id="wd/bill---payg" transform="translate(-424.000000, -247.000000)">
            <g id="Group-6" transform="translate(30.000000, 145.000000)">
                <g id="Page-1-Copy-3" transform="translate(394.000000, 102.000000)">
                    <g id="tick_in_box">
                        <path d="M28.7914875,31.155539 L2.70851247,31.155539 L2.70851247,3.76337989 L24.2418637,3.76337989 L26.859641,0.918918919 L1.35425623,0.918918919 C0.606706793,0.918918919 0,1.55607818 0,2.3411494 L0,32.5777695 C0,33.3628407 0.606706793,34 1.35425623,34 L30.1457438,34 C30.8932932,34 31.5,33.3628407 31.5,32.5777695 L31.5,12.8414771 L28.7914875,15.7705608 L28.7914875,31.155539 Z" id="Fill-1" fill="#50E3C2"></path>
                        <path d="M32.4891409,0.179956959 C32.380227,0.0694814514 32.2244387,0.00416888709 32.0514171,0 C31.8880462,0.00138962903 31.7288113,0.070176266 31.6178294,0.188294733 L16.751076,15.6937754 L12.475859,11.3845358 C12.3566051,11.2650277 12.2001275,11.2052737 12.0443392,11.2052737 C11.8878615,11.2052737 11.7313839,11.2650277 11.6128194,11.3852306 L8.27922548,14.7446588 C8.16341825,14.8606928 8.1,15.0156365 8.1,15.1796127 C8.1,15.3435889 8.16341825,15.4978377 8.27922548,15.6152614 L16.2044382,23.6007646 L16.3726345,23.745286 C16.4836164,23.8397808 16.6242395,23.8918919 16.7683092,23.8918919 C16.9316801,23.8918919 17.0840217,23.827969 17.197761,23.7133246 L17.8829538,23.0303219 L35.8289388,4.40303958 C36.0598639,4.16263376 36.0564173,3.77562207 35.8220455,3.53938514 L32.4891409,0.179956959 Z" id="Fill-4" fill="#001CB0"></path>
                    </g>
                </g>
            </g>
        </g>
    </g>
</svg>
