<svg xmlns="http://www.w3.org/2000/svg" width="18" height="18" viewBox="0 0 18 18" xmlns:xlink="http://www.w3.org/1999/xlink">
  <defs>
    <rect id="a" width="18" height="18"/>
    <mask id="b" width="18" height="18" x="0" y="0" fill="white">
      <use xlink:href="#a"/>
    </mask>
  </defs>
  <g fill="none" fill-rule="evenodd">
    <use stroke="#FFFFFF" stroke-width="2" mask="url(#b)" opacity=".01" xlink:href="#a"/>
    <path fill="#2CB3EE" d="M14.7586396,6.05140038 L10.6584987,6.05140038 L14.9353571,1.41001306 C15.0007719,1.33896387 15.0183461,1.23535046 14.9797806,1.14604557 C14.9417034,1.05723407 14.8548091,1 14.7586396,1 L14.7581514,1 L7.7978218,1.01578871 C7.69823509,1.01628211 7.60938813,1.07746336 7.57326354,1.17120882 L4.3552461,9.50222029 C4.32595589,9.57771006 4.33620746,9.66257437 4.38160729,9.72967639 C4.42749528,9.79628501 4.51927126,9.832303 4.58322155,9.83476999 L7.42730067,9.80269917 L4.0203614,17.6575824 C3.97300889,17.7666231 4.01059799,17.894413 4.10872019,17.9595414 C4.14923831,17.9866783 4.19561447,18 4.24150246,18 C4.30642909,18 4.37086754,17.9728632 4.41822005,17.9215498 L14.9353571,6.46092004 C15.0007719,6.39036424 15.0183461,6.28675083 14.9797806,6.19744594 C14.9417034,6.10863445 14.8548091,6.05140038 14.7586396,6.05140038"/>
  </g>
</svg>
