<?xml version="1.0" encoding="UTF-8" standalone="no"?>
<svg width="22px" height="13px" viewBox="0 0 22 13" version="1.1" xmlns="http://www.w3.org/2000/svg" xmlns:xlink="http://www.w3.org/1999/xlink">
    <!-- Generator: Sketch 41.2 (35397) - http://www.bohemiancoding.com/sketch -->
    <title>icon-bill-smoothing</title>
    <desc>Created with Sketch.</desc>
    <defs></defs>
    <g id="Page-1" stroke="none" stroke-width="1" fill="none" fill-rule="evenodd">
        <g id="Dashboard_Usage_1200" transform="translate(-752.000000, -1078.000000)">
            <g id="icon-bill-smoothing" transform="translate(752.000000, 1074.000000)">
                <rect id="Rectangle-4" fill-opacity="0" fill="#D8D8D8" x="0" y="0" width="21" height="21"></rect>
                <path d="M20.5001905,14.4182381 C20.0601905,12.7644286 19.6801905,11.8287143 19.1778095,11.870619 C18.6430476,11.915381 18.3449524,13.3615714 18.076381,14.6415714 C17.5411429,17.1891905 16.376381,17.055381 15.8411429,14.5525238 L0.500190476,14.5525238" id="Stroke-1" stroke="#000000" stroke-linecap="round" stroke-linejoin="round"></path>
                <path d="M12.6901429,8.43804762 C12.6272857,8.33090476 12.5915714,8.26995238 12.5915714,8.26995238 C12.5915714,8.26995238 11.573,5.95519048 9.99919048,5.39995238 C8.42538095,4.8442381 1.85252381,5.02947619 1.85252381,5.02947619 L0.686333333,12.2504286 C0.686333333,12.2504286 0.659190476,12.3680476 0.62252381,12.5275714 C1.34442857,12.5280476 15.0910952,12.5280476 15.0910952,12.5280476 C15.0910952,12.5280476 13.1539524,9.22804762 12.6901429,8.43804762 Z" id="Stroke-5" stroke="#000000"></path>
                <path d="M9.01319048,8.17714286 L3.85747619,8.17714286 C3.41652381,8.17714286 3.05652381,7.81666667 3.05652381,7.37619048 L3.05652381,7.31190476 C3.05652381,6.87142857 3.41652381,6.51095238 3.85747619,6.51095238 L9.01319048,6.51095238 C9.45366667,6.51095238 9.81414286,6.87142857 9.81414286,7.31190476 L9.81414286,7.37619048 C9.81414286,7.81666667 9.45366667,8.17714286 9.01319048,8.17714286 Z" id="Stroke-9" stroke="#000000"></path>
                <g id="Group-14" transform="translate(0.500000, 9.349048)" stroke="#000000">
                    <path d="M0.149142857,0 L13.0172381,0" id="Stroke-13"></path>
                </g>
            </g>
        </g>
    </g>
</svg>