<svg xmlns="http://www.w3.org/2000/svg" width="30" height="56" viewBox="0 0 30 56">
  <g fill="none" fill-rule="evenodd">
    <rect width="30" height="56" fill="#FFFFFF" fill-opacity=".01"/>
    <g fill="#48515F" transform="translate(0 15)">
      <path d="M17.5 12.69L3.5 12.69C3.22385763 12.69 3 12.9138576 3 13.19 3 13.4661424 3.22385763 13.69 3.5 13.69L17.5 13.69C17.7761424 13.69 18 13.4661424 18 13.19 18 12.9138576 17.7761424 12.69 17.5 12.69L17.5 12.69zM3.5 17.86L14.5 17.86C14.7761424 17.86 15 17.6361424 15 17.36 15 17.0838576 14.7761424 16.86 14.5 16.86L3.5 16.86C3.22385763 16.86 3 17.0838576 3 17.36 3 17.6361424 3.22385763 17.86 3.5 17.86L3.5 17.86zM3.5 22L17.5 22C17.7761424 22 18 21.7761424 18 21.5 18 21.2238576 17.7761424 21 17.5 21L3.5 21C3.22385763 21 3 21.2238576 3 21.5 3 21.7761424 3.22385763 22 3.5 22L3.5 22z"/>
      <path d="M24,24 C24,24.5522847 23.5522847,25 23,25 L2,25 C1.44771525,25 1,24.5522847 1,24 L1,9 L24,9 L24,12 C24.3266897,11.9056659 24.6614775,11.8420563 25,11.81 L25,2 C25,0.8954305 24.1045695,0 23,0 L2,0 C0.8954305,0 1.3527075e-16,0.8954305 0,2 L0,24 C1.3527075e-16,25.1045695 0.8954305,26 2,26 L23,26 C24.1045695,26 25,25.1045695 25,24 L25,22.84 C24.6614775,22.8079437 24.3266897,22.7443341 24,22.65 L24,24 Z M4,3.53 L21,3.53 C21.5522847,3.53 22,3.97771525 22,4.53 C22,5.08228475 21.5522847,5.53 21,5.53 L4,5.53 C3.44771525,5.53 3,5.08228475 3,4.53 C3,3.97771525 3.44771525,3.53 4,3.53 L4,3.53 Z"/>
      <path d="M25.5,12.86 C23.0147186,12.86 21,14.8747186 21,17.36 C21,19.8452814 23.0147186,21.86 25.5,21.86 C27.9852814,21.86 30,19.8452814 30,17.36 C30,14.8747186 27.9852814,12.86 25.5,12.86 L25.5,12.86 Z M24.73,19.47 L22.8,17.54 L23.35,16.99 L24.74,18.37 L27.67,15.44 L28.22,15.99 L24.73,19.47 Z"/>
    </g>
  </g>
</svg>
