<?xml version="1.0" encoding="UTF-8"?>
<svg width="39px" height="49px" viewBox="0 0 39 49" version="1.1" xmlns="http://www.w3.org/2000/svg" xmlns:xlink="http://www.w3.org/1999/xlink">
    <!-- Generator: Sketch 49.3 (51167) - http://www.bohemiancoding.com/sketch -->
    <title>pay</title>
    <desc>Created with Sketch.</desc>
    <defs></defs>
    <g id="V7" stroke="none" stroke-width="1" fill="none" fill-rule="evenodd">
        <g id="NON-POTD-DUE-(BILLING)-Copy" transform="translate(-471.000000, -112.000000)">
            <g id="billhistory/top/Right" transform="translate(471.000000, 112.000000)">
                <g id="pay">
                    <g transform="translate(0.000000, 0.890909)">
                        <path d="M38.5597807,12.2784991 L24.8435658,0.204222017 C24.6953281,0.0736691293 24.4930897,0 24.2823805,0 L0.794130091,0 C0.35471144,0 0,0.31332693 0,0.699390468 L0,46.5187913 C0,46.9048549 0.35471144,47.2181818 0.794130091,47.2181818 L37.9975366,47.2181818 C38.4358964,47.2181818 38.7916667,46.9048549 38.7916667,46.5187913 L38.7916667,12.772735 C38.7916667,12.5871634 38.7080183,12.4090519 38.5597807,12.2784991" id="Path" fill="#001CB0"></path>
                        <path d="M13.4095889,15.2005252 L19.4122731,9.09128722 C19.6525323,8.8483588 20.16087,8.8483588 20.3998646,9.09128722 L26.4025488,15.2005252 C26.5555559,15.3549288 26.5846399,15.5659472 26.4784201,15.7450554 C26.3734648,15.9231343 26.1521735,16.0363636 25.9093854,16.0363636 L13.9040168,16.0363636 C13.6599642,16.0363636 13.4386729,15.9231343 13.3337176,15.7450554 C13.2274978,15.5659472 13.2578463,15.3549288 13.4095889,15.2005252" id="Fill-3" fill="#50E3C2"></path>
                        <path d="M21.398022,36.2053602 L21.398022,37.1039943 C21.398022,37.7694954 20.7746856,38.3090909 20.0059039,38.3090909 C19.2379214,38.3090909 18.6137858,37.7694954 18.6137858,37.1039943 L18.6137858,36.0621598 C16.5903398,35.6083462 15.3125,34.3811123 15.3125,32.7104415 C15.3125,32.0449404 15.9358365,31.5053449 16.7046181,31.5053449 C17.4733997,31.5053449 18.0967362,32.0449404 18.0967362,32.7104415 C18.0967362,33.7993176 20.0290792,33.853969 20.4158675,33.853969 C20.8034549,33.853969 22.7365971,33.7993176 22.7365971,32.7104415 C22.7365971,32.1729214 22.5759681,32.0186524 20.5701033,31.2805134 L19.1811818,30.7409179 C17.4070704,30.0892526 15.5434542,29.4064567 15.5434542,27.272979 C15.5418559,26.4158523 15.9054688,25.6451992 16.5943355,25.0481852 C17.1193766,24.592988 17.8122391,24.2823747 18.6137858,24.0921327 L18.6137858,23.4778239 C18.6137858,22.8123228 19.2379214,22.2727273 20.0059039,22.2727273 C20.7746856,22.2727273 21.398022,22.8123228 21.398022,23.4778239 L21.398022,23.9399391 C23.7347346,24.2201137 25.2443277,25.4874713 25.2443277,27.2722873 C25.2443277,27.9377884 24.6201921,28.4773839 23.8522096,28.4773839 C23.0834279,28.4773839 22.4600915,27.9377884 22.4600915,27.2722873 C22.4600915,26.3362966 20.739523,26.2892549 20.3942905,26.2892549 C19.5695684,26.2892549 18.9022787,26.4573597 18.5642386,26.7506783 C18.4020112,26.8911115 18.3276904,27.0564491 18.3276904,27.2709037 C18.3276904,27.7164159 18.3940198,27.83402 20.2959951,28.5320352 L21.676126,29.0688636 C23.6444307,29.7931668 25.5208333,30.4835724 25.5208333,32.7104415 C25.5208333,34.5983341 23.8977611,35.9293363 21.398022,36.2053602" id="Path" fill="#FFFFFF"></path>
                    </g>
                </g>
            </g>
        </g>
    </g>
</svg>