<?xml version="1.0" encoding="UTF-8" standalone="no"?>
<svg width="21px" height="19px" viewBox="0 0 21 19" version="1.1" xmlns="http://www.w3.org/2000/svg" xmlns:xlink="http://www.w3.org/1999/xlink">
    <!-- Generator: Sketch 41.2 (35397) - http://www.bohemiancoding.com/sketch -->
    <title>Average icon</title>
    <desc>Created with Sketch.</desc>
    <defs></defs>
    <g id="Version-02" stroke="none" stroke-width="1" fill="none" fill-rule="evenodd">
        <g id="T&amp;C-approved" transform="translate(-530.000000, -659.000000)" stroke="#FFFFFF">
            <g id="Group-6" transform="translate(129.000000, 172.000000)">
                <g id="Group-25" transform="translate(309.000000, 485.000000)">
                    <g id="Group-5">
                        <g id="Average-icon" transform="translate(103.000000, 13.000000) scale(1, -1) translate(-103.000000, -13.000000) translate(90.000000, 0.000000)">
                            <g id="time">
                                <path d="M11.3277273,10.0277273 L11.3277273,10.0277273 C10.9968182,10.3586364 11.0381818,10.855 11.3690909,11.1445455 L15.4227273,14.1227273 L12.4445455,10.0690909 C12.155,9.73818182 11.6586364,9.69681818 11.3277273,10.0277273 L11.3277273,10.0277273 Z" id="Shape" transform="translate(13.260994, 11.960994) rotate(20.000000) translate(-13.260994, -11.960994) "></path>
                                <path d="M12.6654329,22.2168073 C17.6115921,22.2168073 21.6212464,18.207153 21.6212464,13.2609938 C21.6212464,8.31483459 17.6115921,4.30518031 12.6654329,4.30518031 C7.71927368,4.30518031 3.70961941,8.31483459 3.70961941,13.2609938" id="Oval-2" stroke-width="2" stroke-linecap="round" transform="translate(12.665433, 13.260994) rotate(135.000000) translate(-12.665433, -13.260994) "></path>
                            </g>
                        </g>
                    </g>
                </g>
            </g>
        </g>
    </g>
</svg>