<?xml version="1.0" encoding="UTF-8" standalone="no"?>
<svg width="12px" height="19px" viewBox="0 0 12 19" version="1.1" xmlns="http://www.w3.org/2000/svg" xmlns:xlink="http://www.w3.org/1999/xlink">
    <!-- Generator: Sketch 42 (36781) - http://www.bohemiancoding.com/sketch -->
    <title>high</title>
    <desc>Created with Sketch.</desc>
    <defs></defs>
    <g id="Smart-meter-V2" stroke="none" stroke-width="1" fill="none" fill-rule="evenodd">
        <g id="insights" transform="translate(-867.000000, -260.000000)" fill="#FFFFFF">
            <g id="DESKTOP-SMART-PAST-01" transform="translate(770.000000, 252.000000)">
                <g id="Insight-01" transform="translate(82.000000, 0.000000)">
                    <path d="M21.4124429,8.19566534 C21.1921476,7.93477822 20.7947521,7.93477822 20.5737369,8.19566534 L15.134027,14.6294195 C14.8273414,14.9926153 15.080753,15.5545823 15.5523001,15.555313 L18.6457931,15.5611592 L18.6457931,26.4394946 C18.6457931,26.7493437 18.8927254,27 19.1979712,27 L22.7882086,27 C23.0934543,27 23.3411065,26.7493437 23.3411065,26.4394946 L23.3411065,15.5611592 L26.4338797,15.555313 C26.9054268,15.5545823 27.1595583,14.9926153 26.8521528,14.6294195 L21.4124429,8.19566534 Z" id="high" transform="translate(20.993249, 17.500000) scale(-1, -1) rotate(180.000000) translate(-20.993249, -17.500000) "></path>
                </g>
            </g>
        </g>
    </g>
</svg>