<svg xmlns="http://www.w3.org/2000/svg" width="30" height="56" viewBox="0 0 30 56">
  <g fill="none" fill-rule="evenodd">
    <rect width="30" height="56" fill="#FFFFFF" fill-opacity=".01"/>
    <g fill="#48515F" transform="translate(0 17)">
      <path d="M8,5.45 C4.6862915,5.45 2,8.1362915 2,11.45 C2,14.7637085 4.6862915,17.45 8,17.45 C11.3137085,17.45 14,14.7637085 14,11.45 C14,8.1362915 11.3137085,5.45 8,5.45 L8,5.45 Z M8,7.25 C8.73252177,7.25028266 9.39180803,7.69444658 9.66722852,8.37321884 C9.942649,9.05199109 9.77926096,9.82996558 9.25404653,10.3405907 C8.72883211,10.8512159 7.94656465,10.9926287 7.27581842,10.6982009 C6.6050722,10.4037731 6.17965223,9.73223916 6.2,9 C6.22708074,8.02546689 7.02509077,7.24962381 8,7.25 L8,7.25 Z M8,15.77 C6.55243335,15.7704515 5.20085281,15.0458541 4.4,13.84 C4.42,12.64 6.8,12 8,12 C9.2,12 11.58,12.65 11.6,13.85 C10.796852,15.0520472 9.4456683,15.7726785 8,15.77 L8,15.77 Z"/>
      <path d="M28,0.45 L2,0.45 C0.8954305,0.45 1.3527075e-16,1.3454305 0,2.45 L0,20.45 C1.3527075e-16,21.5545695 0.8954305,22.45 2,22.45 L28,22.45 C29.1045695,22.45 30,21.5545695 30,20.45 L30,2.45 C30,1.3454305 29.1045695,0.45 28,0.45 L28,0.45 Z M29,20.45 C29,21.0022847 28.5522847,21.45 28,21.45 L2,21.45 C1.44771525,21.45 1,21.0022847 1,20.45 L1,2.45 C1,1.89771525 1.44771525,1.45 2,1.45 L28,1.45 C28.5522847,1.45 29,1.89771525 29,2.45 L29,20.45 Z"/>
      <path d="M26.37 10.95L16.37 10.95C16.0938576 10.95 15.87 11.1738576 15.87 11.45 15.87 11.7261424 16.0938576 11.95 16.37 11.95L26.37 11.95C26.6461424 11.95 26.87 11.7261424 26.87 11.45 26.87 11.1738576 26.6461424 10.95 26.37 10.95L26.37 10.95zM26.37 6.95L16.37 6.95C16.0938576 6.95 15.87 7.17385763 15.87 7.45 15.87 7.72614237 16.0938576 7.95 16.37 7.95L26.37 7.95C26.6461424 7.95 26.87 7.72614237 26.87 7.45 26.87 7.17385763 26.6461424 6.95 26.37 6.95L26.37 6.95zM26.37 14.95L16.37 14.95C16.0938576 14.95 15.87 15.1738576 15.87 15.45 15.87 15.7261424 16.0938576 15.95 16.37 15.95L26.37 15.95C26.6461424 15.95 26.87 15.7261424 26.87 15.45 26.87 15.1738576 26.6461424 14.95 26.37 14.95L26.37 14.95z"/>
    </g>
  </g>
</svg>
