<?xml version="1.0" encoding="UTF-8"?>
<svg width="52px" height="15px" viewBox="0 0 52 15" version="1.1" xmlns="http://www.w3.org/2000/svg" xmlns:xlink="http://www.w3.org/1999/xlink">
    <!-- Generator: Sketch 41.2 (35397) - http://www.bohemiancoding.com/sketch -->
    <title>iconPay_payPal_01</title>
    <desc>Created with Sketch.</desc>
    <defs>
        <polygon id="path-1" points="4.43405569 11.4375958 4.43405569 0.333167907 0.281041169 0.333167907 0.281041169 11.4375958 4.43405569 11.4375958"></polygon>
    </defs>
    <g id="Page-1" stroke="none" stroke-width="1" fill="none" fill-rule="evenodd">
        <g id="iconPay_payPal_01">
            <path d="M6.687426,4.57093303 C6.4688211,6.00530855 5.37287403,6.00530855 4.31316629,6.00530855 L3.70995702,6.00530855 L4.13313871,3.32652168 C4.15827243,3.16461376 4.29855366,3.04537472 4.46221509,3.04537472 L4.738686,3.04537472 C5.4605498,3.04537472 6.14149824,3.04537472 6.49337031,3.45686631 C6.70320764,3.70235846 6.7675032,4.06708964 6.687426,4.57093303 M9.14000941,1.84772377 C8.57187045,1.18021895 7.56418366,0.827177865 6.22625148,0.827177865 L2.2288211,0.827177865 C1.95527271,0.827177865 1.72263968,1.0259096 1.67997081,1.29595096 L0.0632296988,11.5464169 C0.0310819183,11.7486557 0.187729285,11.9310213 0.392890576,11.9310213 L2.30129973,11.9310213 C2.57484812,11.9310213 2.80748115,11.7322895 2.85015002,11.4616637 L3.28619082,8.69695454 C3.32827519,8.42632868 3.56149273,8.22759694 3.83445661,8.22759694 L5.09991015,8.22759694 C7.73310563,8.22759694 9.25281889,6.95337583 9.64969785,4.42831379 C9.82855642,3.32359915 9.65729642,2.45560908 9.14000941,1.84772377" id="Fill-1" fill="#253B80"></path>
            <path d="M15.5070235,8.25039264 C15.3223199,9.34400169 14.4543298,10.0781401 13.3472771,10.0781401 C12.7914128,10.0781401 12.3471889,9.89986604 12.0619504,9.56202209 C11.7790499,9.22651616 11.671501,8.74897549 11.7615148,8.21707585 C11.9339438,7.13281889 12.8165465,6.37471578 13.9066485,6.37471578 C14.4502382,6.37471578 14.8921241,6.55532785 15.1832076,6.89609433 C15.4748757,7.24036783 15.5906077,7.72083102 15.5070235,8.25039264 M18.1752893,4.52475713 L16.261035,4.52475713 C16.0979581,4.52475713 15.9570924,4.64399617 15.9319587,4.80590409 L15.8472054,5.34131076 L15.7133538,5.14725506 C15.2989397,4.54579932 14.3748371,4.34472956 13.452488,4.34472956 C11.3371641,4.34472956 9.53045881,5.94685804 9.17858674,8.19428015 C8.99563665,9.31536094 9.25574142,10.3873433 9.89168297,11.1349253 C10.4750191,11.8223033 11.3096923,12.1087108 12.3027665,12.1087108 C14.0071834,12.1087108 14.9523281,11.0127637 14.9523281,11.0127637 L14.8669904,11.5446634 C14.8348426,11.7480712 14.99149,11.9304368 15.1954822,11.9304368 L16.9197723,11.9304368 C17.1939052,11.9304368 17.4253692,11.731705 17.4686226,11.4610792 L18.5031966,4.90936149 C18.5359289,4.70770723 18.379866,4.52475713 18.1752893,4.52475713" id="Fill-3" fill="#253B80"></path>
            <path d="M28.3702272,4.52475713 L26.4466209,4.52475713 C26.2630863,4.52475713 26.0906573,4.61593993 25.9866154,4.76849576 L23.3335468,8.67649686 L22.208959,4.92105159 C22.1382338,4.68608054 21.9213824,4.52475713 21.6758903,4.52475713 L19.7856008,4.52475713 C19.5558903,4.52475713 19.3963204,4.74920709 19.4693835,4.96547398 L21.5882145,11.1834392 L19.5962212,13.9954933 C19.4395738,14.2170207 19.5973902,14.5215479 19.868016,14.5215479 L21.7892843,14.5215479 C21.9716499,14.5215479 22.1423254,14.4327031 22.2457828,14.2830698 L28.6437756,5.0478892 C28.7969159,4.82694627 28.6396841,4.52475713 28.3702272,4.52475713" id="Fill-5" fill="#253B80"></path>
            <path d="M35.2001693,4.57093303 C34.9821489,6.00530855 33.8862019,6.00530855 32.8259096,6.00530855 L32.2232848,6.00530855 L32.647051,3.32652168 C32.6721848,3.16461376 32.811297,3.04537472 32.9755429,3.04537472 L33.2520138,3.04537472 C33.9732931,3.04537472 34.6548261,3.04537472 35.0066981,3.45686631 C35.2165355,3.70235846 35.2802465,4.06708964 35.2001693,4.57093303 M37.6515837,1.84772377 C37.0840293,1.18021895 36.076927,0.827177865 34.7389948,0.827177865 L30.7409799,0.827177865 C30.468016,0.827177865 30.235383,1.0259096 30.1927141,1.29595096 L28.575973,11.5464169 C28.5438252,11.7486557 28.7004726,11.9310213 28.9044649,11.9310213 L30.9560778,11.9310213 C31.1466264,11.9310213 31.3097034,11.791909 31.3395131,11.6025294 L31.7983496,8.69695454 C31.840434,8.42632868 32.0736515,8.22759694 32.3466154,8.22759694 L33.6114845,8.22759694 C36.2452644,8.22759694 37.7643932,6.95337583 38.1618567,4.42831379 C38.3412997,3.32359915 38.1688707,2.45560908 37.6515837,1.84772377" id="Fill-7" fill="#179BD7"></path>
            <path d="M44.0191823,8.25039264 C43.8356477,9.34400169 42.9664886,10.0781401 41.8594359,10.0781401 C41.3047406,10.0781401 40.8593477,9.89986604 40.5741092,9.56202209 C40.2912087,9.22651616 40.1848288,8.74897549 40.2736736,8.21707585 C40.4472716,7.13281889 41.3287053,6.37471578 42.4188073,6.37471578 C42.9623971,6.37471578 43.4042829,6.55532785 43.6953665,6.89609433 C43.9882035,7.24036783 44.1039355,7.72083102 44.0191823,8.25039264 M46.6874481,4.52475713 L44.7743629,4.52475713 C44.6101169,4.52475713 44.4704202,4.64399617 44.445871,4.80590409 L44.3611178,5.34131076 L44.2266816,5.14725506 C43.8122675,4.54579932 42.8887494,4.34472956 41.9664004,4.34472956 C39.8510764,4.34472956 38.0449556,5.94685804 37.6930836,8.19428015 C37.510718,9.31536094 37.7696537,10.3873433 38.4055953,11.1349253 C38.9901004,11.8223033 39.8236047,12.1087108 40.8166788,12.1087108 C42.5210957,12.1087108 43.4662405,11.0127637 43.4662405,11.0127637 L43.3809027,11.5446634 C43.3487549,11.7480712 43.5054023,11.9304368 43.7105636,11.9304368 L45.4342691,11.9304368 C45.707233,11.9304368 45.939866,11.731705 45.9825349,11.4610792 L47.0176934,4.90936149 C47.0492567,4.70770723 46.8926094,4.52475713 46.6874481,4.52475713" id="Fill-9" fill="#179BD7"></path>
            <g id="Group-13" transform="translate(47.018278, 0.493425)">
                <mask id="mask-2" fill="white">
                    <use xlink:href="#path-1"></use>
                </mask>
                <g id="Clip-12"></g>
                <path d="M4.10147229,0.333167907 L2.25443617,0.333167907 C2.09135925,0.333752412 1.95107803,0.452991453 1.92594431,0.614899366 L0.285238489,11.0529915 C0.253090709,11.2552302 0.409738076,11.4375958 0.613730356,11.4375958 L2.26320375,11.4375958 C2.53733664,11.4375958 2.76996967,11.2388641 2.81205404,10.9682382 L4.42996416,0.718356769 C4.46211194,0.516118004 4.30546457,0.333167907 4.10147229,0.333167907" id="Fill-11" fill="#179BD7" mask="url(#mask-2)"></path>
            </g>
        </g>
    </g>
</svg>