<?xml version="1.0" encoding="UTF-8" standalone="no"?>
<svg width="75px" height="80px" viewBox="0 0 75 80" version="1.1" xmlns="http://www.w3.org/2000/svg" xmlns:xlink="http://www.w3.org/1999/xlink">
    <!-- Generator: Sketch 42 (36781) - http://www.bohemiancoding.com/sketch -->
    <title>fan</title>
    <desc>Created with Sketch.</desc>
    <defs>
        <rect id="path-1" x="0" y="0" width="75" height="80"></rect>
        <path d="M8.63161773,2.97154262 C8.84806457,1.33040495 10.3617935,0 12.0306382,0 L14.3458324,0 C16.0066127,0 17.6134622,1.31687708 17.9364109,2.94931262 L20.9341773,18.1023708 C21.2564188,19.7312311 20.1758679,21.0516834 18.5188904,21.0516834 L9.24581546,21.0516834 C7.5896479,21.0516834 6.42284583,19.7188357 6.63897051,18.0801408 L8.63161773,2.97154262 Z" id="path-3"></path>
        <mask id="mask-4" maskContentUnits="userSpaceOnUse" maskUnits="objectBoundingBox" x="0" y="0" width="14.3778202" height="21.0516834" fill="white">
            <use xlink:href="#path-3"></use>
        </mask>
        <rect id="path-5" x="0" y="18.946515" width="27.7647059" height="7.01722779" rx="2"></rect>
        <mask id="mask-6" maskContentUnits="userSpaceOnUse" maskUnits="objectBoundingBox" x="0" y="0" width="27.7647059" height="7.01722779" fill="white">
            <use xlink:href="#path-5"></use>
        </mask>
        <path d="M16.2416799,7.09198342 C14.9386596,3.17518913 17.2328997,-9.09494702e-13 21.343212,-9.09494702e-13 L25.1626703,-9.09494702e-13 C29.283189,-9.09494702e-13 31.7026051,3.21594499 30.5675883,7.17951895 L27.665626,17.3134147 L27.665626,17.3134147 C26.457097,20.6393052 22.141278,23.335472 21.8303319,23.335472 L25.4773907,23.335472 C23.4631757,23.335472 20.6849441,20.1833474 19.6420966,17.3134147 L19.6420966,17.3134147 L16.2416799,7.09198342 Z" id="path-7"></path>
        <mask id="mask-8" maskContentUnits="userSpaceOnUse" maskUnits="objectBoundingBox" x="0" y="0" width="14.9711504" height="23.335472" fill="white">
            <use xlink:href="#path-7"></use>
        </mask>
        <path d="M27.1549933,21.2636633 C25.7960597,17.3557469 28.0462998,14.3077081 32.1795406,14.4556243 L36.0795341,14.5951932 C40.2134486,14.7431335 42.627805,18.0890859 41.4745802,22.0602193 L38.7354536,31.4924104 L38.7354536,31.4924104 C37.5269246,34.8183008 33.186338,37.5144677 32.9001595,37.5144677 L36.5472183,37.5144677 C34.5330033,37.5144677 31.7547717,34.362343 30.7119242,31.4924104 L30.7119242,31.4924104 L27.1549933,21.2636633 Z" id="path-9"></path>
        <mask id="mask-10" maskContentUnits="userSpaceOnUse" maskUnits="objectBoundingBox" x="0" y="0" width="15.0036361" height="23.0640071" fill="white">
            <use xlink:href="#path-9"></use>
        </mask>
        <path d="M6.62610956,24.4716719 C5.12443992,20.4640929 7.37165249,17.1963617 11.6477844,17.172977 L16.1875292,17.1481506 C20.4625932,17.1247718 22.7236302,20.3540209 21.2319442,24.376392 L17.9400724,33.2530121 L17.9400724,33.2530121 C16.7315434,36.5789025 12.2806835,39.2750694 12.1047783,39.2750694 L15.7518371,39.2750694 C13.7376222,39.2750694 10.9209983,36.0172885 9.91654302,33.2530121 L9.91654302,33.2530121 L6.62610956,24.4716719 Z" id="path-11"></path>
        <mask id="mask-12" maskContentUnits="userSpaceOnUse" maskUnits="objectBoundingBox" x="0" y="0" width="15.5312323" height="22.1270449" fill="white">
            <use xlink:href="#path-11"></use>
        </mask>
        <path d="M47.8941176,51.2257629 L59,51.2257629 L59,56.9053303 C59,59.9694044 56.5076232,62.4533273 53.4470588,62.4533273 L53.4470588,62.4533273 C50.3802541,62.4533273 47.8941176,59.9615669 47.8941176,56.9053303 L47.8941176,51.2257629 Z" id="path-13"></path>
        <mask id="mask-14" maskContentUnits="userSpaceOnUse" maskUnits="objectBoundingBox" x="0" y="0" width="11.1058824" height="11.2275645" fill="white">
            <use xlink:href="#path-13"></use>
        </mask>
    </defs>
    <g id="Version-06" stroke="none" stroke-width="1" fill="none" fill-rule="evenodd">
        <g id="tips-icons_all-sizes" transform="translate(-435.000000, -1675.000000)">
            <g id="fan" transform="translate(435.000000, 1675.000000)">
                <mask id="mask-2" fill="white">
                    <use xlink:href="#path-1"></use>
                </mask>
                <use id="Mask" fill="#FFFFFF" xlink:href="#path-1"></use>
                <g mask="url(#mask-2)">
                    <g transform="translate(10.000000, 3.000000)">
                        <path d="M51.3647059,57.5412679 C51.3647059,57.5412679 56.05,60.216586 51.3647059,69.2951244 C46.6794118,78.3736629 32.6235294,69.2951244 32.6235294,69.2951244" id="Path-3" stroke="#50E3C2" stroke-width="1" fill="none"></path>
                        <g id="Group-4" stroke="none" stroke-width="1" fill="none" fill-rule="evenodd" transform="translate(13.188235, 49.120595)">
                            <use id="Rectangle-23" stroke="#50E3C2" mask="url(#mask-4)" stroke-width="8" fill="#FFFFFF" xlink:href="#path-3"></use>
                            <use id="Rectangle-24" stroke="#50E3C2" mask="url(#mask-6)" stroke-width="4" fill="#FFFFFF" xlink:href="#path-5"></use>
                            <ellipse id="Oval-11" fill="#50E3C2" cx="13.5352941" cy="9.47325752" rx="1.04117647" ry="1.05258417"></ellipse>
                            <ellipse id="Oval-11-Copy" fill="#50E3C2" cx="13.5352941" cy="12.9818714" rx="1.04117647" ry="1.05258417"></ellipse>
                        </g>
                        <g id="Group-5" stroke="none" stroke-width="1" fill="none" fill-rule="evenodd">
                            <g id="Group-3" stroke="#50E3C2">
                                <ellipse id="Oval-2" stroke-width="4" fill="#FFFFFF" cx="26.7235294" cy="27.016327" rx="26.7235294" ry="27.016327"></ellipse>
                                <g id="Group-2" transform="translate(2.776471, 4.912059)">
                                    <use id="Rectangle-4" mask="url(#mask-8)" stroke-width="4" xlink:href="#path-7"></use>
                                    <use id="Rectangle-4-Copy" mask="url(#mask-10)" stroke-width="4" transform="translate(34.260686, 25.982464) rotate(124.000000) translate(-34.260686, -25.982464) " xlink:href="#path-9"></use>
                                    <use id="Rectangle-4-Copy-2" mask="url(#mask-12)" stroke-width="4" transform="translate(13.925720, 28.211547) scale(-1, 1) rotate(124.000000) translate(-13.925720, -28.211547) " xlink:href="#path-11"></use>
                                    <ellipse id="Oval-9" stroke-width="2" fill="#FFFFFF" cx="23.9294118" cy="22.735818" rx="5.10588235" ry="5.26930014"></ellipse>
                                </g>
                            </g>
                            <ellipse id="Oval-13" fill="#50E3C2" cx="26.3764706" cy="27.3671884" rx="2.77647059" ry="2.80689112"></ellipse>
                        </g>
                        <g id="Group-6" stroke="none" stroke-width="1" fill="none" fill-rule="evenodd" transform="translate(49.282353, 49.120595)" stroke-linecap="square">
                            <path d="M2.40271493,0.350861389 L0.266968326,3.15775251" id="Line" stroke="#50E3C2"></path>
                            <path d="M7.36832579,0.350861389 L5.23257919,3.15775251" id="Line-Copy-6" stroke="#50E3C2" transform="translate(6.300452, 1.754307) scale(-1, 1) translate(-6.300452, -1.754307) "></path>
                        </g>
                        <use id="Rectangle-25" stroke="#50E3C2" mask="url(#mask-14)" stroke-width="4" fill="#FFFFFF" fill-rule="evenodd" xlink:href="#path-13"></use>
                    </g>
                </g>
            </g>
        </g>
    </g>
</svg>