<?xml version="1.0" encoding="UTF-8"?>
<svg width="130px" height="108px" viewBox="0 0 130 108" version="1.1" xmlns="http://www.w3.org/2000/svg" xmlns:xlink="http://www.w3.org/1999/xlink">
    <!-- Generator: Sketch 49.1 (51147) - http://www.bohemiancoding.com/sketch -->
    <title>eBill</title>
    <desc>Created with Sketch.</desc>
    <defs></defs>
    <g id="Working" stroke="none" stroke-width="1" fill="none" fill-rule="evenodd">
        <g id="eBill" transform="translate(0.000000, -1.000000)">
            <g id="Group-24">
                <g id="Group-23" transform="translate(11.818182, 29.000000)" fill-rule="nonzero">
                    <path d="M103.645455,0.236363636 L101.990909,0.236363636 L4.13636364,0.236363636 L2.48181818,0.236363636 C1.41818182,0.236363636 0.472727273,1.18181818 0.472727273,2.24545455 L0.472727273,3.9 L0.472727273,66.4181818 L0.472727273,73.7454545 L4.13636364,73.7454545 L101.990909,73.7454545 L105.654545,73.7454545 L105.654545,66.4181818 L105.654545,3.9 L105.654545,2.24545455 C105.654545,1.18181818 104.827273,0.236363636 103.645455,0.236363636 Z M102.109091,66.4181818 L4.25454545,66.4181818 L4.25454545,3.9 L102.109091,3.9 L102.109091,66.4181818 Z" id="Shape" fill="#D7D7D7"></path>
                    <rect id="Rectangle-path" fill="#0110B3" x="4.25454545" y="3.9" width="97.8545455" height="62.5181818"></rect>
                </g>
                <g id="Group-19" transform="translate(35.454545, 0.636364)" fill-rule="nonzero">
                    <polygon id="Shape" fill="#EBEBEB" points="0 64.2909091 0 0.827272727 59.0909091 0.827272727 59.0909091 82.9636364 18.6727273 82.9636364"></polygon>
                    <polygon id="Shape" fill="#E1E1E1" points="0 64.2909091 18.6727273 64.2909091 18.6727273 82.9636364"></polygon>
                    <path d="M52,70.2 L28.3636364,70.2 C27.7727273,70.2 27.1818182,69.6090909 27.1818182,69.0181818 L27.1818182,65.4727273 C27.1818182,64.7636364 27.7727273,64.2909091 28.3636364,64.2909091 L52,64.2909091 C52.5909091,64.2909091 53.1818182,64.7636364 53.1818182,65.4727273 L53.1818182,69.0181818 C53.1818182,69.6090909 52.5909091,70.2 52,70.2 Z" id="Shape" fill="#00DFED"></path>
                    <rect id="Rectangle-path" fill="#0110B3" x="5.90909091" y="18.5545455" width="19.8545455" height="1.18181818"></rect>
                    <rect id="Rectangle-path" fill="#0110B3" x="5.90909091" y="25.6454545" width="13.8272727" height="1.18181818"></rect>
                    <rect id="Rectangle-path" fill="#0110B3" x="5.90909091" y="22.1" width="25.6454545" height="1.18181818"></rect>
                    <rect id="Rectangle-path" fill="#0110B3" x="5.90909091" y="32.9727273" width="7.09090909" height="1.18181818"></rect>
                    <rect id="Rectangle-path" fill="#0110B3" x="48.4545455" y="32.9727273" width="4.72727273" height="1.18181818"></rect>
                    <rect id="Rectangle-path" fill="#D7D7D7" x="5.90909091" y="37.9363636" width="47.2727273" height="1"></rect>
                    <rect id="Rectangle-path" fill="#0110B3" x="5.90909091" y="42.4272727" width="7.09090909" height="1.18181818"></rect>
                    <rect id="Rectangle-path" fill="#0110B3" x="48.4545455" y="42.4272727" width="4.72727273" height="1.18181818"></rect>
                    <rect id="Rectangle-path" fill="#D7D7D7" x="5.90909091" y="47.3909091" width="47.2727273" height="1"></rect>
                    <rect id="Rectangle-path" fill="#0110B3" x="5.90909091" y="51.8818182" width="7.09090909" height="1.18181818"></rect>
                    <rect id="Rectangle-path" fill="#0110B3" x="48.4545455" y="51.8818182" width="4.72727273" height="1.18181818"></rect>
                </g>
                <path d="M0,105.107909 C0.236148955,107 1.88919164,108.535182 3.77838329,108.535182 L125.749319,108.535182 C127.756585,108.535182 129.291553,107 129.527702,105.107909 L130,101.090909 L86.0762943,101.090909 C85.9582198,102.035182 85.2497729,102.626091 84.3051771,102.626091 L45.4586739,102.626091 C44.5140781,102.626091 43.8056312,101.918182 43.6875568,101.090909 L0,101.090909 L0,105.107909 Z" id="Fill-1" fill="#EBEBEB"></path>
            </g>
        </g>
    </g>
</svg>