<?xml version="1.0" encoding="UTF-8" standalone="no"?>
<svg width="14px" height="15px" viewBox="0 0 14 15" version="1.1" xmlns="http://www.w3.org/2000/svg" xmlns:xlink="http://www.w3.org/1999/xlink">
    <!-- Generator: Sketch 42 (36781) - http://www.bohemiancoding.com/sketch -->
    <title>calender icon copy</title>
    <desc>Created with Sketch.</desc>
    <defs></defs>
    <g id="Smart-meter-V2" stroke="none" stroke-width="1" fill="none" fill-rule="evenodd">
        <g id="insight-02" transform="translate(-361.000000, -616.000000)" fill="#00DFED">
            <g id="Group-4" transform="translate(265.000000, 605.000000)">
                <g id="Insigh-02" transform="translate(83.000000, 0.000000)">
                    <g id="calender-icon-copy" transform="translate(13.000000, 11.000000)">
                        <path d="M0,3.22707315 C0,2.951041 0.219906569,2.72727273 0.498267412,2.72727273 L13.5017326,2.72727273 C13.7769181,2.72727273 14,2.94277397 14,3.22707315 L14,13.5200859 C14,13.7961181 13.7800934,14.0198864 13.5017326,14.0198864 L0.498267412,14.0198864 C0.223081919,14.0198864 0,13.8043851 0,13.5200859 L0,3.22707315 Z M3.5,6 C4.32842712,6 5,5.32842712 5,4.5 C5,3.67157288 4.32842712,3 3.5,3 C2.67157288,3 2,3.67157288 2,4.5 C2,5.32842712 2.67157288,6 3.5,6 Z M10.5,6 C11.3284271,6 12,5.32842712 12,4.5 C12,3.67157288 11.3284271,3 10.5,3 C9.67157288,3 9,3.67157288 9,4.5 C9,5.32842712 9.67157288,6 10.5,6 Z" id="Combined-Shape"></path>
                        <g id="Group-29" transform="translate(2.800000, 0.000000)">
                            <rect id="Rectangle-10" x="0" y="0" width="1.4" height="4.6875" rx="0.5"></rect>
                            <rect id="Rectangle-10-Copy" x="7" y="0" width="1.4" height="4.6875" rx="0.5"></rect>
                        </g>
                    </g>
                </g>
            </g>
        </g>
    </g>
</svg>