<?xml version="1.0" encoding="UTF-8"?>
<svg width="43px" height="60px" viewBox="0 0 43 60" version="1.1" xmlns="http://www.w3.org/2000/svg" xmlns:xlink="http://www.w3.org/1999/xlink">
    <!-- Generator: Sketch 44.1 (41455) - http://www.bohemiancoding.com/sketch -->
    <title>icon_meter_gas_white</title>
    <desc>Created with Sketch.</desc>
    <defs></defs>
    <g id="SSMR---Multiple-meter-&amp;-register" stroke="none" stroke-width="1" fill="none" fill-rule="evenodd">
        <g id="light-blue-gas-meter-white">
            <path d="M34.988487,52.8813559 C39.4089131,52.8813559 43.0007354,49.2403666 42.9999999,44.7489787 L42.9940038,8.13237727 C42.9932673,3.63474975 39.4010109,0 34.9704723,0 L8.02952772,0 C3.59829955,0 0.00673168823,3.64098932 0.00599620798,8.13237727 L1.13398798e-07,44.7489787 C-0.000736388597,49.2466062 3.58614114,52.8813559 8.01151302,52.8813559 L18.045822,52.8813559 L18.045822,57.9646889 C18.045822,59.0898931 18.9425953,60 20.0488212,60 L22.0580969,60 C23.1605487,60 24.061096,59.0887602 24.061096,57.9646889 L24.061096,52.8813559 L34.988487,52.8813559 Z" id="Combined-Shape" fill="#FFFFFF"></path>
            <path d="M6,9.9947834 C6,7.78852545 7.80068426,6 10.0050741,6 L32.9949259,6 C35.2068672,6 37,7.79171562 37,9.9947834 L37,20.0052166 C37,22.2114745 35.1993157,24 32.9949259,24 L10.0050741,24 C7.79313275,24 6,22.2082844 6,20.0052166 L6,9.9947834 Z" id="Rectangle-3-Copy" fill="#001CB0"></path>
            <g id="Group-2" stroke-width="1" transform="translate(11.000000, 10.000000)" fill="#FFFFFF">
                <circle id="Oval-5" cx="7.5" cy="2.5" r="2.5"></circle>
                <circle id="Oval-5-Copy-2" cx="2.5" cy="5.5" r="2.5"></circle>
                <circle id="Oval-5-Copy-3" cx="18.5" cy="5.5" r="2.5"></circle>
                <circle id="Oval-5-Copy" cx="13.5" cy="2.5" r="2.5"></circle>
            </g>
            <path d="M26.9441897,40.3594057 L27.197194,40.3359551 C27.1976617,40.3297335 27.2,40.276132 27.2,40.2699104 C27.2,40.0607691 27.1864378,39.8588065 27.1593135,39.6659371 C26.9610255,37.4113265 26.0855652,35.5118255 26.0481523,35.4319019 C25.9999833,35.3290063 25.8933567,35.2677475 25.7806505,35.2892838 C25.6702827,35.3079486 25.5847008,35.3988796 25.572074,35.5127827 C25.5369995,35.8118979 25.3438557,36.6489418 24.872454,36.928435 C24.643768,37.0633957 24.3706543,37.0576527 24.0358094,36.9116845 C22.7207483,36.3369048 21.7989895,31.9492441 22.2371874,30.5125341 C22.2919036,30.3316293 22.3545701,30.1263166 22.1478642,30.0267711 C22.0113074,29.9621622 21.890651,30.0148065 21.784492,30.1813538 L21.7344524,30.2579273 C21.1377177,31.1160289 20.3684162,32.0971267 19.5537517,33.1356546 C18.7157042,34.2043333 17.8491294,35.3089058 17.1317383,36.3340333 C16.0079502,37.9411193 16,40.0531117 16,40.1416498 C16,40.1564859 16.001403,40.1708435 16.0042089,40.185201 C16.0018706,40.2120017 16,40.239281 16,40.2699104 C16,43.4295238 18.5118043,46 21.5997662,46 C24.5656687,46 27.003115,43.6444082 27.1826966,40.6216699 C27.1934528,40.5924762 27.2,40.5604111 27.2,40.5273888 L27.1957911,40.3550984 L26.9441897,40.3594057 Z" id="Fill-1" fill="#001CB0"></path>
        </g>
    </g>
</svg>