<svg xmlns="http://www.w3.org/2000/svg" width="30" height="56" viewBox="0 0 30 56">
  <g fill="none" fill-rule="evenodd">
    <rect width="30" height="56" fill="#FFFFFF" fill-opacity=".01"/>
    <g fill="#48515F" transform="translate(2 15)">
      <path d="M22.5643657,21.8872633 L22.7443537,21.6871301 C23.5470791,20.7842827 24.2201738,19.7739014 24.7442211,18.6851325 L24.7442211,18.585066 C27.3359804,13.118684 25.8194883,6.58576824 21.0852348,2.8224721 C16.3509813,-0.940824035 9.64901869,-0.940824035 4.91476521,2.8224721 C0.18051173,6.58576824 -1.33598038,13.118684 1.2557789,18.585066 L1.2557789,18.6851325 C1.77982624,19.7739014 2.45292091,20.7842827 3.25564627,21.6871301 L3.43563433,21.8872633 C3.60562305,22.0773898 3.78561112,22.2575097 3.97559852,22.4276229 L4.20558326,22.6377627 C4.52461157,22.9345373 4.85834381,23.2150777 5.20551695,23.478322 L5.51549639,23.7084752 L6.00546389,24.0186816 L6.48543206,24.3088747 L6.95540089,24.5690478 L7.5553611,24.8592409 L7.96533391,25.0493674 C8.30531136,25.1894607 8.64528881,25.3195472 8.96526759,25.4296205 L9.25524836,25.5096737 C9.53522979,25.589727 9.81521122,25.6597736 10.0951927,25.7298202 L10.4951661,25.8098735 L11.3151117,25.93996 L11.6850872,25.93996 C12.0750613,25.93996 12.4750348,26 12.8750083,26 L12.8750083,26 C13.2749818,26 13.6749552,26 14.0649294,25.93996 L14.4349048,25.93996 L15.2548505,25.8098735 L15.6548239,25.7298202 C15.9448047,25.6697803 16.2247861,25.589727 16.4947682,25.5096737 L16.784749,25.4296205 C17.1347258,25.3195472 17.4747032,25.1894607 17.7846827,25.0493674 L18.1946555,24.8592409 L18.7946157,24.5690478 L19.2645845,24.3088747 L19.7445527,24.0186816 L20.2345202,23.7084752 L20.554499,23.4683154 C20.9014383,23.2083204 21.2351664,22.9311232 21.5544327,22.6377627 L22.0743982,22.4276229 C22.2143889,22.2575097 22.3943769,22.0273565 22.5643657,21.8872633 L22.5643657,21.8872633 Z M13.074995,1.0133734 C17.0932344,1.0286208 20.8371189,3.05565135 23.0483938,6.41321507 C25.2596686,9.77077879 25.6447676,14.0131296 24.0742655,17.7144867 L2.07572452,17.7144867 C0.505222472,14.0131296 0.890321425,9.77077879 3.10159627,6.41321507 C5.31287111,3.05565135 9.05675569,1.0286208 13.074995,1.0133734 L13.074995,1.0133734 Z M8.57529346,21.3569104 C8.57529346,21.0805841 8.79913624,20.8565775 9.0752603,20.8565775 L17.0747298,20.8565775 C17.3508538,20.8565775 17.5746966,21.0805841 17.5746966,21.3569104 C17.5746966,21.6332366 17.3508538,21.8572433 17.0747298,21.8572433 L9.0752603,21.8572433 C8.79913624,21.8572433 8.57529346,21.6332366 8.57529346,21.3569104 L8.57529346,21.3569104 Z"/>
      <g transform="translate(3 9)">
        <rect width="3.24" height="5.67" x=".29" y=".17"/>
        <rect width="3.24" height="5.67" x="4.33" y=".17"/>
        <rect width="3.24" height="5.67" x="8.38" y=".17"/>
        <rect width="3.24" height="5.67" x="12.43" y=".17"/>
        <rect width="3.24" height="5.67" x="16.48" y=".17"/>
      </g>
    </g>
  </g>
</svg>
