<svg xmlns="http://www.w3.org/2000/svg" width="30" height="56" viewBox="0 0 30 56">
  <g fill="none" fill-rule="evenodd">
    <rect width="30" height="56" fill="#FFFFFF" fill-opacity=".01"/>
    <g transform="translate(0 15)">
      <polyline stroke="#48515F" points="0 13.437 13.999 0 28 13.437" stroke-linecap="round" stroke-linejoin="round"/>
      <path fill="#48515F" d="M18,25.0265 L11,25.0265 L11,17.0265 C11,16.4745 11.448,16.0265 12,16.0265 L17,16.0265 C17.552,16.0265 18,16.4745 18,17.0265 L18,25.0265 Z"/>
      <path stroke="#48515F" d="M25,11 L25,23.995 C25,24.596 24.552,25.084 24,25.084 L4,25.084 C3.448,25.084 3,24.596 3,23.995 L3,11" stroke-linecap="round" stroke-linejoin="round"/>
      <path stroke="#FFFFFF" d="M27.8748753,15.9389913 C26.5018753,14.6639913 24.3608753,14.6839913 23.0238753,16.0199913 C21.6578753,17.3869913 21.6588753,19.6029913 23.0258753,20.9699913 C24.3608753,22.3049913 26.5018753,22.3259913 27.8748753,21.0509913"/>
      <path fill="#48515F" d="M27.9747501,20.9751253 C26.6077501,22.3421253 24.3927501,22.3411253 23.0257501,20.9751253 C21.6587501,19.6071253 21.6577501,17.3921253 23.0247501,16.0251253 C24.3917501,14.6571253 26.6077501,14.6591253 27.9757501,16.0261253 C29.3417501,17.3921253 29.3427501,19.6071253 27.9747501,20.9751253"/>
      <g stroke="#FFFFFF" transform="translate(23 16.25)" stroke-linecap="round" stroke-linejoin="round">
        <path d="M2.5225.7272L2.5235 3.8292M.9719 2.2778L4.0739 2.2778"/>
      </g>
    </g>
  </g>
</svg>
