<?xml version="1.0" encoding="UTF-8"?>
<svg width="13px" height="16px" viewBox="0 0 13 16" version="1.1" xmlns="http://www.w3.org/2000/svg" xmlns:xlink="http://www.w3.org/1999/xlink">
    <!-- Generator: Sketch 46.2 (44496) - http://www.bohemiancoding.com/sketch -->
    <title> copy 4</title>
    <desc>Created with Sketch.</desc>
    <defs></defs>
    <g id="Working" stroke="none" stroke-width="1" fill="none" fill-rule="evenodd">
        <g id="BS-Single-Address-DD-SignUp-Elec-Step-4b---Fortnightly-Success" transform="translate(-253.000000, -418.000000)" fill="#333333">
            <path d="M263.705529,429.076923 L265.163453,430.730769 L265.163453,431.538462 L253.567871,431.538462 L253.567871,430.730769 L255.025795,429.076923 L255.025795,425 C255.025795,423.717942 255.313987,422.602569 255.890378,421.653846 C256.46677,420.705123 257.263534,420.089745 258.280696,419.807692 L258.280696,419.230769 C258.280696,418.897434 258.38241,418.608976 258.585843,418.365385 C258.789275,418.121794 259.049212,418 259.365662,418 C259.682113,418 259.94205,418.121794 260.145482,418.365385 C260.348915,418.608976 260.450629,418.897434 260.450629,419.230769 L260.450629,419.807692 C261.467791,420.089745 262.264555,420.705123 262.840947,421.653846 C263.417338,422.602569 263.705529,423.717942 263.705529,425 L263.705529,429.076923 Z M259.365662,434 C258.958798,434 258.614098,433.839745 258.331554,433.519231 C258.049009,433.198716 257.907738,432.820515 257.907738,432.384615 L260.823587,432.384615 C260.823587,432.820515 260.676665,433.198716 260.382819,433.519231 C260.088972,433.839745 259.749923,434 259.365662,434 Z" id="-copy-4"></path>
        </g>
    </g>
</svg>