<?xml version="1.0" encoding="UTF-8"?>
<svg width="73px" height="56px" viewBox="0 0 73 56" version="1.1" xmlns="http://www.w3.org/2000/svg" xmlns:xlink="http://www.w3.org/1999/xlink">
    <!-- Generator: Sketch 45.2 (43514) - http://www.bohemiancoding.com/sketch -->
    <title>icon/smspay_large</title>
    <desc>Created with Sketch.</desc>
    <defs></defs>
    <g id="#5-UI-Kit" stroke="none" stroke-width="1" fill="none" fill-rule="evenodd">
        <g id="sms-pay-|-icons" transform="translate(-367.000000, -1041.000000)">
            <g id="icon/smspay_large" transform="translate(367.000000, 1041.000000)">
                <g>
                    <path d="M6.020311,12.2328179 L46.5224157,12.2328179 L46.5224157,8.10987369 L6.020311,8.10987369 L6.020311,12.2328179 Z M22.671632,19.9627006 L16.9668056,19.9627006 L16.9668056,15.8397564 L46.5224157,15.8397564 L53.0909091,15.8661093 L53.0909091,2.39555808 C53.0909091,1.07281558 52.1496761,0 50.9891702,0 L2.1017389,0 C0.941232963,0 0,1.07281558 0,2.39555808 L0,27.714268 C0,29.0370105 0.941232963,30.108976 2.1017389,30.108976 L7.13084656,30.108976 L14.928274,39.2835821 L14.928274,30.108976 L22.671632,30.108976 L22.671632,19.9627006 Z" id="Fill-3" fill="#FFFFFF"></path>
                    <g id="Group-2" transform="translate(19.909091, 17.552239)" fill="#001CB0">
                        <path d="M2.1017389,0 L50.9891702,0 C52.1496761,0 53.0909091,1.04834839 53.0909091,2.34380747 L53.0909091,27.5732267 C53.0909091,28.8678538 52.1496761,29.9178662 50.9891702,29.9178662 L45.9593167,29.9178662 L38.3131041,38.4477612 L38.3131041,29.9178662 L2.1017389,29.9178662 C0.941232963,29.9178662 0,28.8678538 0,27.5732267 L0,2.34380747 C0,1.04834839 0.941232963,0 2.1017389,0 Z M34.2098219,7.7801376 L23.2111553,18.3944785 L18.8268932,14.1820545 L16.8247266,16.1720819 L23.2117879,22.3088068 L36.2714747,9.76098528 L34.2098219,7.7801376 Z" id="Combined-Shape"></path>
                    </g>
                </g>
            </g>
        </g>
    </g>
</svg>