<?xml version="1.0" encoding="UTF-8" standalone="no"?>
<svg width="20px" height="20px" viewBox="0 0 20 20" version="1.1" xmlns="http://www.w3.org/2000/svg" xmlns:xlink="http://www.w3.org/1999/xlink">
    <!-- Generator: Sketch 42 (36781) - http://www.bohemiancoding.com/sketch -->
    <title>ico_inform copy 3</title>
    <desc>Created with Sketch.</desc>
    <defs></defs>
    <g id="Smart-meter-V2" stroke="none" stroke-width="1" fill="none" fill-rule="evenodd">
        <g id="beyond-3-months" transform="translate(-1014.000000, -522.000000)" fill="#FFE344">
            <path d="M1024.98592,528.995305 L1024.98592,526.976526 L1023.01408,526.976526 L1023.01408,528.995305 L1024.98592,528.995305 Z M1024.98592,537.023474 L1024.98592,531.014085 L1023.01408,531.014085 L1023.01408,537.023474 L1024.98592,537.023474 Z M1024,522 C1026.75432,522 1029.10954,522.978081 1031.06573,524.934272 C1033.02192,526.890464 1034,529.245683 1034,532 C1034,534.754317 1033.02192,537.109536 1031.06573,539.065728 C1029.10954,541.021919 1026.75432,542 1024,542 C1021.24568,542 1018.89046,541.021919 1016.93427,539.065728 C1014.97808,537.109536 1014,534.754317 1014,532 C1014,529.245683 1014.97808,526.890464 1016.93427,524.934272 C1018.89046,522.978081 1021.24568,522 1024,522 Z" id="ico_inform-copy-3"></path>
        </g>
    </g>
</svg>