<?xml version="1.0" encoding="UTF-8"?>
<svg width="85px" height="40px" viewBox="0 0 85 40" version="1.1" xmlns="http://www.w3.org/2000/svg" xmlns:xlink="http://www.w3.org/1999/xlink">
    <!-- Generator: Sketch 42 (36781) - http://www.bohemiancoding.com/sketch -->
    <title>logo/secondary</title>
    <desc>Created with Sketch.</desc>
    <defs>
        <linearGradient x1="95.0140718%" y1="97.5717056%" x2="5.09712469%" y2="2.58547379%" id="linearGradient-1">
            <stop stop-color="#4CE9F2" offset="0%"></stop>
            <stop stop-color="#00DFED" offset="60%"></stop>
            <stop stop-color="#00D6EA" offset="64.13%"></stop>
            <stop stop-color="#00BEE3" offset="70.88%"></stop>
            <stop stop-color="#0096D6" offset="79.41%"></stop>
            <stop stop-color="#005FC5" offset="89.37%"></stop>
            <stop stop-color="#001CB0" offset="100%"></stop>
        </linearGradient>
        <linearGradient x1="99.7724071%" y1="72.9032531%" x2="0.101499225%" y2="27.8034261%" id="linearGradient-2">
            <stop stop-color="#4CE9F2" offset="0%"></stop>
            <stop stop-color="#00DFED" offset="60%"></stop>
            <stop stop-color="#00D6EA" offset="64.13%"></stop>
            <stop stop-color="#00BEE3" offset="70.88%"></stop>
            <stop stop-color="#0096D6" offset="79.41%"></stop>
            <stop stop-color="#005FC5" offset="89.37%"></stop>
            <stop stop-color="#001CB0" offset="100%"></stop>
        </linearGradient>
        <linearGradient x1="70.8326353%" y1="99.9999926%" x2="29.8816722%" y2="0.127890779%" id="linearGradient-3">
            <stop stop-color="#4CE9F2" offset="0%"></stop>
            <stop stop-color="#00DFED" offset="60%"></stop>
            <stop stop-color="#00D6EA" offset="64.13%"></stop>
            <stop stop-color="#00BEE3" offset="70.88%"></stop>
            <stop stop-color="#0096D6" offset="79.41%"></stop>
            <stop stop-color="#005FC5" offset="89.37%"></stop>
            <stop stop-color="#001CB0" offset="100%"></stop>
        </linearGradient>
        <linearGradient x1="15.1155821%" y1="99.359224%" x2="85.007076%" y2="0.782755383%" id="linearGradient-4">
            <stop stop-color="#4CE9F2" offset="0%"></stop>
            <stop stop-color="#00DFED" offset="60%"></stop>
            <stop stop-color="#00D6EA" offset="64.13%"></stop>
            <stop stop-color="#00BEE3" offset="70.88%"></stop>
            <stop stop-color="#0096D6" offset="79.41%"></stop>
            <stop stop-color="#005FC5" offset="89.37%"></stop>
            <stop stop-color="#001CB0" offset="100%"></stop>
        </linearGradient>
        <linearGradient x1="6.94898268%" y1="94.9564358%" x2="93.1165832%" y2="5.24925274%" id="linearGradient-5">
            <stop stop-color="#4CE9F2" offset="0%"></stop>
            <stop stop-color="#00DFED" offset="60%"></stop>
            <stop stop-color="#00D6EA" offset="64.13%"></stop>
            <stop stop-color="#00BEE3" offset="70.88%"></stop>
            <stop stop-color="#0096D6" offset="79.41%"></stop>
            <stop stop-color="#005FC5" offset="89.37%"></stop>
            <stop stop-color="#001CB0" offset="100%"></stop>
        </linearGradient>
    </defs>
    <g id="Page-1" stroke="none" stroke-width="1" fill="none" fill-rule="evenodd">
        <g id="agl/logos" transform="translate(-348.000000, -360.000000)">
            <g id="logo/secondary" transform="translate(348.000000, 360.000000)">
                <g id="agl" transform="translate(41.967213, 3.278689)" fill="#000000">
                    <path d="M8.47737705,7.97377049 C7.10229508,7.97377049 5.8295082,8.14491803 4.69442623,8.48262295 C3.56196721,8.82032787 2.61704918,9.2104918 1.88655738,9.64262295 L1.80655738,9.68983607 L2.32196721,11.2832787 L2.4452459,11.215082 C3.21377049,10.7914754 4.09442623,10.4419672 5.06032787,10.1770492 C6.02819672,9.91213115 7.17770492,9.77770492 8.47737705,9.77770492 C10.1331148,9.77770492 11.4170492,10.1613115 12.2918033,10.9186885 C13.1613115,11.6721311 13.602623,13.012459 13.602623,14.9029508 L13.602623,16.157377 L8.96131148,16.157377 C6.12721311,16.157377 3.94754098,16.6937705 2.48262295,17.7514754 C1.00590164,18.8177049 0.25704918,20.4367213 0.25704918,22.562623 C0.25704918,23.4891803 0.416393443,24.3186885 0.730491803,25.0288525 C1.04459016,25.7396721 1.48852459,26.3495082 2.0504918,26.8432787 C2.60983607,27.335082 3.28196721,27.7095082 4.04655738,27.9547541 C4.80655738,28.1993443 5.63278689,28.3232787 6.50098361,28.3232787 C8.18098361,28.3232787 9.65245902,27.9514754 10.8747541,27.2183607 C12.002623,26.5416393 12.9337705,25.5986885 13.6459016,24.412459 L14.0990164,28.0006557 L15.6478689,28.0006557 L15.6478689,14.9036066 C15.6478689,12.7862295 15.0472131,11.0839344 13.8616393,9.84393443 C12.6760656,8.60327869 10.8642623,7.97377049 8.47737705,7.97377049 Z M13.6019672,17.9632787 L13.6019672,20.0242623 C13.6019672,20.8118033 13.4419672,21.597377 13.1272131,22.3586885 C12.8111475,23.1219672 12.3514754,23.8222951 11.7593443,24.4393443 C11.1678689,25.0577049 10.427541,25.5639344 9.55934426,25.944918 C8.69245902,26.3265574 7.67737705,26.52 6.54229508,26.52 C5.96459016,26.52 5.40590164,26.4406557 4.88262295,26.2832787 C4.36196721,26.1272131 3.90163934,25.8839344 3.51278689,25.5593443 C3.12459016,25.2367213 2.81639344,24.8229508 2.59672131,24.3311475 C2.37639344,23.8386885 2.2642623,23.2439344 2.2642623,22.5645902 C2.2642623,20.972459 2.78360656,19.7967213 3.80786885,19.0714754 C4.8452459,18.3363934 6.57901639,17.9639344 8.96196721,17.9639344 L13.6019672,17.9639344 L13.6019672,17.9632787 Z" id="Shape" fill-rule="nonzero"></path>
                    <path d="M33.642623,11.8898361 C33.4006557,11.4983607 33.1101639,11.104918 32.775082,10.7154098 C32.3527869,10.2255738 31.8432787,9.77114754 31.2616393,9.3652459 C30.6786885,8.95868852 30.0111475,8.62163934 29.2780328,8.36327869 C28.5422951,8.10491803 27.7154098,7.97377049 26.8203279,7.97377049 C25.7068852,7.97377049 24.6459016,8.20131148 23.667541,8.64983607 C22.6891803,9.09836066 21.8144262,9.76655738 21.067541,10.6347541 C20.3219672,11.5022951 19.7245902,12.5731148 19.2918033,13.8170492 C18.8596721,15.0596721 18.64,16.4970492 18.64,18.0885246 C18.64,19.895082 18.852459,21.4603279 19.2708197,22.7409836 C19.6904918,24.027541 20.2819672,25.0996721 21.0288525,25.9272131 C21.7763934,26.757377 22.6734426,27.3711475 23.695082,27.7521311 C24.7121311,28.1311475 25.8314754,28.3239344 27.0216393,28.3239344 C28.5704918,28.3239344 29.9285246,27.9377049 31.0577049,27.175082 C32.0701639,26.4918033 32.9232787,25.5888525 33.5980328,24.4859016 L33.5980328,26.9580328 C33.5980328,28.2813115 33.4439344,29.4222951 33.1403279,30.3488525 C32.8380328,31.2681967 32.4131148,32.0196721 31.8767213,32.5829508 C31.3416393,33.1436066 30.6865574,33.5540984 29.9285246,33.802623 C29.1632787,34.0531148 28.2937705,34.1803279 27.3442623,34.1803279 C26.0977049,34.1803279 24.935082,34.0327869 23.8878689,33.7409836 C22.8367213,33.4478689 21.9291803,33.0983607 21.1901639,32.7022951 L21.067541,32.6367213 L20.5108197,34.3534426 L20.5960656,34.3993443 C21.3501639,34.8039344 22.3134426,35.1862295 23.4590164,35.5370492 C24.6085246,35.8878689 25.8885246,36.0662295 27.2629508,36.0662295 C29.8891803,36.0662295 31.9718033,35.3088525 33.4537705,33.8144262 C34.9337705,32.32 35.6845902,30.0268852 35.6845902,26.9993443 L35.6845902,8.29639344 L34.095082,8.29639344 L33.642623,11.8898361 Z M33.5986885,14.2904918 L33.5986885,19.3390164 C33.5986885,20.2104918 33.4583607,21.08 33.1816393,21.9232787 C32.9055738,22.7652459 32.4918033,23.5331148 31.9514754,24.2052459 C31.4131148,24.8747541 30.7337705,25.4209836 29.9331148,25.827541 C29.1344262,26.2334426 28.1954098,26.44 27.1436066,26.44 C26.3272131,26.44 25.52,26.2931148 24.744918,26.0039344 C23.9731148,25.7167213 23.2832787,25.2386885 22.6944262,24.5836066 C22.1029508,23.9272131 21.6229508,23.0590164 21.2668852,22.0032787 C20.9101639,20.9462295 20.7285246,19.6288525 20.7285246,18.0891803 C20.7285246,16.6832787 20.9029508,15.4472131 21.2465574,14.4170492 C21.5888525,13.3881967 22.0563934,12.5265574 22.6354098,11.8557377 C23.2111475,11.1881967 23.882623,10.682623 24.6301639,10.3540984 C25.3790164,10.0262295 26.1842623,9.85967213 27.0229508,9.85967213 C28.3888525,9.85967213 29.6406557,10.2655738 30.7442623,11.0668852 C31.8478689,11.8688525 32.8085246,12.9534426 33.5986885,14.2904918 Z" id="Shape" fill-rule="nonzero"></path>
                    <rect id="Rectangle-path" fill-rule="nonzero" x="40.5737705" y="0.595409836" width="2.08655738" height="27.4065574"></rect>
                </g>
                <g id="hand">
                    <path d="M3.87344262,7.96459016 C4.61836066,7.36655738 5.71737705,7.48721311 6.31540984,8.23278689 L15.6983607,19.9272131 C16.2963934,20.6721311 16.1757377,21.7711475 15.4301639,22.3691803 L15.4301639,22.3691803 C14.6852459,22.9672131 13.5862295,22.8465574 12.9881967,22.1009836 L3.60590164,10.4065574 C3.00786885,9.66098361 3.12852459,8.56262295 3.87344262,7.96459016 L3.87344262,7.96459016 Z" id="Shape" fill="url(#linearGradient-1)" fill-rule="nonzero"></path>
                    <path d="M0.0236065574,27.4459016 C0.180983607,26.5036066 1.08065574,25.8609836 2.02295082,26.0183607 L12.882623,27.8301639 C13.824918,27.987541 14.467541,28.8872131 14.3101639,29.8295082 L14.3101639,29.8295082 C14.1527869,30.7718033 13.2531148,31.4144262 12.3108197,31.2570492 L1.45114754,29.4452459 C0.508852459,29.2878689 -0.133770492,28.3881967 0.0236065574,27.4459016 L0.0236065574,27.4459016 Z" id="Shape" fill="url(#linearGradient-2)" fill-rule="nonzero"></path>
                    <path d="M17.6918033,0.0118032787 C18.6406557,-0.0983606557 19.507541,0.587540984 19.6177049,1.53704918 L21.347541,16.4301639 C21.4577049,17.3790164 20.7718033,18.2459016 19.8222951,18.3560656 L19.8222951,18.3560656 C18.8734426,18.4662295 18.0065574,17.7803279 17.8963934,16.8308197 L16.1665574,1.93770492 C16.0563934,0.988852459 16.7422951,0.121967213 17.6918033,0.0118032787 L17.6918033,0.0118032787 Z" id="Shape" fill="url(#linearGradient-3)" fill-rule="nonzero"></path>
                    <path d="M30.2898361,3.97901639 C31.187541,4.30622951 31.6537705,5.30885246 31.3259016,6.20655738 L27.2177049,17.4642623 C26.8904918,18.3619672 25.8878689,18.8281967 24.9901639,18.5003279 L24.9901639,18.5003279 C24.092459,18.1731148 23.6262295,17.1704918 23.9540984,16.2727869 L28.0622951,5.01508197 C28.3901639,4.11803279 29.3927869,3.65180328 30.2898361,3.97901639 L30.2898361,3.97901639 Z" id="Shape" fill="url(#linearGradient-4)" fill-rule="nonzero"></path>
                    <path d="M37.1462295,13.0754098 C37.8537705,13.717377 37.9081967,14.8209836 37.2668852,15.5291803 L32.5219672,20.7639344 C31.88,21.4714754 30.7763934,21.5259016 30.0681967,20.8845902 L30.0681967,20.8845902 C29.3606557,20.242623 29.3062295,19.1390164 29.947541,18.4308197 L34.692459,13.1960656 C35.3337705,12.4878689 36.4380328,12.4340984 37.1462295,13.0754098 L37.1462295,13.0754098 Z" id="Shape" fill="url(#linearGradient-5)" fill-rule="nonzero"></path>
                </g>
            </g>
        </g>
    </g>
</svg>