<?xml version="1.0" encoding="UTF-8" standalone="no"?>
<svg width="20px" height="20px" viewBox="0 0 20 20" version="1.1" xmlns="http://www.w3.org/2000/svg" xmlns:xlink="http://www.w3.org/1999/xlink">
    <!-- Generator: Sketch 3.8.3 (29802) - http://www.bohemiancoding.com/sketch -->
    <title>Group 12 Copy</title>
    <desc>Created with Sketch.</desc>
    <defs></defs>
    <g id="Page-1" stroke="none" stroke-width="1" fill="none" fill-rule="evenodd">
        <g id="Group-12-Copy" transform="translate(0.132812, 0.000000)" fill="#0057BF">
            <g id="Group-11" transform="translate(0.710565, 0.412946)">
                <g id="ic_info_outline_black_24px-(1)">
                    <g id="Group">
                        <path d="M8.57142857,14.2857143 L10.4761905,14.2857143 L10.4761905,8.57142857 L8.57142857,8.57142857 L8.57142857,14.2857143 L8.57142857,14.2857143 Z M9.52380952,0 C4.26666667,0 0,4.26666667 0,9.52380952 C0,14.7809524 4.26666667,19.047619 9.52380952,19.047619 C14.7809524,19.047619 19.047619,14.7809524 19.047619,9.52380952 C19.047619,4.26666667 14.7809524,0 9.52380952,0 L9.52380952,0 Z M9.52380952,17.1428571 C5.32380952,17.1428571 1.9047619,13.7238095 1.9047619,9.52380952 C1.9047619,5.32380952 5.32380952,1.9047619 9.52380952,1.9047619 C13.7238095,1.9047619 17.1428571,5.32380952 17.1428571,9.52380952 C17.1428571,13.7238095 13.7238095,17.1428571 9.52380952,17.1428571 L9.52380952,17.1428571 Z M8.57142857,6.66666667 L10.4761905,6.66666667 L10.4761905,4.76190476 L8.57142857,4.76190476 L8.57142857,6.66666667 L8.57142857,6.66666667 Z" id="Shape"></path>
                    </g>
                </g>
            </g>
        </g>
    </g>
</svg>