<svg xmlns="http://www.w3.org/2000/svg" width="18" height="18" viewBox="0 0 18 18" xmlns:xlink="http://www.w3.org/1999/xlink">
  <defs>
    <rect id="a" width="18" height="18"/>
    <mask id="b" width="18" height="18" x="0" y="0" fill="white">
      <use xlink:href="#a"/>
    </mask>
  </defs>
  <g fill="none" fill-rule="evenodd">
    <use stroke="#FFFFFF" stroke-width="2" mask="url(#b)" opacity=".01" xlink:href="#a"/>
    <path fill="#666666" d="M4.94574782,4.71432115 L0.181109851,4.71432115 C0.0811372134,4.71432115 0,4.79672426 0,4.89825667 L0,16.2489174 C0,16.3508177 0.0811372134,16.432853 0.181109851,16.432853 L4.94574782,16.432853 C5.04572046,16.432853 5.12685767,16.3508177 5.12685767,16.2489174 L5.12685767,4.89825667 C5.12685767,4.79672426 5.04572046,4.71432115 4.94574782,4.71432115 Z M17.7084655,1 L12.9438276,1 C12.8438549,1 12.7627177,1.08242813 12.7627177,1.18399135 L12.7627177,11.8021322 C12.7627177,11.9040634 12.8438549,11.9861236 12.9438276,11.9861236 L17.7084655,11.9861236 C17.8084382,11.9861236 17.8895754,11.9040634 17.8895754,11.8021322 L17.8895754,1.18399135 C17.8895754,1.08242813 17.8084382,1 17.7084655,1 Z M11.3271067,4.66204119 L6.56246871,4.66204119 C6.46249607,4.66204119 6.38135886,4.7444443 6.38135886,4.84597671 L6.38135886,16.1966375 C6.38135886,16.2985378 6.46249607,16.380573 6.56246871,16.380573 L11.3271067,16.380573 C11.4270793,16.380573 11.5082165,16.2985378 11.5082165,16.1966375 L11.5082165,4.84597671 C11.5082165,4.7444443 11.4270793,4.66204119 11.3271067,4.66204119 Z M15.3549827,13.5046799 C15.283648,13.4330268 15.1676311,13.4330268 15.0962964,13.5046799 L12.5047301,16.1062409 C12.4522089,16.1587865 12.436531,16.2377887 12.4651433,16.3065023 C12.4933636,16.3752158 12.5599949,16.420045 12.6340732,16.420045 L17.8172058,16.420045 C17.8908922,16.420045 17.9579154,16.3752158 17.9861358,16.3065023 C18.0143561,16.2377887 17.9986781,16.1587865 17.9465489,16.1062409 L15.3549827,13.5046799 Z"/>
  </g>
</svg>
