<svg xmlns="http://www.w3.org/2000/svg" width="20" height="20" viewBox="0 0 20 20">
  <path fill="#FFFFFF" fill-rule="evenodd" d="M96,115 C90.4771525,115 86,119.477153 86,125 C86,130.522847 90.4771525,135 96,135 C101.522847,135 106,130.522847 106,125 C106,119.477153 101.522847,115 96,115 L96,115 Z M96,118 C97.2208696,118.000471 98.3196801,118.740744 98.7787142,119.872031 C99.2377483,121.003318 98.9654349,122.299943 98.0900776,123.150985 C97.2147202,124.002026 95.9109411,124.237714 94.7930307,123.747001 C93.6751203,123.256288 92.966087,122.137065 93,120.916667 C93.0451346,119.292445 94.3751513,117.999373 96,118 L96,118 Z M96,132.2 C93.5873889,132.200752 91.3347547,130.99309 90,128.983333 C90.0333333,126.983333 94,125.916667 96,125.916667 C98,125.916667 101.966667,127 102,129 C100.66142,131.003412 98.4094472,132.204464 96,132.2 L96,132.2 Z" transform="translate(-86 -115)"/>
</svg>
