<?xml version="1.0" encoding="UTF-8"?>
<svg width="14px" height="17px" viewBox="0 0 14 17" version="1.1" xmlns="http://www.w3.org/2000/svg" xmlns:xlink="http://www.w3.org/1999/xlink">
    <!-- Generator: Sketch 46.2 (44496) - http://www.bohemiancoding.com/sketch -->
    <title>event copy 4</title>
    <desc>Created with Sketch.</desc>
    <defs></defs>
    <g id="Working" stroke="none" stroke-width="1" fill="none" fill-rule="evenodd">
        <g id="BS-Single-Address-DD-SignUp-Elec-Step-4b---Fortnightly-Success" transform="translate(-253.000000, -362.000000)" fill="#333333">
            <path d="M265.449162,377.288056 L265.449162,367.971897 L255.066099,367.971897 L255.066099,377.288056 L265.449162,377.288056 Z M263.219242,362 L264.71747,362 L264.71747,363.711944 L265.449162,363.711944 C265.844046,363.711944 266.192467,363.884464 266.494437,364.229508 C266.796407,364.574553 266.947389,364.972675 266.947389,365.423888 L266.947389,377.288056 C266.947389,377.739268 266.796407,378.137391 266.494437,378.482436 C266.192467,378.82748 265.844046,379 265.449162,379 L255.066099,379 C254.647987,379 254.293758,378.82748 254.003403,378.482436 C253.713047,378.137391 253.567871,377.739268 253.567871,377.288056 L253.567871,365.423888 C253.567871,364.972675 253.713047,364.574553 254.003403,364.229508 C254.293758,363.884464 254.647987,363.711944 255.066099,363.711944 L255.797791,363.711944 L255.797791,362 L257.296018,362 L257.296018,363.711944 L263.219242,363.711944 L263.219242,362 Z M263.985777,371.355972 L263.985777,375.615925 L260.25763,375.615925 L260.25763,371.355972 L263.985777,371.355972 Z" id="event-copy-4"></path>
        </g>
    </g>
</svg>