<?xml version="1.0" encoding="UTF-8"?>
<svg width="16px" height="25px" viewBox="0 0 16 25" version="1.1" xmlns="http://www.w3.org/2000/svg" xmlns:xlink="http://www.w3.org/1999/xlink">
    <defs></defs>
    <g id="#5-UI-Kit" stroke="none" stroke-width="1" fill="none" fill-rule="evenodd">
        <g id="sms-pay-|-icons" transform="translate(-108.000000, -907.000000)">
            <g id="icon/phone_large" transform="translate(103.000000, 907.000000)">
                <path d="M18.1895455,24.722642 L6.90573864,24.722642 C5.86397727,24.722642 5.019375,23.8780398 5.019375,22.8359943 L5.019375,2.17747159 C5.019375,1.13542614 5.86397727,0.290823864 6.90573864,0.290823864 L18.1895455,0.290823864 C19.2313068,0.290823864 20.0761932,1.13542614 20.0761932,2.17747159 L20.0761932,22.8359943 C20.0761932,23.8780398 19.2313068,24.722642 18.1895455,24.722642" id="Fill-1" fill="#001CB0"></path>
                <path d="M17.2837216,20.4684943 L7.87605114,20.4684943 C7.19025568,20.4684943 6.63457386,19.9128125 6.63457386,19.227017 L6.63457386,3.71053977 C6.63457386,3.02474432 7.19025568,2.4690625 7.87605114,2.4690625 L17.2837216,2.4690625 C17.969517,2.4690625 18.525483,3.02474432 18.525483,3.71053977 L18.525483,19.227017 C18.525483,19.9128125 17.969517,20.4684943 17.2837216,20.4684943" id="Fill-3" fill="#00E3F2"></path>
                <path d="M13.5765341,23.1418466 L11.6134659,23.1418466 C11.3521023,23.1418466 11.1401705,22.9299148 11.1401705,22.668267 L11.1401705,22.2051989 C11.1401705,21.9435511 11.3521023,21.7316193 11.6134659,21.7316193 L13.5765341,21.7316193 C13.8378977,21.7316193 14.0501136,21.9435511 14.0501136,22.2051989 L14.0501136,22.668267 C14.0501136,22.9299148 13.8378977,23.1418466 13.5765341,23.1418466" id="Fill-5" fill="#FFFFFF"></path>
            </g>
        </g>
    </g>
</svg>