<?xml version="1.0" encoding="UTF-8" standalone="no"?>
<svg width="75px" height="80px" viewBox="0 0 75 80" version="1.1" xmlns="http://www.w3.org/2000/svg" xmlns:xlink="http://www.w3.org/1999/xlink">
    <!-- Generator: Sketch 42 (36781) - http://www.bohemiancoding.com/sketch -->
    <title>heater</title>
    <desc>Created with Sketch.</desc>
    <defs>
        <rect id="path-1" x="0" y="0" width="75" height="80"></rect>
    </defs>
    <g id="Version-06" stroke="none" stroke-width="1" fill="none" fill-rule="evenodd">
        <g id="tips-icons_all-sizes" transform="translate(-439.000000, -845.000000)">
            <g id="heater" transform="translate(439.000000, 845.000000)">
                <mask id="mask-2" fill="white">
                    <use xlink:href="#path-1"></use>
                </mask>
                <use id="Mask" fill="#FFFFFF" xlink:href="#path-1"></use>
                <g mask="url(#mask-2)">
                    <g transform="translate(10.000000, 7.000000)">
                        <path d="M32.5048271,36.8529593 L32.7476743,36.8306551 C32.7481232,36.8247377 32.7503676,36.7737567 32.7503676,36.7678393 C32.7503676,36.5689224 32.73735,36.3768333 32.7113146,36.1933927 C32.520987,34.0490046 31.6806726,32.2423657 31.6447618,32.1663494 C31.5985265,32.0684841 31.4961805,32.0102201 31.387999,32.0307035 C31.282062,32.0484558 31.1999159,32.1349414 31.1877959,32.243276 C31.1541295,32.5277682 30.9687396,33.323891 30.5162627,33.5897205 C30.2967575,33.7180834 30.0346081,33.7126211 29.7132059,33.5737889 C28.4509388,33.0271088 27.5661848,28.8539503 27.9867908,27.4874776 C28.0393105,27.3154167 28.0994612,27.1201413 27.9010536,27.0254623 C27.7699789,26.964012 27.6541664,27.0140826 27.5522693,27.1724879 L27.5042385,27.2453178 C26.9314601,28.0614689 26.1930429,28.9946032 25.4110837,29.98236 C24.6066802,30.9987935 23.7748947,32.0493662 23.0863038,33.0243777 C22.0076311,34.5528971 22,36.5616394 22,36.645849 C22.0017955,36.7127616 22,36.7387073 22,36.7678393 C22,39.7729868 24.410966,42.2177986 27.3749594,42.2177986 C30.2217936,42.2177986 32.5613867,39.977366 32.7337589,37.102402 C32.7440832,37.0746356 32.7503676,37.0441381 32.7503676,37.0127301 L32.7463277,36.8488626 L32.5048271,36.8529593 Z" id="Gas-disabled-icon" fill="#50E3C2"></path>
                        <g id="Household_heater" stroke-width="1" fill="none" stroke-linecap="round">
                            <g id="heater" stroke="#50E3C2">
                                <path d="M55,46.7135051 C55,48.9898991 53.1531725,50.8352849 50.875,50.8352849 L4.125,50.8352849 C1.84682547,50.8352849 0,48.9898991 0,46.7135051 L0,4.12177986 C0,1.84538377 1.84682547,0 4.125,0 L50.875,0 C53.1531725,0 55,1.84538377 55,4.12177986 L55,46.7135051 Z" id="Shape" stroke-width="4"></path>
                                <path d="M8,13.7392662 L8,17.8610461" id="Shape" stroke-width="2"></path>
                                <path d="M13,13.7392662 L13,17.8610461" id="Shape" stroke-width="2"></path>
                                <path d="M19,13.7392662 L19,17.8610461" id="Shape" stroke-width="2"></path>
                                <path d="M24,13.7392662 L24,17.8610461" id="Shape" stroke-width="2"></path>
                                <path d="M30,13.7392662 L30,17.8610461" id="Shape" stroke-width="2"></path>
                                <path d="M35,13.7392662 L35,17.8610461" id="Shape" stroke-width="2"></path>
                                <path d="M41,13.7392662 L41,17.8610461" id="Shape" stroke-width="2"></path>
                                <path d="M46,13.7392662 L46,17.8610461" id="Shape" stroke-width="2"></path>
                                <path d="M19.25,7 L35.75,7" id="Shape" stroke-width="2"></path>
                                <path d="M46.75,43.9656518 L8.25,43.9656518 C6.73121708,43.9656518 5.5,42.5303518 5.5,40.7598231 L5.5,27.9365079 C5.5,26.1659761 6.73121707,24.7306792 8.25,24.7306792 L46.75,24.7306792 C48.2687817,24.7306792 49.5,26.1659761 49.5,27.9365079 L49.5,40.7598231 C49.5,42.5303518 48.2687817,43.9656518 46.75,43.9656518 Z" id="Shape" stroke-width="2"></path>
                                <path d="M11,52.2092116 L11,56.3309914 C11,57.0897894 10.3843922,57.704918 9.625,57.704918 L6.875,57.704918 C6.11560785,57.704918 5.5,57.0897894 5.5,56.3309914 L5.5,52.2092116" id="Shape" stroke-width="4"></path>
                                <path d="M49.5,52.2092116 L49.5,56.3309914 C49.5,57.0897894 48.8843908,57.704918 48.125,57.704918 L45.375,57.704918 C44.6156092,57.704918 44,57.0897894 44,56.3309914 L44,52.2092116" id="Shape" stroke-width="4"></path>
                            </g>
                        </g>
                    </g>
                </g>
            </g>
        </g>
    </g>
</svg>