<?xml version="1.0" encoding="UTF-8" standalone="no"?>
<svg width="75px" height="80px" viewBox="0 0 75 80" version="1.1" xmlns="http://www.w3.org/2000/svg" xmlns:xlink="http://www.w3.org/1999/xlink">
    <!-- Generator: Sketch 42 (36781) - http://www.bohemiancoding.com/sketch -->
    <title>old appliance</title>
    <desc>Created with Sketch.</desc>
    <defs>
        <rect id="path-1" x="0" y="0" width="75" height="80"></rect>
        <rect id="path-3" x="0" y="0" width="42.5775243" height="69.7698014" rx="3"></rect>
    </defs>
    <g id="Version-06" stroke="none" stroke-width="1" fill="none" fill-rule="evenodd">
        <g id="tips-icons_all-sizes" transform="translate(-439.000000, -2806.000000)">
            <g id="old-appliance" transform="translate(439.000000, 2806.000000)">
                <mask id="mask-2" fill="white">
                    <use xlink:href="#path-1"></use>
                </mask>
                <use id="Mask" fill="#FFFFFF" xlink:href="#path-1"></use>
                <g mask="url(#mask-2)">
                    <g transform="translate(2.000000, 5.000000)">
                        <g id="air-conditioner" transform="translate(25.687395, 0.000000)" stroke-linecap="round">
                            <g id="air-conditioners" stroke="#50E3C2">
                                <path d="M40.090107,18.695985 L2.93342246,18.695985 C1.31333802,18.695985 0,17.374331 0,15.7439873 L0,2.95199763 C0,1.32165401 1.31333802,0 2.93342246,0 L40.090107,0 C41.7101899,0 43.0235294,1.32165401 43.0235294,2.95199763 L43.0235294,15.7439873 C43.0235294,17.374331 41.7101899,18.695985 40.090107,18.695985 Z" id="Shape" stroke-width="4"></path>
                                <path d="M0.977807487,14 L43.0235294,14" id="Shape" stroke-width="2"></path>
                                <path d="M10.5057456,14.7599881 L10.5057456,18.695985" id="Shape" stroke-width="2"></path>
                                <path d="M18.5101231,14.7599881 L18.5101231,18.695985" id="Shape" stroke-width="2"></path>
                                <path d="M25.0136799,14.7599881 L25.0136799,18.695985" id="Shape" stroke-width="2"></path>
                                <path d="M33.0180575,14.7599881 L33.0180575,18.695985" id="Shape" stroke-width="2"></path>
                                <path d="M34.223262,10.4959916 L39.1122995,10.4959916" id="Shape" stroke-width="2"></path>
                                <path d="M3.91122995,24.5999802 L0.977807487,27.5519778" id="Shape" stroke-width="4"></path>
                                <path d="M15.6449198,24.5999802 L14.6671123,27.5519778" id="Shape" stroke-width="4"></path>
                                <path d="M27.3786096,24.5999802 L28.3564171,27.5519778" id="Shape" stroke-width="4"></path>
                                <path d="M39.1122995,24.5999802 L42.0457219,27.5519778" id="Shape" stroke-width="4"></path>
                            </g>
                        </g>
                        <g id="fridge" transform="translate(0.000000, 4.335052)">
                            <mask id="mask-4" fill="white">
                                <use xlink:href="#path-3"></use>
                            </mask>
                            <use id="Mask" fill="#FFFFFF" xlink:href="#path-3"></use>
                            <g mask="url(#mask-4)" id="refrigerator">
                                <g transform="translate(3.960700, 2.948020)">
                                    <g>
                                        <path d="M31.768114,60.1887371 L2.88801037,60.1887371 C1.29300643,60.1887371 0,58.9055254 0,57.3226068 L0,2.86613034 C0,1.2832104 1.29300643,0 2.88801037,0 L31.768114,0 C33.3631167,0 34.6561244,1.2832104 34.6561244,2.86613034 L34.6561244,57.3226068 C34.6561244,58.9055254 33.3631167,60.1887371 31.768114,60.1887371 Z" id="Shape" stroke="#50E3C2" stroke-width="4"></path>
                                        <path d="M0,22.9290427 L34.6561244,22.9290427" id="Shape" stroke="#50E3C2" stroke-width="4"></path>
                                        <path d="M28.8801037,12.8975865 L28.8801037,17.196782" id="Shape" stroke="#50E3C2" stroke-width="2" stroke-linecap="round"></path>
                                        <path d="M28.8801037,28.6613034 L28.8801037,35.8266292" id="Shape" stroke="#50E3C2" stroke-width="2" stroke-linecap="round"></path>
                                        <path d="M4.33201555,61.1714104 L4.33201555,64.0375407" id="Shape" stroke="#50E3C2" stroke-width="2" stroke-linecap="round"></path>
                                        <path d="M30.3241089,61.1714104 L30.3241089,64.0375407" id="Shape" stroke="#50E3C2" stroke-width="2" stroke-linecap="round"></path>
                                    </g>
                                </g>
                            </g>
                        </g>
                    </g>
                </g>
            </g>
        </g>
    </g>
</svg>