<?xml version="1.0" encoding="UTF-8"?>
<svg width="53px" height="50px" viewBox="0 0 53 50" version="1.1" xmlns="http://www.w3.org/2000/svg" xmlns:xlink="http://www.w3.org/1999/xlink">
    <!-- Generator: Sketch 42 (36781) - http://www.bohemiancoding.com/sketch -->
    <title>logo/primary</title>
    <desc>Created with Sketch.</desc>
    <defs>
        <linearGradient x1="94.9086309%" y1="97.4610359%" x2="4.99148943%" y2="2.47512166%" id="linearGradient-1">
            <stop stop-color="#4CE9F2" offset="0%"></stop>
            <stop stop-color="#00DFED" offset="60%"></stop>
            <stop stop-color="#00D6EA" offset="64.13%"></stop>
            <stop stop-color="#00BEE3" offset="70.88%"></stop>
            <stop stop-color="#0096D6" offset="79.41%"></stop>
            <stop stop-color="#005FC5" offset="89.37%"></stop>
            <stop stop-color="#001CB0" offset="100%"></stop>
        </linearGradient>
        <linearGradient x1="99.8932828%" y1="72.1567389%" x2="0.224258032%" y2="27.0579136%" id="linearGradient-2">
            <stop stop-color="#4CE9F2" offset="0%"></stop>
            <stop stop-color="#00DFED" offset="60%"></stop>
            <stop stop-color="#00D6EA" offset="64.13%"></stop>
            <stop stop-color="#00BEE3" offset="70.88%"></stop>
            <stop stop-color="#0096D6" offset="79.41%"></stop>
            <stop stop-color="#005FC5" offset="89.37%"></stop>
            <stop stop-color="#001CB0" offset="100%"></stop>
        </linearGradient>
        <linearGradient x1="70.3603153%" y1="99.9994001%" x2="29.4079587%" y2="0.129270964%" id="linearGradient-3">
            <stop stop-color="#4CE9F2" offset="0%"></stop>
            <stop stop-color="#00DFED" offset="60%"></stop>
            <stop stop-color="#00D6EA" offset="64.13%"></stop>
            <stop stop-color="#00BEE3" offset="70.88%"></stop>
            <stop stop-color="#0096D6" offset="79.41%"></stop>
            <stop stop-color="#005FC5" offset="89.37%"></stop>
            <stop stop-color="#001CB0" offset="100%"></stop>
        </linearGradient>
        <linearGradient x1="14.9734435%" y1="99.324586%" x2="84.8648879%" y2="0.747518972%" id="linearGradient-4">
            <stop stop-color="#4CE9F2" offset="0%"></stop>
            <stop stop-color="#00DFED" offset="60%"></stop>
            <stop stop-color="#00D6EA" offset="64.13%"></stop>
            <stop stop-color="#00BEE3" offset="70.88%"></stop>
            <stop stop-color="#0096D6" offset="79.41%"></stop>
            <stop stop-color="#005FC5" offset="89.37%"></stop>
            <stop stop-color="#001CB0" offset="100%"></stop>
        </linearGradient>
        <linearGradient x1="6.86115163%" y1="94.9108996%" x2="93.0304435%" y2="5.20027032%" id="linearGradient-5">
            <stop stop-color="#4CE9F2" offset="0%"></stop>
            <stop stop-color="#00DFED" offset="60%"></stop>
            <stop stop-color="#00D6EA" offset="64.13%"></stop>
            <stop stop-color="#00BEE3" offset="70.88%"></stop>
            <stop stop-color="#0096D6" offset="79.41%"></stop>
            <stop stop-color="#005FC5" offset="89.37%"></stop>
            <stop stop-color="#001CB0" offset="100%"></stop>
        </linearGradient>
    </defs>
    <g id="Page-1" stroke="none" stroke-width="1" fill="none" fill-rule="evenodd">
        <g id="wd/overview---basic-meter" transform="translate(-30.000000, -11.000000)">
            <g id="nav/lg-overview">
                <g id="Header/Logged-in_Overview">
                    <g id="logo/primary" transform="translate(30.000000, 11.000000)">
                        <g id="agl" transform="translate(24.716346, 26.515152)" fill="#000000">
                            <path d="M5.46290984,5.00910747 C4.55395649,5.00910747 3.71267339,5.12088094 2.96161728,5.34277198 C2.21306747,5.56383507 1.58816204,5.81967213 1.10528058,6.10283159 L1.05264817,6.13429376 L1.39350567,7.17834078 L1.47537831,7.1336314 C1.98332282,6.85626759 2.56562106,6.62692499 3.20389344,6.45388309 C3.8438367,6.28001325 4.6040826,6.19225037 5.46290984,6.19225037 C6.55732976,6.19225037 7.40613178,6.44394767 7.98425284,6.93989071 C8.55903216,7.43334989 8.85059899,8.31180659 8.85059899,9.55042226 L8.85059899,10.3725782 L5.78204603,10.3725782 C3.9081652,10.3725782 2.46703972,10.7244577 1.49877049,11.4174532 C0.52214691,12.1162444 0.0275693569,13.1768505 0.0275693569,14.5694651 C0.0275693569,15.1763537 0.132834174,15.7203179 0.340857503,16.1847988 C0.548045397,16.6501076 0.842118537,17.0500083 1.2130517,17.3737374 C1.58314943,17.6958106 2.02676545,17.9408843 2.53303909,18.1023348 C3.03513556,18.2629574 3.58151009,18.3440967 4.15545397,18.3440967 C5.26574716,18.3440967 6.239029,18.1006789 7.0468947,17.619639 C7.79210277,17.1766849 8.40781841,16.558205 8.87900378,15.7815864 L9.17892497,18.132969 L10.2031683,18.132969 L10.2031683,9.5495943 C10.2031683,8.16277529 9.80550126,7.04752442 9.02269861,6.23447591 C8.23906053,5.42142739 7.04104666,5.00910747 5.46290984,5.00910747 Z M8.85143443,11.5540652 L8.85143443,12.9044544 C8.85143443,13.4202683 8.74616961,13.9352542 8.53731084,14.4336811 C8.32845208,14.9337639 8.02435372,15.3924491 7.63337011,15.7973174 C7.24238651,16.2021858 6.75282156,16.5341944 6.17887768,16.7842358 C5.60576923,17.0342772 4.93491488,17.1609538 4.18385876,17.1609538 C3.80206494,17.1609538 3.43280265,17.1087928 3.0860971,17.0061268 C2.74189786,16.9042888 2.4377995,16.7444941 2.1804855,16.5317105 C1.92400694,16.3197549 1.72016078,16.0490147 1.57479508,15.7269415 C1.42942938,15.4040404 1.35507566,15.0149031 1.35507566,14.5694651 C1.35507566,13.5262461 1.69843947,12.756251 2.37514187,12.2810068 C3.06103405,11.7991389 4.20725095,11.5548932 5.78288146,11.5548932 L8.85143443,11.5548932 L8.85143443,11.5540652 Z" id="Shape" fill-rule="nonzero"></path>
                            <path d="M22.0997636,7.57492962 C21.9401955,7.31826461 21.7480454,7.06077165 21.5266551,6.80576254 C21.2476198,6.4845173 20.9109395,6.18728266 20.5258039,5.92151018 C20.1398329,5.65490975 19.6995586,5.43384666 19.2150063,5.26494453 C18.7287831,5.09521444 18.1824086,5.00993542 17.5900851,5.00993542 C16.8540668,5.00993542 16.1523014,5.15896672 15.5056747,5.45288955 C14.8590479,5.74681239 14.2809269,6.18479881 13.7871847,6.75360159 C13.2942781,7.32240437 12.8991173,8.02367942 12.6133985,8.83838384 C12.3276797,9.65308826 12.182314,10.5944693 12.182314,11.6368604 C12.182314,12.8208313 12.3226671,13.8458354 12.5991961,14.6853784 C12.8765605,15.5282332 13.2675441,16.2311641 13.7612863,16.7734724 C14.2558638,17.3174367 14.8490227,17.7198212 15.5240542,17.9690346 C16.1965794,18.2174201 16.9359395,18.3432688 17.7229193,18.3432688 C18.7463272,18.3432688 19.6444199,18.0899155 20.3912989,17.5906607 C21.0604823,17.1427389 21.624401,16.5515814 22.0705233,15.8287796 L22.0705233,17.448253 C22.0705233,18.3151184 21.9686003,19.0627587 21.7680958,19.6696473 C21.5684269,20.2715681 21.2868852,20.7641994 20.9326608,21.1334658 C20.5792718,21.5010763 20.145681,21.7693327 19.6452554,21.9324391 C19.1389817,22.0963736 18.5642024,22.1799967 17.9367907,22.1799967 C17.1130517,22.1799967 16.343616,22.0831263 15.6518758,21.8926975 C14.9567938,21.7006127 14.3569515,21.4712701 13.8682219,21.2121212 L13.7871847,21.1690677 L13.4195933,22.2934261 L13.4764029,22.3232323 C13.9751576,22.5881769 14.6117591,22.8390462 15.3694987,23.0683888 C16.1297446,23.2985594 16.9752049,23.4153005 17.8841583,23.4153005 C19.6201923,23.4153005 20.9969893,22.9193575 21.9769546,21.9398907 C22.9552491,20.9604239 23.4514975,19.4585196 23.4514975,17.4747475 L23.4514975,5.22106309 L22.4005202,5.22106309 L22.0997636,7.57492962 Z M22.0713588,9.14803775 L22.0713588,12.4557046 C22.0713588,13.0261633 21.9786255,13.596622 21.7956652,14.1488657 C21.6127049,14.7002815 21.3395177,15.2036761 20.9827869,15.6441464 C20.6268916,16.0829608 20.1774275,16.4406359 19.6485971,16.7072363 C19.1206021,16.9730088 18.4998739,17.1079649 17.8039565,17.1079649 C17.2642654,17.1079649 16.7304224,17.0119225 16.2183008,16.8223216 C15.7078499,16.6343766 15.2525378,16.3205829 14.8623897,15.8917039 C14.4714061,15.4611691 14.1539407,14.8923663 13.918348,14.2010267 C13.6827554,13.5080311 13.5624527,12.6453055 13.5624527,11.6368604 C13.5624527,10.7153502 13.6777427,9.90644146 13.9049811,9.23083292 C14.131384,8.55688028 14.440495,7.99221725 14.8231242,7.55257493 C15.2040826,7.11541646 15.6476986,6.7842358 16.1414407,6.56896837 C16.6360183,6.3545289 17.1690259,6.24523928 17.7229193,6.24523928 C18.6260246,6.24523928 19.4531053,6.51101176 20.1832755,7.03676105 C20.9134458,7.56085445 21.5483764,8.27206491 22.0713588,9.14803775 Z" id="Shape" fill-rule="nonzero"></path>
                            <rect id="Rectangle-path" fill-rule="nonzero" x="26.6821248" y="0.175525749" width="1.37930328" height="17.9566153"></rect>
                        </g>
                        <g id="hand">
                            <path d="M4.85554855,10.1457195 C5.78956494,9.40304686 7.16719735,9.55290611 7.9165826,10.4785561 L19.6770019,25.0057957 C20.4263871,25.9314456 20.2751734,27.2967379 19.341157,28.0394105 L19.341157,28.0394105 C18.4071406,28.7820831 17.0295082,28.6322239 16.280123,27.7065739 L4.51970366,13.1793343 C3.77031841,12.2536844 3.92153216,10.8883921 4.85554855,10.1457195 L4.85554855,10.1457195 Z" id="Shape" fill="url(#linearGradient-1)" fill-rule="nonzero"></path>
                            <path d="M0.030075662,34.3459182 C0.227238335,33.1751946 1.35507566,32.3770492 2.53638083,32.5724458 L16.1481242,34.8228183 C17.3294294,35.0182149 18.1347888,36.1359497 17.9376261,37.3066733 L17.9376261,37.3066733 C17.7404634,38.4773969 16.6126261,39.2755423 15.4313209,39.0801457 L1.81874212,36.8297731 C0.637436948,36.6343766 -0.167087011,35.5166418 0.030075662,34.3459182 L0.030075662,34.3459182 Z" id="Shape" fill="url(#linearGradient-2)" fill-rule="nonzero"></path>
                            <path d="M22.1749527,0.266600431 C23.3646122,0.129988409 24.4506778,0.981950654 24.58936,2.1609538 L26.757314,20.6615334 C26.8951608,21.8405365 26.0354981,22.9168737 24.8458386,23.0543136 L24.8458386,23.0543136 C23.6561791,23.1909256 22.5701135,22.3389634 22.4314313,21.1599603 L20.2634773,2.65938069 C20.1256305,1.48037755 20.9852932,0.404040404 22.1749527,0.266600431 L22.1749527,0.266600431 Z" id="Shape" fill="url(#linearGradient-3)" fill-rule="nonzero"></path>
                            <path d="M37.9663462,5.19539659 C39.0916772,5.60192085 39.6756463,6.84716013 39.2654477,7.962411 L34.115826,21.9465143 C33.7056274,23.0617652 32.449133,23.6405034 31.323802,23.2339791 L31.323802,23.2339791 C30.198471,22.8274549 29.6145019,21.5822156 30.0247005,20.4669647 L35.1743222,6.4828614 C35.5853562,5.36761053 36.8410151,4.78887233 37.9663462,5.19539659 L37.9663462,5.19539659 Z" id="Shape" fill="url(#linearGradient-4)" fill-rule="nonzero"></path>
                            <path d="M46.5596311,16.4944527 C47.4468632,17.2917702 47.5145334,18.6628581 46.7108449,19.5421427 L40.7633827,26.044875 C39.9588588,26.9241596 38.5753783,26.9912237 37.6881463,26.1947342 L37.6881463,26.1947342 C36.8009142,25.3974168 36.733244,24.0263289 37.5369325,23.1470442 L43.4843947,16.644312 C44.2880832,15.7650273 45.6723991,15.6979632 46.5596311,16.4944527 L46.5596311,16.4944527 Z" id="Shape" fill="url(#linearGradient-5)" fill-rule="nonzero"></path>
                        </g>
                    </g>
                </g>
            </g>
        </g>
    </g>
</svg>