<?xml version="1.0" encoding="UTF-8" standalone="no"?>
<svg width="75px" height="80px" viewBox="0 0 75 80" version="1.1" xmlns="http://www.w3.org/2000/svg" xmlns:xlink="http://www.w3.org/1999/xlink">
    <!-- Generator: Sketch 42 (36781) - http://www.bohemiancoding.com/sketch -->
    <title>washing machine</title>
    <desc>Created with Sketch.</desc>
    <defs>
        <rect id="path-1" x="0" y="0" width="75" height="80"></rect>
    </defs>
    <g id="Version-06" stroke="none" stroke-width="1" fill="none" fill-rule="evenodd">
        <g id="tips-icons_all-sizes" transform="translate(-435.000000, -2358.000000)">
            <g id="washing-machine" transform="translate(435.000000, 2358.000000)">
                <mask id="mask-2" fill="white">
                    <use xlink:href="#path-1"></use>
                </mask>
                <use id="Mask" fill="#FFFFFF" xlink:href="#path-1"></use>
                <g mask="url(#mask-2)" id="Household_washing-machi">
                    <g transform="translate(10.000000, 5.000000)">
                        <g>
                            <g id="washing-machine" stroke="#50E3C2">
                                <path d="M55,56.3333333 C55,59.5243145 52.4079669,62.1111111 49.2105263,62.1111111 L5.78947368,62.1111111 C2.5920358,62.1111111 0,59.5243145 0,56.3333333 L0,5.77777778 C0,2.58679908 2.5920358,0 5.78947368,0 L49.2105263,0 C52.4079669,0 55,2.58679908 55,5.77777778 L55,56.3333333 Z" id="Shape" stroke-width="4"></path>
                                <ellipse id="Oval" stroke-width="4" cx="27.5" cy="37.5555556" rx="17.3684211" ry="17.3333333"></ellipse>
                                <ellipse id="Oval" stroke-width="3" cx="27.5" cy="37.5555556" rx="11.5789474" ry="11.5555556"></ellipse>
                                <path d="M31.9148397,44.705193 C27.9582104,40.7565568 27.9582104,34.3545543 31.9148397,30.4059209" id="Shape" stroke-width="3"></path>
                                <ellipse id="Oval" stroke-width="3" cx="44.8684211" cy="7.22222222" rx="1.44736842" ry="1.44444444"></ellipse>
                                <path d="M36.1842105,5.77777778 L36.1842105,8.66666667" id="Shape" stroke-width="3"></path>
                                <path d="M31.8421053,5.77777778 L31.8421053,8.66666667" id="Shape" stroke-width="3"></path>
                                <path d="M1.44736842,14.4444444 L53.5526316,14.4444444" id="Shape" stroke-width="3"></path>
                                <path d="M7.23684211,62.1111111 L7.23684211,65" id="Shape" stroke-width="3"></path>
                                <path d="M47.7631579,62.1111111 L47.7631579,65" id="Shape" stroke-width="3"></path>
                            </g>
                        </g>
                    </g>
                </g>
            </g>
        </g>
    </g>
</svg>