<svg xmlns="http://www.w3.org/2000/svg" width="18" height="18" viewBox="0 0 18 18" xmlns:xlink="http://www.w3.org/1999/xlink">
  <defs>
    <rect id="a" width="18" height="18"/>
    <mask id="b" width="18" height="18" x="0" y="0" fill="white">
      <use xlink:href="#a"/>
    </mask>
  </defs>
  <g fill="none" fill-rule="evenodd">
    <path fill="#666666" d="M17.0530791,3 L0.954661779,3 L0.954661779,12.5087701 L17.0530791,12.5087701 L17.0530791,3 L17.0530791,3 Z M17.3655046,14.4253099 L0.6344954,14.4253099 C0.283936691,14.4253099 0,14.1301231 0,13.7664108 C0,13.4026985 0.283936691,13.1075117 0.6344954,13.1075117 L17.3655046,13.1075117 C17.7157461,13.1075117 18,13.4026985 18,13.7664108 C18,14.1301231 17.7157461,14.4253099 17.3655046,14.4253099 Z M5.8103599,10.2612654 C5.8103599,10.3521935 5.73929642,10.4259902 5.65173605,10.4259902 L3.42782967,10.4259902 C3.34026931,10.4259902 3.26920582,10.3521935 3.26920582,10.2612654 L3.26920582,9.54372433 C3.26920582,9.47783442 3.30727555,9.4178746 3.36564912,9.39217754 L4.47760231,8.90030938 C4.51725827,8.88251911 4.56230745,8.88251911 4.60196341,8.90030938 L5.7139166,9.39217754 C5.77229018,9.4178746 5.8103599,9.47783442 5.8103599,9.54372433 L5.8103599,10.2612654 Z M4.53981459,8.30548825 C3.72068103,8.30548825 3.05414361,7.61331478 3.05414361,6.76267608 C3.05414361,5.91203738 3.72068103,5.21986391 4.53981459,5.21986391 C5.35894815,5.21986391 6.02548557,5.91203738 6.02548557,6.76267608 C6.02548557,7.61331478 5.35894815,8.30548825 4.53981459,8.30548825 Z M10.2691811,10.2612654 C10.2691811,10.3976575 10.1625859,10.5083526 10.0312454,10.5083526 L9.28729952,10.5083526 C9.15595897,10.5083526 9.04936374,10.3976575 9.04936374,10.2612654 L9.04936374,9.09764966 C9.04936374,8.96125755 9.15595897,8.8505625 9.28729952,8.8505625 L10.0312454,8.8505625 C10.1625859,8.8505625 10.2691811,8.96125755 10.2691811,9.09764966 L10.2691811,10.2612654 Z M12.4923896,10.2612654 C12.4923896,10.3976575 12.3857944,10.5083526 12.2544538,10.5083526 L11.5105079,10.5083526 C11.3791674,10.5083526 11.2725722,10.3976575 11.2725722,10.2612654 L11.2725722,5.3847534 C11.2725722,5.24836129 11.3791674,5.13766625 11.5105079,5.13766625 L12.2544538,5.13766625 C12.3857944,5.13766625 12.4923896,5.24836129 12.4923896,5.3847534 L12.4923896,10.2612654 Z M15.033163,10.2612654 C15.033163,10.3976575 14.9265677,10.5083526 14.7952272,10.5083526 L14.0512813,10.5083526 C13.9199408,10.5083526 13.8133456,10.3976575 13.8133456,10.2612654 L13.8133456,6.7628408 C13.8133456,6.6264487 13.9199408,6.51575365 14.0512813,6.51575365 L14.7952272,6.51575365 C14.9265677,6.51575365 15.033163,6.6264487 15.033163,6.7628408 L15.033163,10.2612654 Z"/>
    <use stroke="#FFFFFF" stroke-width="2" mask="url(#b)" opacity=".01" xlink:href="#a"/>
  </g>
</svg>
