<svg xmlns="http://www.w3.org/2000/svg" width="18" height="18" viewBox="0 0 18 18" xmlns:xlink="http://www.w3.org/1999/xlink">
  <defs>
    <rect id="a" width="18" height="18"/>
    <mask id="b" width="18" height="18" x="0" y="0" fill="white">
      <use xlink:href="#a"/>
    </mask>
  </defs>
  <g fill="none" fill-rule="evenodd">
    <path fill="#F5A623" d="M14.7259176,12.0068685 L14.9969936,11.9819522 C14.9974947,11.9753418 15,11.9183903 15,11.9117798 C15,11.6895672 14.9854691,11.4749819 14.9564074,11.2700581 C14.7439559,8.87453443 13.8059627,6.85631461 13.7658775,6.77139581 C13.7142678,6.66206921 13.6000251,6.59698175 13.4792684,6.61986406 C13.3610172,6.6396954 13.2693223,6.7363096 13.2557936,6.8573316 C13.2182137,7.17514147 13.011274,8.06450062 12.5062007,8.36146217 C12.26118,8.50485798 11.9685582,8.49875603 11.6097958,8.34366481 C10.2008017,7.73296136 9.21320306,3.07107189 9.68270074,1.54456751 C9.74132532,1.3523561 9.80846799,1.1342114 9.58699737,1.02844428 C9.44068646,0.959797345 9.31141175,1.01573188 9.19767005,1.19268842 L9.14405612,1.27404775 C8.50469748,2.18578071 7.68044595,3.2281971 6.80759113,4.33163297 C5.90968308,5.46710409 4.98121007,6.64071239 4.21257673,7.72991039 C3.0085181,9.43743927 3,11.6814312 3,11.7755029 C3.00200426,11.8502518 3,11.8792361 3,11.9117798 C3,15.2688691 5.69121884,18 8.99974947,18 C12.1775022,18 14.7890517,15.4971837 14.9814606,12.2855242 C14.9929851,12.254506 15,12.2204368 15,12.1853506 L14.9954904,12.0022921 L14.7259176,12.0068685 Z"/>
    <use stroke="#FFFFFF" stroke-width="2" mask="url(#b)" opacity=".01" xlink:href="#a"/>
  </g>
</svg>
