<?xml version="1.0" encoding="UTF-8" standalone="no"?>
<svg width="231px" height="161px" viewBox="0 0 231 161" version="1.1" xmlns="http://www.w3.org/2000/svg" xmlns:xlink="http://www.w3.org/1999/xlink">
    <!-- Generator: Sketch 40.3 (33839) - http://www.bohemiancoding.com/sketch -->
    <title>longLoad_bills</title>
    <desc>Created with Sketch.</desc>
    <defs></defs>
    <g id="Page-2" stroke="none" stroke-width="1" fill="none" fill-rule="evenodd">
        <g id="lg---longLoad-01" transform="translate(-583.000000, -442.000000)">
            <g id="Group-6" transform="translate(317.000000, 294.000000)">
                <g id="longLoad_bills" transform="translate(267.000000, 149.000000)">
                    <g id="Group-7">
                        <g id="Page-1">
                            <g id="Group-14" transform="translate(0.000000, 0.015032)">
                                <path d="M0.00050955414,158.980892 L0.00050955414,3.10012739 C0.00050955414,1.83541401 1.03286624,0.807133758 2.30267516,0.807133758 C2.99261146,0.807133758 3.63872611,1.12 4.07796178,1.66624204 L7.70802548,6.18700637 L12.173758,0.846878981 C12.6109554,0.310828025 13.2570701,0.00407643312 13.9480255,0.00407643312 C14.6471338,0.00407643312 15.2973248,0.316942675 15.7345223,0.861146497 L20.0127389,6.18700637 L24.4774522,0.846878981 C24.9146497,0.310828025 25.5617834,0.00407643312 26.2527389,0.00407643312 C26.950828,0.00407643312 27.6020382,0.316942675 28.0382166,0.861146497 L32.3164331,6.18700637 L36.7811465,0.846878981 C37.2193631,0.310828025 37.8654777,0.00407643312 38.5564331,0.00407643312 C39.2545223,0.00407643312 39.9057325,0.316942675 40.3429299,0.861146497 L44.6201274,6.18700637 L49.0858599,0.846878981 C49.5230573,0.310828025 50.1701911,0.00407643312 50.8611465,0.00407643312 C51.5592357,0.00407643312 52.2094268,0.316942675 52.6466242,0.861146497 L56.9248408,6.18700637 L61.3895541,0.846878981 C61.8267516,0.310828025 62.4738854,0.00407643312 63.1648408,0.00407643312 C63.8629299,0.00407643312 64.5141401,0.316942675 64.9513376,0.861146497 L69.228535,6.18700637 L73.6932484,0.846878981 C74.131465,0.310828025 74.7775796,0.00407643312 75.468535,0.00407643312 C76.1666242,0.00407643312 76.8178344,0.316942675 77.2540127,0.860127389 L81.5322293,6.18700637 L85.9989809,0.846878981 C86.433121,0.311847134 87.0802548,0.00407643312 87.7732484,0.00407643312 C88.4703185,0.00407643312 89.1225478,0.316942675 89.5587261,0.860127389 L93.8359236,6.18700637 L98.3026752,0.846878981 C98.7368153,0.311847134 99.383949,0.00407643312 100.076943,0.00407643312 C100.774013,0.00407643312 101.425223,0.316942675 101.86242,0.860127389 L106.139618,6.18700637 L110.604331,0.846878981 C111.042548,0.310828025 111.689682,0.00407643312 112.380637,0.00407643312 C113.078726,0.00407643312 113.729936,0.316942675 114.167134,0.860127389 L118.444331,6.18700637 L122.910064,0.846878981 C123.345223,0.311847134 123.992357,0.00407643312 124.68535,0.00407643312 C125.38242,0.00407643312 126.033631,0.316942675 126.470828,0.860127389 L130.747006,6.18700637 L135.214777,0.846878981 C135.649936,0.311847134 136.29707,0.00407643312 136.989045,0.00407643312 C137.687134,0.00407643312 138.338344,0.315923567 138.775541,0.860127389 L143.053758,6.18802548 L146.911083,1.60509554 C147.349299,1.06904459 147.992357,0.761273885 148.67414,0.761273885 C149.943949,0.761273885 150.975287,1.79057325 150.975287,3.05528662 L150.975287,158.980892 L0.00050955414,158.980892 L0.00050955414,158.980892 Z" id="Fill-1" stroke="#8590A2" stroke-width="2" fill="#FFFFFF" opacity="0.5"></path>
                                <path d="M19.1652484,38.2184968 C18.0218089,38.2184968 17.0913631,37.288051 17.0913631,36.1446115 C17.0913631,35.001172 18.0218089,34.0717452 19.1652484,34.0717452 L68.2353121,34.0717452 C69.3797707,34.0717452 70.3091975,35.001172 70.3091975,36.1446115 C70.3091975,37.288051 69.3797707,38.2184968 68.2353121,38.2184968 L19.1652484,38.2184968 Z M112.362701,38.2184968 C111.219261,38.2184968 110.288815,37.288051 110.288815,36.1446115 C110.288815,35.001172 111.219261,34.0717452 112.362701,34.0717452 L130.795312,34.0717452 C131.937732,34.0717452 132.868178,35.001172 132.868178,36.1446115 C132.868178,37.288051 131.937732,38.2184968 130.795312,38.2184968 L112.362701,38.2184968 Z M19.1652484,49.8393885 C18.0218089,49.8393885 17.0913631,48.9089427 17.0913631,47.7655032 C17.0913631,46.6210446 18.0218089,45.6916178 19.1652484,45.6916178 L49.2238471,45.6916178 C50.3672866,45.6916178 51.2977325,46.6210446 51.2977325,47.7655032 C51.2977325,48.9089427 50.3672866,49.8393885 49.2238471,49.8393885 L19.1652484,49.8393885 Z M112.362701,49.8393885 C111.219261,49.8393885 110.288815,48.9089427 110.288815,47.7655032 C110.288815,46.6210446 111.219261,45.6916178 112.362701,45.6916178 L130.795312,45.6916178 C131.937732,45.6916178 132.868178,46.6210446 132.868178,47.7655032 C132.868178,48.9089427 131.937732,49.8393885 130.795312,49.8393885 L112.362701,49.8393885 Z M19.1652484,61.4592611 C18.0218089,61.4592611 17.0913631,60.5288153 17.0913631,59.3853758 C17.0913631,58.2419363 18.0218089,57.3114904 19.1652484,57.3114904 L56.4595159,57.3114904 C57.6029554,57.3114904 58.5334013,58.2419363 58.5334013,59.3853758 C58.5334013,60.5288153 57.6029554,61.4592611 56.4595159,61.4592611 L19.1652484,61.4592611 Z M112.362701,61.4592611 C111.219261,61.4592611 110.288815,60.5288153 110.288815,59.3853758 C110.288815,58.2419363 111.219261,57.3114904 112.362701,57.3114904 L130.795312,57.3114904 C131.937732,57.3114904 132.868178,58.2419363 132.868178,59.3853758 C132.868178,60.5288153 131.937732,61.4592611 130.795312,61.4592611 L112.362701,61.4592611 Z M19.1652484,84.6990064 C18.0218089,84.6990064 17.0913631,83.7695796 17.0913631,82.6261401 C17.0913631,81.4816815 18.0218089,80.5522548 19.1652484,80.5522548 L60.1863949,80.5522548 C61.3298344,80.5522548 62.2602803,81.4816815 62.2602803,82.6261401 C62.2602803,83.7695796 61.3298344,84.6990064 60.1863949,84.6990064 L19.1652484,84.6990064 Z M112.362701,84.6990064 C111.219261,84.6990064 110.288815,83.7695796 110.288815,82.6261401 C110.288815,81.4816815 111.219261,80.5522548 112.362701,80.5522548 L130.795312,80.5522548 C131.937732,80.5522548 132.868178,81.4816815 132.868178,82.6261401 C132.868178,83.7695796 131.937732,84.6990064 130.795312,84.6990064 L112.362701,84.6990064 Z M19.1652484,96.3198981 C18.0218089,96.3198981 17.0913631,95.3894522 17.0913631,94.2460127 C17.0913631,93.1025732 18.0218089,92.1721274 19.1652484,92.1721274 L65.0098344,92.1721274 C66.1532739,92.1721274 67.0837197,93.1025732 67.0837197,94.2460127 C67.0837197,95.3894522 66.1532739,96.3198981 65.0098344,96.3198981 L19.1652484,96.3198981 Z M112.362701,96.3198981 C111.219261,96.3198981 110.288815,95.3894522 110.288815,94.2460127 C110.288815,93.1025732 111.219261,92.1721274 112.362701,92.1721274 L130.795312,92.1721274 C131.937732,92.1721274 132.868178,93.1025732 132.868178,94.2460127 C132.868178,95.3894522 131.937732,96.3198981 130.795312,96.3198981 L112.362701,96.3198981 Z" id="Fill-3" fill="#0057BF"></path>
                                <polygon id="Fill-7" fill="#0057BF" points="16.536051 133.46242 85.1424204 133.46242 85.1424204 111.82879 16.536051 111.82879"></polygon>
                                <polygon id="Fill-9" fill="#E8E8E8" points="71.464051 108.411618 71.464051 108.411618 71.464051 107.952"></polygon>
                                <polygon id="Fill-13" fill="#0057BF" points="0 158.980892 150.975796 158.980892 150.975796 145.779363 0 145.779363"></polygon>
                            </g>
                            <polygon id="Fill-15" fill="#0057BF" points="166.532586 85.3124586 184.895898 94.6688917 181.53386 101.267618 163.170548 91.9111847"></polygon>
                            <g id="Group-24" transform="translate(110.063694, 44.855796)">
                                <path d="M73.9984713,46.1309554 L115.989809,67.5261146 C119.239745,69.1821656 120.531975,73.1597452 118.875924,76.4107006 C117.219873,79.6606369 113.242293,80.9528662 109.991338,79.2968153 L68.0010191,57.9016561 L73.9984713,46.1309554 Z" id="Fill-16" fill="#0057BF"></path>
                                <path d="M58.6372484,23.5996943 C63.3934268,38.2381656 55.3822166,53.9609682 40.7437452,58.7181656 C26.1052739,63.4743439 10.3824713,55.4631338 5.62527389,40.8246624 C0.869095541,26.185172 8.88030573,10.4623694 23.5187771,5.70619108 C38.1582675,0.950012739 53.8810701,8.96122293 58.6372484,23.5996943" id="Fill-18" fill="#AADAF6" opacity="0.5"></path>
                                <path d="M43.2718471,10.3476178 C55.3472611,16.4999745 60.1482803,31.2770446 53.9959236,43.3524586 C47.8435669,55.4278726 33.0664968,60.2288917 20.9910828,54.076535 C8.91566879,47.9231592 4.11464968,33.1471083 10.2670064,21.0716943 C16.4203822,8.99628025 31.1964331,4.19526115 43.2718471,10.3476178 M17.6850955,60.5641783 C33.3436943,68.5427771 52.5049682,62.3170446 60.4835669,46.6584459 C68.4621656,30.9998471 62.2364331,11.8375541 46.5778344,3.85895541 C30.9192357,-4.1186242 11.7579618,2.10710828 3.77936306,17.765707 C-4.19923567,33.4243057 2.02649682,52.5855796 17.6850955,60.5641783" id="Fill-20" fill="#0D7BFF"></path>
                            </g>
                        </g>
                        <text id="$50" font-family="BrauerNeue-Bold, BrauerNeue" font-size="25" font-weight="bold" fill="#0D7BFF">
                            <tspan x="100.007723" y="130.082803">$50</tspan>
                        </text>
                    </g>
                </g>
            </g>
        </g>
    </g>
</svg>