<svg xmlns="http://www.w3.org/2000/svg" width="30" height="56" viewBox="0 0 30 56">
  <g fill="none" fill-rule="evenodd">
    <rect width="30" height="56" fill="#FFFFFF" fill-opacity=".01"/>
    <g fill="#48515F" transform="translate(0 15)">
      <rect width="4.57" height="10" x="9.13" y="16"/>
      <rect width="4.57" height="10" x="2.66" y="16"/>
      <path d="M29,13.5 L1,13.5 C0.723857625,13.5 0.5,13.7238576 0.5,14 C0.5,14.2761424 0.723857625,14.5 1,14.5 L29,14.5 C29.2761424,14.5 29.5,14.2761424 29.5,14 C29.5,13.7238576 29.2761424,13.5 29,13.5 L29,13.5 Z"/>
      <rect width="4.57" height="10" x="22.08" y="16"/>
      <rect width="4.57" height="10" x="15.61" y="16"/>
      <path d="M3.66 6L6.23 6 6.23 12 7.23 12 7.23 6C7.23 5.44771525 6.78228475 5 6.23 5L3.66 5C3.10771525 5 2.66 5.44771525 2.66 6L2.66 12 3.66 12 3.66 6zM16.61 1L19.18 1 19.18 12 20.18 12 20.18 1C20.18.44771525 19.7322847 0 19.18 0L16.61 0C16.0577153 0 15.61.44771525 15.61 1L15.61 12 16.61 12 16.61 1zM23.08 4.31L25.65 4.31 25.65 12 26.65 12 26.65 4.31C26.65 3.75771525 26.2022847 3.31 25.65 3.31L23.08 3.31C22.5277153 3.31 22.08 3.75771525 22.08 4.31L22.08 12 23.08 12 23.08 4.31z"/>
    </g>
  </g>
</svg>
