<?xml version="1.0" encoding="UTF-8"?>
<svg width="51px" height="34px" viewBox="0 0 51 34" version="1.1" xmlns="http://www.w3.org/2000/svg" xmlns:xlink="http://www.w3.org/1999/xlink">
    <!-- Generator: Sketch 42 (36781) - http://www.bohemiancoding.com/sketch -->
    <title>iconExp_bill</title>
    <desc>Created with Sketch.</desc>
    <defs></defs>
    <g id="Page-1" stroke="none" stroke-width="1" fill="none" fill-rule="evenodd">
        <g id="wd/billing/newBillDD" transform="translate(-392.000000, -102.000000)">
            <g id="iconExp_bill" transform="translate(392.000000, 102.000000)">
                <path d="M0.000316662013,32.5433548 L0.000316662013,13.394803 L50.5395734,13.394803 L50.5395734,32.5433548 C50.5395734,33.3476763 49.8872497,34 49.0829282,34 L1.45696191,34 C0.652640402,34 0.000316662013,33.3476763 0.000316662013,32.5433548 Z M49.0826115,0 C49.886933,0 50.5392568,0.65232374 50.5392568,1.45664525 L50.5392568,7.06156282 L0,7.06156282 L0,1.45664525 C0,0.65232374 0.65232374,0 1.45664525,0 L49.0826115,0 Z" id="Combined-Shape" fill="#001CB0"></path>
                <polygon id="Fill-4" fill="#50E3C2" points="3.99025799 22.780665 35.7324579 22.780665 35.7324579 19.8452082 3.99025799 19.8452082"></polygon>
                <polygon id="Fill-4" fill="#50E3C2" points="3.99025799 28.1385862 21.1596722 28.1385862 21.1596722 25.2031294 3.99025799 25.2031294"></polygon>
            </g>
        </g>
    </g>
</svg>