<?xml version="1.0" encoding="UTF-8" standalone="no"?>
<svg width="14px" height="18px" viewBox="0 0 14 18" version="1.1" xmlns="http://www.w3.org/2000/svg" xmlns:xlink="http://www.w3.org/1999/xlink">
    <!-- Generator: Sketch 41.2 (35397) - http://www.bohemiancoding.com/sketch -->
    <title>icon-reports</title>
    <desc>Created with Sketch.</desc>
    <defs></defs>
    <g id="Version-02" stroke="none" stroke-width="1" fill="none" fill-rule="evenodd">
        <g id="Components" transform="translate(-616.000000, -1423.000000)">
            <g id="Group-13" transform="translate(600.000000, 1356.000000)">
                <g id="icon-reports" transform="translate(14.000000, 68.000000)">
                    <rect id="Rectangle-4" fill-opacity="0" fill="#D8D8D8" x="0" y="0" width="17.3755656" height="16"></rect>
                    <path d="M14.6175393,2.69395011 L14.6175393,14.9841995 C14.6175393,15.3332245 14.3070644,15.6191202 13.9280328,15.6191202 L3.58543417,15.6191202 C3.20640256,15.6191202 2.8959276,15.3332245 2.8959276,14.9841995 L2.8959276,1.01594558 C2.8959276,0.666557823 3.20640256,0.381024943 3.58543417,0.381024943 L12.3449257,0.381024943" id="Stroke-1" stroke="#006CE5" stroke-linecap="round" stroke-linejoin="round"></path>
                    <path d="M14.6175393,2.69395011 L13.0344322,2.69395011 C12.6554006,2.69395011 12.3449257,2.40841723 12.3449257,2.05902948 L12.3449257,0.381024943 L14.6175393,2.69395011 Z" id="Stroke-3" stroke="#006CE5" stroke-linecap="round" stroke-linejoin="round"></path>
                    <path d="M5.05589559,5.33333333 L12.5419669,5.33333333" id="Stroke-5" stroke="#006CE5" stroke-linecap="round" stroke-linejoin="round"></path>
                    <path d="M5.05589559,7.61904762 L12.5419669,7.61904762" id="Stroke-7" stroke="#006CE5" stroke-linecap="round" stroke-linejoin="round"></path>
                    <path d="M5.05589559,9.9047619 L12.5419669,9.9047619" id="Stroke-9" stroke="#006CE5" stroke-linecap="round" stroke-linejoin="round"></path>
                </g>
            </g>
        </g>
    </g>
</svg>