<?xml version="1.0" encoding="UTF-8" standalone="no"?>
<svg width="36px" height="35px" viewBox="0 0 36 35" version="1.1" xmlns="http://www.w3.org/2000/svg" xmlns:xlink="http://www.w3.org/1999/xlink">
    <!-- Generator: Sketch 42 (36781) - http://www.bohemiancoding.com/sketch -->
    <title>ico_warning copy 8</title>
    <desc>Created with Sketch.</desc>
    <defs></defs>
    <g id="Billing-States-Working" stroke="none" stroke-width="1" fill="none" fill-rule="evenodd">
        <g id="payg/overview-states" transform="translate(-535.000000, -578.000000)" fill="#F7A623">
            <g id="Group" transform="translate(50.000000, 50.000000)">
                <path d="M485.119625,561.30064 L501.781492,528.745516 C502.289589,527.751495 503.708564,527.751495 504.218508,528.745516 L520.880375,561.30064 C521.220338,561.965785 520.795385,562.797215 520.113612,562.797215 L485.886388,562.797215 C485.204615,562.797215 484.779662,561.965785 485.119625,561.30064 Z M504.762448,552.085064 C505.083934,552.085064 505.344449,551.824549 505.344449,551.503063 L505.344449,541.511116 C505.344449,541.189629 505.083934,540.929114 504.762448,540.929114 L501.237183,540.929114 C500.915696,540.929114 500.655181,541.189629 500.655181,541.511116 L500.655181,551.503063 C500.655181,551.824549 500.915696,552.085064 501.237183,552.085064 L504.762448,552.085064 Z M500.498318,557.050367 C500.498318,558.43239 501.617978,559.55205 503,559.55205 C504.382022,559.55205 505.501682,558.43239 505.501682,557.050367 C505.501682,555.668345 504.382022,554.548685 503,554.548685 C501.617978,554.548685 500.498318,555.668345 500.498318,557.050367 Z" id="ico_warning-copy-8"></path>
            </g>
        </g>
    </g>
</svg>