<?xml version="1.0" encoding="UTF-8"?>
<svg width="414px" height="166px" viewBox="0 0 414 166" version="1.1" xmlns="http://www.w3.org/2000/svg" xmlns:xlink="http://www.w3.org/1999/xlink">
    <!-- Generator: Sketch 45.1 (43504) - http://www.bohemiancoding.com/sketch -->
    <title>bricks</title>
    <desc>Created with Sketch.</desc>
    <defs></defs>
    <g id="SSMR---Multiple-meter-&amp;-register" stroke="none" stroke-width="1" fill="none" fill-rule="evenodd">
        <g id="Dual-register-Onboard-desktop" transform="translate(-393.000000, -322.000000)" fill="#F9F9F9">
            <g id="bricks" transform="translate(440.000000, 322.000000)">
                <g transform="translate(159.453925, 83.000000) scale(1, -1) translate(-159.453925, -83.000000) translate(-51.331058, 0.000000)">
                    <rect id="Rectangle-10-Copy-14" x="106.405881" y="135.734807" width="66.8128677" height="29.4160602" rx="5"></rect>
                    <rect id="Rectangle-10-Copy-20" x="106.405881" y="67.8674033" width="66.8128677" height="29.4160602" rx="5"></rect>
                    <rect id="Rectangle-10-Copy-25" x="106.405881" y="0.183425414" width="66.8128677" height="29.4160602" rx="5"></rect>
                    <rect id="Rectangle-10-Copy-18" x="35.4686269" y="135.734807" width="66.8128677" height="29.4160602" rx="5"></rect>
                    <rect id="Rectangle-10-Copy-21" x="35.4686269" y="67.8674033" width="66.8128677" height="29.4160602" rx="5"></rect>
                    <rect id="Rectangle-10-Copy-26" x="35.4686269" y="0.183425414" width="66.8128677" height="29.4160602" rx="5"></rect>
                    <rect id="Rectangle-10-Copy-16" x="177.343135" y="135.734807" width="66.8128677" height="29.4160602" rx="5"></rect>
                    <rect id="Rectangle-10-Copy-22" x="177.343135" y="67.8674033" width="66.8128677" height="29.4160602" rx="5"></rect>
                    <rect id="Rectangle-10-Copy-27" x="177.343135" y="0.183425414" width="66.8128677" height="29.4160602" rx="5"></rect>
                    <rect id="Rectangle-10-Copy-17" x="248.280389" y="135.734807" width="66.8128677" height="29.4160602" rx="5"></rect>
                    <rect id="Rectangle-10-Copy-23" x="248.280389" y="67.8674033" width="66.8128677" height="29.4160602" rx="5"></rect>
                    <rect id="Rectangle-10-Copy-28" x="248.280389" y="0.183425414" width="66.8128677" height="29.4160602" rx="5"></rect>
                    <rect id="Rectangle-10-Copy-19" x="319.217642" y="135.734807" width="66.8128677" height="29.4160602" rx="5"></rect>
                    <rect id="Rectangle-10-Copy-24" x="319.217642" y="67.8674033" width="66.8128677" height="29.4160602" rx="5"></rect>
                    <rect id="Rectangle-10-Copy-29" x="319.217642" y="0.183425414" width="66.8128677" height="29.4160602" rx="5"></rect>
                    <g id="Group-3" transform="translate(0.000000, 33.841989)">
                        <rect id="Rectangle-10-Copy-4" x="70.9372539" y="0" width="66.8128677" height="29.4160602" rx="5"></rect>
                        <rect id="Rectangle-10-Copy-8" x="0.07082881" y="0" width="66.8128677" height="29.4160602" rx="5"></rect>
                        <rect id="Rectangle-10-Copy-5" x="141.958806" y="0.099618975" width="66.8128677" height="29.4160602" rx="5"></rect>
                        <rect id="Rectangle-10-Copy-6" x="212.980358" y="0.099618975" width="66.8128677" height="29.4160602" rx="5"></rect>
                        <rect id="Rectangle-10-Copy-7" x="283.749015" y="0" width="66.8128677" height="29.4160602" rx="5"></rect>
                        <rect id="Rectangle-10-Copy-10" x="354.686269" y="0" width="66.8128677" height="29.4160602" rx="5"></rect>
                    </g>
                    <g id="Group-2" transform="translate(0.000000, 101.525967)">
                        <rect id="Rectangle-10-Copy-9" x="70.9372539" y="0" width="66.8128677" height="29.4160602" rx="5"></rect>
                        <rect id="Rectangle-10-Copy-11" x="141.9211" y="0" width="66.8128677" height="29.4160602" rx="5"></rect>
                        <rect id="Rectangle-10-Copy-13" x="212.904947" y="0" width="66.8128677" height="29.4160602" rx="5"></rect>
                        <rect id="Rectangle-10-Copy-15" x="283.749015" y="0" width="66.8128677" height="29.4160602" rx="5"></rect>
                        <rect id="Rectangle-10-Copy-30" x="354.686269" y="0" width="66.8128677" height="29.4160602" rx="5"></rect>
                        <rect id="Rectangle-10-Copy-31" x="0.07082881" y="0" width="66.8128677" height="29.4160602" rx="5"></rect>
                    </g>
                </g>
            </g>
        </g>
    </g>
</svg>