<?xml version="1.0" encoding="UTF-8" standalone="no"?>
<svg width="75px" height="80px" viewBox="0 0 75 80" version="1.1" xmlns="http://www.w3.org/2000/svg" xmlns:xlink="http://www.w3.org/1999/xlink">
    <!-- Generator: Sketch 42 (36781) - http://www.bohemiancoding.com/sketch -->
    <title>dryer</title>
    <desc>Created with Sketch.</desc>
    <defs>
        <rect id="path-1" x="0" y="0" width="75" height="80"></rect>
        <path d="M0,4.00164022 C0,1.79159535 1.79568082,0 4.0065556,0 L55.9934444,0 C58.206204,0 60,1.7889915 60,4.00164022 L60,20.5645161 L0,20.5645161 L0,4.00164022 Z" id="path-3"></path>
        <mask id="mask-4" maskContentUnits="userSpaceOnUse" maskUnits="objectBoundingBox" x="0" y="0" width="60" height="20.5645161" fill="white">
            <use xlink:href="#path-3"></use>
        </mask>
        <path d="M0,22.983871 L60,22.983871 L60,69.7824157 C60,71.9959216 58.2043192,73.7903226 55.9934444,73.7903226 L4.0065556,73.7903226 C1.79379604,73.7903226 0,71.9970174 0,69.7824157 L0,22.983871 Z" id="path-5"></path>
        <mask id="mask-6" maskContentUnits="userSpaceOnUse" maskUnits="objectBoundingBox" x="0" y="0" width="60" height="50.8064516" fill="white">
            <use xlink:href="#path-5"></use>
        </mask>
    </defs>
    <g id="Version-06" stroke="none" stroke-width="1" fill="none" fill-rule="evenodd">
        <g id="tips-icons_all-sizes" transform="translate(-435.000000, -1059.000000)">
            <g id="dryer" transform="translate(435.000000, 1059.000000)">
                <mask id="mask-2" fill="white">
                    <use xlink:href="#path-1"></use>
                </mask>
                <use id="Mask" fill="#FFFFFF" xlink:href="#path-1"></use>
                <g mask="url(#mask-2)">
                    <g transform="translate(7.000000, 3.000000)">
                        <use id="Rectangle-26" stroke="#50E3C2" mask="url(#mask-4)" stroke-width="8" fill="#FFFFFF" fill-rule="evenodd" xlink:href="#path-3"></use>
                        <ellipse id="Oval-2" stroke="none" fill="#50E3C2" fill-rule="evenodd" cx="11.6326531" cy="10.2822581" rx="1.83673469" ry="1.81451613"></ellipse>
                        <ellipse id="Oval-2-Copy" stroke="none" fill="#50E3C2" fill-rule="evenodd" cx="17.755102" cy="10.2822581" rx="1.83673469" ry="1.81451613"></ellipse>
                        <path d="M13.4693878,69.5564516 L13.4693878,74.3951613" id="Line" stroke="#50E3C2" stroke-width="2" stroke-linecap="square" fill="none"></path>
                        <path d="M46.5306122,69.5564516 L46.5306122,74.3951613" id="Line" stroke="#50E3C2" stroke-width="2" stroke-linecap="square" fill="none"></path>
                        <use id="Rectangle-27" stroke="#50E3C2" mask="url(#mask-6)" stroke-width="8" fill="#FFFFFF" fill-rule="evenodd" xlink:href="#path-5"></use>
                        <ellipse id="Oval-14" stroke="#50E3C2" stroke-width="4" fill="#FFFFFF" fill-rule="evenodd" cx="30" cy="48.9919355" rx="16.5306122" ry="16.3306452"></ellipse>
                        <g id="Group-3" stroke="none" stroke-width="1" fill="none" fill-rule="evenodd" transform="translate(22.174397, 41.129032)" stroke-linecap="round" stroke-linejoin="round">
                            <g id="Group-2" stroke="#50E3C2">
                                <g id="Group" transform="translate(3.539889, 0.000000)">
                                    <path d="M0,0 C0,0 2.44897959,1.20967742 2.44897959,3.62903226" id="Path-13"></path>
                                    <path d="M0,3.62903226 C0,3.62903226 2.44897959,4.83870968 2.44897959,7.25806452" id="Path-13-Copy" transform="translate(1.224490, 5.443548) scale(1, -1) translate(-1.224490, -5.443548) "></path>
                                </g>
                                <g id="Group-Copy" transform="translate(2.039889, 10.516129) scale(-1, -1) translate(-2.039889, -10.516129) translate(0.539889, 6.516129)">
                                    <path d="M3.95239397e-14,-2.3869795e-13 C3.95239397e-14,-2.3869795e-13 2.44897959,1.20967742 2.44897959,3.62903226" id="Path-13"></path>
                                    <path d="M6.08402217e-14,3.62903226 C6.08402217e-14,3.62903226 2.44897959,4.83870968 2.44897959,7.25806452" id="Path-13-Copy" transform="translate(1.224490, 5.443548) scale(1, -1) translate(-1.224490, -5.443548) "></path>
                                </g>
                            </g>
                            <g id="Group-2-Copy" transform="translate(4.897959, 0.000000)" stroke="#50E3C2">
                                <g id="Group" transform="translate(3.539889, 0.000000)">
                                    <path d="M0,0 C0,0 2.44897959,1.20967742 2.44897959,3.62903226" id="Path-13"></path>
                                    <path d="M0,3.62903226 C0,3.62903226 2.44897959,4.83870968 2.44897959,7.25806452" id="Path-13-Copy" transform="translate(1.224490, 5.443548) scale(1, -1) translate(-1.224490, -5.443548) "></path>
                                </g>
                                <g id="Group-Copy" transform="translate(2.039889, 10.516129) scale(-1, -1) translate(-2.039889, -10.516129) translate(0.539889, 6.516129)">
                                    <path d="M2.79776202e-14,-2.3869795e-13 C2.79776202e-14,-2.3869795e-13 2.44897959,1.20967742 2.44897959,3.62903226" id="Path-13"></path>
                                    <path d="M-1.76747506e-13,3.62903226 C-1.76747506e-13,3.62903226 2.44897959,4.83870968 2.44897959,7.25806452" id="Path-13-Copy" transform="translate(1.224490, 5.443548) scale(1, -1) translate(-1.224490, -5.443548) "></path>
                                </g>
                            </g>
                            <g id="Group-2-Copy-2" transform="translate(9.795918, 0.000000)" stroke="#50E3C2">
                                <g id="Group" transform="translate(3.539889, 0.000000)">
                                    <path d="M0,0 C0,0 2.44897959,1.20967742 2.44897959,3.62903226" id="Path-13"></path>
                                    <path d="M0,3.62903226 C0,3.62903226 2.44897959,4.83870968 2.44897959,7.25806452" id="Path-13-Copy" transform="translate(1.224490, 5.443548) scale(1, -1) translate(-1.224490, -5.443548) "></path>
                                </g>
                                <g id="Group-Copy" transform="translate(2.039889, 10.516129) scale(-1, -1) translate(-2.039889, -10.516129) translate(0.539889, 6.516129)">
                                    <path d="M1.52766688e-13,-2.3869795e-13 C1.52766688e-13,-2.3869795e-13 2.44897959,1.20967742 2.44897959,3.62903226" id="Path-13"></path>
                                    <path d="M1.7408297e-13,3.62903226 C1.7408297e-13,3.62903226 2.44897959,4.83870968 2.44897959,7.25806452" id="Path-13-Copy" transform="translate(1.224490, 5.443548) scale(1, -1) translate(-1.224490, -5.443548) "></path>
                                </g>
                            </g>
                        </g>
                    </g>
                </g>
            </g>
        </g>
    </g>
</svg>