<?xml version="1.0" encoding="UTF-8" standalone="no"?>
<svg width="16px" height="18px" viewBox="0 0 16 18" version="1.1" xmlns="http://www.w3.org/2000/svg" xmlns:xlink="http://www.w3.org/1999/xlink">
    <defs></defs>
    <g id="HiFi" stroke="none" stroke-width="1" fill="none" fill-rule="evenodd">
        <g id="05-Bank-details" transform="translate(-27.000000, -926.000000)" fill="#666666">
            <g id="Group-6" transform="translate(25.000000, 327.000000)">
                <g id="Group-4" transform="translate(0.000000, 113.000000)">
                    <g id="Group-7" transform="translate(0.000000, 364.000000)">
                        <g id="mb/creditCard-Notes" transform="translate(0.000000, 79.000000)">
                            <g id="calendar" transform="translate(0.000000, 43.000000)">
                                <g>
                                    <path d="M15.8203125,15.8203125 L15.8203125,6.6796875 L4.1796875,6.6796875 L4.1796875,15.8203125 L15.8203125,15.8203125 Z M13.3203125,0.8203125 L15,0.8203125 L15,2.5 L15.8203125,2.5 C16.263023,2.5 16.6536441,2.66926914 16.9921875,3.0078125 C17.3307309,3.34635586 17.5,3.73697695 17.5,4.1796875 L17.5,15.8203125 C17.5,16.263023 17.3307309,16.6536441 16.9921875,16.9921875 C16.6536441,17.3307309 16.263023,17.5 15.8203125,17.5 L4.1796875,17.5 C3.71093516,17.5 3.31380371,17.3307309 2.98828125,16.9921875 C2.66275879,16.6536441 2.5,16.263023 2.5,15.8203125 L2.5,4.1796875 C2.5,3.73697695 2.66275879,3.34635586 2.98828125,3.0078125 C3.31380371,2.66926914 3.71093516,2.5 4.1796875,2.5 L5,2.5 L5,0.8203125 L6.6796875,0.8203125 L6.6796875,2.5 L13.3203125,2.5 L13.3203125,0.8203125 Z M14.1796875,10 L14.1796875,14.1796875 L10,14.1796875 L10,10 L14.1796875,10 Z"></path>
                                </g>
                            </g>
                        </g>
                    </g>
                </g>
            </g>
        </g>
    </g>
</svg>