<?xml version="1.0" encoding="UTF-8"?>
<svg width="130px" height="130px" viewBox="0 0 96 120" version="1.1" xmlns="http://www.w3.org/2000/svg" xmlns:xlink="http://www.w3.org/1999/xlink">
    <!-- Generator: Sketch 49.1 (51147) - http://www.bohemiancoding.com/sketch -->
    <title>SMS Payeeeee</title>
    <desc>Created with Sketch.</desc>
    <defs></defs>
    <g id="Working" stroke="none" stroke-width="1" fill="none" fill-rule="evenodd">
        <g id="SMS-Payeeeee" transform="translate(-1.000000, 0.000000)" fill-rule="nonzero">
            <g id="Group-3">
                <g id="Group" transform="translate(0.545455, 0.909091)">
                    <g transform="translate(31.909091, 0.000000)" id="Shape">
                        <path d="M64.4090909,77.2909091 L64.4090909,12.4090909 C64.4090909,10.1636364 63.4636364,8.03636364 62.0454545,6.5 L57.9090909,2.36363636 C56.3727273,0.945454545 54.3636364,0 52.1181818,0 L8.98181818,0 C4.25454545,0 0.472727273,3.78181818 0.472727273,8.50909091 L0.472727273,105.772727 C0.472727273,108.018182 1.41818182,110.145455 2.83636364,111.681818 L6.97272727,115.818182 C8.50909091,117.236364 10.5181818,118.181818 12.7636364,118.181818 L55.9,118.181818 C60.6272727,118.181818 64.4090909,114.4 64.4090909,109.672727 L64.4090909,108.254545 L64.4090909,77.2909091 Z" fill="#D7D7D7"></path>
                        <path d="M60.3909091,105.772727 C60.3909091,110.5 56.6090909,114.281818 51.8818182,114.281818 L8.74545455,114.281818 C4.01818182,114.281818 0.236363636,110.5 0.236363636,105.772727 L0.236363636,8.50909091 C0.236363636,3.78181818 4.01818182,-8.8817842e-16 8.74545455,-8.8817842e-16 L51.8818182,-8.8817842e-16 C56.6090909,-8.8817842e-16 60.3909091,3.78181818 60.3909091,8.50909091 L60.3909091,105.772727 Z" fill="#EBEBEB"></path>
                        <path d="M58.3818182,99.1545455 C58.3818182,99.3909091 58.1454545,99.6272727 57.9090909,99.6272727 L2.71818182,99.6272727 C2.48181818,99.6272727 2.24545455,99.3909091 2.24545455,99.1545455 L2.24545455,13.5909091 C2.24545455,13.3545455 2.48181818,13.1181818 2.71818182,13.1181818 L57.9090909,13.1181818 C58.1454545,13.1181818 58.3818182,13.3545455 58.3818182,13.5909091 L58.3818182,99.1545455 Z" fill="#00DFED"></path>
                        <path d="M26.1181818,107.072727 C26.1181818,104.709091 28.0090909,102.818182 30.3727273,102.818182 C32.7363636,102.818182 34.6272727,104.709091 34.6272727,107.072727 C34.6272727,109.436364 32.7363636,111.327273 30.3727273,111.327273 C28.0090909,111.327273 26.1181818,109.436364 26.1181818,107.072727" fill="#CDCDCD"></path>
                        <path d="M19.2636364,6.85454545 C19.2636364,6.26363636 19.7363636,5.79090909 20.3272727,5.79090909 C20.9181818,5.79090909 21.3909091,6.26363636 21.3909091,6.85454545 C21.3909091,7.44545455 20.9181818,7.91818182 20.3272727,7.91818182 C19.7363636,7.91818182 19.2636364,7.44545455 19.2636364,6.85454545" fill="#CDCDCD"></path>
                        <path d="M35.2181818,6.73636364 C35.2181818,6.97272727 34.9818182,7.20909091 34.7454545,7.20909091 L25.8818182,7.20909091 C25.6454545,7.20909091 25.4090909,6.97272727 25.4090909,6.73636364 C25.4090909,6.5 25.6454545,6.26363636 25.8818182,6.26363636 L34.7454545,6.26363636 C34.9818182,6.26363636 35.2181818,6.5 35.2181818,6.73636364 Z" fill="#CDCDCD"></path>
                    </g>
                    <path d="M65.9454545,75.6363636 L2.95454545,75.6363636 C1.65454545,75.6363636 0.590909091,74.5727273 0.590909091,73.2727273 L0.590909091,39.3545455 C0.590909091,38.0545455 1.65454545,36.9909091 2.95454545,36.9909091 L65.9454545,36.9909091 C67.2454545,36.9909091 68.3090909,38.0545455 68.3090909,39.3545455 L68.3090909,73.2727273 C68.3090909,74.5727273 67.2454545,75.6363636 65.9454545,75.6363636 Z" id="Shape" fill="#0110B3"></path>
                    <g transform="translate(14.181818, 47.272727)" fill="#F5F5F5" id="Rectangle-path">
                        <rect x="0.945454545" y="0.945454545" width="38.6454545" height="3.19090909"></rect>
                        <rect x="0.945454545" y="7.44545455" width="38.6454545" height="3.19090909"></rect>
                        <rect x="0.945454545" y="13.8272727" width="25.7636364" height="3.19090909"></rect>
                    </g>
                    <polygon id="Shape" fill="#0110B3" points="57.5545455 86.3909091 57.5545455 75.6363636 46.8 75.6363636"></polygon>
                </g>
            </g>
        </g>
    </g>
</svg>