<?xml version="1.0" encoding="UTF-8"?>
<svg width="64px" height="75px" viewBox="0 0 64 75" version="1.1" xmlns="http://www.w3.org/2000/svg" xmlns:xlink="http://www.w3.org/1999/xlink">
    <!-- Generator: Sketch 44.1 (41455) - http://www.bohemiancoding.com/sketch -->
    <title>ma-paypal-letters</title>
    <desc>Created with Sketch.</desc>
    <defs></defs>
    <g id="Symbols" stroke="none" stroke-width="1" fill="none" fill-rule="evenodd">
        <g id="ma-paypal-letters">
            <g id="Group-12">
                <path d="M56.8120833,18.8989167 C56.0420833,18.4914167 55.2054167,18.1389167 54.3070833,17.8405833 C54.0820833,17.7664167 53.85375,17.69475 53.62125,17.62725 C53.15625,17.4914167 52.67625,17.3689167 52.18125,17.2589167 C51.6879167,17.1489167 51.17875,17.05225 50.65625,16.9680833 C48.8254167,16.6730833 46.82375,16.5330833 44.67625,16.5330833 L26.55375,16.5330833 C26.10875,16.5330833 25.6845833,16.6339167 25.3045833,16.8164167 C24.46875,17.2164167 23.8479167,18.0089167 23.6954167,18.9755833 L15.27375,72.3814167 C15.1070833,73.43475 15.9220833,74.3880833 16.98875,74.3880833 L29.01875,74.3880833 C30.4429167,74.3880833 31.6554167,73.3514167 31.8770833,71.9455833 L31.9954167,71.3339167 L34.26125,56.96225 L34.4079167,56.1680833 C34.6295833,54.7614167 35.8420833,53.72475 37.26625,53.72475 L39.0654167,53.72475 C50.72125,53.72475 59.8470833,48.98975 62.51375,35.2955833 C63.6279167,29.5739167 63.0520833,24.79725 60.1054167,21.43975 C59.21375,20.4239167 58.1054167,19.5839167 56.8120833,18.8989167" id="Fill-3" fill="#169BD7"></path>
                <path d="M53.6756667,5.60833333 C50.2298333,1.68166667 44.0048333,0 36.0398333,0 L12.9198333,0 C11.2915,0 9.90566667,1.18416667 9.65233333,2.79166667 L0.0248333333,63.84 C-0.165166667,65.045 0.765666667,66.1341667 1.98566667,66.1341667 L16.259,66.1341667 L19.8265,43.51 L19.7331667,44.1116667 C19.9856667,42.5033333 21.3606667,41.32 22.989,41.32 L29.7715,41.32 C43.0956667,41.32 53.5265,35.9066667 56.5748333,20.2533333 C56.6665,19.79 56.7431667,19.3408333 56.8123333,18.8991667 L56.8123333,18.8991667 C57.7198333,13.1125 56.8056667,9.175 53.6756667,5.60833333" id="Fill-1" fill="#243C7F"></path>
                <path d="M53.6211667,17.627 C53.1561667,17.4911667 52.6761667,17.3686667 52.1811667,17.2586667 C51.6878333,17.1486667 51.1786667,17.052 50.6561667,16.9678333 C48.8253333,16.6728333 46.8236667,16.5328333 44.677,16.5328333 L26.5536667,16.5328333 C26.1086667,16.5328333 25.6845,16.6336667 25.3045,16.8161667 C24.4686667,17.2161667 23.8478333,18.0086667 23.6953333,18.9753333 L19.8436667,43.3986667 L19.7328333,44.112 C19.9861667,42.5036667 21.3603333,41.3195 22.9886667,41.3195 L29.772,41.3195 C43.0953333,41.3195 53.527,35.907 56.5753333,20.2528333 C56.6661667,19.7895 56.7428333,19.3403333 56.812,18.8986667 C56.042,18.4911667 55.2053333,18.1386667 54.307,17.8403333 C54.082,17.7661667 53.8536667,17.6945 53.6211667,17.627" id="Fill-5" fill="#252D64"></path>
            </g>
        </g>
    </g>
</svg>