<svg xmlns="http://www.w3.org/2000/svg" width="20" height="20" viewBox="0 0 20 20">
  <path fill="#FFFFFF" fill-rule="evenodd" d="M91.9014,165.298 C92.0544,165.102 92.2484,165.061 92.3824,165.061 C92.6944,165.061 93.0054,165.273 93.1924,165.612 C93.6274,166.398 94.1384,167.302 94.5754,168.068 C93.6844,167.541 92.6614,166.931 92.1074,166.589 C91.8904,166.455 91.7504,166.25 91.7094,166.011 C91.6674,165.763 91.7354,165.51 91.9014,165.298 M98.8074,165.612 C98.9954,165.273 99.3054,165.061 99.6174,165.061 C99.7524,165.061 99.9464,165.103 100.0984,165.298 C100.2644,165.51 100.3334,165.763 100.2914,166.011 C100.2504,166.25 100.1094,166.455 99.8924,166.589 C99.3384,166.931 98.3154,167.541 97.4244,168.068 C97.8614,167.302 98.3734,166.398 98.8074,165.612 M91.5884,167.502 C92.3494,167.973 93.9854,168.941 94.9644,169.517 L97.0354,169.517 C98.0144,168.941 99.6504,167.973 100.4124,167.502 C100.8864,167.208 101.2004,166.744 101.2934,166.196 C101.3854,165.647 101.2384,165.075 100.8864,164.627 C100.5704,164.223 100.1194,164 99.6174,164 C98.9434,164 98.2954,164.415 97.9254,165.082 C97.2904,166.233 96.4864,167.639 96.0004,168.486 C95.5124,167.639 94.7104,166.233 94.0744,165.082 C93.7054,164.415 93.0564,164 92.3824,164 C91.8804,164 91.4294,164.223 91.1134,164.627 C90.7614,165.075 90.6144,165.647 90.7074,166.196 C90.7994,166.744 91.1134,167.208 91.5884,167.502 Z M104,169.5172 L98.333,169.5172 L98.333,173.6552 L93.667,173.6552 L93.667,169.5172 L88,169.5172 C86.896,169.5172 86,170.4132 86,171.5172 L86,173.3452 C86,173.7792 86.28,174.1392 86.667,174.2772 L86.667,182.0002 C86.667,183.1042 87.563,184.0002 88.667,184.0002 L94.333,184.0002 L94.333,175.0002 L97.667,175.0002 L97.667,184.0002 L103.333,184.0002 C104.437,184.0002 105.333,183.1042 105.333,182.0002 L105.333,174.2772 C105.72,174.1392 106,173.7792 106,173.3452 L106,171.5172 C106,170.4132 105.104,169.5172 104,169.5172 Z" transform="translate(-86 -164)"/>
</svg>
