<svg xmlns="http://www.w3.org/2000/svg" width="30" height="56" viewBox="0 0 30 56">
  <g fill="none" fill-rule="evenodd">
    <rect width="30" height="56" fill="#FFFFFF" fill-opacity=".01"/>
    <path fill="#48515F" d="M29.27,23.8416994 L16.76,15.5416994 C15.6978175,14.8194335 14.3021825,14.8194335 13.24,15.5416994 L0.73,23.8416994 C0.305997104,24.1226234 0.0363333734,24.5843764 0,25.0916994 C1.82076576e-16,25.3616994 1.82076576e-16,38.9916994 1.82076576e-16,38.9916994 C3.17347326e-16,40.0962689 0.8954305,40.9916994 2,40.9916994 L28,40.9916994 C29.1045695,40.9916994 30,40.0962689 30,38.9916994 L30,25.0916994 C29.9636666,24.5843764 29.6940029,24.1226234 29.27,23.8416994 L29.27,23.8416994 Z M1.27,24.6616994 L13.76,16.3716994 L13.76,16.3716994 L13.76,16.3716994 C14.4662433,15.9161428 15.3737567,15.9161428 16.08,16.3716994 L16.08,16.3716994 L16.08,16.3716994 L28.57,24.6616994 C28.7433884,24.7684667 28.8577871,24.9492904 28.88,25.1516994 C28.8555545,25.3585846 28.7376252,25.5428492 28.56,25.6516994 L23,29.8616994 L23,24.4016994 C23.0300384,23.9002298 22.8591944,23.4074338 22.525206,23.032166 C22.1912177,22.6568982 21.7215685,22.4300389 21.22,22.4016994 L8.78,22.4016994 C8.27843148,22.4300389 7.80878228,22.6568982 7.47479395,23.032166 C7.14080563,23.4074338 6.96996164,23.9002298 7,24.4016994 L7,29.8616994 L1.32,25.6516994 C1.14237485,25.5428492 1.02444545,25.3585846 1,25.1516994 C1.01923013,24.945649 1.13399273,24.760548 1.31,24.6516994 L1.27,24.6616994 Z M20,25.8916994 L10,25.8916994 C9.72385763,25.8916994 9.5,25.6678418 9.5,25.3916994 C9.5,25.115557 9.72385763,24.8916994 10,24.8916994 L20,24.8916994 C20.2761424,24.8916994 20.5,25.115557 20.5,25.3916994 C20.5,25.6678418 20.2761424,25.8916994 20,25.8916994 L20,25.8916994 Z M20.5,28.3616994 C20.5,28.6378418 20.2761424,28.8616994 20,28.8616994 L10,28.8616994 C9.72385763,28.8616994 9.5,28.6378418 9.5,28.3616994 C9.5,28.085557 9.72385763,27.8616994 10,27.8616994 L20,27.8616994 C20.1326082,27.8616994 20.2597852,27.9143778 20.3535534,28.008146 C20.4473216,28.1019142 20.5,28.2290912 20.5,28.3616994 L20.5,28.3616994 Z M28,39.9916994 L2,39.9916994 C1.44771525,39.9916994 1,39.5439841 1,38.9916994 L1,26.6516994 L7,31.1116994 L7,31.1116994 L9.88,33.2516994 L10.14,33.4416994 L3.72,37.7616994 C3.49080184,37.9163391 3.43036028,38.2275012 3.58500001,38.4566994 C3.73963974,38.6858976 4.05080183,38.7463391 4.28,38.5916994 L11,34.0716994 L13.25,35.7416994 C13.3723839,35.8334622 13.5029314,35.9137991 13.64,35.9816994 C14.068096,36.1840387 14.5365201,36.2866133 15.01,36.2816994 C15.3284898,36.2812006 15.6451876,36.2340328 15.95,36.1416994 C16.2449278,36.0533326 16.5223499,35.9146216 16.77,35.7316994 L19,34.0716994 L25.71,38.5916994 C25.9391982,38.7463391 26.2503603,38.6858976 26.405,38.4566994 C26.5596397,38.2275012 26.4991982,37.9163391 26.27,37.7616994 L19.85,33.4416994 L23,31.1116994 L29,26.6516994 L29,38.9916994 C29,39.5439841 28.5522847,39.9916994 28,39.9916994 L28,39.9916994 Z"/>
  </g>
</svg>
