<svg xmlns="http://www.w3.org/2000/svg" width="30" height="56" viewBox="0 0 30 56">
  <g fill="none" fill-rule="evenodd">
    <rect width="30" height="56" fill="#FFFFFF" fill-opacity=".01"/>
    <g fill="#48515F" transform="translate(0 17)">
      <path d="M28,0 L2,0 C0.8954305,0 1.3527075e-16,0.8954305 0,2 L0,20 C1.3527075e-16,21.1045695 0.8954305,22 2,22 L28,22 C29.1045695,22 30,21.1045695 30,20 L30,2 C30,0.8954305 29.1045695,0 28,0 L28,0 Z M29,20 C29,20.5522847 28.5522847,21 28,21 L2,21 C1.44771525,21 1,20.5522847 1,20 L1,8 L29,8 L29,20 Z M1,4 L1,2 C1,1.44771525 1.44771525,1 2,1 L28,1 C28.5522847,1 29,1.44771525 29,2 L29,4 L1,4 Z"/>
      <rect width="4.69" height="1.02" x="3.74" y="17.86"/>
      <rect width="4.69" height="1.01" x="9.68" y="17.86"/>
      <rect width="4.69" height="1.01" x="15.63" y="17.86"/>
      <rect width="4.69" height="1.02" x="21.57" y="17.86"/>
      <rect width="10.64" height="3.18" x="3.74" y="11.83"/>
      <path d="M20.81,15.75 C21.3878195,15.7480296 21.944108,15.5305065 22.37,15.14 C23.3045055,15.9911339 24.7460357,15.9462819 25.6258202,15.0386979 C26.5056047,14.1311139 26.5056047,12.6888861 25.6258202,11.7813021 C24.7460357,10.8737181 23.3045055,10.8288661 22.37,11.68 C21.5958637,10.990589 20.4593633,10.8955199 19.5814477,11.4467356 C18.7035321,11.9979513 18.2953549,13.0628752 18.5799316,14.0596653 C18.8645083,15.0564555 19.7733935,15.7453671 20.81,15.75 L20.81,15.75 Z"/>
    </g>
  </g>
</svg>
