<?xml version="1.0" encoding="UTF-8" standalone="no"?>
<svg width="320px" height="122px" viewBox="0 0 320 122" version="1.1" xmlns="http://www.w3.org/2000/svg" xmlns:xlink="http://www.w3.org/1999/xlink">
    <!-- Generator: sketchtool 40.3 (33839) - http://www.bohemiancoding.com/sketch -->
    <title>BD1FEC1F-96C6-4778-8208-267751719D9A</title>
    <desc>Created with sketchtool.</desc>
    <defs>
        <rect id="path-1" x="0" y="0" width="320" height="160"></rect>
        <polygon id="path-3" points="30.9966098 58.9033164 30.9966098 0.0248741967 0.110746621 0.0248741967 0.110746621 58.9033164 30.9966098 58.9033164"></polygon>
        <polygon id="path-5" points="0 0.0176341567 0 42.0089895 17.8681783 42.0089895 17.8681783 0.0176341567 0 0.0176341567"></polygon>
    </defs>
    <g id="Page-1" stroke="none" stroke-width="1" fill="none" fill-rule="evenodd">
        <g id="lg---techError" transform="translate(-440.000000, -319.000000)">
            <g id="in-unexpected-c" transform="translate(440.000000, 301.000000)">
                <mask id="mask-2" fill="white">
                    <use xlink:href="#path-1"></use>
                </mask>
                <g id="Mask"></g>
                <g id="Group" mask="url(#mask-2)">
                    <g transform="translate(-440.000000, 18.000000)">
                        <path d="M633.030116,110.026113 C632.043347,103.995232 633.610535,92.9424862 634.648794,86.8053696 C622.978205,83.8243369 625.357092,64.1939362 621.739703,55.4727705 C619.0061,59.5977295 612.966486,58.2876407 609.308762,61.6156218 C596.463462,73.3044871 608.0448,90.4557834 622.511782,91.1665976 C622.18839,95.540872 622.14591,101.324589 622.940588,106.620427 C620.092561,107.238483 618.601037,110.40661 619.369255,114.351499 L620.476026,114.351499 C620.411663,112.624356 620.781826,111.093912 621.534168,109.933068 C621.647591,109.75816 621.865284,109.696799 622.093847,109.746261 C622.056659,109.973784 622.036205,110.207903 622.036205,110.447469 C622.036205,110.898789 622.105718,111.331471 622.232157,111.734189 C621.937085,112.493031 621.776462,113.376029 621.781182,114.351499 L623.595812,114.351499 C623.587659,114.126126 623.587373,113.904194 623.593809,113.685846 C623.982996,113.974014 624.426963,114.176305 624.904829,114.27064 C624.904686,114.29788 624.90254,114.324116 624.902683,114.351499 L626.718887,114.351499 C626.718601,114.344761 626.718601,114.338023 626.718458,114.331285 L629.558189,114.331285 C631.480093,114.331285 633.037125,112.594392 633.037125,110.447469 C633.037125,110.30955 633.030402,110.173208 633.017816,110.039016 C633.021963,110.035289 633.025825,110.029411 633.030116,110.026113" id="Fill-1" stroke="none" fill="#ED8B00" fill-rule="evenodd"></path>
                        <path d="M620.797655,109.489996 C620.966002,109.230358 621.363627,109.214731 621.68659,109.45272 C622.010126,109.690566 622.134276,110.094718 621.967074,110.352492 C621.369491,111.274343 621.03766,112.498125 621.044669,113.908427 L619.739371,113.908427 C619.675007,112.181284 620.04517,110.650983 620.797655,109.489996" id="Fill-3" stroke="none" fill="#48515F" fill-rule="evenodd"></path>
                        <path d="M625.05172,109.45272 C625.374684,109.690566 625.499406,110.094575 625.330487,110.352349 C624.734192,111.274343 624.403934,112.498125 624.408082,113.908427 L623.101211,113.908427 C623.039708,112.181284 623.407011,110.650839 624.160639,109.489996 C624.327842,109.230358 624.728328,109.214731 625.05172,109.45272" id="Fill-5" stroke="none" fill="#48515F" fill-rule="evenodd"></path>
                        <path d="M628.412849,109.45272 C628.735669,109.690566 628.85982,110.094575 628.692617,110.352349 C628.096751,111.274343 627.76492,112.498125 627.770641,113.908427 L626.463912,113.908427 C626.400693,112.181284 626.769712,110.650839 627.524914,109.489996 C627.693261,109.230358 628.089313,109.214731 628.412849,109.45272" id="Fill-7" stroke="none" fill="#48515F" fill-rule="evenodd"></path>
                        <path d="M647.238487,64.2837902 C644.998054,50.2772519 638.146169,49.5189832 626.321536,47.0894838 C610.69057,43.8766265 603.738707,37.5129898 595.306904,23.5222219 L567.615305,39.7145354 C568.201731,54.5280873 569.067924,70.9380321 580.647117,81.5638302 C584.904425,85.4698676 591.021848,88.6233709 597.850419,90.7189682 L597.084204,112.033503 C596.835187,116.169644 599.981004,119.523288 604.107726,119.523288 C605.003813,119.523288 605.79134,119.378487 606.478316,119.110104 C606.477029,119.243865 606.474741,119.378057 606.469735,119.513539 L609.055872,119.513539 C609.059877,118.709249 608.985072,117.947827 608.840897,117.238589 C609.400576,116.444479 609.791908,115.474314 610.035347,114.380853 C610.682561,115.844488 610.988646,117.59328 610.919276,119.513539 L613.507131,119.513539 C613.518859,117.504105 613.043997,115.756747 612.194824,114.445511 C611.954389,114.078778 612.133321,113.502729 612.592163,113.161515 C613.052579,112.821878 613.618695,112.846107 613.859129,113.214418 C614.934005,114.871455 615.460215,117.052642 615.371536,119.513539 L616.947734,119.513539 C618.158203,113.303879 615.437759,108.44316 610.521508,108.340795 L611.29559,93.3405795 C631.163125,95.0952498 650.953566,87.5000895 647.238487,64.2837902" id="Fill-9" stroke="none" fill="#F09C26" fill-rule="evenodd"></path>
                        <path d="M584.248685,84.9871119 C588.091491,87.6087232 592.813363,89.7623842 597.929857,91.3240823 L598.464506,76.4508897 C593.968622,70.218434 590.572644,63.0120853 588.437196,55.4123372 C588.223794,55.4911891 588.004528,55.5635895 587.779684,55.627818 C587.77382,55.6289649 587.767956,55.6289649 587.762663,55.6308287 L586.26456,50.3726959 L586.580086,51.4813539 C585.575724,51.6618531 584.646168,51.8248615 583.78026,51.9692322 C580.695517,57.4266453 574.045591,55.5782129 571.685728,51.4291683 C570.54563,50.7989264 569.394948,49.9182221 568.036443,48.7463392 C568.28174,52.2589772 568.646612,55.7830846 569.262216,59.2266196 L571.806303,108.921824 C566.890195,109.023758 564.168893,113.884764 565.379934,120.094567 L566.95556,120.094567 C566.866881,117.633671 567.393091,115.452483 568.468539,113.795446 C568.706971,113.427136 569.271942,113.402907 569.733931,113.742543 C570.192773,114.083757 570.372849,114.659806 570.132701,115.026539 C569.282097,116.337775 568.808379,118.085134 568.819965,120.094567 L571.408248,120.094567 C571.337877,118.174165 571.643534,116.425373 572.290748,114.961738 C572.534186,116.054769 572.925518,117.024647 573.485197,117.818758 C573.341165,118.528138 573.266217,119.289848 573.26965,120.094567 L575.85779,120.094567 C575.852784,119.959086 575.850352,119.824894 575.849065,119.691132 C576.536042,119.959516 577.323712,120.104316 578.219942,120.104316 C582.346091,120.104316 585.490335,116.750673 585.241891,112.614531 L584.248685,84.9871119 Z" id="Fill-12" stroke="none" fill="#ED8B00" fill-rule="evenodd"></path>
                        <path d="M611.556671,89.1049269 L611.326248,93.5698094 C614.242358,93.8229957 617.156179,93.8764716 619.993765,93.7065816 C617.012576,92.466886 614.196588,90.9175175 611.556671,89.1049269" id="Fill-15" stroke="none" fill="#ED8B00" fill-rule="evenodd"></path>
                        <path d="M613.93808,113.780959 C613.697645,113.412649 613.13153,113.38842 612.671114,113.728057 C612.212271,114.06927 612.03334,114.645319 612.273775,115.012053 C613.122948,116.323288 613.59781,118.070647 613.586081,120.080224 L615.450486,120.080224 C615.539165,117.619184 615.012955,115.437996 613.93808,113.780959" id="Fill-19" stroke="none" fill="#48515F" fill-rule="evenodd"></path>
                        <path d="M608.470237,113.728057 C608.009821,114.06927 607.829602,114.645319 608.071324,115.012053 C608.918924,116.323432 609.393643,118.070647 609.383488,120.080224 L611.246892,120.080224 C611.335714,117.619327 610.810934,115.437996 609.737203,113.780959 C609.499915,113.412649 608.93051,113.38842 608.470237,113.728057" id="Fill-21" stroke="none" fill="#48515F" fill-rule="evenodd"></path>
                        <path d="M603.427739,113.728057 C602.964177,114.06927 602.787248,114.645319 603.027253,115.012053 C603.876426,116.323432 604.349572,118.070647 604.339989,120.080224 L606.204537,120.080224 C606.294217,117.619327 605.766863,115.437996 604.694133,113.780959 C604.45427,113.412649 603.888155,113.38842 603.427739,113.728057" id="Fill-23" stroke="none" fill="#48515F" fill-rule="evenodd"></path>
                        <g id="Group-27" stroke="none" stroke-width="1" fill="none" fill-rule="evenodd" transform="translate(627.297554, 58.835986)">
                            <mask id="mask-4" fill="white">
                                <use xlink:href="#path-3"></use>
                            </mask>
                            <g id="Clip-26"></g>
                            <path d="M29.3796908,54.5779302 C28.3930651,48.5471919 29.9601093,37.4943032 30.9966527,31.3573299 C19.327637,28.3762972 21.7072385,8.74560986 18.088276,0.0248741967 C15.3555317,4.14954647 9.31606081,2.83816735 5.65890911,6.16729543 C-7.18696318,17.8567342 4.39494691,35.0076004 18.8604987,35.7185579 C18.5369633,40.0925457 18.4949123,45.8764057 19.2901629,51.1721007 C16.4407055,51.790013 14.9490385,54.9581398 15.7188296,58.9033164 L16.8243138,58.9033164 C16.7602361,57.176316 17.1302565,55.6455852 17.8837421,54.4847415 C17.9973085,54.3104071 18.214,54.2487592 18.4418479,54.2975041 C18.4045169,54.5253144 18.3840635,54.7595763 18.3840635,54.9992862 C18.3840635,55.4513227 18.4538625,55.8847215 18.5808737,56.2878699 C18.2863735,57.0459953 18.1261792,57.9289934 18.1313283,58.9033164 L19.9456726,58.9033164 C19.9376629,58.6780867 19.9373768,58.4564411 19.9438132,58.2383797 C20.3329997,58.5262609 20.77711,58.7285519 21.2548325,58.8227441 C21.2546894,58.8498405 21.252544,58.8759333 21.252687,58.9033164 L23.0684616,58.9033164 C23.0681756,58.8965782 23.0681756,58.8899833 23.0680325,58.883245 L25.9077638,58.883245 C27.8296672,58.883245 29.3855551,57.1462089 29.3855551,54.9992862 C29.3855551,54.8616537 29.3788326,54.7257417 29.3663889,54.5918368 C29.3709659,54.5878225 29.3751138,54.5815143 29.3796908,54.5779302" id="Fill-25" fill="#F09C26" mask="url(#mask-4)"></path>
                        </g>
                        <path d="M637.93691,62.1992018 C636.251436,62.6681556 634.606869,63.2626991 633.278829,64.4722876 C621.087752,75.5638854 628.920541,92.1660856 644.294052,93.7782489 C631.851812,88.2462849 631.851812,68.3218383 637.93691,62.1992018" id="Fill-28" stroke="none" fill="#ED8B00" fill-rule="evenodd"></path>
                        <path d="M645.176026,112.85314 C645.344945,112.593645 645.742141,112.577875 646.065534,112.816008 C646.388497,113.05371 646.512648,113.458006 646.345445,113.71621 C645.747863,114.636197 645.416031,115.861556 645.423469,117.271715 L644.116598,117.271715 C644.052377,115.544714 644.42254,114.014127 645.176026,112.85314" id="Fill-30" stroke="none" fill="#48515F" fill-rule="evenodd"></path>
                        <path d="M649.428547,112.816008 C649.751939,113.05371 649.874659,113.458006 649.706312,113.71621 C649.110876,114.636053 648.779616,115.861556 648.785481,117.271715 L647.478466,117.271715 C647.416963,115.544714 647.784409,114.014127 648.536464,112.85314 C648.705241,112.593645 649.10401,112.577875 649.428547,112.816008" id="Fill-32" stroke="none" fill="#48515F" fill-rule="evenodd"></path>
                        <path d="M652.789855,112.816008 C653.112819,113.05371 653.237541,113.458006 653.068622,113.71621 C652.4739,114.636053 652.141926,115.861556 652.147934,117.271715 L650.841062,117.271715 C650.778415,115.544714 651.146862,114.014127 651.900347,112.85314 C652.070983,112.593645 652.466463,112.577875 652.789855,112.816008" id="Fill-34" stroke="none" fill="#48515F" fill-rule="evenodd"></path>
                        <path d="M645.617696,29.4078493 C646.930575,36.5641628 645.958967,46.9347674 639.90648,51.401657 C642.443702,52.9888745 644.355021,55.3162964 645.657315,59.0862784 C649.521862,57.1324712 651.985136,53.5178992 652.420665,47.7743253 C652.882225,41.6618678 651.207907,32.9722428 645.617696,29.4078493" id="Fill-82" stroke="none" fill="#F09C26" fill-rule="evenodd"></path>
                        <path d="M568.297305,113.780959 C568.535737,113.412649 569.100851,113.38842 569.562841,113.728057 C570.02154,114.06927 570.201616,114.645319 569.96161,115.012053 C569.110864,116.323288 568.637146,118.070647 568.648874,120.080224 L566.784326,120.080224 C566.695647,117.619184 567.221857,115.437996 568.297305,113.780959" id="Fill-84" stroke="none" fill="#48515F" fill-rule="evenodd"></path>
                        <path d="M574.60461,113.728057 C575.065026,114.06927 575.242241,114.645319 575.002236,115.012053 C574.153205,116.323432 573.681061,118.070647 573.6895,120.080224 L571.828241,120.080224 C571.737989,117.619327 572.262626,115.437996 573.3365,113.780959 C573.575361,113.412649 574.14305,113.38842 574.60461,113.728057" id="Fill-86" stroke="none" fill="#48515F" fill-rule="evenodd"></path>
                        <path d="M578.808266,113.728057 C579.268681,114.06927 579.448757,114.645319 579.208608,115.012053 C578.359006,116.323432 577.884287,118.070647 577.896016,120.080224 L576.031468,120.080224 C575.939642,117.619327 576.468999,115.437996 577.5413,113.780959 C577.781305,113.412649 578.34785,113.38842 578.808266,113.728057" id="Fill-88" stroke="none" fill="#48515F" fill-rule="evenodd"></path>
                        <g id="Page-1" stroke="none" stroke-width="1" fill="none" fill-rule="evenodd" transform="translate(677.733258, 98.353770)">
                            <g id="Group-5" transform="translate(0.000000, 0.060622)"></g>
                        </g>
                        <ellipse id="Oval-2" stroke="none" fill="#48515F" fill-rule="evenodd" cx="586.528694" cy="50.848349" rx="7.98565314" ry="7.98763715"></ellipse>
                        <ellipse id="Oval-2" stroke="none" fill="#C34592" fill-rule="evenodd" cx="586.528694" cy="51.6891529" rx="4.62327287" ry="4.62442151"></ellipse>
                        <path d="M601.032847,52.4343184 C562.054688,27.6941825 520.699555,119.444182 457.152344,119.444182 C453.671875,119.444182 0,119.285156 0,119.285156" id="Path-2" stroke="#0057BF" stroke-width="3.8" fill="none"></path>
                        <g id="Group-2" stroke="none" stroke-width="1" fill="none" fill-rule="evenodd" transform="translate(541.556858, 0.820516)">
                            <path d="M44.3349958,46.4133299 C44.2209041,46.3043709 44.1068123,46.1935481 43.9928932,46.0788544 L44.1242454,46.461788 C44.1339113,46.4604977 44.1390894,46.4576304 44.1478923,46.4549064 C44.2102026,46.4399962 44.2726855,46.4270932 44.3349958,46.4133299" id="Fill-17" fill="#FFDF86"></path>
                            <path d="M15.5073158,9.20333809 C15.5073158,9.20333809 18.2666639,7.14372593 21.4295016,8.45668208 C24.5907659,9.77078518 14.9052997,29.1147383 14.9052997,29.1147383 L6.94549877,19.2903625 L15.5073158,9.20333809 Z" id="Fill-36" fill="#48515F"></path>
                            <path d="M46.8778365,0.235752905 C46.8778365,0.235752905 43.4489618,-0.0551389974 41.4528255,2.73077103 C39.4598359,5.52012188 57.8675995,16.8307847 57.8675995,16.8307847 L59.4602463,4.27612531 L46.8778365,0.235752905 Z" id="Fill-38" fill="#48515F"></path>
                            <path d="M23.171315,44.2635112 C31.4729592,51.8611088 28.5868435,52.5993423 41.6997541,50.2429602 L31.1325462,0.883628957 C16.1965664,5.0315267 14.7336485,19.8750423 15.4988627,29.6019285 C15.8833292,34.5006399 19.685085,41.0748829 23.171315,44.2635112 Z" id="Fill-40" fill="#ED8B00"></path>
                            <g id="Group-44" transform="translate(31.037660, 0.130464)" fill="#ED8B00">
                                <path d="M0.106071559,0.750197171 C0.101780639,0.751774209 17.4336459,47.9792847 17.4336459,47.9792847 C17.4377938,47.9792847 19.1245688,47.9777076 19.1304331,47.9792847 C33.3718558,45.419608 26.7285168,44.0128051 29.7182873,33.3927417 C30.9991272,28.8366777 30.5302726,21.3281112 28.0938878,17.0801431 C23.2295571,8.60986986 13.8051219,-3.04186336 0.106071559,0.750197171 Z" id="Fill-42"></path>
                            </g>
                            <path d="M42.6199416,23.9749981 C40.1804102,21.2351089 37.4264973,16.2290155 36.4540316,12.8035447 L34.2895482,2.36971526 C34.1425126,1.27195316 32.6911802,1.16299414 31.3210893,1.55295273 C29.8830587,1.96714036 28.5342793,2.93314807 28.8878512,3.90058945 C28.9191749,3.98058831 32.4591844,13.6174399 32.4591844,13.6174399 C33.4346538,17.0429107 33.7607637,22.754227 33.1627524,26.3732434 C31.981748,33.4947187 30.5033828,41.9258528 29.5985707,45.2782064 C28.024804,51.1016357 34.6202765,55.9197484 39.3799087,52.7891838 C40.6106878,54.2698795 42.3921576,48.6719842 44.9020601,47.83386 C44.9072092,47.8317095 51.4970676,51.1997584 52.1185359,49.4218627 C57.6104853,49.2663093 59.8385481,41.9046345 55.5198795,37.8656957 C52.8801051,35.399351 47.2910379,29.2192243 42.6199416,23.9749981 Z" id="Fill-45" fill="#FFCC8A"></path>
                            <path d="M47.1666155,39.5180592 C47.7413128,41.5449837 43.7664899,44.729311 43.7664899,44.729311 C43.7664899,44.729311 38.1326541,44.292328 37.5555253,42.2671239 C36.9792546,40.2391959 38.6621537,37.9846044 41.3183766,37.2250454 C43.9708808,36.4654863 46.5889145,37.4931419 47.1666155,39.5180592" id="Fill-47" fill="#48515F"></path>
                            <path d="M45.5624834,39.3377321 C45.4552104,39.9109138 44.6872786,40.2476832 43.8466872,40.0886891 C43.0060959,39.9282613 42.4123755,39.3335744 42.5210788,38.7586722 C42.6284948,38.1854905 43.3974278,37.8485777 44.2385913,38.0078586 C45.0793257,38.166566 45.6740473,38.7613962 45.5624834,39.3377321" id="Fill-49" fill="#F0ECC2"></path>
                            <path d="M51.6332494,19.7286358 C52.1239877,21.4514786 51.2886884,23.19683 49.7687013,23.6313757 C48.2505736,24.0656348 46.6218831,23.0250762 46.1311448,21.3009431 C45.6409786,19.578387 46.4748475,17.8314586 47.996122,17.3969128 C49.5143927,16.9626538 51.1442274,18.0047894 51.6332494,19.7286358" id="Fill-51" fill="#48515F"></path>
                            <path d="M50.7012471,18.7999752 C50.8728839,19.4075651 50.5780977,20.0223233 50.0433059,20.1773032 C49.5059396,20.330706 48.9341029,19.9621092 48.7593194,19.3546626 C48.5866814,18.7472161 48.8798943,18.1307375 49.4172606,17.977478 C49.9520523,17.8240752 50.5266066,18.1908083 50.7012471,18.7999752" id="Fill-53" fill="#F0ECC2"></path>
                            <path d="M28.9590518,26.2109661 C29.4482168,27.9336656 28.6160642,29.6794471 27.0945038,30.1121291 C25.5732294,30.5493988 23.9476856,29.5059728 23.4570903,27.7847071 C22.9679253,26.0620077 23.8000779,24.3149359 25.3214953,23.8808202 C26.8401952,23.4464178 28.4690287,24.4882667 28.9590518,26.2109661" id="Fill-55" fill="#48515F"></path>
                            <path d="M28.0255048,25.2824346 C28.198715,25.8900245 27.9039287,26.506073 27.3675637,26.6597626 C26.8327719,26.8130221 26.2565013,26.4460022 26.0851505,25.8369787 C25.9107961,25.2292454 26.2051532,24.6131968 26.7430917,24.4610843 C27.2778834,24.3062478 27.8524377,24.6747013 28.0255048,25.2824346" id="Fill-57" fill="#F0ECC2"></path>
                            <path d="M54.2555025,8.57414277 C57.9386858,17.4240522 59.3486823,29.8013665 66.6865858,33.7194467 C78.0310649,39.7748441 74.6335139,15.2455887 71.9130702,11.1854316 C66.5607188,3.19973925 55.539632,1.56736113 46.8322097,0.234476938 C51.2817514,2.82426074 52.9815282,5.5070898 54.2555025,8.57414277" id="Fill-59" fill="#F09C26"></path>
                            <g id="Group-63" transform="translate(0.000000, 9.162593)">
                                <mask id="mask-6" fill="white">
                                    <use xlink:href="#path-5"></use>
                                </mask>
                                <g id="Clip-62"></g>
                                <path d="M13.6285791,11.0275127 C15.1585784,20.4939008 20.4747431,31.7532382 16.3023948,38.9605905 C9.8524259,50.1050908 -0.171021796,27.4705754 0.00218836955,22.5821864 C0.345175963,12.9682736 8.84978077,5.75504325 15.5444752,0.0176341567 C13.1278287,4.56968384 13.096505,7.74999684 13.6285791,11.0275127" id="Fill-61" fill="#ED8B00" mask="url(#mask-6)"></path>
                            </g>
                            <path d="M51.4835248,39.6918059 C51.5833603,40.0442023 51.381544,40.4084981 51.0326921,40.5071347 C50.6836972,40.606058 50.3211144,40.4056308 50.2207069,40.054238 C50.1208715,39.7045655 50.323832,39.3389794 50.6726839,39.2403428 C51.0215357,39.1414195 51.3846906,39.3450008 51.4835248,39.6918059" id="Fill-64" fill="#48515F"></path>
                            <path d="M55.1980604,41.0473564 C55.2968947,41.3958819 55.0966517,41.7611813 54.7446532,41.8615383 C54.398948,41.9604616 54.0340767,41.7570237 53.9342413,41.4073512 C53.8355501,41.0575355 54.0383676,40.6951034 54.3846449,40.5947464 C54.734498,40.4943894 55.0976529,40.696537 55.1980604,41.0473564" id="Fill-66" fill="#48515F"></path>
                            <path d="M52.5800696,43.3277969 C52.6787608,43.6787597 52.4770875,44.0427688 52.1280926,44.1419789 C51.7793838,44.2421925 51.4159428,44.0400448 51.3162504,43.6887954 C51.2174162,43.3391229 51.4188034,42.9751138 51.7676553,42.8749002 C52.1165071,42.7759769 52.4796621,42.9792714 52.5800696,43.3277969" id="Fill-68" fill="#48515F"></path>
                            <path d="M34.6554779,44.504411 C34.7558854,44.8552303 35.1191834,45.0575213 35.4680352,44.9573077 C35.8168871,44.8585278 36.0197046,44.4942319 35.9192971,44.1419789 C35.8194617,43.7950304 35.4563067,43.5915925 35.1074549,43.690229 C34.758603,43.790586 34.5556425,44.1558855 34.6554779,44.504411" id="Fill-70" fill="#48515F"></path>
                            <path d="M32.2132718,47.6170403 C32.3135363,47.9684332 32.6768342,48.1717278 33.0258291,48.0713708 C33.374681,47.9715872 33.5774985,47.6074347 33.4776631,47.2560419 C33.3773986,46.9062261 33.0141006,46.7042218 32.6652488,46.8045788 C32.3162539,46.9049358 32.1134364,47.2690883 32.2132718,47.6170403" id="Fill-72" fill="#48515F"></path>
                            <path d="M35.6395147,48.1734338 C35.7393502,48.5215292 36.1025051,48.7238202 36.4487824,48.6247535 C36.7987785,48.5243966 37.0005948,48.1621078 36.9001872,47.810715 C36.8019252,47.4607558 36.4386272,47.2588949 36.088202,47.358105 C35.7424968,47.4567416 35.5391072,47.822041 35.6395147,48.1734338" id="Fill-74" fill="#48515F"></path>
                            <path d="M43.9921494,46.0780946 C43.9177735,45.989207 43.840823,45.908778 43.7681634,45.8142991 C43.4133042,48.6374845 42.5282303,50.6188183 41.3618151,51.9190147 C42.5030569,51.1431118 43.645443,50.0087911 44.4727326,48.351037 C46.054938,49.3419906 47.6374296,49.7004084 49.0262576,49.7485798 C47.4143017,49.2889448 45.6965031,48.1464521 43.9921494,46.0780946" id="Fill-76" fill="#48515F"></path>
                            <path d="M49.0262576,49.7485798 C49.6640314,49.9305127 50.2852137,50.005637 50.8823668,49.9887197 C50.9252761,49.8662842 50.9610337,49.7429885 50.9935017,49.619406 C50.4070759,49.7157487 49.7426983,49.7735257 49.0262576,49.7485798" id="Fill-80" fill="#F4C04E"></path>
                        </g>
                        <g id="Page-1" stroke="none" stroke-width="1" fill="none" fill-rule="evenodd" transform="translate(609.597767, 66.324578) rotate(-19.000000) translate(-609.597767, -66.324578) translate(599.597767, 48.324578)">
                            <path d="M0.156013473,22.6239807 C0.809996435,21.6502163 1.64554793,21.3119705 1.79097088,21.2657668 C1.76575303,21.2718692 1.72456387,21.284074 1.65479448,21.3015093 C0.990724375,16.2661799 1.65395388,9.5030073 4.99952225,7.18759269 C4.75406849,6.71596644 4.6330228,6.10137032 4.50104937,5.67158892 C4.13539052,4.47378031 3.77981881,3.27074109 3.507466,2.03806177 C3.39734805,1.54202604 3.78486238,1.05034914 4.18498563,0.827176648 C4.93647762,0.404369387 5.71991222,0.126275539 6.54873896,0.0103304548 C6.9681959,-0.0489497386 7.50449555,0.146326192 7.62133826,0.610978296 C8.10047745,2.54281519 8.63509591,4.44937082 9.08817665,6.38905361 C13.8543507,7.03852044 16.52324,12.3885579 17.0570179,18.1683767 C16.7745779,18.4970331 18.1060805,18.2956548 18.5465523,18.8814826 C19.0130826,19.570179 19.5477011,21.2605362 19.3821038,22.439166 C19.3762197,22.4783955 19.3678137,22.5193686 19.356886,22.5612134 C19.3972346,22.6937221 19.3955534,22.8532555 19.3459583,23.0267373 C17.7975821,28.5232317 4.1051291,29.7192968 1.04788484,27.2739888 C0.685588366,26.9836902 0.554455535,26.6498032 0.540165419,26.3804271 C0.517469352,26.3176598 0.49393269,26.2618667 0.471236623,26.1912535 C0.269493807,25.5374278 -0.261762275,23.9961428 0.156013473,22.6239807" id="Fill-4" fill="#0057BF"></path>
                            <path d="M5.51489206,2.26197526 C5.8813915,2.16259376 6.31093558,2.1320819 6.58917255,1.88449991 C6.87329368,1.62994379 6.74216085,1.20103415 6.47989519,1.00750176 C6.16719383,0.772996286 5.64014072,0.958682774 5.31483043,1.09031967 C4.8768804,1.26816025 4.47507596,1.50179396 4.05225664,1.70142873 C3.58488578,1.92111415 3.92700797,2.63770707 4.38681348,2.52786436 C4.76424066,2.43720054 5.13998666,2.3631003 5.51489206,2.26197526 Z" id="Fill-6" fill="#D9EEFB"></path>
                            <path d="M19.6842147,24.1117828 C15.0592606,20.9385489 3.96004336,22.5896766 0.926335764,27.9955072 C0.620359159,28.5386184 1.42817102,28.8472241 1.72490108,28.3241636 C4.25845461,23.8642008 14.7894296,22.0570266 19.1958289,24.9556537 C19.7523029,25.3191808 20.2331233,24.4901299 19.6842147,24.1117828" id="Fill-8" fill="#D9EEFB"></path>
                            <path d="M5.66418174,9.27037612 C6.69895427,8.71070135 7.79593083,8.42824867 8.92148762,8.57557738 C9.3846555,8.63485758 9.62842807,7.82847259 9.1644196,7.71862988 C7.88503391,7.4065371 6.49721145,7.56171172 5.28255158,8.2687152 C4.67732313,8.62178106 5.03541663,9.61036546 5.66418174,9.27037612" id="Fill-10" fill="#D9EEFB"></path>
                            <path d="M12.7837698,26.5491577 C12.5484032,27.6345083 13.1107613,31.1747563 13.4554052,32.2383127 C13.7639036,33.1937699 15.3736432,33.4274036 15.5493275,32.2383127 C15.7098812,31.1590645 14.921403,27.6519436 14.6288759,26.5491577 C14.3851034,25.6294429 12.9964403,25.572778 12.7837698,26.5491577" id="Fill-12" fill="#0057BF"></path>
                            <path d="M6.53352516,27.6081809 C6.29815854,28.6917879 6.86051664,32.2346513 7.20516062,33.2964641 C7.51281841,34.2501778 9.12255796,34.4864268 9.29992352,33.2964641 C9.45879599,32.2172159 8.67031782,28.7109668 8.37779073,27.6081809 C8.13485876,26.6867226 6.74619571,26.6309294 6.53352516,27.6081809" id="Fill-14" fill="#0057BF"></path>
                            <path d="M2.12367938,23.0739435 C6.55949954,19.5336955 13.1531272,19.0655563 17.3174352,20.1552657 C17.899127,20.3078251 18.0529559,19.3410348 17.4796701,19.1710402 C12.7723377,17.7762121 5.91812551,18.6305443 1.80929682,22.2222266 C1.35789727,22.6153938 1.64454019,23.4575212 2.12367938,23.0739435" id="Fill-16" fill="#D9EEFB"></path>
                            <g id="Group-20" transform="translate(6.724761, 32.059862)" fill="#0057BF">
                                <path d="M2.34526024,0.752509749 C2.2662443,0.667076529 2.28053442,0.682768345 2.38897118,0.797841661 C2.24691061,0.478774738 1.8568745,0.28960118 1.534086,0.28960118 C1.0557874,0.28960118 0.746448419,0.612155173 0.579170001,1.04280834 C0.400963847,1.50484514 0.56067691,1.93549831 0.856566373,2.29553831 C1.22894999,2.75060097 1.96363008,2.69219255 2.34526024,2.29553831 C2.75547063,1.87098751 2.74538349,1.17880408 2.34526024,0.752509749" id="Fill-18"></path>
                            </g>
                            <path d="M13.575106,32.4063023 L13.575106,32.5440416 C13.575106,33.9275367 15.6438104,33.9275367 15.6438104,32.5440416 L15.6438104,32.4063023 C15.6438104,31.0219354 13.575106,31.0219354 13.575106,32.4063023" id="Fill-21" fill="#0057BF"></path>
                        </g>
                        <path d="M1203.15234,119.004182 L696.00235,118.999543" id="Path-2" stroke="#0057BF" stroke-width="3.8" fill="none"></path>
                        <path d="M1203.15234,119.004182 L696.00235,118.999543" id="Path-2" stroke="#0057BF" stroke-width="3.8" fill="none"></path>
                        <g id="Group-3" stroke="none" stroke-width="1" fill="none" fill-rule="evenodd" transform="translate(691.039748, 115.304634) rotate(23.000000) translate(-691.039748, -115.304634) translate(677.039748, 104.804634)">
                            <path d="M8.59113376,17.9929514 C8.58777138,18.0181756 8.58609019,18.0602158 8.5852496,18.1316841 C13.518702,18.0265836 19.7954254,16.3609511 21.2412489,12.7362454 C21.7430842,12.905247 22.3567186,12.9313119 22.7955092,12.9960538 C24.0135315,13.175145 27.7869627,10.9705572 27.7104686,10.1415245 C27.67012,9.72280418 27.3658246,9.22504826 26.8992943,9.18132646 C24.9575197,9.00055362 23.0241511,8.76596933 21.0773329,8.61210221 C19.3877368,4.04065135 13.7019518,2.22871893 8.09434208,2.57344853 C7.84384475,2.89883964 7.73372679,1.56448384 7.08058443,1.21975423 C6.32068649,0.867457394 4.59494481,0.596718535 3.51225837,0.935562511 C3.47611278,0.947333766 3.438286,0.962468236 3.39961863,0.979284314 C3.26596401,0.960786628 3.1154975,0.985169942 2.95998741,1.06084229 C-1.9121016,3.40164038 0.0372383615,16.9949172 3.04993108,19.6224294 C3.40634339,19.9335269 3.75098737,20.0117216 4.01157184,19.9856567 C4.07713825,19.997428 4.13261753,20.0134032 4.2057493,20.0226521 C4.87402238,20.1235485 6.45686289,20.4136259 7.66816038,19.7964758 C8.44571082,19.0120058 8.57684365,18.1417737 8.59113376,17.9929514 Z" id="Fill-3" fill="#0057BF"></path>
                            <path d="M3.60590066,0.995343669 C3.12255849,0.514403832 2.4399953,1.1105338 2.91240973,1.59820007 C6.66062313,5.48103253 7.31544669,16.0684354 3.6496116,19.2189276 C3.21922693,19.5897221 3.69332255,20.3329928 4.14135972,19.9529494 C8.59483238,16.1701726 7.66009067,5.04885932 3.60590066,0.995343669" id="Fill-8" fill="#D9EEFB"></path>
                            <path d="M20.9889023,9.14231316 C21.3823008,10.2219054 21.3612859,11.338493 21.0620341,12.4365829 C20.8829873,13.105022 21.9009479,13.3068149 22.0993284,12.6602367 C22.4969298,11.3645579 22.3338544,9.98311707 21.7488002,8.77488185 C21.5386515,8.33766382 20.827508,8.69668709 20.9889023,9.14231316" id="Fill-10" fill="#D9EEFB"></path>
                            <path d="M4.36344493,12.2773346 C3.6539827,12.357211 2.96133236,12.4866948 2.25775429,12.5934769 C1.0809212,12.7759313 1.54997324,14.7232332 2.70831325,14.4903305 C3.40516656,14.3490755 4.08268618,14.162417 4.75936521,13.9463304 C5.52514731,13.7033381 5.17209739,12.1865278 4.36344493,12.2773346" id="Fill-12" fill="#D9EEFB"></path>
                            <path d="M8.79497807,2.41327538 C8.50329158,1.87684249 7.61982616,2.17280547 7.89554134,2.71932801 C9.86841797,6.63663343 10.9107558,13.1654758 8.54532133,18.0429793 C8.28978043,18.5684817 9.15475275,18.7240304 9.42794615,18.2229113 C11.9127452,13.6590277 11.1814275,6.81572466 8.79497807,2.41327538" id="Fill-14" fill="#D9EEFB"></path>
                            <path d="M3.7079489,6.68918367 C3.28344839,6.68582045 2.86146967,6.73206467 2.4470563,6.80689622 C2.03096174,6.88425018 1.43834222,6.85818526 1.12732204,7.18021315 C0.853288052,7.46272327 0.76502557,8.04455957 1.15338049,8.37499551 C1.96035176,9.06781793 3.07077784,8.43048857 3.9122135,8.34472657 C4.80660665,8.25307894 4.62251633,6.6959101 3.7079489,6.68918367" id="Fill-16" fill="#D9EEFB"></path>
                        </g>
                    </g>
                </g>
            </g>
        </g>
    </g>
</svg>