<svg xmlns="http://www.w3.org/2000/svg" width="18" height="18" viewBox="0 0 18 18" xmlns:xlink="http://www.w3.org/1999/xlink">
  <defs>
    <rect id="a" width="18" height="18"/>
    <mask id="b" width="18" height="18" x="0" y="0" fill="white">
      <use xlink:href="#a"/>
    </mask>
  </defs>
  <g fill="none" fill-rule="evenodd">
    <use stroke="#FFFFFF" stroke-width="2" mask="url(#b)" opacity=".01" xlink:href="#a"/>
    <path fill="#FC334C" d="M9.4199909,1.289595 C9.18859265,0.903468333 8.81225262,0.903468333 8.58085436,1.289595 L0.174231934,15.3089632 C0.00386178803,15.5921228 -0.046994972,16.0178522 0.045818615,16.3881377 C0.137360783,16.7584233 0.45,17 0.9,17 L17.1,17 C17.55,17 17.8634845,16.7584233 17.9550267,16.3881377 C18.0465688,16.0178522 17.9957121,15.5921228 17.8266133,15.3089632 L9.4199909,1.289595 Z M8.3483871,12 L8,9.15053763 L8,7 L10,7 L10,9.15053763 L9.66451613,12 L8.3483871,12 Z M9,15 C8.72548882,15 8.49019706,14.9019618 8.29411765,14.7058824 C8.09803824,14.5098029 8,14.2745112 8,14 C8,13.7254888 8.09803824,13.4901971 8.29411765,13.2941176 C8.49019706,13.0980382 8.72548882,13 9,13 C9.27451118,13 9.50980294,13.0980382 9.70588235,13.2941176 C9.90196176,13.4901971 10,13.7254888 10,14 C10,14.2745112 9.90196176,14.5098029 9.70588235,14.7058824 C9.50980294,14.9019618 9.27451118,15 9,15 Z"/>
  </g>
</svg>
