<?xml version="1.0" encoding="utf-8"?>
<!-- Generator: Adobe Illustrator 21.1.0, SVG Export Plug-In . SVG Version: 6.00 Build 0)  -->
<svg version="1.1" id="Layer_1" xmlns="http://www.w3.org/2000/svg" xmlns:xlink="http://www.w3.org/1999/xlink" x="0px" y="0px"
	 viewBox="0 0 64 75" style="enable-background:new 0 0 64 75;" xml:space="preserve">
<style type="text/css">
	.st0{fill:#7A7A7A;}
	.st1{fill:#3C3C3C;}
	.st2{fill:#313131;}
</style>
<title>Group 6</title>
<desc>Created with Sketch.</desc>
<g id="Roadmap-Completed-profile">
	<g id="No-profile" transform="translate(-582.000000, -618.000000)">
		<g id="Group-6" transform="translate(582.000000, 618.000000)">
			<path id="Fill-3" class="st0" d="M56.8,18.9c-0.8-0.4-1.6-0.8-2.5-1.1c-0.2-0.1-0.5-0.1-0.7-0.2c-0.5-0.1-0.9-0.3-1.4-0.4
				c-0.5-0.1-1-0.2-1.5-0.3c-1.8-0.3-3.8-0.4-6-0.4H26.6c-0.4,0-0.9,0.1-1.2,0.3c-0.8,0.4-1.5,1.2-1.6,2.2l-8.4,53.4
				c-0.2,1.1,0.6,2,1.7,2h12c1.4,0,2.6-1,2.9-2.4l0.1-0.6L34.3,57l0.1-0.8c0.2-1.4,1.4-2.4,2.9-2.4h1.8c11.7,0,20.8-4.7,23.4-18.4
				c1.1-5.7,0.5-10.5-2.4-13.9C59.2,20.4,58.1,19.6,56.8,18.9"/>
			<path id="Fill-1" class="st1" d="M53.7,5.6C50.2,1.7,44,0,36,0H12.9c-1.6,0-3,1.2-3.3,2.8L0,63.8c-0.2,1.2,0.7,2.3,2,2.3h14.3
				l3.6-22.6l-0.1,0.6c0.3-1.6,1.6-2.8,3.3-2.8h6.8c13.3,0,23.8-5.4,26.8-21.1c0.1-0.5,0.2-0.9,0.2-1.4l0,0
				C57.7,13.1,56.8,9.2,53.7,5.6"/>
			<path id="Fill-5" class="st2" d="M53.6,17.6c-0.5-0.1-0.9-0.3-1.4-0.4c-0.5-0.1-1-0.2-1.5-0.3c-1.8-0.3-3.8-0.4-6-0.4H26.6
				c-0.4,0-0.9,0.1-1.2,0.3c-0.8,0.4-1.5,1.2-1.6,2.2l-3.9,24.4l-0.1,0.7c0.3-1.6,1.6-2.8,3.3-2.8h6.8c13.3,0,23.8-5.4,26.8-21.1
				c0.1-0.5,0.2-0.9,0.2-1.4c-0.8-0.4-1.6-0.8-2.5-1.1C54.1,17.8,53.9,17.7,53.6,17.6"/>
		</g>
	</g>
</g>
</svg>