<svg xmlns="http://www.w3.org/2000/svg" width="18" height="18" viewBox="0 0 18 18" xmlns:xlink="http://www.w3.org/1999/xlink">
  <defs>
    <rect id="a" width="18" height="18"/>
    <mask id="b" width="18" height="18" x="0" y="0" fill="white">
      <use xlink:href="#a"/>
    </mask>
  </defs>
  <g fill="none" fill-rule="evenodd">
    <use stroke="#FFFFFF" stroke-width="2" mask="url(#b)" opacity=".01" xlink:href="#a"/>
    <path fill="#666666" d="M15.2248181,4.68067542 L10.5205785,0.0778512886 C10.4697375,0.0280833416 10.400376,0 10.3281092,0 L2.27236218,0 C2.12165511,0 2,0.119443073 2,0.266614002 L2,17.733386 C2,17.8805569 2.12165511,18 2.27236218,18 L15.0319856,18 C15.1823296,18 15.3043478,17.8805569 15.3043478,17.733386 L15.3043478,4.86908265 C15.3043478,4.79834107 15.275659,4.73044337 15.2248181,4.68067542 Z M9.10357996,12.9576246 L9.10357996,13.4400324 C9.10357996,13.797289 8.81685625,14.0869565 8.46323034,14.0869565 C8.10997202,14.0869565 7.82288072,13.797289 7.82288072,13.4400324 L7.82288072,12.8807513 C6.89213144,12.6371335 6.30434783,11.9783256 6.30434783,11.0814704 C6.30434783,10.7242138 6.59107154,10.4345463 6.94469745,10.4345463 C7.29832336,10.4345463 7.58504707,10.7242138 7.58504707,11.0814704 C7.58504707,11.6660046 8.47389058,11.6953427 8.65180632,11.6953427 C8.83008965,11.6953427 9.71930075,11.6660046 9.71930075,11.0814704 C9.71930075,10.792917 9.64541426,10.7101018 8.72275206,10.3138515 L8.08387281,10.024184 C7.26781302,9.67435475 6.41058264,9.30781393 6.41058264,8.16251315 C6.40984745,7.70238745 6.57710295,7.28868282 6.89396941,6.96819172 C7.135479,6.72383117 7.45418343,6.55708667 7.82288072,6.4549603 L7.82288072,6.12518498 C7.82288072,5.76792838 8.10997202,5.47826087 8.46323034,5.47826087 C8.81685625,5.47826087 9.10357996,5.76792838 9.10357996,6.12518498 L9.10357996,6.37325921 C10.1784263,6.5236635 10.8728123,7.20401078 10.8728123,8.16214178 C10.8728123,8.51939838 10.585721,8.8090659 10.2324627,8.8090659 C9.87883677,8.8090659 9.59211306,8.51939838 9.59211306,8.16214178 C9.59211306,7.65968006 8.80068209,7.634427 8.64188127,7.634427 C8.26252374,7.634427 7.95558233,7.72466957 7.80008986,7.88212986 C7.72546817,7.95751768 7.69128188,8.04627478 7.69128188,8.16139905 C7.69128188,8.40056043 7.72179223,8.46369309 8.59666714,8.83840402 L9.23150285,9.12658605 C10.1368881,9.51540898 11,9.88603485 11,11.0814704 C11,12.0949353 10.2534156,12.8094485 9.10357996,12.9576246 Z"/>
  </g>
</svg>
