<?xml version="1.0" encoding="UTF-8" standalone="no"?>
<svg width="18px" height="16px" viewBox="0 0 18 16" version="1.1" xmlns="http://www.w3.org/2000/svg" xmlns:xlink="http://www.w3.org/1999/xlink">
    <!-- Generator: Sketch 41.2 (35397) - http://www.bohemiancoding.com/sketch -->
    <title>direct debit icon</title>
    <desc>Created with Sketch.</desc>
    <defs></defs>
    <g id="Version-02" stroke="none" stroke-width="1" fill="none" fill-rule="evenodd">
        <g id="Components" transform="translate(-614.000000, -1368.000000)" stroke="#006CE5">
            <g id="Group-13" transform="translate(600.000000, 1356.000000)">
                <g id="direct-debit-icon" transform="translate(15.000000, 13.000000)">
                    <g id="card-reload">
                        <path d="M8,11.2727273 L1.45454545,11.2727273 C0.651222145,11.2727273 0,10.6215057 0,9.81818182 L0,1.45454545 C0,0.651222218 0.651222145,0 1.45454545,0 L14.1818182,0 C14.9851421,0 15.6363636,0.651222218 15.6363636,1.45454545 L15.6363636,6.54545455" id="Shape"></path>
                        <path d="M0,2.28571429 L15.6363636,2.28571429" id="Shape"></path>
                        <path d="M0,5.33333333 L15.6363636,5.33333333" id="Shape"></path>
                        <path d="M8.38095238,4 L8.38095238,4.5" id="Shape"></path>
                        <path d="M9.9047619,4 L9.9047619,4.5" id="Shape"></path>
                        <path d="M11.4285714,4 L11.4285714,4.5" id="Shape"></path>
                        <path d="M12.952381,4 L12.952381,4.5" id="Shape"></path>
                        <path d="M10.6409121,9.09078978 C11.153183,8.38277644 11.9863004,7.92217044 12.927063,7.92217044 C14.4845276,7.92217044 15.7469607,9.18459804 15.7469607,10.7420668 C15.7469607,12.2995272 14.4845276,13.5619645 12.927063,13.5619645 C11.6813951,13.5619645 10.6244562,12.7543987 10.2511916,11.6342219" id="Shape"></path>
                        <polyline id="Shape" points="9.45454545 12.7272727 10.1818182 11.2727273 11.6363636 11.6363636"></polyline>
                    </g>
                </g>
            </g>
        </g>
    </g>
</svg>