<?xml version="1.0" encoding="UTF-8"?>
<svg width="50px" height="14px" viewBox="0 0 50 14" version="1.1" xmlns="http://www.w3.org/2000/svg" xmlns:xlink="http://www.w3.org/1999/xlink">
    <!-- Generator: Sketch 45 (43475) - http://www.bohemiancoding.com/sketch -->
    <title>paypal-icon-dd</title>
    <desc>Created with Sketch.</desc>
    <defs>
        <polygon id="path-1" points="49.5305484 11.4853882 49.5305484 0.795719446 45.5326522 0.795719446 45.5326522 11.4853882 49.5305484 11.4853882"></polygon>
    </defs>
    <g id="DD-Single-Address" stroke="none" stroke-width="1" fill="none" fill-rule="evenodd">
        <g id="paypal-icon-dd" transform="translate(0.000000, -5.000000)">
            <g id="Group-30">
                <rect id="Rectangle-7" x="0" y="0" width="50" height="24"></rect>
                <g id="Group-29" transform="translate(0.000000, 5.000000)">
                    <path d="M6.43764536,4.40020508 C6.22720552,5.78100554 5.17219295,5.78100554 4.15206612,5.78100554 L3.5713872,5.78100554 L3.97876272,3.20227347 C4.00295768,3.04641294 4.13799929,2.93162757 4.29554783,2.93162757 L4.56169234,2.93162757 C5.25659395,2.93162757 5.91210843,2.93162757 6.2508378,3.32774963 C6.45283755,3.56407244 6.51473162,3.91518063 6.43764536,4.40020508 M8.79862284,1.77870983 C8.25170432,1.13613684 7.28165542,0.796282119 5.99369607,0.796282119 L2.14557287,0.796282119 C1.88224173,0.796282119 1.65829773,0.987591066 1.61722257,1.24754616 L0.0608680197,11.1151491 C0.0299209841,11.3098341 0.180717448,11.4853882 0.378215802,11.4853882 L2.21534437,11.4853882 C2.47867551,11.4853882 2.70261951,11.2940793 2.74369467,11.0335615 L3.163449,8.37211642 C3.20396149,8.11159865 3.42846816,7.9202897 3.69123663,7.9202897 L4.90942448,7.9202897 C7.44426803,7.9202897 8.9072188,6.69366175 9.28927402,4.26291277 C9.46145207,3.1994601 9.29658878,2.36389014 8.79862284,1.77870983" id="Fill-1" fill="#253B80"></path>
                    <path d="M14.9278239,7.94223397 C14.7500191,8.99499585 13.9144492,9.70171361 12.8487458,9.70171361 C12.3136434,9.70171361 11.8860116,9.53009823 11.611427,9.20487302 C11.3390931,8.8818985 11.2355612,8.42219435 11.3222129,7.91016158 C11.4882016,6.86640247 12.3378384,6.13661511 13.3872242,6.13661511 C13.9105104,6.13661511 14.3358915,6.31048118 14.6161029,6.63851976 C14.8968769,6.96993438 15.0082862,7.43245189 14.9278239,7.94223397 M17.4964279,4.35575388 L15.6536726,4.35575388 C15.4966867,4.35575388 15.3610824,4.47053925 15.3368874,4.62639977 L15.2552998,5.14180858 L15.1264476,4.95500102 C14.7275122,4.37601012 13.8379256,4.18245048 12.950027,4.18245048 C10.9137121,4.18245048 9.17448865,5.7247382 8.83575928,7.88821732 C8.65964252,8.96742485 8.91003217,9.99936782 9.5222208,10.7190271 C10.0837688,11.380731 10.8872664,11.6564409 11.8432485,11.6564409 C13.484004,11.6564409 14.3938469,10.6014283 14.3938469,10.6014283 L14.3116966,11.1134611 C14.2807495,11.3092714 14.431546,11.4848255 14.627919,11.4848255 L16.2878054,11.4848255 C16.5516993,11.4848255 16.7745179,11.2935166 16.8161557,11.0329988 L17.8120876,4.72599296 C17.8435973,4.53187065 17.6933635,4.35575388 17.4964279,4.35575388" id="Fill-3" fill="#253B80"></path>
                    <path d="M27.3105768,4.35575388 L25.4588188,4.35575388 C25.2821393,4.35575388 25.1161507,4.44353093 25.0159948,4.59038868 L22.4620204,8.35242285 L21.3794368,4.73724643 C21.3113533,4.51105173 21.1026015,4.35575388 20.8662787,4.35575388 L19.046593,4.35575388 C18.8254624,4.35575388 18.6718525,4.57182046 18.7421867,4.78000961 L20.7818777,10.765729 L18.8642868,13.4727506 C18.7134904,13.6860038 18.8654122,13.9791566 19.1259299,13.9791566 L20.9754373,13.9791566 C21.1509914,13.9791566 21.315292,13.8936302 21.4148852,13.7495859 L27.573908,4.85934655 C27.7213284,4.64665602 27.5699693,4.35575388 27.3105768,4.35575388" id="Fill-5" fill="#253B80"></path>
                    <path d="M33.8854152,4.40020508 C33.675538,5.78100554 32.6205255,5.78100554 31.599836,5.78100554 L31.0197197,5.78100554 L31.4276579,3.20227347 C31.4518529,3.04641294 31.5857691,2.93162757 31.7438803,2.93162757 L32.0100249,2.93162757 C32.7043638,2.93162757 33.360441,2.93162757 33.6991703,3.32774963 C33.9011701,3.56407244 33.9625015,3.91518063 33.8854152,4.40020508 M36.2452673,1.77870983 C35.6989115,1.13613684 34.7294253,0.796282119 33.4414659,0.796282119 L29.59278,0.796282119 C29.3300116,0.796282119 29.1060676,0.987591066 29.0649924,1.24754616 L27.5086379,11.1151491 C27.4776908,11.3098341 27.6284873,11.4853882 27.8248603,11.4853882 L29.7998438,11.4853882 C29.9832754,11.4853882 30.1402612,11.3514719 30.1689576,11.1691658 L30.6106562,8.37211642 C30.6511687,8.11159865 30.8756753,7.9202897 31.1384438,7.9202897 L32.356069,7.9202897 C34.8914752,7.9202897 36.3538633,6.69366175 36.7364812,4.26291277 C36.9092219,3.1994601 36.7432333,2.36389014 36.2452673,1.77870983" id="Fill-7" fill="#179BD7"></path>
                    <path d="M42.3750311,7.94223397 C42.1983516,8.99499585 41.3616563,9.70171361 40.295953,9.70171361 C39.7619759,9.70171361 39.3332188,9.53009823 39.0586342,9.20487302 C38.7863003,8.8818985 38.6838937,8.42219435 38.7694201,7.91016158 C38.9365341,6.86640247 39.7850455,6.13661511 40.8344314,6.13661511 C41.3577176,6.13661511 41.7830987,6.31048118 42.06331,6.63851976 C42.3452094,6.96993438 42.4566187,7.43245189 42.3750311,7.94223397 M44.943635,4.35575388 L43.1020051,4.35575388 C42.9438939,4.35575388 42.8094149,4.47053925 42.7857826,4.62639977 L42.704195,5.14180858 L42.5747801,4.95500102 C42.1758447,4.37601012 41.2868208,4.18245048 40.3989222,4.18245048 C38.3626072,4.18245048 36.6239465,5.7247382 36.2852171,7.88821732 C36.1096631,8.96742485 36.3589274,9.99936782 36.971116,10.7190271 C37.5337894,11.380731 38.3361616,11.6564409 39.2921437,11.6564409 C40.9328992,11.6564409 41.8427421,10.6014283 41.8427421,10.6014283 L41.7605917,11.1134611 C41.7296447,11.3092714 41.8804412,11.4848255 42.0779395,11.4848255 L43.7372633,11.4848255 C44.0000318,11.4848255 44.2239758,11.2935166 44.2650509,11.0329988 L45.2615455,4.72599296 C45.2919298,4.53187065 45.1411334,4.35575388 44.943635,4.35575388" id="Fill-9" fill="#179BD7"></path>
                    <mask id="mask-2" fill="white">
                        <use xlink:href="#path-1"></use>
                    </mask>
                    <g id="Clip-12"></g>
                    <path d="M49.2103872,0.795719446 L47.4323394,0.795719446 C47.2753535,0.796282119 47.1403119,0.911067487 47.1161169,1.06692801 L45.5366928,11.1151491 C45.5057457,11.3098341 45.6565422,11.4853882 45.8529152,11.4853882 L47.4407795,11.4853882 C47.7046733,11.4853882 47.9286173,11.2940793 47.9691298,11.0335615 L49.5266097,1.1665212 C49.5575567,0.971836212 49.4067602,0.795719446 49.2103872,0.795719446" id="Fill-11" fill="#179BD7" mask="url(#mask-2)"></path>
                </g>
            </g>
        </g>
    </g>
</svg>