<?xml version="1.0" encoding="UTF-8" standalone="no"?>
<svg width="75px" height="80px" viewBox="0 0 75 80" version="1.1" xmlns="http://www.w3.org/2000/svg" xmlns:xlink="http://www.w3.org/1999/xlink">
    <!-- Generator: Sketch 42 (36781) - http://www.bohemiancoding.com/sketch -->
    <title>Shower desktop</title>
    <desc>Created with Sketch.</desc>
    <defs>
        <rect id="path-1" x="0" y="0" width="75" height="80"></rect>
    </defs>
    <g id="Version-06" stroke="none" stroke-width="1" fill="none" fill-rule="evenodd">
        <g id="tips-icons_all-sizes" transform="translate(-439.000000, -1880.000000)">
            <g id="Shower-desktop" transform="translate(439.000000, 1880.000000)">
                <mask id="mask-2" fill="white">
                    <use xlink:href="#path-1"></use>
                </mask>
                <use id="Mask" fill="#FFFFFF" xlink:href="#path-1"></use>
                <g id="shower-icon" mask="url(#mask-2)">
                    <g transform="translate(8.000000, 3.000000)">
                        <g>
                            <polyline id="Stroke-1" stroke="#50E3C2" stroke-width="4" stroke-linecap="round" stroke-linejoin="round" points="31.7186462 0 31.7186462 28.1719385 23 28.1719385 23 0.340061538"></polyline>
                            <path d="M54.8136,38.3230769 L54.8136,40.5833231 C54.8136,42.4187692 53.3259692,43.9064 51.4905231,43.9064 L3.32307692,43.9064 C1.48763077,43.9064 0,42.4187692 0,40.5833231 L0,38.3230769 C0,36.4876308 1.48763077,35 3.32307692,35 L51.4905231,35 C53.3259692,35 54.8136,36.4876308 54.8136,38.3230769 Z" id="Stroke-3" stroke="#50E3C2" stroke-width="4" stroke-linecap="round" stroke-linejoin="round"></path>
                            <path d="M29.1557538,52.5776 C29.1557538,54.0009846 28.0015385,55.1552 26.5781538,55.1552 C25.1542154,55.1552 24,54.0009846 24,52.5776 C24,51.1542154 25.1542154,50 26.5781538,50 C28.0015385,50 29.1557538,51.1542154 29.1557538,52.5776" id="Fill-5" fill="#50E3C2"></path>
                            <path d="M29.1557538,60.5776 C29.1557538,62.0009846 28.0015385,63.1552 26.5781538,63.1552 C25.1542154,63.1552 24,62.0009846 24,60.5776 C24,59.1542154 25.1542154,58 26.5781538,58 C28.0015385,58 29.1557538,59.1542154 29.1557538,60.5776" id="Fill-7" fill="#50E3C2"></path>
                            <path d="M29.1557538,69.5776 C29.1557538,71.0009846 28.0015385,72.1552 26.5781538,72.1552 C25.1542154,72.1552 24,71.0009846 24,69.5776 C24,68.1542154 25.1542154,67 26.5781538,67 C28.0015385,67 29.1557538,68.1542154 29.1557538,69.5776" id="Fill-9" fill="#50E3C2"></path>
                            <path d="M11.0078293,53.4398908 C10.5320754,54.7818601 9.05829082,55.4835831 7.71687544,55.0078293 C6.37490621,54.5320754 5.67318313,53.0582908 6.14893698,51.7168754 C6.62469082,50.3749062 8.09792159,49.6731831 9.43989082,50.148937 C10.7818601,50.6246908 11.4835831,52.0979216 11.0078293,53.4398908" id="Fill-11" fill="#50E3C2"></path>
                            <path d="M8.00782929,61.4398908 C7.53207544,62.7818601 6.05829082,63.4835831 4.71687544,63.0078293 C3.37490621,62.5320754 2.67318313,61.0582908 3.14893698,59.7168754 C3.62469082,58.3749062 5.09792159,57.6731831 6.43989082,58.148937 C7.78186006,58.6246908 8.48358313,60.0979216 8.00782929,61.4398908" id="Fill-13" fill="#50E3C2"></path>
                            <path d="M5.00782929,69.4398908 C4.53207544,70.7818601 3.05829082,71.4835831 1.71687544,71.0078293 C0.374906209,70.5320754 -0.326816868,69.0582908 0.148936978,67.7168754 C0.624690824,66.3749062 2.09792159,65.6731831 3.43989082,66.148937 C4.78186006,66.6246908 5.48358313,68.0979216 5.00782929,69.4398908" id="Fill-15" fill="#50E3C2"></path>
                            <path d="M45.974947,51.6291623 C46.4994393,52.9528547 45.8514393,54.4510085 44.527747,54.974947 C43.2040547,55.4994393 41.7064547,54.8514393 41.1819623,53.527747 C40.65747,52.2046085 41.30547,50.7064547 42.6291623,50.1819623 C43.9523008,49.65747 45.4504547,50.30547 45.974947,51.6291623" id="Fill-17" fill="#50E3C2"></path>
                            <path d="M48.974947,59.6291623 C49.4994393,60.9528547 48.8514393,62.4510085 47.527747,62.974947 C46.2040547,63.4994393 44.7064547,62.8514393 44.1819623,61.5283008 C43.65747,60.2046085 44.30547,58.7064547 45.6291623,58.1819623 C46.9523008,57.65747 48.4504547,58.30547 48.974947,59.6291623" id="Fill-19" fill="#50E3C2"></path>
                            <path d="M52.974947,67.6291623 C53.4994393,68.9528547 52.8514393,70.4510085 51.527747,70.974947 C50.2040547,71.4994393 48.7064547,70.8514393 48.1819623,69.5283008 C47.65747,68.2046085 48.30547,66.7064547 49.6291623,66.1819623 C50.9523008,65.65747 52.4504547,66.30547 52.974947,67.6291623" id="Fill-21" fill="#50E3C2"></path>
                        </g>
                    </g>
                </g>
            </g>
        </g>
    </g>
</svg>