<svg xmlns="http://www.w3.org/2000/svg" width="30" height="56" viewBox="0 0 30 26">
  <g fill="none" fill-rule="evenodd">
    <rect width="30" height="56" fill="#FFFFFF" fill-opacity=".01"/>
    <path fill="#48515F" d="M28,8 L16.54,8 C18.01,7.16 20.46,5.76 21.6,5.08 C22.2965148,4.6747552 22.779329,3.98345316 22.92,3.19 C23.0570479,2.37749508 22.8344588,1.54552286 22.31,0.91 C21.849799,0.331259658 21.1493969,-0.00419606246 20.41,-3.45792324e-14 C19.3445216,0.0348676321 18.3775796,0.632544392 17.87,1.57 C16.87,3.24 15.71,5.28 14.98,6.51 C14.25,5.28 13.04,3.24 12.09,1.57 C11.5842097,0.635552194 10.6218592,0.0383623604 9.56,-3.45792324e-14 C8.81710306,-0.00727991831 8.11237052,0.328482703 7.65,0.91 C7.11414058,1.53646443 6.87693567,2.36485696 7,3.18 C7.14067104,3.97345316 7.62348517,4.6647552 8.32,5.07 C9.46,5.75 11.92,7.16 13.38,7.99 L2,7.99 C0.8954305,7.99 1.3527075e-16,8.8854305 0,9.99 L0,13.99 C6.76353751e-17,14.5422847 0.44771525,14.99 1,14.99 L1,23.99 C1,25.0945695 1.8954305,25.99 3,25.99 L27,25.99 C28.1045695,25.99 29,25.0945695 29,23.99 L29,15 C29.5522847,15 30,14.5522847 30,14 L30,10 C30,8.8954305 29.1045695,8 28,8 L28,8 Z M19.2,2.34 C19.4329658,1.87766147 19.8933542,1.57327244 20.41,1.54 C20.6898077,1.53523029 20.9559128,1.660891 21.13,1.88 C21.3639974,2.1571823 21.4693981,2.52063301 21.42,2.88 C21.3541466,3.23498763 21.1344412,3.54257508 20.82,3.72 C19.99,4.22 18.45,5.1 17.12,5.87 C17.78,4.79 18.55,3.48 19.2,2.34 L19.2,2.34 Z M9.15,3.75 C8.83555877,3.57257508 8.61585344,3.26498763 8.55,2.91 C8.50060191,2.55063301 8.60600262,2.1871823 8.84,1.91 C9.01408723,1.690891 9.28019227,1.56523029 9.56,1.57 C10.0766458,1.60327244 10.5370342,1.90766147 10.77,2.37 C11.42,3.51 12.19,4.82 12.84,5.93 C11.51,5.13 10,4.25 9.15,3.75 L9.15,3.75 Z M1,10 C1,9.44771525 1.44771525,9 2,9 L11.5,9 L11.5,14 L1,14 L1,10 Z M3,25 C2.44771525,25 2,24.5522847 2,24 L2,15 L12.5,15 L12.5,25 L3,25 Z M28,24 C28,24.5522847 27.5522847,25 27,25 L17.5,25 L17.5,15 L28,15 L28,24 Z M29,14 L18.49,14 L18.49,9 L28,9 C28.5522847,9 29,9.44771525 29,10 L29,14 Z"/>
  </g>
</svg>
