<?xml version="1.0" encoding="UTF-8" standalone="no"?>
<svg width="54px" height="37px" viewBox="0 0 54 37" version="1.1" xmlns="http://www.w3.org/2000/svg" xmlns:xlink="http://www.w3.org/1999/xlink">
    <!-- Generator: Sketch 42 (36781) - http://www.bohemiancoding.com/sketch -->
    <title>No_Credit</title>
    <desc>Created with Sketch.</desc>
    <defs></defs>
    <g id="Billing-States-Working" stroke="none" stroke-width="1" fill="none" fill-rule="evenodd">
        <g id="wd/billing/PAYG-debitBalance" transform="translate(-392.000000, -98.000000)">
            <g id="No_Credit" transform="translate(392.000000, 98.000000)">
                <g id="Group-38">
                    <g id="Group-37" fill="#001CB0">
                        <path d="M13.976013,0 L0.511791892,0 C0.229282768,0 0,0.255419565 0,0.570132958 L0,35.7530378 C0,36.0688914 0.229282768,36.3231707 0.511791892,36.3231707 L13.976013,36.3231707 C14.2585221,36.3231707 14.4878049,36.0688914 14.4878049,35.7530378 L14.4878049,0.570132958 C14.4878049,0.255419565 14.2585221,0 13.976013,0" id="Fill-1"></path>
                        <path d="M33.7321105,16.7645403 L20.2678895,16.7645403 C19.9853803,16.7645403 19.7560976,16.9020739 19.7560976,17.071535 L19.7560976,36.0161761 C19.7560976,36.1862511 19.9853803,36.3231707 20.2678895,36.3231707 L33.7321105,36.3231707 C34.0146197,36.3231707 34.2439024,36.1862511 34.2439024,36.0161761 L34.2439024,17.071535 C34.2439024,16.9020739 34.0146197,16.7645403 33.7321105,16.7645403" id="Fill-1-Copy-2"></path>
                    </g>
                    <path d="M53.4882081,33.7286585 L40.023987,33.7286585 C39.7414779,33.7286585 39.5121951,33.7469028 39.5121951,33.7693823 L39.5121951,36.2824469 C39.5121951,36.3050079 39.7414779,36.3231707 40.023987,36.3231707 L53.4882081,36.3231707 C53.7707172,36.3231707 54,36.3050079 54,36.2824469 L54,33.7693823 C54,33.7469028 53.7707172,33.7286585 53.4882081,33.7286585" id="Fill-1-Copy-2" fill="#50E3C2"></path>
                </g>
            </g>
        </g>
    </g>
</svg>