<?xml version="1.0" encoding="utf-8"?>
<!-- Generated by IcoMoon.io -->
<!DOCTYPE svg PUBLIC "-//W3C//DTD SVG 1.1//EN" "http://www.w3.org/Graphics/SVG/1.1/DTD/svg11.dtd">
<svg version="1.1" xmlns="http://www.w3.org/2000/svg" xmlns:xlink="http://www.w3.org/1999/xlink" width="1024" height="1024" viewBox="0 0 1024 1024">
<g id="icomoon-ignore">
</g>
<path fill="#fff" d="M694.039 266.323h276.676l-314.915-249.818v219.478c0 16.748 17.123 30.34 38.238 30.34v0zM659.123 589.564c0 4.157-2.013 7.828-6.038 11.013s-8.881 4.794-14.567 4.794h-45.49c-5.686 0-10.542-1.608-14.567-4.794s-6.038-6.857-6.038-11.013v-12.379c0-14.29-4.983-26.244-14.918-35.831-9.967-9.557-24.885-14.381-44.819-14.381-19.87 0-34.82 4.46-44.755 13.258-9.967 8.829-14.918 21.147-14.918 36.954v5.613c0 5.643 0.926 10.528 2.843 14.684 1.885 4.126 4.824 7.888 8.881 11.256 4.025 3.398 9.232 6.887 15.653 10.437 6.389 3.58 14.056 7.615 23.064 12.106l92.417 47.391c13.257 6.766 24.055 13.532 32.328 20.297 8.306 6.766 14.823 14.199 19.55 22.269 4.728 8.101 7.827 17.021 9.264 26.79 1.406 9.769 2.108 21.238 2.108 34.375 0 30.067-9.711 54.035-29.134 71.905-19.423 17.84-45.49 29.399-78.17 34.678v34.952c0 4.521-1.917 8.252-5.686 11.286-3.833 2.973-8.306 4.49-13.513 4.49h-40.538c-5.207 0-9.711-1.517-13.481-4.49-3.801-3.034-5.686-6.766-5.686-11.286v-34.405c-32.233-5.249-58.3-16.808-78.202-34.648-19.902-17.87-29.837-42.021-29.837-72.482v-24.818c0-4.096 1.981-7.767 6.038-10.983 4.025-3.186 8.881-4.794 14.567-4.794h45.49c5.686 0 10.542 1.608 14.567 4.794 4.025 3.216 6.038 6.887 6.038 10.983v24.818c0 14.29 5.463 26.214 16.356 35.831 10.893 9.557 25.332 14.351 43.349 14.351 19.902 0 34.852-4.399 44.787-13.228 9.967-8.859 14.918-21.177 14.918-36.954v-10.134c0-6.371-1.31-11.833-3.897-16.353-2.619-4.49-6.165-8.556-10.67-12.136s-9.839-6.948-16.004-10.134c-6.133-3.186-13.034-6.857-20.605-11.013l-101.649-52.427c-10.893-5.643-19.774-11.924-26.642-18.871s-12.299-14.411-16.356-22.3c-4.025-7.888-6.74-15.959-8.146-24.211-1.438-8.313-2.14-16.383-2.14-24.272 0-30.067 9.584-54.581 28.783-73.574s45.586-31.098 79.256-36.377v-33.829c0-4.521 1.885-8.283 5.686-11.286 3.77-2.973 8.274-4.521 13.481-4.521h40.538c5.207 0 9.679 1.547 13.513 4.521 3.77 3.004 5.686 6.766 5.686 11.286v33.829c31.721 5.279 57.565 16.748 77.467 34.375 19.902 17.688 29.837 41.748 29.837 72.209v12.379zM1022.786 352.64h-429.246c-21.148 0-38.27-13.592-38.27-30.34v-322.3h-517.031c-21.116 0-38.238 13.592-38.238 30.34v963.32c0 16.748 17.123 30.34 38.238 30.34h947.523c21.116 0 38.238-13.592 38.238-30.34v-640.080l-1.214-0.94z"></path>
</svg>
