<?xml version="1.0" encoding="UTF-8"?>
<svg width="30px" height="29px" viewBox="0 0 30 29" version="1.1" xmlns="http://www.w3.org/2000/svg" xmlns:xlink="http://www.w3.org/1999/xlink">
    <!-- Generator: Sketch 42 (36781) - http://www.bohemiancoding.com/sketch -->
    <title>icon_elec</title>
    <desc>Created with Sketch.</desc>
    <defs></defs>
    <g id="Page-1" stroke="none" stroke-width="1" fill="none" fill-rule="evenodd">
        <g id="icon_elec">
            <ellipse id="Oval-1" fill="#00DFED" fill-rule="nonzero" cx="14.9079241" cy="14.4938151" rx="14.9079241" ry="14.4938151"></ellipse>
            <path d="M16.6506467,11.0514004 L20.9224617,6.41001306 C20.9877993,6.33896387 21.0053527,6.23535046 20.9668328,6.14604557 C20.9288004,6.05723407 20.8420086,6 20.7459525,6 L13.7933432,6.01578871 C13.693874,6.01628211 13.6051318,6.07746336 13.5690498,6.17120882 L10.3548272,14.5022203 C10.3255715,14.5777101 10.335811,14.6625744 10.3811573,14.7296764 C10.4269912,14.796285 10.5186589,14.832303 10.5825338,14.83477 L13.423259,14.8026992 L10.0203374,22.6575824 C9.97304072,22.7666231 10.0105855,22.894413 10.108592,22.9595414 C10.1490623,22.9866783 10.1953838,23 10.2412177,23 C10.3060677,23 10.3704302,22.9728632 10.4177269,22.9215498 L20.9224617,11.46092 C20.9877993,11.3903642 21.0053527,11.2867508 20.9668328,11.1974459 C20.9288004,11.1086345 20.8420086,11.0514004 20.7459525,11.0514004 L16.6506467,11.0514004 Z" id="Fill-3-Copy-20" fill="#FFFFFF"></path>
        </g>
    </g>
</svg>