<?xml version="1.0" encoding="UTF-8" standalone="no"?>
<svg width="42px" height="62px" viewBox="0 0 42 62" version="1.1" xmlns="http://www.w3.org/2000/svg" xmlns:xlink="http://www.w3.org/1999/xlink">
    <!-- Generator: Sketch 42 (36781) - http://www.bohemiancoding.com/sketch -->
    <title>light blue elec meter</title>
    <desc>Created with Sketch.</desc>
    <defs></defs>
    <g id="Symbols" stroke="none" stroke-width="1" fill="none" fill-rule="evenodd">
        <g id="light-blue-elec-meter">
            <path d="M10.5586185,55 C6.13739478,55 2.34767636,51.4258294 2.09407363,47.0173558 L0.0211335363,10.9826442 C0.00155559175,10.6423133 0.00360854599,10.3069567 0.0261027218,9.97783452 C0.00876932907,9.81954482 0,9.66023569 0,9.5 C0,8.22698215 0.553499016,7.01244659 1.55756718,5.90295682 C2.32219889,4.91019368 3.33444619,4.11903318 4.51359265,3.61496879 C8.35954338,1.41307435 14.3149893,0 21,0 C27.6855602,0 33.6414356,1.41330665 37.4873556,3.61551175 C38.665154,4.11928248 39.6764484,4.90954585 40.4407039,5.90104694 C41.4458656,7.01105273 42,8.22625166 42,9.5 C42,9.66019111 41.9912355,9.81945618 41.9739117,9.97770243 C41.9964251,10.3068688 41.9984872,10.6422697 41.9789067,10.9826442 L39.9059667,47.0173558 C39.6523513,51.4260485 35.8589225,55 31.4414218,55 L24,55 L24,59.9986107 C24,61.1039475 23.1017394,62 22.0020869,62 L19.9979131,62 C18.8944962,62 18,61.1050616 18,59.9986107 L18,55 L10.5586185,55 Z" id="Combined-Shape" fill="#00DFF3"></path>
            <path d="M5.95254942,12.9947834 C5.82997953,10.7885255 7.51741167,9 9.72989181,9 L31.7313422,9 C33.9400807,9 35.6310773,10.7917156 35.5086846,12.9947834 L34.9525494,23.0052166 C34.8299795,25.2114745 32.9364968,27 30.7337781,27 L10.7274559,27 C8.52006272,27 6.63107725,25.2082844 6.5086846,23.0052166 L5.95254942,12.9947834 Z" id="Rectangle-3" fill="#FFFFFF"></path>
            <rect id="Rectangle-17" fill="#001CB0" x="11" y="14" width="4" height="8"></rect>
            <rect id="Rectangle-17-Copy" fill="#001CB0" x="16" y="14" width="4" height="8"></rect>
            <rect id="Rectangle-17-Copy-2" fill="#001CB0" x="21" y="14" width="4" height="8"></rect>
            <rect id="Rectangle-17-Copy-3" fill="#001CB0" x="26" y="14" width="4" height="8"></rect>
            <path d="M25.4326202,37.7542592 L21.456726,37.7542592 L25.6039827,33.3858946 C25.6674152,33.3190248 25.6844568,33.2215063 25.64706,33.1374547 C25.6101366,33.0538674 25.5258755,33 25.4326202,33 L25.4321468,33 L18.6827363,33.01486 C18.5861674,33.0153243 18.5000127,33.0729067 18.4649828,33.1611377 L15.3444811,41.0020897 C15.3160784,41.0731389 15.3260194,41.1530112 15.3700434,41.216166 C15.4145409,41.2788565 15.5035358,41.3127558 15.5655482,41.3150776 L18.3234431,41.2848933 L15.0197444,48.6777246 C14.9738268,48.7803512 15.0102768,48.900624 15.1054256,48.9619213 C15.1447159,48.9874619 15.1896868,49 15.2341842,49 C15.2971434,49 15.3596291,48.9744594 15.4055467,48.9261646 L25.6039827,38.1396895 C25.6674152,38.073284 25.6844568,37.9757655 25.64706,37.8917138 C25.6101366,37.8081265 25.5258755,37.7542592 25.4326202,37.7542592" id="Fill-3" fill="#FFFFFF"></path>
        </g>
    </g>
</svg>