<svg id="Layer_1" data-name="Layer 1" xmlns="http://www.w3.org/2000/svg" width="20" height="20" viewBox="0 0 20 20"><title>icon_</title><circle cx="10" cy="10" r="10" style="fill:#001cb0"/><path d="M13,14.34H7V13.08l2.15-2.17q1-1,1.25-1.36a3,3,0,0,0,.42-.7A1.78,1.78,0,0,0,11,8.19a1,1,0,0,0-.28-.77,1.1,1.1,0,0,0-.76-.25A2.18,2.18,0,0,0,9,7.4,5,5,0,0,0,8,8L7,6.88a6.42,6.42,0,0,1,1-.76A3.85,3.85,0,0,1,9,5.78a4.65,4.65,0,0,1,1.1-.12,3.26,3.26,0,0,1,1.42.29,2.26,2.26,0,0,1,1,.82A2.18,2.18,0,0,1,12.77,8a3,3,0,0,1-.21,1.11,4.26,4.26,0,0,1-.64,1.06,15.76,15.76,0,0,1-1.54,1.55l-1.1,1v.08H13Z" style="fill:#fff"/></svg>