<?xml version="1.0" encoding="UTF-8" standalone="no"?>
<svg width="13px" height="21px" viewBox="0 0 13 21" version="1.1" xmlns="http://www.w3.org/2000/svg" xmlns:xlink="http://www.w3.org/1999/xlink">
    <!-- Generator: Sketch 3.8.3 (29802) - http://www.bohemiancoding.com/sketch -->
    <title>Group 3 Copy</title>
    <desc>Created with Sketch.</desc>
    <defs></defs>
    <g id="Page-1" stroke="none" stroke-width="1" fill="none" fill-rule="evenodd">
        <g id="Group-3-Copy" transform="translate(0.078125, 0.277344)" fill="#DFE79C">
            <path d="M0.493019083,0.500578704 L0.493019083,6.30194555 L0.503000846,6.30194555 L0.493019083,6.31161449 L4.4857245,10.1695234 L0.493019083,14.0371013 L0.503000846,14.0467703 L0.493019083,14.0467703 L0.493019083,19.8384682 L12.4711353,19.8384682 L12.4711353,14.0467703 L12.4611536,14.0467703 L12.4711353,14.0371013 L8.47842991,10.1695234 L12.4711353,6.31161449 L12.4611536,6.30194555 L12.4711353,6.30194555 L12.4711353,0.500578704 L0.493019083,0.500578704 L0.493019083,0.500578704 Z M10.4747826,14.5205486 L10.4747826,17.9046792 L2.48937179,17.9046792 L2.48937179,14.5205486 L6.48207721,10.6529707 L10.4747826,14.5205486 L10.4747826,14.5205486 Z M6.48207721,9.68607621 L2.48937179,5.81849831 L2.48937179,2.43436765 L10.4747826,2.43436765 L10.4747826,5.81849831 L6.48207721,9.68607621 L6.48207721,9.68607621 Z" id="Shape"></path>
        </g>
    </g>
</svg>