<?xml version="1.0" encoding="UTF-8"?>
<svg width="31px" height="30px" viewBox="0 0 31 30" version="1.1" xmlns="http://www.w3.org/2000/svg" xmlns:xlink="http://www.w3.org/1999/xlink">
    <!-- Generator: Sketch 42 (36781) - http://www.bohemiancoding.com/sketch -->
    <title>icon_gas</title>
    <desc>Created with Sketch.</desc>
    <defs></defs>
    <g id="Page-1" stroke="none" stroke-width="1" fill="none" fill-rule="evenodd">
        <g id="icon_gas">
            <ellipse id="Oval-1" fill="#F6A623" fill-rule="nonzero" cx="15.1422991" cy="15.4078771" rx="14.9079241" ry="14.4938151"></ellipse>
            <path d="M20.7259176,17.0277544 L20.9969936,17.0027909 C20.9974947,16.9961679 21,16.9391083 21,16.9324853 C21,16.709851 20.9854691,16.4948586 20.9564074,16.2895459 C20.7439559,13.8894766 19.8059627,11.8674272 19.7658775,11.7823472 C19.7142678,11.6728132 19.6000251,11.6076022 19.4792684,11.6305279 C19.3610172,11.6503969 19.2693223,11.7471944 19.2557936,11.8684461 C19.2182137,12.186859 19.011274,13.0779057 18.5062007,13.3754308 C18.26118,13.5190987 17.9685582,13.5129852 17.6097958,13.3575997 C16.2008017,12.7457374 15.2132031,8.07500182 15.6827007,6.54560085 C15.7413253,6.35302471 15.808468,6.13446607 15.5869974,6.02849825 C15.4406865,5.95972106 15.3114117,6.01576173 15.19767,6.19305405 L15.1440561,6.27456776 C14.5046975,7.18803077 13.6804459,8.23242517 12.8075911,9.33795486 C11.9096831,10.4755806 10.9812101,11.6514158 10.2125767,12.7426806 C9.0085181,14.4534496 9,16.7016996 9,16.7959498 C9.00200426,16.8708405 9,16.8998798 9,16.9324853 C9,20.2959447 11.6912188,23.0322581 14.9997495,23.0322581 C18.1775022,23.0322581 20.7890517,20.5246926 20.9814606,17.3069389 C20.9929851,17.2758618 21,17.2417279 21,17.2065751 L20.9954904,17.0231693 L20.7259176,17.0277544 Z" id="Fill-1-Copy" fill="#FFFFFF"></path>
        </g>
    </g>
</svg>