<?xml version="1.0" encoding="UTF-8"?>
<svg width="40px" height="24px" viewBox="0 0 40 24" version="1.1" xmlns="http://www.w3.org/2000/svg" xmlns:xlink="http://www.w3.org/1999/xlink">
    <!-- Generator: Sketch 45 (43475) - http://www.bohemiancoding.com/sketch -->
    <title>visa-icon-dd</title>
    <desc>Created with Sketch.</desc>
    <defs></defs>
    <g id="DD-Single-Address" stroke="none" stroke-width="1" fill="none" fill-rule="evenodd">
        <g id="visa-icon-dd">
            <g id="ico--visa-copy">
                <g id="Slice-1">
                    <g id="Group">
                        <rect id="Rectangle-path" fill="#0E4595" x="0" y="0" width="40" height="24" rx="3"></rect>
                        <path d="M14.0930182,16.9314597 L15.7829829,7.01441701 L18.4861157,7.01441701 L16.7949859,16.9314597 L14.0930182,16.9314597 L14.0930182,16.9314597 Z M26.5606107,7.22834748 C26.0250499,7.02743622 25.1858933,6.81183402 24.1379734,6.81183402 C21.4670086,6.81183402 19.5855552,8.15681486 19.5695978,10.0845194 C19.5545016,11.5095405 20.9127043,12.304371 21.9380306,12.778787 C22.9902058,13.2648039 23.3439028,13.5748333 23.3389383,14.0089253 C23.3322514,14.6735636 22.4986672,14.9773115 21.7217698,14.9773115 C20.6398074,14.9773115 20.0650371,14.8270586 19.1772991,14.4567456 L18.8290225,14.299198 L18.449591,16.5192016 C19.0809974,16.7960498 20.2484712,17.0359174 21.4606257,17.0483287 C24.302056,17.0483287 26.1465288,15.7186467 26.1676027,13.6601421 C26.1778357,12.5320806 25.4576757,11.6735218 23.8982072,10.9657225 C22.9533771,10.5070106 22.3747061,10.2007805 22.3808864,9.73634414 C22.3808864,9.32413665 22.8706013,8.88325649 23.9288048,8.88325649 C24.8127941,8.86957871 25.4531165,9.06238463 25.9519498,9.26319458 L26.194097,9.37768259 L26.5606107,7.22824617 L26.5606107,7.22834748 Z M33.5163652,7.01441701 L31.4277189,7.01441701 C30.7806083,7.01441701 30.2964152,7.19106289 30.0122216,7.83680567 L25.9977957,16.9250767 L28.8361865,16.9250767 C28.8361865,16.9250767 29.3003695,15.7030439 29.4053338,15.4348076 C29.7155152,15.4348076 32.4728526,15.4390629 32.867127,15.4390629 C32.9479272,15.7861743 33.1959001,16.9250261 33.1959001,16.9250261 L35.7041501,16.9250261 L33.5163146,7.01431569 L33.5163652,7.01441701 Z M30.2023932,13.4179949 C30.4259488,12.846568 31.2793911,10.6458146 31.2793911,10.6458146 C31.263383,10.672157 31.5012749,10.0716015 31.6377993,9.69926219 L31.8204736,10.5543762 C31.8204736,10.5543762 32.3380506,12.9214918 32.4462063,13.4179442 L30.2023932,13.4179442 L30.2023932,13.4179949 Z M11.7984961,7.01441701 L9.15210068,13.7771124 L8.8700853,12.402851 C8.37743224,10.8185598 6.84248236,9.10215148 5.12652997,8.24278218 L7.54627968,16.9157049 L10.406251,16.9124121 L14.6617602,7.01451833 L11.7985468,7.01451833 L11.7984961,7.01441701 Z" id="Shape" fill="#FFFFFF"></path>
                        <path d="M6.6828577,7.01441701 L2.32420794,7.01441701 L2.28960824,7.22074872 C5.68068234,8.04161763 7.92444472,10.0253504 8.85585028,12.4088793 L7.90813271,7.85164858 C7.74450604,7.22373757 7.26983672,7.0363521 6.68280705,7.01446767" id="Shape" fill="#F2AE14"></path>
                    </g>
                </g>
            </g>
        </g>
    </g>
</svg>