<?xml version="1.0" encoding="UTF-8"?>
<svg width="77px" height="66px" viewBox="0 0 77 66" version="1.1" xmlns="http://www.w3.org/2000/svg" xmlns:xlink="http://www.w3.org/1999/xlink">
    <!-- Generator: Sketch 43.2 (39069) - http://www.bohemiancoding.com/sketch -->
    <title>Exclamation Icon</title>
    <desc>Created with Sketch.</desc>
    <defs></defs>
    <g id="Page-1" stroke="none" stroke-width="1" fill="none" fill-rule="evenodd">
        <g id="Error-Page" transform="translate(-562.000000, -278.000000)">
            <g id="Exclamation-Icon" transform="translate(562.000000, 278.000000)">
                <g id="Group-2">
                    <path d="M36.4334521,1.42317899 C37.5517115,-0.477861845 39.3688509,-0.470920973 40.4830273,1.42317899 L76.4334521,62.5389011 C77.5517115,64.439942 76.6751601,65.9810401 74.4636565,65.9810401 L2.45282299,65.9810401 C0.246675577,65.9810401 -0.631149107,64.4330011 0.48302734,62.5389011 L36.4334521,1.42317899 Z" id="Fill-2" fill="#00DEFE"></path>
                    <circle id="Oval-3" fill="#001CB0" cx="38" cy="56" r="4"></circle>
                    <path d="M35.9156024,45.9942794 C35.9622139,47.1020083 36.8877296,48 38,48 L38,48 C39.1045695,48 40.0379801,47.0984311 40.0843976,45.9942794 C40.0843976,45.9942794 41,24.3076923 41,23.2307692 C41,22.1538462 40.2794932,20 38,20 C35.7201786,20 35,22.1538462 35,23.2307692 C35,24.3076923 35.9156024,45.9942794 35.9156024,45.9942794 Z" id="Path-2" fill="#001CB0"></path>
                </g>
            </g>
        </g>
    </g>
</svg>