<?xml version="1.0" encoding="UTF-8" standalone="no"?>
<svg width="75px" height="80px" viewBox="0 0 75 80" version="1.1" xmlns="http://www.w3.org/2000/svg" xmlns:xlink="http://www.w3.org/1999/xlink">
    <!-- Generator: Sketch 42 (36781) - http://www.bohemiancoding.com/sketch -->
    <title>lighting</title>
    <desc>Created with Sketch.</desc>
    <defs>
        <rect id="path-1" x="0" y="0" width="75" height="80"></rect>
    </defs>
    <g id="Version-06" stroke="none" stroke-width="1" fill="none" fill-rule="evenodd">
        <g id="tips-icons_all-sizes" transform="translate(-439.000000, -1468.000000)">
            <g id="lighting" transform="translate(439.000000, 1468.000000)">
                <mask id="mask-2" fill="white">
                    <use xlink:href="#path-1"></use>
                </mask>
                <use id="Mask" fill="#FFFFFF" xlink:href="#path-1"></use>
                <g mask="url(#mask-2)" stroke-linecap="round" id="table-lamp">
                    <g transform="translate(22.000000, 5.000000)">
                        <g>
                            <path d="M30,21.6666667 L0,21.6666667 L4.40373733,2.58380167 C4.75276317,1.0713645 6.09952283,0 7.65170733,0 L22.3482927,0 C23.9004772,0 25.2472368,1.0713645 25.5962627,2.58380167 L30,21.6666667 Z" id="Shape" stroke="#50E3C2" stroke-width="4"></path>
                            <path d="M15,21.6666667 L15,61.6666667" id="Shape" stroke="#50E3C2" stroke-width="4"></path>
                            <path d="M5,64 L25,64" id="Shape" stroke="#50E3C2" stroke-width="4"></path>
                            <g id="Group" transform="translate(23.333333, 21.666667)" stroke="#50E3C2" stroke-width="2">
                                <path d="M0,0 L0,3.33333333" id="Shape"></path>
                                <path d="M0,8.33333333 L0,15" id="Shape" stroke-dasharray="3,3"></path>
                                <path d="M0,18.3333333 L0,20" id="Shape"></path>
                            </g>
                            <ellipse id="Oval" stroke="#50E3C2" stroke-width="2" cx="23.3333333" cy="41.6666667" rx="1.66666667" ry="1.66666667"></ellipse>
                        </g>
                    </g>
                </g>
            </g>
        </g>
    </g>
</svg>