<svg xmlns="http://www.w3.org/2000/svg" width="30" height="56" viewBox="0 0 30 56">
  <g fill="none" fill-rule="evenodd">
    <rect width="30" height="56" fill="#FFFFFF" fill-opacity=".01"/>
    <g fill="#48515F" transform="translate(0 17)">
      <path d="M28,0 L2,0 C0.8954305,0 1.3527075e-16,0.8954305 0,2 L0,20 C1.3527075e-16,21.1045695 0.8954305,22 2,22 L28,22 C29.1045695,22 30,21.1045695 30,20 L30,2 C30,0.8954305 29.1045695,0 28,0 L28,0 Z M29,20 C29,20.5522847 28.5522847,21 28,21 L2,21 C1.44771525,21 1,20.5522847 1,20 L1,2 C1,1.44771525 1.44771525,1 2,1 L28,1 C28.5522847,1 29,1.44771525 29,2 L29,20 Z"/>
      <path d="M26.5 14L3.5 14C2.94771525 14 2.5 14.4477153 2.5 15 2.5 15.5522847 2.94771525 16 3.5 16L26.5 16C27.0522847 16 27.5 15.5522847 27.5 15 27.5 14.4477153 27.0522847 14 26.5 14L26.5 14zM13.25 17.5L3.25 17.5C2.97385763 17.5 2.75 17.7238576 2.75 18 2.75 18.2761424 2.97385763 18.5 3.25 18.5L13.25 18.5C13.5261424 18.5 13.75 18.2761424 13.75 18 13.75 17.7238576 13.5261424 17.5 13.25 17.5L13.25 17.5zM13.5 11.83L26.93 11.83C27.0128427 11.83 27.08 11.7628427 27.08 11.68L27.08 11.3C27.08 10.79 26.61 10.38 25.65 10.03 24.95 9.77 24.6 9.55 24.44 9.24 25.0683153 9.14680199 25.6105454 8.75041308 25.89 8.18 25.9552043 8.1867305 26.0152193 8.14386262 26.03 8.08L26.03 8.08C26.0409339 8.02258043 26.0175174 7.96403904 25.97 7.93 25.5078714 7.54506533 25.2617121 6.95950468 25.31 6.36L25.31 6.36C25.3257789 6.11358567 25.3257789 5.86641433 25.31 5.62L25.31 5.62C25.2900897 5.45749473 25.2566401 5.29693654 25.21 5.14L25.21 5 25.21 4.94 25.21 4.83 25.21 4.83 25 4.6 24.91 4.47 24.91 4.42 24.82 4.32 24.76 4.26 24.67 4.19 24.6 4.19 24.47 4.12 24.42 4.12 24.22 4.04 24.22 4.04 24.03 3.99 23.95 3.99 23.77 3.99 22.8 3.99 22.62 3.99 22.54 3.99 22.35 4.04 22.35 4.04 22.15 4.12 22.1 4.12 21.97 4.19 21.9 4.19 21.81 4.26 21.75 4.32 21.66 4.42 21.66 4.47 21.57 4.6 21.5 4.72 21.5 4.72 21.5 4.83 21.5 4.89 21.5 5.03C21.4533599 5.18693654 21.4199103 5.34749473 21.4 5.51L21.4 5.51C21.3842211 5.75641433 21.3842211 6.00358567 21.4 6.25L21.4 6.25C21.4482879 6.84950468 21.2021286 7.43506533 20.74 7.82 20.6924826 7.85403904 20.6690661 7.91258043 20.68 7.97L20.68 7.97C20.6947807 8.03386262 20.7547957 8.0767305 20.82 8.07 21.0167064 8.61803078 21.450315 9.04796471 22 9.24 21.8320082 9.5087603 21.5783658 9.71308332 21.28 9.82 20.973676 9.60155806 20.6366859 9.42969312 20.28 9.31 19.09 8.88 18.88 8.55 18.88 7.84 18.8742973 7.71537888 18.917337 7.59343324 19 7.5 19.1715278 7.2529158 19.2812662 6.96828186 19.32 6.67 19.32 6.6 19.32 6.6 19.41 6.57 19.5 6.54 19.74 6.37 19.78 5.81 19.7921644 5.63337353 19.7306192 5.45959893 19.61 5.33 19.7712113 4.6069551 19.675751 3.85034405 19.34 3.19 19.1022503 2.93334904 18.7698108 2.78519667 18.42 2.78 18.1538282 2.56942955 17.8185423 2.46599027 17.48 2.49 17.1365015 2.49714837 16.7973571 2.56836869 16.48 2.7 15.6125596 3.04852472 15.1722153 4.01728204 15.48 4.9 15.48 5.07 15.53 5.23 15.55 5.33 15.4350202 5.46239238 15.3774516 5.6350982 15.39 5.81 15.39 6.35 15.59 6.47 15.76 6.56 15.93 6.65 15.83 6.56 15.84 6.66 15.8783514 6.95837881 15.9881237 7.24310071 16.16 7.49 16.2390597 7.58495172 16.2784596 7.70673319 16.27 7.83 16.27 8.54 16.06 8.83 14.87 9.3 13.87 9.67 13.36 10.11 13.36 10.64L13.36 11.64C13.3476958 11.6843874 13.3564674 11.731967 13.3837908 11.7690489 13.4111143 11.8061307 13.4539599 11.8286031 13.5 11.83L13.5 11.83z"/>
    </g>
  </g>
</svg>
