<svg xmlns="http://www.w3.org/2000/svg" width="30" height="56" viewBox="0 0 30 56">
  <g fill="none" fill-rule="evenodd">
    <rect width="30" height="56" fill="#FFFFFF" fill-opacity=".01"/>
    <g fill="#48515F" transform="translate(0 15)">
      <path d="M9 3.74L21 3.74 21 8 22 8 22 2.74C22 1.6354305 21.1045695.74 20 .74L10 .74C8.8954305.74 8 1.6354305 8 2.74L8 13 9 13 9 3.74zM21 20.74L9 20.74 9 17.12 8 17.12 8 24.74C8 25.8445695 8.8954305 26.74 10 26.74L20 26.74C21.1045695 26.74 22 25.8445695 22 24.74L22 12.12 21 12.12 21 20.74zM15 25.24C14.1715729 25.24 13.5 24.5684271 13.5 23.74 13.5 22.9115729 14.1715729 22.24 15 22.24 15.8284271 22.24 16.5 22.9115729 16.5 23.74 16.5 24.5684271 15.8284271 25.24 15 25.24L15 25.24z"/>
      <path d="M30 10.07L25.8 6.57 25.8 9 12.8 9C12.2477153 9 11.8 9.44771525 11.8 10L11.8 10C11.8 10.5522847 12.2477153 11 12.8 11L25.8 11 25.8 13.45 30 10.07zM17.15 16.12C17.7022847 16.12 18.15 15.6722847 18.15 15.12L18.15 15.12C18.15 14.5677153 17.7022847 14.12 17.15 14.12L4.2 14.12 4.2 11.57 0 15.07 4.2 18.57 4.2 16.12 17.15 16.12z"/>
    </g>
  </g>
</svg>
