<?xml version="1.0" encoding="UTF-8"?>
<svg width="36px" height="36px" viewBox="0 0 36 36" version="1.1" xmlns="http://www.w3.org/2000/svg" xmlns:xlink="http://www.w3.org/1999/xlink">
    <!-- Generator: Sketch 41.2 (35397) - http://www.bohemiancoding.com/sketch -->
    <title>iconExp_bankAccount</title>
    <desc>Created with Sketch.</desc>
    <defs>
        <rect id="path-1" x="0" y="0" width="36" height="36"></rect>
        <mask id="mask-2" maskContentUnits="userSpaceOnUse" maskUnits="objectBoundingBox" x="0" y="0" width="36" height="36" fill="white">
            <use xlink:href="#path-1"></use>
        </mask>
    </defs>
    <g id="Page-1" stroke="none" stroke-width="1" fill="none" fill-rule="evenodd">
        <g id="iconExp_bankAccount">
            <use id="Rectangle-2" stroke="#FFFFFF" mask="url(#mask-2)" stroke-width="2" opacity="0.01" xlink:href="#path-1"></use>
            <g id="Group-6" transform="translate(1.000000, 1.000000)">
                <path d="M29.6516094,13.2669881 C26.9492215,11.083708 23.4330009,9.88165738 19.7511644,9.88165738 C19.4920557,9.88165738 19.2302758,9.88789023 18.9711671,9.90035594 C15.1397421,10.0775471 13.1140642,11.6695964 12.1844784,12.721168 C10.5719498,10.9198729 8.78133957,10.0080953 6.85182574,10.0080953 C6.39059447,10.0080953 5.92223993,10.0633006 5.45922785,10.1710399 C5.24820118,10.2209028 5.06744839,10.3562448 4.95970904,10.5441208 C4.85196969,10.7328873 4.82881908,10.9572701 4.89381886,11.1638447 C5.1369002,11.9367187 5.90176055,13.2919195 6.53929258,14.3844499 C5.34258442,15.1884882 4.38539597,16.3308815 3.76923373,17.6923151 C3.01505827,18.0395742 2.09793818,18.200738 0.884312269,18.2016284 C0.583354412,18.2016284 0.3099992,18.3743675 0.18089006,18.6459419 C-0.088903521,19.2113509 0.00191808063,20.1988132 0.0802739722,20.73751 C0.219177598,21.693808 0.517464231,22.6394212 0.920818991,23.4016103 C1.4773239,24.4505108 3.97046591,26.3061207 8.32990278,28.9150158 C8.5587376,29.0521386 8.70120286,29.1411794 8.75907937,29.1785765 L8.75907937,33.9467106 C8.75907937,34.3767776 9.10811925,34.7258174 9.53818625,34.7258174 L11.7570826,34.7258174 C12.0687254,34.7258174 12.3509847,34.5397222 12.4729706,34.2530109 L13.5886516,31.6467871 C15.1904953,32.1347306 16.8724758,32.382264 18.5882917,32.382264 C20.7145857,32.382264 23.4338913,32.0109639 25.2022413,31.4793904 L26.2449089,34.2236274 C26.3597715,34.5254757 26.6500445,34.7258174 26.9732625,34.7258174 L29.0158582,34.7258174 C29.4076376,34.7258174 29.7388693,34.4337637 29.7887322,34.0446554 L30.5090721,28.3843327 L30.5099625,28.3843327 C32.6531743,26.356874 33.8329647,23.7809241 33.8329647,21.1328511 C33.8329647,18.2799843 32.3094768,15.412871 29.6516094,13.2669881 Z M8.37887522,19.8453213 C7.57661773,19.8453213 6.92572959,19.239844 6.92572959,18.4927918 C6.92572959,17.7457396 7.57661773,17.1402622 8.37887522,17.1402622 C9.1820231,17.1402622 9.83380166,17.7457396 9.83380166,18.4927918 C9.83380166,19.239844 9.1820231,19.8453213 8.37887522,19.8453213 Z" id="Combined-Shape" fill="#006CE5"></path>
                <path d="M14.0723211,9.04832466 C14.2967039,9.13647504 14.5486894,9.11599566 14.7561544,8.99311937 C14.7712913,8.98421529 16.3188202,8.08223213 19.0060711,8.08223213 C20.9934614,8.08223213 23.0645501,8.5772989 25.162351,9.55229551 C25.2656383,9.60037753 25.3796105,9.62619936 25.4935828,9.62619936 C26.1044025,9.62619936 26.2726896,9.04832466 26.3359086,8.83106514 C26.384881,8.66188765 26.4391959,8.43928569 26.4890587,8.20421801 C26.5620722,7.85517813 26.6858389,7.19182428 26.6858389,6.67093568 C26.6858389,2.99266081 23.6931781,0 20.0149032,0 C16.3357379,0 13.3430771,2.99266081 13.3430771,6.67093568 C13.3430771,7.30668689 13.4330083,7.93620524 13.6101995,8.54168259 C13.6769801,8.77318863 13.8479384,8.96017428 14.0723211,9.04832466" id="Fill-1" fill="#50E3C2"></path>
            </g>
        </g>
    </g>
</svg>