<?xml version="1.0" encoding="UTF-8"?>
<svg width="40px" height="24px" viewBox="0 0 40 24" version="1.1" xmlns="http://www.w3.org/2000/svg" xmlns:xlink="http://www.w3.org/1999/xlink">
    <!-- Generator: Sketch 45.1 (43504) - http://www.bohemiancoding.com/sketch -->
    <title>mastercard-icon-dd</title>
    <desc>Created with Sketch.</desc>
    <defs></defs>
    <g id="DD-Single-Address" stroke="none" stroke-width="1" fill="none" fill-rule="evenodd">
        <g id="mastercard-icon-dd">
            <g id="Group-30">
                <rect id="Rectangle-path" fill="#000000" x="0" y="0" width="40" height="24" rx="3"></rect>
                <g id="Group-29" transform="translate(7.000000, 4.000000)">
                    <rect id="Rectangle-path" fill="#F78023" x="9.26666667" y="1.75555556" width="7.71247345" height="12.5799999"></rect>
                    <path d="M10.0444444,8.04444444 C10.0444444,5.48888889 11.2444444,3.22222222 13.0888889,1.75555556 C11.7333333,0.688888889 10.0222222,0.0444444444 8.15555556,0.0444444444 C3.73333333,0.0444444444 0.155555556,3.62222222 0.155555556,8.04444444 C0.155555556,12.4666667 3.73333333,16.0444444 8.15555556,16.0444444 C10.0222222,16.0444444 11.7333333,15.4 13.0888889,14.3333333 C11.2444444,12.8666667 10.0444444,10.6 10.0444444,8.04444444 Z" id="XMLID_330_" fill="#EB001B"></path>
                    <path d="M26.0444444,8.04444444 C26.0444444,12.4666667 22.4666667,16.0444444 18.0444444,16.0444444 C16.1777778,16.0444444 14.4666667,15.4 13.1111111,14.3333333 C14.9777778,12.8666667 16.1555556,10.6 16.1555556,8.04444444 C16.1555556,5.48888889 14.9555556,3.22222222 13.1111111,1.75555556 C14.4666667,0.688888889 16.1777778,0.0444444444 18.0444444,0.0444444444 C22.4666667,0.0444444444 26.0444444,3.62222222 26.0444444,8.04444444 Z" id="Shape" fill="#F7A623"></path>
                </g>
            </g>
        </g>
    </g>
</svg>