<?xml version="1.0" encoding="UTF-8"?>
<svg width="18px" height="18px" viewBox="0 0 18 18" version="1.1" xmlns="http://www.w3.org/2000/svg" xmlns:xlink="http://www.w3.org/1999/xlink">
    <!-- Generator: Sketch 44 (41411) - http://www.bohemiancoding.com/sketch -->
    <title>icon_question</title>
    <desc>Created with Sketch.</desc>
    <defs></defs>
    <g id="Page-1" stroke="none" stroke-width="1" fill="none" fill-rule="evenodd">
        <g id="icon_question">
            <g id="question_icon">
                <path d="M17.9999499,9.00997501 C17.9833999,13.9941918 13.9646364,18.0029552 8.98731965,18.0000552 C4.03105299,17.9971552 0.000989437469,13.9658917 -1.0565893e-05,9.01002501 C-0.00101056925,4.03080827 4.02845298,-5.27777792e-06 9.00701971,-5.27777792e-06 C13.9761364,-5.27777792e-06 18.0164,4.04795833 17.9999499,9.00997501 Z M12.3899016,7.00489457 C12.3748825,6.1006625 11.9963905,5.38835442 11.2970698,4.85855189 C10.7211587,4.42230997 10.0610444,4.22789104 9.35490794,4.18316907 C8.35231111,4.1196726 7.42547302,4.3357976 6.63036825,5.00063927 C5.98551429,5.53986023 5.57819048,6.22254078 5.53397778,7.09851755 C5.51455556,7.48417437 5.78954286,7.85716932 6.15681587,7.97910997 C6.54694921,8.10866023 6.92833651,7.9790476 7.14644444,7.6296923 C7.21635238,7.51779381 7.26798413,7.39098801 7.3117746,7.26499306 C7.44447302,6.88276679 7.58923492,6.50827487 7.83273651,6.18305821 C7.98190159,5.98383649 8.16864444,5.83900467 8.40068571,5.76565316 C8.76313333,5.6510726 9.13191429,5.63111301 9.50099683,5.72860316 C10.1959746,5.91223144 10.6234444,6.58443321 10.4750635,7.2701077 C10.3971333,7.63031604 10.1656349,7.8937827 9.91266349,8.13635417 C9.52228889,8.51059659 9.12099683,8.87317513 8.73876508,9.25614987 C8.16852381,9.82743093 7.9031873,10.5284494 7.97152698,11.351658 C8.01025079,11.8183383 8.30236825,12.113865 8.7343619,12.1460499 C9.19464444,12.1804178 9.49146667,11.9503211 9.60474286,11.4711037 C9.6190381,11.4106635 9.63719365,11.35066 9.64569841,11.2892842 C9.71795873,10.77021 9.9731619,10.3652173 10.349,10.022037 C10.7817778,9.62677462 11.2116,9.22645997 11.6209143,8.80562437 C12.0992921,8.31380745 12.4079365,7.73080013 12.3899016,7.00489457 Z M8.88656698,12.7997454 C8.2814019,12.7995582 7.83824952,13.2475888 7.83867175,13.8590385 C7.8392146,14.4723595 8.28550349,14.9244443 8.8862654,14.9200782 C9.4652527,14.9157744 9.90056381,14.4608204 9.9032781,13.8571673 C9.90599238,13.2574438 9.46603683,12.7998701 8.88656698,12.7997454 Z" id="Combined-Shape" fill="#FFFFFF" opacity="0.6"></path>
                <g id="Group-3" transform="translate(7.000000, 12.000000)"></g>
            </g>
        </g>
    </g>
</svg>