<?xml version="1.0" encoding="UTF-8" standalone="no"?>
<svg width="65px" height="90px" viewBox="8 10 15 15" version="1.1"
xmlns="http://www.w3.org/2000/svg" xmlns:xlink="http://www.w3.org/1999/xlink">
    <g id="Page-1" stroke="none" stroke-width="1" fill="none" fill-rule="evenodd">
        <g id="Group-13" transform="translate(0.000000, -1.000000)">
            <g id="Group-9" transform="translate(0.234375, 0.914062)">
                <g id="Group-6" transform="translate(9.000000, 8.000000)" fill="#f1f1f1">
                    <g id="Page-1" transform="translate(0.263494, 0.024148)">
                        <polygon id="Fill-1" points="1.50909091 19.3286909 10.8541818 19.3286909 10.8541818
                        18.6221455 1.50909091 18.6221455"></polygon>
                        <g id="Group-4" transform="translate(0.000000, 0.055964)">
                            <path d="M5.39454545,17.9771636 C2.29272727,15.5033455 2.99927273,13.3044364 2.99927273
                            ,13.3044364 C8.45745455,14.9538909 6.612,9.29970909 6.612,9.29970909 C12.5407273,
                            15.9746182 7.00472727,17.8200727 7.00472727,17.8200727 C14.936,15.5033455 12.4461818,
                            8.92334545 9.75309091,6.19789091 C6.49418182,
                            2.89934545 5.35527273,0.307709091 5.35527273,
                            0.307709091 C5.35527273,12.7942545 1.31127273,
                            7.65061818 1.31127273,7.65061818 C-3.20472727,
                            18.0669818 5.39454545,17.9771636 5.39454545,17.9771636" id="Fill-2"></path>
                        </g>
                    </g>
                </g>
            </g>
        </g>
    </g>
</svg>