<?xml version="1.0" encoding="UTF-8" standalone="no"?>
<svg width="20px" height="20px" viewBox="0 0 20 20" version="1.1" xmlns="http://www.w3.org/2000/svg" xmlns:xlink="http://www.w3.org/1999/xlink">
    <!-- Generator: sketchtool 39.1 (31720) - http://www.bohemiancoding.com/sketch -->
    <title>6B6F657E-B6E1-490A-B434-AF2462343456</title>
    <desc>Created with sketchtool.</desc>
    <defs></defs>
    <g id="Desktop" stroke="none" stroke-width="1" fill="none" fill-rule="evenodd">
        <g id="lg--01-verify--01" transform="translate(-555.000000, -750.000000)" fill="#B0B8C3">
            <g id="Group" transform="translate(307.000000, 637.000000)">
                <g id="input-field" transform="translate(60.000000, 85.000000)">
                    <g id="info-tootltip">
                        <g transform="translate(176.000000, 26.000000)">
                            <path d="M22,2 C16.48,2 12,6.48 12,12 C12,17.52 16.48,22 22,22 C27.52,22 32,17.52 32,12 C32,6.48 27.52,2 22,2 L22,2 Z M23,17 L21,17 L21,11 L23,11 L23,17 L23,17 Z M23,9 L21,9 L21,7 L23,7 L23,9 L23,9 Z" id="Shape"></path>
                        </g>
                    </g>
                </g>
            </g>
        </g>
    </g>
</svg>