<?xml version="1.0" encoding="utf-8"?>
<!-- Generated by IcoMoon.io -->
<!DOCTYPE svg PUBLIC "-//W3C//DTD SVG 1.1//EN" "http://www.w3.org/Graphics/SVG/1.1/DTD/svg11.dtd">
<svg version="1.1" xmlns="http://www.w3.org/2000/svg" xmlns:xlink="http://www.w3.org/1999/xlink" width="1075" height="1024" viewBox="0 0 1075 1024">
<g id="icomoon-ignore">
</g>
<path fill="#fff" opacity="0.01" d="M0 0h1024v1024h-1024v-1024z"></path>
<path fill="#fff" d="M0 300.185h1024.233v-81.421c0-35.989-30.571-65.164-68.282-65.164h-887.668c-37.711 0-68.282 29.175-68.282 65.164v81.421zM0 397.908v407.328c0 35.989 30.571 65.164 68.282 65.164h887.668c37.711 0 68.282-29.175 68.282-65.164v-407.328h-1024.233zM127.688 735.511h160.122v33.233h-160.122v-33.233zM330.486 735.511h160.122v32.908h-160.122v-32.908zM533.625 735.511h160.122v32.908h-160.122v-32.908zM736.423 735.511h160.122v33.233h-160.122v-33.233zM127.688 539.043h363.261v103.61h-363.261v-103.61zM710.476 666.764v0c-35.391-0.151-66.421-22.597-76.137-55.074s4.22-67.174 34.193-85.134c29.973-17.96 68.774-14.862 95.204 7.6 31.905-27.731 81.12-26.27 111.157 3.301s30.037 76.561 0 106.132c-30.037 29.571-79.252 31.032-111.157 3.301-14.54 12.723-33.533 19.811-53.26 19.875z"></path>
</svg>
