<svg xmlns="http://www.w3.org/2000/svg" width="18" height="18" viewBox="0 0 18 18" xmlns:xlink="http://www.w3.org/1999/xlink">
  <defs>
    <rect id="a" width="18" height="18"/>
    <mask id="b" width="18" height="18" x="0" y="0" fill="white">
      <use xlink:href="#a"/>
    </mask>
  </defs>
  <g fill="none" fill-rule="evenodd">
    <use stroke="#FFFFFF" stroke-width="2" mask="url(#b)" opacity=".01" xlink:href="#a"/>
    <path fill="#666666" d="M10.7325,17.875 L7.2675,17.875 C6.98175,17.875 6.75,17.64325 6.75,17.3575 L6.75,1.5175 C6.75,1.23175 6.98175,1 7.2675,1 L10.7325,1 C11.01825,1 11.25,1.23175 11.25,1.5175 L11.25,17.3575 C11.25,17.64325 11.01825,17.875 10.7325,17.875 Z M17.4825,17.875 L14.0175,17.875 C13.73175,17.875 13.5,17.64325 13.5,17.3575 L13.5,6.0175 C13.5,5.73175 13.73175,5.5 14.0175,5.5 L17.4825,5.5 C17.76825,5.5 18,5.73175 18,6.0175 L18,17.3575 C18,17.64325 17.76825,17.875 17.4825,17.875 Z M3.9825,17.875 L0.5175,17.875 C0.23175,17.875 0,17.64325 0,17.3575 L0,11.220625 C0,10.934875 0.23175,10.703125 0.5175,10.703125 L3.9825,10.703125 C4.26825,10.703125 4.5,10.934875 4.5,11.220625 L4.5,17.3575 C4.5,17.64325 4.26825,17.875 3.9825,17.875 Z"/>
  </g>
</svg>
