<?xml version="1.0" encoding="UTF-8"?>
<svg width="23px" height="24px" viewBox="0 0 23 24" version="1.1" xmlns="http://www.w3.org/2000/svg" xmlns:xlink="http://www.w3.org/1999/xlink">
    <!-- Generator: Sketch 45 (43475) - http://www.bohemiancoding.com/sketch -->
    <title>bankAcc-icon-dd</title>
    <desc>Created with Sketch.</desc>
    <defs></defs>
    <g id="DD-Single-Address" stroke="none" stroke-width="1" fill="none" fill-rule="evenodd">
        <g id="bankAcc-icon-dd">
            <g id="bankAcc-icon">
                <path d="M19.7677396,8.8446587 C21.5396512,10.2752473 22.5553098,12.1866562 22.5553098,14.0885674 C22.5553098,15.8539494 21.7687828,17.5712493 20.339975,18.9228885 L20.3393814,18.9228885 L19.8591548,22.696437 C19.8259129,22.9558424 19.6050917,23.150545 19.3439054,23.150545 L17.982175,23.150545 C17.7666963,23.150545 17.573181,23.0169838 17.4966059,22.8157516 L16.8014942,20.9862603 C15.6225942,21.3406426 13.8097238,21.588176 12.3921945,21.588176 C11.2483172,21.588176 10.1269969,21.4231537 9.05910106,21.097858 L8.3153137,22.8353406 C8.23398978,23.0264815 8.04581692,23.150545 7.83805509,23.150545 L6.35879083,23.150545 C6.0720795,23.150545 5.83938625,22.9178517 5.83938625,22.6311404 L5.83938625,19.4523843 C5.80080191,19.4274529 5.70582507,19.3680924 5.55326852,19.2766772 C2.64697727,17.5374138 0.984882602,16.3003405 0.613879327,15.6010735 C0.344976154,15.0929475 0.146118399,14.4625387 0.0535159815,13.8250067 C0.00127872042,13.4658755 -0.059269014,12.8075673 0.120593373,12.430628 C0.206666133,12.2495784 0.388902942,12.1344189 0.589541512,12.1344189 C1.39862545,12.1338253 2.01003885,12.0263828 2.51282249,11.7948767 C2.92359731,10.8872543 3.56172294,10.1256588 4.35952839,9.58963328 C3.93450704,8.86127965 3.42460013,7.95781248 3.2625459,7.44256313 C3.21921272,7.30484671 3.23464646,7.15525819 3.30647269,7.02941388 C3.37829893,6.90416318 3.49880079,6.81393518 3.63948523,6.78069329 C3.94815996,6.70886705 4.26039631,6.67206353 4.56788383,6.67206353 C5.85422638,6.67206353 7.04796651,7.27991529 8.1229856,8.48077869 C8.74270947,7.7797309 10.0931614,6.71836474 12.6474447,6.60023729 C12.8201839,6.59192682 12.9947038,6.58777158 13.1674429,6.58777158 C15.6220006,6.58777158 17.9661477,7.38913866 19.7677396,8.8446587 Z M5.58591681,13.2302142 C6.12134874,13.2302142 6.55586777,12.8265626 6.55586777,12.3285279 C6.55586777,11.8304931 6.12134874,11.4268415 5.58591681,11.4268415 C5.05107849,11.4268415 4.61715306,11.8304931 4.61715306,12.3285279 C4.61715306,12.8265626 5.05107849,13.2302142 5.58591681,13.2302142 Z" id="Combined-Shape" fill="#001CB0"></path>
                <path d="M9.38154743,6.03221644 C9.53113595,6.09098336 9.69912623,6.07733044 9.83743625,5.99541292 C9.84752754,5.98947686 10.8792134,5.38815476 12.6707141,5.38815476 C13.995641,5.38815476 15.3763667,5.71819927 16.7749007,6.36819701 C16.8437589,6.40025169 16.9197404,6.41746624 16.9957218,6.41746624 C17.402935,6.41746624 17.5151264,6.03221644 17.5572724,5.88737676 C17.5899207,5.77459177 17.6261306,5.62619046 17.6593725,5.46947867 C17.7080481,5.23678542 17.7905592,4.79454952 17.7905592,4.44729045 C17.7905592,1.99510721 15.795452,0 13.3432688,0 C10.8904919,0 8.89538474,1.99510721 8.89538474,4.44729045 C8.89538474,4.87112459 8.95533887,5.2908035 9.07346631,5.69445506 C9.1179867,5.84879242 9.23195891,5.97344952 9.38154743,6.03221644" id="Fill-1" fill="#00DFED"></path>
            </g>
        </g>
    </g>
</svg>