<?xml version="1.0" encoding="UTF-8"?>
<svg width="15px" height="13px" viewBox="0 0 15 13" version="1.1" xmlns="http://www.w3.org/2000/svg" xmlns:xlink="http://www.w3.org/1999/xlink">
    <!-- Generator: Sketch 46.2 (44496) - http://www.bohemiancoding.com/sketch -->
    <title>email copy 4</title>
    <desc>Created with Sketch.</desc>
    <defs></defs>
    <g id="Working" stroke="none" stroke-width="1" fill="none" fill-rule="evenodd">
        <g id="BS-Single-Address-DD-SignUp-Elec-Step-4b---Fortnightly-Success" transform="translate(-252.000000, -329.000000)" fill="#333333">
            <path d="M265.540341,332.269006 L265.540341,330.634503 L259.811646,334.701754 L254.082951,330.634503 L254.082951,332.269006 L259.811646,336.298246 L265.540341,332.269006 Z M265.540341,329 C265.920023,329 266.249447,329.164716 266.528625,329.494152 C266.807803,329.823588 266.947389,330.203702 266.947389,330.634503 L266.947389,340.365497 C266.947389,340.796298 266.807803,341.176412 266.528625,341.505848 C266.249447,341.835284 265.920023,342 265.540341,342 L254.082951,342 C253.70327,342 253.373845,341.835284 253.094668,341.505848 C252.81549,341.176412 252.675904,340.796298 252.675904,340.365497 L252.675904,330.634503 C252.675904,330.203702 252.81549,329.823588 253.094668,329.494152 C253.373845,329.164716 253.70327,329 254.082951,329 L265.540341,329 Z" id="email-copy-4"></path>
        </g>
    </g>
</svg>