<?xml version="1.0" encoding="UTF-8"?>
<svg width="40px" height="39px" viewBox="0 0 40 39" version="1.1" xmlns="http://www.w3.org/2000/svg" xmlns:xlink="http://www.w3.org/1999/xlink">
    <!-- Generator: Sketch 50.2 (55047) - http://www.bohemiancoding.com/sketch -->
    <title>Error</title>
    <desc>Created with Sketch.</desc>
    <defs></defs>
    <g id="Final-designs" stroke="none" stroke-width="1" fill="none" fill-rule="evenodd">
        <g id="POTD-OVERDUE-(BILLING)-Copy" transform="translate(-474.000000, -114.000000)" fill="#FD334C">
            <g id="Group-5" transform="translate(474.000000, 114.000000)">
                <g id="FlashMsg/RedIcon/Desktop">
                    <path d="M0.132916189,36.8073666 L18.6461026,0.82402266 C19.2106542,-0.27467422 20.7872929,-0.27467422 21.3538974,0.82402266 L39.8670838,36.8073666 C40.2448202,37.5425541 39.7726497,38.4615385 39.0151241,38.4615385 L0.984875867,38.4615385 C0.227350274,38.4615385 -0.24482015,37.5425541 0.132916189,36.8073666 Z M21.9582755,26.6213437 C22.3154827,26.6213437 22.6049437,26.3333953 22.6049437,25.9780547 L22.6049437,14.9339046 C22.6049437,14.578564 22.3154827,14.2906155 21.9582755,14.2906155 L18.0413139,14.2906155 C17.6841067,14.2906155 17.3946457,14.578564 17.3946457,14.9339046 L17.3946457,25.9780547 C17.3946457,26.3333953 17.6841067,26.6213437 18.0413139,26.6213437 L21.9582755,26.6213437 Z M17.2203532,32.1095184 C17.2203532,33.6370747 18.4644197,34.8746403 20,34.8746403 C21.5355803,34.8746403 22.7796468,33.6370747 22.7796468,32.1095184 C22.7796468,30.5819622 21.5355803,29.3443965 20,29.3443965 C18.4644197,29.3443965 17.2203532,30.5819622 17.2203532,32.1095184 Z" id="ico_warning-copy-7"></path>
                </g>
            </g>
        </g>
    </g>
</svg>