<?xml version="1.0" encoding="UTF-8"?>
<svg width="24px" height="20px" viewBox="0 0 24 20" version="1.1" xmlns="http://www.w3.org/2000/svg" xmlns:xlink="http://www.w3.org/1999/xlink">
    <defs></defs>
    <g id="SMS-Pay-SA-Setup-and-view" stroke="none" stroke-width="1" fill="none" fill-rule="evenodd">
        <g id="SMSPay-|-Setup-success-|-SA-+-MA" transform="translate(-600.000000, -789.000000)">
            <g id="Group-4" transform="translate(600.000000, 789.000000)">
                <g id="icon/livechat_large">
                    <g transform="translate(0.000000, 0.400000)">
                        <path d="M1.97928033,4.31882531 L15.2950408,4.31882531 L15.2950408,2.97351398 L1.97928033,2.97351398 L1.97928033,4.31882531 Z M7.45368724,6.84107601 L5.57812787,6.84107601 L5.57812787,5.49576468 L15.2950408,5.49576468 L15.2950408,5.50436358 L17.4545455,5.50436358 L17.4545455,1.10894022 C17.4545455,0.677331057 17.145099,0.327272727 16.7635628,0.327272727 L0.690982652,0.327272727 C0.309446454,0.327272727 0,0.677331057 0,1.10894022 L0,9.52004855 C0,9.95165771 0.309446454,10.3014387 0.690982652,10.3014387 L2.34438791,10.3014387 L4.85845645,13.1454545 L5.00214553,10.3014387 L7.45368724,10.3014387 L7.45368724,6.84107601 Z" id="Fill-3" fill="#00E3F2"></path>
                        <g id="Group-2" transform="translate(6.545455, 6.054545)">
                            <path d="M0.690982652,0.140727273 C0.309446454,0.140727273 0,0.482801991 0,0.905508607 L0,9.13783534 C0,9.56027046 0.309446454,9.90288816 0.690982652,9.90288816 L12.596089,9.90288816 L12.596089,12.6861818 L15.1099123,9.90288816 L16.7635628,9.90288816 C17.145099,9.90288816 17.4545455,9.56027046 17.4545455,9.13783534 L17.4545455,0.905508607 C17.4545455,0.482801991 17.145099,0.140727273 16.7635628,0.140727273 L0.690982652,0.140727273 Z" id="Fill-5" fill="#001CB0"></path>
                            <rect id="Rectangle-5" fill="#00DFED" x="2.18181818" y="2.72727273" width="13.0909091" height="1.63636364"></rect>
                            <rect id="Rectangle-5-Copy" fill="#00DFED" x="2.18181818" y="5.45454545" width="9.54545455" height="1.63636364"></rect>
                        </g>
                    </g>
                </g>
            </g>
        </g>
    </g>
</svg>