<?xml version="1.0" encoding="UTF-8"?>
<svg width="30px" height="18px" viewBox="0 0 30 18" version="1.1" xmlns="http://www.w3.org/2000/svg" xmlns:xlink="http://www.w3.org/1999/xlink">
    <!-- Generator: Sketch 41.2 (35397) - http://www.bohemiancoding.com/sketch -->
    <title>iconPay_mastercard</title>
    <desc>Created with Sketch.</desc>
    <defs></defs>
    <g id="Page-1" stroke="none" stroke-width="1" fill="none" fill-rule="evenodd">
        <g id="iconPay_mastercard">
            <g id="Slice-1">
                <g id="Group">
                    <rect id="Rectangle-path" fill="#000000" x="0" y="0" width="30" height="18" rx="3"></rect>
                    <g id="Group-22" transform="translate(4.500000, 2.250000)">
                        <rect id="Rectangle-path" fill="#FF5F00" x="6.95" y="1.31666667" width="5.78333333" height="9.43333333"></rect>
                        <path d="M7.53333333,6.03333333 C7.53333333,4.11666667 8.43333333,2.41666667 9.81666667,1.31666667 C8.8,0.516666667 7.51666667,0.0333333333 6.11666667,0.0333333333 C2.8,0.0333333333 0.116666667,2.71666667 0.116666667,6.03333333 C0.116666667,9.35 2.8,12.0333333 6.11666667,12.0333333 C7.51666667,12.0333333 8.8,11.55 9.81666667,10.75 C8.43333333,9.65 7.53333333,7.95 7.53333333,6.03333333 Z" id="XMLID_330_" fill="#EB001B"></path>
                        <path d="M19.5333333,6.03333333 C19.5333333,9.35 16.85,12.0333333 13.5333333,12.0333333 C12.1333333,12.0333333 10.85,11.55 9.83333333,10.75 C11.2333333,9.65 12.1166667,7.95 12.1166667,6.03333333 C12.1166667,4.11666667 11.2166667,2.41666667 9.83333333,1.31666667 C10.85,0.516666667 12.1333333,0.0333333333 13.5333333,0.0333333333 C16.85,0.0333333333 19.5333333,2.71666667 19.5333333,6.03333333 Z" id="Shape" fill="#F79E1B"></path>
                    </g>
                </g>
            </g>
        </g>
    </g>
</svg>