<svg xmlns="http://www.w3.org/2000/svg" width="30" height="56" viewBox="0 0 30 26">
  <g fill="none" fill-rule="evenodd">
    <rect width="30" height="56" fill="#FFFFFF" fill-opacity=".01"/>
    <g fill="#48515F" transform="translate(0 5)">
      <path d="M29.9882796,16.1568998 L27.9897948,1.14130435 C27.900275,0.490317218 27.342311,0.00383664086 26.6807872,0 L26.5009236,0 L1.16013573,3.36436673 C0.810211898,3.40888617 0.492468434,3.58976076 0.27692014,3.86713479 C0.0613718454,4.14450881 -0.0342924306,4.49561972 0.0110069439,4.84310019 L2.00949179,19.8586957 C2.09901157,20.5096828 2.65697559,20.9961634 3.31849936,21 L3.498363,21 L28.7991811,17.6455577 C29.1583296,17.610993 29.4878894,17.4328733 29.7121476,17.1521197 C29.9364058,16.8713661 30.036083,16.5121147 29.9882796,16.1568998 L29.9882796,16.1568998 Z M28.7192417,16.6531191 L3.35846906,20.0075614 C3.18672078,20.0198337 3.03438002,19.8987909 3.00873421,19.7296786 L1.01024937,4.71408318 C0.986501465,4.53623082 1.11124998,4.37250702 1.29003724,4.34688091 L26.6008478,0.982514178 L26.6008478,0.982514178 C26.7613213,0.985508674 26.8963152,1.10282412 26.9206054,1.26039698 L28.9190902,16.2759924 C28.9539753,16.4361364 28.8643325,16.5972428 28.7092493,16.6531191 L28.7192417,16.6531191 Z"/>
      <path d="M11.09,10 L11,9.57 L10,10 L10.24,11.82 C10.31,12.32 10.11,12.63 9.65,12.69 C9.19,12.75 8.91,12.5 8.85,12.01 L8.58,9.9 L7.58,10.29 L7.8,12.1 C7.82744974,12.587951 8.06118125,13.0411858 8.44280937,13.3464883 C8.82443749,13.6517908 9.31792472,13.780331 9.8,13.7 C10.0393358,13.6618612 10.2697469,13.5805397 10.48,13.46 L10.57,14.13 C10.65,14.76 10.32,14.98 10.01,15.02 L9.75,15.02 L9.89,16.08 L10.15,16.08 C10.6371203,16.0334545 11.0797376,15.7768362 11.3621574,15.3772218 C11.6445772,14.9776074 11.738728,14.4747171 11.62,14 L11.09,10 Z"/>
      <polygon points="6.78 8.18 5.76 8.56 6.5 14.1 7.56 13.96 6.79 8.18"/>
      <path d="M4.7 9.43L5.53 9.32 5.4 8.32 4.57 8.43C4.01257472 8.4266688 3.48272553 8.67219389 3.12491386 9.09963377 2.76710219 9.52707366 2.61863818 10.0918578 2.72 10.64L3.24 14.5 4.29 14.36 3.9 11.47 5.23 11.29 5.1 10.29 3.77 10.47 3.77 10.47C3.74703013 9.92862138 4.15942955 9.46744353 4.7 9.43L4.7 9.43zM19.09 8.5L18.09 8.89 18.33 10.71C18.4 11.21 18.2 11.52 17.74 11.58 17.28 11.64 17 11.39 16.94 10.9L16.66 8.84 15.66 9.23 15.85 11C15.9339574 11.6270011 16.3460383 12.1615833 16.931016 12.4023746 17.5159936 12.643166 18.1849958 12.5535845 18.686016 12.1673746 19.1870362 11.7811648 19.4439574 11.1570011 19.36 10.53L19.09 8.5zM25.53 9.14C25.05 9.09 24.83 8.99 24.8 8.82 24.77 8.65 24.9 8.48 25.21 8.44 25.52 8.4 25.68 8.58 25.72 8.73L25.72 8.73 26.72 8.35C26.4857338 7.84825694 25.9612923 7.54800417 25.41 7.6L25.1 7.6C24.2 7.72 23.62 8.31 23.71 9.01 23.78 9.48 24.17 9.76 24.9 9.85L25 9.85C25.73 9.97 26 10.02 26.07 10.29 26.0825211 10.3716577 26.0608149 10.4548647 26.01 10.52 25.903989 10.6452266 25.7533064 10.7241556 25.59 10.74 25.54 10.74 25.05 10.8 24.96 10.39L24.96 10.39 23.96 10.78C24.2955675 11.410911 25.0148564 11.7356185 25.71 11.57 26.1957807 11.5256282 26.6446881 11.2921964 26.96 10.92 27.1413554 10.6840784 27.2173338 10.3837828 27.17 10.09 27 9.29 26.22 9.21 25.53 9.14L25.53 9.14zM23.16 8.43L23.1 8 22.1 8.39 22.34 10.21C22.41 10.71 22.21 11.02 21.75 11.08 21.29 11.14 21.01 10.89 20.95 10.4L20.67 8.34 19.67 8.73 19.91 10.55C19.9374497 11.037951 20.1711812 11.4911858 20.5528094 11.7964883 20.9344375 12.1017908 21.4279247 12.230331 21.91 12.15 22.1493358 12.1118612 22.3797469 12.0305397 22.59 11.91L22.68 12.58C22.76 13.21 22.43 13.43 22.12 13.47L21.86 13.47 22 14.49 22.26 14.49C22.7511807 14.4466922 23.1985365 14.1897878 23.4834954 13.7873795 23.7684544 13.3849713 23.8622421 12.8776933 23.74 12.4L23.16 8.43zM13.35 9.22C13.0929504 9.25550607 12.8470139 9.34773225 12.63 9.49L12.36 7.43 12.36 7.43 11.3 7.82 11.78 11.43C11.8276069 12.1211329 12.2553721 12.7285385 12.8900549 13.0062233 13.5247376 13.2839082 14.2611544 13.1858527 14.8010636 12.7517684 15.3409728 12.317684 15.5948972 11.61951 15.46 10.94 15.4095419 10.4315808 15.1585249 9.96423974 14.7625124 9.6414238 14.3664998 9.31860786 13.8581545 9.16694279 13.35 9.22L13.35 9.22zM13.73 12.1L13.63 12.1C13.1933029 12.0752696 12.8447304 11.7266971 12.82 11.29 12.8293687 10.8648695 13.1696882 10.5213572 13.5947127 10.5080192 14.0197372 10.4946812 14.3809259 10.8161788 14.4169327 11.2398853 14.4529395 11.6635919 14.1511804 12.0414271 13.73 12.1L13.73 12.1z"/>
    </g>
  </g>
</svg>
