<?xml version="1.0" encoding="UTF-8" standalone="no"?>
<svg width="12px" height="19px" viewBox="0 0 12 19" version="1.1" xmlns="http://www.w3.org/2000/svg" xmlns:xlink="http://www.w3.org/1999/xlink">
    <!-- Generator: Sketch 41.2 (35397) - http://www.bohemiancoding.com/sketch -->
    <title>elect selected icon copy</title>
    <desc>Created with Sketch.</desc>
    <defs></defs>
    <g id="Version-02" stroke="none" stroke-width="1" fill="none" fill-rule="evenodd">
        <g id="Components" transform="translate(-448.000000, -148.000000)" fill="#999999">
            <g id="Group-19-Copy" transform="translate(0.000000, 139.000000)">
                <g id="Group-10" transform="translate(448.000000, 6.000000)">
                    <g id="Group-6" transform="translate(0.000000, 3.000000)">
                        <path d="M7.26381677,5.51061859 L11.9294805,0.447286975 C12.0008421,0.369778763 12.0200139,0.256745953 11.9779425,0.159322436 C11.9364037,0.062437171 11.8416099,5.68434189e-14 11.7366977,5.68434189e-14 L4.14307832,0.0172240472 C4.03443828,0.0177622987 3.93751432,0.0845054815 3.89810568,0.186773262 L0.387541199,9.2751494 C0.355588246,9.35750188 0.36677178,9.45008113 0.416298857,9.52328333 C0.466358484,9.59594728 0.566477738,9.63523964 0.636241687,9.6379309 L3.73887346,9.60294455 L0.0222124321,18.171908 C-0.0294448426,18.2908616 0.0115614476,18.4302687 0.118603842,18.5013179 C0.162805427,18.5309218 0.213397603,18.5454545 0.26345723,18.5454545 C0.334286277,18.5454545 0.404582775,18.5158507 0.456240049,18.4598726 L11.9294805,5.95736732 C12.0008421,5.88039736 12.0200139,5.76736455 11.9779425,5.66994103 C11.9364037,5.57305576 11.8416099,5.51061859 11.7366977,5.51061859 L7.26381677,5.51061859 Z" id="elect-selected-icon-copy"></path>
                    </g>
                </g>
            </g>
        </g>
    </g>
</svg>