<?xml version="1.0" encoding="UTF-8" standalone="no"?>
<svg width="30px" height="30px" viewBox="0 0 30 30" version="1.1" xmlns="http://www.w3.org/2000/svg" xmlns:xlink="http://www.w3.org/1999/xlink" xmlns:sketch="http://www.bohemiancoding.com/sketch/ns">
    <!-- Generator: Sketch 3.4.3 (16044) - http://www.bohemiancoding.com/sketch -->
    <title>Page 1</title>
    <desc>Created with Sketch.</desc>
    <defs>
        <path id="path-1" d="M0,0.389 L30,0.389 L30,30 L0,30"></path>
        <path id="path-3" d="M0,0.389 L30,0.389 L30,30 L0,30"></path>
        <path id="path-5" d="M0,0.389 L30,0.389 L30,30 L0,30"></path>
    </defs>
    <g id="Page-1" stroke="none" stroke-width="1" fill="none" fill-rule="evenodd" sketch:type="MSPage">
        <g sketch:type="MSLayerGroup">
            <g id="Group-3">
                <mask id="mask-2" sketch:name="Clip 2" fill="white">
                    <use xlink:href="#path-1"></use>
                </mask>
                <g id="Clip-2"></g>
                <path d="M21.6028,1.8554 C20.7018,0.8284 19.0738,0.3884 16.9908,0.3884 L10.9448,0.3884 C10.5188,0.3884 10.1568,0.6984 10.0908,1.1184 L7.5728,17.0834 C7.5228,17.3984 7.7668,17.6834 8.0858,17.6834 L11.8178,17.6834 L12.7558,11.7374 L12.7268,11.9244 C12.7928,11.5034 13.1518,11.1944 13.5778,11.1944 L15.3518,11.1944 C18.8358,11.1944 21.5638,9.7784 22.3608,5.6854 C22.3848,5.5634 22.4048,5.4464 22.4228,5.3314 C22.3218,5.2774 22.3218,5.2774 22.4228,5.3314 C22.6598,3.8174 22.4208,2.7884 21.6028,1.8554" id="Fill-1" fill="#263B80" sketch:type="MSShapeGroup" mask="url(#mask-2)"></path>
            </g>
            <path d="M20.5129,24.1911 C20.3859,25.0291 19.7459,25.0291 19.1269,25.0291 L18.7749,25.0291 L19.0219,23.4651 C19.0369,23.3701 19.1179,23.3011 19.2139,23.3011 L19.3749,23.3011 C19.7969,23.3011 20.1939,23.3011 20.3999,23.5411 C20.5219,23.6841 20.5589,23.8971 20.5129,24.1911 M20.2439,22.0061 L17.9099,22.0061 C17.7509,22.0061 17.6149,22.1221 17.5899,22.2791 L16.6459,28.2631 C16.6279,28.3811 16.7189,28.4881 16.8379,28.4881 L18.0359,28.4881 C18.1469,28.4881 18.2419,28.4061 18.2599,28.2961 L18.5279,26.6001 C18.5519,26.4421 18.6879,26.3261 18.8479,26.3261 L19.5859,26.3261 C21.1229,26.3261 22.0099,25.5821 22.2419,24.1081 C22.3469,23.4631 22.2459,22.9561 21.9449,22.6021 C21.6129,22.2121 21.0239,22.0061 20.2439,22.0061" id="Fill-4" fill="#149BD7" sketch:type="MSShapeGroup"></path>
            <g id="Group-8">
                <mask id="mask-4" sketch:name="Clip 7" fill="white">
                    <use xlink:href="#path-3"></use>
                </mask>
                <g id="Clip-7"></g>
                <path d="M3.8692,24.1911 C3.7422,25.0291 3.1022,25.0291 2.4832,25.0291 L2.1312,25.0291 L2.3782,23.4651 C2.3932,23.3701 2.4742,23.3011 2.5702,23.3011 L2.7312,23.3011 C3.1522,23.3011 3.5502,23.3011 3.7552,23.5411 C3.8782,23.6841 3.9152,23.8971 3.8692,24.1911 M3.6002,22.0061 L1.2662,22.0061 C1.1072,22.0061 0.9712,22.1221 0.9462,22.2791 L0.0022,28.2631 C-0.0158,28.3811 0.0752,28.4881 0.1942,28.4881 L1.3092,28.4881 C1.4682,28.4881 1.6042,28.3721 1.6292,28.2141 L1.8842,26.6001 C1.9082,26.4421 2.0442,26.3261 2.2042,26.3261 L2.9422,26.3261 C4.4792,26.3261 5.3662,25.5821 5.5982,24.1081 C5.7032,23.4631 5.6022,22.9561 5.3012,22.6021 C4.9692,22.2121 4.3802,22.0061 3.6002,22.0061" id="Fill-6" fill="#263B80" sketch:type="MSShapeGroup" mask="url(#mask-4)"></path>
            </g>
            <path d="M9.0174,26.3392 C8.9094,26.9782 8.4024,27.4062 7.7564,27.4062 C7.4324,27.4062 7.1724,27.3022 7.0054,27.1042 C6.8404,26.9092 6.7784,26.6302 6.8304,26.3202 C6.9314,25.6872 7.4464,25.2442 8.0834,25.2442 C8.4004,25.2442 8.6584,25.3502 8.8284,25.5492 C8.9994,25.7502 9.0664,26.0302 9.0174,26.3392 M10.5744,24.1642 L9.4574,24.1642 C9.3614,24.1642 9.2804,24.2342 9.2654,24.3282 L9.2164,24.6412 L9.1384,24.5282 C8.8954,24.1762 8.3564,24.0592 7.8184,24.0592 C6.5834,24.0592 5.5294,24.9942 5.3234,26.3072 C5.2164,26.9612 5.3684,27.5872 5.7394,28.0232 C6.0804,28.4242 6.5674,28.5912 7.1474,28.5912 C8.1424,28.5912 8.6944,27.9522 8.6944,27.9522 L8.6444,28.2632 C8.6254,28.3812 8.7164,28.4882 8.8364,28.4882 L9.8424,28.4882 C10.0024,28.4882 10.1384,28.3722 10.1624,28.2142 L10.7664,24.3892 C10.7854,24.2712 10.6944,24.1642 10.5744,24.1642" id="Fill-9" fill="#263B80" sketch:type="MSShapeGroup"></path>
            <path d="M25.6612,26.3392 C25.5532,26.9782 25.0462,27.4062 24.4002,27.4062 C24.0762,27.4062 23.8162,27.3022 23.6492,27.1042 C23.4842,26.9092 23.4222,26.6302 23.4742,26.3202 C23.5752,25.6872 24.0902,25.2442 24.7272,25.2442 C25.0442,25.2442 25.3022,25.3502 25.4722,25.5492 C25.6432,25.7502 25.7102,26.0302 25.6612,26.3392 M27.2182,24.1642 L26.1012,24.1642 C26.0052,24.1642 25.9242,24.2342 25.9092,24.3282 L25.8602,24.6412 L25.7812,24.5282 C25.5392,24.1762 25.0002,24.0592 24.4622,24.0592 C23.2272,24.0592 22.1732,24.9942 21.9672,26.3072 C21.8602,26.9612 22.0122,27.5872 22.3832,28.0232 C22.7242,28.4242 23.2112,28.5912 23.7912,28.5912 C24.7862,28.5912 25.3382,27.9522 25.3382,27.9522 L25.2882,28.2632 C25.2692,28.3812 25.3602,28.4882 25.4802,28.4882 L26.4862,28.4882 C26.6462,28.4882 26.7812,28.3722 26.8062,28.2142 L27.4102,24.3892 C27.4292,24.2712 27.3382,24.1642 27.2182,24.1642" id="Fill-11" fill="#149BD7" sketch:type="MSShapeGroup"></path>
            <g id="Group-15">
                <mask id="mask-6" sketch:name="Clip 14" fill="white">
                    <use xlink:href="#path-5"></use>
                </mask>
                <g id="Clip-14"></g>
                <path d="M16.526,24.1643 L15.403,24.1643 C15.295,24.1643 15.195,24.2173 15.135,24.3063 L13.585,26.5883 L12.929,24.3953 C12.888,24.2583 12.761,24.1643 12.618,24.1643 L11.514,24.1643 C11.381,24.1643 11.287,24.2953 11.33,24.4213 L12.567,28.0513 L11.404,29.6933 C11.312,29.8213 11.404,30.0003 11.562,30.0003 L12.684,30.0003 C12.791,30.0003 12.89,29.9473 12.951,29.8603 L16.686,24.4693 C16.775,24.3403 16.683,24.1643 16.526,24.1643" id="Fill-13" fill="#263B80" sketch:type="MSShapeGroup" mask="url(#mask-6)"></path>
            </g>
            <path d="M28.5354,22.17 L27.5774,28.263 C27.5594,28.381 27.6504,28.488 27.7694,28.488 L28.7334,28.488 C28.8924,28.488 29.0284,28.372 29.0534,28.214 L29.9974,22.231 C30.0164,22.112 29.9254,22.006 29.8054,22.006 L28.7274,22.006 C28.6324,22.006 28.5504,22.075 28.5354,22.17" id="Fill-16" fill="#149BD7" sketch:type="MSShapeGroup"></path>
            <path d="M22.4229,5.3309 L22.4229,5.3309 C22.4049,5.4459 22.3849,5.5639 22.3609,5.6849 C21.5639,9.7789 18.8359,11.1939 15.3519,11.1939 L13.5779,11.1939 C13.1519,11.1939 12.7929,11.5039 12.7269,11.9239 L11.8179,17.6829 L11.5609,19.3169 C11.5169,19.5919 11.7299,19.8419 12.0089,19.8419 L15.1549,19.8419 C15.5269,19.8419 15.8439,19.5709 15.9019,19.2029 L15.9329,19.0429 L16.5259,15.2849 L16.5639,15.0769 C16.6219,14.7089 16.9389,14.4379 17.3119,14.4379 L17.7819,14.4379 C20.8299,14.4379 23.2169,13.1999 23.9139,9.6189 C24.2049,8.1229 24.0549,6.8729 23.2839,5.9949 C23.0509,5.7299 22.7609,5.5099 22.4229,5.3309" id="Fill-18" fill="#149BD7" sketch:type="MSShapeGroup"></path>
            <path d="M21.5885,4.9983 C21.4665,4.9623 21.3415,4.9303 21.2125,4.9023 C21.0825,4.8733 20.9495,4.8483 20.8135,4.8263 C20.3345,4.7483 19.8105,4.7123 19.2495,4.7123 L14.5105,4.7123 C14.3935,4.7123 14.2825,4.7383 14.1835,4.7863 C13.9645,4.8913 13.8025,5.0983 13.7625,5.3513 L12.7555,11.7373 L12.7265,11.9243 C12.7925,11.5033 13.1525,11.1943 13.5775,11.1943 L15.3515,11.1943 C18.8355,11.1943 21.5635,9.7783 22.3615,5.6853 C22.3845,5.5643 22.4045,5.4463 22.4225,5.3313 C22.2215,5.2243 22.0025,5.1323 21.7675,5.0543 C21.7095,5.0343 21.6495,5.0163 21.5885,4.9983" id="Fill-20" fill="#232C65" sketch:type="MSShapeGroup"></path>
        </g>
    </g>
</svg>