<?xml version="1.0" encoding="UTF-8" standalone="no"?>
<svg width="293px" height="356px" viewBox="0 0 293 356" version="1.1" xmlns="http://www.w3.org/2000/svg" xmlns:xlink="http://www.w3.org/1999/xlink">
    <!-- Generator: sketchtool 39.1 (31720) - http://www.bohemiancoding.com/sketch -->
    <title>32286817-CB15-4BCF-9293-01401C77C4F0</title>
    <desc>Created with sketchtool.</desc>
    <defs></defs>
    <g id="Page-2" stroke="none" stroke-width="1" fill="none" fill-rule="evenodd">
        <g id="specs--ma2--wipPage-02" transform="translate(-50.000000, -252.000000)">
            <g id="image-wip-01" transform="translate(50.000000, 252.000000)">
                <rect id="Rectangle-4" fill="#FFFFFF" x="0" y="0" width="293" height="356"></rect>
                <g id="Group-5" transform="translate(20.000000, 20.000000)" fill="#CDD2D9">
                    <rect id="Rectangle" x="56" y="7" width="197" height="14"></rect>
                    <rect id="Rectangle" x="0" y="63" width="253" height="27"></rect>
                    <rect id="Rectangle" x="56" y="27" width="124" height="8"></rect>
                    <circle id="Oval-2" cx="21" cy="21" r="21"></circle>
                    <rect id="Rectangle" x="0" y="100" width="100" height="14"></rect>
                    <rect id="Rectangle" x="120" y="100" width="133" height="14"></rect>
                    <rect id="Rectangle" x="0" y="89" width="253" height="1"></rect>
                    <rect id="Rectangle" x="0" y="135" width="100" height="14"></rect>
                    <rect id="Rectangle" x="120" y="135" width="133" height="14"></rect>
                    <rect id="Rectangle" x="0" y="124" width="253" height="1"></rect>
                    <rect id="Rectangle" x="0" y="170" width="100" height="14"></rect>
                    <rect id="Rectangle" x="120" y="170" width="133" height="14"></rect>
                    <rect id="Rectangle" x="0" y="159" width="253" height="1"></rect>
                    <rect id="Rectangle" x="0" y="205" width="100" height="14"></rect>
                    <rect id="Rectangle" x="120" y="205" width="133" height="14"></rect>
                    <rect id="Rectangle" x="0" y="194" width="253" height="1"></rect>
                    <rect id="Rectangle" x="0" y="240" width="100" height="14"></rect>
                    <rect id="Rectangle" x="120" y="240" width="133" height="14"></rect>
                    <rect id="Rectangle" x="0" y="264" width="253" height="1"></rect>
                    <rect id="Rectangle" x="0" y="229" width="253" height="1"></rect>
                    <rect id="Rectangle" x="0" y="282" width="140" height="8"></rect>
                </g>
            </g>
        </g>
    </g>
</svg>