<?xml version="1.0" encoding="utf-8"?>
<!-- Generator: Adobe Illustrator 16.0.0, SVG Export Plug-In . SVG Version: 6.00 Build 0)  -->
<!DOCTYPE svg PUBLIC "-//W3C//DTD SVG 1.1//EN" "http://www.w3.org/Graphics/SVG/1.1/DTD/svg11.dtd">
<svg version="1.1" id="Layer_1" xmlns="http://www.w3.org/2000/svg" xmlns:xlink="http://www.w3.org/1999/xlink" x="0px" y="0px"
	 width="166.606px" height="73.064px" viewBox="0 0 166.606 73.064" enable-background="new 0 0 166.606 73.064"
	 xml:space="preserve">
<path id="Fill-3_1_" fill="#0D7BFF" d="M163.363,30.369l-1.371-1.496L141.936,3.989C139.588,1.446,136.271,0,132.805,0H79.188
	c-3.243,0-6.386,1.271-8.708,3.539L47.93,28.873l-37.503,9.829c-1.072,0.199-2.096,0.521-3.043,0.974
	C2.968,41.719,0,46.207,0,51.271v0.996V65.06v8.005h13.82h134.624h10.58c4.189,0,7.583-3.392,7.583-7.556v-6.283v-6.959v-2.668
	V38.624c0-0.899-0.101-1.821-0.325-2.695C165.832,33.886,164.811,31.94,163.363,30.369"/>
<path id="Fill-17" fill="#ECEEBF" d="M126.424,9.566H85.566c-3.244,0-6.387,1.271-8.706,3.539L63.688,29.229h83.408l-11.539-15.674
	C133.209,11.012,129.892,9.566,126.424,9.566"/>
<polygon id="Fill-19" fill="#FFCE45" points="101.348,47.774 94.84,49.726 97.482,35.283 86.92,55.734 93.429,53.786 90.785,68.228 
	"/>
</svg>
