<?xml version="1.0" encoding="utf-8"?>
<!-- Generator: Adobe Illustrator 16.0.0, SVG Export Plug-In . SVG Version: 6.00 Build 0)  -->
<!DOCTYPE svg PUBLIC "-//W3C//DTD SVG 1.1//EN" "http://www.w3.org/Graphics/SVG/1.1/DTD/svg11.dtd">
<svg version="1.1" id="Layer_1" xmlns="http://www.w3.org/2000/svg" xmlns:xlink="http://www.w3.org/1999/xlink" x="0px" y="0px"
	 width="248.712px" height="84.443px" viewBox="0 0 248.712 84.443" enable-background="new 0 0 248.712 84.443"
	 xml:space="preserve">
<path id="Fill-1_1_" opacity="0.15" fill="#48515F" enable-background="new    " d="M166.618,80.161
	c0,2.365-37.297,4.282-83.309,4.282C37.298,84.443,0,82.526,0,80.161s37.298-4.283,83.309-4.283
	C129.321,75.877,166.618,77.795,166.618,80.161"/>
<path id="Fill-5" fill="#48515F" d="M44.132,39.838c-12.412,0-22.475,10.051-22.481,22.448h44.962
	C66.607,49.889,56.544,39.838,44.132,39.838"/>
<path id="Fill-7" fill="#48515F" d="M134.242,39.838c-12.413,0-22.476,10.051-22.481,22.448h44.962
	C156.717,49.889,146.654,39.838,134.242,39.838"/>
<path id="Fill-9" fill="#8590A2" d="M63.286,62.295c0,10.567-8.575,19.133-19.154,19.133c-10.577,0-19.151-8.565-19.151-19.133
	c0-10.566,8.575-19.135,19.151-19.135C54.711,43.161,63.286,51.729,63.286,62.295"/>
<path id="Fill-11" fill="#B0B8C3" d="M52.838,62.295c0,4.803-3.896,8.696-8.705,8.696c-4.81,0-8.708-3.894-8.708-8.696
	c0-4.802,3.898-8.695,8.708-8.695C48.942,53.6,52.838,57.494,52.838,62.295"/>
<path id="Fill-13" fill="#8590A2" d="M153.394,62.295c0,10.567-8.574,19.133-19.151,19.133c-10.579,0-19.154-8.565-19.154-19.133
	c0-10.566,8.575-19.135,19.154-19.135C144.82,43.161,153.394,51.729,153.394,62.295"/>
<path id="Fill-15" fill="#B0B8C3" d="M142.948,62.295c0,4.803-3.896,8.696-8.705,8.696c-4.811,0-8.709-3.894-8.709-8.696
	c0-4.802,3.898-8.695,8.709-8.695C139.051,53.6,142.948,57.494,142.948,62.295"/>
<path id="Fill-21" fill="#48515F" d="M169.321,37.344c0.012,0,1.203,0.036,2.347,0.688c1.542,0.88,2.291,2.506,2.291,4.968v17.648
	v0.244c0,0.036,0.009,0.069,0.011,0.105c0.114,5.432,2.803,8.119,5.068,9.415c2.41,1.377,4.793,1.416,5.053,1.416
	c0.268,0,2.646-0.039,5.061-1.416c2.315-1.323,5.075-4.091,5.075-9.765V11.183c0-5.146,3.552-5.632,4.606-5.657
	c0.012,0,1.2,0.05,2.313,0.688c1.544,0.88,2.294,2.503,2.294,4.968v17.892c0,5.674,2.76,8.441,5.076,9.765
	c2.41,1.376,4.792,1.416,5.056,1.416h3.644c1.197,7.344,7.556,12.959,15.241,12.959h4.016v-6.973h10.266
	c1.089,0,1.975-0.885,1.975-1.973c0-1.092-0.886-1.974-1.975-1.974h-10.266v-9.077h10.266c1.089,0,1.975-0.885,1.975-1.973
	c0-1.091-0.886-1.974-1.975-1.974h-10.266V22.3h-4.016c-7.503,0-13.753,5.343-15.161,12.432h-3.724
	c-0.011,0-1.196-0.053-2.313-0.688c-1.543-0.883-2.293-2.506-2.293-4.969V11.183c0-5.676-2.76-8.443-5.076-9.765
	C201.479,0.042,199.096,0,198.833,0s-2.646,0.042-5.057,1.416c-2.315,1.324-5.075,4.091-5.075,9.768v49.466
	c0,5.146-3.552,5.629-4.61,5.656c-0.01,0-1.196-0.053-2.312-0.69c-1.541-0.88-2.291-2.504-2.291-4.966V43v-0.244
	c0-0.035-0.011-0.072-0.011-0.107c-0.114-5.433-2.802-8.119-5.067-9.413c-2.41-1.379-4.793-1.418-5.057-1.418
	c-1.514,0-2.727,1.218-2.746,2.731C166.588,36.062,167.808,37.308,169.321,37.344"/>
</svg>
