<?xml version="1.0" encoding="UTF-8" standalone="no"?>
<svg width="293px" height="356px" viewBox="0 0 293 356" version="1.1" xmlns="http://www.w3.org/2000/svg" xmlns:xlink="http://www.w3.org/1999/xlink">
    <!-- Generator: sketchtool 39.1 (31720) - http://www.bohemiancoding.com/sketch -->
    <title>9BBB2E51-6419-4C25-886B-96D413FA254F</title>
    <desc>Created with sketchtool.</desc>
    <defs></defs>
    <g id="Page-2" stroke="none" stroke-width="1" fill="none" fill-rule="evenodd">
        <g id="specs--ma2--wipPage-02" transform="translate(-373.000000, -252.000000)">
            <g id="image-wip-02" transform="translate(373.000000, 252.000000)">
                <rect id="Rectangle-4" fill="#FFFFFF" x="0" y="0" width="293" height="356"></rect>
                <rect id="Rectangle" fill="#CDD2D9" x="20" y="334" width="128" height="8"></rect>
                <rect id="Rectangle" fill="#CDD2D9" x="20" y="302" width="140" height="8"></rect>
                <rect id="Rectangle" fill="#CDD2D9" x="20" y="318" width="110" height="8"></rect>
                <rect id="Rectangle-826" fill="#CDD2D9" x="55.3777469" y="208.894496" width="29.0888627" height="52.8888413" rx="2"></rect>
                <rect id="Rectangle-827" fill="#CDD2D9" x="93.7221568" y="174.516749" width="29.0888627" height="87.2665882" rx="2"></rect>
                <rect id="Rectangle-828" fill="#CDD2D9" x="132.066567" y="141.461223" width="29.0888627" height="120.322114" rx="2"></rect>
                <rect id="Rectangle-829" fill="#CDD2D9" x="170.410977" y="115.016802" width="29.0888627" height="146.766535" rx="2"></rect>
                <rect id="Rectangle" fill="#CDD2D9" x="20" y="284" width="253" height="1"></rect>
                <rect id="Rectangle-830" fill="#CDD2D9" x="208.755387" y="84.6057185" width="29.0888627" height="177.177618" rx="2"></rect>
                <rect id="Rectangle" fill="#CDD2D9" x="76" y="27" width="197" height="14"></rect>
                <rect id="Rectangle" fill="#CDD2D9" x="76" y="47" width="124" height="8"></rect>
                <circle id="Oval-2" fill="#CDD2D9" cx="41" cy="41" r="21"></circle>
            </g>
        </g>
    </g>
</svg>