<?xml version="1.0" encoding="UTF-8"?>
<svg width="314px" height="72px" viewBox="0 0 314 72" version="1.1" xmlns="http://www.w3.org/2000/svg" xmlns:xlink="http://www.w3.org/1999/xlink">
    <!-- Generator: Sketch 42 (36781) - http://www.bohemiancoding.com/sketch -->
    <title>image_evVehicle_clouds_opacity</title>
    <desc>Created with Sketch.</desc>
    <defs></defs>
    <g id="Page-1" stroke="none" stroke-width="1" fill="none" fill-rule="evenodd" opacity="0.229999989">
        <g id="image_evVehicle_clouds_opacity" fill-rule="nonzero" fill="#00DFED">
            <path d="M239.707,19.276 C239.683,18.904 239.667,18.536 239.667,18.162 C239.667,8.134 247.81,0 257.831,0 C267.365,0 275.173,7.334 275.937,16.664 C276.879,16.371 277.872,16.218 278.91,16.218 C281.577,16.218 283.991,17.258 285.797,18.951 C287.793,16.051 291.143,14.146 294.936,14.146 C300.825,14.146 305.64,18.735 305.998,24.536 C306.527,24.383 307.081,24.301 307.649,24.301 C310.977,24.301 313.661,26.992 313.663,30.313 C313.663,33.631 310.969,36.323 307.649,36.319 L240.753,36.319 C236.024,36.319 232.194,32.491 232.194,27.762 C232.193,23.394 235.475,19.787 239.707,19.276" id="Cloud_3"></path>
            <path d="M221.037,59.754 C220.361,59.754 219.717,59.865 219.111,60.078 C219.287,59.174 219.382,58.244 219.382,57.298 C219.382,49.37 212.962,42.956 205.039,42.956 C197.105,42.956 190.683,49.375 190.683,57.298 C190.683,57.406 190.695,57.504 190.695,57.611 C189.783,57.211 188.783,56.984 187.724,56.984 C183.667,56.984 180.388,60.262 180.388,64.312 C180.388,68.361 183.669,71.646 187.724,71.646 L221.036,71.644 C224.319,71.644 226.985,68.979 226.985,65.699 C226.986,62.416 224.32,59.754 221.037,59.754" id="Cloud_2"></path>
            <path d="M72.746,30.719 L72.726,30.719 C72.726,30.499 72.746,30.281 72.746,30.059 C72.746,17.277 62.373,6.912 49.587,6.912 C39.139,6.912 30.302,13.844 27.433,23.356 C25.685,22.534 23.741,22.069 21.684,22.069 C14.233,22.069 8.188,28.11 8.188,35.562 C8.188,37.28 8.51,38.917 9.095,40.429 C8.946,40.417 8.802,40.405 8.653,40.405 C3.875,40.405 0,44.276 0,49.055 C0,53.829 3.875,57.707 8.652,57.707 L72.746,57.707 C80.196,57.707 86.233,51.664 86.233,44.212 C86.233,36.758 80.195,30.719 72.746,30.719" id="Cloud_1"></path>
        </g>
    </g>
</svg>