<?xml version="1.0" encoding="utf-8"?>
<!-- Generator: Adobe Illustrator 16.0.0, SVG Export Plug-In . SVG Version: 6.00 Build 0)  -->
<!DOCTYPE svg PUBLIC "-//W3C//DTD SVG 1.1//EN" "http://www.w3.org/Graphics/SVG/1.1/DTD/svg11.dtd">
<svg version="1.1" id="Layer_1" xmlns="http://www.w3.org/2000/svg" xmlns:xlink="http://www.w3.org/1999/xlink" x="0px" y="0px"
	 width="86px" height="87px" viewBox="0 0 86 87" enable-background="new 0 0 86 87" xml:space="preserve">
<title>inactive_trolley</title>
<desc>Created with Sketch.</desc>
<path id="Fill-3" fill="#48515F" d="M44.593,80.963c-3.979,1.601-8.521-0.328-10.124-4.301c-1.604-3.973,0.328-8.508,4.307-10.109
	c3.979-1.601,8.521,0.328,10.125,4.301C50.504,74.826,48.572,79.361,44.593,80.963 M81.537,50.159
	c-10.733,4.319-21.467,8.64-32.2,12.96l0,0c-0.483-0.346-0.987-0.657-1.509-0.934c-5.431-13.449-10.861-26.9-16.292-40.35
	c-2.371-5.873-4.742-11.746-7.113-17.618c-0.329-0.813-1.099-1.621-1.987-1.909l-2.896,7.354
	c5.615,13.908,11.23,27.815,16.845,41.722c1.259,3.119,2.519,6.238,3.778,9.357c-1.137,0.133-2.275,0.413-3.387,0.86
	c-6.713,2.702-9.973,10.353-7.267,17.056c2.706,6.701,10.369,9.957,17.082,7.255s9.973-10.353,7.267-17.056
	c-0.058-0.141-0.12-0.278-0.181-0.416l0,0c10.105-4.066,20.21-8.135,30.314-12.201C87.92,54.659,85.465,48.578,81.537,50.159"/>
<path id="Fill-69" fill="#B0B8C3" d="M24.016,3.265c-0.008-0.037-0.018-0.071-0.027-0.106c-0.016-0.064-0.032-0.127-0.05-0.188
	c-0.013-0.042-0.026-0.083-0.039-0.123c-0.017-0.05-0.033-0.101-0.051-0.149c-0.016-0.044-0.033-0.086-0.05-0.128
	c-0.017-0.042-0.034-0.082-0.051-0.122c-0.02-0.044-0.04-0.087-0.06-0.129c-0.017-0.033-0.033-0.066-0.05-0.098
	c-0.023-0.044-0.047-0.088-0.071-0.13c-0.015-0.025-0.03-0.05-0.045-0.074c-0.028-0.044-0.055-0.089-0.084-0.131
	c-0.011-0.016-0.023-0.031-0.034-0.047c-0.033-0.047-0.067-0.093-0.101-0.136c-0.192-0.239-0.402-0.424-0.615-0.555l0,0
	c0,0-0.001,0-0.001-0.001c-0.061-0.038-0.123-0.07-0.184-0.1c-0.014-0.007-0.028-0.013-0.042-0.019
	c-0.048-0.021-0.095-0.041-0.143-0.057c-0.018-0.006-0.035-0.012-0.052-0.017c-0.045-0.014-0.089-0.025-0.133-0.035
	c-0.016-0.003-0.033-0.008-0.049-0.011c-0.058-0.01-0.116-0.018-0.171-0.021l-2.751-0.124l0,0l-2.723-0.123l-0.94-0.042l0,0
	l-2.723-0.123l0,0l-0.94-0.042L9.112,0.313l0,0L7.203,0.227L5.449,0.148l0,0L5.327,0.143c-0.673-0.03-1.339,0.057-1.95,0.25
	C3.37,0.395,3.362,0.397,3.354,0.399C3.24,0.437,3.128,0.476,3.019,0.52C1.493,1.133,0.481,2.413,0.242,4.028
	c-0.013,0.09-0.023,0.18-0.03,0.271C0.21,4.324,0.209,4.349,0.208,4.375C0.203,4.443,0.2,4.511,0.199,4.579c0,0.025,0,0.051,0,0.076
	c0,0.075,0.002,0.15,0.006,0.225c0.001,0.016,0.001,0.031,0.002,0.047C0.27,5.92,0.661,6.919,1.325,7.723
	c0.1,0.121,0.205,0.235,0.313,0.342C1.651,8.079,1.666,8.09,1.68,8.103c0.098,0.095,0.198,0.185,0.302,0.268
	c0.004,0.004,0.009,0.007,0.014,0.011c0.56,0.446,1.202,0.731,1.884,0.831C4.003,9.232,4.128,9.245,4.254,9.25l2.879,0.126
	l2.725,0.12l0,0l0.941,0.041l2.726,0.119l0,0l0.941,0.041v0l2.725,0.119l0,0l0.941,0.042l0,0l1.484,0.065l4.462-6.34
	C24.061,3.474,24.039,3.368,24.016,3.265"/>
<path id="Fill-71" fill="#48515F" d="M40.297,70.322c-1.897,0.764-2.819,2.926-2.054,4.82c0.765,1.895,2.931,2.814,4.829,2.051
	s2.819-2.926,2.054-4.82C44.36,70.479,42.194,69.559,40.297,70.322"/>
<path id="Fill-73" fill="#B0B8C3" d="M32.228,77.584c-0.002-0.006-0.005-0.012-0.007-0.018c-2.089-5.174,0.397-11.074,5.543-13.211
	l-0.523-1.296c-5.861,2.426-8.695,9.141-6.317,15.029c0.002,0.006,0.005,0.011,0.007,0.017L32.228,77.584z"/>
</svg>
