<?xml version="1.0" encoding="utf-8"?>
<!-- Generator: Adobe Illustrator 16.0.0, SVG Export Plug-In . SVG Version: 6.00 Build 0)  -->
<!DOCTYPE svg PUBLIC "-//W3C//DTD SVG 1.1//EN" "http://www.w3.org/Graphics/SVG/1.1/DTD/svg11.dtd">
<svg version="1.1" id="Layer_1" xmlns="http://www.w3.org/2000/svg" xmlns:xlink="http://www.w3.org/1999/xlink" x="0px" y="0px"
	 width="86px" height="87px" viewBox="0 0 86 87" enable-background="new 0 0 86 87" xml:space="preserve">
<title>inactive_trolley</title>
<desc>Created with Sketch.</desc>
<path id="Fill-7" fill="#FFE9AB" d="M82.753,47.686c0.464,1.148-0.099,2.467-1.249,2.93L50.542,63.077
	c-1.15,0.464-2.472-0.098-2.935-1.247L35.125,30.917c-0.464-1.148,0.098-2.467,1.249-2.931l30.961-12.461
	c1.15-0.463,2.472,0.098,2.936,1.247L82.753,47.686z"/>
<path id="Combined-Shape" fill="#ED8B00" d="M66.846,50.656l-3.425-8.483l-1.538,0.619l3.426,8.484L66.846,50.656z M67.83,50.26
	l-3.426-8.483l-0.738,0.297l3.426,8.483L67.83,50.26z M70.048,49.379l-3.429-8.494l-1.537,0.619l3.428,8.494L70.048,49.379z
	 M70.939,49.02l-3.43-8.493l-0.553,0.223l3.43,8.493L70.939,49.02z M68.03,40.317l4.005,9.921l1.538-0.619l-4.005-9.92L68.03,40.317
	z M69.813,39.6l4.005,9.921l0.295-0.118l-4.005-9.921L69.813,39.6z M70.535,39.343l4.005,9.92l0.294-0.118l-4.005-9.921
	L70.535,39.343z M71.197,39.042l4.006,9.92l1.23-0.494l-4.006-9.921L71.197,39.042z M72.582,38.485l4.005,9.921l0.399-0.161
	l-4.005-9.92L72.582,38.485z M74.213,37.829l-0.865,0.348l4.006,9.921l0.865-0.348L74.213,37.829z M59.914,43.584l4.006,9.92
	l0.399-0.16l-4.005-9.921L59.914,43.584z M60.681,43.275l4.005,9.921l0.865-0.349l-4.005-9.92L60.681,43.275z M68.637,50.289
	l0.074,0.182l0.215-0.087l0.424,1.052l0.232-0.094l-0.498-1.233L68.637,50.289z M70.225,50.824l0.219-0.451
	c0.041-0.08,0.064-0.155,0.072-0.223c0.007-0.068-0.002-0.132-0.025-0.19c-0.043-0.106-0.117-0.182-0.224-0.226
	c-0.106-0.043-0.216-0.042-0.328,0.004c-0.122,0.049-0.204,0.127-0.247,0.233s-0.039,0.224,0.014,0.351l0.001,0.004l0.243-0.098
	l-0.009-0.021c-0.023-0.059-0.028-0.109-0.014-0.152s0.046-0.074,0.096-0.094c0.047-0.02,0.091-0.02,0.134-0.002
	c0.041,0.019,0.071,0.051,0.09,0.098c0.015,0.034,0.019,0.076,0.013,0.123c-0.007,0.047-0.022,0.098-0.049,0.154l-0.278,0.6
	l0.093,0.23l0.813-0.328l-0.089-0.223L70.225,50.824z M71.561,49.859c-0.057-0.041-0.127-0.062-0.211-0.066
	c0.031-0.045,0.048-0.091,0.053-0.137c0.005-0.045-0.003-0.093-0.023-0.143c-0.033-0.084-0.093-0.145-0.178-0.18
	c-0.086-0.037-0.171-0.037-0.258-0.002c-0.097,0.039-0.162,0.101-0.198,0.186c-0.034,0.085-0.032,0.178,0.009,0.277l0.213-0.086
	c-0.013-0.038-0.016-0.07-0.008-0.098c0.009-0.027,0.028-0.047,0.059-0.06c0.033-0.013,0.062-0.014,0.09-0.001
	s0.047,0.037,0.062,0.072c0.018,0.045,0.018,0.082,0.002,0.111c-0.016,0.03-0.049,0.056-0.101,0.076
	c-0.003,0.002-0.009,0.004-0.017,0.006s-0.014,0.004-0.018,0.006l0.083,0.204c0.004-0.001,0.009-0.005,0.018-0.008
	c0.007-0.004,0.013-0.007,0.017-0.008c0.075-0.03,0.139-0.037,0.191-0.021c0.051,0.018,0.09,0.058,0.115,0.121
	c0.025,0.062,0.028,0.121,0.01,0.174c-0.02,0.054-0.057,0.092-0.111,0.113c-0.051,0.021-0.099,0.02-0.144-0.003
	c-0.046-0.022-0.079-0.062-0.103-0.12l-0.004-0.008l-0.23,0.092l0.002,0.006c0.053,0.129,0.129,0.217,0.23,0.262
	c0.102,0.044,0.217,0.041,0.344-0.011c0.065-0.026,0.117-0.06,0.156-0.099c0.037-0.04,0.068-0.093,0.091-0.158
	c0.019-0.055,0.028-0.108,0.026-0.16c0-0.052-0.012-0.104-0.033-0.158C71.662,49.961,71.617,49.9,71.561,49.859z M47.859,39.621
	c0.062,0.155-0.013,0.334-0.168,0.396l-4.193,1.688c-0.156,0.062-0.334-0.014-0.397-0.169l-1.69-4.186
	c-0.062-0.156,0.014-0.334,0.169-0.397l4.192-1.687c0.156-0.063,0.336,0.013,0.398,0.168L47.859,39.621z M50.194,45.402
	c0.062,0.156-0.013,0.334-0.169,0.396l-4.193,1.688c-0.156,0.062-0.334-0.013-0.397-0.168l-1.69-4.187
	c-0.062-0.156,0.014-0.334,0.17-0.397l4.192-1.688c0.155-0.063,0.335,0.013,0.397,0.169L50.194,45.402z M52.528,51.184
	c0.063,0.156-0.013,0.334-0.169,0.396l-4.193,1.688c-0.155,0.062-0.334-0.014-0.396-0.169l-1.691-4.187
	c-0.062-0.155,0.014-0.334,0.17-0.396l4.192-1.688c0.156-0.063,0.335,0.013,0.397,0.169L52.528,51.184z M54.863,56.965
	c0.062,0.156-0.014,0.335-0.17,0.397l-4.192,1.688c-0.156,0.062-0.335-0.013-0.397-0.169l-1.69-4.186
	c-0.062-0.156,0.013-0.334,0.169-0.397l4.193-1.688c0.155-0.062,0.334,0.013,0.396,0.169L54.863,56.965z M41.872,25.733
	l-1.223,0.492l-0.837,0.337l2.301,5.699l0.112-0.045l0.279-0.521l0.562,0.182l0.271-0.109l0.279-0.521l0.562,0.182l0.271-0.109
	l0.279-0.521l0.563,0.182l0.271-0.109l0.278-0.52l0.562,0.182l0.273-0.11l0.279-0.521l0.142,0.046l-2.195-5.437L41.872,25.733z
	 M63.871,16.879l-5.094,2.05l2.301,5.699l0.112-0.045l0.279-0.521l0.562,0.182l0.271-0.109l0.279-0.52l0.563,0.181l0.271-0.109
	l0.278-0.52l0.563,0.181l0.271-0.109l0.278-0.521l0.562,0.182l0.273-0.109l0.279-0.521l0.142,0.045L63.871,16.879z"/>
<path id="Fill-33" fill="#ED8B00" d="M66.439,52.31c-0.015,0.052-0.055,0.091-0.119,0.118c-0.065,0.025-0.121,0.025-0.167-0.001
	s-0.086-0.079-0.118-0.159l-0.15-0.371c-0.031-0.078-0.039-0.144-0.022-0.195c0.017-0.053,0.056-0.091,0.119-0.117
	c0.036-0.014,0.073-0.02,0.108-0.015c0.035,0.004,0.068,0.018,0.098,0.04c0.013,0.01,0.023,0.023,0.034,0.039
	s0.022,0.042,0.036,0.077l0.154,0.382C66.445,52.19,66.455,52.258,66.439,52.31 M66.656,52.017l-0.147-0.366
	c-0.028-0.072-0.059-0.128-0.089-0.168c-0.029-0.041-0.062-0.072-0.102-0.094c-0.066-0.037-0.137-0.058-0.209-0.062
	c-0.072-0.005-0.145,0.009-0.217,0.037c-0.078,0.032-0.141,0.072-0.188,0.123c-0.049,0.051-0.082,0.112-0.102,0.186
	c-0.014,0.046-0.018,0.091-0.014,0.138c0.006,0.047,0.023,0.107,0.055,0.185l0.148,0.368c0.029,0.071,0.059,0.127,0.088,0.167
	s0.063,0.071,0.102,0.093c0.067,0.037,0.137,0.058,0.209,0.062c0.072,0.005,0.145-0.009,0.217-0.037
	c0.078-0.032,0.141-0.073,0.189-0.123c0.047-0.05,0.081-0.112,0.102-0.185c0.013-0.045,0.017-0.091,0.012-0.138
	C66.705,52.155,66.688,52.094,66.656,52.017"/>
<path id="Fill-35" fill="#ED8B00" d="M67.449,51.903c-0.016,0.052-0.056,0.091-0.121,0.118c-0.064,0.025-0.119,0.025-0.166-0.001
	c-0.046-0.026-0.086-0.079-0.117-0.159l-0.15-0.371c-0.031-0.078-0.039-0.144-0.023-0.195c0.017-0.053,0.057-0.091,0.119-0.117
	c0.037-0.014,0.073-0.02,0.109-0.015c0.035,0.004,0.068,0.018,0.098,0.04c0.012,0.01,0.023,0.023,0.033,0.039
	c0.011,0.016,0.023,0.042,0.037,0.077l0.154,0.382C67.455,51.784,67.464,51.852,67.449,51.903 M67.666,51.61l-0.148-0.365
	c-0.029-0.073-0.059-0.129-0.088-0.169c-0.029-0.041-0.064-0.072-0.102-0.094c-0.067-0.037-0.137-0.058-0.209-0.062
	c-0.072-0.005-0.145,0.009-0.217,0.038c-0.078,0.031-0.141,0.071-0.188,0.123c-0.048,0.05-0.082,0.111-0.102,0.185
	c-0.013,0.046-0.018,0.091-0.013,0.138s0.023,0.107,0.054,0.185l0.148,0.368c0.029,0.071,0.059,0.127,0.088,0.167
	c0.03,0.04,0.063,0.071,0.103,0.093c0.066,0.037,0.137,0.058,0.209,0.062c0.072,0.005,0.145-0.009,0.217-0.037
	c0.078-0.032,0.141-0.073,0.188-0.122c0.048-0.051,0.081-0.112,0.102-0.186c0.013-0.045,0.017-0.091,0.013-0.138
	C67.715,51.749,67.697,51.688,67.666,51.61"/>
<path id="Fill-37" fill="#ED8B00" d="M68.458,51.498c-0.015,0.051-0.056,0.09-0.12,0.117c-0.064,0.025-0.119,0.025-0.166-0.001
	s-0.086-0.079-0.119-0.159l-0.148-0.371c-0.032-0.078-0.039-0.143-0.023-0.195s0.056-0.091,0.119-0.116
	c0.037-0.015,0.072-0.021,0.108-0.016c0.036,0.004,0.067,0.018,0.098,0.04c0.013,0.01,0.024,0.023,0.034,0.039
	c0.01,0.017,0.021,0.042,0.036,0.077l0.154,0.382C68.465,51.378,68.473,51.445,68.458,51.498 M68.676,51.204l-0.148-0.365
	c-0.029-0.073-0.059-0.129-0.088-0.169c-0.03-0.041-0.064-0.072-0.103-0.094c-0.067-0.037-0.137-0.058-0.209-0.062
	s-0.145,0.009-0.217,0.038c-0.077,0.031-0.141,0.071-0.188,0.123c-0.047,0.05-0.082,0.111-0.102,0.186
	c-0.013,0.045-0.018,0.09-0.012,0.137c0.004,0.047,0.022,0.107,0.053,0.185l0.148,0.368c0.029,0.071,0.059,0.127,0.088,0.167
	c0.03,0.04,0.064,0.071,0.103,0.093c0.067,0.037,0.137,0.058,0.209,0.062c0.072,0.004,0.145-0.009,0.217-0.038
	c0.078-0.032,0.142-0.072,0.188-0.122c0.048-0.051,0.082-0.112,0.102-0.186c0.014-0.045,0.018-0.091,0.012-0.138
	C68.725,51.343,68.706,51.281,68.676,51.204"/>
<path id="Combined-Shape_1_" fill="#FFE9AB" d="M43.404,37.912l-0.244,0.039c-0.244-0.005-0.285,0.307-0.285,0.307l1.104,0.177
	l0.452,0.073l-0.138,0.986l-0.69,0.187c-0.101-0.002-0.131,0.193-0.131,0.196v0l0.758,0.101l0.002,0
	c0.009,0.077,0.033,0.129,0.072,0.138c0,0,0.002,0,0.002,0v0c0.039,0.009,0.084-0.026,0.127-0.09l0.135,0.046l0.599,0.207l0,0
	l0.003,0.001c0.022-0.069-0.012-0.224-0.012-0.224l-0.571-0.511c0.003-0.011,0.006-0.021,0.009-0.032l0.309-0.888l1.523,0.482
	l0.002,0.001c0.086-0.228-0.041-0.365-0.041-0.365l-0.24-0.171l-0.179-0.127l-0.086-0.061l0.044-0.193l0,0
	c0-0.001,0.001-0.001,0.001-0.002c0.007-0.028-0.015-0.056-0.048-0.063l-0.119-0.026c-0.031-0.007-0.062,0.01-0.068,0.037
	c-0.002,0.005-0.002,0.011-0.001,0.016l-0.019,0.081l-0.5-0.356c0.032-0.082,0.071-0.171,0.086-0.234
	c0.098-0.415-0.004-0.793-0.169-0.832l0,0c-0.001,0-0.002,0-0.003-0.001c-0.166-0.039-0.434,0.254-0.532,0.668
	c-0.011,0.047-0.044,0.256-0.044,0.256l-0.551,0.088l0.021-0.09h-0.001c0.001,0,0.001-0.001,0.001-0.002
	c0.006-0.027-0.015-0.056-0.047-0.063l-0.117-0.026c-0.032-0.007-0.062,0.01-0.068,0.038l-0.043,0.184l-0.088,0.014L43.404,37.912z
	 M47.473,42.5l-0.42,0.169l0.066,0.164l0.072-0.014l-0.466,0.88l0.181-0.73l-0.386,0.155l0.169-0.309l-1.311,0.527
	c0.289,0.65,0.926,1.009,1.451,0.916l0.502,1.246l-0.314,0.127l0.063,0.156l0.863-0.348l-0.063-0.156l-0.295,0.119l-0.5-1.236
	C47.529,43.869,47.717,43.167,47.473,42.5z M48.809,48.608l-0.02-0.048c-0.017-0.041-0.062-0.061-0.104-0.044
	s-0.062,0.063-0.045,0.104l0.02,0.049c-0.679,0.315-1.051,1.04-0.939,1.757c0.044-0.105,0.129-0.195,0.244-0.241
	c0.218-0.087,0.463,0.009,0.566,0.214c-0.068-0.22,0.042-0.459,0.26-0.546c0.122-0.05,0.254-0.04,0.363,0.013l0.627,1.555
	c0,0,0.001,0,0.002,0c0.051,0.101,0.174,0.146,0.283,0.104c0.111-0.045,0.168-0.17,0.127-0.281c0,0,0.001,0,0.001-0.001
	l-0.037-0.095c-0.013-0.029-0.044-0.045-0.071-0.034s-0.042,0.044-0.031,0.073l0,0c0,0,0,0.001,0,0.002
	c0.032,0.07,0.061,0.158-0.03,0.197c-0.065,0.028-0.11-0.013-0.12-0.036c-0.128-0.312-0.352-0.867-0.566-1.4
	c-0.006-0.182,0.1-0.356,0.278-0.429c0.218-0.087,0.463,0.009,0.565,0.214c-0.067-0.22,0.043-0.458,0.26-0.546
	c0.08-0.031,0.162-0.039,0.24-0.025C50.252,48.604,49.498,48.363,48.809,48.608z M51.094,57.287l0.471-0.189l-0.76-1.881
	l0.412-0.166l-0.908-0.385l-0.386,0.905l0.411-0.165L51.094,57.287z M52.484,56.728l0.471-0.189l-0.76-1.882l0.412-0.165
	l-0.908-0.386l-0.386,0.906l0.411-0.166L52.484,56.728z M53.983,56.68l-3.531,1.422l-0.134-0.33l3.531-1.422L53.983,56.68z"/>
</svg>
