<?xml version="1.0" encoding="UTF-8" standalone="no"?>
<svg width="178px" height="180px" viewBox="0 0 178 180" version="1.1" xmlns="http://www.w3.org/2000/svg" xmlns:xlink="http://www.w3.org/1999/xlink">
    <!-- Generator: Sketch 40.3 (33839) - http://www.bohemiancoding.com/sketch -->
    <title>inactive_trolley</title>
    <desc>Created with Sketch.</desc>
    <defs></defs>
    <g id="Page-1" stroke="none" stroke-width="1" fill="none" fill-rule="evenodd">
        <g id="sm---InactiveAccount---Settings" transform="translate(-99.000000, -273.000000)">
            <g id="inactive_trolley" transform="translate(99.000000, 273.000000)">
                <g id="Group-26">
                    <path d="M91.8831456,167.508049 C83.6847939,170.821236 74.3268054,166.830082 71.0220129,158.610907 C67.7172204,150.392225 71.6982623,141.009973 79.8961206,137.696786 C88.0944723,134.383599 97.4524608,138.374753 100.757747,146.593929 C104.062046,154.813104 100.081497,164.194863 91.8831456,167.508049 M168.006328,103.77717 C145.889867,112.714863 123.7739,121.653049 101.657933,130.590742 L101.657933,130.591236 C100.663535,129.87717 99.6252385,129.231841 98.5484681,128.660192 C87.3590326,100.83239 76.1695972,73.0050824 64.9801617,45.1772802 C60.0949878,33.0267857 55.2093207,20.8767857 50.3236536,8.72629121 C49.6469111,7.04348901 48.0606107,5.37206044 46.2301502,4.77667582 L40.2642599,19.9931044 C51.8339931,48.7668956 63.4037264,77.5406868 74.9734596,106.314478 C77.5684616,112.767775 80.1629703,119.221071 82.7579723,125.673874 C80.4145291,125.947335 78.069113,126.527885 75.7779546,127.454093 C61.9461649,133.043984 55.2290508,148.873104 60.8052716,162.740027 C66.3809991,176.606951 82.1700152,183.340632 96.0018049,177.750742 C109.833595,172.160852 116.550215,156.331731 110.974488,142.464808 C110.857094,142.172555 110.728355,141.888214 110.602082,141.60239 L110.602082,141.602885 C131.423261,133.188379 152.244441,124.773379 173.06562,116.358874 C181.158909,113.088214 176.099616,100.506016 168.006328,103.77717" id="Fill-3" fill="#48515F"></path>
                    <path d="M49.4847296,6.75588462 C49.4674658,6.68022527 49.4472424,6.60901648 49.4289921,6.53533516 C49.3959441,6.4033022 49.3628962,6.27126923 49.3259023,6.14566484 C49.3002531,6.05813736 49.2721377,5.97506044 49.2450088,5.8905 C49.2109744,5.78615934 49.1774332,5.68181868 49.1409325,5.58242308 C49.1078846,5.49143407 49.0733569,5.4044011 49.038336,5.31736813 C49.0038083,5.23181868 48.9692806,5.14775275 48.9332732,5.06615934 C48.8933197,4.97467582 48.8518865,4.88566484 48.8094668,4.79813736 C48.7759256,4.7294011 48.7418912,4.66214835 48.7068702,4.59637912 C48.6590247,4.5048956 48.610686,4.4148956 48.5608675,4.32835714 C48.5302858,4.27593956 48.4987176,4.22500549 48.4676427,4.17407143 C48.4109187,4.08209341 48.3537014,3.99060989 48.2950043,3.90407143 C48.2718214,3.87044505 48.2476521,3.8387967 48.2244692,3.80615934 C48.1559071,3.70923626 48.0868517,3.6137967 48.0158233,3.52478571 C47.6192482,3.02929121 47.1866657,2.64802747 46.7481641,2.37555495 L46.7481641,2.37555495 C46.7476709,2.37506044 46.7466844,2.37506044 46.7461911,2.37456593 C46.6204117,2.29643407 46.494139,2.22868681 46.3678664,2.16835714 C46.3392577,2.15401648 46.3106491,2.14214835 46.2820404,2.12929121 C46.1833899,2.08528022 46.0862191,2.04571978 45.9885551,2.0115989 C45.9530409,1.99923626 45.9175267,1.98687363 45.8820125,1.97599451 C45.789281,1.94731319 45.6980293,1.92357692 45.6072708,1.90429121 C45.5737297,1.89687363 45.5401885,1.88797253 45.5071405,1.88203846 C45.3867869,1.86077473 45.2684063,1.84544505 45.1534784,1.84000549 L39.4840329,1.58385165 L39.4845262,1.58385165 L33.8737777,1.33017033 L31.9357882,1.24214835 L31.9357882,1.24214835 L26.3250398,0.988467033 L26.3250398,0.988467033 L24.3870503,0.90093956 L18.7763018,0.647258242 L18.7763018,0.647258242 L14.8416258,0.469236264 L11.2280571,0.306049451 L11.2275639,0.306049451 L10.9760051,0.294675824 C9.58947197,0.231873626 8.21674996,0.412368132 6.9579693,0.812423077 C6.94267847,0.817368132 6.92689438,0.821818681 6.91160355,0.826763736 C6.67681531,0.902917582 6.44498658,0.983521978 6.21957014,1.07451099 C3.07656451,2.3448956 0.99109247,4.99148901 0.498826365,8.33434615 C0.471697471,8.51978571 0.451967367,8.70670879 0.436676536,8.89462088 C0.432237262,8.94654396 0.430264252,8.99846703 0.427304736,9.05088462 C0.418426189,9.19181868 0.412013905,9.33275275 0.410040895,9.47418132 C0.40905439,9.5265989 0.40905439,9.57852198 0.409547642,9.63044505 C0.409547642,9.78571978 0.413986916,9.94099451 0.421878958,10.0962692 C0.423851968,10.1284121 0.424838473,10.1610495 0.426811484,10.1931923 C0.556043668,12.2478626 1.36251169,14.3163791 2.72980792,15.9789066 C2.93549426,16.2291264 3.1515389,16.464511 3.37498234,16.6870385 C3.40260448,16.7147308 3.43269289,16.7379725 3.46080829,16.7651703 C3.66205535,16.9609945 3.8687282,17.1474231 4.08230658,17.3200055 C4.09167838,17.3274231 4.10154343,17.3338516 4.11042198,17.3412692 C5.26364658,18.2650055 6.58802984,18.8554451 7.99232002,19.0611593 C8.24782487,19.1007198 8.50579599,19.1274231 8.76623337,19.1392912 L14.697596,19.3998956 L20.3127837,19.6466538 L20.3127837,19.6466538 L22.252253,19.7317088 L27.8674407,19.978467 L27.8674407,19.978467 L29.80691,20.063522 L29.80691,20.0640165 L35.4216044,20.3102802 L35.4220977,20.3102802 L37.3615669,20.3958297 L37.3615669,20.3958297 L40.4197331,20.5298407 L49.6134685,7.41357692 C49.5764746,7.1865989 49.5325751,6.96802747 49.4847296,6.75588462" id="Fill-69" fill="#B0B8C3"></path>
                    <path d="M83.0313329,145.493703 C79.1213194,147.073648 77.2227901,151.548429 78.7987322,155.468374 C80.3751676,159.387824 84.8381172,161.29167 88.7481306,159.711231 C92.6581441,158.131286 94.5566734,153.656505 92.9807313,149.737055 C91.4042959,145.81711 86.9413463,143.913758 83.0313329,145.493703" id="Fill-71" fill="#48515F"></path>
                    <path d="M66.4058097,160.517522 C66.4008772,160.505654 66.3954514,160.49428 66.3905189,160.482907 C62.0863966,149.777357 67.2098115,137.570984 77.8127696,133.148126 L76.7350126,130.468401 C64.658709,135.487137 58.8190913,149.379775 63.7180762,161.562907 C63.7230088,161.574775 63.7284346,161.585654 63.7333671,161.597522 L66.4058097,160.517522 Z" id="Fill-73" fill="#B0B8C3"></path>
                    <path d="M170.511311,98.6584945 C171.467235,101.035582 170.309077,103.763769 167.938505,104.722121 L104.141706,130.504648 C101.770641,131.463 99.0488729,130.302396 98.0934426,127.925308 L72.3757447,63.9664615 C71.4203144,61.5898681 72.5779783,58.8611868 74.9490436,57.9028352 L138.745843,32.1203077 C141.116415,31.161956 143.838183,32.3225604 144.794106,34.6996484 L170.511311,98.6584945 Z" id="Fill-7" fill="#FFE9AB"></path>
                </g>
                <path d="M137.735168,104.805593 L130.67771,87.2536154 L127.509548,88.5338901 L134.567007,106.085868 L137.735168,104.805593 Z M139.762733,103.986198 L132.705274,86.4342198 L131.184576,87.0488901 L138.242035,104.600868 L139.762733,103.986198 Z M144.333014,102.162758 L137.267664,84.5905055 L134.099502,85.8707802 L141.164852,103.443033 L144.333014,102.162758 Z M146.170479,101.420209 L139.104635,83.847956 L137.964235,84.3088352 L145.030079,101.881088 L146.170479,101.420209 Z M140.175289,83.4154615 L148.428392,103.940901 L151.596553,102.660626 L143.343451,82.1351868 L140.175289,83.4154615 Z M143.850169,81.9302637 L152.103272,102.455703 L152.710466,102.210429 L144.457363,81.684989 L143.850169,81.9302637 Z M145.33555,81.3999066 L153.588653,101.925346 L154.195846,101.680071 L145.942744,81.1546319 L145.33555,81.3999066 Z M146.702599,80.777522 L154.955702,101.302962 L157.490034,100.278841 L149.236931,79.7534011 L146.702599,80.777522 Z M149.553748,79.6252253 L157.80685,100.150665 L158.630582,99.8178626 L150.377479,79.2924231 L149.553748,79.6252253 Z M152.915067,78.2668187 L151.132945,78.9868187 L159.386048,99.5122582 L161.168169,98.7922582 L152.915067,78.2668187 Z M123.452891,90.1735714 L131.705994,110.699011 L132.529726,110.366209 L124.276623,89.8407692 L123.452891,90.1735714 Z M125.032138,89.5353626 L133.285241,110.060802 L135.067362,109.340802 L126.81426,88.8153626 L125.032138,89.5353626 Z M141.42529,104.045341 L141.576718,104.422154 L142.020646,104.242648 L142.894689,106.416989 L143.373638,106.223143 L142.348165,103.672484 L141.42529,104.045341 Z M144.697133,105.154863 L145.148459,104.220742 C145.231326,104.053104 145.280158,103.898819 145.295448,103.758379 C145.310739,103.617445 145.293969,103.486401 145.245137,103.365247 C145.156351,103.144203 145.002456,102.989423 144.783945,102.899918 C144.564941,102.810412 144.339525,102.81239 144.107696,102.906346 C143.857124,103.007225 143.687938,103.168434 143.599153,103.389478 C143.51086,103.611016 143.519246,103.85283 143.625295,104.115412 L143.628255,104.122335 L144.129399,103.920082 L144.111642,103.876071 C144.063303,103.755907 144.053932,103.651071 144.083033,103.56206 C144.112135,103.472555 144.178231,103.40728 144.280828,103.366236 C144.377012,103.326676 144.468757,103.326181 144.555076,103.363764 C144.641395,103.401841 144.703545,103.468599 144.742019,103.564533 C144.771121,103.636731 144.779506,103.721786 144.767175,103.818709 C144.754844,103.916126 144.721796,104.023434 144.667045,104.140632 L144.092405,105.378874 L144.284281,105.855577 L145.961833,105.177115 L145.777356,104.718214 L144.697133,105.154863 Z M147.450074,103.157308 C147.33268,103.072253 147.188157,103.026758 147.016012,103.019835 C147.078162,102.925879 147.114169,102.831923 147.124034,102.737967 C147.1339,102.644505 147.117622,102.545604 147.076189,102.441758 C147.006147,102.267692 146.88382,102.143571 146.708716,102.068901 C146.533611,101.994231 146.357027,101.993242 146.178962,102.06544 C145.978702,102.146044 145.842564,102.274615 145.770056,102.450165 C145.698041,102.626209 145.703467,102.817582 145.786827,103.024286 L146.226808,102.846264 C146.199679,102.767637 146.194253,102.700385 146.211517,102.643516 C146.228781,102.587143 146.268241,102.546593 146.329898,102.521374 C146.39846,102.493681 146.46061,102.492692 146.515854,102.518901 C146.571098,102.544615 146.613518,102.595055 146.643606,102.669725 C146.680107,102.760714 146.68208,102.837363 146.649525,102.899176 C146.616971,102.961484 146.547422,103.013901 146.441866,103.056923 C146.434467,103.059396 146.423123,103.063352 146.407832,103.068297 C146.392048,103.073242 146.38021,103.077692 146.372318,103.080659 L146.541996,103.502967 C146.549888,103.499505 146.561727,103.494066 146.578004,103.486154 C146.593788,103.478736 146.605133,103.473297 146.612038,103.47033 C146.767906,103.407527 146.899605,103.393681 147.005654,103.428791 C147.111703,103.463901 147.19161,103.547473 147.244388,103.679011 C147.296673,103.809066 147.303085,103.928736 147.264118,104.039011 C147.225151,104.149286 147.148697,104.227418 147.034263,104.273407 C146.930679,104.31544 146.832029,104.312967 146.739297,104.266484 C146.646073,104.22 146.575538,104.136923 146.527692,104.017747 L146.520293,104.00044 L146.044798,104.192802 L146.049237,104.203187 C146.157259,104.471703 146.316087,104.652198 146.524733,104.744176 C146.733872,104.836154 146.969646,104.829231 147.231564,104.723407 C147.367701,104.668022 147.47523,104.59978 147.553164,104.517692 C147.631591,104.436099 147.694235,104.327308 147.741093,104.191319 C147.780554,104.077582 147.799297,103.967308 147.796831,103.860495 C147.794365,103.753681 147.770689,103.644396 147.726296,103.533626 C147.659707,103.367473 147.567469,103.242363 147.450074,103.157308 Z M98.6147612,81.9744725 C98.7439934,82.2963956 98.5876324,82.6657912 98.2665249,82.7953516 L89.6272054,86.2870549 C89.306098,86.4166154 88.9376383,86.2593626 88.8079128,85.9379341 L85.3255494,77.2766703 C85.1963172,76.9547473 85.3531716,76.5853516 85.6737858,76.4552967 L94.3131052,72.9640879 C94.6342127,72.8345275 95.0026724,72.9917802 95.1323978,73.3132088 L98.6147612,81.9744725 Z M103.424418,93.9361648 C103.55365,94.2580879 103.397289,94.6274835 103.076182,94.757044 L94.4368623,98.2487473 C94.1157549,98.3783077 93.7472952,98.2210549 93.6175697,97.8996264 L90.1352063,89.2383626 C90.0059741,88.9164396 90.1628284,88.547044 90.4834426,88.416989 L99.1227621,84.9257802 C99.4438696,84.7957253 99.8123293,84.952978 99.9420547,85.2749011 L103.424418,93.9361648 Z M108.234124,105.897808 C108.363357,106.219731 108.206502,106.589126 107.885888,106.718687 L99.2465685,110.21039 C98.9254611,110.339951 98.5570014,110.182698 98.4272759,109.861269 L94.9449125,101.200005 C94.8156803,100.878082 94.9725346,100.508687 95.2931488,100.378632 L103.932468,96.8874231 C104.253576,96.7578626 104.622035,96.9146209 104.751761,97.236544 L108.234124,105.897808 Z M113.043831,117.859451 C113.173063,118.181374 113.016208,118.550769 112.695594,118.680824 L104.056275,122.172033 C103.735167,122.301593 103.366708,122.144341 103.236982,121.822418 L99.7546187,113.161648 C99.6253865,112.839725 99.7817476,112.47033 100.102855,112.340275 L108.742175,108.849066 C109.063282,108.719505 109.431742,108.876264 109.561467,109.198187 L113.043831,117.859451 Z M86.2768364,53.241033 L83.7568088,54.2597143 L82.0323977,54.9564725 L86.7735418,66.746967 L87.0048773,66.6535055 L87.5805031,65.576967 L88.7391534,65.9527912 L89.2985019,65.7268022 L89.8741277,64.6502637 L91.0327781,65.0255934 L91.5926198,64.7996044 L92.1677523,63.7230659 L93.3273892,64.0983956 L93.8867377,63.8724066 L94.4618702,62.7958681 L95.6210139,63.1716923 L96.1818421,62.9447143 L96.7579611,61.8681758 L97.0499667,61.9626264 L92.5273335,50.7150989 L86.2768364,53.241033 Z M131.604236,34.9225714 L121.1093,39.1639451 L125.850444,50.9549341 L126.081779,50.860978 L126.657405,49.7844396 L127.816056,50.1602637 L128.375404,49.9342747 L128.95103,48.8577363 L130.110174,49.2330659 L130.669522,49.0070769 L131.244655,47.9305385 L132.404291,48.3058681 L132.96364,48.0798791 L133.538772,47.0033407 L134.697916,47.3791648 L135.258744,47.1526813 L135.834863,46.0756484 L136.126869,46.1700989 L131.604236,34.9225714 Z" id="Combined-Shape" fill="#ED8B00"></path>
                <path d="M136.898415,108.227126 C136.86734,108.334929 136.784473,108.415533 136.650802,108.469929 C136.517624,108.523335 136.403682,108.523335 136.307991,108.46894 C136.2123,108.414544 136.131407,108.304269 136.064324,108.13861 L135.756042,107.371137 C135.690932,107.209929 135.675148,107.075423 135.708689,106.967621 C135.741737,106.859819 135.823617,106.779709 135.953836,106.726797 C136.029797,106.696632 136.104278,106.685753 136.177773,106.694654 C136.251267,106.703555 136.317856,106.731247 136.378526,106.777236 C136.404669,106.798005 136.427852,106.825203 136.449061,106.85883 C136.469778,106.892456 136.494934,106.945368 136.524036,107.01806 L136.841691,107.80828 C136.910746,107.979874 136.92949,108.119324 136.898415,108.227126 M137.345301,107.620863 L137.040965,106.864269 C136.980788,106.714434 136.920118,106.597731 136.858954,106.514159 C136.797298,106.430093 136.727256,106.366302 136.648336,106.322291 C136.510225,106.244654 136.366688,106.202126 136.217726,106.19372 C136.068764,106.185313 135.919801,106.211027 135.770839,106.271357 C135.611025,106.336137 135.482286,106.420698 135.383636,106.526027 C135.284985,106.630863 135.214943,106.75894 135.174003,106.909764 C135.146875,107.00372 135.138489,107.09817 135.148354,107.194104 C135.158713,107.290038 135.195213,107.417126 135.259336,107.575863 L135.565153,108.336412 C135.624836,108.484764 135.685013,108.600478 135.746177,108.683555 C135.80734,108.766632 135.877382,108.830423 135.956302,108.874929 C136.094413,108.952071 136.237949,108.994599 136.386912,109.003005 C136.535874,109.011412 136.684836,108.985698 136.833799,108.925368 C136.994599,108.860093 137.124324,108.775533 137.222482,108.671687 C137.320639,108.567346 137.390681,108.440258 137.431621,108.290423 C137.459243,108.196962 137.467628,108.101522 137.456777,108.004599 C137.446418,107.907676 137.409424,107.779599 137.345301,107.620863" id="Fill-33" fill="#ED8B00"></path>
                <path d="M138.977968,107.386714 C138.946893,107.494516 138.864026,107.575121 138.730355,107.629516 C138.597177,107.682923 138.483235,107.682923 138.387544,107.628527 C138.291853,107.574132 138.210467,107.463857 138.143877,107.298198 L137.835595,106.530725 C137.770485,106.369516 137.754701,106.235011 137.787749,106.127209 C137.82129,106.019407 137.90317,105.939297 138.033389,105.886385 C138.10935,105.855725 138.183831,105.845341 138.257326,105.854242 C138.33082,105.863143 138.397409,105.890835 138.458079,105.936824 C138.483729,105.957593 138.507405,105.984791 138.528614,106.018418 C138.549331,106.052044 138.574487,106.105451 138.603589,106.177648 L138.921244,106.967868 C138.990299,107.139462 139.009043,107.278912 138.977968,107.386714 M139.424854,106.780451 L139.120518,106.023857 C139.060341,105.874022 138.999671,105.757319 138.938014,105.673747 C138.876851,105.589681 138.806809,105.52589 138.727889,105.481385 C138.589778,105.404242 138.446241,105.361714 138.297279,105.353308 C138.148317,105.344901 137.999354,105.370615 137.850392,105.430945 C137.690578,105.495725 137.561346,105.580286 137.463189,105.685615 C137.364538,105.790451 137.294496,105.918527 137.253556,106.069352 C137.226428,106.163308 137.218042,106.257758 137.227907,106.353692 C137.238266,106.449626 137.274766,106.576714 137.338889,106.735451 L137.644706,107.496 C137.704389,107.644352 137.764566,107.760066 137.82573,107.843143 C137.886893,107.92622 137.956935,107.990011 138.035855,108.034516 C138.173966,108.111659 138.317502,108.154187 138.466465,108.162593 C138.614934,108.171 138.764389,108.145286 138.913352,108.084956 C139.074152,108.019681 139.203877,107.935121 139.302035,107.831275 C139.400192,107.726934 139.470234,107.599846 139.511174,107.450011 C139.538796,107.356055 139.547181,107.26111 139.53633,107.164187 C139.525971,107.067264 139.488977,106.939187 139.424854,106.780451" id="Fill-35" fill="#ED8B00"></path>
                <path d="M141.057471,106.546302 C141.026396,106.654104 140.94353,106.734709 140.809858,106.789104 C140.67668,106.842511 140.562739,106.842511 140.467048,106.788115 C140.371357,106.73372 140.290463,106.623445 140.223381,106.457786 L139.915098,105.690313 C139.849989,105.529104 139.834205,105.394599 139.867746,105.286797 C139.900794,105.178995 139.982674,105.098885 140.112893,105.045973 C140.188853,105.015313 140.263335,105.004929 140.336829,105.01383 C140.410324,105.022731 140.476913,105.050423 140.537583,105.096412 C140.563232,105.117676 140.586908,105.144379 140.608118,105.178005 C140.628835,105.211632 140.653991,105.265038 140.683093,105.337236 L141.000747,106.127456 C141.069803,106.299049 141.088546,106.4385 141.057471,106.546302 M141.504358,105.940038 L141.200021,105.183445 C141.139844,105.03361 141.079174,104.916907 141.017518,104.833335 C140.956355,104.749764 140.886313,104.685478 140.807392,104.641467 C140.669281,104.56383 140.525745,104.521302 140.376783,104.512896 C140.22782,104.504489 140.078858,104.530203 139.929896,104.590533 C139.770082,104.655313 139.64085,104.739874 139.542693,104.845203 C139.444042,104.950038 139.374,105.078115 139.33306,105.22894 C139.305931,105.322896 139.297546,105.417346 139.307411,105.51328 C139.317769,105.609214 139.35427,105.736302 139.418393,105.895038 L139.724209,106.655588 C139.783893,106.80394 139.84407,106.919654 139.905233,107.002731 C139.966397,107.085808 140.036438,107.149599 140.115359,107.194104 C140.25347,107.271247 140.397006,107.313775 140.545968,107.322181 C140.694931,107.330588 140.843893,107.304874 140.992855,107.244544 C141.153656,107.179269 141.283381,107.094709 141.381538,106.990863 C141.479696,106.886522 141.549737,106.759434 141.590677,106.609599 C141.6183,106.516137 141.626685,106.420698 141.615833,106.323775 C141.605475,106.226852 141.568481,106.098775 141.504358,105.940038" id="Fill-37" fill="#ED8B00"></path>
                <path d="M89.4332585,78.4387088 L88.9311273,78.5193132 C88.4285029,78.5094231 88.3431702,79.1537637 88.3431702,79.1537637 L90.6190378,79.5201923 L91.5517785,79.6700275 L91.2671717,81.7103571 L89.8451244,82.0955769 C89.6369718,82.0906319 89.5753153,82.4946429 89.5743288,82.5010714 L89.5743288,82.5020604 L91.1354733,82.7112363 L91.1394193,82.7122253 C91.1581629,82.871456 91.2094612,82.9787637 91.2888748,82.9975549 C91.2903546,82.9975549 91.2923276,82.9975549 91.2938074,82.9980495 L91.2943006,82.998544 C91.3742075,83.0173352 91.466939,82.9451374 91.554738,82.8121154 L91.8314527,82.9075549 L93.066064,83.3348077 L93.066064,83.3343132 L93.071983,83.3362912 C93.1183488,83.1933791 93.0492934,82.8734341 93.0492934,82.8734341 L91.8709129,81.8156868 C91.8773252,81.7939286 91.8832442,81.7721703 91.8891633,81.7499176 L92.5234861,79.9133242 L95.6625457,80.9122253 L95.6684648,80.9137088 C95.8435694,80.4424451 95.5821455,80.1581044 95.5821455,80.1581044 L95.0874132,79.803544 L94.71994,79.5399725 L94.5428623,79.4133791 L94.6346073,79.0148077 L94.634114,79.0143132 C94.6346073,79.0128297 94.6355938,79.0113462 94.636087,79.0093681 C94.6484184,78.9520055 94.6050121,78.8936538 94.538423,78.8788187 L94.29229,78.8244231 C94.2257009,78.8100824 94.161578,78.8446978 94.1492467,78.9020604 C94.1467805,78.9129396 94.1467805,78.9238187 94.1482602,78.9346978 L94.1097865,79.1028297 L93.0808616,78.365522 C93.1469574,78.1954121 93.2268643,78.0109615 93.257446,77.8809066 C93.4596796,77.0229396 93.2500472,76.2406319 92.9087164,76.159533 L92.9087164,76.1600275 C92.9067434,76.159533 92.9047704,76.158544 92.9027974,76.1580495 C92.5619598,76.0774451 92.0090236,76.6827198 91.8067901,77.5406868 C91.7836072,77.6385989 91.7155383,78.0712912 91.7155383,78.0712912 L90.5810573,78.2537637 L90.6239703,78.0683242 L90.6234771,78.0683242 C90.6239703,78.0668407 90.6249568,78.0648626 90.6254501,78.0633791 C90.6377814,78.0060165 90.5948684,77.9476648 90.5292658,77.9328297 L90.2865855,77.8794231 C90.2209829,77.8650824 90.1578466,77.8996978 90.145022,77.9570604 L90.0572231,78.3383242 L89.8781724,78.3670055 L89.4332585,78.4387088 Z M97.8174184,87.9304451 L96.9522533,88.2800604 L97.0888843,88.6202802 L97.2368601,88.5906099 L96.277977,90.4118736 L96.6493962,88.9011593 L95.8552595,89.2220934 L96.2034959,88.5826978 L93.5029378,89.6740714 C94.0973072,91.0181374 95.4103457,91.7613791 96.4925419,91.5690165 L97.5283724,94.1453901 L96.8802384,94.407478 L97.0104571,94.7313791 L98.7886328,94.0128626 L98.6584141,93.688467 L98.0492471,93.9347308 L97.0208154,91.3766538 C97.9333328,90.762478 98.3185631,89.3120934 97.8174184,87.9304451 Z M100.569423,100.569066 L100.529469,100.470165 C100.495435,100.385604 100.399251,100.34456 100.314904,100.378681 C100.230065,100.412802 100.189125,100.509231 100.223159,100.593791 L100.264099,100.69467 C98.8647417,101.347912 98.0977339,102.846758 98.3270963,104.32978 C98.4188413,104.11022 98.5944392,103.926264 98.8316937,103.83033 C99.2795671,103.649341 99.785151,103.847143 99.9977429,104.271923 C99.8576592,103.817473 100.085049,103.323956 100.532922,103.142967 C100.784974,103.041099 101.055277,103.059396 101.281679,103.170165 L102.574495,106.386429 C102.574988,106.385934 102.575974,106.38544 102.576468,106.38544 C102.683503,106.594121 102.935555,106.690055 103.159985,106.59956 C103.391321,106.506099 103.506249,106.248462 103.424369,106.017033 C103.424369,106.017033 103.424862,106.017033 103.424862,106.016538 L103.348901,105.821209 C103.323252,105.759396 103.257649,105.727253 103.201419,105.75 C103.146668,105.772253 103.115099,105.839505 103.137296,105.900824 L103.136803,105.901319 C103.137296,105.902308 103.137789,105.903297 103.138282,105.904286 C103.203392,106.051648 103.261102,106.231648 103.074653,106.312747 C102.939008,106.371593 102.846277,106.287033 102.82704,106.238571 C102.564136,105.593242 102.101959,104.444505 101.659018,103.341264 C101.646686,102.96544 101.865691,102.604451 102.23415,102.455604 C102.68153,102.274615 103.187114,102.471923 103.400199,102.896703 C103.259622,102.442747 103.487505,101.948736 103.934885,101.768242 C104.097659,101.702473 104.267338,101.687637 104.428138,101.714341 C103.543736,100.558681 101.99147,100.063187 100.569423,100.569066 Z M105.278357,118.525648 L106.249079,118.133505 L104.683988,114.240758 L105.531396,113.898066 L103.661475,113.100923 L102.865859,114.975593 L103.713267,114.632901 L105.278357,118.525648 Z M108.143711,117.367615 L109.114432,116.975473 L107.549342,113.082725 L108.39675,112.740527 L106.526829,111.942396 L105.731213,113.81756 L106.578621,113.474868 L108.143711,117.367615 Z M111.232114,117.269159 L103.956144,120.209489 L103.681403,119.526577 L110.957372,116.586247 L111.232114,117.269159 Z" id="Combined-Shape" fill="#FFE9AB"></path>
            </g>
        </g>
    </g>
</svg>