<?xml version="1.0" encoding="UTF-8"?>
<svg width="298px" height="318px" viewBox="0 0 298 318" version="1.1" xmlns="http://www.w3.org/2000/svg" xmlns:xlink="http://www.w3.org/1999/xlink">
    <!-- Generator: Sketch 43.1 (39012) - http://www.bohemiancoding.com/sketch -->
    <title>Artboard</title>
    <desc>Created with Sketch.</desc>
    <defs></defs>
    <g id="Page-1" stroke="none" stroke-width="1" fill="none" fill-rule="evenodd">
        <g id="Artboard">
            <g id="image" transform="translate(1.000000, 1.000000)">
                <ellipse id="Oval" fill="#404040" fill-rule="nonzero" cx="156.219212" cy="176.6097" rx="138.780788" ry="139.3903"></ellipse>
                <path d="M201.130419,198.897552 L206.587192,120.474088 L193.166872,119.532656 L187.644704,198.897552 L178.14803,198.897552 L178.017241,194.854503 C178.519424,194.614538 178.83298,194.099194 178.816502,193.540878 L177.748399,162.889607 L181.054433,193.482494 L180.066256,165.064388 C180.026734,163.817573 178.989849,162.838164 177.748399,162.875012 L177.748399,162.590393 C177.735152,162.216751 177.574542,161.863731 177.301959,161.609115 C177.029375,161.354499 176.667187,161.219182 176.295197,161.232979 L175.176232,161.269469 L175.045443,157.620508 C175.039773,157.471433 174.975317,157.330741 174.866281,157.229439 C174.757244,157.128137 174.612577,157.074541 174.464163,157.080462 L172.785714,157.138845 C172.637291,157.14454 172.497214,157.209279 172.396355,157.318795 C172.295497,157.42831 172.242134,157.573613 172.24803,157.722679 L172.378818,161.37164 L171.259852,161.408129 C170.887845,161.421435 170.536368,161.58275 170.282865,161.85653 C170.029363,162.130311 169.894638,162.49409 169.908374,162.867714 L170.039163,166.516674 L169.886576,166.086097 L167.844828,160.63455 L167.067365,166.39261 L167.067365,166.39261 L165.933867,174.420323 L168.491502,198.897552 L162.678695,198.897552 L162.678695,204.166651 L164.996552,204.166651 L168.585961,258.17127 L198.7617,258.17127 L202.351108,204.166651 L204.668966,204.166651 L204.668966,198.897552 L201.130419,198.897552 Z M199.524631,125.057182 C200.448195,125.123669 201.143698,125.928796 201.078979,126.856521 C201.01426,127.784246 200.213768,128.484092 199.289997,128.420572 C198.366226,128.357052 197.668161,127.554164 197.729926,126.626236 C197.759713,126.178726 197.965819,125.761585 198.30264,125.467114 C198.63946,125.172643 199.079226,125.025118 199.524631,125.057182 Z" id="Shape" fill="#666666" opacity="0.3" style="mix-blend-mode: multiply;"></path>
                <path d="M243.563916,245.14448 L262.775246,135.741339 C268.155229,133.449763 270.921135,127.42766 269.164811,121.82958 C267.408487,116.231499 261.704871,112.889988 255.988793,114.1103 L197.955172,55.8145035 L206.914163,46.8161663 C206.187562,46.5388453 205.504557,46.2761201 204.799754,46.006097 L196.50197,54.3476212 L190.754557,48.5749654 L195.455665,42.8752887 C182.713663,39.1140553 169.500099,37.2093354 156.219212,37.2193995 C151.772414,37.2193995 147.376478,37.4383372 143.031404,37.8470208 L127.772783,50.5162125 L135.925246,58.7044804 C132.38531,63.640667 132.930999,70.4266602 137.213782,74.7282529 C141.496565,79.0298456 148.252885,79.5779312 153.167488,76.022448 L161.319951,84.2107159 L182.783744,58.1863279 L247.196921,122.882402 C246.381511,126.790776 247.669942,130.842081 250.590148,133.551963 L231.146305,244.305219 C228.084824,244.416539 225.036311,244.762986 222.027463,245.341524 L222.027463,243.203233 L220.479803,243.203233 L220.479803,240.101617 L215.320936,240.101617 L215.320936,243.210531 L213.773276,243.210531 L213.773276,247.589284 C205.236301,250.552367 197.481794,255.426146 191.096059,261.842125 L266.030419,261.842125 C267.328612,260.158737 268.590476,258.443726 269.81601,256.69709 C262.133236,250.755298 253.121099,246.789378 243.563916,245.14448 Z M118.435961,109.213395 C118.435961,108.004236 117.46003,107.024018 116.256158,107.024018 C115.052286,107.024018 114.076355,108.004236 114.076355,109.213395 L114.076355,112.132564 L103.903941,112.132564 L103.903941,109.213395 C103.903941,108.004236 102.92801,107.024018 101.724138,107.024018 C100.520266,107.024018 99.544335,108.004236 99.544335,109.213395 L99.544335,112.132564 L89.3719212,112.132564 L89.3719212,109.213395 C89.3719212,108.004236 88.3959902,107.024018 87.1921182,107.024018 C85.9882463,107.024018 85.0123153,108.004236 85.0123153,109.213395 L85.0123153,112.132564 L74.8399015,112.132564 L74.8399015,109.213395 C74.8399015,108.004236 73.8639705,107.024018 72.6600985,107.024018 C71.4562266,107.024018 70.4802956,108.004236 70.4802956,109.213395 L70.4802956,112.132564 L60.3078818,112.132564 L60.3078818,109.213395 C60.3078818,108.004236 59.3319507,107.024018 58.1280788,107.024018 C56.9242069,107.024018 55.9482759,108.004236 55.9482759,109.213395 L55.9482759,112.132564 L45.7758621,112.132564 L45.7758621,109.213395 C45.7758621,108.004236 44.799931,107.024018 43.5960591,107.024018 C42.3921872,107.024018 41.4162562,108.004236 41.4162562,109.213395 L41.4162562,112.132564 L33.154803,112.132564 C13.0679526,150.869403 12.188746,196.815945 30.7788177,236.2994 L138.054187,236.2994 L138.054187,112.132564 L118.435961,112.132564 L118.435961,109.213395 Z" id="Shape" fill="#666666" fill-rule="nonzero" opacity="0.3" style="mix-blend-mode: multiply;"></path>
                <path d="M156.219212,316 C202.372086,316.030168 245.514011,292.99104 271.298276,254.544203 L41.1401478,254.544203 C66.9244128,292.99104 110.066337,316.030168 156.219212,316 Z" id="Shape" fill="#999999" fill-rule="nonzero"></path>
                <rect id="Rectangle-path" fill="#EB9422" fill-rule="nonzero" x="0" y="104.834642" width="130.788177" height="28.7903002"></rect>
                <rect id="Rectangle-path" fill="#F0F0F0" fill-rule="nonzero" x="0" y="133.63224" width="130.788177" height="95.3692379"></rect>
                <ellipse id="Oval" cx="11.6474138" cy="163.320185" rx="6.2705665" ry="6.29810624"></ellipse>
                <ellipse id="Oval" cx="29.5581281" cy="163.320185" rx="6.2705665" ry="6.29810624"></ellipse>
                <ellipse id="Oval" cx="47.4761084" cy="163.320185" rx="6.2705665" ry="6.29810624"></ellipse>
                <ellipse id="Oval" cx="65.3940887" cy="163.320185" rx="6.2705665" ry="6.29810624"></ellipse>
                <ellipse id="Oval" cx="83.312069" cy="163.320185" rx="6.2705665" ry="6.29810624"></ellipse>
                <ellipse id="Oval" cx="101.230049" cy="163.320185" rx="6.2705665" ry="6.29810624"></ellipse>
                <ellipse id="Oval" cx="119.140764" cy="163.320185" rx="6.2705665" ry="6.29810624"></ellipse>
                <ellipse id="Oval" cx="11.6474138" cy="181.316859" rx="6.2705665" ry="6.29810624"></ellipse>
                <ellipse id="Oval" cx="29.5581281" cy="181.316859" rx="6.2705665" ry="6.29810624"></ellipse>
                <ellipse id="Oval" cx="47.4761084" cy="181.316859" rx="6.2705665" ry="6.29810624"></ellipse>
                <ellipse id="Oval" cx="65.3940887" cy="181.316859" rx="6.2705665" ry="6.29810624"></ellipse>
                <ellipse id="Oval" fill="#CCCCCC" fill-rule="nonzero" cx="101.230049" cy="181.316859" rx="6.2705665" ry="6.29810624"></ellipse>
                <ellipse id="Oval" fill="#CCCCCC" fill-rule="nonzero" cx="119.140764" cy="181.316859" rx="6.2705665" ry="6.29810624"></ellipse>
                <ellipse id="Oval" fill="#CCCCCC" fill-rule="nonzero" cx="11.6474138" cy="199.313533" rx="6.2705665" ry="6.29810624"></ellipse>
                <ellipse id="Oval" fill="#CCCCCC" fill-rule="nonzero" cx="29.5581281" cy="199.313533" rx="6.2705665" ry="6.29810624"></ellipse>
                <ellipse id="Oval" fill="#CCCCCC" fill-rule="nonzero" cx="47.4761084" cy="199.313533" rx="6.2705665" ry="6.29810624"></ellipse>
                <ellipse id="Oval" fill="#CCCCCC" fill-rule="nonzero" cx="65.3940887" cy="199.313533" rx="6.2705665" ry="6.29810624"></ellipse>
                <ellipse id="Oval" fill="#CCCCCC" fill-rule="nonzero" cx="83.312069" cy="199.313533" rx="6.2705665" ry="6.29810624"></ellipse>
                <ellipse id="Oval" fill="#CCCCCC" fill-rule="nonzero" cx="101.230049" cy="199.313533" rx="6.2705665" ry="6.29810624"></ellipse>
                <ellipse id="Oval" fill="#CCCCCC" fill-rule="nonzero" cx="119.140764" cy="199.313533" rx="6.2705665" ry="6.29810624"></ellipse>
                <ellipse id="Oval" fill="#CCCCCC" fill-rule="nonzero" cx="11.6474138" cy="217.30291" rx="6.2705665" ry="6.29810624"></ellipse>
                <ellipse id="Oval" fill="#CCCCCC" fill-rule="nonzero" cx="29.5581281" cy="217.30291" rx="6.2705665" ry="6.29810624"></ellipse>
                <ellipse id="Oval" fill="#CCCCCC" fill-rule="nonzero" cx="47.4761084" cy="217.30291" rx="6.2705665" ry="6.29810624"></ellipse>
                <ellipse id="Oval" fill="#CCCCCC" fill-rule="nonzero" cx="65.3940887" cy="217.30291" rx="6.2705665" ry="6.29810624"></ellipse>
                <ellipse id="Oval" fill="#CCCCCC" fill-rule="nonzero" cx="83.312069" cy="217.30291" rx="6.2705665" ry="6.29810624"></ellipse>
                <ellipse id="Oval" fill="#CCCCCC" fill-rule="nonzero" cx="101.230049" cy="217.30291" rx="6.2705665" ry="6.29810624"></ellipse>
                <ellipse id="Oval" fill="#CCCCCC" fill-rule="nonzero" cx="119.140764" cy="217.30291" rx="6.2705665" ry="6.29810624"></ellipse>
                <ellipse id="Oval" fill="#E4E4E4" fill-rule="nonzero" cx="83.312069" cy="145.32351" rx="6.2705665" ry="6.29810624"></ellipse>
                <ellipse id="Oval" cx="101.230049" cy="145.32351" rx="6.2705665" ry="6.29810624"></ellipse>
                <ellipse id="Oval" cx="119.140764" cy="145.32351" rx="6.2705665" ry="6.29810624"></ellipse>
                <path d="M189.533867,115.883695 L180.385961,247.326559 L193.806281,248.267991 L202.954187,116.825127 L189.533867,115.883695 Z M195.659113,124.794457 C194.735549,124.72797 194.040045,123.922844 194.104765,122.995119 C194.169484,122.067393 194.969976,121.367548 195.893747,121.431068 C196.817518,121.494588 197.515582,122.297476 197.453818,123.225404 C197.424031,123.672914 197.217925,124.090054 196.881104,124.384526 C196.544284,124.678997 196.104518,124.826522 195.659113,124.794457 L195.659113,124.794457 Z" id="Shape" fill="#CCCCCC"></path>
                <path d="M190.027956,205.670023 L196.741749,206.13709" id="Shape" stroke="#FFFFFF" stroke-width="0.58"></path>
                <path d="M193.501108,204.217737 L196.858005,204.45127" id="Shape" stroke="#FFFFFF" stroke-width="0.58"></path>
                <path d="M193.617365,202.531917 L196.974261,202.76545" id="Shape" stroke="#FFFFFF" stroke-width="0.58"></path>
                <path d="M193.733621,200.846097 L197.090517,201.07963" id="Shape" stroke="#FFFFFF" stroke-width="0.58"></path>
                <path d="M193.849877,199.160277 L197.206773,199.401109" id="Shape" stroke="#FFFFFF" stroke-width="0.58"></path>
                <path d="M189.439409,214.091824 L196.153202,214.566189" id="Shape" stroke="#FFFFFF" stroke-width="0.58"></path>
                <path d="M192.912562,212.646836 L196.269458,212.88037" id="Shape" stroke="#FFFFFF" stroke-width="0.58"></path>
                <path d="M193.028818,210.961016 L196.385714,211.19455" id="Shape" stroke="#FFFFFF" stroke-width="0.58"></path>
                <path d="M193.15234,209.275196 L196.50197,209.50873" id="Shape" stroke="#FFFFFF" stroke-width="0.58"></path>
                <path d="M193.268596,207.589376 L196.625493,207.82291" id="Shape" stroke="#FFFFFF" stroke-width="0.58"></path>
                <path d="M188.858128,222.520924 L195.564655,222.987991" id="Shape" stroke="#FFFFFF" stroke-width="0.58"></path>
                <path d="M192.331281,221.068637 L195.680911,221.302171" id="Shape" stroke="#FFFFFF" stroke-width="0.58"></path>
                <path d="M192.447537,219.382818 L195.804433,219.616351" id="Shape" stroke="#FFFFFF" stroke-width="0.58"></path>
                <path d="M192.563793,217.696998 L195.92069,217.937829" id="Shape" stroke="#FFFFFF" stroke-width="0.58"></path>
                <path d="M192.680049,216.011178 L196.036946,216.252009" id="Shape" stroke="#FFFFFF" stroke-width="0.58"></path>
                <path d="M188.269581,230.942725 L194.983374,231.41709" id="Shape" stroke="#FFFFFF" stroke-width="0.58"></path>
                <path d="M191.742734,229.497737 L195.099631,229.73127" id="Shape" stroke="#FFFFFF" stroke-width="0.58"></path>
                <path d="M191.85899,227.811917 L195.215887,228.04545" id="Shape" stroke="#FFFFFF" stroke-width="0.58"></path>
                <path d="M191.975246,226.126097 L195.332143,226.35963" id="Shape" stroke="#FFFFFF" stroke-width="0.58"></path>
                <path d="M192.091502,224.440277 L195.448399,224.673811" id="Shape" stroke="#FFFFFF" stroke-width="0.58"></path>
                <path d="M187.681034,239.371824 L194.394828,239.838891" id="Shape" stroke="#FFFFFF" stroke-width="0.58"></path>
                <path d="M191.154187,237.919538 L194.511084,238.153072" id="Shape" stroke="#FFFFFF" stroke-width="0.58"></path>
                <path d="M191.270443,236.233718 L194.62734,236.47455" id="Shape" stroke="#FFFFFF" stroke-width="0.58"></path>
                <path d="M191.3867,234.547898 L194.743596,234.78873" id="Shape" stroke="#FFFFFF" stroke-width="0.58"></path>
                <path d="M191.510222,232.862079 L194.859852,233.10291" id="Shape" stroke="#FFFFFF" stroke-width="0.58"></path>
                <path d="M187.092488,247.793626 L193.806281,248.267991" id="Shape" stroke="#FFFFFF" stroke-width="0.58"></path>
                <path d="M190.56564,246.348637 L193.922537,246.582171" id="Shape" stroke="#FFFFFF" stroke-width="0.58"></path>
                <path d="M190.689163,244.662818 L194.038793,244.896351" id="Shape" stroke="#FFFFFF" stroke-width="0.58"></path>
                <path d="M190.805419,242.976998 L194.155049,243.210531" id="Shape" stroke="#FFFFFF" stroke-width="0.58"></path>
                <path d="M190.921675,241.291178 L194.278571,241.524711" id="Shape" stroke="#FFFFFF" stroke-width="0.58"></path>
                <path d="M190.616502,197.240924 L197.32303,197.715289" id="Shape" stroke="#FFFFFF" stroke-width="0.58"></path>
                <path d="M194.089655,195.788637 L197.446552,196.029469" id="Shape" stroke="#FFFFFF" stroke-width="0.58"></path>
                <path d="M194.205911,194.110115 L197.562808,194.343649" id="Shape" stroke="#FFFFFF" stroke-width="0.58"></path>
                <path d="M194.322167,192.424296 L197.679064,192.657829" id="Shape" stroke="#FFFFFF" stroke-width="0.58"></path>
                <path d="M194.438424,190.738476 L197.79532,190.972009" id="Shape" stroke="#FFFFFF" stroke-width="0.58"></path>
                <path d="M191.205049,188.819122 L197.911576,189.286189" id="Shape" stroke="#FFFFFF" stroke-width="0.58"></path>
                <path d="M194.670936,187.366836 L198.027833,187.60037" id="Shape" stroke="#FFFFFF" stroke-width="0.58"></path>
                <path d="M194.794458,185.681016 L198.144089,185.91455" id="Shape" stroke="#FFFFFF" stroke-width="0.58"></path>
                <path d="M194.910714,183.995196 L198.267611,184.22873" id="Shape" stroke="#FFFFFF" stroke-width="0.58"></path>
                <path d="M195.02697,182.309376 L198.383867,182.550208" id="Shape" stroke="#FFFFFF" stroke-width="0.58"></path>
                <path d="M191.78633,180.390023 L198.500123,180.864388" id="Shape" stroke="#FFFFFF" stroke-width="0.58"></path>
                <path d="M195.259483,178.937737 L198.616379,179.178568" id="Shape" stroke="#FFFFFF" stroke-width="0.58"></path>
                <path d="M195.375739,177.259215 L198.732635,177.492748" id="Shape" stroke="#FFFFFF" stroke-width="0.58"></path>
                <path d="M195.499261,175.573395 L198.848892,175.806928" id="Shape" stroke="#FFFFFF" stroke-width="0.58"></path>
                <path d="M195.615517,173.887575 L198.965148,174.121109" id="Shape" stroke="#FFFFFF" stroke-width="0.58"></path>
                <path d="M192.374877,171.960924 L199.08867,172.435289" id="Shape" stroke="#FFFFFF" stroke-width="0.58"></path>
                <path d="M195.84803,170.515935 L199.204926,170.749469" id="Shape" stroke="#FFFFFF" stroke-width="0.58"></path>
                <path d="M195.964286,168.830115 L199.321182,169.063649" id="Shape" stroke="#FFFFFF" stroke-width="0.58"></path>
                <path d="M196.080542,167.144296 L199.437438,167.377829" id="Shape" stroke="#FFFFFF" stroke-width="0.58"></path>
                <path d="M196.196798,165.458476 L199.553695,165.692009" id="Shape" stroke="#FFFFFF" stroke-width="0.58"></path>
                <path d="M192.963424,163.539122 L199.669951,164.013487" id="Shape" stroke="#FFFFFF" stroke-width="0.58"></path>
                <path d="M196.436576,162.086836 L199.793473,162.327667" id="Shape" stroke="#FFFFFF" stroke-width="0.58"></path>
                <path d="M196.552833,160.401016 L199.909729,160.641848" id="Shape" stroke="#FFFFFF" stroke-width="0.58"></path>
                <path d="M196.669089,158.722494 L200.025985,158.956028" id="Shape" stroke="#FFFFFF" stroke-width="0.58"></path>
                <path d="M196.785345,157.036674 L200.142241,157.270208" id="Shape" stroke="#FFFFFF" stroke-width="0.58"></path>
                <path d="M193.544704,155.110023 L200.258498,155.584388" id="Shape" stroke="#FFFFFF" stroke-width="0.58"></path>
                <path d="M197.017857,153.665035 L200.374754,153.898568" id="Shape" stroke="#FFFFFF" stroke-width="0.58"></path>
                <path d="M197.141379,151.979215 L200.49101,152.212748" id="Shape" stroke="#FFFFFF" stroke-width="0.58"></path>
                <path d="M197.257635,150.293395 L200.614532,150.526928" id="Shape" stroke="#FFFFFF" stroke-width="0.58"></path>
                <path d="M197.373892,148.607575 L200.730788,148.841109" id="Shape" stroke="#FFFFFF" stroke-width="0.58"></path>
                <path d="M194.133251,146.688222 L200.847044,147.155289" id="Shape" stroke="#FFFFFF" stroke-width="0.58"></path>
                <path d="M197.606404,145.235935 L200.9633,145.476767" id="Shape" stroke="#FFFFFF" stroke-width="0.58"></path>
                <path d="M197.72266,143.550115 L201.079557,143.790947" id="Shape" stroke="#FFFFFF" stroke-width="0.58"></path>
                <path d="M197.838916,141.864296 L201.195813,142.105127" id="Shape" stroke="#FFFFFF" stroke-width="0.58"></path>
                <path d="M197.962438,140.185774 L201.312069,140.419307" id="Shape" stroke="#FFFFFF" stroke-width="0.58"></path>
                <path d="M194.721798,138.259122 L201.435591,138.733487" id="Shape" stroke="#FFFFFF" stroke-width="0.58"></path>
                <path d="M198.194951,136.814134 L201.551847,137.047667" id="Shape" stroke="#FFFFFF" stroke-width="0.58"></path>
                <path d="M198.311207,135.128314 L201.668103,135.361848" id="Shape" stroke="#FFFFFF" stroke-width="0.58"></path>
                <path d="M198.427463,133.442494 L201.78436,133.676028" id="Shape" stroke="#FFFFFF" stroke-width="0.58"></path>
                <path d="M198.543719,131.756674 L201.900616,131.990208" id="Shape" stroke="#FFFFFF" stroke-width="0.58"></path>
                <path d="M195.310345,129.837321 L202.016872,130.304388" id="Shape" stroke="#FFFFFF" stroke-width="0.58"></path>
                <rect id="Rectangle-path" fill="#EB9422" fill-rule="nonzero" transform="translate(172.130136, 215.336819) rotate(-2.000000) translate(-172.130136, -215.336819) " x="169.045715" y="188.589937" width="6.16884236" height="53.4937644" rx="1.93"></rect>
                <path d="M176.752956,189.818938 L175.764778,161.400831 C175.753472,160.976838 175.573301,160.575119 175.264629,160.285668 C174.955956,159.996217 174.544582,159.843227 174.12266,159.86097 L174.079064,158.547344 C175.679069,158.493989 177.020774,159.750224 177.079926,161.357044 L178.060837,189.745958 L176.752956,189.818938 Z" id="Shape" fill="#EB9422" fill-rule="nonzero"></path>
                <rect id="Rectangle-path" fill="#F4A521" fill-rule="nonzero" transform="translate(170.116037, 157.653791) rotate(-2.000000) translate(-170.116037, -157.653791) " x="168.713697" y="153.431944" width="2.8046798" height="8.44369515" rx="0.77"></rect>
                <rect id="Rectangle-path" fill="#EB9422" fill-rule="nonzero" transform="translate(170.709729, 174.539456) rotate(-2.000000) translate(-170.709729, -174.539456) " x="166.786084" y="157.648417" width="7.84729064" height="33.7820785" rx="1.93"></rect>
                <rect id="Rectangle-path" fill="#E8E8E8" fill-rule="nonzero" transform="translate(169.556834, 207.809657) rotate(-96.000000) translate(-169.556834, -207.809657) " x="132.136884" y="204.430719" width="74.8399015" height="6.75787529"></rect>
                <rect id="Rectangle-path" fill="#999999" fill-rule="nonzero" transform="translate(167.329164, 208.042614) rotate(-96.000000) translate(-167.329164, -208.042614) " x="129.909214" y="206.915086" width="74.8399015" height="2.25505774"></rect>
                <rect id="Rectangle-path" fill="#999999" fill-rule="nonzero" opacity="0.5" transform="translate(169.560447, 207.809276) rotate(-96.000000) translate(-169.560447, -207.809276) " x="132.140497" y="206.681747" width="74.8399015" height="2.25505774"></rect>
                <polygon id="Shape" fill="#FFFFFF" points="162.300862 170.778661 168.992857 170.070762 164.240887 156.985589"></polygon>
                <polygon id="Shape" fill="#525252" points="163.43436 162.729053 166.217241 162.437136 164.240887 156.985589"></polygon>
                <polygon id="Shape" fill="#F4A521" points="195.121429 254.544203 164.94569 254.544203 161.007512 195.248591 199.05234 195.248591"></polygon>
                <rect id="Rectangle-path" fill="#EB9422" fill-rule="nonzero" x="159.04569" y="195.248591" width="41.9757389" height="5.26909931"></rect>
                <path d="M186.569335,52.6618014 L185.116133,51.2022171 L210.467241,25.7397691 C213.831522,22.3607131 215.145423,17.4356319 213.914011,12.8197557 C212.682599,8.20387946 209.092954,4.59846973 204.497262,3.36164943 C199.90157,2.12482913 194.998024,3.44450068 191.633744,6.82355658 L190.180542,5.36397229 C194.04012,1.34664487 199.757989,-0.265604425 205.135328,1.14721862 C210.512668,2.56004167 214.712113,6.77793088 216.118758,12.1788871 C217.525404,17.5798433 215.920204,23.3228243 211.920443,27.1993533 L186.569335,52.6618014 Z" id="Shape" fill="#EB9422" fill-rule="nonzero"></path>
                <rect id="Rectangle-path" fill="#EB9422" fill-rule="nonzero" x="208.054926" y="232.789099" width="5.158867" height="12.4283603"></rect>
                <rect id="Rectangle-path" fill="#CCCCCC" fill-rule="nonzero" x="206.507266" y="235.898014" width="8.25418719" height="12.4283603"></rect>
                <rect id="Rectangle-path" fill="#CCCCCC" fill-rule="nonzero" transform="translate(239.427102, 184.253643) rotate(10.000000) translate(-239.427102, -184.253643) " x="233.240094" y="116.92302" width="12.3740148" height="134.661247"></rect>
                <rect id="Rectangle-path" fill="#E4E4E4" fill-rule="nonzero" transform="translate(236.380632, 183.708334) rotate(10.000000) translate(-236.380632, -183.708334) " x="233.285311" y="116.37771" width="6.19064039" height="134.661247"></rect>
                <rect id="Rectangle-path" fill="#E4E4E4" fill-rule="nonzero" transform="translate(214.607488, 81.315997) rotate(-45.000000) translate(-214.607488, -81.315997) " x="208.42048" y="29.5226482" width="12.3740148" height="103.586697"></rect>
                <rect id="Rectangle-path" fill="#CCCCCC" fill-rule="nonzero" transform="translate(212.541372, 83.395833) rotate(-45.000000) translate(-212.541372, -83.395833) " x="209.271667" y="31.6024844" width="6.53940887" height="103.586697"></rect>
                <ellipse id="Oval" fill="#CCCCCC" fill-rule="nonzero" cx="251.069704" cy="117.941709" rx="11.3422414" ry="11.3920554"></ellipse>
                <ellipse id="Oval" fill="#E4E4E4" fill-rule="nonzero" cx="251.069704" cy="117.941709" rx="6.19064039" ry="6.2178291"></ellipse>
                <rect id="Rectangle-path" fill="#E4E4E4" fill-rule="nonzero" transform="translate(186.905442, 10.257325) rotate(45.000000) translate(-186.905442, -10.257325) " x="184.841895" y="4.04314532" width="4.1270936" height="12.4283603"></rect>
                <ellipse id="Oval" fill="#EB9422" fill-rule="nonzero" transform="translate(138.772554, 58.601191) rotate(-45.000000) translate(-138.772554, -58.601191) " cx="138.772554" cy="58.6011909" rx="12.3740148" ry="12.4283603"></ellipse>
                <polygon id="Shape" fill="#E4E4E4" fill-rule="nonzero" points="154.090271 76.9127945 120.543103 43.218291 171.594089 0.737090069 196.385714 25.6375982"></polygon>
                <path d="M183.830049,254.544203 C195.044593,243.280363 210.254804,236.9524 226.114594,236.9524 C241.974384,236.9524 257.184594,243.280363 268.399138,254.544203 L183.830049,254.544203 Z" id="Shape" fill="#CCCCCC" fill-rule="nonzero"></path>
                <rect id="Rectangle-path" fill="#999999" fill-rule="nonzero" transform="translate(83.310199, 145.322995) rotate(-135.000000) translate(-83.310199, -145.322995) " x="78.2239923" y="144.593203" width="10.1724138" height="1.4595843"></rect>
                <rect id="Rectangle-path" fill="#999999" fill-rule="nonzero" transform="translate(83.311556, 145.325388) rotate(135.000000) translate(-83.311556, -145.325388) " x="78.2253488" y="144.595596" width="10.1724138" height="1.4595843"></rect>
                <rect id="Rectangle-path" fill="#999999" fill-rule="nonzero" transform="translate(101.222909, 145.324999) rotate(-135.000000) translate(-101.222909, -145.324999) " x="96.1367024" y="144.595207" width="10.1724138" height="1.4595843"></rect>
                <rect id="Rectangle-path" fill="#999999" fill-rule="nonzero" transform="translate(101.224266, 145.330682) rotate(135.000000) translate(-101.224266, -145.330682) " x="96.1380589" y="144.60089" width="10.1724138" height="1.4595843"></rect>
                <rect id="Rectangle-path" fill="#999999" fill-rule="nonzero" transform="translate(119.140757, 145.324867) rotate(-135.000000) translate(-119.140757, -145.324867) " x="114.05455" y="144.595074" width="10.1724138" height="1.4595843"></rect>
                <rect id="Rectangle-path" fill="#999999" fill-rule="nonzero" transform="translate(119.142114, 145.323517) rotate(135.000000) translate(-119.142114, -145.323517) " x="114.055907" y="144.593725" width="10.1724138" height="1.4595843"></rect>
                <rect id="Rectangle-path" fill="#999999" fill-rule="nonzero" transform="translate(83.308203, 163.321674) rotate(-135.000000) translate(-83.308203, -163.321674) " x="78.2219965" y="162.591882" width="10.1724138" height="1.4595843"></rect>
                <rect id="Rectangle-path" fill="#999999" fill-rule="nonzero" transform="translate(83.306285, 163.324067) rotate(135.000000) translate(-83.306285, -163.324067) " x="78.2200786" y="162.594275" width="10.1724138" height="1.4595843"></rect>
                <rect id="Rectangle-path" fill="#999999" fill-rule="nonzero" transform="translate(65.395493, 163.319669) rotate(-135.000000) translate(-65.395493, -163.319669) " x="60.3092864" y="162.589877" width="10.1724138" height="1.4595843"></rect>
                <rect id="Rectangle-path" fill="#999999" fill-rule="nonzero" transform="translate(65.393575, 163.318774) rotate(135.000000) translate(-65.393575, -163.318774) " x="60.3073685" y="162.588982" width="10.1724138" height="1.4595843"></rect>
                <rect id="Rectangle-path" fill="#999999" fill-rule="nonzero" transform="translate(47.482783, 163.324963) rotate(-135.000000) translate(-47.482783, -163.324963) " x="42.3965763" y="162.59517" width="10.1724138" height="1.4595843"></rect>
                <rect id="Rectangle-path" fill="#999999" fill-rule="nonzero" transform="translate(47.480865, 163.320779) rotate(135.000000) translate(-47.480865, -163.320779) " x="42.3946584" y="162.590986" width="10.1724138" height="1.4595843"></rect>
                <rect id="Rectangle-path" fill="#999999" fill-rule="nonzero" transform="translate(29.562807, 163.322958) rotate(-135.000000) translate(-29.562807, -163.322958) " x="24.4766002" y="162.593166" width="10.1724138" height="1.4595843"></rect>
                <rect id="Rectangle-path" fill="#999999" fill-rule="nonzero" transform="translate(29.560889, 163.315485) rotate(135.000000) translate(-29.560889, -163.315485) " x="24.4746823" y="162.585693" width="10.1724138" height="1.4595843"></rect>
                <ellipse id="Oval" stroke="#EB9422" stroke-width="2" cx="83.312069" cy="181.316859" rx="6.2705665" ry="6.29810624"></ellipse>
                <rect id="Rectangle-path" fill="#666666" fill-rule="nonzero" transform="translate(82.131962, 181.763415) rotate(-135.000000) translate(-82.131962, -181.763415) " x="79.5888582" y="181.033622" width="5.0862069" height="1.4595843"></rect>
                <rect id="Rectangle-path" fill="#666666" fill-rule="nonzero" transform="translate(86.497628, 179.961282) rotate(-45.000000) translate(-86.497628, -179.961282) " x="81.411421" y="179.23149" width="10.1724138" height="1.4595843"></rect>
                <rect id="Rectangle-path" fill="#999999" fill-rule="nonzero" transform="translate(11.644959, 163.315793) rotate(-135.000000) translate(-11.644959, -163.315793) " x="6.55875227" y="162.586001" width="10.1724138" height="1.4595843"></rect>
                <rect id="Rectangle-path" fill="#999999" fill-rule="nonzero" transform="translate(11.643041, 163.322650) rotate(135.000000) translate(-11.643041, -163.322650) " x="6.55683436" y="162.592858" width="10.1724138" height="1.4595843"></rect>
                <rect id="Rectangle-path" fill="#999999" fill-rule="nonzero" transform="translate(65.393497, 181.311050) rotate(-135.000000) translate(-65.393497, -181.311050) " x="60.3072906" y="180.581258" width="10.1724138" height="1.4595843"></rect>
                <rect id="Rectangle-path" fill="#999999" fill-rule="nonzero" transform="translate(65.395571, 181.310155) rotate(135.000000) translate(-65.395571, -181.310155) " x="60.3093643" y="180.580363" width="10.1724138" height="1.4595843"></rect>
                <rect id="Rectangle-path" fill="#999999" fill-rule="nonzero" transform="translate(47.480787, 181.316344) rotate(-135.000000) translate(-47.480787, -181.316344) " x="42.3945805" y="180.586551" width="10.1724138" height="1.4595843"></rect>
                <rect id="Rectangle-path" fill="#999999" fill-rule="nonzero" transform="translate(47.475595, 181.312160) rotate(135.000000) translate(-47.475595, -181.312160) " x="42.3893882" y="180.582367" width="10.1724138" height="1.4595843"></rect>
                <rect id="Rectangle-path" fill="#999999" fill-rule="nonzero" transform="translate(29.568077, 181.314339) rotate(-135.000000) translate(-29.568077, -181.314339) " x="24.4818704" y="180.584547" width="10.1724138" height="1.4595843"></rect>
                <rect id="Rectangle-path" fill="#999999" fill-rule="nonzero" transform="translate(29.562885, 181.314164) rotate(135.000000) translate(-29.562885, -181.314164) " x="24.4766781" y="180.584372" width="10.1724138" height="1.4595843"></rect>
                <rect id="Rectangle-path" fill="#999999" fill-rule="nonzero" transform="translate(11.642963, 181.314472) rotate(-135.000000) translate(-11.642963, -181.314472) " x="6.55675646" y="180.58468" width="10.1724138" height="1.4595843"></rect>
                <rect id="Rectangle-path" fill="#999999" fill-rule="nonzero" transform="translate(11.645037, 181.314031) rotate(135.000000) translate(-11.645037, -181.314031) " x="6.55883017" y="180.584239" width="10.1724138" height="1.4595843"></rect>
                <rect id="Rectangle-path" fill="#999999" fill-rule="nonzero" transform="translate(101.220913, 163.316380) rotate(-135.000000) translate(-101.220913, -163.316380) " x="96.1347066" y="162.586588" width="10.1724138" height="1.4595843"></rect>
                <rect id="Rectangle-path" fill="#999999" fill-rule="nonzero" transform="translate(101.226262, 163.322063) rotate(135.000000) translate(-101.226262, -163.322063) " x="96.1400547" y="162.592271" width="10.1724138" height="1.4595843"></rect>
                <rect id="Rectangle-path" fill="#999999" fill-rule="nonzero" transform="translate(119.146027, 163.323545) rotate(-135.000000) translate(-119.146027, -163.323545) " x="114.059821" y="162.593753" width="10.1724138" height="1.4595843"></rect>
                <rect id="Rectangle-path" fill="#999999" fill-rule="nonzero" transform="translate(119.144110, 163.322196) rotate(135.000000) translate(-119.144110, -163.322196) " x="114.057903" y="162.592404" width="10.1724138" height="1.4595843"></rect>
                <ellipse id="Oval" fill="#666666" fill-rule="nonzero" opacity="0.3" style="mix-blend-mode: multiply;" cx="21.7980296" cy="112.132564" rx="4.35960591" ry="4.37875289"></ellipse>
                <rect id="Rectangle-path" fill="#666666" fill-rule="nonzero" x="19.6182266" y="99.726097" width="4.35960591" height="14.595843" rx="2.17980296"></rect>
                <ellipse id="Oval" fill="#666666" fill-rule="nonzero" opacity="0.3" style="mix-blend-mode: multiply;" cx="36.3300493" cy="112.132564" rx="4.35960591" ry="4.37875289"></ellipse>
                <rect id="Rectangle-path" fill="#666666" fill-rule="nonzero" x="34.1502463" y="99.726097" width="4.35960591" height="14.595843" rx="2.17980296"></rect>
                <ellipse id="Oval" fill="#666666" fill-rule="nonzero" opacity="0.3" style="mix-blend-mode: multiply;" cx="50.862069" cy="112.132564" rx="4.35960591" ry="4.37875289"></ellipse>
                <rect id="Rectangle-path" fill="#666666" fill-rule="nonzero" x="48.682266" y="99.726097" width="4.35960591" height="14.595843" rx="2.17980296"></rect>
                <ellipse id="Oval" fill="#666666" fill-rule="nonzero" opacity="0.3" style="mix-blend-mode: multiply;" cx="65.3940887" cy="112.132564" rx="4.35960591" ry="4.37875289"></ellipse>
                <rect id="Rectangle-path" fill="#666666" fill-rule="nonzero" x="63.2142857" y="99.726097" width="4.35960591" height="14.595843" rx="2.17980296"></rect>
                <ellipse id="Oval" fill="#666666" fill-rule="nonzero" opacity="0.3" style="mix-blend-mode: multiply;" cx="79.9261084" cy="112.132564" rx="4.35960591" ry="4.37875289"></ellipse>
                <rect id="Rectangle-path" fill="#666666" fill-rule="nonzero" x="77.7463054" y="99.726097" width="4.35960591" height="14.595843" rx="2.17980296"></rect>
                <ellipse id="Oval" fill="#666666" fill-rule="nonzero" opacity="0.3" style="mix-blend-mode: multiply;" cx="94.4581281" cy="112.132564" rx="4.35960591" ry="4.37875289"></ellipse>
                <rect id="Rectangle-path" fill="#666666" fill-rule="nonzero" x="92.2783251" y="99.726097" width="4.35960591" height="14.595843" rx="2.17980296"></rect>
                <ellipse id="Oval" fill="#666666" fill-rule="nonzero" opacity="0.3" style="mix-blend-mode: multiply;" cx="108.990148" cy="112.132564" rx="4.35960591" ry="4.37875289"></ellipse>
                <rect id="Rectangle-path" fill="#666666" fill-rule="nonzero" x="106.810345" y="99.726097" width="4.35960591" height="14.595843" rx="2.17980296"></rect>
            </g>
        </g>
    </g>
</svg>