<?xml version="1.0" encoding="UTF-8"?>
<svg width="293px" height="258px" viewBox="0 0 293 258" version="1.1" xmlns="http://www.w3.org/2000/svg" xmlns:xlink="http://www.w3.org/1999/xlink">
    <!-- Generator: Sketch 43.2 (39069) - http://www.bohemiancoding.com/sketch -->
    <title>main_switch_icon</title>
    <desc>Created with Sketch.</desc>
    <defs>
        <polygon id="path-1" points="0 258 293 258 293 0 0 0"></polygon>
    </defs>
    <g id="Page-1" stroke="none" stroke-width="1" fill="none" fill-rule="evenodd">
        <g id="main_switch_icon">
            <g id="Group-34">
                <path d="M257.894009,129 C257.894009,200.244471 200.162207,258 128.947005,258 C57.7318018,258 0,200.244471 0,129 C0,57.7555288 57.7318018,0 128.947005,0 C200.162207,0 257.894009,57.7555288 257.894009,129 Z" id="Fill-1" fill="#F7A624"></path>
                <path d="M257.894009,129 C257.894009,200.244471 200.162207,258 128.947005,258 C57.7318018,258 0,200.244471 0,129 C0,57.7555288 57.7318018,0 128.947005,0 C200.162207,0 257.894009,57.7555288 257.894009,129" id="Fill-3" fill="#FFDF43"></path>
                <path d="M128.947005,0 C57.7318018,0 0,57.7555288 0,129 C0,200.244471 57.7318018,258 128.947005,258 C200.162207,258 257.894009,200.244471 257.894009,129 C257.894009,57.7555288 200.162207,0 128.947005,0 M128.947005,6.7539267 C161.5868,6.7539267 192.272811,19.4695445 215.3523,42.5591937 C238.432463,65.6481675 251.142857,96.3467906 251.142857,129 C251.142857,161.653209 238.432463,192.351832 215.3523,215.440806 C192.272811,238.530455 161.5868,251.246073 128.947005,251.246073 C96.3072097,251.246073 65.6211982,238.530455 42.5417097,215.440806 C19.4615461,192.351832 6.75115207,161.653209 6.75115207,129 C6.75115207,96.3467906 19.4615461,65.6481675 42.5417097,42.5591937 C65.6211982,19.4695445 96.3072097,6.7539267 128.947005,6.7539267" id="Fill-5" fill="#E4E4E4"></path>
                <path d="M257.894009,129 C257.894009,200.244471 200.162207,258 128.947005,258 C57.7318018,258 0,200.244471 0,129 C0,57.7555288 57.7318018,0 128.947005,0 C200.162207,0 257.894009,57.7555288 257.894009,129" id="Fill-7" fill="#F7A624"></path>
                <path d="M257.894009,129 C257.894009,200.244471 200.162207,258 128.947005,258 C57.7318018,258 0,200.244471 0,129 C0,57.7555288 57.7318018,0 128.947005,0 C200.162207,0 257.894009,57.7555288 257.894009,129" id="Fill-9" fill="#FFDF43" opacity="0.2"></path>
                <path d="M128.947005,0 C57.7318018,0 0,57.7555288 0,129 C0,200.244471 57.7318018,258 128.947005,258 C200.162207,258 257.894009,200.244471 257.894009,129 C257.894009,57.7555288 200.162207,0 128.947005,0 M128.947005,6.7539267 C161.5868,6.7539267 192.272811,19.4695445 215.3523,42.5591937 C238.432463,65.6481675 251.142857,96.3467906 251.142857,129 C251.142857,161.653209 238.432463,192.351832 215.3523,215.440806 C192.272811,238.530455 161.5868,251.246073 128.947005,251.246073 C96.3072097,251.246073 65.6211982,238.530455 42.5417097,215.440806 C19.4615461,192.351832 6.75115207,161.653209 6.75115207,129 C6.75115207,96.3467906 19.4615461,65.6481675 42.5417097,42.5591937 C65.6211982,19.4695445 96.3072097,6.7539267 128.947005,6.7539267" id="Fill-11" fill="#E4E4E4"></path>
                <path d="M197.133641,54.7068063 L74.2626728,54.7068063 L74.2626728,216.801047 L197.133641,216.801047 L197.133641,210.04577 L229.261698,210.04577 C247.164403,187.896267 257.894009,159.704026 257.894009,129 C257.894009,104.236052 250.913318,81.1052042 238.821329,61.4593822 L197.133641,61.4593822 L197.133641,54.7068063 Z" id="Fill-13" fill-opacity="0.75" fill="#E4E4E4" style="mix-blend-mode: multiply;"></path>
                <mask id="mask-2" fill="white">
                    <use xlink:href="#path-1"></use>
                </mask>
                <g id="Clip-16"></g>
                <polygon id="Fill-15" fill="#E4E4E4" mask="url(#mask-2)" points="67.5115207 210.04712 190.382488 210.04712 190.382488 47.9528796 67.5115207 47.9528796"></polygon>
                <polygon id="Fill-17" fill="#F6F6F6" mask="url(#mask-2)" points="74.2626728 203.291843 183.631336 203.291843 183.631336 54.7054555 74.2626728 54.7054555"></polygon>
                <path d="M104.166158,114.413747 L90.8225062,114.413747 C89.7747274,114.413747 88.916656,113.555323 88.916656,112.507114 L88.916656,78.1809565 C88.916656,77.1320717 89.7747274,76.2736476 90.8225062,76.2736476 L104.166158,76.2736476 C105.214612,76.2736476 106.072684,77.1320717 106.072684,78.1809565 L106.072684,112.507114 C106.072684,113.555323 105.214612,114.413747 104.166158,114.413747" id="Fill-18" fill="#CCCCCC" mask="url(#mask-2)"></path>
                <path d="M125.134629,114.413747 L111.790977,114.413747 C110.742523,114.413747 109.885127,113.555323 109.885127,112.507114 L109.885127,78.1809565 C109.885127,77.1320717 110.742523,76.2736476 111.790977,76.2736476 L125.134629,76.2736476 C126.183083,76.2736476 127.040479,77.1320717 127.040479,78.1809565 L127.040479,112.507114 C127.040479,113.555323 126.183083,114.413747 125.134629,114.413747" id="Fill-19" fill="#CCCCCC" mask="url(#mask-2)"></path>
                <polygon id="Fill-20" fill="#FFFFFF" mask="url(#mask-2)" points="113.696827 110.599602 123.228104 110.599602 123.228104 80.0880628 113.696827 80.0880628"></polygon>
                <polygon id="Fill-21" fill="#E4E4E4" mask="url(#mask-2)" points="113.696827 110.599602 123.228104 110.599602 123.228104 95.3438325 113.696827 95.3438325"></polygon>
                <polygon id="Fill-22" fill="#E4E4E4" mask="url(#mask-2)" points="127.994012 110.599535 123.228374 110.599535 123.228374 95.3437649"></polygon>
                <path d="M146.102762,114.413747 L132.75911,114.413747 C131.711331,114.413747 130.85326,113.555323 130.85326,112.507114 L130.85326,78.1809565 C130.85326,77.1320717 131.711331,76.2736476 132.75911,76.2736476 L146.102762,76.2736476 C147.151216,76.2736476 148.009288,77.1320717 148.009288,78.1809565 L148.009288,112.507114 C148.009288,113.555323 147.151216,114.413747 146.102762,114.413747" id="Fill-23" fill="#CCCCCC" mask="url(#mask-2)"></path>
                <polygon id="Fill-24" fill="#FFFFFF" mask="url(#mask-2)" points="134.66523 110.599602 144.196507 110.599602 144.196507 80.0880628 134.66523 80.0880628"></polygon>
                <polygon id="Fill-25" fill="#E4E4E4" mask="url(#mask-2)" points="134.66523 110.599602 144.196507 110.599602 144.196507 95.3438325 134.66523 95.3438325"></polygon>
                <polygon id="Fill-26" fill="#E4E4E4" mask="url(#mask-2)" points="148.962145 110.599535 144.196507 110.599535 144.196507 95.3437649"></polygon>
                <path d="M167.071233,114.413747 L153.727581,114.413747 C152.679127,114.413747 151.821731,113.555323 151.821731,112.507114 L151.821731,78.1809565 C151.821731,77.1320717 152.679127,76.2736476 153.727581,76.2736476 L167.071233,76.2736476 C168.119687,76.2736476 168.977083,77.1320717 168.977083,78.1809565 L168.977083,112.507114 C168.977083,113.555323 168.119687,114.413747 167.071233,114.413747" id="Fill-27" fill="#CCCCCC" mask="url(#mask-2)"></path>
                <polygon id="Fill-28" fill="#FFFFFF" mask="url(#mask-2)" points="155.633634 110.599602 165.16491 110.599602 165.16491 80.0880628 155.633634 80.0880628"></polygon>
                <polygon id="Fill-29" fill="#E4E4E4" mask="url(#mask-2)" points="155.633634 110.599602 165.16491 110.599602 165.16491 95.3438325 155.633634 95.3438325"></polygon>
                <polygon id="Fill-30" fill="#E4E4E4" mask="url(#mask-2)" points="169.930278 110.599535 165.16464 110.599535 165.16464 95.3437649"></polygon>
                <polygon id="Fill-31" fill="#FFFFFF" mask="url(#mask-2)" points="92.7290991 110.599602 102.260376 110.599602 102.260376 80.0880628 92.7290991 80.0880628"></polygon>
                <polygon id="Fill-32" fill="#E4E4E4" mask="url(#mask-2)" points="92.7290991 110.599602 102.260376 110.599602 102.260376 95.3438325 92.7290991 95.3438325"></polygon>
                <polygon id="Fill-33" fill="#E4E4E4" mask="url(#mask-2)" points="107.025541 110.599535 102.259903 110.599535 102.259903 95.3437649"></polygon>
            </g>
            <text id="OFF" font-family="OpenSans-Semibold, Open Sans" font-size="9.60000038" font-weight="500" letter-spacing="0.0233846158" fill="#5C5E4E">
                <tspan x="149.195195" y="135.134258">OFF</tspan>
            </text>
            <text id="ON" font-family="OpenSans-Semibold, Open Sans" font-size="9.60000038" font-weight="500" letter-spacing="0.0233846158" fill="#5C5E4E">
                <tspan x="91.4704143" y="135.134258">ON</tspan>
            </text>
            <g id="Group-54" transform="translate(106.668203, 54.031414)">
                <polygon id="Fill-35" fill="#C8C8C8" points="76.9631336 149.260429 186.331797 149.260429 186.331797 0.674041885 76.9631336 0.674041885"></polygon>
                <path d="M101.319062,21.2972921 L161.976814,21.2972921 L161.976814,21.2587948 C161.976814,19.2555801 159.538297,17.6292346 156.532685,17.6292346 L106.762516,17.6292346 C103.756228,17.6292346 101.319062,19.2555801 101.319062,21.2587948 L101.319062,21.2972921 Z" id="Fill-37" fill="#E4E4E4"></path>
                <path d="M101.319062,31.3826607 L161.976814,31.3826607 L161.976814,31.3461895 C161.976814,29.3409487 159.538297,27.7152785 156.532685,27.7152785 L106.762516,27.7152785 C103.756228,27.7152785 101.319062,29.3409487 101.319062,31.3461895 L101.319062,31.3826607 Z" id="Fill-38" fill="#E4E4E4"></path>
                <path d="M101.319062,41.4700555 L161.976814,41.4700555 L161.976814,41.4335843 C161.976814,39.4283435 159.538297,37.8019979 156.532685,37.8019979 L106.762516,37.8019979 C103.756228,37.8019979 101.319062,39.4283435 101.319062,41.4335843 L101.319062,41.4700555 Z" id="Fill-39" fill="#E4E4E4"></path>
                <path d="M101.319062,51.5554241 L161.976814,51.5554241 L161.976814,51.5189529 C161.976814,49.513712 159.538297,47.8880419 156.532685,47.8880419 L106.762516,47.8880419 C103.756228,47.8880419 101.319062,49.513712 101.319062,51.5189529 L101.319062,51.5554241 Z" id="Fill-40" fill="#E4E4E4"></path>
                <path d="M101.319062,61.6427513 L161.976814,61.6427513 L161.976814,61.6062801 C161.976814,59.6010393 159.538297,57.9746937 156.532685,57.9746937 L106.762516,57.9746937 C103.756228,57.9746937 101.319062,59.6010393 101.319062,61.6062801 L101.319062,61.6427513 Z" id="Fill-41" fill="#E4E4E4"></path>
                <path d="M131.647465,124.098135 L110.895774,124.098135 C108.8495,124.098135 107.572182,121.883523 108.594982,120.111968 L118.970827,102.133015 L129.345998,84.1533864 C130.368797,82.381156 132.926134,82.381156 133.948933,84.1533864 L144.324104,102.133015 L154.699949,120.111968 C155.722749,121.883523 154.444756,124.098135 152.399157,124.098135 L131.647465,124.098135 Z" id="Fill-42" fill="#FFDF43"></path>
                <path d="M131.64679,89.8925356 C131.545523,89.8925356 131.357841,89.9236037 131.240371,90.1275723 L114.713551,118.762871 C114.595406,118.969541 114.663592,119.146494 114.713551,119.23497 C114.764859,119.323447 114.88503,119.470007 115.121995,119.470007 L148.174961,119.470007 C148.411251,119.470007 148.530071,119.323447 148.580705,119.23497 C148.631339,119.147845 148.699525,118.969541 148.580705,118.762871 L132.05456,90.1275723 C131.93574,89.9236037 131.748058,89.8925356 131.64679,89.8925356 M148.174961,121.698127 L115.121995,121.698127 C114.147804,121.698127 113.27353,121.192934 112.786097,120.348017 C112.298664,119.504452 112.298664,118.495415 112.786097,117.650499 L129.312242,89.0152005 C129.79765,88.1696089 130.671924,87.6650906 131.64679,87.6650906 C132.621657,87.6650906 133.495256,88.1696089 133.982689,89.0152005 L150.508834,117.650499 C150.996267,118.495415 150.996267,119.504452 150.508834,120.349368 C150.021401,121.192934 149.149152,121.698127 148.174961,121.698127" id="Fill-43" fill="#072238"></path>
                <polygon id="Fill-44" fill="#072238" points="129.692669 108.047023 136.438421 99.3439131 130.72222 99.9632482 125.515732 110.406845 130.856568 109.829384 127.67745 117.63017 136.264916 107.196028"></polygon>
                <path d="M166.633488,83.3714168 C166.633488,86.9894953 169.564838,89.923401 173.181431,89.923401 C176.798023,89.923401 179.730723,86.9894953 179.730723,83.3714168 C179.730723,79.7540136 176.798023,76.8201079 173.181431,76.8201079 C169.564838,76.8201079 166.633488,79.7540136 166.633488,83.3714168" id="Fill-45" fill="#E4E4E4"></path>
                <path d="M171.708059,81.355167 C171.708059,80.5426696 172.368322,79.8814602 173.181836,79.8814602 C173.996025,79.8814602 174.654937,80.5426696 174.654937,81.355167 C174.654937,81.9643712 174.285649,82.4871251 173.758384,82.7113555 L174.654937,86.4030518 L171.708059,86.4030518 L172.605962,82.7113555 C172.078697,82.4871251 171.708059,81.9643712 171.708059,81.355167" id="Fill-46" fill="#959595"></path>
                <polygon id="Fill-47" fill="#959595" points="76.9631336 44.0916597 80.2671475 44.0916597 80.2671475 21.266089 76.9631336 21.266089"></polygon>
                <polygon id="Fill-48" fill="#959595" points="76.9631336 119.121031 80.2671475 119.121031 80.2671475 96.2954607 76.9631336 96.2954607"></polygon>
                <path d="M37.1975652,87.4917173 L6.5655629,124.012901 C5.21735783,125.61966 5.42866889,128.037565 7.03544309,129.385649 L14.3368141,135.514838 C15.9429131,136.863597 18.3598256,136.652199 19.7073555,135.044764 L50.3400329,98.5242565 C51.6875629,96.916822 51.4762518,94.4989162 49.8701528,93.1508325 L42.5687818,87.0223194 C40.9626827,85.6735602 38.5457703,85.8849581 37.1975652,87.4917173" id="Fill-49" fill="#E4E4E4"></path>
                <path d="M9.70511866,93.0999754 C-0.212323733,100.047064 -2.62248502,113.721064 4.32175,123.643258 C11.265985,133.564101 24.9350426,135.975253 34.852485,129.028164 C44.7692523,122.081075 47.1800887,108.407075 40.2358537,98.4855565 C33.2916187,88.5640382 19.6225611,86.1528864 9.70511866,93.0999754" id="Fill-50" fill="#F2A224"></path>
                <path d="M36.3695364,94.2647576 C27.0954788,86.4801817 13.2684442,87.6898099 5.48571613,96.9683545 C-2.29566175,106.246224 -1.08653041,120.078941 8.1882023,127.864192 C17.4622599,135.649443 31.2892945,134.43914 39.0713475,125.161271 C46.8534005,115.883402 45.643594,102.050009 36.3695364,94.2647576" id="Fill-51" fill="#EC950C"></path>
                <path d="M21.4444945,132.973875 L43.7016926,106.438373 C42.7126488,101.839624 40.2498286,97.5225141 36.3692664,94.2650953 C35.3984507,93.4492209 34.374976,92.7393832 33.3157203,92.1200482 L6.56563041,124.012765 C6.18284009,124.468655 5.93979862,124.993436 5.80477558,125.536451 C6.52849908,126.359755 7.32310968,127.137807 8.18793226,127.86453 C12.0684945,131.121949 16.7463677,132.798273 21.4444945,132.973875" id="Fill-52" fill="#E48C02"></path>
                <path d="M33.4738998,84.3660675 L2.84189747,120.887251 C1.4936924,122.49401 1.70567857,124.911916 3.31177765,126.259999 L10.6131486,132.389188 C12.2192477,133.737947 14.6361601,133.525874 15.9836901,131.919115 L46.6163675,95.3986068 C47.9638975,93.7911723 47.7525864,91.3732665 46.1464873,90.0251827 L38.8451164,83.8959942 C37.2390173,82.5479105 34.8221048,82.7593084 33.4738998,84.3660675" id="Fill-53" fill="#F2A224"></path>
            </g>
        </g>
    </g>
</svg>