<?xml version="1.0" encoding="UTF-8" standalone="no"?>
<svg width="113px" height="113px" viewBox="0 0 113 113" version="1.1" xmlns="http://www.w3.org/2000/svg" xmlns:xlink="http://www.w3.org/1999/xlink">
    <!-- Generator: Sketch 42 (36781) - http://www.bohemiancoding.com/sketch -->
    <title>Meter gas  icon copy</title>
    <desc>Created with Sketch.</desc>
    <defs></defs>
    <g id="Version-04" stroke="none" stroke-width="1" fill="none" fill-rule="evenodd">
        <g id="Components" transform="translate(-671.000000, -2098.000000)">
            <g id="Meter-gas--icon-copy" transform="translate(672.000000, 2099.000000)">
                <g id="meter-elec-icon-copy" stroke-width="1">
                    <g id="meter-elec-icon">
                        <circle id="Oval-10" stroke="#50E3C2" stroke-width="2" fill="#FFFFFF" cx="55.5" cy="55.5" r="55.5"></circle>
                        <g id="Meter-Elec" transform="translate(24.440367, 23.422018)">
                            <g id="Group-17" fill="#50E3C2">
                                <path d="M0,5.00706569 C0,2.24173967 2.24710113,0 5.00707718,0 L58.1305375,0 C60.8958699,0 63.1376147,2.23166451 63.1376147,5.00706569 L63.1376147,25.6530569 L0,25.6530569 L0,5.00706569 Z" id="Rectangle-11"></path>
                                <path d="M0,31.6732915 C0,28.9151195 2.24710113,26.6791792 5.00707718,26.6791792 L58.1305375,26.6791792 C60.8958699,26.6791792 63.1376147,28.9145077 63.1376147,31.6732915 L63.1376147,47.2016248 L0,47.2016248 L0,31.6732915 Z" id="Rectangle-11-Copy" transform="translate(31.568807, 36.940402) scale(1, -1) translate(-31.568807, -36.940402) "></path>
                                <path d="M10.8679501,49.2338538 C10.8679501,48.6781964 11.3188003,48.227747 11.8708547,48.227747 L51.26676,48.227747 C51.8206489,48.227747 52.2696646,48.6747766 52.2696646,49.2338538 L52.2696646,55.9236641 L10.8679501,55.9236641 L10.8679501,49.2338538 Z" id="Rectangle-11-Copy-2" transform="translate(31.568807, 52.075706) scale(1, -1) translate(-31.568807, -52.075706) "></path>
                                <path d="M16.5606858,57.9523588 C16.5606858,57.3986533 17.0019217,56.9497864 17.5585192,56.9497864 L20.7380668,56.9497864 C21.2891549,56.9497864 21.7359001,57.3906983 21.7359001,57.9523588 L21.7359001,67.2110092 L16.5606858,67.2110092 L16.5606858,57.9523588 Z" id="Rectangle-11-Copy-3" transform="translate(19.148293, 62.080398) scale(1, -1) translate(-19.148293, -62.080398) "></path>
                                <path d="M28.9812002,57.9523588 C28.9812002,57.3986533 29.422436,56.9497864 29.9790336,56.9497864 L33.1585811,56.9497864 C33.7096693,56.9497864 34.1564145,57.3906983 34.1564145,57.9523588 L34.1564145,67.2110092 L28.9812002,67.2110092 L28.9812002,57.9523588 Z" id="Rectangle-11-Copy-4" transform="translate(31.568807, 62.080398) scale(1, -1) translate(-31.568807, -62.080398) "></path>
                                <path d="M41.4017145,57.9523588 C41.4017145,57.3986533 41.8429504,56.9497864 42.3995479,56.9497864 L45.5790955,56.9497864 C46.1301836,56.9497864 46.5769289,57.3906983 46.5769289,57.9523588 L46.5769289,67.2110092 L41.4017145,67.2110092 L41.4017145,57.9523588 Z" id="Rectangle-11-Copy-5" transform="translate(43.989322, 62.080398) scale(1, -1) translate(-43.989322, -62.080398) "></path>
                            </g>
                            <g id="Group-18" transform="translate(11.902993, 9.235100)" fill="#FFFFFF">
                                <rect id="Rectangle-12" x="0" y="0" width="4.65769289" height="11.8004062"></rect>
                                <rect id="Rectangle-12-Copy" x="7.5558129" y="0" width="4.65769289" height="11.8004062"></rect>
                                <rect id="Rectangle-12-Copy-2" x="15.1116258" y="0" width="4.65769289" height="11.8004062"></rect>
                                <rect id="Rectangle-12-Copy-3" x="22.6674387" y="0" width="4.65769289" height="11.8004062"></rect>
                                <rect id="Rectangle-12-Copy-4" x="30.2232516" y="0" width="4.65769289" height="11.8004062"></rect>
                                <rect id="Rectangle-12-Copy-5" x="37.7790645" y="0" width="4.65769289" height="11.8004062"></rect>
                            </g>
                        </g>
                    </g>
                </g>
                <path d="M62.0361577,62.3594057 L62.2912881,62.3359551 C62.2917597,62.3297335 62.2941176,62.276132 62.2941176,62.2699104 C62.2941176,62.0607691 62.2804415,61.8588065 62.2530893,61.6659371 C62.053135,59.4113265 61.1703178,57.5118255 61.1325906,57.4319019 C61.0840168,57.3290063 60.9764942,57.2677475 60.8628409,57.2892838 C60.7515456,57.3079486 60.6652445,57.3988796 60.6525116,57.5127827 C60.6171423,57.8118979 60.4223755,58.6489418 59.9470124,58.928435 C59.7164047,59.0633957 59.4409959,59.0576527 59.1033372,58.9116845 C57.7772251,58.3369048 56.8477205,53.9492441 57.2896007,52.5125341 C57.3447768,52.3316293 57.4079699,52.1263166 57.1995269,52.0267711 C57.0618225,51.9621622 56.9401522,52.0148065 56.8331012,52.1813538 L56.7826411,52.2579273 C56.1808917,53.1160289 55.4051256,54.0971267 54.5836152,55.1356546 C53.7385252,56.2043333 52.8646683,57.3089058 52.1412487,58.3340333 C51.008017,59.9411193 51,62.0531117 51,62.1416498 C51.0018864,62.2120017 51,62.239281 51,62.2699104 C51,65.4295238 53.5329118,68 56.646823,68 C59.6376491,68 62.0955781,65.6444082 62.2766688,62.6216699 C62.2875154,62.5924762 62.2941176,62.5604111 62.2941176,62.5273888 L62.2898733,62.3550984 L62.0361577,62.3594057 Z" id="Gas-disabled-icon" fill="#FFFFFF"></path>
            </g>
        </g>
    </g>
</svg>