<?xml version="1.0" encoding="UTF-8"?>
<svg width="110px" height="144px" viewBox="0 0 110 144" version="1.1" xmlns="http://www.w3.org/2000/svg" xmlns:xlink="http://www.w3.org/1999/xlink">
    <defs></defs>
    <g id="SSMR---Multiple-meter-&amp;-register" stroke="none" stroke-width="1" fill="none" fill-rule="evenodd">
        <g id="Dual-register-Onboard-(1-with-2)-2" transform="translate(-33.000000, -237.000000)">
            <g id="icon/meter_large_digital1" transform="translate(39.000000, 230.000000)">
                <g id="Group-3" transform="translate(0.000000, 7.000000)">
                    <path d="M24.6367764,127.741935 C14.3205878,127.741935 5.47791152,119.440636 4.88617179,109.201601 L0.0493115846,25.5080768 C0.00362971409,24.7176308 0.00841994064,23.9387381 0.0609063509,23.1743253 C0.0204617678,22.8066847 0,22.4366764 0,22.0645161 C0,19.1078295 1.2914977,16.2869727 3.63432342,13.7100933 C5.41846408,11.4043208 7.78037444,9.56678675 10.5317162,8.39605655 C19.5056012,3.28197913 33.4016417,0 49,0 C64.5996404,0 78.4966831,3.28251867 87.4704965,8.39731762 C90.2186927,9.56736576 92.5783796,11.4028162 94.3616424,13.7056574 C96.7070197,16.2837354 98,19.1061329 98,22.0645161 C98,22.4365729 97.9795496,22.8064789 97.9391274,23.1740185 C97.9916586,23.938534 97.9964701,24.7175297 97.9507824,25.5080768 L93.1139222,109.201601 C92.5221531,119.441145 83.6708192,127.741935 73.3633175,127.741935 L56,127.741935 L56,139.351612 C56,141.918846 53.9040585,144 51.3382027,144 L46.6617973,144 C44.0871577,144 42,141.921433 42,139.351612 L42,127.741935 L24.6367764,127.741935 Z" id="Combined-Shape" fill="#CCCCCC"></path>
                    <path d="M14.9937569,25.0034866 C14.9151059,22.792422 16.6430288,21 18.8435561,21 L79.1564551,21 C81.3612914,21 83.0848001,22.7953765 83.0062543,25.0034866 L81.0144972,80.9965134 C80.9358463,83.207578 79.0838876,85 76.8725383,85 L21.1274729,85 C18.918583,85 17.0640597,83.2046235 16.9855139,80.9965134 L14.9937569,25.0034866 Z" id="Rectangle-3" fill="#FFFFFF"></path>
                    <path d="M55.7993481,100.756842 L50.1592844,100.756842 L56.0424369,94.5484407 C56.13242,94.453404 56.1565946,94.3148089 56.1035449,94.1953531 C56.0511666,94.0765573 55.9316367,94 55.7993481,94 L55.7986765,94 L46.2242002,94.0211193 C46.0872109,94.0217792 45.964995,94.1036163 45.9153028,94.2290119 L41.4886687,105.372719 C41.4483778,105.473695 41.4624796,105.587211 41.5249306,105.676968 C41.5880531,105.766065 41.7142981,105.814243 41.8022667,105.817543 L45.7145195,105.774645 L41.0280087,116.281474 C40.9628716,116.427329 41.0145784,116.598263 41.1495531,116.68538 C41.2052889,116.721678 41.269083,116.739498 41.3322055,116.739498 C41.4215171,116.739498 41.5101572,116.703199 41.5752943,116.634561 L56.0424369,101.304622 C56.13242,101.210246 56.1565946,101.071651 56.1035449,100.952195 C56.0511666,100.833399 55.9316367,100.756842 55.7993481,100.756842" id="Fill-3" fill="#F9F9F9"></path>
                </g>
                <g id="Group-2" transform="translate(26.000000, 41.000000)" fill="#001CB0">
                    <rect id="Rectangle-17" x="0" y="0" width="10" height="17" rx="2"></rect>
                    <rect id="Rectangle-17-Copy" x="12" y="0" width="10" height="17" rx="2"></rect>
                    <rect id="Rectangle-17-Copy-2" x="24" y="0" width="10" height="17" rx="2"></rect>
                    <rect id="Rectangle-17-Copy-3" x="36" y="0" width="10" height="17" rx="2"></rect>
                </g>
                <g id="Group-2-Copy" transform="translate(26.000000, 61.000000)" fill="#001CB0">
                    <rect id="Rectangle-17" x="0" y="0" width="10" height="17" rx="2"></rect>
                    <rect id="Rectangle-17-Copy" x="12" y="0" width="10" height="17" rx="2"></rect>
                    <rect id="Rectangle-17-Copy-2" x="24" y="0" width="10" height="17" rx="2"></rect>
                    <rect id="Rectangle-17-Copy-3" x="36" y="0" width="10" height="17" rx="2"></rect>
                </g>
                <g id="icon/circle" transform="translate(-3.000000, 35.000000)" stroke="#001CB0">
                    <g id="Oval-2">
                        <ellipse stroke-width="3" cx="52" cy="25" rx="53.5" ry="26.5"></ellipse>
                    </g>
                </g>
            </g>
        </g>
    </g>
</svg>