<?xml version="1.0" encoding="UTF-8" standalone="no"?>
<svg width="13px" height="16px" viewBox="0 0 13 16" version="1.1" xmlns="http://www.w3.org/2000/svg" xmlns:xlink="http://www.w3.org/1999/xlink">
    <!-- Generator: Sketch 41.2 (35397) - http://www.bohemiancoding.com/sketch -->
    <title>multicontract  selected copy</title>
    <desc>Created with Sketch.</desc>
    <defs></defs>
    <g id="Version-04" stroke="none" stroke-width="1" fill="none" fill-rule="evenodd">
        <g id="Components" transform="translate(-653.000000, -562.000000)" fill="#FFFFFF">
            <g id="multicontract--selected-copy" transform="translate(653.000000, 562.000000)">
                <path d="M7.78000795,3.37660453 L4.81503006,3.37660453 L7.90779959,0.274072901 C7.95510367,0.226580124 7.96781224,0.157319824 7.939924,0.0976240419 C7.91238879,0.0382580705 7.84955202,0 7.78000795,0 L7.77965493,0 L2.74635874,0.0105539505 C2.67434356,0.0108837614 2.61009472,0.0517803195 2.58397157,0.1144444 L0.256892841,5.68330233 C0.235711905,5.73376341 0.243125233,5.79049089 0.275955682,5.83534518 C0.309139147,5.87986966 0.375506077,5.90394586 0.421751118,5.90559491 L2.47841991,5.8841572 L0.0147241501,11.1347476 C-0.0195183615,11.2076358 0.0076638384,11.2930568 0.0786199707,11.3365919 C0.107920264,11.3547315 0.141456745,11.3636364 0.17464021,11.3636364 C0.221591282,11.3636364 0.268189339,11.3454968 0.302431851,11.3111964 L7.90779959,3.65034762 C7.95510367,3.60318465 7.96781224,3.53392435 7.939924,3.47422857 C7.91238879,3.4148626 7.84955202,3.37660453 7.78000795,3.37660453" id="Fill-3-Copy"></path>
                <path d="M12.3183166,11.902987 L12.4980071,11.8863317 C12.4983393,11.881913 12.5,11.8438438 12.5,11.839425 C12.5,11.6908871 12.4903678,11.5474478 12.4711034,11.4104667 C12.3302738,9.80918077 11.708498,8.46010335 11.6819264,8.40333944 C11.6477154,8.33026017 11.5719863,8.28675251 11.4919393,8.30204817 C11.413553,8.31530441 11.3527705,8.3798861 11.3438026,8.46078315 C11.3188917,8.67322291 11.1817157,9.26771432 10.8469133,9.46621803 C10.6844943,9.56207084 10.4905215,9.557992 10.2527056,9.4543214 C9.31871325,9.04609717 8.66405506,5.92986089 8.97527511,4.90947026 C9.0141361,4.7809867 9.05864356,4.63516805 8.91183538,4.5644681 C8.81484898,4.51858111 8.72915552,4.55597051 8.65375856,4.67425697 L8.61821902,4.72864154 C8.19440174,5.33808871 7.64802288,6.03489111 7.06942594,6.77248194 C6.47422174,7.53148669 5.85875668,8.31598422 5.34924594,9.04405775 C4.55110101,10.1854541 4.54545455,11.6854487 4.54545455,11.7483308 C4.54678313,11.7982967 4.54545455,11.8176712 4.54545455,11.839425 C4.54545455,14.0834686 6.32940643,15.9090909 8.5225612,15.9090909 C10.6290261,15.9090909 12.3601669,14.2360854 12.4877106,12.0892542 C12.49535,12.06852 12.5,12.0457465 12.5,12.0222932 L12.4970107,11.8999279 L12.3183166,11.902987 Z" id="Fill-1-Copy"></path>
            </g>
        </g>
    </g>
</svg>