<?xml version="1.0" encoding="UTF-8"?>
<svg width="350px" height="166px" viewBox="0 0 350 166" version="1.1" xmlns="http://www.w3.org/2000/svg" xmlns:xlink="http://www.w3.org/1999/xlink">
    <!-- Generator: Sketch 47 (45396) - http://www.bohemiancoding.com/sketch -->
    <title>Desktop | Scenario 2A - 2.1b Copy</title>
    <desc>Created with Sketch.</desc>
    <defs></defs>
    <g id="Page-1" stroke="none" stroke-width="1" fill="none" fill-rule="evenodd">
        <g id="Desktop-|-Scenario-2A---2.1b-Copy">
            <g id="Group-13" transform="translate(-1047.000000, 4.000000)">
                <g id="Group-10">
                    <polyline id="Fill-336" fill="#001CB0" points="1276.39803 107 1284.39158 112.929078 1274 121.822695 1276.39803 107"></polyline>
                    <polyline id="Fill-342" fill="#F6A623" points="1373 125.865052 1381.59306 125 1378.99509 132.228435 1373 125.865052"></polyline>
                    <polyline id="Fill-343" fill="#F6A623" transform="translate(1191.454939, 132.359261) rotate(17.000000) translate(-1191.454939, -132.359261) " points="1177.88941 137.991441 1167.60454 131.248004 1170.0889 127.541737 1177.88941 132.65616 1186.9324 126.727082 1195.97538 132.65616 1205.01927 126.727379 1215.30534 133.470519 1212.82097 137.177082 1205.01927 132.062363 1195.97508 137.991441 1186.9324 132.062363 1177.88941 137.991441"></polyline>
                    <path d="M1077.00154,0.963276151 C1084.1237,-1.82250105 1092.20807,1.64096974 1095.02577,8.68412126 C1097.84346,15.7269763 1094.33933,23.7232271 1087.22016,26.5090043 L1085.23279,21.5469591 C1089.58822,19.843535 1091.73147,14.9535281 1090.00788,10.646646 C1088.28429,6.34006035 1083.34134,4.22189731 1078.98591,5.92561782 L1077.00154,0.963276151" id="Fill-351" fill="#F6A623"></path>
                    <path d="M1327.20678,9.3819344 C1328.39219,9.53386675 1329.30074,10.803346 1329.05698,11.9917946 C1328.81422,13.1802432 1327.47485,13.9635389 1326.33266,13.977044 C1324.87917,13.9939254 1323.58775,12.9000124 1322.22576,12.5117409 C1321.23179,12.2315101 1320.17839,12.1606083 1319.18171,12.4543442 C1316.65963,13.2038772 1315.8392,16.0028087 1316.83453,18.281794 C1317.39296,19.5580258 1318.39504,20.4898776 1319.53183,21.2630444 C1320.66693,22.032835 1322.13089,22.5730389 1322.91857,23.7513587 C1324.77417,26.5334089 1319.50009,25.7163505 1318.27248,25.513774 C1316.15083,25.1626415 1313.70168,25.1086211 1312.00274,26.6414497 C1309.72645,28.6976009 1310.99425,31.2331831 1310.48004,33.7856466 C1309.96144,36.3617441 1306.47578,36.9120768 1304.33556,37.2800907 C1302.19432,37.6514809 1302.79699,40.973735 1304.94362,40.6023448 C1309.32333,39.8494356 1314.02479,37.9384643 1313.88602,32.7525066 C1313.85868,31.7396242 1313.45352,30.0751209 1314.18347,29.2411811 C1314.85063,28.4781431 1316.2268,28.6537093 1317.11712,28.7516213 C1319.19961,28.9845842 1321.15649,29.5450458 1323.24472,28.9440689 C1325.27454,28.3565972 1326.79386,26.6718362 1326.6686,24.4772578 C1326.52443,21.9518044 1324.47402,20.3413215 1322.49316,19.1292389 C1321.59338,18.5755299 1319.66654,17.6706883 1319.77323,16.3370599 C1319.88398,14.9494111 1321.84829,15.9521646 1322.57217,16.276287 C1324.82988,17.2959219 1326.97449,17.7854817 1329.2842,16.5869042 C1334.15515,14.0580746 1332.94712,6.71130126 1327.47283,6.01578871 C1325.31843,5.74231047 1325.05136,9.10845617 1327.20678,9.3819344" id="Fill-261" fill="#50E3C2"></path>
                    <polyline id="Fill-328" fill="#001CB0" points="1245.84614 79 1252 83.6153402 1244 90.5383506 1245.84614 79"></polyline>
                    <polyline id="Fill-331" fill="#50E3C2" points="1347.26014 113 1345.34579 124.091062 1331 118.280493 1347.26014 113"></polyline>
                    <polyline id="Fill-331-Copy-2" fill="#50E3C2" points="1130.26014 135 1128.34579 146.091062 1114 140.280493 1130.26014 135"></polyline>
                    <polyline id="Fill-332" fill="#001CB0" points="1372.64217 15.0612981 1377.75048 25.0888334 1362.78345 29.0279328 1372.64217 15.0612981"></polyline>
                    <polyline id="Fill-334" fill="#F6A623" points="1216 22.5277417 1224.36641 15 1232.04034 28.4422994 1216 22.5277417"></polyline>
                    <polyline id="Fill-335" fill="#FFD391" points="1051.02633 152.253123 1051 141 1066.13314 144.251352 1051.02633 152.253123"></polyline>
                    <polyline id="Fill-337" fill="#50E3C2" points="1143.7405 41.7665792 1135 34.677078 1147.08065 25 1143.7405 41.7665792"></polyline>
                    <polyline id="Fill-337-Copy" fill="#50E3C2" points="1305.7405 91.7665792 1297 84.677078 1309.08065 75 1305.7405 91.7665792"></polyline>
                    <polyline id="Fill-338-Copy-2" fill="#001CB0" points="1105.73741 104 1114.74092 110.752549 1103.03639 120.881373 1105.73741 104"></polyline>
                    <polyline id="Fill-340" fill="#F6A623" points="1136.59023 54 1143.29888 61.0462849 1135 63.777691 1136.59023 54"></polyline>
                    <polyline id="Fill-341" fill="#F6A623" points="1267.4649 120.732155 1274.17355 127.779791 1265.87467 130.507821 1267.4649 120.732155"></polyline>
                    <polyline id="Fill-566" fill="#F6A623" points="1350.584 87.8262688 1339 80.1452443 1341.79893 75.9249012 1350.584 81.7489747 1360.77022 74.9964257 1370.95306 81.7489747 1381.13928 74.9964257 1392.72666 82.6774502 1389.92772 86.8977933 1381.13928 81.0737198 1370.95306 87.8262688 1360.77022 81.0737198 1350.584 87.8262688"></polyline>
                </g>
            </g>
            <g id="Group-11-Copy" transform="translate(115.000000, 34.000000)">
                <path d="M52.9997169,81 C52.8476107,81 52.6931204,80.9685792 52.5441135,80.9057377 C51.9356886,80.6519547 51.6467345,79.9437792 51.8987349,79.327449 C54.1865268,73.7273037 54.1865268,67.5615847 51.8989733,61.9614394 C49.3670486,55.7667167 49.3670486,48.9411619 51.8987349,42.7464392 C52.1509738,42.130109 52.8480875,41.8376542 53.4562739,42.0914373 C54.0646988,42.3476373 54.3534145,43.0533958 54.1014141,43.669726 C51.8136222,49.2698713 51.8136222,55.4380072 54.1014141,61.0357356 C56.632862,67.2328753 56.632862,74.0560131 54.1014141,80.2531528 C53.9111621,80.7172132 53.4674793,81 52.9997169,81" id="Fill-156" fill="#CCCCCC"></path>
                <path d="M24.8627846,88 C24.4164901,88 23.9929426,87.7156946 23.8116497,87.2426692 C21.3961547,80.9609897 21.3961547,74.039623 23.8114222,67.7579435 C24.0520846,67.1329618 24.7174318,66.8339509 25.2977057,67.0937472 C25.877752,67.3535436 26.1534446,68.069209 25.9132372,68.6941907 C23.7302157,74.3729466 23.7302157,80.6276661 25.9130097,86.3039711 C26.1534446,86.9314037 25.8779795,87.6470691 25.2977057,87.9068655 C25.15531,87.9705891 25.00791,88 24.8627846,88" id="Fill-157" fill="#CCCCCC"></path>
                <path d="M72,22 C72,34.1513333 63.0456098,44 52,44 C40.9543902,44 32,34.1513333 32,22 C32,9.84866667 40.9543902,0 52,0 C63.0456098,0 72,9.84866667 72,22" id="Fill-158" fill="#50E3C2"></path>
                <path d="M32,21.4719491 C32,25.2199971 32.8933378,28.7413968 34.46234,31.8071139 C36.5207422,32.5801041 38.7318081,33 41.0344234,33 C52.0610218,33 61,23.3877241 61,11.5280509 C61,7.78000289 60.1066622,4.25860324 58.53766,1.19288606 C56.4792578,0.419895894 54.2681919,0 51.9655766,0 C40.9389782,0 32,9.61227588 32,21.4719491" id="Fill-159" fill="#6AF1D3"></path>
                <path d="M50,46 C50,44.3433269 51.1191058,43 52.5,43 C53.8806287,43 55,44.3433269 55,46 L50,46" id="Fill-160" fill="#50E3C2"></path>
                <path d="M48,42.0012091 C48,56.3584616 37.25496,68 24.0001225,68 C10.74504,68 0,56.3584616 0,42.0012091 C0,27.6415384 10.74504,16 24.0001225,16 C37.25496,16 48,27.6415384 48,42.0012091" id="Fill-161" fill="#001CB0"></path>
                <path d="M0,42.0275962 C0,46.5688695 1.07839899,50.839022 2.97174685,54.5548293 C5.45619707,55.4892278 8.12439821,56 10.9037847,56 C24.2118284,56 35,44.3466473 35,29.9724038 C35,25.4311305 33.921601,21.160978 32.0282532,17.4451707 C29.5440489,16.5107722 26.8756018,16 24.0964613,16 C10.7881716,16 0,27.6533527 0,42.0275962" id="Fill-162" fill="#243EC8"></path>
                <path d="M22,71 C22,69.3433198 23.1192106,68 24.5,68 C25.8805672,68 27,69.3433198 27,71 L22,71" id="Fill-163" fill="#001CB0"></path>
            </g>
        </g>
    </g>
</svg>