<?xml version="1.0" encoding="UTF-8"?>
<svg width="390px" height="166px" viewBox="0 0 390 166" version="1.1" xmlns="http://www.w3.org/2000/svg" xmlns:xlink="http://www.w3.org/1999/xlink">
    <!-- Generator: Sketch 47 (45396) - http://www.bohemiancoding.com/sketch -->
    <title>Desktop | Scenario 2A - 2.1b Copy</title>
    <desc>Created with Sketch.</desc>
    <defs></defs>
    <g id="Page-1" stroke="none" stroke-width="1" fill="none" fill-rule="evenodd">
        <g id="Desktop-|-Scenario-2A---2.1b-Copy">
            <g id="Group-13" transform="translate(3.000000, 4.000000)">
                <g id="Group-10">
                    <path d="M136.489965,130.96987 C137.5451,131.102385 138.351439,132.218238 138.135616,133.262645 C137.919793,134.303791 136.729768,134.993343 135.716599,135.004015 C134.424658,135.017948 133.279596,134.058031 132.068589,133.718591 C131.187312,133.471052 130.252078,133.409686 129.367803,133.668787 C127.128639,134.324246 126.400236,136.783035 127.281514,138.783802 C127.779106,139.906176 128.669376,140.724093 129.67655,141.400897 C130.683724,142.076812 131.984658,142.551435 132.683085,143.587244 C134.331734,146.028246 129.649572,145.312606 128.558467,145.134437 C126.67601,144.826422 124.499794,144.7781 122.99203,146.12489 C120.971686,147.929997 122.098762,150.155477 121.640138,152.398743 C121.181514,154.659797 118.085053,155.143906 116.18461,155.467041 C114.284168,155.790472 114.820729,158.707875 116.727166,158.383555 C120.614979,157.722166 124.787558,156.045126 124.664659,151.491298 C124.640678,150.601047 124.280973,149.139826 124.928442,148.406695 C125.521956,147.73671 126.741956,147.889976 127.533307,147.977727 C129.382791,148.182873 131.118368,148.67469 132.973847,148.145223 C134.77537,147.630283 136.124264,146.150385 136.013355,144.224324 C135.884461,142.007442 134.064953,140.59306 132.305395,139.527012 C131.508049,139.042903 129.796452,138.246924 129.892373,137.076821 C129.991292,135.858395 131.732864,136.737974 132.377336,137.024348 C134.379695,137.917564 136.286132,138.348311 138.336451,137.295307 C142.658907,135.074571 141.588785,128.625217 136.726771,128.013929 C134.814338,127.773208 134.577532,130.72915 136.489965,130.96987" id="Fill-260" fill="#F6A623"></path>
                    <polyline id="Fill-327" fill="#50E3C2" points="243.074141 78.0953013 233 79.6208531 233.184049 56 243.074141 78.0953013"></polyline>
                    <polyline id="Fill-329" fill="#001CB0" points="306.398034 26 314.391581 31.9290778 304 40.8226945 306.398034 26"></polyline>
                    <polyline id="Fill-329-Copy" fill="#001CB0" points="209.398034 92 217.391581 97.9290778 207 106.822695 209.398034 92"></polyline>
                    <polyline id="Fill-333" fill="#F6A623" points="281 91.6094395 288.427911 85 295.241026 96.8030152 281 91.6094395"></polyline>
                    <polyline id="Fill-334-Copy" fill="#F6A623" points="76 70.525118 83.2748315 64 89.9475372 75.6519128 76 70.525118"></polyline>
                    <polyline id="Fill-342-Copy" fill="#F6A623" points="16 128.865052 24.5930556 128 21.9950854 135.228435 16 128.865052"></polyline>
                    <polyline id="Fill-343-Copy" fill="#F6A623" transform="translate(231.466075, 131.688192) rotate(10.000000) translate(-231.466075, -131.688192) " points="217.900545 137.320371 207.615677 130.576935 210.10004 126.870668 217.900545 131.98509 226.943532 126.056013 235.986519 131.98509 245.030405 126.056309 255.316473 132.799449 252.832109 136.506012 245.030405 131.391293 235.986219 137.320371 226.943532 131.391293 217.900545 137.320371"></polyline>
                    <polyline id="Fill-345" fill="#50E3C2" points="121.637245 108.744326 119.152282 112.45 111.349678 107.33617 102.306092 113.265248 93.2655032 107.33617 89 110.13173 89 104.79556 93.2655032 102 102.306092 107.929078 111.349678 102 121.637245 108.744326"></polyline>
                    <path d="M232.953333,13.5998222 C229.162041,20.1805057 220.664308,22.4839524 214.010362,18.7344036 C207.356417,14.9851512 205.027626,6.58097991 208.818618,0 L213.506775,2.64170061 C211.188476,6.66576572 212.612608,11.8050904 216.681473,14.0981612 C220.750337,16.3909356 225.947177,14.9821867 228.265476,10.9581216 L232.953333,13.5998222" id="Fill-350" fill="#F6A623"></path>
                    <polyline id="Fill-330" fill="#50E3C2" points="270.951307 137.810989 266 127.703098 281.029148 124 270.951307 137.810989"></polyline>
                    <polyline id="Fill-331-Copy" fill="#50E3C2" points="381.260138 136 379.34579 147.091062 365 141.280493 381.260138 136"></polyline>
                    <polyline id="Fill-334-Copy-2" fill="#F6A623" points="0 40.5277417 8.36640825 33 16.0403426 46.4422994 0 40.5277417"></polyline>
                    <polyline id="Fill-338-Copy" fill="#001CB0" points="110.645355 18 119.463316 24.6661028 108 34.665257 110.645355 18"></polyline>
                    <path d="M54,117.486971 C49.729688,124.982301 40.1582874,127.605666 32.6636332,123.338055 C25.168979,119.067068 22.5456137,109.495329 26.8159257,102 L32.0964191,105.008598 C29.4848707,109.593241 31.0889388,115.444325 35.6722314,118.057562 C40.2551864,120.667422 46.1082959,119.063691 48.7195067,114.478711 L54,117.486971" id="Fill-352" fill="#50E3C2"></path>
                </g>
            </g>
            <g id="Group-11" transform="translate(124.000000, 34.000000)">
                <path d="M52.9997169,81 C52.8476107,81 52.6931204,80.9685792 52.5441135,80.9057377 C51.9356886,80.6519547 51.6467345,79.9437792 51.8987349,79.327449 C54.1865268,73.7273037 54.1865268,67.5615847 51.8989733,61.9614394 C49.3670486,55.7667167 49.3670486,48.9411619 51.8987349,42.7464392 C52.1509738,42.130109 52.8480875,41.8376542 53.4562739,42.0914373 C54.0646988,42.3476373 54.3534145,43.0533958 54.1014141,43.669726 C51.8136222,49.2698713 51.8136222,55.4380072 54.1014141,61.0357356 C56.632862,67.2328753 56.632862,74.0560131 54.1014141,80.2531528 C53.9111621,80.7172132 53.4674793,81 52.9997169,81" id="Fill-156" fill="#CCCCCC"></path>
                <path d="M24.8627846,88 C24.4164901,88 23.9929426,87.7156946 23.8116497,87.2426692 C21.3961547,80.9609897 21.3961547,74.039623 23.8114222,67.7579435 C24.0520846,67.1329618 24.7174318,66.8339509 25.2977057,67.0937472 C25.877752,67.3535436 26.1534446,68.069209 25.9132372,68.6941907 C23.7302157,74.3729466 23.7302157,80.6276661 25.9130097,86.3039711 C26.1534446,86.9314037 25.8779795,87.6470691 25.2977057,87.9068655 C25.15531,87.9705891 25.00791,88 24.8627846,88" id="Fill-157" fill="#CCCCCC"></path>
                <path d="M72,22 C72,34.1513333 63.0456098,44 52,44 C40.9543902,44 32,34.1513333 32,22 C32,9.84866667 40.9543902,0 52,0 C63.0456098,0 72,9.84866667 72,22" id="Fill-158" fill="#50E3C2"></path>
                <path d="M32,21.4719491 C32,25.2199971 32.8933378,28.7413968 34.46234,31.8071139 C36.5207422,32.5801041 38.7318081,33 41.0344234,33 C52.0610218,33 61,23.3877241 61,11.5280509 C61,7.78000289 60.1066622,4.25860324 58.53766,1.19288606 C56.4792578,0.419895894 54.2681919,0 51.9655766,0 C40.9389782,0 32,9.61227588 32,21.4719491" id="Fill-159" fill="#6AF1D3"></path>
                <path d="M50,46 C50,44.3433269 51.1191058,43 52.5,43 C53.8806287,43 55,44.3433269 55,46 L50,46" id="Fill-160" fill="#50E3C2"></path>
                <path d="M48,42.0012091 C48,56.3584616 37.25496,68 24.0001225,68 C10.74504,68 0,56.3584616 0,42.0012091 C0,27.6415384 10.74504,16 24.0001225,16 C37.25496,16 48,27.6415384 48,42.0012091" id="Fill-161" fill="#001CB0"></path>
                <path d="M0,42.0275962 C0,46.5688695 1.07839899,50.839022 2.97174685,54.5548293 C5.45619707,55.4892278 8.12439821,56 10.9037847,56 C24.2118284,56 35,44.3466473 35,29.9724038 C35,25.4311305 33.921601,21.160978 32.0282532,17.4451707 C29.5440489,16.5107722 26.8756018,16 24.0964613,16 C10.7881716,16 0,27.6533527 0,42.0275962" id="Fill-162" fill="#243EC8"></path>
                <path d="M22,71 C22,69.3433198 23.1192106,68 24.5,68 C25.8805672,68 27,69.3433198 27,71 L22,71" id="Fill-163" fill="#001CB0"></path>
            </g>
        </g>
    </g>
</svg>