<?xml version="1.0" encoding="UTF-8"?>
<svg width="45px" height="45px" viewBox="0 0 45 45" version="1.1" xmlns="http://www.w3.org/2000/svg" xmlns:xlink="http://www.w3.org/1999/xlink">
    <defs></defs>
    <g id="Symbols" stroke="none" stroke-width="1" fill="none" fill-rule="evenodd">
        <g id="btn/send_photo_idle">
            <g id="photo-icon">
                <g transform="translate(0.150391, 0.150391)">
                    <g id="icon/camera_idle" transform="translate(8.250000, 12.650000)" fill="#001CB0">
                        <path d="M13.6,10.2833333 L13.6,7.91666667 L15.2,7.91666667 L15.2,10.2833333 L17.5666667,10.2833333 L17.5666667,11.8833333 L15.2,11.8833333 L15.2,14.25 L13.6,14.25 L13.6,11.8833333 L11.2333333,11.8833333 L11.2333333,10.2833333 L13.6,10.2833333 Z M10.0832541,3.16666667 L11.1084026,-1.42108547e-14 L17.6915974,-1.59872116e-14 L18.7167459,3.16666667 L28,3.16666667 L28,19 L0,19 L0,3.16666667 L10.0832541,3.16666667 Z M14.4,16.625 C17.4927946,16.625 20,14.1439113 20,11.0833333 C20,8.02275534 17.4927946,5.54166667 14.4,5.54166667 C11.3072054,5.54166667 8.8,8.02275534 8.8,11.0833333 C8.8,14.1439113 11.3072054,16.625 14.4,16.625 Z M22.4,4.75 L22.4,7.125 L25.6,7.125 L25.6,4.75 L22.4,4.75 Z" id="Combined-Shape"></path>
                    </g>
                </g>
            </g>
        </g>
    </g>
</svg>