<?xml version="1.0" encoding="UTF-8"?>
<svg width="60px" height="60px" viewBox="0 0 60 60" version="1.1" xmlns="http://www.w3.org/2000/svg" xmlns:xlink="http://www.w3.org/1999/xlink">
    <!-- Generator: Sketch 46.2 (44496) - http://www.bohemiancoding.com/sketch -->
    <title>Group 6</title>
    <desc>Created with Sketch.</desc>
    <defs></defs>
    <g id="UI" stroke="none" stroke-width="1" fill="none" fill-rule="evenodd">
        <g id="mb/rewards-home-aniversaryoffer" transform="translate(-158.000000, -345.000000)" fill-rule="nonzero">
            <g id="Group-7-Copy-4" transform="translate(15.000000, 310.000000)">
                <g id="Group-6" transform="translate(143.000000, 35.000000)">
                    <path d="M52.5847078,23.1775122 C57.2982187,26.859761 60,31.7796121 60,36.6750167 C60,41.2190033 57.9077381,45.6392298 54.1069271,49.1182673 L54.105348,49.1182673 L52.827884,58.8311534 C52.7394563,59.4988474 52.1520438,60 51.457255,60 L47.8348785,60 C47.2616776,60 46.7469022,59.6562216 46.5432028,59.1382621 L44.6941169,54.4292618 C41.5580926,55.3414205 36.7356261,55.9785565 32.9648175,55.9785565 C29.921958,55.9785565 26.939103,55.5537992 24.098364,54.7165078 L22.1197947,59.188683 C21.9034627,59.680668 21.4028989,60 20.8502259,60 L16.9151944,60 C16.1525057,60 15.533512,59.4010616 15.533512,58.663084 L15.533512,50.4811577 C15.4308727,50.4169858 15.1782222,50.2641954 14.7724024,50.0288981 C7.04129705,45.5521393 2.6199133,42.3679872 1.63299728,40.5681162 C0.917680558,39.2602303 0.388693572,37.6375962 0.142359334,35.9966273 C0.00340155926,35.0722453 -0.157663134,33.3777997 0.32079375,32.4075807 C0.549758266,31.9415699 1.03453142,31.6451565 1.56825559,31.6451565 C3.72052204,31.6436286 5.34695964,31.367078 6.68442822,30.7711954 C7.77714162,28.4350301 9.47463722,26.4747292 11.5969014,25.0950318 C10.4662904,23.2202936 9.10987304,20.8948236 8.67878808,19.5686028 C8.56351635,19.2141292 8.60457202,18.8290973 8.79563895,18.5051816 C8.98670588,18.1827939 9.3072562,17.9505525 9.68149478,17.8649898 C10.5026089,17.6801134 11.3331975,17.5853834 12.1511534,17.5853834 C15.5729887,17.5853834 18.7484896,19.1499571 21.6081774,22.240907 C23.256722,20.4364523 26.8490963,17.7045599 33.6438157,17.400507 C34.1033238,17.3791164 34.567569,17.3684211 35.0270772,17.3684211 C41.5565135,17.3684211 47.7922437,19.4310915 52.5847078,23.1775122 Z M14.8592509,34.4656674 C16.2835682,34.4656674 17.4394442,33.4266926 17.4394442,32.1447812 C17.4394442,30.8628696 16.2835682,29.8238949 14.8592509,29.8238949 C13.4365128,29.8238949 12.2822159,30.8628696 12.2822159,32.1447812 C12.2822159,33.4266926 13.4365128,34.4656674 14.8592509,34.4656674 Z" id="Combined-Shape" fill="#001CB0"></path>
                    <path d="M26.4202581,15.5836891 C26.8156806,15.7355081 27.2597462,15.700237 27.625355,15.4886105 C27.6520304,15.4732753 30.37919,13.9198136 35.1148446,13.9198136 C38.6171577,13.9198136 42.2669697,14.772454 45.9638558,16.4516647 C46.1458757,16.5344751 46.3467251,16.5789474 46.5475746,16.5789474 C47.6240024,16.5789474 47.9205693,15.5836891 48.031978,15.2095088 C48.1182804,14.9181389 48.2139978,14.5347575 48.3018695,14.1299067 C48.4305387,13.5287645 48.6486486,12.3862878 48.6486486,11.4891752 C48.6486486,5.15418019 43.3747802,0 36.8926765,0 C30.4090036,0 25.1351351,5.15418019 25.1351351,11.4891752 C25.1351351,12.5841127 25.2936179,13.6683154 25.6058761,14.7111129 C25.7235614,15.1098296 26.0248356,15.4318701 26.4202581,15.5836891" id="Fill-1" fill="#00DFED"></path>
                </g>
            </g>
        </g>
    </g>
</svg>