<?xml version="1.0" encoding="UTF-8"?>
<svg width="22px" height="20px" viewBox="0 0 22 20" version="1.1" xmlns="http://www.w3.org/2000/svg" xmlns:xlink="http://www.w3.org/1999/xlink">
    <!-- Generator: Sketch 43.2 (39069) - http://www.bohemiancoding.com/sketch -->
    <title>plug_left_icon</title>
    <desc>Created with Sketch.</desc>
    <defs></defs>
    <g id="Page-1" stroke="none" stroke-width="1" fill="none" fill-rule="evenodd">
        <g id="plug_left_icon" fill="#FFE344">
            <path d="M3.84138964,16.15784 L7.58419902,16.15784 C10.5739021,16.15784 13.2685092,13.3051057 13.2685092,10.0266775 C13.2685256,9.70693647 13.249252,9.36626101 13.1803878,8.90568357 C13.0733148,8.18955708 12.8766842,7.48605727 12.5735885,6.84168352 C11.7036449,4.99220595 10.127189,3.90118673 7.45506059,3.8418134 L3.84138964,3.8418134 L3.84138964,16.15784 Z M3.84215999,1 L7.53395186,1 C11.3487929,1.0842689 13.8767819,2.83381649 15.1929492,5.63195429 C15.6235775,6.54745886 15.8933834,7.51276355 16.0388097,8.48540422 C16.1314416,9.10494586 16.1581999,9.5779169 16.1581769,10.0237368 C16.1581768,14.8567219 12.1119881,19 7.53395186,19 L3.84215999,19 C2.38585682,19 1.03137384,17.6201109 1.03138365,16.15784 L1,3.8418134 C1.00163982,2.38626101 2.13302331,1 3.84215999,1 Z M1,3.631871 L1.00000981,3.62659267 C1.00000058,3.62979645 1,3.63083366 1,3.631871 Z" id="socket_icon" fill-rule="nonzero" transform="translate(8.579088, 10.000000) scale(-1, 1) translate(-8.579088, -10.000000) "></path>
            <rect id="Rectangle" x="14.0475076" y="5" width="7.33251953" height="3" rx="1.5"></rect>
            <rect id="Rectangle-Copy" x="14.0475076" y="12" width="7.33251953" height="3" rx="1.5"></rect>
        </g>
    </g>
</svg>