<?xml version="1.0" encoding="UTF-8"?>
<svg width="33px" height="33px" viewBox="0 0 33 33" version="1.1" xmlns="http://www.w3.org/2000/svg" xmlns:xlink="http://www.w3.org/1999/xlink">
    <!-- Generator: Sketch 43.2 (39069) - http://www.bohemiancoding.com/sketch -->
    <title>question_tooltip_icon</title>
    <desc>Created with Sketch.</desc>
    <defs></defs>
    <g id="Page-1" stroke="none" stroke-width="1" fill="none" fill-rule="evenodd" opacity="0.5">
        <g id="question_tooltip_icon" fill="#FFFFFF">
            <g id="?" transform="translate(6.000000, 6.000000)">
                <path d="M10.5024383,19.2160442 C15.2712467,19.2127775 19.1750883,15.3938692 19.2117217,10.5732025 C19.24888,5.6814275 15.34743,1.85166917 10.6356717,1.78441083 C5.74337167,1.71458583 1.83171333,5.63849417 1.783705,10.4042692 C1.73453,15.2832108 5.67529667,19.2213525 10.5024383,19.2160442 M10.508155,-5.83333349e-06 C16.3054383,-5.83333349e-06 21.0190633,4.7226025 20.9998717,10.5116025 C20.9805633,16.3265025 16.2920217,21.0033775 10.4851717,20.9999942 C4.70288,20.9966108 0.001155,16.2934858 -1.16666664e-05,10.5116608 C-0.00117833333,4.70259417 4.69984667,-5.83333349e-06 10.508155,-5.83333349e-06" id="Fill-1"></path>
                <path d="M13.7783917,8.16652083 C13.7958333,8.84540417 13.4973417,9.39064583 13.0347,9.85060417 C12.63885,10.2441792 12.2231667,10.6185625 11.804625,10.9882208 C11.44115,11.3091708 11.1943417,11.6879292 11.1244583,12.1733792 C11.1162333,12.2307792 11.098675,12.2868958 11.08485,12.3434208 C10.9753,12.7915958 10.6882417,13.0067875 10.2431,12.9746458 C9.82531667,12.9445458 9.54280833,12.6681625 9.50535833,12.2317125 C9.43926667,11.4618292 9.695875,10.8062208 10.2473583,10.2719458 C10.6170167,9.91377917 11.0051083,9.5746875 11.3826417,9.2246875 C11.6272917,8.99782917 11.851175,8.75142917 11.9265417,8.41455417 C12.0700417,7.77329583 11.6566333,7.1446375 10.9845167,6.97290417 C10.627575,6.88172917 10.270925,6.90039583 9.9204,7.00755417 C9.69599167,7.07615417 9.51539167,7.21160417 9.37113333,7.39792083 C9.13564167,7.70207083 8.99564167,8.05230417 8.86730833,8.40977083 C8.82495833,8.52760417 8.775025,8.64619583 8.70741667,8.75084583 C8.49648333,9.07757083 8.12764167,9.1987875 7.75034167,9.07762917 C7.39515,8.9635875 7.12920833,8.61475417 7.14799167,8.25407917 C7.19075,7.43484583 7.584675,6.7963875 8.20831667,6.29209583 C8.97726667,5.67032083 9.87361667,5.46819583 10.8432333,5.52757917 C11.5261417,5.56940417 12.1645417,5.75122917 12.7215083,6.1592125 C13.397825,6.65469583 13.7638667,7.3208625 13.7783917,8.16652083" id="Fill-4"></path>
                <path d="M10.3902983,13.5859967 C10.9507067,13.5861133 11.37619,14.0140467 11.373565,14.5749217 C11.37094,15.1394717 10.9499483,15.564955 10.3900067,15.56898 C9.80900667,15.5730633 9.37739833,15.1502633 9.37687333,14.5766717 C9.376465,14.00483 9.80504,13.5858217 10.3902983,13.5859967" id="Fill-6"></path>
            </g>
        </g>
    </g>
</svg>