<?xml version="1.0" encoding="UTF-8" standalone="no"?>
<svg width="74px" height="74px" viewBox="0 0 74 74" version="1.1" xmlns="http://www.w3.org/2000/svg" xmlns:xlink="http://www.w3.org/1999/xlink">
    <!-- Generator: Sketch 42 (36781) - http://www.bohemiancoding.com/sketch -->
    <title>Safety icon</title>
    <desc>Created with Sketch.</desc>
    <defs></defs>
    <g id="Symbols" stroke="none" stroke-width="1" fill="none" fill-rule="evenodd">
        <g id="Safety-icon">
            <g>
                <circle id="Oval" fill="#F6A623" cx="37" cy="37" r="37"></circle>
                <g id="Group" transform="translate(32.000000, 17.000000)" fill="#FFFFFF">
                    <path d="M8.84689371,24.0294846 L1.25360842,24.0294846 C0.561139008,24.0294846 0,23.4683456 0,22.7758762 L0,1.25360842 C0,0.561139008 0.561139008,0 1.25360842,0 L8.84689371,0 C9.53936313,0 10.1005021,0.561139008 10.1005021,1.25360842 L10.1005021,22.7758762 C10.1005021,23.4683456 9.53936313,24.0294846 8.84689371,24.0294846" id="Fill-4-Copy"></path>
                    <path d="M7.10542736e-15,34.3885264 C7.10542736e-15,37.3653489 2.41170382,39.7770527 5.38852636,39.7770527 C8.36534889,39.7770527 10.7770527,37.3653489 10.7770527,34.3885264 C10.7770527,31.4117038 8.36534889,29 5.38852636,29 C2.41170382,29 7.10542736e-15,31.4117038 7.10542736e-15,34.3885264" id="Fill-6-Copy"></path>
                </g>
            </g>
        </g>
    </g>
</svg>