<?xml version="1.0" encoding="UTF-8"?>
<svg width="768px" height="170px" viewBox="0 0 768 170" version="1.1" xmlns="http://www.w3.org/2000/svg" xmlns:xlink="http://www.w3.org/1999/xlink">
    <!-- Generator: Sketch 44.1 (41455) - http://www.bohemiancoding.com/sketch -->
    <title>scc-houseonhill-importantinfo-mb-768px</title>
    <desc>Created with Sketch.</desc>
    <defs>
        <polygon id="path-1" points="0 170 768 170 768 0 0 0"></polygon>
        <linearGradient x1="50%" y1="100%" x2="50%" y2="28.8730469%" id="linearGradient-3">
            <stop stop-color="#001CB0" offset="0%"></stop>
            <stop stop-color="#001CB0" stop-opacity="0.8" offset="100%"></stop>
        </linearGradient>
    </defs>
    <g id="Page-1" stroke="none" stroke-width="1" fill="none" fill-rule="evenodd">
        <g id="scc-houseonhill-importantinfo-mb-768px">
            <rect id="Rectangle-Copy" fill="#FFFFFF" x="0" y="0" width="580" height="170"></rect>
            <g id="Group-102-Copy-2">
                <mask id="mask-2" fill="white">
                    <use xlink:href="#path-1"></use>
                </mask>
                <g id="Mask"></g>
                <g id="Group-102" mask="url(#mask-2)">
                    <g transform="translate(-109.000000, 0.000000)">
                        <g id="Group-41">
                            <circle id="Oval-9" fill="#FFE344" cx="724" cy="65" r="65"></circle>
                            <g id="Group-74" transform="translate(0.000000, 39.000000)">
                                <g id="Group-49-Copy">
                                    <g id="Group-49">
                                        <g id="Group-32">
                                            <path d="M985.27452,48.1591816 C985.27452,48.1591816 932.413692,10.8041966 833.035335,10.8041966 C733.656979,10.8041966 718.151136,35.472583 582.122606,35.472583 C446.094076,35.472583 427.064178,0.936842105 334.733932,0.936842105 C242.403686,0.936842105 218.44011,33.3581498 111.308833,33.3581498 L0,33.3581498 L0,60.2943616 L983.864898,59.4361583" id="Path-3" fill="#FFFFFF"></path>
                                            <path d="M985.27452,48.1591816 C985.27452,48.1591816 932.413692,10.8041966 833.035335,10.8041966 C733.656979,10.8041966 718.151136,35.472583 582.122606,35.472583 C446.094076,35.472583 427.064178,0.936842105 334.733932,0.936842105 C242.403686,0.936842105 218.44011,33.3581498 111.308833,33.3581498 L0,33.3581498 L0,60.2943616 L983.864898,59.4361583" id="Path-3" fill="#B3BBE7"></path>
                                            <path d="M57.8616027,50.92015 C57.8616027,50.92015 101.890254,19.8065694 184.66412,19.8065694 C267.437985,19.8065694 280.353056,40.3532736 393.653453,40.3532736 C506.95385,40.3532736 522.804165,11.5878878 599.707543,11.5878878 C676.610922,11.5878878 696.570577,38.5921275 785.801978,38.5921275 L878.512933,38.5921275 L878.90625,155.5 L59.0357001,160.5 L57.8616027,50.92015 Z" id="Path-3" fill="#001CB0"></path>
                                        </g>
                                    </g>
                                </g>
                            </g>
                        </g>
                        <g id="House-Copy-10" transform="translate(555.000000, 4.000000)">
                            <g id="Group-37">
                                <g id="Group-36">
                                    <polygon id="Fill-2" fill="#B3BBE7" points="6.4890803 53.6005015 84.3072289 53.6005015 84.3072289 25.3822617 6.4890803 25.3822617"></polygon>
                                    <polygon id="Fill-3" fill="#808ED7" points="40.8057456 53.6005015 84.3072289 53.6005015 84.3072289 25.3822617 40.8057456 25.3822617"></polygon>
                                    <polygon id="Fill-1" fill="#B3BBE7" points="0 27.8981413 23.6480481 27.8981413 47.2948259 27.8981413 23.6480481 2.85370339"></polygon>
                                    <polygon id="Fill-4" fill="#001CB0" points="18.4788884 58.3363754 28.5974328 58.3363754 28.5974328 36.4648335 18.4788884 36.4648335"></polygon>
                                    <polygon id="Fill-5" fill="#001CB0" points="49.2397714 44.0336049 59.3583158 44.0336049 59.3583158 33.9275317 49.2397714 33.9275317"></polygon>
                                    <polygon id="Fill-6" fill="#001CB0" points="65.7546586 44.0336049 75.873203 44.0336049 75.873203 33.9275317 65.7546586 33.9275317"></polygon>
                                    <polygon id="Fill-9" fill="#001CB0" points="64.9486051 2.85446458 88.5966532 27.8976338 47.2954611 27.8976338 23.6474129 2.85446458"></polygon>
                                    <polygon id="Fill-10" fill-opacity="0.5" fill="#F6A623" style="mix-blend-mode: multiply;" points="26.3690663 2.85446458 47.021568 24.7260065 85.6016149 24.7260065 64.9491133 2.85446458"></polygon>
                                    <g id="Group-33" transform="translate(26.066232, 0.000000)">
                                        <polygon id="Fill-12" fill="#FFFFFF" points="28.8821005 0.317162731 19.4305035 0.317162731 9.97763614 0.317162731 0.524768775 0.317162731 5.83875133 5.94362958 11.1514635 11.5700964 16.4641757 17.1978319 21.7768879 22.8230301 31.2297552 22.8230301 40.6813522 22.8230301 50.1342196 22.8230301 59.5858166 22.8230301 54.2731044 17.1978319 48.9603922 11.5700964 43.6476801 5.94362958 38.3336975 0.317162731"></polygon>
                                        <polygon id="Fill-12" fill="url(#linearGradient-3)" points="28.8821005 0.317162731 19.4305035 0.317162731 9.97763614 0.317162731 0.524768775 0.317162731 5.83875133 5.94362958 11.1514635 11.5700964 16.4641757 17.1978319 21.7768879 22.8230301 31.2297552 22.8230301 40.6813522 22.8230301 50.1342196 22.8230301 59.5858166 22.8230301 54.2731044 17.1978319 48.9603922 11.5700964 43.6476801 5.94362958 38.3336975 0.317162731"></polygon>
                                    </g>
                                    <path d="M46.5318381,11.887386 L51.2449328,16.8795274 L42.6673545,16.8795274 L37.9542597,11.887386 L46.5318381,11.887386 Z M41.2178555,6.25965052 L45.9322206,11.2530606 L37.3546423,11.2530606 L32.6402772,6.25965052 L41.2178555,6.25965052 Z M65.7094333,11.2530606 L60.9950682,6.25965052 L69.5726465,6.25965052 L74.288282,11.2530606 L65.7094333,11.2530606 Z M66.3090507,11.887386 L74.8866291,11.887386 L79.5997238,16.8795274 L71.0221454,16.8795274 L66.3090507,11.887386 Z M56.8574537,11.887386 L65.4350321,11.887386 L70.1481268,16.8795274 L61.5705485,16.8795274 L56.8574537,11.887386 Z M55.9834351,11.887386 L60.6965298,16.8795274 L52.1189515,16.8795274 L47.4058567,11.887386 L55.9834351,11.887386 Z M51.5434712,6.25965052 L60.1210495,6.25965052 L64.836685,11.2530606 L56.2578363,11.2530606 L51.5434712,6.25965052 Z M55.3838176,11.2530606 L46.8062393,11.2530606 L42.0918742,6.25965052 L50.6694525,6.25965052 L55.3838176,11.2530606 Z M64.2612047,0.634452327 L68.9742994,5.62532506 L60.3967211,5.62532506 L55.6836263,0.634452327 L64.2612047,0.634452327 Z M54.8096077,0.634452327 L59.5227024,5.62532506 L50.9451241,5.62532506 L46.2320294,0.634452327 L54.8096077,0.634452327 Z M45.3567403,0.634452327 L50.0711054,5.62532506 L41.4935271,5.62532506 L36.7804324,0.634452327 L45.3567403,0.634452327 Z M35.9051433,0.634452327 L40.6195085,5.62532506 L32.0419301,5.62532506 L27.3288354,0.634452327 L35.9051433,0.634452327 Z M47.981337,22.5059943 L43.2669719,17.5138529 L51.8445503,17.5138529 L56.5589154,22.5059943 L47.981337,22.5059943 Z M57.432934,22.5059943 L52.7185689,17.5138529 L61.2961472,17.5138529 L66.0105124,22.5059943 L57.432934,22.5059943 Z M66.884531,22.5059943 L62.1701659,17.5138529 L70.7477442,17.5138529 L75.4621094,22.5059943 L66.884531,22.5059943 Z M76.3348576,22.5059943 L71.6217629,17.5138529 L80.1993412,17.5138529 L84.9137063,22.5059943 L76.3348576,22.5059943 Z M85.9655776,22.8282316 C85.9655776,22.8256943 85.966848,22.8244256 85.966848,22.823157 C85.966848,22.7812915 85.9376294,22.7521125 85.9223848,22.7153217 C85.9084107,22.6785308 85.9109515,22.6366653 85.8804624,22.604949 L80.5639391,16.9746762 C80.5626688,16.9734076 80.5626688,16.9721389 80.560128,16.9708703 L75.2499566,11.3469407 L75.2486862,11.3456721 L69.9397851,5.72301118 C69.9372444,5.72174253 69.935974,5.71920523 69.9347036,5.71793658 L64.6296137,0.0990816372 C64.6283433,0.0990816372 64.6283433,0.0990816372 64.627073,0.0978129862 C64.5940432,0.0648280622 64.5432282,0.0572161567 64.498765,0.0407236947 C64.4657352,0.0280371854 64.4377869,0.00266416694 64.4034868,0.00139551602 C64.4022164,0.00139551602 64.400946,0.000126865092 64.3996757,0.000126865092 L26.5920173,0.000126865092 C26.5488245,0.000126865092 26.5196059,0.0293058363 26.4814946,0.0457982984 C26.4446537,0.0597534585 26.4040017,0.0584848076 26.3735127,0.0863951279 C26.3722423,0.0876637788 26.3735127,0.0889324298 26.3722423,0.0902010807 C26.3417533,0.120648703 26.3379421,0.166320136 26.3201569,0.204379664 C26.3061827,0.241170541 26.2769641,0.274155465 26.2756937,0.313483643 C26.2756937,0.314752294 26.2744233,0.316020945 26.2744233,0.317289596 C26.2744233,0.355349124 26.3023716,0.380722142 26.313805,0.413707066 C26.3290495,0.455572547 26.3277791,0.50124398 26.3608089,0.535497555 L36.9925851,11.7947745 L47.612928,23.0413649 L47.6141984,23.0413649 C47.6713653,23.1022602 47.751399,23.1403197 47.8415957,23.1403197 L85.649254,23.1403197 C85.7280173,23.1403197 85.8067806,23.1124094 85.8677587,23.0540515 C85.8690291,23.0527828 85.8677587,23.0515142 85.8690291,23.0502455 C85.9007885,23.0197979 85.9045996,22.9741264 85.9211145,22.9347983 C85.936359,22.8980074 85.9655776,22.8662911 85.9655776,22.8282316 L85.9655776,22.8282316 Z" id="Fill-13" fill="#99A4DF"></path>
                                </g>
                            </g>
                        </g>
                    </g>
                </g>
            </g>
        </g>
        <g id="Group-100-Copy-2" transform="translate(253.000000, 98.000000)">
            <circle id="Oval-2-Copy-4" fill="#FFFFFF" cx="28" cy="8" r="4"></circle>
            <circle id="Oval-2-Copy-4" fill="#FFFFFF" cx="126" cy="8" r="4"></circle>
            <circle id="Oval-2-Copy-4" fill="#FFE344" cx="224" cy="8" r="8"></circle>
            <path d="M1.9966796,30.4335938 L4.53964835,30.4335938 C5.71934175,30.4335938 6.57187229,30.605467 7.09726554,30.9492188 C7.62265879,31.2929705 7.88535148,31.8359338 7.88535148,32.578125 C7.88535148,33.0781275 7.75644652,33.494139 7.49863273,33.8261719 C7.24081894,34.1582048 6.8697289,34.3671871 6.38535148,34.453125 L6.38535148,34.5117188 C6.98691699,34.6250006 7.42929538,34.8486311 7.71249992,35.1826172 C7.99570446,35.5166032 8.1373046,35.9687471 8.1373046,36.5390625 C8.1373046,37.3085976 7.8687526,37.9111306 7.33164054,38.3466797 C6.79452848,38.7822287 6.04746564,39 5.0904296,39 L1.9966796,39 L1.9966796,30.4335938 Z M3.39707023,33.9726562 L4.74472648,33.9726562 C5.33066691,33.9726562 5.75839701,33.8798837 6.0279296,33.6943359 C6.2974622,33.5087881 6.43222648,33.1933616 6.43222648,32.7480469 C6.43222648,32.3457011 6.28672012,32.0546884 5.99570304,31.875 C5.70468596,31.6953116 5.24277652,31.6054688 4.60996085,31.6054688 L3.39707023,31.6054688 L3.39707023,33.9726562 Z M3.39707023,35.109375 L3.39707023,37.8222656 L4.88535148,37.8222656 C5.47129191,37.8222656 5.9136703,37.7099621 6.21249992,37.4853516 C6.51132954,37.2607411 6.6607421,36.9062524 6.6607421,36.421875 C6.6607421,35.9765603 6.50839988,35.6464854 6.20371085,35.4316406 C5.89902183,35.2167958 5.43613583,35.109375 4.81503898,35.109375 L3.39707023,35.109375 Z M15.5927734,39 L14.7373046,36.6210938 L11.461914,36.6210938 L10.6240234,39 L9.14746088,39 L12.352539,30.3984375 L13.8759765,30.3984375 L17.0810546,39 L15.5927734,39 Z M14.368164,35.4140625 L13.5654296,33.0820312 C13.5068356,32.9257805 13.4257817,32.6796892 13.3222656,32.34375 C13.2187494,32.0078108 13.1474611,31.7617195 13.1083984,31.6054688 C13.0029291,32.0859399 12.8486338,32.6113253 12.6455078,33.1816406 L11.8720703,35.4140625 L14.368164,35.4140625 Z M20.9330078,39 L19.5326172,39 L19.5326172,31.6347656 L17.0130859,31.6347656 L17.0130859,30.4335938 L23.452539,30.4335938 L23.452539,31.6347656 L20.9330078,31.6347656 L20.9330078,39 Z M28.5642578,39 L27.1638672,39 L27.1638672,31.6347656 L24.6443359,31.6347656 L24.6443359,30.4335938 L31.0837891,30.4335938 L31.0837891,31.6347656 L28.5642578,31.6347656 L28.5642578,39 Z M37.8419922,39 L32.9962891,39 L32.9962891,30.4335938 L37.8419922,30.4335938 L37.8419922,31.6171875 L34.3966797,31.6171875 L34.3966797,33.9492188 L37.6251953,33.9492188 L37.6251953,35.1210938 L34.3966797,35.1210938 L34.3966797,37.8105469 L37.8419922,37.8105469 L37.8419922,39 Z M41.6939453,34.4179688 L42.6666016,34.4179688 C43.3189486,34.4179688 43.7916001,34.2968762 44.0845703,34.0546875 C44.3775406,33.8124988 44.5240235,33.4531274 44.5240235,32.9765625 C44.5240235,32.4921851 44.3658219,32.1445323 44.0494141,31.9335938 C43.7330063,31.7226552 43.2564485,31.6171875 42.6197266,31.6171875 L41.6939453,31.6171875 L41.6939453,34.4179688 Z M41.6939453,35.578125 L41.6939453,39 L40.2935547,39 L40.2935547,30.4335938 L42.7134766,30.4335938 C43.8189509,30.4335938 44.6373021,30.6406229 45.1685547,31.0546875 C45.6998074,31.4687521 45.9654297,32.0937458 45.9654297,32.9296875 C45.9654297,33.9960991 45.4107478,34.7558571 44.3013672,35.2089844 L46.7212891,39 L45.1275391,39 L43.0767578,35.578125 L41.6939453,35.578125 Z M50.9833985,34.3417969 L53.0107422,30.4335938 L54.5341797,30.4335938 L51.6806641,35.6777344 L51.6806641,39 L50.2744141,39 L50.2744141,35.7246094 L47.4326172,30.4335938 L48.9560547,30.4335938 L50.9833985,34.3417969 Z M10.9205077,49.6347656 C10.9205077,51.0488352 10.5279335,52.1298791 9.74277335,52.8779297 C8.95761318,53.6259803 7.82676511,54 6.35019523,54 L3.95371085,54 L3.95371085,45.4335938 L6.60214835,45.4335938 C7.96543642,45.4335938 9.02597269,45.8007776 9.78378898,46.5351562 C10.5416053,47.2695349 10.9205077,48.3027277 10.9205077,49.6347656 Z M9.44394523,49.6816406 C9.44394523,47.6308491 8.48497044,46.6054688 6.5669921,46.6054688 L5.35410148,46.6054688 L5.35410148,52.8222656 L6.35019523,52.8222656 C8.41270554,52.8222656 9.44394523,51.7754011 9.44394523,49.6816406 Z M18.2060546,54 L13.3603515,54 L13.3603515,45.4335938 L18.2060546,45.4335938 L18.2060546,46.6171875 L14.7607421,46.6171875 L14.7607421,48.9492188 L17.9892578,48.9492188 L17.9892578,50.1210938 L14.7607421,50.1210938 L14.7607421,52.8105469 L18.2060546,52.8105469 L18.2060546,54 Z M23.6166015,54 L22.2162109,54 L22.2162109,46.6347656 L19.6966797,46.6347656 L19.6966797,45.4335938 L26.1361328,45.4335938 L26.1361328,46.6347656 L23.6166015,46.6347656 L23.6166015,54 Z M32.5251953,54 L31.6697266,51.6210938 L28.3943359,51.6210938 L27.5564453,54 L26.0798828,54 L29.2849609,45.3984375 L30.8083984,45.3984375 L34.0134766,54 L32.5251953,54 Z M31.3005859,50.4140625 L30.4978516,48.0820312 C30.4392575,47.9257805 30.3582036,47.6796892 30.2546875,47.34375 C30.1511713,47.0078108 30.079883,46.7617195 30.0408203,46.6054688 C29.935351,47.0859399 29.7810557,47.6113253 29.5779297,48.1816406 L28.8044922,50.4140625 L31.3005859,50.4140625 Z M35.7443359,54 L35.7443359,45.4335938 L37.1447266,45.4335938 L37.1447266,54 L35.7443359,54 Z M40.0064453,54 L40.0064453,45.4335938 L41.406836,45.4335938 L41.406836,52.7988281 L45.0337891,52.7988281 L45.0337891,54 L40.0064453,54 Z M52.0498047,51.6738281 C52.0498047,52.4355507 51.7744169,53.033201 51.2236329,53.4667969 C50.6728489,53.9003928 49.9130908,54.1171875 48.944336,54.1171875 C47.9755812,54.1171875 47.1826203,53.9667984 46.5654297,53.6660156 L46.5654297,52.3417969 C46.9560567,52.5253915 47.3710916,52.6699213 47.8105469,52.7753906 C48.2500023,52.8808599 48.6591779,52.9335938 49.038086,52.9335938 C49.5927763,52.9335938 50.0019519,52.8281261 50.2656251,52.6171875 C50.5292983,52.4062489 50.6611329,52.1230487 50.6611329,51.7675781 C50.6611329,51.447264 50.5400403,51.1757824 50.2978516,50.953125 C50.0556629,50.7304676 49.5556679,50.4667984 48.7978516,50.1621094 C48.0165977,49.8457015 47.465822,49.484377 47.1455079,49.078125 C46.8251938,48.671873 46.6650391,48.1835966 46.6650391,47.6132812 C46.6650391,46.8984339 46.9189428,46.3359396 47.4267579,45.9257812 C47.9345729,45.5156229 48.6162067,45.3105469 49.4716797,45.3105469 C50.2919963,45.3105469 51.1083944,45.4902326 51.9208985,45.8496094 L51.475586,46.9921875 C50.7138634,46.6718734 50.0341827,46.5117188 49.4365235,46.5117188 C48.9833962,46.5117188 48.6396497,46.6103506 48.4052735,46.8076172 C48.1708973,47.0048838 48.053711,47.2656234 48.053711,47.5898438 C48.053711,47.8125011 48.1005855,48.0029289 48.194336,48.1611328 C48.2880865,48.3193367 48.4423818,48.4687493 48.6572266,48.609375 C48.8720714,48.7500007 49.2587863,48.9355457 49.8173829,49.1660156 C50.4462923,49.4277357 50.9072252,49.6718739 51.2001954,49.8984375 C51.4931656,50.1250011 51.7080072,50.3808579 51.8447266,50.6660156 C51.9814461,50.9511733 52.0498047,51.2871074 52.0498047,51.6738281 Z" id="BATTERY-DETAILS" fill="#FFFFFF"></path>
            <path d="M108.340625,36.6738281 C108.340625,37.4355507 108.065237,38.033201 107.514453,38.4667969 C106.963669,38.9003928 106.203911,39.1171875 105.235156,39.1171875 C104.266401,39.1171875 103.473441,38.9667984 102.85625,38.6660156 L102.85625,37.3417969 C103.246877,37.5253915 103.661912,37.6699213 104.101367,37.7753906 C104.540822,37.8808599 104.949998,37.9335938 105.328906,37.9335938 C105.883596,37.9335938 106.292772,37.8281261 106.556445,37.6171875 C106.820118,37.4062489 106.951953,37.1230487 106.951953,36.7675781 C106.951953,36.447264 106.830861,36.1757824 106.588672,35.953125 C106.346483,35.7304676 105.846488,35.4667984 105.088672,35.1621094 C104.307418,34.8457015 103.756642,34.484377 103.436328,34.078125 C103.116014,33.671873 102.955859,33.1835966 102.955859,32.6132812 C102.955859,31.8984339 103.209763,31.3359396 103.717578,30.9257812 C104.225393,30.5156229 104.907027,30.3105469 105.7625,30.3105469 C106.582817,30.3105469 107.399215,30.4902326 108.211719,30.8496094 L107.766406,31.9921875 C107.004684,31.6718734 106.325003,31.5117188 105.727344,31.5117188 C105.274216,31.5117188 104.93047,31.6103506 104.696094,31.8076172 C104.461718,32.0048838 104.344531,32.2656234 104.344531,32.5898438 C104.344531,32.8125011 104.391406,33.0029289 104.485156,33.1611328 C104.578907,33.3193367 104.733202,33.4687493 104.948047,33.609375 C105.162892,33.7500007 105.549607,33.9355457 106.108203,34.1660156 C106.737112,34.4277357 107.198045,34.6718739 107.491016,34.8984375 C107.783986,35.1250011 107.998827,35.3808579 108.135547,35.6660156 C108.272266,35.9511733 108.340625,36.2871074 108.340625,36.6738281 Z M113.01875,34.3417969 L115.046094,30.4335938 L116.569531,30.4335938 L113.716016,35.6777344 L113.716016,39 L112.309766,39 L112.309766,35.7246094 L109.467969,30.4335938 L110.991406,30.4335938 L113.01875,34.3417969 Z M123.239844,36.6738281 C123.239844,37.4355507 122.964456,38.033201 122.413672,38.4667969 C121.862888,38.9003928 121.10313,39.1171875 120.134375,39.1171875 C119.16562,39.1171875 118.372659,38.9667984 117.755469,38.6660156 L117.755469,37.3417969 C118.146096,37.5253915 118.561131,37.6699213 119.000586,37.7753906 C119.440041,37.8808599 119.849217,37.9335938 120.228125,37.9335938 C120.782815,37.9335938 121.191991,37.8281261 121.455664,37.6171875 C121.719337,37.4062489 121.851172,37.1230487 121.851172,36.7675781 C121.851172,36.447264 121.730079,36.1757824 121.487891,35.953125 C121.245702,35.7304676 120.745707,35.4667984 119.987891,35.1621094 C119.206637,34.8457015 118.655861,34.484377 118.335547,34.078125 C118.015233,33.671873 117.855078,33.1835966 117.855078,32.6132812 C117.855078,31.8984339 118.108982,31.3359396 118.616797,30.9257812 C119.124612,30.5156229 119.806246,30.3105469 120.661719,30.3105469 C121.482035,30.3105469 122.298433,30.4902326 123.110937,30.8496094 L122.665625,31.9921875 C121.903902,31.6718734 121.224222,31.5117188 120.626562,31.5117188 C120.173435,31.5117188 119.829689,31.6103506 119.595312,31.8076172 C119.360936,32.0048838 119.24375,32.2656234 119.24375,32.5898438 C119.24375,32.8125011 119.290625,33.0029289 119.384375,33.1611328 C119.478125,33.3193367 119.632421,33.4687493 119.847266,33.609375 C120.06211,33.7500007 120.448825,33.9355457 121.007422,34.1660156 C121.636331,34.4277357 122.097264,34.6718739 122.390234,34.8984375 C122.683205,35.1250011 122.898046,35.3808579 123.034766,35.6660156 C123.171485,35.9511733 123.239844,36.2871074 123.239844,36.6738281 Z M128.457031,39 L127.056641,39 L127.056641,31.6347656 L124.537109,31.6347656 L124.537109,30.4335938 L130.976562,30.4335938 L130.976562,31.6347656 L128.457031,31.6347656 L128.457031,39 Z M137.734766,39 L132.889063,39 L132.889063,30.4335938 L137.734766,30.4335938 L137.734766,31.6171875 L134.289453,31.6171875 L134.289453,33.9492188 L137.517969,33.9492188 L137.517969,35.1210938 L134.289453,35.1210938 L134.289453,37.8105469 L137.734766,37.8105469 L137.734766,39 Z M143.889453,39 L141.405078,31.8457031 L141.358203,31.8457031 C141.42461,32.9082084 141.457813,33.9042922 141.457813,34.8339844 L141.457813,39 L140.186328,39 L140.186328,30.4335938 L142.160938,30.4335938 L144.539844,37.2480469 L144.575,37.2480469 L147.024219,30.4335938 L149.004688,30.4335938 L149.004688,39 L147.657031,39 L147.657031,34.7636719 C147.657031,34.3378885 147.667773,33.7832065 147.689258,33.0996094 C147.710742,32.4160122 147.729297,32.0019538 147.744922,31.8574219 L147.698047,31.8574219 L145.125781,39 L143.889453,39 Z M109.420508,49.6347656 C109.420508,51.0488352 109.027934,52.1298791 108.242773,52.8779297 C107.457613,53.6259803 106.326765,54 104.850195,54 L102.453711,54 L102.453711,45.4335938 L105.102148,45.4335938 C106.465436,45.4335938 107.525973,45.8007776 108.283789,46.5351562 C109.041605,47.2695349 109.420508,48.3027277 109.420508,49.6347656 Z M107.943945,49.6816406 C107.943945,47.6308491 106.98497,46.6054688 105.066992,46.6054688 L103.854101,46.6054688 L103.854101,52.8222656 L104.850195,52.8222656 C106.912706,52.8222656 107.943945,51.7754011 107.943945,49.6816406 Z M116.706055,54 L111.860352,54 L111.860352,45.4335938 L116.706055,45.4335938 L116.706055,46.6171875 L113.260742,46.6171875 L113.260742,48.9492188 L116.489258,48.9492188 L116.489258,50.1210938 L113.260742,50.1210938 L113.260742,52.8105469 L116.706055,52.8105469 L116.706055,54 Z M122.116602,54 L120.716211,54 L120.716211,46.6347656 L118.19668,46.6347656 L118.19668,45.4335938 L124.636133,45.4335938 L124.636133,46.6347656 L122.116602,46.6347656 L122.116602,54 Z M131.025195,54 L130.169727,51.6210938 L126.894336,51.6210938 L126.056445,54 L124.579883,54 L127.784961,45.3984375 L129.308398,45.3984375 L132.513477,54 L131.025195,54 Z M129.800586,50.4140625 L128.997852,48.0820312 C128.939258,47.9257805 128.858204,47.6796892 128.754687,47.34375 C128.651171,47.0078108 128.579883,46.7617195 128.54082,46.6054688 C128.435351,47.0859399 128.281056,47.6113253 128.07793,48.1816406 L127.304492,50.4140625 L129.800586,50.4140625 Z M134.244336,54 L134.244336,45.4335938 L135.644727,45.4335938 L135.644727,54 L134.244336,54 Z M138.506445,54 L138.506445,45.4335938 L139.906836,45.4335938 L139.906836,52.7988281 L143.533789,52.7988281 L143.533789,54 L138.506445,54 Z M150.549805,51.6738281 C150.549805,52.4355507 150.274417,53.033201 149.723633,53.4667969 C149.172849,53.9003928 148.413091,54.1171875 147.444336,54.1171875 C146.475581,54.1171875 145.68262,53.9667984 145.06543,53.6660156 L145.06543,52.3417969 C145.456057,52.5253915 145.871092,52.6699213 146.310547,52.7753906 C146.750002,52.8808599 147.159178,52.9335938 147.538086,52.9335938 C148.092776,52.9335938 148.501952,52.8281261 148.765625,52.6171875 C149.029298,52.4062489 149.161133,52.1230487 149.161133,51.7675781 C149.161133,51.447264 149.04004,51.1757824 148.797852,50.953125 C148.555663,50.7304676 148.055668,50.4667984 147.297852,50.1621094 C146.516598,49.8457015 145.965822,49.484377 145.645508,49.078125 C145.325194,48.671873 145.165039,48.1835966 145.165039,47.6132812 C145.165039,46.8984339 145.418943,46.3359396 145.926758,45.9257812 C146.434573,45.5156229 147.116207,45.3105469 147.97168,45.3105469 C148.791996,45.3105469 149.608394,45.4902326 150.420898,45.8496094 L149.975586,46.9921875 C149.213863,46.6718734 148.534183,46.5117188 147.936523,46.5117188 C147.483396,46.5117188 147.13965,46.6103506 146.905273,46.8076172 C146.670897,47.0048838 146.553711,47.2656234 146.553711,47.5898438 C146.553711,47.8125011 146.600586,48.0029289 146.694336,48.1611328 C146.788086,48.3193367 146.942382,48.4687493 147.157227,48.609375 C147.372071,48.7500007 147.758786,48.9355457 148.317383,49.1660156 C148.946292,49.4277357 149.407225,49.6718739 149.700195,49.8984375 C149.993166,50.1250011 150.208007,50.3808579 150.344727,50.6660156 C150.481446,50.9511733 150.549805,51.2871074 150.549805,51.6738281 Z" id="System-details" fill="#FFFFFF"></path>
            <path d="M187.775586,39 L187.775586,30.4335938 L189.175976,30.4335938 L189.175976,39 L187.775586,39 Z M195.74082,39 L193.256445,31.8457031 L193.20957,31.8457031 C193.275977,32.9082084 193.30918,33.9042922 193.30918,34.8339844 L193.30918,39 L192.037695,39 L192.037695,30.4335938 L194.012305,30.4335938 L196.391211,37.2480469 L196.426367,37.2480469 L198.875586,30.4335938 L200.856055,30.4335938 L200.856055,39 L199.508398,39 L199.508398,34.7636719 C199.508398,34.3378885 199.51914,33.7832065 199.540625,33.0996094 C199.562109,32.4160122 199.580664,32.0019538 199.596289,31.8574219 L199.549414,31.8574219 L196.977148,39 L195.74082,39 Z M209.383789,33.0234375 C209.383789,33.9179732 209.090823,34.6035132 208.504883,35.0800781 C207.918942,35.556643 207.084966,35.7949219 206.00293,35.7949219 L205.112305,35.7949219 L205.112305,39 L203.711914,39 L203.711914,30.4335938 L206.178711,30.4335938 C207.249029,30.4335938 208.050779,30.6523416 208.583984,31.0898438 C209.11719,31.5273459 209.383789,32.1718707 209.383789,33.0234375 Z M205.112305,34.6171875 L205.856445,34.6171875 C206.575199,34.6171875 207.102537,34.4921887 207.438477,34.2421875 C207.774416,33.9921863 207.942383,33.6015652 207.942383,33.0703125 C207.942383,32.5781225 207.791994,32.2109387 207.491211,31.96875 C207.190428,31.7265613 206.721683,31.6054688 206.084961,31.6054688 L205.112305,31.6054688 L205.112305,34.6171875 Z M219.300195,34.7050781 C219.300195,36.0996163 218.951566,37.1835899 218.254297,37.9570312 C217.557028,38.7304726 216.569733,39.1171875 215.292383,39.1171875 C213.999408,39.1171875 213.006253,38.7334023 212.312891,37.9658203 C211.619528,37.1982383 211.272852,36.1074289 211.272852,34.6933594 C211.272852,33.2792898 211.621481,32.1933632 212.31875,31.4355469 C213.016019,30.6777306 214.011126,30.2988281 215.304102,30.2988281 C216.577545,30.2988281 217.561911,30.6835899 218.257227,31.453125 C218.952543,32.2226601 219.300195,33.3066336 219.300195,34.7050781 Z M212.761133,34.7050781 C212.761133,35.7597709 212.974021,36.5595676 213.399805,37.1044922 C213.825588,37.6494168 214.456441,37.921875 215.292383,37.921875 C216.124418,37.921875 216.752342,37.6523464 217.176172,37.1132812 C217.600002,36.5742161 217.811914,35.7714897 217.811914,34.7050781 C217.811914,33.6542916 217.601955,32.8574246 217.182031,32.3144531 C216.762107,31.7714817 216.136137,31.5 215.304102,31.5 C214.464254,31.5 213.830471,31.7714817 213.402734,32.3144531 C212.974998,32.8574246 212.761133,33.6542916 212.761133,34.7050781 Z M223.14043,34.4179688 L224.113086,34.4179688 C224.765433,34.4179688 225.238084,34.2968762 225.531055,34.0546875 C225.824025,33.8124988 225.970508,33.4531274 225.970508,32.9765625 C225.970508,32.4921851 225.812306,32.1445323 225.495898,31.9335938 C225.179491,31.7226552 224.702933,31.6171875 224.066211,31.6171875 L223.14043,31.6171875 L223.14043,34.4179688 Z M223.14043,35.578125 L223.14043,39 L221.740039,39 L221.740039,30.4335938 L224.159961,30.4335938 C225.265435,30.4335938 226.083786,30.6406229 226.615039,31.0546875 C227.146292,31.4687521 227.411914,32.0937458 227.411914,32.9296875 C227.411914,33.9960991 226.857232,34.7558571 225.747852,35.2089844 L228.167773,39 L226.574023,39 L224.523242,35.578125 L223.14043,35.578125 Z M232.968945,39 L231.568555,39 L231.568555,31.6347656 L229.049023,31.6347656 L229.049023,30.4335938 L235.488477,30.4335938 L235.488477,31.6347656 L232.968945,31.6347656 L232.968945,39 Z M241.877539,39 L241.02207,36.6210938 L237.74668,36.6210938 L236.908789,39 L235.432227,39 L238.637305,30.3984375 L240.160742,30.3984375 L243.36582,39 L241.877539,39 Z M240.65293,35.4140625 L239.850195,33.0820312 C239.791601,32.9257805 239.710547,32.6796892 239.607031,32.34375 C239.503515,32.0078108 239.432227,31.7617195 239.393164,31.6054688 C239.287695,32.0859399 239.133399,32.6113253 238.930273,33.1816406 L238.156836,35.4140625 L240.65293,35.4140625 Z M252.233398,39 L250.516602,39 L246.303711,32.1738281 L246.256836,32.1738281 L246.286133,32.5546875 C246.340821,33.2812536 246.368164,33.9453095 246.368164,34.546875 L246.368164,39 L245.09668,39 L245.09668,30.4335938 L246.795898,30.4335938 L250.99707,37.2246094 L251.032227,37.2246094 C251.024414,37.1347652 251.008789,36.80762 250.985352,36.2431641 C250.961914,35.6787081 250.950195,35.2382828 250.950195,34.921875 L250.950195,30.4335938 L252.233398,30.4335938 L252.233398,39 Z M258.054102,39 L256.653711,39 L256.653711,31.6347656 L254.13418,31.6347656 L254.13418,30.4335938 L260.573633,30.4335938 L260.573633,31.6347656 L258.054102,31.6347656 L258.054102,39 Z M209.48457,54 L209.48457,45.4335938 L210.884961,45.4335938 L210.884961,54 L209.48457,54 Z M220.883398,54 L219.166602,54 L214.953711,47.1738281 L214.906836,47.1738281 L214.936133,47.5546875 C214.990821,48.2812536 215.018164,48.9453095 215.018164,49.546875 L215.018164,54 L213.74668,54 L213.74668,45.4335938 L215.445898,45.4335938 L219.64707,52.2246094 L219.682227,52.2246094 C219.674414,52.1347652 219.658789,51.80762 219.635352,51.2431641 C219.611914,50.6787081 219.600195,50.2382828 219.600195,49.921875 L219.600195,45.4335938 L220.883398,45.4335938 L220.883398,54 Z M225.133789,54 L223.745117,54 L223.745117,45.4335938 L228.579102,45.4335938 L228.579102,46.6171875 L225.133789,46.6171875 L225.133789,49.2949219 L228.362305,49.2949219 L228.362305,50.484375 L225.133789,50.484375 L225.133789,54 Z M238.337305,49.7050781 C238.337305,51.0996163 237.988675,52.1835899 237.291406,52.9570312 C236.594137,53.7304726 235.606842,54.1171875 234.329492,54.1171875 C233.036517,54.1171875 232.043363,53.7334023 231.35,52.9658203 C230.656637,52.1982383 230.309961,51.1074289 230.309961,49.6933594 C230.309961,48.2792898 230.65859,47.1933632 231.355859,46.4355469 C232.053129,45.6777306 233.048236,45.2988281 234.341211,45.2988281 C235.614655,45.2988281 236.59902,45.6835899 237.294336,46.453125 C237.989652,47.2226601 238.337305,48.3066336 238.337305,49.7050781 Z M231.798242,49.7050781 C231.798242,50.7597709 232.011131,51.5595676 232.436914,52.1044922 C232.862697,52.6494168 233.493551,52.921875 234.329492,52.921875 C235.161528,52.921875 235.789451,52.6523464 236.213281,52.1132812 C236.637112,51.5742161 236.849023,50.7714897 236.849023,49.7050781 C236.849023,48.6542916 236.639065,47.8574246 236.219141,47.3144531 C235.799217,46.7714817 235.173246,46.5 234.341211,46.5 C233.501363,46.5 232.86758,46.7714817 232.439844,47.3144531 C232.012107,47.8574246 231.798242,48.6542916 231.798242,49.7050781 Z" id="IMPORTANT-INFO" fill="#FFE344"></path>
            <path d="M43,8 L114,8" id="Line-Copy-2" stroke="#FFFFFF" stroke-linecap="square"></path>
            <path d="M138,8 L209,8" id="Line-Copy-4" stroke="#FFFFFF" stroke-linecap="square"></path>
        </g>
    </g>
</svg>