<?xml version="1.0" encoding="UTF-8"?>
<svg width="30px" height="31px" viewBox="0 0 30 31" version="1.1" xmlns="http://www.w3.org/2000/svg" xmlns:xlink="http://www.w3.org/1999/xlink">
    <!-- Generator: Sketch 44.1 (41455) - http://www.bohemiancoding.com/sketch -->
    <title>ssc-solarcircleblue</title>
    <desc>Created with Sketch.</desc>
    <defs>
        <polygon id="path-1-sb" points="14.99985 0 0 0 0 31 14.99985 31 29.9997 31 29.9997 0"></polygon>
    </defs>
    <g id="Symbols-sb" stroke="none" stroke-width="1" fill="none" fill-rule="evenodd">
        <g id="ssc-solarcircleblue" fill="#F6A623">
            <g id="Group-39-sb">
                <g id="Group-3-sb">
                    <mask id="mask-2-sb" fill="white">
                        <use xlink:href="#path-1-sb"></use>
                    </mask>
                    <g id="Clip-2-sb"></g>
                    <path d="M14.9997,31 C6.7057,31 -0.0003,24.0704667 -0.0003,15.5 C-0.0003,6.92953333 6.7057,0 14.9997,0 C23.2947,0 29.9997,6.92953333 29.9997,15.5 C29.9997,24.0704667 23.2947,31 14.9997,31" id="Fill-1-sb" fill="#001CB0" mask="url(#mask-2-sb)"></path>
                </g>
                <g id="Group-35-sb" transform="translate(4.000000, 9.000000)" fill="#FFFFFF">
                    <path d="M2.7526,3.53826 L7.7226,3.53826 L7.3506,6.36959333 L1.6356,6.36959333 L2.7526,3.53826 Z M13.0885,0.416043333 L13.3945,2.74104333 L8.6065,2.74104333 L8.9115,0.416043333 L13.0885,0.416043333 Z M13.8708,6.36928333 L8.1298,6.36928333 L8.5018,3.53795 L13.4988,3.53795 L13.8708,6.36928333 Z M8.0241,7.1665 L13.9751,7.1665 L14.4161,10.5176 L7.5841,10.5176 L8.0241,7.1665 Z M14.277,3.53826 L19.248,3.53826 L20.364,6.36959333 L14.649,6.36959333 L14.277,3.53826 Z M18.9333,2.74104333 L14.1723,2.74104333 L13.8673,0.416043333 L18.0163,0.416043333 L18.9333,2.74104333 Z M3.9841,0.416043333 L8.1331,0.416043333 L7.8281,2.74104333 L3.0671,2.74104333 L3.9841,0.416043333 Z M1.321,7.16701667 L7.246,7.16701667 L6.805,10.5170833 L0,10.5170833 L1.321,7.16701667 Z M15.195,10.51729 L14.755,7.16722333 L20.678,7.16722333 L22,10.51729 L15.195,10.51729 Z" id="Combined-Shape-sb"></path>
                </g>
            </g>
        </g>
    </g>
</svg>