<?xml version="1.0" encoding="UTF-8"?>
<svg width="30px" height="31px" viewBox="0 0 30 31" version="1.1" xmlns="http://www.w3.org/2000/svg" xmlns:xlink="http://www.w3.org/1999/xlink">
    <!-- Generator: Sketch 44.1 (41455) - http://www.bohemiancoding.com/sketch -->
    <title>ssc-lightningboltcircleblue</title>
    <desc>Created with Sketch.</desc>
    <defs>
        <polygon id="path-1" points="14.99985 0 0 0 0 31 14.99985 31 29.9997 31 29.9997 0"></polygon>
    </defs>
    <g id="Symbols" stroke="none" stroke-width="1" fill="none" fill-rule="evenodd">
        <g id="ssc-lightningboltcircleblue">
            <g id="Page-1-Copy-4">
                <g id="Group-3">
                    <mask id="mask-2" fill="white">
                        <use xlink:href="#path-1"></use>
                    </mask>
                    <g id="Clip-2"></g>
                    <path d="M14.9997,31 C6.7057,31 -0.0003,24.0704667 -0.0003,15.5 C-0.0003,6.92953333 6.7057,0 14.9997,0 C23.2947,0 29.9997,6.92953333 29.9997,15.5 C29.9997,24.0704667 23.2947,31 14.9997,31" id="Fill-1" fill="#001CB0" mask="url(#mask-2)"></path>
                </g>
                <path d="M20.2585,11.9363433 L16.1585,11.9363433 L20.4355,7.14064333 C20.5005,7.06727667 20.5185,6.95981 20.4805,6.86784333 C20.4425,6.77587667 20.3555,6.71697667 20.2585,6.71697667 L13.2975,6.73247667 C13.1975,6.73351 13.1095,6.79654333 13.0725,6.89367667 L9.8555,15.5023767 C9.8255,15.5798767 9.8365,15.66771 9.8815,15.7369433 C9.9275,15.8061767 10.0195,15.8433767 10.0835,15.8464767 L12.9275,15.8123767 L9.5205,23.92921 C9.4735,24.0418433 9.5105,24.17411 9.6095,24.2412767 C9.6495,24.27021 9.6955,24.2836433 9.7415,24.2836433 C9.8065,24.2836433 9.8705,24.25471 9.9185,24.20201 L20.4355,12.36001 C20.5005,12.2866433 20.5185,12.1791767 20.4805,12.08721 C20.4425,11.9952433 20.3555,11.9363433 20.2585,11.9363433" id="Fill-4" fill="#FFFFFF"></path>
            </g>
        </g>
    </g>
</svg>