<?xml version="1.0" encoding="UTF-8"?>
<svg width="580px" height="170px" viewBox="0 0 580 170" version="1.1" xmlns="http://www.w3.org/2000/svg" xmlns:xlink="http://www.w3.org/1999/xlink">
    <!-- Generator: Sketch 44.1 (41455) - http://www.bohemiancoding.com/sketch -->
    <title>scc-houseonhill-intro-mb</title>
    <desc>Created with Sketch.</desc>
    <defs>
        <polygon id="path-1" points="0 170 768 170 768 0 0 0"></polygon>
        <linearGradient x1="50%" y1="100%" x2="50%" y2="28.8730469%" id="linearGradient-3">
            <stop stop-color="#001CB0" offset="0%"></stop>
            <stop stop-color="#001CB0" stop-opacity="0.8" offset="100%"></stop>
        </linearGradient>
    </defs>
    <g id="Page-1" stroke="none" stroke-width="1" fill="none" fill-rule="evenodd">
        <g id="scc-houseonhill-intro-mb">
            <rect id="Rectangle-Copy" fill="#FFFFFF" x="0" y="0" width="580" height="170"></rect>
            <g id="Group-102-Copy-2" transform="translate(-94.000000, 0.000000)">
                <mask id="mask-2" fill="white">
                    <use xlink:href="#path-1"></use>
                </mask>
                <g id="Mask"></g>
                <g id="Group-102" mask="url(#mask-2)">
                    <g transform="translate(-109.000000, 0.000000)">
                        <g id="Group-41">
                            <circle id="Oval-9" fill="#FFE344" cx="724" cy="65" r="65"></circle>
                            <g id="Group-74" transform="translate(0.000000, 39.000000)">
                                <g id="Group-49-Copy">
                                    <g id="Group-49">
                                        <g id="Group-32">
                                            <path d="M985.27452,48.1591816 C985.27452,48.1591816 932.413692,10.8041966 833.035335,10.8041966 C733.656979,10.8041966 718.151136,35.472583 582.122606,35.472583 C446.094076,35.472583 427.064178,0.936842105 334.733932,0.936842105 C242.403686,0.936842105 218.44011,33.3581498 111.308833,33.3581498 L0,33.3581498 L0,60.2943616 L983.864898,59.4361583" id="Path-3" fill="#FFFFFF"></path>
                                            <path d="M985.27452,48.1591816 C985.27452,48.1591816 932.413692,10.8041966 833.035335,10.8041966 C733.656979,10.8041966 718.151136,35.472583 582.122606,35.472583 C446.094076,35.472583 427.064178,0.936842105 334.733932,0.936842105 C242.403686,0.936842105 218.44011,33.3581498 111.308833,33.3581498 L0,33.3581498 L0,60.2943616 L983.864898,59.4361583" id="Path-3" fill="#B3BBE7"></path>
                                            <path d="M57.8616027,50.92015 C57.8616027,50.92015 101.890254,19.8065694 184.66412,19.8065694 C267.437985,19.8065694 280.353056,40.3532736 393.653453,40.3532736 C506.95385,40.3532736 522.804165,11.5878878 599.707543,11.5878878 C676.610922,11.5878878 696.570577,38.5921275 785.801978,38.5921275 L878.512933,38.5921275 L878.90625,155.5 L59.0357001,160.5 L57.8616027,50.92015 Z" id="Path-3" fill="#001CB0"></path>
                                        </g>
                                    </g>
                                </g>
                            </g>
                        </g>
                        <g id="House-Copy-10" transform="translate(555.000000, 4.000000)">
                            <g id="Group-37">
                                <g id="Group-36">
                                    <polygon id="Fill-2" fill="#B3BBE7" points="6.4890803 53.6005015 84.3072289 53.6005015 84.3072289 25.3822617 6.4890803 25.3822617"></polygon>
                                    <polygon id="Fill-3" fill="#808ED7" points="40.8057456 53.6005015 84.3072289 53.6005015 84.3072289 25.3822617 40.8057456 25.3822617"></polygon>
                                    <polygon id="Fill-1" fill="#B3BBE7" points="0 27.8981413 23.6480481 27.8981413 47.2948259 27.8981413 23.6480481 2.85370339"></polygon>
                                    <polygon id="Fill-4" fill="#001CB0" points="18.4788884 58.3363754 28.5974328 58.3363754 28.5974328 36.4648335 18.4788884 36.4648335"></polygon>
                                    <polygon id="Fill-5" fill="#001CB0" points="49.2397714 44.0336049 59.3583158 44.0336049 59.3583158 33.9275317 49.2397714 33.9275317"></polygon>
                                    <polygon id="Fill-6" fill="#001CB0" points="65.7546586 44.0336049 75.873203 44.0336049 75.873203 33.9275317 65.7546586 33.9275317"></polygon>
                                    <polygon id="Fill-9" fill="#001CB0" points="64.9486051 2.85446458 88.5966532 27.8976338 47.2954611 27.8976338 23.6474129 2.85446458"></polygon>
                                    <polygon id="Fill-10" fill-opacity="0.5" fill="#F6A623" style="mix-blend-mode: multiply;" points="26.3690663 2.85446458 47.021568 24.7260065 85.6016149 24.7260065 64.9491133 2.85446458"></polygon>
                                    <g id="Group-33" transform="translate(26.066232, 0.000000)">
                                        <polygon id="Fill-12" fill="#FFFFFF" points="28.8821005 0.317162731 19.4305035 0.317162731 9.97763614 0.317162731 0.524768775 0.317162731 5.83875133 5.94362958 11.1514635 11.5700964 16.4641757 17.1978319 21.7768879 22.8230301 31.2297552 22.8230301 40.6813522 22.8230301 50.1342196 22.8230301 59.5858166 22.8230301 54.2731044 17.1978319 48.9603922 11.5700964 43.6476801 5.94362958 38.3336975 0.317162731"></polygon>
                                        <polygon id="Fill-12" fill="url(#linearGradient-3)" points="28.8821005 0.317162731 19.4305035 0.317162731 9.97763614 0.317162731 0.524768775 0.317162731 5.83875133 5.94362958 11.1514635 11.5700964 16.4641757 17.1978319 21.7768879 22.8230301 31.2297552 22.8230301 40.6813522 22.8230301 50.1342196 22.8230301 59.5858166 22.8230301 54.2731044 17.1978319 48.9603922 11.5700964 43.6476801 5.94362958 38.3336975 0.317162731"></polygon>
                                    </g>
                                    <path d="M46.5318381,11.887386 L51.2449328,16.8795274 L42.6673545,16.8795274 L37.9542597,11.887386 L46.5318381,11.887386 Z M41.2178555,6.25965052 L45.9322206,11.2530606 L37.3546423,11.2530606 L32.6402772,6.25965052 L41.2178555,6.25965052 Z M65.7094333,11.2530606 L60.9950682,6.25965052 L69.5726465,6.25965052 L74.288282,11.2530606 L65.7094333,11.2530606 Z M66.3090507,11.887386 L74.8866291,11.887386 L79.5997238,16.8795274 L71.0221454,16.8795274 L66.3090507,11.887386 Z M56.8574537,11.887386 L65.4350321,11.887386 L70.1481268,16.8795274 L61.5705485,16.8795274 L56.8574537,11.887386 Z M55.9834351,11.887386 L60.6965298,16.8795274 L52.1189515,16.8795274 L47.4058567,11.887386 L55.9834351,11.887386 Z M51.5434712,6.25965052 L60.1210495,6.25965052 L64.836685,11.2530606 L56.2578363,11.2530606 L51.5434712,6.25965052 Z M55.3838176,11.2530606 L46.8062393,11.2530606 L42.0918742,6.25965052 L50.6694525,6.25965052 L55.3838176,11.2530606 Z M64.2612047,0.634452327 L68.9742994,5.62532506 L60.3967211,5.62532506 L55.6836263,0.634452327 L64.2612047,0.634452327 Z M54.8096077,0.634452327 L59.5227024,5.62532506 L50.9451241,5.62532506 L46.2320294,0.634452327 L54.8096077,0.634452327 Z M45.3567403,0.634452327 L50.0711054,5.62532506 L41.4935271,5.62532506 L36.7804324,0.634452327 L45.3567403,0.634452327 Z M35.9051433,0.634452327 L40.6195085,5.62532506 L32.0419301,5.62532506 L27.3288354,0.634452327 L35.9051433,0.634452327 Z M47.981337,22.5059943 L43.2669719,17.5138529 L51.8445503,17.5138529 L56.5589154,22.5059943 L47.981337,22.5059943 Z M57.432934,22.5059943 L52.7185689,17.5138529 L61.2961472,17.5138529 L66.0105124,22.5059943 L57.432934,22.5059943 Z M66.884531,22.5059943 L62.1701659,17.5138529 L70.7477442,17.5138529 L75.4621094,22.5059943 L66.884531,22.5059943 Z M76.3348576,22.5059943 L71.6217629,17.5138529 L80.1993412,17.5138529 L84.9137063,22.5059943 L76.3348576,22.5059943 Z M85.9655776,22.8282316 C85.9655776,22.8256943 85.966848,22.8244256 85.966848,22.823157 C85.966848,22.7812915 85.9376294,22.7521125 85.9223848,22.7153217 C85.9084107,22.6785308 85.9109515,22.6366653 85.8804624,22.604949 L80.5639391,16.9746762 C80.5626688,16.9734076 80.5626688,16.9721389 80.560128,16.9708703 L75.2499566,11.3469407 L75.2486862,11.3456721 L69.9397851,5.72301118 C69.9372444,5.72174253 69.935974,5.71920523 69.9347036,5.71793658 L64.6296137,0.0990816372 C64.6283433,0.0990816372 64.6283433,0.0990816372 64.627073,0.0978129862 C64.5940432,0.0648280622 64.5432282,0.0572161567 64.498765,0.0407236947 C64.4657352,0.0280371854 64.4377869,0.00266416694 64.4034868,0.00139551602 C64.4022164,0.00139551602 64.400946,0.000126865092 64.3996757,0.000126865092 L26.5920173,0.000126865092 C26.5488245,0.000126865092 26.5196059,0.0293058363 26.4814946,0.0457982984 C26.4446537,0.0597534585 26.4040017,0.0584848076 26.3735127,0.0863951279 C26.3722423,0.0876637788 26.3735127,0.0889324298 26.3722423,0.0902010807 C26.3417533,0.120648703 26.3379421,0.166320136 26.3201569,0.204379664 C26.3061827,0.241170541 26.2769641,0.274155465 26.2756937,0.313483643 C26.2756937,0.314752294 26.2744233,0.316020945 26.2744233,0.317289596 C26.2744233,0.355349124 26.3023716,0.380722142 26.313805,0.413707066 C26.3290495,0.455572547 26.3277791,0.50124398 26.3608089,0.535497555 L36.9925851,11.7947745 L47.612928,23.0413649 L47.6141984,23.0413649 C47.6713653,23.1022602 47.751399,23.1403197 47.8415957,23.1403197 L85.649254,23.1403197 C85.7280173,23.1403197 85.8067806,23.1124094 85.8677587,23.0540515 C85.8690291,23.0527828 85.8677587,23.0515142 85.8690291,23.0502455 C85.9007885,23.0197979 85.9045996,22.9741264 85.9211145,22.9347983 C85.936359,22.8980074 85.9655776,22.8662911 85.9655776,22.8282316 L85.9655776,22.8282316 Z" id="Fill-13" fill="#99A4DF"></path>
                                </g>
                            </g>
                        </g>
                    </g>
                </g>
            </g>
        </g>
    </g>
</svg>