<?xml version="1.0" encoding="UTF-8" standalone="no"?>
<svg width="125px" height="91px" viewBox="0 0 125 91" version="1.1" xmlns="http://www.w3.org/2000/svg" xmlns:xlink="http://www.w3.org/1999/xlink">
    <!-- Generator: Sketch 43.2 (39069) - http://www.bohemiancoding.com/sketch -->
    <title>scc-solarhousequestion</title>
    <desc>Created with Sketch.</desc>
    <defs>
        <linearGradient x1="50%" y1="100%" x2="50%" y2="28.8730469%" id="linearGradient-1">
            <stop stop-color="#001CB0" offset="0%"></stop>
            <stop stop-color="#001CB0" stop-opacity="0.8" offset="100%"></stop>
        </linearGradient>
    </defs>
    <g id="Symbols" stroke="none" stroke-width="1" fill="none" fill-rule="evenodd">
        <g id="scc-solarhousequestion">
            <g id="Group-30">
                <g id="Group-4" transform="translate(0.000000, 29.580153)">
                    <g id="House-Copy-7">
                        <g id="Group-37">
                            <g id="Group-36">
                                <polygon id="Fill-2" fill="#B3BBE7" points="6.19187052 51.1455167 38.9367801 51.1455167 38.9367801 24.2197153 6.19187052 24.2197153"></polygon>
                                <polygon id="Fill-3" fill="#808ED7" points="38.9367801 51.1455167 80.4458291 51.1455167 80.4458291 24.2197153 38.9367801 24.2197153"></polygon>
                                <polygon id="Fill-1" fill="#B3BBE7" points="0 26.6203638 22.5649314 26.6203638 45.1286506 26.6203638 22.5649314 2.72299942"></polygon>
                                <polygon id="Fill-4" fill="#001CB0" points="17.6325271 51.1455167 27.2876267 51.1455167 27.2876267 34.7946885 17.6325271 34.7946885"></polygon>
                                <polygon id="Fill-5" fill="#001CB0" points="46.9845147 42.0167986 56.6396143 42.0167986 56.6396143 32.3735989 46.9845147 32.3735989"></polygon>
                                <polygon id="Fill-6" fill="#001CB0" points="62.7429949 42.0167986 72.3980945 42.0167986 72.3980945 32.3735989 62.7429949 32.3735989"></polygon>
                                <polygon id="Fill-9" fill="#001CB0" points="61.9738598 2.72372574 84.5387913 26.6198796 45.1292567 26.6198796 22.5643253 2.72372574"></polygon>
                                <polygon id="Fill-10" fill-opacity="0.5" fill="#F6A623" style="mix-blend-mode: multiply;" points="25.1613228 2.72372574 44.8679084 23.5935177 81.6809303 23.5935177 61.9743447 2.72372574"></polygon>
                                <g id="Group-33" transform="translate(24.872359, 0.000000)">
                                    <polygon id="Fill-12" fill="#FFFFFF" points="27.5592562 0.302636194 18.5405568 0.302636194 9.52064518 0.302636194 0.500733564 0.302636194 5.57132761 5.67140227 10.6407095 11.0401683 15.7100913 16.410145 20.7794732 21.7777005 29.7993848 21.7777005 38.8180842 21.7777005 47.8379958 21.7777005 56.8566952 21.7777005 51.7873134 16.410145 46.7179315 11.0401683 41.6485497 5.67140227 36.5779556 0.302636194"></polygon>
                                    <polygon id="Fill-12" fill="url(#linearGradient-1)" points="27.5592562 0.302636194 18.5405568 0.302636194 9.52064518 0.302636194 0.500733564 0.302636194 5.57132761 5.67140227 10.6407095 11.0401683 15.7100913 16.410145 20.7794732 21.7777005 29.7993848 21.7777005 38.8180842 21.7777005 47.8379958 21.7777005 56.8566952 21.7777005 51.7873134 16.410145 46.7179315 11.0401683 41.6485497 5.67140227 36.5779556 0.302636194"></polygon>
                                </g>
                                <path d="M44.4006089,11.3429256 L48.8978367,16.1064193 L40.7131245,16.1064193 L36.2158967,11.3429256 L44.4006089,11.3429256 Z M39.3300148,5.97294897 L43.8284548,10.7376532 L35.6437426,10.7376532 L31.1453026,5.97294897 L39.3300148,5.97294897 Z M62.6998409,10.7376532 L58.2014009,5.97294897 L66.3861131,5.97294897 L70.8857653,10.7376532 L62.6998409,10.7376532 Z M63.2719949,11.3429256 L71.4567071,11.3429256 L75.9539349,16.1064193 L67.7692228,16.1064193 L63.2719949,11.3429256 Z M54.2532955,11.3429256 L62.4380077,11.3429256 L66.9352355,16.1064193 L58.7505233,16.1064193 L54.2532955,11.3429256 Z M53.4193083,11.3429256 L57.9165361,16.1064193 L49.7318239,16.1064193 L45.2345961,11.3429256 L53.4193083,11.3429256 Z M49.1827015,5.97294897 L57.3674136,5.97294897 L61.8670658,10.7376532 L53.6811415,10.7376532 L49.1827015,5.97294897 Z M52.8471542,10.7376532 L44.6624421,10.7376532 L40.1640021,5.97294897 L48.3487142,5.97294897 L52.8471542,10.7376532 Z M61.3179434,0.605393442 L65.8151712,5.36767659 L57.630459,5.36767659 L53.1332312,0.605393442 L61.3179434,0.605393442 Z M52.299244,0.605393442 L56.7964718,5.36767659 L48.6117596,5.36767659 L44.1145318,0.605393442 L52.299244,0.605393442 Z M43.2793324,0.605393442 L47.7777724,5.36767659 L39.5930602,5.36767659 L35.0958324,0.605393442 L43.2793324,0.605393442 Z M34.260633,0.605393442 L38.7590729,5.36767659 L30.5743608,5.36767659 L26.077133,0.605393442 L34.260633,0.605393442 Z M45.7837185,21.4751854 L41.2852785,16.7116917 L49.4699907,16.7116917 L53.9684307,21.4751854 L45.7837185,21.4751854 Z M54.802418,21.4751854 L50.303978,16.7116917 L58.4886901,16.7116917 L62.9871301,21.4751854 L54.802418,21.4751854 Z M63.8211174,21.4751854 L59.3226774,16.7116917 L67.5073895,16.7116917 L72.0058295,21.4751854 L63.8211174,21.4751854 Z M72.8386046,21.4751854 L68.3413768,16.7116917 L76.526089,16.7116917 L81.024529,21.4751854 L72.8386046,21.4751854 Z M82.0282229,21.7826637 C82.0282229,21.7802426 82.0294351,21.7790321 82.0294351,21.7778216 C82.0294351,21.7378736 82.0015547,21.710031 81.9870084,21.6749252 C81.9736743,21.6398194 81.9760987,21.5998715 81.9470061,21.5696079 L76.8739877,16.1972101 C76.8727755,16.1959996 76.8727755,16.1947891 76.8703511,16.1935785 L71.8033937,10.8272335 L71.8021815,10.826023 L66.7364362,5.46088853 C66.7340118,5.45967799 66.7327996,5.4572569 66.7315874,5.45604635 L61.6694787,0.0945435469 C61.6682665,0.0945435469 61.6682665,0.0945435469 61.6670544,0.0933330021 C61.6355374,0.061858838 61.5870498,0.0545955693 61.5446231,0.0388584873 C61.5131061,0.0267530395 61.4864379,0.00254214403 61.4537088,0.00133159925 C61.4524966,0.00133159925 61.4512844,0.000121054477 61.4500722,0.000121054477 L25.3740623,0.000121054477 C25.3328478,0.000121054477 25.3049675,0.0279635843 25.2686017,0.0437006664 C25.2334482,0.0570166589 25.1946581,0.0558061141 25.1655655,0.0824380992 C25.1643533,0.0836486439 25.1655655,0.0848591887 25.1643533,0.0860697335 C25.1352607,0.115122808 25.1316242,0.15870242 25.1146535,0.195018763 C25.1013194,0.230124562 25.073439,0.261598726 25.0722268,0.299125614 C25.0722268,0.300336159 25.0710146,0.301546703 25.0710146,0.302757248 C25.0710146,0.339073591 25.0976828,0.363284487 25.1085926,0.394758651 C25.1231388,0.434706629 25.1219266,0.478286241 25.1534436,0.510970949 L35.2982683,11.2545558 L45.4321832,21.9860353 L45.4333954,21.9860353 C45.487944,22.0441414 45.564312,22.0804577 45.6503775,22.0804577 L81.7263874,22.0804577 C81.8015432,22.0804577 81.8766991,22.0538258 81.9348842,21.9981407 C81.9360964,21.9969302 81.9348842,21.9957196 81.9360964,21.9945091 C81.9664012,21.965456 81.9700378,21.9218764 81.9857962,21.8843495 C82.0003425,21.8492437 82.0282229,21.8189801 82.0282229,21.7826637 L82.0282229,21.7826637 Z" id="Fill-13" fill="#99A4DF"></path>
                            </g>
                        </g>
                    </g>
                </g>
                <circle id="ico_success-copy-5" fill="#001CB0" cx="101.145038" cy="23.8549618" r="23.8549618"></circle>
                <polygon id="Fill-7" fill="#333333" opacity="0.2" style="mix-blend-mode: multiply;" points="89.3635263 90.4324153 50.0186185 90.4324153 13.6980078 85.5951371 19.8797244 85.5951371 5.72519084 80.629771 79.856172 80.629771 94.0119158 85.5951371 98.097561 85.5951371"></polygon>
                <g id="Group-27" transform="translate(93.511450, 11.450382)" fill="#FFFFFF">
                    <path d="M0,5.08587786 L3.87200109,7.31665758 C4.5610687,5.5445747 5.84242094,4.39612868 7.77671756,4.39612868 C9.68102508,4.39612868 10.7633588,5.28217012 10.7633588,6.79252999 C10.7633588,10.0402126 5.25013631,11.3863141 5.25013631,15.7163304 L9.77780807,15.7163304 C9.77780807,12.8291985 15.2917121,11.3863141 15.2917121,6.46401309 C15.2917121,2.23077972 11.6487186,0 7.94097601,0 C4.46360414,0 1.34610142,1.77071974 0,5.08587786 Z" id="Path"></path>
                    <path d="M4.4302072,21.3958561 C4.4302072,22.9368866 5.67611778,24.1848419 7.21919302,24.1848419 C8.7615867,24.1848419 10.0074973,22.9368866 10.0074973,21.3958561 C10.0074973,19.8534624 8.7615867,18.6068702 7.21919302,18.6068702 C5.67611778,18.6068702 4.4302072,19.8534624 4.4302072,21.3958561 Z" id="Path"></path>
                </g>
            </g>
        </g>
    </g>
</svg>