<?xml version="1.0" encoding="UTF-8"?>
<svg width="768px" height="170px" viewBox="0 0 768 170" version="1.1" xmlns="http://www.w3.org/2000/svg" xmlns:xlink="http://www.w3.org/1999/xlink">
    <!-- Generator: Sketch 44.1 (41455) - http://www.bohemiancoding.com/sketch -->
    <title>scc-houseonhill-systeminfo-wd+tb</title>
    <desc>Created with Sketch.</desc>
    <defs>
        <polygon id="path-1123" points="0 170 768 170 768 0 0 0"></polygon>
        <linearGradient x1="50%" y1="100%" x2="50%" y2="28.8730469%" id="linearGradient-3">
            <stop stop-color="#001CB0" offset="0%"></stop>
            <stop stop-color="#001CB0" stop-opacity="0.8" offset="100%"></stop>
        </linearGradient>
    </defs>
    <g id="Page-1" stroke="none" stroke-width="1" fill="none" fill-rule="evenodd">
        <g id="scc-houseonhill-systeminfo-wd+tb">
            <rect id="Rectangle" fill="#FFFFFF" x="0" y="0" width="768" height="170"></rect>
            <g id="Group-102-Copy-2">
                <mask id="mask-2" fill="white">
                    <use xlink:href="#path-1123"></use>
                </mask>
                <g id="Mask"></g>
                <g id="Group-102" mask="url(#mask-2)">
                    <g transform="translate(-109.000000, 0.000000)">
                        <g id="Group-41">
                            <circle id="Oval-9" fill="#FFE344" cx="724" cy="65" r="65"></circle>
                            <g id="Group-74" transform="translate(0.000000, 39.000000)">
                                <g id="Group-49-Copy">
                                    <g id="Group-49">
                                        <g id="Group-32">
                                            <path d="M985.27452,48.1591816 C985.27452,48.1591816 932.413692,10.8041966 833.035335,10.8041966 C733.656979,10.8041966 718.151136,35.472583 582.122606,35.472583 C446.094076,35.472583 427.064178,0.936842105 334.733932,0.936842105 C242.403686,0.936842105 218.44011,33.3581498 111.308833,33.3581498 L0,33.3581498 L0,60.2943616 L983.864898,59.4361583" id="Path-3" fill="#FFFFFF"></path>
                                            <path d="M985.27452,48.1591816 C985.27452,48.1591816 932.413692,10.8041966 833.035335,10.8041966 C733.656979,10.8041966 718.151136,35.472583 582.122606,35.472583 C446.094076,35.472583 427.064178,0.936842105 334.733932,0.936842105 C242.403686,0.936842105 218.44011,33.3581498 111.308833,33.3581498 L0,33.3581498 L0,60.2943616 L983.864898,59.4361583" id="Path-3" fill="#B3BBE7"></path>
                                            <path d="M57.8616027,50.92015 C57.8616027,50.92015 101.890254,19.8065694 184.66412,19.8065694 C267.437985,19.8065694 280.353056,40.3532736 393.653453,40.3532736 C506.95385,40.3532736 522.804165,11.5878878 599.707543,11.5878878 C676.610922,11.5878878 696.570577,38.5921275 785.801978,38.5921275 L878.512933,38.5921275 L878.90625,155.5 L59.0357001,160.5 L57.8616027,50.92015 Z" id="Path-3" fill="#001CB0"></path>
                                        </g>
                                    </g>
                                </g>
                            </g>
                        </g>
                        <g id="House-Copy-10" transform="translate(555.000000, 4.000000)">
                            <g id="Group-37">
                                <g id="Group-36">
                                    <polygon id="Fill-2" fill="#B3BBE7" points="6.4890803 53.6005015 84.3072289 53.6005015 84.3072289 25.3822617 6.4890803 25.3822617"></polygon>
                                    <polygon id="Fill-3" fill="#808ED7" points="40.8057456 53.6005015 84.3072289 53.6005015 84.3072289 25.3822617 40.8057456 25.3822617"></polygon>
                                    <polygon id="Fill-1" fill="#B3BBE7" points="0 27.8981413 23.6480481 27.8981413 47.2948259 27.8981413 23.6480481 2.85370339"></polygon>
                                    <polygon id="Fill-4" fill="#001CB0" points="18.4788884 58.3363754 28.5974328 58.3363754 28.5974328 36.4648335 18.4788884 36.4648335"></polygon>
                                    <polygon id="Fill-5" fill="#001CB0" points="49.2397714 44.0336049 59.3583158 44.0336049 59.3583158 33.9275317 49.2397714 33.9275317"></polygon>
                                    <polygon id="Fill-6" fill="#001CB0" points="65.7546586 44.0336049 75.873203 44.0336049 75.873203 33.9275317 65.7546586 33.9275317"></polygon>
                                    <polygon id="Fill-9" fill="#001CB0" points="64.9486051 2.85446458 88.5966532 27.8976338 47.2954611 27.8976338 23.6474129 2.85446458"></polygon>
                                    <polygon id="Fill-10" fill-opacity="0.5" fill="#F6A623" style="mix-blend-mode: multiply;" points="26.3690663 2.85446458 47.021568 24.7260065 85.6016149 24.7260065 64.9491133 2.85446458"></polygon>
                                    <g id="Group-33" transform="translate(26.066232, 0.000000)">
                                        <polygon id="Fill-12" fill="#FFFFFF" points="28.8821005 0.317162731 19.4305035 0.317162731 9.97763614 0.317162731 0.524768775 0.317162731 5.83875133 5.94362958 11.1514635 11.5700964 16.4641757 17.1978319 21.7768879 22.8230301 31.2297552 22.8230301 40.6813522 22.8230301 50.1342196 22.8230301 59.5858166 22.8230301 54.2731044 17.1978319 48.9603922 11.5700964 43.6476801 5.94362958 38.3336975 0.317162731"></polygon>
                                        <polygon id="Fill-12" fill="url(#linearGradient-3)" points="28.8821005 0.317162731 19.4305035 0.317162731 9.97763614 0.317162731 0.524768775 0.317162731 5.83875133 5.94362958 11.1514635 11.5700964 16.4641757 17.1978319 21.7768879 22.8230301 31.2297552 22.8230301 40.6813522 22.8230301 50.1342196 22.8230301 59.5858166 22.8230301 54.2731044 17.1978319 48.9603922 11.5700964 43.6476801 5.94362958 38.3336975 0.317162731"></polygon>
                                    </g>
                                    <path d="M46.5318381,11.887386 L51.2449328,16.8795274 L42.6673545,16.8795274 L37.9542597,11.887386 L46.5318381,11.887386 Z M41.2178555,6.25965052 L45.9322206,11.2530606 L37.3546423,11.2530606 L32.6402772,6.25965052 L41.2178555,6.25965052 Z M65.7094333,11.2530606 L60.9950682,6.25965052 L69.5726465,6.25965052 L74.288282,11.2530606 L65.7094333,11.2530606 Z M66.3090507,11.887386 L74.8866291,11.887386 L79.5997238,16.8795274 L71.0221454,16.8795274 L66.3090507,11.887386 Z M56.8574537,11.887386 L65.4350321,11.887386 L70.1481268,16.8795274 L61.5705485,16.8795274 L56.8574537,11.887386 Z M55.9834351,11.887386 L60.6965298,16.8795274 L52.1189515,16.8795274 L47.4058567,11.887386 L55.9834351,11.887386 Z M51.5434712,6.25965052 L60.1210495,6.25965052 L64.836685,11.2530606 L56.2578363,11.2530606 L51.5434712,6.25965052 Z M55.3838176,11.2530606 L46.8062393,11.2530606 L42.0918742,6.25965052 L50.6694525,6.25965052 L55.3838176,11.2530606 Z M64.2612047,0.634452327 L68.9742994,5.62532506 L60.3967211,5.62532506 L55.6836263,0.634452327 L64.2612047,0.634452327 Z M54.8096077,0.634452327 L59.5227024,5.62532506 L50.9451241,5.62532506 L46.2320294,0.634452327 L54.8096077,0.634452327 Z M45.3567403,0.634452327 L50.0711054,5.62532506 L41.4935271,5.62532506 L36.7804324,0.634452327 L45.3567403,0.634452327 Z M35.9051433,0.634452327 L40.6195085,5.62532506 L32.0419301,5.62532506 L27.3288354,0.634452327 L35.9051433,0.634452327 Z M47.981337,22.5059943 L43.2669719,17.5138529 L51.8445503,17.5138529 L56.5589154,22.5059943 L47.981337,22.5059943 Z M57.432934,22.5059943 L52.7185689,17.5138529 L61.2961472,17.5138529 L66.0105124,22.5059943 L57.432934,22.5059943 Z M66.884531,22.5059943 L62.1701659,17.5138529 L70.7477442,17.5138529 L75.4621094,22.5059943 L66.884531,22.5059943 Z M76.3348576,22.5059943 L71.6217629,17.5138529 L80.1993412,17.5138529 L84.9137063,22.5059943 L76.3348576,22.5059943 Z M85.9655776,22.8282316 C85.9655776,22.8256943 85.966848,22.8244256 85.966848,22.823157 C85.966848,22.7812915 85.9376294,22.7521125 85.9223848,22.7153217 C85.9084107,22.6785308 85.9109515,22.6366653 85.8804624,22.604949 L80.5639391,16.9746762 C80.5626688,16.9734076 80.5626688,16.9721389 80.560128,16.9708703 L75.2499566,11.3469407 L75.2486862,11.3456721 L69.9397851,5.72301118 C69.9372444,5.72174253 69.935974,5.71920523 69.9347036,5.71793658 L64.6296137,0.0990816372 C64.6283433,0.0990816372 64.6283433,0.0990816372 64.627073,0.0978129862 C64.5940432,0.0648280622 64.5432282,0.0572161567 64.498765,0.0407236947 C64.4657352,0.0280371854 64.4377869,0.00266416694 64.4034868,0.00139551602 C64.4022164,0.00139551602 64.400946,0.000126865092 64.3996757,0.000126865092 L26.5920173,0.000126865092 C26.5488245,0.000126865092 26.5196059,0.0293058363 26.4814946,0.0457982984 C26.4446537,0.0597534585 26.4040017,0.0584848076 26.3735127,0.0863951279 C26.3722423,0.0876637788 26.3735127,0.0889324298 26.3722423,0.0902010807 C26.3417533,0.120648703 26.3379421,0.166320136 26.3201569,0.204379664 C26.3061827,0.241170541 26.2769641,0.274155465 26.2756937,0.313483643 C26.2756937,0.314752294 26.2744233,0.316020945 26.2744233,0.317289596 C26.2744233,0.355349124 26.3023716,0.380722142 26.313805,0.413707066 C26.3290495,0.455572547 26.3277791,0.50124398 26.3608089,0.535497555 L36.9925851,11.7947745 L47.612928,23.0413649 L47.6141984,23.0413649 C47.6713653,23.1022602 47.751399,23.1403197 47.8415957,23.1403197 L85.649254,23.1403197 C85.7280173,23.1403197 85.8067806,23.1124094 85.8677587,23.0540515 C85.8690291,23.0527828 85.8677587,23.0515142 85.8690291,23.0502455 C85.9007885,23.0197979 85.9045996,22.9741264 85.9211145,22.9347983 C85.936359,22.8980074 85.9655776,22.8662911 85.9655776,22.8282316 L85.9655776,22.8282316 Z" id="Fill-13" fill="#99A4DF"></path>
                                </g>
                            </g>
                        </g>
                    </g>
                </g>
            </g>
        </g>
        <g id="Group-75" transform="translate(182.000000, 104.000000)">
            <g id="Group-34">
                <circle id="Oval-2-Copy-4" fill="#FFFFFF" cx="54" cy="8" r="4"></circle>
                <circle id="Oval-2-Copy-4" fill="#FFE344" cx="202" cy="8" r="8"></circle>
                <circle id="Oval-2-Copy-4" fill="#FFFFFF" opacity="0.6" cx="350" cy="8" r="4"></circle>
                <path d="M0.960937321,32.4335938 L3.50390607,32.4335938 C4.68359947,32.4335938 5.53613001,32.605467 6.06152326,32.9492188 C6.58691651,33.2929705 6.8496092,33.8359338 6.8496092,34.578125 C6.8496092,35.0781275 6.72070424,35.494139 6.46289045,35.8261719 C6.20507666,36.1582048 5.83398662,36.3671871 5.3496092,36.453125 L5.3496092,36.5117188 C5.9511747,36.6250006 6.39355309,36.8486311 6.67675763,37.1826172 C6.95996217,37.5166032 7.10156232,37.9687471 7.10156232,38.5390625 C7.10156232,39.3085976 6.83301032,39.9111306 6.29589826,40.3466797 C5.7587862,40.7822287 5.01172336,41 4.05468732,41 L0.960937321,41 L0.960937321,32.4335938 Z M2.36132795,35.9726562 L3.7089842,35.9726562 C4.29492463,35.9726562 4.72265472,35.8798837 4.99218732,35.6943359 C5.26171992,35.5087881 5.3964842,35.1933616 5.3964842,34.7480469 C5.3964842,34.3457011 5.25097784,34.0546884 4.95996076,33.875 C4.66894368,33.6953116 4.20703424,33.6054688 3.57421857,33.6054688 L2.36132795,33.6054688 L2.36132795,35.9726562 Z M2.36132795,37.109375 L2.36132795,39.8222656 L3.8496092,39.8222656 C4.43554963,39.8222656 4.87792801,39.7099621 5.17675763,39.4853516 C5.47558725,39.2607411 5.62499982,38.9062524 5.62499982,38.421875 C5.62499982,37.9765603 5.47265759,37.6464854 5.16796857,37.4316406 C4.86327955,37.2167958 4.40039355,37.109375 3.7792967,37.109375 L2.36132795,37.109375 Z M14.5570311,41 L13.7015623,38.6210938 L10.4261717,38.6210938 L9.5882811,41 L8.1117186,41 L11.3167967,32.3984375 L12.8402342,32.3984375 L16.0453123,41 L14.5570311,41 Z M13.3324217,37.4140625 L12.5296873,35.0820312 C12.4710933,34.9257805 12.3900394,34.6796892 12.2865233,34.34375 C12.1830071,34.0078108 12.1117188,33.7617195 12.0726561,33.6054688 C11.9671868,34.0859399 11.8128915,34.6113253 11.6097655,35.1816406 L10.836328,37.4140625 L13.3324217,37.4140625 Z M19.8972655,41 L18.4968749,41 L18.4968749,33.6347656 L15.9773436,33.6347656 L15.9773436,32.4335938 L22.4167967,32.4335938 L22.4167967,33.6347656 L19.8972655,33.6347656 L19.8972655,41 Z M27.5285155,41 L26.1281249,41 L26.1281249,33.6347656 L23.6085936,33.6347656 L23.6085936,32.4335938 L30.0480468,32.4335938 L30.0480468,33.6347656 L27.5285155,33.6347656 L27.5285155,41 Z M36.8062499,41 L31.9605468,41 L31.9605468,32.4335938 L36.8062499,32.4335938 L36.8062499,33.6171875 L33.3609374,33.6171875 L33.3609374,35.9492188 L36.589453,35.9492188 L36.589453,37.1210938 L33.3609374,37.1210938 L33.3609374,39.8105469 L36.8062499,39.8105469 L36.8062499,41 Z M40.6582031,36.4179688 L41.6308593,36.4179688 C42.2832063,36.4179688 42.7558579,36.2968762 43.0488281,36.0546875 C43.3417983,35.8124988 43.4882812,35.4531274 43.4882812,34.9765625 C43.4882812,34.4921851 43.3300796,34.1445323 43.0136718,33.9335938 C42.697264,33.7226552 42.2207062,33.6171875 41.5839843,33.6171875 L40.6582031,33.6171875 L40.6582031,36.4179688 Z M40.6582031,37.578125 L40.6582031,41 L39.2578124,41 L39.2578124,32.4335938 L41.6777343,32.4335938 C42.7832086,32.4335938 43.6015598,32.6406229 44.1328124,33.0546875 C44.6640651,33.4687521 44.9296874,34.0937458 44.9296874,34.9296875 C44.9296874,35.9960991 44.3750055,36.7558571 43.2656249,37.2089844 L45.6855468,41 L44.0917968,41 L42.0410156,37.578125 L40.6582031,37.578125 Z M49.9476562,36.3417969 L51.975,32.4335938 L53.4984375,32.4335938 L50.6449218,37.6777344 L50.6449218,41 L49.2386718,41 L49.2386718,37.7246094 L46.396875,32.4335938 L47.9203125,32.4335938 L49.9476562,36.3417969 Z M65.9132813,36.6347656 C65.9132813,38.0488352 65.5207071,39.1298791 64.7355469,39.8779297 C63.9503867,40.6259803 62.8195386,41 61.3429688,41 L58.9464844,41 L58.9464844,32.4335938 L61.5949219,32.4335938 C62.95821,32.4335938 64.0187462,32.8007776 64.7765625,33.5351562 C65.5343788,34.2695349 65.9132813,35.3027277 65.9132813,36.6347656 Z M64.4367188,36.6816406 C64.4367188,34.6308491 63.477744,33.6054688 61.5597656,33.6054688 L60.346875,33.6054688 L60.346875,39.8222656 L61.3429688,39.8222656 C63.4054791,39.8222656 64.4367188,38.7754011 64.4367188,36.6816406 Z M73.1988282,41 L68.353125,41 L68.353125,32.4335938 L73.1988282,32.4335938 L73.1988282,33.6171875 L69.7535157,33.6171875 L69.7535157,35.9492188 L72.9820313,35.9492188 L72.9820313,37.1210938 L69.7535157,37.1210938 L69.7535157,39.8105469 L73.1988282,39.8105469 L73.1988282,41 Z M78.6093751,41 L77.2089844,41 L77.2089844,33.6347656 L74.6894532,33.6347656 L74.6894532,32.4335938 L81.1289063,32.4335938 L81.1289063,33.6347656 L78.6093751,33.6347656 L78.6093751,41 Z M87.5179688,41 L86.6625001,38.6210938 L83.3871095,38.6210938 L82.5492188,41 L81.0726563,41 L84.2777345,32.3984375 L85.801172,32.3984375 L89.0062501,41 L87.5179688,41 Z M86.2933595,37.4140625 L85.4906251,35.0820312 C85.432031,34.9257805 85.3509772,34.6796892 85.247461,34.34375 C85.1439449,34.0078108 85.0726565,33.7617195 85.0335938,33.6054688 C84.9281246,34.0859399 84.7738292,34.6113253 84.5707032,35.1816406 L83.7972657,37.4140625 L86.2933595,37.4140625 Z M90.7371095,41 L90.7371095,32.4335938 L92.1375001,32.4335938 L92.1375001,41 L90.7371095,41 Z M94.9992189,41 L94.9992189,32.4335938 L96.3996095,32.4335938 L96.3996095,39.7988281 L100.026563,39.7988281 L100.026563,41 L94.9992189,41 Z M107.042578,38.6738281 C107.042578,39.4355507 106.76719,40.033201 106.216406,40.4667969 C105.665622,40.9003928 104.905864,41.1171875 103.93711,41.1171875 C102.968355,41.1171875 102.175394,40.9667984 101.558203,40.6660156 L101.558203,39.3417969 C101.94883,39.5253915 102.363865,39.6699213 102.80332,39.7753906 C103.242776,39.8808599 103.651951,39.9335938 104.03086,39.9335938 C104.58555,39.9335938 104.994725,39.8281261 105.258399,39.6171875 C105.522072,39.4062489 105.653906,39.1230487 105.653906,38.7675781 C105.653906,38.447264 105.532814,38.1757824 105.290625,37.953125 C105.048436,37.7304676 104.548441,37.4667984 103.790625,37.1621094 C103.009371,36.8457015 102.458596,36.484377 102.138281,36.078125 C101.817967,35.671873 101.657813,35.1835966 101.657813,34.6132812 C101.657813,33.8984339 101.911716,33.3359396 102.419531,32.9257812 C102.927346,32.5156229 103.60898,32.3105469 104.464453,32.3105469 C105.28477,32.3105469 106.101168,32.4902326 106.913672,32.8496094 L106.46836,33.9921875 C105.706637,33.6718734 105.026956,33.5117188 104.429297,33.5117188 C103.97617,33.5117188 103.632423,33.6103506 103.398047,33.8076172 C103.163671,34.0048838 103.046485,34.2656234 103.046485,34.5898438 C103.046485,34.8125011 103.093359,35.0029289 103.18711,35.1611328 C103.28086,35.3193367 103.435155,35.4687493 103.65,35.609375 C103.864845,35.7500007 104.25156,35.9355457 104.810156,36.1660156 C105.439066,36.4277357 105.899999,36.6718739 106.192969,36.8984375 C106.485939,37.1250011 106.700781,37.3808579 106.8375,37.6660156 C106.97422,37.9511733 107.042578,38.2871074 107.042578,38.6738281 Z" id="BATTERY-DETAILS" fill="#FFFFFF"></path>
                <path d="M157.304883,38.6738281 C157.304883,39.4355507 157.029495,40.033201 156.478711,40.4667969 C155.927927,40.9003928 155.168169,41.1171875 154.199414,41.1171875 C153.230659,41.1171875 152.437698,40.9667984 151.820508,40.6660156 L151.820508,39.3417969 C152.211135,39.5253915 152.62617,39.6699213 153.065625,39.7753906 C153.50508,39.8808599 153.914256,39.9335938 154.293164,39.9335938 C154.847854,39.9335938 155.25703,39.8281261 155.520703,39.6171875 C155.784376,39.4062489 155.916211,39.1230487 155.916211,38.7675781 C155.916211,38.447264 155.795118,38.1757824 155.55293,37.953125 C155.310741,37.7304676 154.810746,37.4667984 154.05293,37.1621094 C153.271676,36.8457015 152.7209,36.484377 152.400586,36.078125 C152.080272,35.671873 151.920117,35.1835966 151.920117,34.6132812 C151.920117,33.8984339 152.174021,33.3359396 152.681836,32.9257812 C153.189651,32.5156229 153.871285,32.3105469 154.726758,32.3105469 C155.547074,32.3105469 156.363472,32.4902326 157.175976,32.8496094 L156.730664,33.9921875 C155.968941,33.6718734 155.289261,33.5117188 154.691601,33.5117188 C154.238474,33.5117188 153.894728,33.6103506 153.660351,33.8076172 C153.425975,34.0048838 153.308789,34.2656234 153.308789,34.5898438 C153.308789,34.8125011 153.355663,35.0029289 153.449414,35.1611328 C153.543164,35.3193367 153.69746,35.4687493 153.912305,35.609375 C154.127149,35.7500007 154.513864,35.9355457 155.072461,36.1660156 C155.70137,36.4277357 156.162303,36.6718739 156.455273,36.8984375 C156.748243,37.1250011 156.963085,37.3808579 157.099805,37.6660156 C157.236524,37.9511733 157.304883,38.2871074 157.304883,38.6738281 Z M161.983008,36.3417969 L164.010351,32.4335938 L165.533789,32.4335938 L162.680273,37.6777344 L162.680273,41 L161.274023,41 L161.274023,37.7246094 L158.432226,32.4335938 L159.955664,32.4335938 L161.983008,36.3417969 Z M172.204101,38.6738281 C172.204101,39.4355507 171.928714,40.033201 171.37793,40.4667969 C170.827146,40.9003928 170.067388,41.1171875 169.098633,41.1171875 C168.129878,41.1171875 167.336917,40.9667984 166.719726,40.6660156 L166.719726,39.3417969 C167.110353,39.5253915 167.525388,39.6699213 167.964844,39.7753906 C168.404299,39.8808599 168.813475,39.9335938 169.192383,39.9335938 C169.747073,39.9335938 170.156249,39.8281261 170.419922,39.6171875 C170.683595,39.4062489 170.81543,39.1230487 170.81543,38.7675781 C170.81543,38.447264 170.694337,38.1757824 170.452148,37.953125 C170.20996,37.7304676 169.709965,37.4667984 168.952148,37.1621094 C168.170894,36.8457015 167.620119,36.484377 167.299805,36.078125 C166.97949,35.671873 166.819336,35.1835966 166.819336,34.6132812 C166.819336,33.8984339 167.07324,33.3359396 167.581055,32.9257812 C168.08887,32.5156229 168.770503,32.3105469 169.625976,32.3105469 C170.446293,32.3105469 171.262691,32.4902326 172.075195,32.8496094 L171.629883,33.9921875 C170.86816,33.6718734 170.188479,33.5117188 169.59082,33.5117188 C169.137693,33.5117188 168.793946,33.6103506 168.55957,33.8076172 C168.325194,34.0048838 168.208008,34.2656234 168.208008,34.5898438 C168.208008,34.8125011 168.254882,35.0029289 168.348633,35.1611328 C168.442383,35.3193367 168.596678,35.4687493 168.811523,35.609375 C169.026368,35.7500007 169.413083,35.9355457 169.97168,36.1660156 C170.600589,36.4277357 171.061522,36.6718739 171.354492,36.8984375 C171.647462,37.1250011 171.862304,37.3808579 171.999023,37.6660156 C172.135743,37.9511733 172.204101,38.2871074 172.204101,38.6738281 Z M177.421289,41 L176.020898,41 L176.020898,33.6347656 L173.501367,33.6347656 L173.501367,32.4335938 L179.94082,32.4335938 L179.94082,33.6347656 L177.421289,33.6347656 L177.421289,41 Z M186.699023,41 L181.85332,41 L181.85332,32.4335938 L186.699023,32.4335938 L186.699023,33.6171875 L183.253711,33.6171875 L183.253711,35.9492188 L186.482226,35.9492188 L186.482226,37.1210938 L183.253711,37.1210938 L183.253711,39.8105469 L186.699023,39.8105469 L186.699023,41 Z M192.853711,41 L190.369336,33.8457031 L190.322461,33.8457031 C190.388867,34.9082084 190.42207,35.9042922 190.42207,36.8339844 L190.42207,41 L189.150586,41 L189.150586,32.4335938 L191.125195,32.4335938 L193.504102,39.2480469 L193.539258,39.2480469 L195.988477,32.4335938 L197.968945,32.4335938 L197.968945,41 L196.621289,41 L196.621289,36.7636719 C196.621289,36.3378885 196.632031,35.7832065 196.653516,35.0996094 C196.675,34.4160122 196.693555,34.0019538 196.70918,33.8574219 L196.662305,33.8574219 L194.090039,41 L192.853711,41 Z M211.508789,36.6347656 C211.508789,38.0488352 211.116215,39.1298791 210.331055,39.8779297 C209.545895,40.6259803 208.415046,41 206.938477,41 L204.541992,41 L204.541992,32.4335938 L207.19043,32.4335938 C208.553718,32.4335938 209.614254,32.8007776 210.37207,33.5351562 C211.129887,34.2695349 211.508789,35.3027277 211.508789,36.6347656 Z M210.032227,36.6816406 C210.032227,34.6308491 209.073252,33.6054688 207.155273,33.6054688 L205.942383,33.6054688 L205.942383,39.8222656 L206.938477,39.8222656 C209.000987,39.8222656 210.032227,38.7754011 210.032227,36.6816406 Z M218.794336,41 L213.948633,41 L213.948633,32.4335938 L218.794336,32.4335938 L218.794336,33.6171875 L215.349023,33.6171875 L215.349023,35.9492188 L218.577539,35.9492188 L218.577539,37.1210938 L215.349023,37.1210938 L215.349023,39.8105469 L218.794336,39.8105469 L218.794336,41 Z M224.204883,41 L222.804492,41 L222.804492,33.6347656 L220.284961,33.6347656 L220.284961,32.4335938 L226.724414,32.4335938 L226.724414,33.6347656 L224.204883,33.6347656 L224.204883,41 Z M233.113477,41 L232.258008,38.6210938 L228.982617,38.6210938 L228.144727,41 L226.668164,41 L229.873242,32.3984375 L231.39668,32.3984375 L234.601758,41 L233.113477,41 Z M231.888867,37.4140625 L231.086133,35.0820312 C231.027539,34.9257805 230.946485,34.6796892 230.842969,34.34375 C230.739453,34.0078108 230.668164,33.7617195 230.629102,33.6054688 C230.523632,34.0859399 230.369337,34.6113253 230.166211,35.1816406 L229.392774,37.4140625 L231.888867,37.4140625 Z M236.332617,41 L236.332617,32.4335938 L237.733008,32.4335938 L237.733008,41 L236.332617,41 Z M240.594727,41 L240.594727,32.4335938 L241.995117,32.4335938 L241.995117,39.7988281 L245.62207,39.7988281 L245.62207,41 L240.594727,41 Z M252.638086,38.6738281 C252.638086,39.4355507 252.362698,40.033201 251.811914,40.4667969 C251.26113,40.9003928 250.501372,41.1171875 249.532617,41.1171875 C248.563862,41.1171875 247.770902,40.9667984 247.153711,40.6660156 L247.153711,39.3417969 C247.544338,39.5253915 247.959373,39.6699213 248.398828,39.7753906 C248.838284,39.8808599 249.247459,39.9335938 249.626367,39.9335938 C250.181058,39.9335938 250.590233,39.8281261 250.853906,39.6171875 C251.11758,39.4062489 251.249414,39.1230487 251.249414,38.7675781 C251.249414,38.447264 251.128322,38.1757824 250.886133,37.953125 C250.643944,37.7304676 250.143949,37.4667984 249.386133,37.1621094 C248.604879,36.8457015 248.054103,36.484377 247.733789,36.078125 C247.413475,35.671873 247.25332,35.1835966 247.25332,34.6132812 C247.25332,33.8984339 247.507224,33.3359396 248.015039,32.9257812 C248.522854,32.5156229 249.204488,32.3105469 250.059961,32.3105469 C250.880278,32.3105469 251.696676,32.4902326 252.50918,32.8496094 L252.063867,33.9921875 C251.302145,33.6718734 250.622464,33.5117188 250.024805,33.5117188 C249.571678,33.5117188 249.227931,33.6103506 248.993555,33.8076172 C248.759179,34.0048838 248.641992,34.2656234 248.641992,34.5898438 C248.641992,34.8125011 248.688867,35.0029289 248.782617,35.1611328 C248.876368,35.3193367 249.030663,35.4687493 249.245508,35.609375 C249.460353,35.7500007 249.847068,35.9355457 250.405664,36.1660156 C251.034574,36.4277357 251.495506,36.6718739 251.788477,36.8984375 C252.081447,37.1250011 252.296289,37.3808579 252.433008,37.6660156 C252.569727,37.9511733 252.638086,38.2871074 252.638086,38.6738281 Z" id="System-details" fill="#FFE344"></path>
                <path d="M296.270703,41 L296.270703,32.4335938 L297.671094,32.4335938 L297.671094,41 L296.270703,41 Z M304.235937,41 L301.751562,33.8457031 L301.704687,33.8457031 C301.771094,34.9082084 301.804297,35.9042922 301.804297,36.8339844 L301.804297,41 L300.532812,41 L300.532812,32.4335938 L302.507422,32.4335938 L304.886328,39.2480469 L304.921484,39.2480469 L307.370703,32.4335938 L309.351172,32.4335938 L309.351172,41 L308.003515,41 L308.003515,36.7636719 C308.003515,36.3378885 308.014258,35.7832065 308.035742,35.0996094 C308.057227,34.4160122 308.075781,34.0019538 308.091406,33.8574219 L308.044531,33.8574219 L305.472265,41 L304.235937,41 Z M317.878906,35.0234375 C317.878906,35.9179732 317.58594,36.6035132 317,37.0800781 C316.414059,37.556643 315.580083,37.7949219 314.498047,37.7949219 L313.607422,37.7949219 L313.607422,41 L312.207031,41 L312.207031,32.4335938 L314.673828,32.4335938 C315.744146,32.4335938 316.545896,32.6523416 317.079101,33.0898438 C317.612307,33.5273459 317.878906,34.1718707 317.878906,35.0234375 Z M313.607422,36.6171875 L314.351562,36.6171875 C315.070316,36.6171875 315.597654,36.4921887 315.933594,36.2421875 C316.269533,35.9921863 316.4375,35.6015652 316.4375,35.0703125 C316.4375,34.5781225 316.287111,34.2109387 315.986328,33.96875 C315.685545,33.7265613 315.2168,33.6054688 314.580078,33.6054688 L313.607422,33.6054688 L313.607422,36.6171875 Z M327.795312,36.7050781 C327.795312,38.0996163 327.446683,39.1835899 326.749414,39.9570312 C326.052145,40.7304726 325.06485,41.1171875 323.7875,41.1171875 C322.494525,41.1171875 321.501371,40.7334023 320.808008,39.9658203 C320.114645,39.1982383 319.767969,38.1074289 319.767969,36.6933594 C319.767969,35.2792898 320.116598,34.1933632 320.813867,33.4355469 C321.511136,32.6777306 322.506243,32.2988281 323.799219,32.2988281 C325.072663,32.2988281 326.057028,32.6835899 326.752344,33.453125 C327.44766,34.2226601 327.795312,35.3066336 327.795312,36.7050781 Z M321.25625,36.7050781 C321.25625,37.7597709 321.469138,38.5595676 321.894922,39.1044922 C322.320705,39.6494168 322.951558,39.921875 323.7875,39.921875 C324.619535,39.921875 325.247459,39.6523464 325.671289,39.1132812 C326.095119,38.5742161 326.307031,37.7714897 326.307031,36.7050781 C326.307031,35.6542916 326.097072,34.8574246 325.677148,34.3144531 C325.257224,33.7714817 324.631254,33.5 323.799219,33.5 C322.959371,33.5 322.325588,33.7714817 321.897851,34.3144531 C321.470115,34.8574246 321.25625,35.6542916 321.25625,36.7050781 Z M331.635547,36.4179688 L332.608203,36.4179688 C333.26055,36.4179688 333.733202,36.2968762 334.026172,36.0546875 C334.319142,35.8124988 334.465625,35.4531274 334.465625,34.9765625 C334.465625,34.4921851 334.307423,34.1445323 333.991016,33.9335938 C333.674608,33.7226552 333.19805,33.6171875 332.561328,33.6171875 L331.635547,33.6171875 L331.635547,36.4179688 Z M331.635547,37.578125 L331.635547,41 L330.235156,41 L330.235156,32.4335938 L332.655078,32.4335938 C333.760552,32.4335938 334.578904,32.6406229 335.110156,33.0546875 C335.641409,33.4687521 335.907031,34.0937458 335.907031,34.9296875 C335.907031,35.9960991 335.352349,36.7558571 334.242969,37.2089844 L336.662891,41 L335.069141,41 L333.018359,37.578125 L331.635547,37.578125 Z M341.464062,41 L340.063672,41 L340.063672,33.6347656 L337.544141,33.6347656 L337.544141,32.4335938 L343.983594,32.4335938 L343.983594,33.6347656 L341.464062,33.6347656 L341.464062,41 Z M350.372656,41 L349.517187,38.6210938 L346.241797,38.6210938 L345.403906,41 L343.927344,41 L347.132422,32.3984375 L348.655859,32.3984375 L351.860937,41 L350.372656,41 Z M349.148047,37.4140625 L348.345312,35.0820312 C348.286718,34.9257805 348.205665,34.6796892 348.102148,34.34375 C347.998632,34.0078108 347.927344,33.7617195 347.888281,33.6054688 C347.782812,34.0859399 347.628517,34.6113253 347.425391,35.1816406 L346.651953,37.4140625 L349.148047,37.4140625 Z M360.728516,41 L359.011719,41 L354.798828,34.1738281 L354.751953,34.1738281 L354.78125,34.5546875 C354.835938,35.2812536 354.863281,35.9453095 354.863281,36.546875 L354.863281,41 L353.591797,41 L353.591797,32.4335938 L355.291016,32.4335938 L359.492188,39.2246094 L359.527344,39.2246094 C359.519531,39.1347652 359.503906,38.80762 359.480469,38.2431641 C359.457031,37.6787081 359.445312,37.2382828 359.445312,36.921875 L359.445312,32.4335938 L360.728516,32.4335938 L360.728516,41 Z M366.549219,41 L365.148828,41 L365.148828,33.6347656 L362.629297,33.6347656 L362.629297,32.4335938 L369.06875,32.4335938 L369.06875,33.6347656 L366.549219,33.6347656 L366.549219,41 Z M374.698438,41 L374.698438,32.4335938 L376.098828,32.4335938 L376.098828,41 L374.698438,41 Z M386.097266,41 L384.380469,41 L380.167578,34.1738281 L380.120703,34.1738281 L380.15,34.5546875 C380.204688,35.2812536 380.232031,35.9453095 380.232031,36.546875 L380.232031,41 L378.960547,41 L378.960547,32.4335938 L380.659766,32.4335938 L384.860938,39.2246094 L384.896094,39.2246094 C384.888281,39.1347652 384.872656,38.80762 384.849219,38.2431641 C384.825781,37.6787081 384.814063,37.2382828 384.814063,36.921875 L384.814063,32.4335938 L386.097266,32.4335938 L386.097266,41 Z M390.347656,41 L388.958984,41 L388.958984,32.4335938 L393.792969,32.4335938 L393.792969,33.6171875 L390.347656,33.6171875 L390.347656,36.2949219 L393.576172,36.2949219 L393.576172,37.484375 L390.347656,37.484375 L390.347656,41 Z M403.551172,36.7050781 C403.551172,38.0996163 403.202543,39.1835899 402.505274,39.9570312 C401.808004,40.7304726 400.82071,41.1171875 399.54336,41.1171875 C398.250384,41.1171875 397.25723,40.7334023 396.563867,39.9658203 C395.870504,39.1982383 395.523828,38.1074289 395.523828,36.6933594 C395.523828,35.2792898 395.872458,34.1933632 396.569727,33.4355469 C397.266996,32.6777306 398.262103,32.2988281 399.555078,32.2988281 C400.828522,32.2988281 401.812887,32.6835899 402.508203,33.453125 C403.203519,34.2226601 403.551172,35.3066336 403.551172,36.7050781 Z M397.01211,36.7050781 C397.01211,37.7597709 397.224998,38.5595676 397.650781,39.1044922 C398.076565,39.6494168 398.707418,39.921875 399.54336,39.921875 C400.375395,39.921875 401.003318,39.6523464 401.427149,39.1132812 C401.850979,38.5742161 402.062891,37.7714897 402.062891,36.7050781 C402.062891,35.6542916 401.852932,34.8574246 401.433008,34.3144531 C401.013084,33.7714817 400.387114,33.5 399.555078,33.5 C398.71523,33.5 398.081448,33.7714817 397.653711,34.3144531 C397.225975,34.8574246 397.01211,35.6542916 397.01211,36.7050781 Z" id="IMPORTANT-INFO" fill="#FFFFFF" opacity="0.6"></path>
                <path d="M66,8 L187,8" id="Line-Copy-2" stroke="#FFFFFF" stroke-linecap="square"></path>
                <path d="M217,8 L339,8" id="Line-Copy-4" stroke="#FFFFFF" opacity="0.6" stroke-linecap="square"></path>
            </g>
        </g>
    </g>
</svg>