<?xml version="1.0" encoding="UTF-8"?>
<svg width="124px" height="65px" viewBox="0 0 124 65" version="1.1" xmlns="http://www.w3.org/2000/svg" xmlns:xlink="http://www.w3.org/1999/xlink">
    <!-- Generator: Sketch 44.1 (41455) - http://www.bohemiancoding.com/sketch -->
    <title>ssc-solarbatteryyes-reverse</title>
    <desc>Created with Sketch.</desc>
    <defs></defs>
    <g id="Symbols" stroke="none" stroke-width="1" fill="none" fill-rule="evenodd">
        <g id="ssc-solarbatteryyes-reverse" fill-rule="nonzero">
            <g id="Group-43">
                <g id="Group">
                    <g transform="translate(23.000000, 0.000000)" id="Shape" fill="#00FFFF">
                        <path d="M7.3,20.5 C7.9,14.6 12.9,10.1 18.9,10.1 C24.9,10.1 29.9,14.7 30.5,20.5 L7.3,20.5 Z"></path>
                        <path d="M20.1,5.2 C20.1,5.9 19.6,6.4 18.9,6.4 C18.2,6.4 17.7,5.9 17.7,5.2 L17.7,1.5 C17.7,0.8 18.2,0.3 18.9,0.3 C19.6,0.3 20.1,0.8 20.1,1.5 L20.1,5.2 Z"></path>
                        <path d="M33.8,14.6 C33.2,14.9 32.5,14.7 32.1,14.2 C31.8,13.6 32,12.9 32.5,12.5 L35.7,10.7 C36.3,10.4 37,10.6 37.4,11.1 C37.7,11.7 37.5,12.4 37,12.8 L33.8,14.6 Z"></path>
                        <path d="M28.2,8 C27.9,8.6 27.1,8.8 26.5,8.4 C25.9,8.1 25.7,7.3 26.1,6.7 L27.9,3.5 C28.2,2.9 29,2.7 29.6,3.1 C30.2,3.4 30.4,4.2 30,4.8 L28.2,8 Z"></path>
                        <path d="M5.2,12.4 C5.8,12.7 6,13.5 5.6,14.1 C5.3,14.7 4.5,14.9 3.9,14.5 L0.7,12.7 C0.1,12.4 -0.1,11.6 0.3,11 C0.6,10.4 1.4,10.2 2,10.6 L5.2,12.4 Z"></path>
                        <path d="M11.7,6.8 C12,7.4 11.8,8.1 11.3,8.5 C10.7,8.8 10,8.6 9.6,8.1 L7.8,4.9 C7.5,4.3 7.7,3.6 8.2,3.2 C8.8,2.9 9.5,3.1 9.9,3.6 L11.7,6.8 Z"></path>
                    </g>
                    <g transform="translate(0.000000, 23.000000)" id="Shape" fill="#FFFFFF">
                        <polygon points="10.5 11.6 29.4 11.6 28 22 6.2 22"></polygon>
                        <polygon points="49.8 0.1 51 8.6 32.8 8.6 33.9 0.1"></polygon>
                        <polygon points="52.8 22 31 22 32.4 11.6 51.4 11.6"></polygon>
                        <polygon points="30.6 25 53.2 25 54.9 37.3 28.9 37.3"></polygon>
                        <polygon points="54.4 11.6 73.3 11.6 77.6 22 55.8 22"></polygon>
                        <polygon points="72.1 8.6 54 8.6 52.8 0.1 68.6 0.1"></polygon>
                        <polygon points="15.2 0.1 31 0.1 29.8 8.6 11.7 8.6"></polygon>
                        <polygon points="5 25 27.6 25 25.9 37.3 0 37.3"></polygon>
                        <polygon points="57.9 37.3 56.2 25 78.7 25 83.8 37.3"></polygon>
                    </g>
                </g>
                <g id="Group" transform="translate(93.000000, 4.000000)">
                    <path d="M19.8,12.5 L11.7,12.5 C10.6,12.5 9.7,11.6 9.7,10.5 L9.7,2.4 C9.7,1.3 10.6,0.4 11.7,0.4 L19.8,0.4 C20.9,0.4 21.8,1.3 21.8,2.4 L21.8,10.5 C21.8,11.6 20.9,12.5 19.8,12.5 Z" id="Shape" fill="#00FFFF"></path>
                    <path d="M26.9,60.3 L4.5,60.3 C2.3,60.3 0.4,58.5 0.4,56.2 L0.4,8.4 C0.4,6.2 2.2,4.3 4.5,4.3 L26.9,4.3 C29.1,4.3 31,6.1 31,8.4 L31,56.2 C31,58.5 29.2,60.3 26.9,60.3 Z" id="Shape" fill="#00FFFF"></path>
                    <polygon id="Shape" fill="#0110B8" points="11.9 36.4 6.5 30.9 4 33.3 11.9 41.3 27.5 25.8 25 23.4"></polygon>
                </g>
            </g>
        </g>
    </g>
</svg>