<?xml version="1.0" encoding="UTF-8"?>
<svg width="80px" height="74px" viewBox="0 0 80 74" version="1.1" xmlns="http://www.w3.org/2000/svg" xmlns:xlink="http://www.w3.org/1999/xlink">
    <!-- Generator: Sketch 46.2 (44496) - http://www.bohemiancoding.com/sketch -->
    <title>solar-icon-yourdetails-selec</title>
    <desc>Created with Sketch.</desc>
    <defs></defs>
    <g id="Page-1" stroke="none" stroke-width="1" fill="none" fill-rule="evenodd">
        <g id="ssc/settings/modal1/selectB" transform="translate(-642.000000, -309.000000)">
            <g id="solar-icon-yourdetails-selec" transform="translate(642.000000, 309.719166)">
                <path d="M35.3477774,27.3226739 L70.0002389,27.3226739 L70.0002389,23.6305128 L35.3477774,23.6305128 L35.3477774,27.3226739 Z M79.0044085,18.8451039 L60.4643573,0.313573803 C60.2632611,0.113329663 59.9905882,0 59.7059859,0 L27.9557862,0 C27.3618706,0 26.8821368,0.48143804 26.8821368,1.07364943 L26.8821368,22.2807821 L43.2851143,38.6837596 L70.0002389,38.6837596 L70.0002389,42.3767728 L46.9781275,42.3767728 L46.9926132,42.3912585 L50.2348641,53.7378584 L70.0002389,53.7378584 L70.0002389,57.4300195 L51.2897673,57.4300195 L48.0159886,57.4300195 L35.3477774,57.4300195 L35.3477774,53.7378584 L35.35289,53.7378584 L35.35289,53.3654895 L26.8821368,44.8947363 L26.8821368,71.3985395 C26.8821368,71.9924551 27.3618706,72.472189 27.9557862,72.472189 L78.2443328,72.472189 C78.8373963,72.472189 79.3179823,71.9924551 79.3179823,71.3985395 L79.3179823,19.6043274 C79.3179823,19.318873 79.2055047,19.0462001 79.0044085,18.8451039 L79.0044085,18.8451039 Z" id="Fill-2" fill="#FFFFFF"></path>
                <path d="M1.08609013,16.3515957 L3.1379535,18.403459 L11.6709102,9.87220655 L9.61904683,7.81949109 C8.1704722,6.37091645 5.82207709,6.37091645 4.37350245,7.81949109 L1.08609013,11.1069034 C-0.3624845,12.555478 -0.3624845,14.9038732 1.08609013,16.3515957" id="Fill-3" fill="#00E3F2"></path>
                <polygon id="Fill-4" fill="#00E3F2" points="36.7678918 52.0333973 4.06078075 19.3254342 12.5928853 10.7941817 45.2999964 43.5004406 48.7765755 55.6676155"></polygon>
                <polygon id="Fill-5" fill="#0110B8" points="2.98125181 18.2471834 5.87754897 21.1426285 14.4096536 12.6105239 11.5133564 9.71422671"></polygon>
            </g>
        </g>
    </g>
</svg>