<?xml version="1.0" encoding="UTF-8"?>
<svg width="85px" height="61px" viewBox="0 0 85 61" version="1.1" xmlns="http://www.w3.org/2000/svg" xmlns:xlink="http://www.w3.org/1999/xlink">
    <!-- Generator: Sketch 44.1 (41455) - http://www.bohemiancoding.com/sketch -->
    <title>ssc-solarbatteryno-reverse</title>
    <desc>Created with Sketch.</desc>
    <defs></defs>
    <g id="Symbols" stroke="none" stroke-width="1" fill="none" fill-rule="evenodd">
        <g id="ssc-solarbatteryno-reverse" fill-rule="nonzero">
            <g id="ssc-solarbatteryno">
                <g id="Group" transform="translate(23.000000, 0.000000)" fill="#00FFFF">
                    <path d="M7.7,20.5 C8.3,14.6 13.3,10.1 19.3,10.1 C25.3,10.1 30.3,14.7 30.9,20.5 L7.7,20.5 Z" id="Shape"></path>
                    <path d="M20.5,5.2 C20.5,5.9 20,6.4 19.3,6.4 C18.6,6.4 18.1,5.9 18.1,5.2 L18.1,1.5 C18.1,0.8 18.6,0.3 19.3,0.3 C20,0.3 20.5,0.8 20.5,1.5 L20.5,5.2 Z" id="Shape"></path>
                    <path d="M34.2,14.6 C33.6,14.9 32.9,14.7 32.5,14.2 C32.2,13.6 32.4,12.9 32.9,12.5 L36.1,10.7 C36.7,10.4 37.4,10.6 37.8,11.1 C38.1,11.7 37.9,12.4 37.4,12.8 L34.2,14.6 Z" id="Shape"></path>
                    <path d="M28.6,8 C28.3,8.6 27.5,8.8 26.9,8.4 C26.3,8.1 26.1,7.3 26.5,6.7 L28.3,3.5 C28.6,2.9 29.4,2.7 30,3.1 C30.6,3.4 30.8,4.2 30.4,4.8 L28.6,8 Z" id="Shape"></path>
                    <path d="M5.5,12.4 C6.1,12.7 6.3,13.5 5.9,14.1 C5.6,14.7 4.8,14.9 4.2,14.5 L1,12.7 C0.4,12.4 0.2,11.6 0.6,11 C0.9,10.4 1.7,10.2 2.3,10.6 L5.5,12.4 Z" id="Shape"></path>
                    <path d="M12,6.8 C12.3,7.4 12.1,8.1 11.6,8.5 C11,8.8 10.3,8.6 9.9,8.1 L8.1,4.9 C7.8,4.3 8,3.6 8.5,3.2 C9.1,2.9 9.8,3.1 10.2,3.6 L12,6.8 Z" id="Shape"></path>
                </g>
                <g id="Group" transform="translate(0.000000, 23.000000)" fill="#FFFFFF">
                    <polygon id="Shape" points="10.8 11.6 29.8 11.6 28.4 22 6.6 22"></polygon>
                    <polygon id="Shape" points="50.2 0.1 51.4 8.6 33.1 8.6 34.3 0.1"></polygon>
                    <polygon id="Shape" points="53.2 22 31.3 22 32.7 11.6 51.8 11.6"></polygon>
                    <polygon id="Shape" points="30.9 25 53.6 25 55.3 37.3 29.2 37.3"></polygon>
                    <polygon id="Shape" points="54.7 11.6 73.7 11.6 77.9 22 56.1 22"></polygon>
                    <polygon id="Shape" points="72.5 8.6 54.3 8.6 53.2 0.1 69 0.1"></polygon>
                    <polygon id="Shape" points="15.5 0.1 31.3 0.1 30.2 8.6 12 8.6"></polygon>
                    <polygon id="Shape" points="5.4 25 28 25 26.3 37.3 0.4 37.3"></polygon>
                    <polygon id="Shape" points="58.2 37.3 56.5 25 79.1 25 84.1 37.3"></polygon>
                </g>
            </g>
        </g>
    </g>
</svg>