<?xml version="1.0" encoding="UTF-8"?>
<svg width="101px" height="73px" viewBox="0 0 101 73" version="1.1" xmlns="http://www.w3.org/2000/svg" xmlns:xlink="http://www.w3.org/1999/xlink">
    <!-- Generator: Sketch 46.2 (44496) - http://www.bohemiancoding.com/sketch -->
    <title>solar-icon-selec</title>
    <desc>Created with Sketch.</desc>
    <defs></defs>
    <g id="Page-1" stroke="none" stroke-width="1" fill="none" fill-rule="evenodd">
        <g id="ssc/settings/modal1/selectA" transform="translate(-454.000000, -307.000000)">
            <g id="solar-icon-selec" transform="translate(454.000000, 309.519020)">
                <path d="M62.4518501,48.5433913 C63.5987855,45.815749 64.2347599,42.8204605 64.2347599,39.674988 C64.2347599,27.0293328 53.9836576,16.7790695 41.3388414,16.7790695 C28.6940253,16.7790695 18.4429229,27.0293328 18.4429229,39.674988 C18.4429229,42.8204605 19.0788973,45.815749 20.2258327,48.5433913 L62.4518501,48.5433913 Z" id="Fill-2" fill="#00E3F2"></path>
                <polygon id="Fill-3" fill="#FFFFFF" points="12.5508463 70.0546811 0 70.0546811 14.7658496 52.3354938 22.7029448 52.3354938"></polygon>
                <polygon id="Fill-4" fill="#FFFFFF" points="38.4751106 70.0546811 18.2724348 70.0546811 28.055366 52.3354938 38.4751106 52.3354938"></polygon>
                <polygon id="Fill-6" fill="#FFFFFF" points="43.6599803 70.0546811 63.8626562 70.0546811 54.080564 52.3354938 43.6599803 52.3354938"></polygon>
                <polygon id="Fill-6" fill="#FFFFFF" points="70.5085051 70.0546811 100.779378 70.0546811 82.6071216 52.3354938 59.6012919 52.3354938"></polygon>
                <g id="Group" transform="translate(72.155410, 56.214099)" fill="#0110B8">
                    <path d="M8.51502537,3.48061986 L6.58745139,3.48061986 L6.58745139,1.5531154 C6.58745139,0.695034576 5.89239175,0 5.03427997,0 C4.17653134,0 3.48110855,0.695034576 3.48110855,1.5531154 L3.48110855,3.48061986 L1.55353457,3.48061986 C0.69542279,3.48061986 0,4.17601757 0,5.03373527 C0,5.89217923 0.69542279,6.5872138 1.55353457,6.5872138 L3.48110855,6.5872138 L3.48110855,8.51471826 C3.48110855,9.37279909 4.17653134,10.0681968 5.03427997,10.0681968 C5.89239175,10.0681968 6.58745139,9.37279909 6.58745139,8.51471826 L6.58745139,6.5872138 L8.51502537,6.5872138 C9.37313715,6.5872138 10.0681968,5.89217923 10.0681968,5.03373527 C10.0681968,4.17601757 9.37313715,3.48061986 8.51502537,3.48061986" id="Fill-11"></path>
                </g>
                <path d="M2.39908349,37.2838752 L12.3665983,37.2838752" id="Stroke-7" stroke="#00E3F2" stroke-width="4" stroke-linecap="round"></path>
                <path d="M69.7694994,37.2838752 L79.7361752,37.2838752" id="Stroke-8" stroke="#00E3F2" stroke-width="4" stroke-linecap="round"></path>
                <path d="M41.3444628,9.96667581 L41.3444628,0" id="Stroke-9" stroke="#00E3F2" stroke-width="4" stroke-linecap="round"></path>
                <path d="M21.058137,18.4748894 L14.0112383,11.4271517" id="Stroke-10" stroke="#00E3F2" stroke-width="4" stroke-linecap="round"></path>
                <path d="M61.4464567,18.4748894 L68.4941945,11.4271517" id="Stroke-11" stroke="#00E3F2" stroke-width="4" stroke-linecap="round"></path>
            </g>
        </g>
    </g>
</svg>