<?xml version="1.0" encoding="UTF-8" standalone="no"?>
<svg width="45px" height="39px" viewBox="0 0 45 39" version="1.1" xmlns="http://www.w3.org/2000/svg" xmlns:xlink="http://www.w3.org/1999/xlink">
    <!-- Generator: Sketch 43.2 (39069) - http://www.bohemiancoding.com/sketch -->
    <title>scc-solarpositive</title>
    <desc>Created with Sketch.</desc>
    <defs></defs>
    <g id="Symbols" stroke="none" stroke-width="1" fill="none" fill-rule="evenodd">
        <g id="scc-solarpositive">
            <g id="Group-30">
                <path d="M33.3654977,27.1446802 L10.5423349,27.1446802 C9.92241628,25.6703895 9.57867209,24.051436 9.57867209,22.3513081 C9.57867209,15.5163314 15.119393,9.97606395 21.9539163,9.97606395 C28.7884395,9.97606395 34.3291605,15.5163314 34.3291605,22.3513081 C34.3291605,24.051436 33.9854163,25.6703895 33.3654977,27.1446802 Z M0.906976744,21.9658884 C0.40606732,21.9658884 0,21.5598211 0,21.0589116 C0,20.5580022 0.40606732,20.1519349 0.906976744,20.1519349 L6.2944186,20.1519349 C6.79532803,20.1519349 7.20139535,20.5580022 7.20139535,21.0589116 C7.20139535,21.5598211 6.79532803,21.9658884 6.2944186,21.9658884 L0.906976744,21.9658884 Z M37.3206872,21.9658884 C36.8197778,21.9658884 36.4137105,21.5598211 36.4137105,21.0589116 C36.4137105,20.5580022 36.8197778,20.1519349 37.3206872,20.1519349 L42.7076756,20.1519349 C43.208585,20.1519349 43.6146523,20.5580022 43.6146523,21.0589116 C43.6146523,21.5598211 43.208585,21.9658884 42.7076756,21.9658884 L37.3206872,21.9658884 Z M22.8639314,6.29396512 C22.8639314,6.79487454 22.4578641,7.20094186 21.9569547,7.20094186 C21.4560452,7.20094186 21.0499779,6.79487454 21.0499779,6.29396512 L21.0499779,0.906976744 C21.0499779,0.40606732 21.4560452,-2.84217094e-14 21.9569547,-2.84217094e-14 C22.4578641,-2.84217094e-14 22.8639314,0.40606732 22.8639314,0.906976744 L22.8639314,6.29396512 Z M11.6335629,10.2513181 C11.9877383,10.6055356 11.9877041,11.1798015 11.6334866,11.5339769 C11.279269,11.8881522 10.7050031,11.8881181 10.3508278,11.5339005 L6.54197893,7.72459821 C6.18780356,7.37038067 6.18783775,6.79611476 6.54205528,6.4419394 C6.89627282,6.08776403 7.47053873,6.08779821 7.82471409,6.44201575 L11.6335629,10.2513181 Z M33.463412,11.5339387 C33.1092155,11.8881352 32.5349496,11.8881352 32.1807532,11.5339387 C31.8265567,11.1797423 31.8265567,10.6054763 32.1807532,10.2512799 L35.9900555,6.44197757 C36.3442519,6.08778112 36.9185178,6.08778112 37.2727143,6.44197757 C37.6269107,6.79617402 37.6269107,7.37043993 37.2727143,7.72463638 L33.463412,11.5339387 Z" id="Combined-Shape-Copy-4" fill="#00DFF1"></path>
                <path d="M6.78373256,38.5772209 L0,38.5772209 L7.98094186,29 L12.2709419,29 L6.78373256,38.5772209 Z M20.7957977,38.5772209 L9.87625116,38.5772209 L15.1639256,29 L20.7957977,29 L20.7957977,38.5772209 Z M37.6107384,38.5772209 L32.1235291,29 L36.4130756,29 L44.3944709,38.5772209 L37.6107384,38.5772209 Z M23.5982198,38.5772209 L23.5982198,29 L29.2305453,29 L34.5177663,38.5772209 L23.5982198,38.5772209 Z" id="Combined-Shape-Copy-3" fill="#000EB3"></path>
            </g>
        </g>
    </g>
</svg>