<?xml version="1.0" encoding="UTF-8" standalone="no"?>
<svg width="32px" height="30px" viewBox="0 0 32 30" version="1.1" xmlns="http://www.w3.org/2000/svg" xmlns:xlink="http://www.w3.org/1999/xlink">
    <!-- Generator: Sketch 43.2 (39069) - http://www.bohemiancoding.com/sketch -->
    <title>scc-alertgrey</title>
    <desc>Created with Sketch.</desc>
    <defs></defs>
    <g id="Symbols" stroke="none" stroke-width="1" fill="none" fill-rule="evenodd">
        <g id="scc-alertgrey" fill="#999999">
            <path d="M14.4679615,0.642737675 C14.9060107,-0.214245892 16.1293627,-0.214245892 16.5690049,0.642737675 L30.9338335,28.7097459 C31.2269282,29.2831922 30.8605598,30 30.2727774,30 L0.764188979,30 C0.17640657,30 -0.189961869,29.2831922 0.103132882,28.7097459 L14.4679615,0.642737675 Z M17.0379565,20.7646481 C17.3151222,20.7646481 17.5397219,20.5400483 17.5397219,20.2628826 L17.5397219,11.6484456 C17.5397219,11.3712799 17.3151222,11.1466801 17.0379565,11.1466801 L13.9986913,11.1466801 C13.7215256,11.1466801 13.4969259,11.3712799 13.4969259,11.6484456 L13.4969259,20.2628826 C13.4969259,20.5400483 13.7215256,20.7646481 13.9986913,20.7646481 L17.0379565,20.7646481 Z M13.3616881,25.0454244 C13.3616881,26.2369183 14.3269893,27.2022194 15.5184832,27.2022194 C16.7099771,27.2022194 17.6752783,26.2369183 17.6752783,25.0454244 C17.6752783,23.8539305 16.7099771,22.8886293 15.5184832,22.8886293 C14.3269893,22.8886293 13.3616881,23.8539305 13.3616881,25.0454244 Z" id="ico_warning-copy-17"></path>
        </g>
    </g>
</svg>