<?xml version="1.0" encoding="UTF-8"?>
<svg width="74px" height="82px" viewBox="0 0 74 82" version="1.1" xmlns="http://www.w3.org/2000/svg" xmlns:xlink="http://www.w3.org/1999/xlink">
    <!-- Generator: Sketch 47.1 (45422) - http://www.bohemiancoding.com/sketch -->
    <title>Smart Meter - take care</title>
    <desc>Created with Sketch.</desc>
    <defs></defs>
    <g id="Symbols" stroke="none" stroke-width="1" fill="none" fill-rule="evenodd">
        <g id="Smart-Meter---take-care">
            <g id="Group">
                <g id="blue-elec-meter">
                    <path d="M14.832345,70.9677419 C8.62157839,70.9677419 3.29792632,66.3559089 2.94167485,60.6675559 L0.0296875867,14.1711538 C0.00218523603,13.7320171 0.00506914794,13.2992989 0.0366681092,12.8746252 C0.0123188194,12.6703804 0,12.4648202 0,12.2580645 C0,10.6154608 0.777534332,9.04831818 2.18801104,7.61671848 C3.26213654,6.33573378 4.68410298,5.31488153 6.34052301,4.66447586 C11.7431681,1.82332174 20.1091517,0 29.5,0 C38.8916202,0 47.2582072,1.82362148 52.6608091,4.66517646 C54.3153354,5.3152032 55.7359632,6.33489787 56.8095602,7.61425411 C58.2215731,9.04651965 59,10.6145183 59,12.2580645 C59,12.4647627 58.987688,12.670266 58.9633522,12.8744547 C58.9949781,13.2991856 58.9978749,13.731961 58.970369,14.1711538 L56.0583817,60.6675559 C55.7021126,66.3561916 50.3732483,70.9677419 44.1677116,70.9677419 L33.7142857,70.9677419 L33.7142857,77.4175622 C33.7142857,78.8438032 32.4524434,80 30.9076935,80 L28.0923065,80 C26.5422684,80 25.2857143,78.8452407 25.2857143,77.4175622 L25.2857143,70.9677419 L14.832345,70.9677419 Z" id="Combined-Shape" fill="#001CB0"></path>
                    <path d="M9.46314613,15.990053 C9.33716253,13.7864076 11.0302145,12 13.2380504,12 L46.3948056,12 C48.6056113,12 50.2958143,13.7842933 50.1697098,15.990053 L49.2538438,32.009947 C49.1278602,34.2135924 47.2370319,36 45.0229893,36 L14.6098667,36 C12.3992139,36 10.5051166,34.2157067 10.3790122,32.009947 L9.46314613,15.990053 Z" id="Rectangle-3" fill="#FFFFFF"></path>
                    <g id="Group-2" stroke-width="1" transform="translate(16.465116, 18.666667)" fill="#00DFF1">
                        <rect id="Rectangle-17" x="0" y="0" width="5.48837209" height="10.6666667"></rect>
                        <rect id="Rectangle-17-Copy" x="6.86046512" y="0" width="5.48837209" height="10.6666667"></rect>
                        <rect id="Rectangle-17-Copy-2" x="13.7209302" y="0" width="5.48837209" height="10.6666667"></rect>
                        <rect id="Rectangle-17-Copy-3" x="20.5813953" y="0" width="5.48837209" height="10.6666667"></rect>
                    </g>
                </g>
                <g id="Safety-icon" transform="translate(38.000000, 46.000000)">
                    <g>
                        <circle id="Oval" fill="#F5A623" cx="18" cy="18" r="18"></circle>
                        <g id="Group" transform="translate(15.567568, 8.270270)" fill="#FFFFFF">
                            <path d="M4.30389424,11.6900195 L0.609863556,11.6900195 C0.272986544,11.6900195 0,11.417033 0,11.080156 L0,0.609863556 C0,0.272986544 0.272986544,0 0.609863556,0 L4.30389424,0 C4.64077125,0 4.9137578,0.272986544 4.9137578,0.609863556 L4.9137578,11.080156 C4.9137578,11.417033 4.64077125,11.6900195 4.30389424,11.6900195" id="Fill-4-Copy"></path>
                            <path d="M7.10542736e-15,16.7295534 C7.10542736e-15,18.1777373 1.17326132,19.3509986 2.62144525,19.3509986 C4.06962919,19.3509986 5.24289051,18.1777373 5.24289051,16.7295534 C5.24289051,15.2813694 4.06962919,14.1081081 2.62144525,14.1081081 C1.17326132,14.1081081 7.10542736e-15,15.2813694 7.10542736e-15,16.7295534" id="Fill-6-Copy"></path>
                        </g>
                    </g>
                </g>
            </g>
        </g>
    </g>
</svg>