<?xml version="1.0" encoding="UTF-8"?>
<svg width="251px" height="207px" viewBox="0 0 251 207" version="1.1" xmlns="http://www.w3.org/2000/svg" xmlns:xlink="http://www.w3.org/1999/xlink">
    <!-- Generator: Sketch 47.1 (45422) - http://www.bohemiancoding.com/sketch -->
    <title>Group</title>
    <desc>Created with Sketch.</desc>
    <defs></defs>
    <g id="Symbols" stroke="none" stroke-width="1" fill="none" fill-rule="evenodd">
        <g id="Smart-Meter">
            <g id="Group">
                <path d="M0,154 C28.5,154 28.5,168 57,168" id="Page-1-Copy-2" stroke="#001CB0" stroke-width="4" transform="translate(28.500000, 161.000000) scale(-1, 1) translate(-28.500000, -161.000000) "></path>
                <g id="Group-6" transform="translate(52.000000, 0.000000)">
                    <polygon id="Fill-1" fill="#FFFFFF" points="0 195 135 195 135 0 0 0"></polygon>
                    <polygon id="Fill-2" fill="#E8E8E8" points="0 110.25 135 110.25 135 108.75 0 108.75"></polygon>
                    <polygon id="Fill-3" fill="#E8E8E8" points="135 0 135 195 147 207 147 12"></polygon>
                    <polygon id="Fill-4" fill="#CCCCCC" points="0 195.000075 12 207.000075 147 207.000075 135 195.000075"></polygon>
                    <path d="M123.75,46.18395 C123.75,51.1542 119.72025,55.18395 114.75,55.18395 C109.77975,55.18395 105.75,51.1542 105.75,46.18395 C105.75,41.2137 109.77975,37.18395 114.75,37.18395 C119.72025,37.18395 123.75,41.2137 123.75,46.18395" id="Fill-5" fill="#E8E8E8"></path>
                    <path d="M119.25,46.18395 C119.25,48.66945 117.23475,50.68395 114.75,50.68395 C112.26525,50.68395 110.25,48.66945 110.25,46.18395 C110.25,43.6992 112.26525,41.68395 114.75,41.68395 C117.23475,41.68395 119.25,43.6992 119.25,46.18395" id="Fill-7" fill="#FFFFFF"></path>
                    <path d="M17.25,86.0742 C15.72375,86.0742 14.25,85.49295 13.134,84.4392 C11.931,83.30595 11.25,81.72645 11.25,80.0742 L11.25,17.2497 C11.25,13.9362 13.9365,11.2497 17.25,11.2497 L80.25,11.2497 C83.5635,11.2497 86.25,13.9362 86.25,17.2497 L86.25,52.6572 C86.25,54.29895 85.578,55.8687 84.39,57.00045 C66.26625,74.2767 42.5475,84.5982 17.60175,86.0637 C17.484,86.07045 17.36625,86.0742 17.25,86.0742" id="Fill-9" fill="#00DFED"></path>
                    <path d="M66.397725,30.06225 C62.055975,33.32625 57.567225,36.702 48.753975,36.702 C39.941475,36.702 35.451975,33.32625 31.110225,30.06225 C26.694225,26.74275 22.128975,23.31 13.128225,23.31 C12.477225,23.31 11.856225,23.3325 11.250225,23.367 L11.250225,23.93175 C11.855475,23.8965 12.476475,23.8725 13.128225,23.8725 C21.940725,23.8725 26.430225,27.24825 30.771975,30.51225 C35.187975,33.83175 39.753975,37.2645 48.753975,37.2645 C57.754725,37.2645 62.319975,33.831 66.735975,30.5115 C71.077725,27.2475 75.567225,23.8725 84.378975,23.8725 C85.027725,23.8725 85.646475,23.89575 86.250225,23.931 L86.250225,23.367 C85.646475,23.3325 85.026975,23.31 84.378975,23.31 C75.379725,23.31 70.813725,26.74275 66.397725,30.06225 M66.397725,45.81225 C62.055975,49.07625 57.567225,52.452 48.753975,52.452 C39.941475,52.452 35.451975,49.07625 31.110225,45.81225 C26.694225,42.49275 22.128975,39.06 13.128225,39.06 C12.477225,39.06 11.856225,39.0825 11.250225,39.117 L11.250225,39.68175 C11.855475,39.6465 12.476475,39.6225 13.128225,39.6225 C21.940725,39.6225 26.430225,42.99825 30.771975,46.26225 C35.187975,49.58175 39.753975,53.0145 48.753975,53.0145 C57.754725,53.0145 62.319975,49.581 66.735975,46.2615 C71.077725,42.9975 75.567225,39.6225 84.378975,39.6225 C85.027725,39.6225 85.646475,39.64575 86.250225,39.681 L86.250225,39.117 C85.646475,39.0825 85.026975,39.06 84.378975,39.06 C75.379725,39.06 70.813725,42.49275 66.397725,45.81225 M84.378975,18.06 C75.379725,18.06 70.813725,21.49275 66.397725,24.81225 C62.055975,28.07625 57.567225,31.452 48.753975,31.452 C39.941475,31.452 35.451975,28.07625 31.110225,24.81225 C26.694225,21.49275 22.128975,18.06 13.128225,18.06 C12.477225,18.06 11.856225,18.0825 11.250225,18.117 L11.250225,18.68175 C11.855475,18.6465 12.476475,18.6225 13.128225,18.6225 C21.940725,18.6225 26.430225,21.99825 30.771975,25.26225 C35.187975,28.58175 39.753975,32.0145 48.753975,32.0145 C57.754725,32.0145 62.319975,28.581 66.735975,25.2615 C71.077725,21.9975 75.567225,18.6225 84.378975,18.6225 C85.027725,18.6225 85.646475,18.64575 86.250225,18.681 L86.250225,18.117 C85.646475,18.0825 85.026975,18.06 84.378975,18.06 M66.397725,40.56225 C62.055975,43.82625 57.567225,47.202 48.753975,47.202 C39.941475,47.202 35.451975,43.82625 31.110225,40.56225 C26.694225,37.24275 22.128975,33.81 13.128225,33.81 C12.477225,33.81 11.856225,33.8325 11.250225,33.867 L11.250225,34.43175 C11.855475,34.3965 12.476475,34.3725 13.128225,34.3725 C21.940725,34.3725 26.430225,37.74825 30.771975,41.01225 C35.187975,44.33175 39.753975,47.7645 48.753975,47.7645 C57.754725,47.7645 62.319975,44.331 66.735975,41.0115 C71.077725,37.7475 75.567225,34.3725 84.378975,34.3725 C85.027725,34.3725 85.646475,34.39575 86.250225,34.431 L86.250225,33.867 C85.646475,33.8325 85.026975,33.81 84.378975,33.81 C75.379725,33.81 70.813725,37.24275 66.397725,40.56225 M30.771975,20.01225 C35.187975,23.33175 39.753975,26.7645 48.753975,26.7645 C57.754725,26.7645 62.319975,23.331 66.735975,20.0115 C71.077725,16.7475 75.567225,13.3725 84.378975,13.3725 C84.535725,13.3725 84.680475,13.3815 84.834225,13.38375 C84.663225,13.17975 84.474975,12.9915 84.278475,12.81225 C75.347475,12.8385 70.796475,16.2555 66.397725,19.56225 C62.055975,22.82625 57.567225,26.202 48.753975,26.202 C39.941475,26.202 35.451975,22.82625 31.110225,19.56225 C26.710725,16.25475 22.158975,12.837 13.221975,12.81225 C13.025475,12.9915 12.837225,13.1805 12.664725,13.38375 C12.821475,13.3815 12.969225,13.3725 13.128225,13.3725 C21.940725,13.3725 26.430225,16.74825 30.771975,20.01225 M13.128225,75.81 C12.477225,75.81 11.856225,75.8325 11.250225,75.867 L11.250225,76.43175 C11.855475,76.3965 12.476475,76.3725 13.128225,76.3725 C21.940725,76.3725 26.430225,79.74825 30.771975,83.01225 C31.276725,83.391 31.784475,83.772 32.298975,84.1485 C32.548725,84.09825 32.798475,84.04725 33.047475,83.9955 C32.390475,83.52225 31.747725,83.0415 31.110225,82.56225 C26.694225,79.24275 22.128975,75.81 13.128225,75.81 M11.346975,81.11025 C11.379975,81.29775 11.421975,81.48225 11.472975,81.66525 C12.006975,81.63825 12.558225,81.6225 13.128225,81.6225 C19.086225,81.6225 23.065725,83.1675 26.361225,85.17525 C26.649225,85.134 26.937225,85.0935 27.224475,85.04925 C23.751225,82.82775 19.581225,81.06 13.128225,81.06 C12.512475,81.06 11.922225,81.07875 11.346975,81.11025 M66.397725,35.31225 C62.055975,38.57625 57.567225,41.952 48.753975,41.952 C39.941475,41.952 35.451975,38.57625 31.110225,35.31225 C26.694225,31.99275 22.128975,28.56 13.128225,28.56 C12.477225,28.56 11.856225,28.5825 11.250225,28.617 L11.250225,29.18175 C11.855475,29.1465 12.476475,29.1225 13.128225,29.1225 C21.940725,29.1225 26.430225,32.49825 30.771975,35.76225 C35.187975,39.08175 39.753975,42.5145 48.753975,42.5145 C57.754725,42.5145 62.319975,39.081 66.735975,35.7615 C71.077725,32.4975 75.567225,29.1225 84.378975,29.1225 C85.027725,29.1225 85.646475,29.14575 86.250225,29.181 L86.250225,28.617 C85.646475,28.5825 85.026975,28.56 84.378975,28.56 C75.379725,28.56 70.813725,31.99275 66.397725,35.31225 M48.753975,73.452 C39.941475,73.452 35.451975,70.07625 31.110225,66.81225 C26.694225,63.49275 22.128975,60.06 13.128225,60.06 C12.477225,60.06 11.856225,60.0825 11.250225,60.117 L11.250225,60.68175 C11.855475,60.6465 12.476475,60.6225 13.128225,60.6225 C21.940725,60.6225 26.430225,63.99825 30.771975,67.26225 C35.187975,70.58175 39.753975,74.0145 48.753975,74.0145 C57.754725,74.0145 62.319975,70.581 66.735975,67.2615 C70.295475,64.5855 73.958475,61.83825 80.016975,60.9345 C80.278725,60.711 80.541225,60.4905 80.800725,60.2655 C74.091225,61.04175 70.185225,63.96525 66.397725,66.81225 C62.055975,70.07625 57.567225,73.452 48.753975,73.452 M48.753975,21.5145 C57.754725,21.5145 62.319975,18.081 66.735975,14.7615 C68.352225,13.5465 69.990225,12.31575 71.863725,11.25 L70.755225,11.25 C69.197475,12.20775 67.789725,13.26525 66.397725,14.31225 C62.055975,17.57625 57.567225,20.952 48.753975,20.952 C39.941475,20.952 35.451975,17.57625 31.110225,14.31225 C29.718225,13.26525 28.309725,12.20775 26.753475,11.25 L25.643475,11.25 C27.516975,12.3165 29.154975,13.5465 30.771975,14.76225 C35.187975,18.08175 39.753975,21.5145 48.753975,21.5145 M64.372725,11.25 L63.381225,11.25 C59.803725,13.67775 55.575225,15.702 48.753975,15.702 C41.932725,15.702 37.704975,13.67775 34.128225,11.25 L33.134475,11.25 C36.928725,13.92975 41.332725,16.2645 48.753975,16.2645 C56.174475,16.2645 60.579225,13.92975 64.372725,11.25 M31.110225,72.06225 C26.694225,68.74275 22.128975,65.31 13.128225,65.31 C12.477225,65.31 11.856225,65.3325 11.250225,65.367 L11.250225,65.93175 C11.855475,65.8965 12.476475,65.8725 13.128225,65.8725 C21.940725,65.8725 26.430225,69.24825 30.771975,72.51225 C35.187975,75.83175 39.753975,79.2645 48.753975,79.2645 C48.894975,79.2645 49.026225,79.25625 49.164975,79.254 C49.690725,79.053 50.211975,78.84375 50.733225,78.63525 C50.095725,78.67425 49.442475,78.702 48.753975,78.702 C39.941475,78.702 35.451975,75.32625 31.110225,72.06225 M13.128225,70.56 C12.477225,70.56 11.856225,70.5825 11.250225,70.617 L11.250225,71.18175 C11.855475,71.1465 12.476475,71.1225 13.128225,71.1225 C21.940725,71.1225 26.430225,74.49825 30.771975,77.76225 C33.141975,79.54425 35.563725,81.35325 38.682975,82.65225 C38.985225,82.57125 39.287475,82.4865 39.588975,82.4025 C36.179475,81.11475 33.617475,79.197 31.110225,77.31225 C26.694225,73.99275 22.128975,70.56 13.128225,70.56 M66.397725,61.56225 C62.055975,64.82625 57.567225,68.202 48.753975,68.202 C39.941475,68.202 35.451975,64.82625 31.110225,61.56225 C26.694225,58.24275 22.128975,54.81 13.128225,54.81 C12.477225,54.81 11.856225,54.8325 11.250225,54.867 L11.250225,55.43175 C11.855475,55.3965 12.476475,55.3725 13.128225,55.3725 C21.940725,55.3725 26.430225,58.74825 30.771975,62.01225 C35.187975,65.33175 39.753975,68.7645 48.753975,68.7645 C57.754725,68.7645 62.319975,65.331 66.735975,62.0115 C71.077725,58.7475 75.567225,55.3725 84.378975,55.3725 C84.790725,55.3725 85.185225,55.3875 85.578975,55.40175 C85.671975,55.22025 85.755975,55.035 85.830225,54.8445 C85.357725,54.82425 84.877725,54.81 84.378975,54.81 C75.379725,54.81 70.813725,58.24275 66.397725,61.56225 M66.397725,56.31225 C62.055975,59.57625 57.567225,62.952 48.753975,62.952 C39.941475,62.952 35.451975,59.57625 31.110225,56.31225 C26.694225,52.99275 22.128975,49.56 13.128225,49.56 C12.477225,49.56 11.856225,49.5825 11.250225,49.617 L11.250225,50.18175 C11.855475,50.1465 12.476475,50.1225 13.128225,50.1225 C21.940725,50.1225 26.430225,53.49825 30.771975,56.76225 C35.187975,60.08175 39.753975,63.5145 48.753975,63.5145 C57.754725,63.5145 62.319975,60.081 66.735975,56.7615 C71.077725,53.4975 75.567225,50.1225 84.378975,50.1225 C85.027725,50.1225 85.646475,50.14575 86.250225,50.181 L86.250225,49.617 C85.646475,49.5825 85.026975,49.56 84.378975,49.56 C75.379725,49.56 70.813725,52.99275 66.397725,56.31225 M66.397725,51.06225 C62.055975,54.32625 57.567225,57.702 48.753975,57.702 C39.941475,57.702 35.451975,54.32625 31.110225,51.06225 C26.694225,47.74275 22.128975,44.31 13.128225,44.31 C12.477225,44.31 11.856225,44.3325 11.250225,44.367 L11.250225,44.93175 C11.855475,44.8965 12.476475,44.8725 13.128225,44.8725 C21.940725,44.8725 26.430225,48.24825 30.771975,51.51225 C35.187975,54.83175 39.753975,58.2645 48.753975,58.2645 C57.754725,58.2645 62.319975,54.831 66.735975,51.5115 C71.077725,48.2475 75.567225,44.8725 84.378975,44.8725 C85.027725,44.8725 85.646475,44.89575 86.250225,44.931 L86.250225,44.367 C85.646475,44.3325 85.026975,44.31 84.378975,44.31 C75.379725,44.31 70.813725,47.74275 66.397725,51.06225" id="Fill-11" fill="#FFFFFF" opacity="0.5"></path>
                    <path d="M119.25,81.75 C119.25,84.23475 117.23475,86.25 114.75,86.25 C112.26525,86.25 110.25,84.23475 110.25,81.75 C110.25,79.26525 112.26525,77.25 114.75,77.25 C117.23475,77.25 119.25,79.26525 119.25,81.75" id="Fill-13" fill="#00DFED"></path>
                    <path d="M102.75,81.75 C102.75,84.23475 100.73475,86.25 98.25,86.25 C95.76525,86.25 93.75,84.23475 93.75,81.75 C93.75,79.26525 95.76525,77.25 98.25,77.25 C100.73475,77.25 102.75,79.26525 102.75,81.75" id="Fill-15" fill="#00DFED"></path>
                    <path d="M78.75,36.75 C78.75,38.4 77.4,39.75 75.75,39.75 L21.75,39.75 C20.1,39.75 18.75,38.4 18.75,36.75 L18.75,21.75 C18.75,20.1 20.1,18.75 21.75,18.75 L75.75,18.75 C77.4,18.75 78.75,20.1 78.75,21.75 L78.75,36.75 Z" id="Fill-19" fill="#001CB0"></path>
                    <path d="M30.752925,29.4111 C30.776925,29.4111 30.875175,29.5086 31.046175,29.70435 L31.046175,33.86385 C31.046175,33.8886 30.948675,33.98685 30.752925,34.1571 C30.728925,34.1571 30.435675,33.86385 29.873925,33.2781 L29.873925,30.2901 C29.873925,30.2661 30.167175,29.97285 30.752925,29.4111 M26.329425,28.61985 L29.786175,28.61985 C29.810175,28.61985 30.005925,28.8156 30.371925,29.20635 L30.371925,29.2356 C30.371925,29.2596 30.176175,29.45535 29.786175,29.82135 L26.329425,29.82135 C26.304675,29.82135 26.109675,29.6256 25.742925,29.2356 L25.742925,29.20635 C25.742925,29.1816 25.938675,28.9866 26.329425,28.61985 M26.036175,24.02085 L30.196425,24.02085 C30.220425,24.02085 30.318675,24.1176 30.488925,24.31335 C30.488925,24.33735 30.196425,24.6306 29.610675,25.19235 L26.621925,25.19235 C26.597925,25.19235 26.304675,24.8991 25.742925,24.31335 C25.742925,24.28935 25.840425,24.1911 26.036175,24.02085 M26.592675,33.30735 L29.581425,33.30735 C29.605425,33.30735 29.897925,33.6006 30.459675,34.18635 C30.459675,34.21035 30.362175,34.3086 30.167175,34.4796 L26.006925,34.4796 C25.982925,34.4796 25.884675,34.3821 25.713675,34.18635 C25.713675,34.16235 26.006925,33.8691 26.592675,33.30735 M25.450425,24.3426 C25.474425,24.3426 25.767675,24.63585 26.329425,25.2216 L26.329425,28.2096 C26.329425,28.23435 26.036175,28.52685 25.450425,29.0886 C25.425675,29.0886 25.328175,28.9911 25.157175,28.7961 L25.157175,24.63585 C25.157175,24.61185 25.254675,24.5136 25.450425,24.3426" id="Fill-21" fill="#CCCCCC"></path>
                    <path d="M44.465325,29.38185 C44.489325,29.38185 44.782575,29.6751 45.344325,30.26085 L45.344325,33.6006 C45.344325,33.6246 45.051075,33.91785 44.465325,34.4796 C44.441325,34.4796 44.343075,34.3821 44.172075,34.18635 L44.172075,29.6751 C44.172075,29.65035 44.269575,29.55285 44.465325,29.38185 M45.051075,24.31335 C45.075075,24.31335 45.173325,24.41085 45.344325,24.6066 L45.344325,28.76685 C45.344325,28.79085 45.246825,28.8891 45.051075,29.05935 C45.027075,29.05935 44.733825,28.76685 44.172075,28.18035 L44.172075,25.19235 C44.172075,25.16835 44.465325,24.8751 45.051075,24.31335 M40.334325,24.02085 L44.494575,24.02085 C44.518575,24.02085 44.616825,24.1176 44.787825,24.31335 C44.787825,24.33735 44.494575,24.6306 43.908825,25.19235 L40.920075,25.19235 C40.896075,25.19235 40.603575,24.8991 40.041825,24.31335 C40.041825,24.28935 40.138575,24.1911 40.334325,24.02085 M39.748575,29.38185 C39.772575,29.38185 39.870825,29.47935 40.041825,29.6751 L40.041825,34.18635 C40.041825,34.21035 39.944325,34.3086 39.748575,34.4796 C39.724575,34.4796 39.431325,34.18635 38.869575,33.6006 L38.869575,30.26085 C38.869575,30.23685 39.162825,29.9436 39.748575,29.38185 M39.748575,24.31335 C39.772575,24.31335 39.870825,24.41085 40.041825,24.6066 L40.041825,28.76685 C40.041825,28.79085 39.944325,28.8891 39.748575,29.05935 C39.724575,29.05935 39.431325,28.76685 38.869575,28.18035 L38.869575,25.19235 C38.869575,25.16835 39.162825,24.8751 39.748575,24.31335 M35.031825,24.02085 L39.192075,24.02085 C39.216075,24.02085 39.314325,24.1176 39.484575,24.31335 C39.484575,24.33735 39.192075,24.6306 38.606325,25.19235 L35.617575,25.19235 C35.593575,25.19235 35.300325,24.8991 34.738575,24.31335 C34.738575,24.28935 34.836075,24.1911 35.031825,24.02085 M35.031825,29.38185 C35.055825,29.38185 35.154075,29.47935 35.324325,29.6751 L35.324325,34.18635 C35.324325,34.21035 35.227575,34.3086 35.031825,34.4796 C35.007825,34.4796 34.714575,34.18635 34.152825,33.6006 L34.152825,30.26085 C34.152825,30.23685 34.446075,29.9436 35.031825,29.38185 M34.446075,24.3426 C34.470075,24.3426 34.762575,24.63585 35.324325,25.2216 L35.324325,28.21035 C35.324325,28.23435 35.031825,28.52685 34.446075,29.0886 C34.421325,29.0886 34.323825,28.9911 34.152825,28.7961 L34.152825,24.63585 C34.152825,24.61185 34.250325,24.5136 34.446075,24.3426" id="Fill-23" fill="#CCCCCC"></path>
                    <path d="M54.071025,29.38185 C54.095025,29.38185 54.193275,29.47935 54.364275,29.6751 L54.364275,34.18635 C54.364275,34.21035 54.266775,34.3086 54.071025,34.4796 C54.047025,34.4796 53.753775,34.18635 53.192025,33.6006 L53.192025,30.26085 C53.192025,30.23685 53.485275,29.9436 54.071025,29.38185 M54.071025,24.31335 C54.095025,24.31335 54.193275,24.41085 54.364275,24.6066 L54.364275,28.76685 C54.364275,28.79085 54.266775,28.8891 54.071025,29.05935 C54.047025,29.05935 53.753775,28.76685 53.192025,28.18035 L53.192025,25.19235 C53.192025,25.16835 53.485275,24.8751 54.071025,24.31335 M49.647525,28.61985 L53.104275,28.61985 C53.128275,28.61985 53.324025,28.8156 53.690025,29.20635 L53.690025,29.2356 C53.690025,29.2596 53.494275,29.45535 53.104275,29.82135 L49.647525,29.82135 C49.622775,29.82135 49.427775,29.6256 49.061025,29.2356 L49.061025,29.20635 C49.061025,29.1816 49.256775,28.9866 49.647525,28.61985 M49.354275,24.02085 L53.514525,24.02085 C53.538525,24.02085 53.636775,24.1176 53.807025,24.31335 C53.807025,24.33735 53.514525,24.6306 52.928775,25.19235 L49.940025,25.19235 C49.916025,25.19235 49.622775,24.8991 49.061025,24.31335 C49.061025,24.28935 49.158525,24.1911 49.354275,24.02085 M48.768525,29.38185 C48.792525,29.38185 49.085775,29.6751 49.647525,30.26085 L49.647525,33.6006 C49.647525,33.6246 49.354275,33.91785 48.768525,34.4796 C48.743775,34.4796 48.646275,34.3821 48.475275,34.18635 L48.475275,29.6751 C48.475275,29.65035 48.572775,29.55285 48.768525,29.38185 M48.768525,24.3426 C48.792525,24.3426 49.085775,24.63585 49.647525,25.2216 L49.647525,28.21035 C49.647525,28.23435 49.354275,28.52685 48.768525,29.0886 C48.743775,29.0886 48.646275,28.9911 48.475275,28.7961 L48.475275,24.63585 C48.475275,24.61185 48.572775,24.5136 48.768525,24.3426" id="Fill-25" fill="#CCCCCC"></path>
                    <path d="M63.0696,24.313425 C63.0936,24.313425 63.19185,24.410925 63.36285,24.606675 L63.36285,28.766175 C63.36285,28.790925 63.26535,28.889175 63.0696,29.059425 C63.0456,29.059425 62.75235,28.766175 62.1906,28.180425 L62.1906,25.192425 C62.1906,25.168425 62.48385,24.875175 63.0696,24.313425 L63.0696,24.313425 Z M60.6966,30.113925 L61.54635,30.113925 C61.9566,30.324675 62.3076,30.958425 62.60085,32.018175 C62.67885,32.184675 62.93235,32.877675 63.36285,34.098675 C63.26535,34.294425 63.21585,34.411425 63.21585,34.450425 L63.1866,34.450425 C62.38635,34.162425 61.98585,33.927675 61.98585,33.746925 C61.39935,32.081925 60.95085,30.881175 60.6381,30.143175 L60.6966,30.113925 Z M58.6461,28.619925 L62.10285,28.619925 C62.12685,28.619925 62.3226,28.815675 62.6886,29.205675 L62.6886,29.234925 C62.6886,29.259675 62.49285,29.454675 62.10285,29.821425 L58.6461,29.821425 C58.62135,29.821425 58.42635,29.625675 58.0596,29.234925 L58.0596,29.205675 C58.0596,29.181675 58.25535,28.985925 58.6461,28.619925 L58.6461,28.619925 Z M58.35285,24.020175 L62.5131,24.020175 C62.5371,24.020175 62.63535,24.117675 62.8056,24.313425 C62.8056,24.337425 62.5131,24.630675 61.92735,25.192425 L58.9386,25.192425 C58.9146,25.192425 58.62135,24.899175 58.0596,24.313425 C58.0596,24.289425 58.1571,24.191175 58.35285,24.020175 L58.35285,24.020175 Z M57.7671,29.381925 C57.7911,29.381925 58.08435,29.674425 58.6461,30.260925 L58.6461,33.600675 C58.6461,33.624675 58.35285,33.917925 57.7671,34.479675 C57.74235,34.479675 57.64485,34.382175 57.47385,34.186425 L57.47385,29.674425 C57.47385,29.650425 57.57135,29.552175 57.7671,29.381925 L57.7671,29.381925 Z M57.7671,24.342675 C57.7911,24.342675 58.08435,24.635925 58.6461,25.221675 L58.6461,28.209675 C58.6461,28.234425 58.35285,28.526925 57.7671,29.088675 C57.74235,29.088675 57.64485,28.991175 57.47385,28.796175 L57.47385,24.635925 C57.47385,24.611175 57.57135,24.513675 57.7671,24.342675 L57.7671,24.342675 Z" id="Fill-27" fill="#CCCCCC"></path>
                    <path d="M69.88185,30.377925 C69.90585,30.377925 70.0041,30.475425 70.1751,30.671175 L70.1751,34.186425 C70.1751,34.210425 70.0776,34.308675 69.88185,34.479675 C69.85785,34.479675 69.5646,34.186425 69.00285,33.600675 L69.00285,31.256925 C69.00285,31.232925 69.2961,30.939675 69.88185,30.377925 M69.2961,25.719675 C69.3201,25.719675 69.61335,26.012925 70.1751,26.598675 L70.1751,28.971675 C70.1751,28.995675 69.88185,29.288925 69.2961,29.850675 C69.2721,29.850675 69.17385,29.753175 69.00285,29.557425 L69.00285,26.012925 C69.00285,25.988175 69.10035,25.890675 69.2961,25.719675 M66.74685,24.020175 L72.0501,24.020175 C72.0741,24.020175 72.17235,24.117675 72.3426,24.313425 C72.3426,24.337425 72.0501,24.630675 71.4636,25.192425 L67.33335,25.192425 C67.3086,25.192425 67.0161,24.899175 66.45435,24.313425 C66.45435,24.289425 66.55185,24.191175 66.74685,24.020175" id="Fill-29" fill="#CCCCCC"></path>
                </g>
                <path d="M194,154 C222.5,154 222.5,168 251,168" id="Page-1-Copy-3" stroke="#001CB0" stroke-width="4"></path>
            </g>
        </g>
    </g>
</svg>