<?xml version="1.0" encoding="UTF-8"?>
<svg width="22px" height="20px" viewBox="0 0 22 20" version="1.1" xmlns="http://www.w3.org/2000/svg" xmlns:xlink="http://www.w3.org/1999/xlink">
    <!-- Generator: Sketch 43.2 (39069) - http://www.bohemiancoding.com/sketch -->
    <title>plug_right_icon</title>
    <desc>Created with Sketch.</desc>
    <defs></defs>
    <g id="Page-1" stroke="none" stroke-width="1" fill="none" fill-rule="evenodd">
        <g id="plug_right_icon" fill-rule="nonzero" fill="#FFE344">
            <path d="M6.84138964,16.15784 L10.584199,16.15784 C13.5739021,16.15784 16.2685092,13.3051057 16.2685092,10.0266775 C16.2685256,9.70693647 16.249252,9.36626101 16.1803878,8.90568357 C16.0733148,8.18955708 15.8766842,7.48605727 15.5735885,6.84168352 C14.7036449,4.99220595 13.127189,3.90118673 10.4550606,3.8418134 L6.84138964,3.8418134 L6.84138964,16.15784 Z M6.84215999,1 L10.5339519,1 C14.3487929,1.0842689 16.8767819,2.83381649 18.1929492,5.63195429 C18.6235775,6.54745886 18.8933834,7.51276355 19.0388097,8.48540422 C19.1314416,9.10494586 19.1581999,9.5779169 19.1581769,10.0237368 C19.1581768,14.8567219 15.1119881,19 10.5339519,19 L6.84215999,19 C5.38585682,19 4.03137384,17.6201109 4.03138365,16.15784 L4,3.8418134 C4.00163982,2.38626101 5.13302331,1 6.84215999,1 Z M4,3.631871 L4.00000981,3.62659267 C4.00000058,3.62979645 4,3.63083366 4,3.631871 Z" id="socket_icon"></path>
        </g>
    </g>
</svg>