<?xml version="1.0" encoding="UTF-8" standalone="no"?>
<svg width="185px" height="147px" viewBox="0 0 185 147" version="1.1" xmlns="http://www.w3.org/2000/svg" xmlns:xlink="http://www.w3.org/1999/xlink">
    <!-- Generator: Sketch 43.2 (39069) - http://www.bohemiancoding.com/sketch -->
    <title>chat</title>
    <desc>Created with Sketch.</desc>
    <defs></defs>
    <g id="Mobile" stroke="none" stroke-width="1" fill="none" fill-rule="evenodd">
        <g id="Go-to-chat" transform="translate(-63.000000, -116.000000)">
            <g id="chat" transform="translate(63.000000, 116.000000)">
                <path d="M127,41 L40,41 L40,52 L53,52 L53,79 L36,79 L36,100.5 L18.8,79 L5.99751741,79 C2.68187765,79 0,76.3125081 0,72.9973188 L0,6.00268121 C0,2.68511093 2.68518001,0 5.99751741,0 L121.002483,0 C124.318122,0 127,2.68749192 127,6.00268121 L127,41 Z M14,21 L14,32 L111,32 L111,21 L14,21 Z" id="Combined-Shape" fill="#00E3F4"></path>
                <path d="M166.2,125 L149,146.5 L149,125 L63.9975174,125 C60.68518,125 58,122.314889 58,118.997319 L58,52.0026812 C58,48.6874919 60.6818776,46 63.9975174,46 L179.002483,46 C182.31482,46 185,48.6851109 185,52.0026812 L185,118.997319 C185,122.312508 182.318122,125 179.002483,125 L166.2,125 Z M74,67 L74,78 L171,78 L171,67 L74,67 Z M74,87 L74,98 L145,98 L145,87 L74,87 Z" id="Combined-Shape" fill="#000DB3"></path>
            </g>
        </g>
    </g>
</svg>