<?xml version="1.0" encoding="UTF-8"?>
<svg width="62px" height="57px" viewBox="0 0 62 57" version="1.1" xmlns="http://www.w3.org/2000/svg" xmlns:xlink="http://www.w3.org/1999/xlink">
    <!-- Generator: Sketch 43.2 (39069) - http://www.bohemiancoding.com/sketch -->
    <title>ready_to_connect_icon</title>
    <desc>Created with Sketch.</desc>
    <defs>
        <polygon id="path-1" points="12 53.6726243 38 53.6726243 38 24.9583312 12 24.9583312"></polygon>
        <polygon id="path-3" points="-2.30926389e-14 27.5146232 22 27.5146232 22 0.244453228 -2.30926199e-14 0.244453228"></polygon>
    </defs>
    <g id="Page-1" stroke="none" stroke-width="1" fill="none" fill-rule="evenodd">
        <g id="ready_to_connect_icon">
            <g id="tick-copy-3" transform="translate(4.000000, 2.000000)">
                <g id="Group-6" transform="translate(27.000000, 26.586674) rotate(-270.000000) translate(-27.000000, -26.586674) translate(0.500000, -0.413326)">
                    <ellipse id="Oval" fill="#00DFED" cx="26.0450189" cy="26.7733584" rx="25.9879026" ry="26.0714351"></ellipse>
                    <mask id="mask-2" fill="white">
                        <use xlink:href="#path-1"></use>
                    </mask>
                    <g id="Clip-5"></g>
                    <path d="M33.6945758,35.1484375 C33.6945758,38.8048396 30.7296771,41.6414452 27.033362,41.6414452 C23.3370469,41.6414452 20.2876025,38.8048396 20.2876025,35.1484375 L20.2876025,33.28925 C20.2876025,33.3512229 33.6945758,33.3512229 33.6945758,33.28925 L33.6945758,35.1484375 Z M24.4020869,26.6439994 C24.4020869,25.7763786 23.7129434,25.0946765 22.8358517,25.0946765 C21.9587599,25.0946765 21.2696165,25.7763786 21.2696165,26.6439994 L21.2696165,30.166748 L18.7009907,30.166748 C17.823899,30.166748 17.1347555,30.8484501 17.1347555,31.716071 L17.1347555,35.1342889 C17.1347555,39.9681764 20.7057718,43.996416 25.4044774,44.6787378 L25.4044774,53.1976737 C25.4044774,54.0652945 26.0936209,54.7469966 26.9707126,54.7469966 C27.8484308,54.7469966 28.5369478,54.0652945 28.5369478,53.1976737 L28.5369478,44.6787378 C33.2356534,43.9344431 36.8066697,39.9681764 36.8066697,35.1342889 L36.8066697,31.654098 C36.8066697,30.7864772 36.1175262,30.1047751 35.2404345,30.1047751 L32.6718087,30.1047751 L32.6718087,26.5820265 C32.6718087,25.7144056 31.9826652,25.0327036 31.1055735,25.0327036 C30.2284818,25.0327036 29.5393383,25.7144056 29.5393383,26.5820265 L29.5393383,30.1047751 L24.4020869,30.1047751 L24.4020869,26.6439994 Z" id="Fill-4" stroke="#0014AF" stroke-width="0.2" fill="#0014AF" mask="url(#mask-2)"></path>
                </g>
                <g id="Group-6-Copy" transform="translate(42.000000, 27.000000) scale(-1, 1) rotate(-270.000000) translate(-42.000000, -27.000000) translate(31.000000, 13.000000)">
                    <mask id="mask-4" fill="white">
                        <use xlink:href="#path-3"></use>
                    </mask>
                    <g id="Clip-5"></g>
                    <path d="M2.68164063,3.17573905 C1.81628213,3.17573905 1.13635761,3.84832172 1.13635761,4.70433602 L1.13635761,8.00610548 C1.13635761,12.775328 4.83632905,16.6593254 9.4721781,17.3325195 L9.4721781,25.8108715 C9.4721781,26.6668858 10.1521026,27.3394685 11.0174611,27.3394685 C11.8834377,27.3394685 12.5627441,26.6668858 12.5627441,25.8108715 L12.5627441,17.3325195 C17.1985932,16.5981815 20.9348145,12.775328 20.9348145,8.00610548 L20.9348145,4.64319214 C20.9348145,3.78717784 20.2548899,3.11459517 19.3895314,3.11459517 L2.68164063,3.17573905 Z M17.7329102,8.13656246 C17.7329102,11.7440513 14.7953054,14.5512695 11.1484375,14.5512695 C7.50156958,14.5512695 4.28369141,11.7440513 4.28369141,8.13656246 L4.28369141,6.30224609 L17.7329102,6.30224609 L17.7329102,8.13656246 Z" id="Fill-4" stroke="#0014AF" stroke-width="0.2" fill="#0014AF" mask="url(#mask-4)"></path>
                </g>
            </g>
        </g>
    </g>
</svg>