<?xml version="1.0" encoding="UTF-8"?>
<svg width="62px" height="67px" viewBox="0 0 62 67" version="1.1" xmlns="http://www.w3.org/2000/svg" xmlns:xlink="http://www.w3.org/1999/xlink">
    <!-- Generator: Sketch 43.2 (39069) - http://www.bohemiancoding.com/sketch -->
    <title>welcome_home_icon</title>
    <desc>Created with Sketch.</desc>
    <defs></defs>
    <g id="Page-1" stroke="none" stroke-width="1" fill="none" fill-rule="evenodd">
        <g id="welcome_home_icon">
            <g id="Group-3-Copy" transform="translate(5.000000, 9.000000)">
                <path d="M26.6903029,0.217662123 C26.6903029,0.217662123 26.2697729,0 26.0409721,0 C25.8121714,0 25.5839499,0.0735188555 25.3916414,0.217662123 C25.1993329,0.361805391 1.43678699,20.49795 1.43678699,20.49795 C1.1651223,20.6999822 1.00756836,21.0195287 1.00756836,21.3575997 L0.93767858,49.9534814 C0.93767858,49.9534814 1.42134599,51.0313721 2.01622795,51.0313721 C2.61110991,51.0313721 50.9324156,51.0313721 50.9324156,51.0313721 C51.5278768,51.0313721 52.010965,50.548579 52.010965,49.9534814 L52.0228271,21.3575997 C52.0228271,21.0195287 51.8652732,20.6999822 51.5936085,20.49795 L26.6903029,0.217662123 Z" id="Combined-Shape" fill="#00DFED"></path>
                <rect id="Rectangle-3-Copy" fill="#0014AF" x="28" y="23" width="8.00396729" height="8.003479" rx="0.8"></rect>
                <path d="M28,34.7966644 C28,34.3566788 28.3647123,34 28.796713,34 L35.2072543,34 C35.6472667,34 36.0039673,34.36469 36.0039673,34.7966644 L36.0039673,41.2068147 C36.0039673,41.6468002 35.639255,42.003479 35.2072543,42.003479 L28.796713,42.003479 C28.3567005,42.003479 28,41.638789 28,41.2068147 L28,34.7966644 Z" id="Rectangle-3-Copy-5" fill="#0014AF"></path>
                <rect id="Rectangle-3-Copy-4" fill="#0014AF" x="17" y="23" width="8.00396729" height="8.003479" rx="0.8"></rect>
                <path d="M17,34.7966644 C17,34.3566788 17.3647123,34 17.796713,34 L24.2072543,34 C24.6472667,34 25.0039673,34.36469 25.0039673,34.7966644 L25.0039673,41.2068147 C25.0039673,41.6468002 24.639255,42.003479 24.2072543,42.003479 L17.796713,42.003479 C17.3567005,42.003479 17,41.638789 17,41.2068147 L17,34.7966644 Z" id="Rectangle-3-Copy-6" fill="#0014AF"></path>
            </g>
        </g>
    </g>
</svg>