<?xml version="1.0" encoding="UTF-8"?>
<svg width="60px" height="61px" viewBox="0 0 60 61" version="1.1" xmlns="http://www.w3.org/2000/svg" xmlns:xlink="http://www.w3.org/1999/xlink">
    <!-- Generator: Sketch 43.2 (39069) - http://www.bohemiancoding.com/sketch -->
    <title>looking_search_icon</title>
    <desc>Created with Sketch.</desc>
    <defs></defs>
    <g id="Page-1" stroke="none" stroke-width="1" fill="none" fill-rule="evenodd">
        <g id="looking_search_icon">
            <circle id="Oval" fill="#00DFED" cx="30" cy="31" r="27"></circle>
            <path d="M37.2114329,35.5476074 C39.8252523,38.1607817 40.7981346,39.3935266 43.4073092,42.0114746 C44.1179523,42.724569 44.1142107,43.8390954 43.4073092,44.5568345 C42.6916344,45.2838631 41.5233569,45.3061836 40.7998118,44.5849609 L34.2867775,38.1411744 C33.7246367,37.5755501 33.6196143,36.8812926 33.9079744,36.1448455 C34.1782716,35.4542006 34.8920111,34.9945018 35.6585199,35.0000497 C36.1177026,35.0241764 36.8590789,35.1953824 37.2114329,35.5476074 Z" id="Fill-4" fill="#0014AF"></path>
            <path d="M39.7522702,29.0311594 C39.7175376,35.1983008 34.7559383,40.0671734 28.621799,39.9992989 C22.6103426,39.9325914 17.7163599,35.0285174 17.7526491,28.9345988 C17.7889383,22.8405829 22.7438245,17.9930062 28.7788252,18.0000076 C34.9135482,18.0278186 39.786419,22.9774987 39.7522702,29.0311594 Z" id="Fill-1" stroke="#0014AF" stroke-width="0.5" fill="#0014AF"></path>
            <path d="M36.7502929,28.8113569 C36.6520562,24.5594027 33.143535,20.8749829 28.5058138,21.0032521 C24.2133922,21.122034 20.6179292,24.6964003 20.7563148,29.2583068 C20.8861581,33.5361615 24.390503,36.9946871 28.7633173,37 C33.3332694,36.9817843 36.8521363,33.2238374 36.7502929,28.8113569 Z" id="Path" fill="#00DFED"></path>
        </g>
    </g>
</svg>