<?xml version="1.0" encoding="UTF-8"?>
<svg width="64px" height="64px" viewBox="0 0 64 64" version="1.1" xmlns="http://www.w3.org/2000/svg" xmlns:xlink="http://www.w3.org/1999/xlink">
    <!-- Generator: Sketch 44 (41411) - http://www.bohemiancoding.com/sketch -->
    <title>status_clock</title>
    <desc>Created with Sketch.</desc>
    <defs></defs>
    <g id="Page-1" stroke="none" stroke-width="1" fill="none" fill-rule="evenodd">
        <g id="status_clock" fill-rule="nonzero">
            <g id="Exclamation-Icon" transform="translate(-7.000000, -2.000000)">
                <g id="almost_done_clock_icon" transform="translate(7.000000, 2.000000)">
                    <path d="M0,4.99531509 C0,2.23647874 2.2402674,0 4.99531509,0 L59.0046849,0 C61.7635212,0 64,2.2402674 64,4.99531509 L64,59.0046849 C64,61.7635212 61.7597326,64 59.0046849,64 L4.99531509,64 C2.23647874,64 0,61.7597326 0,59.0046849 L0,4.99531509 Z" id="Rectangle-4-Copy" fill="#00DFED"></path>
                    <circle id="Oval-2" fill="#0014AF" cx="32" cy="32" r="24"></circle>
                    <path d="M19.0901308,23.6838539 C19.6839943,23.1103665 20.6334615,23.1301387 21.2089523,23.7260769 L28.0238284,30.7830877 L38.6321894,20.5387127 C39.2278429,19.9634967 40.1684149,19.9711534 40.7518867,20.5753563 L40.8277472,20.6539121 C41.4027701,21.2493658 41.3899048,22.1946542 40.8000752,22.7642462 L29.0219585,34.1382412 C28.4316527,34.7082929 27.483428,34.6840358 26.9188887,34.0994381 L18.9707265,25.8688752 C18.3995389,25.2773932 18.4201415,24.3308551 19.0117848,23.7595116 L19.0901308,23.6838539 Z" id="Path-3-Copy" stroke="#FFFFFF" stroke-width="0.5" fill="#FFFFFF" transform="translate(29.902875, 27.333376) rotate(-46.000000) translate(-29.902875, -27.333376) "></path>
                </g>
            </g>
        </g>
    </g>
</svg>