<?xml version="1.0" encoding="UTF-8" standalone="no"?>
<svg width="76px" height="70px" viewBox="0 0 76 70" version="1.1" xmlns="http://www.w3.org/2000/svg" xmlns:xlink="http://www.w3.org/1999/xlink">
    <!-- Generator: Sketch 43.2 (39069) - http://www.bohemiancoding.com/sketch -->
    <title>tick icon</title>
    <desc>Created with Sketch.</desc>
    <defs></defs>
    <g id="Desktop" stroke="none" stroke-width="1" fill="none" fill-rule="evenodd">
        <g id="In-bill-period-overdue-(lower)" transform="translate(-562.000000, -122.000000)">
            <g id="tick-icon" transform="translate(562.000000, 122.000000)">
                <g id="Page-1-Copy-2">
                    <path d="M60.5226465,64.1437568 L5.69356975,64.1437568 L5.69356975,7.74813507 L50.9588727,7.74813507 L56.4617078,1.89189189 L2.84678488,1.89189189 C1.27535962,1.89189189 0,3.20369036 0,4.82001348 L0,67.0718784 C0,68.6882015 1.27535962,70 2.84678488,70 L63.3694313,70 C64.9408566,70 66.2162162,68.6882015 66.2162162,67.0718784 L66.2162162,26.4383352 L60.5226465,32.4688016 L60.5226465,64.1437568 Z" id="Fill-1" fill="#48E4C2"></path>
                    <path d="M68.2954914,0.370499622 C68.0665432,0.143050047 67.7390603,0.00858300282 67.3753514,0 C67.031929,0.00286100094 66.6972009,0.144480548 66.4639056,0.387665628 L35.212472,32.3107141 L26.2255294,23.4387502 C25.9748456,23.1927041 25.6459136,23.0696811 25.3184307,23.0696811 C24.9894987,23.0696811 24.6605668,23.1927041 24.411332,23.4401807 L17.4037773,30.3566505 C17.1603387,30.5955441 17.027027,30.9145457 17.027027,31.2521438 C17.027027,31.5897419 17.1603387,31.907313 17.4037773,32.1490676 L34.0633837,48.5898095 L34.4169493,48.8873536 C34.6502447,49.0819017 34.9458487,49.1891892 35.248698,49.1891892 C35.5921203,49.1891892 35.912358,49.0575831 36.1514495,48.8215506 L37.5917947,47.4153686 L75.3160875,9.06508148 C75.8015157,8.57012832 75.7942705,7.77333956 75.3015971,7.2869694 L68.2954914,0.370499622 Z" id="Fill-4" fill="#006CE5"></path>
                </g>
            </g>
        </g>
    </g>
</svg>