<?xml version="1.0" encoding="UTF-8" standalone="no"?>
<svg width="59px" height="56px" viewBox="0 0 59 56" version="1.1" xmlns="http://www.w3.org/2000/svg" xmlns:xlink="http://www.w3.org/1999/xlink">
    <!-- Generator: Sketch 42 (36781) - http://www.bohemiancoding.com/sketch -->
    <title>tick_success</title>
    <desc>Created with Sketch.</desc>
    <defs></defs>
    <g id="Page-1" stroke="none" stroke-width="1" fill="none" fill-rule="evenodd">
        <g id="07---Success" transform="translate(-300.000000, -72.000000)">
            <g id="tick_success" transform="translate(300.000000, 72.000000)">
                <g id="Page-1-Copy-3">
                    <path d="M47.186049,51.3150055 L4.43895099,51.3150055 L4.43895099,6.19850805 L39.7297211,6.19850805 L44.0199672,1.51351351 L2.21947549,1.51351351 C0.994325021,1.51351351 0,2.56295229 0,3.85601078 L0,53.6575027 C0,54.9505612 0.994325021,56 2.21947549,56 L49.4055245,56 C50.630675,56 51.625,54.9505612 51.625,53.6575027 L51.625,21.1506681 L47.186049,25.9750412 L47.186049,51.3150055 Z" id="Fill-1" fill="#50E3C2"></path>
                    <path d="M53.246092,0.296399698 C53.0675942,0.114440038 52.8122745,0.00686640226 52.5287114,0 C52.2609647,0.00228880075 51.9999963,0.115584438 51.8181092,0.310132502 L27.4531523,25.8485713 L20.4465467,18.7510002 C20.2511028,18.5541633 19.9946534,18.4557449 19.7393336,18.4557449 C19.4828842,18.4557449 19.2264348,18.5541633 19.0321206,18.7521446 L13.5687306,24.2853204 C13.3789355,24.4764353 13.275,24.7316365 13.275,25.001715 C13.275,25.2717935 13.3789355,25.5258504 13.5687306,25.7192541 L26.5572738,38.8718476 L26.8329287,39.1098829 C27.0148158,39.2655213 27.2452813,39.3513514 27.4813956,39.3513514 C27.7491424,39.3513514 27.9988134,39.2460665 28.1852194,39.0572405 L29.3081743,37.9322949 L58.7196496,7.25206519 C59.0981103,6.85610266 59.0924616,6.21867165 58.7083523,5.82957552 L53.246092,0.296399698 Z" id="Fill-4" fill="#FFFFFF"></path>
                </g>
            </g>
        </g>
    </g>
</svg>