<?xml version="1.0" encoding="UTF-8" standalone="no"?>
<svg width="15px" height="14px" viewBox="0 0 15 14" version="1.1" xmlns="http://www.w3.org/2000/svg" xmlns:xlink="http://www.w3.org/1999/xlink">
    <!-- Generator: Sketch 42 (36781) - http://www.bohemiancoding.com/sketch -->
    <title>estimated Grey </title>
    <desc>Created with Sketch.</desc>
    <defs></defs>
    <g id="Smart-meter-V2" stroke="none" stroke-width="1" fill="none" fill-rule="evenodd">
        <g id="smart-meter-billing_monthly-01" transform="translate(-594.000000, -282.000000)">
            <g id="estimated-Grey-" transform="translate(589.000000, 278.000000)">
                <g id="Office-25-Copy" transform="translate(6.000000, 4.000000)">
                    <g id="Layer_1">
                        <g id="Group">
                            <path d="M7.30984848,12.6298485 C8.50672768,11.4329685 8.82978018,9.69364721 8.27983596,8.20346465 C8.16551133,7.89367971 8.23507286,7.54683653 8.46856392,7.31334467 L9.69723503,6.08467356 C9.87767333,5.90423526 10.1303504,5.81560106 10.383968,5.84378088 L12.6555751,6.09618198 L13.8435158,4.90824251 L9.09175791,0.15648486 L7.90381882,1.34442433 L8.1562187,3.61603242 C8.18439931,3.86964997 8.0957655,4.12232625 7.9153272,4.30276455 L6.68665529,5.53143608 C6.45316343,5.76492794 6.10632025,5.83448825 5.7965353,5.72016404 C4.30635275,5.1702202 2.56703149,5.49327194 1.37015148,6.69015152 L7.30984848,12.6298485 Z" id="Shape" fill="#999999"></path>
                            <path d="M4.34,9.66 L0,14" id="Shape" stroke="#999999" stroke-linecap="round" stroke-linejoin="round"></path>
                        </g>
                    </g>
                </g>
            </g>
        </g>
    </g>
</svg>