<?xml version="1.0" encoding="UTF-8" standalone="no"?>
<svg width="24px" height="14px" viewBox="0 0 24 14" version="1.1" xmlns="http://www.w3.org/2000/svg" xmlns:xlink="http://www.w3.org/1999/xlink">
    <!-- Generator: Sketch 42 (36781) - http://www.bohemiancoding.com/sketch -->
    <title>Morn 27 x 27</title>
    <desc>Created with Sketch.</desc>
    <defs></defs>
    <g id="Smart-meter-V2" stroke="none" stroke-width="1" fill="none" fill-rule="evenodd">
        <g id="smart-meter-billing_daily-hourly" transform="translate(-565.000000, -604.000000)">
            <g id="Group-5" transform="translate(431.000000, 599.000000)">
                <g id="Group-14" transform="translate(47.000000, 0.000000)">
                    <g id="Morn-27-x-27" transform="translate(86.000000, 0.000000)">
                        <rect id="mask-2" fill="#D8D8D8" opacity="0" x="0" y="0.865719564" width="25.1058673" height="23.3744282"></rect>
                        <g id="morning-icon" transform="translate(13.241460, 14.208652) rotate(42.000000) translate(-13.241460, -14.208652) translate(3.598603, 5.829342)">
                            <path d="M6.38083172,14.965038 C4.0067828,12.3095545 4.35849375,8.40931308 7.08425362,6.16874888 C9.81001349,3.92818468 14.0305449,4.26012011 16.4045938,6.83261975 L12.4791088,12.1546843 L6.38083172,14.965038 Z" id="Shape" fill="#FFE344" transform="translate(10.602145, 9.820777) rotate(-2.000000) translate(-10.602145, -9.820777) "></path>
                            <path d="M5.63158177,4.6648738 L4.30263947,3.26859472" id="Shape" stroke="#FFE344" stroke-width="2" stroke-linecap="round" stroke-linejoin="round"></path>
                            <path d="M2.59795252,9.92123289 L0.399759082,10.1701845" id="Shape" stroke="#FFE344" stroke-width="2" stroke-linecap="round" stroke-linejoin="round"></path>
                            <path d="M11.1205062,2.67333119 L11.1205062,0.576183249" id="Shape-Copy-4" stroke="#FFE344" stroke-width="2" stroke-linecap="round" stroke-linejoin="round" transform="translate(11.346589, 1.626020) scale(1, -1) translate(-11.346589, -1.626020) "></path>
                            <path d="M4.70867546,15.5102791 L2.1991329,16.4678396" id="Shape-Copy-2" stroke="#FFE344" stroke-width="2" stroke-linecap="round" stroke-linejoin="round"></path>
                            <path d="M18.5786515,2.73677101 L17.2677865,4.83333695" id="Shape-Copy-3" stroke="#FFE344" stroke-width="2" stroke-linecap="round" stroke-linejoin="round"></path>
                        </g>
                    </g>
                </g>
            </g>
        </g>
    </g>
</svg>