<?xml version="1.0" encoding="UTF-8" standalone="no"?>
<svg width="20px" height="14px" viewBox="0 0 20 14" version="1.1" xmlns="http://www.w3.org/2000/svg" xmlns:xlink="http://www.w3.org/1999/xlink">
    <!-- Generator: Sketch 42 (36781) - http://www.bohemiancoding.com/sketch -->
    <title>eve 27x27</title>
    <desc>Created with Sketch.</desc>
    <defs></defs>
    <g id="Smart-meter-V2" stroke="none" stroke-width="1" fill="none" fill-rule="evenodd">
        <g id="smart-meter-billing_daily-hourly" transform="translate(-706.000000, -607.000000)">
            <g id="Group-5" transform="translate(431.000000, 599.000000)">
                <g id="Group-14" transform="translate(47.000000, 0.000000)">
                    <g id="eve-27x27" transform="translate(224.000000, 1.000000)">
                        <rect id="mask-01" fill="#D8D8D8" opacity="0" x="0" y="0" width="27" height="27"></rect>
                        <path d="M21.2287052,12.9545355 L21.2287052,12.6263328 C21.2287052,9.53184975 17.9600738,7 15.6333948,7 C13.3067159,7 10.6331502,8.75629009 10.6331502,11.8507731 C10.6331502,12.4134064 10.7279095,12.9760397 10.8700484,13.4917869 C10.1593538,12.7884953 9.16438125,12.3196342 8.02726978,12.3196342 C5.80042649,12.3196342 4,14.1013062 4,16.3049532 C4,18.5086002 5.80042649,20.2902723 8.02726978,20.2902723 L19.3983844,20.2902723 C21.862126,20.2902723 24.5575679,18.2290392 23.8994507,15.8360922 C23.3889914,13.9800369 22.3658167,13.7984854 21.2287052,12.9545355 Z" id="eve-icon" fill="#FFE344"></path>
                    </g>
                </g>
            </g>
        </g>
    </g>
</svg>