<?xml version="1.0" encoding="UTF-8" standalone="no"?>
<svg width="85px" height="121px" viewBox="0 0 85 121" version="1.1" xmlns="http://www.w3.org/2000/svg" xmlns:xlink="http://www.w3.org/1999/xlink">
    <!-- Generator: Sketch 42 (36781) - http://www.bohemiancoding.com/sketch -->
    <title>feedback icon copy</title>
    <desc>Created with Sketch.</desc>
    <defs></defs>
    <g id="Version-06" stroke="none" stroke-width="1" fill="none" fill-rule="evenodd">
        <g id="Graph-colour_Gas-Option-A" transform="translate(-186.000000, -1610.000000)">
            <g id="Group-8" transform="translate(130.000000, 1549.000000)">
                <g id="feedback-icon-copy" transform="translate(56.000000, 61.000000)">
                    <rect id="Rectangle-12" fill="#50E3C2" x="0" y="9.97467286" width="84.8903832" height="111.025327" rx="4"></rect>
                    <rect id="Rectangle-12-Copy" fill="#FFFFFF" x="11.2354919" y="18.7025116" width="63.6677874" height="89.7720557"></rect>
                    <path d="M48.6871315,6.85758759 C48.6871315,3.07024654 45.6130587,0 41.8209976,0 C38.0289365,0 34.9548637,3.07024654 34.9548637,6.85758759" id="Oval-4" fill="#006CE5"></path>
                    <path d="M23.0951778,34.2879379 L63.1215416,34.2879379" id="Line" stroke="#50E3C2" stroke-width="3" stroke-linecap="round"></path>
                    <path d="M23.0951778,46.756279 L58.0500415,46.756279" id="Line-Copy-22" stroke="#50E3C2" stroke-width="3" stroke-linecap="round"></path>
                    <path d="M23.0951778,59.2246201 L51.8081015,59.2246201" id="Line-Copy-28" stroke="#50E3C2" stroke-width="3" stroke-linecap="round"></path>
                    <ellipse id="Oval-5" fill="#FFE42C" cx="41.8209976" cy="85.6423069" rx="16.8532378" ry="16.8322604"></ellipse>
                    <path d="M49.9355195,96.2403968 C49.9355195,96.2403968 46.5819855,88.7593921 42.4451916,88.7593921 C38.3083977,88.7593921 34.9548637,96.2403968 34.9548637,96.2403968 L49.9355195,96.2403968 Z" id="Oval-6" fill="#C5AF1C" transform="translate(42.445192, 92.499894) scale(1, -1) translate(-42.445192, -92.499894) "></path>
                    <path d="M23.7193718,10.2388556 C23.7193718,8.02712909 25.5146967,6.23417054 27.7146811,6.23417054 L55.9273141,6.23417054 C58.1338625,6.23417054 59.9226234,8.02020182 59.9226234,10.2388556 L59.9226234,23.689848 L23.7193718,23.689848 L23.7193718,10.2388556 Z" id="Rectangle-13" fill="#006CE5"></path>
                </g>
            </g>
        </g>
    </g>
</svg>