<?xml version="1.0" encoding="UTF-8"?>
<svg width="10px" height="17px" viewBox="0 0 10 17" version="1.1" xmlns="http://www.w3.org/2000/svg" xmlns:xlink="http://www.w3.org/1999/xlink">
    <!-- Generator: Sketch 47.1 (45422) - http://www.bohemiancoding.com/sketch -->
    <title>Mobile Chevron</title>
    <desc>Created with Sketch.</desc>
    <defs></defs>
    <g id="Symbols" stroke="none" stroke-width="1" fill="none" fill-rule="evenodd">
        <g id="Mobile-Chevron" fill-rule="nonzero" fill="#001CB0">
            <path d="M0.394270274,8.70845271 C0.360121075,8.6821806 0.327279523,8.65340233 0.295995097,8.6221179 C0.13696467,8.46308748 0.0426950713,8.26381983 0.0131863017,8.05708599 C-0.0383747549,7.7420947 0.0614315873,7.40789575 0.309844808,7.17098314 C0.348975484,7.13366407 0.390342787,7.10014264 0.433491384,7.07040806 L7.21100622,0.292893219 C7.60153051,-0.0976310729 8.23469549,-0.0976310729 8.62521978,0.292893219 C9.01574407,0.683417511 9.01574407,1.31658249 8.62521978,1.70710678 L2.40911387,7.92321269 L8.8251441,14.6507007 C9.20630726,15.0503669 9.19130756,15.6833542 8.79164134,16.0645173 C8.39197512,16.4456805 7.75898783,16.4306808 7.37782467,16.0310146 L0.394270274,8.70845271 Z" id="Combined-Shape"></path>
        </g>
    </g>
</svg>
